<svg width="32" xmlns="http://www.w3.org/2000/svg" height="32" viewBox="0 0 32 32" xmlns:xlink="http://www.w3.org/1999/xlink">
<g style="fill-rule:evenodd">
<path style="fill:#fff" d="M 3.429688 0 L 20.570312 0 C 24 0 24 0 24 3.554688 L 24 28.445312 C 24 32 24 32 20.570312 32 L 3.429688 32 C 0 32 0 32 0 28.445312 L 0 3.554688 C 0 0 0 0 3.429688 0 Z "/>
<path style="fill:#268bd2" d="M 18.75 26.75 C 19.03125 26.75 19.4375 26.5 19.9375 26 L 29.9375 18 C 31.945312 15.992188 31.9375 16 29.9375 14 L 19.9375 6 C 18.4375 4.5 18.03125 5.25 17.9375 8.25 C 17.90625 9.25 17.9375 10.5 17.9375 12 C 17.917969 12 17.898438 12 17.875 12 C 7.9375 12 3.9375 18 4 26.0625 C 7.9375 22 11.9375 20 17.9375 20.125 C 17.9375 21.558594 17.90625 22.785156 17.9375 23.75 C 18 25.75 18.1875 26.75 18.75 26.75 Z "/>
</g>
</svg>
