<svg width="32" xmlns="http://www.w3.org/2000/svg" height="32" viewBox="0 0 32 32" xmlns:xlink="http://www.w3.org/1999/xlink">
<path style="fill:#268bd2;fill-rule:evenodd" d="M 8.222656 0 L 23.777344 0 C 28.445312 0 30 1.601562 30 6.398438 L 30 25.601562 C 30 30.398438 28.445312 32 23.777344 32 L 8.222656 32 C 3.554688 32 2 30.398438 2 25.601562 L 2 6.398438 C 2 1.601562 3.554688 0 8.222656 0 Z "/>
<g style="fill:#fff">
<path style="fill-rule:evenodd;fill-opacity:.302" d="M 8.222656 0 L 23.777344 0 C 28.445312 0 30 1.601562 30 6.398438 L 30 19.199219 C 30 24 28.445312 25.601562 23.777344 25.601562 L 8.222656 25.601562 C 3.554688 25.601562 2 24 2 19.199219 L 2 6.398438 C 2 1.601562 3.554688 0 8.222656 0 Z "/>
<path style="fill-opacity:.902" d="M 25 14 L 16 24 L 7 14 L 12 14 L 12 4 L 20 4 L 20 14 Z "/>
</g>
</svg>
