<svg width="32" xmlns="http://www.w3.org/2000/svg" height="32" viewBox="0 0 32 32" xmlns:xlink="http://www.w3.org/1999/xlink">
<g style="fill:#888">
<path d="M 20 12.324219 C 20 13.015625 19.878906 13.597656 19.632812 14.066406 C 19.386719 14.527344 19.050781 14.898438 18.625 15.179688 C 18.210938 15.453125 17.710938 15.652344 17.128906 15.773438 C 16.5625 15.886719 15.945312 15.941406 15.289062 15.941406 C 14.132812 15.953125 13.066406 15.53125 12 15.367188 L 12 4.648438 C 13.0625 4.460938 14.050781 4.230469 15.054688 4.179688 C 15.960938 4.179688 16.695312 4.269531 17.265625 4.457031 C 17.835938 4.628906 18.28125 4.863281 18.605469 5.160156 C 18.925781 5.445312 19.148438 5.769531 19.261719 6.125 C 19.378906 6.484375 19.4375 6.84375 19.4375 7.203125 C 19.4375 7.746094 19.296875 8.230469 19.011719 8.648438 C 18.738281 9.070312 18.371094 9.40625 17.90625 9.652344 C 18.71875 9.9375 19.269531 10.320312 19.554688 10.800781 C 19.851562 11.285156 20 11.792969 20 12.324219 M 14.335938 10.765625 L 14.335938 13.882812 C 14.503906 13.90625 14.6875 13.925781 14.878906 13.9375 C 15.085938 13.949219 15.289062 13.957031 15.480469 13.957031 C 15.753906 13.957031 16.019531 13.9375 16.277344 13.902344 C 16.535156 13.851562 16.761719 13.769531 16.957031 13.660156 C 17.160156 13.535156 17.332031 13.367188 17.460938 13.160156 C 17.589844 12.9375 17.652344 12.65625 17.652344 12.324219 C 17.652344 11.765625 17.464844 11.371094 17.089844 11.136719 C 16.730469 10.890625 16.238281 10.765625 15.617188 10.765625 L 14.335938 10.765625 M 15.269531 8.871094 C 15.875 8.871094 16.335938 8.75 16.644531 8.5 C 16.957031 8.242188 17.109375 7.890625 17.109375 7.445312 C 17.109375 7.171875 17.066406 6.957031 16.972656 6.792969 C 16.882812 6.621094 16.761719 6.492188 16.605469 6.40625 C 16.449219 6.304688 16.269531 6.246094 16.0625 6.21875 C 15.855469 6.183594 15.644531 6.164062 15.421875 6.164062 C 15.242188 6.164062 15.054688 6.171875 14.859375 6.183594 C 14.667969 6.195312 14.492188 6.214844 14.335938 6.238281 L 14.335938 8.871094 L 15.269531 8.871094 "/>
<path d="M 28.207031 16.035156 C 26.292969 16.035156 24.832031 15.515625 23.824219 14.476562 C 22.816406 13.4375 22 11.957031 22 10.042969 C 21.960938 8.015625 22.6875 6.816406 24.042969 5.625 C 24.597656 5.105469 25.25 4.714844 25.996094 4.457031 C 26.753906 4.183594 27.578125 4.046875 28.472656 4.046875 C 28.953125 4.046875 29.382812 4.085938 29.765625 4.160156 C 30.160156 4.222656 30.503906 4.296875 30.792969 4.382812 C 31.085938 4.46875 31.328125 4.5625 31.519531 4.660156 C 31.722656 4.761719 31.875 4.835938 31.976562 4.882812 L 31.277344 6.703125 C 30.941406 6.515625 30.53125 6.363281 30.050781 6.238281 C 29.582031 6.101562 29.042969 6.035156 28.425781 6.035156 C 28.003906 6.035156 27.585938 6.101562 27.179688 6.238281 C 26.785156 6.363281 26.425781 6.578125 26.105469 6.886719 C 25.796875 7.183594 25.542969 7.585938 25.335938 8.09375 C 25.148438 8.601562 25.050781 9.230469 25.050781 9.984375 C 25.050781 11.296875 25.316406 12.304688 25.839844 13.011719 C 26.382812 13.703125 27.257812 14.050781 28.472656 14.050781 C 29.171875 14.050781 29.75 13.980469 30.203125 13.84375 C 30.671875 13.710938 31.042969 13.574219 31.320312 13.4375 L 32 15.238281 C 31.621094 15.433594 31.101562 15.621094 30.445312 15.792969 C 29.800781 15.953125 29.054688 16.035156 28.207031 16.035156 "/>
<path d="M 4 4.0625 L 0 16.046875 L 2 16.046875 L 3.3125 12.054688 L 6.6875 12.054688 L 8 16.046875 L 10 16.046875 L 6 4.0625 Z M 5 7.058594 L 6 10.054688 L 4 10.054688 Z "/>
</g>
<path style="fill:#859900" d="M 16 22.046875 L 28 10.046875 L 32 14.046875 L 16 30.046875 C 12.667969 26.714844 9.332031 23.382812 6 20.046875 L 10 16.046875 Z "/>
</svg>
