<?xml version="1.0" encoding="UTF-8" standalone="no"?>
<svg
   xmlns:dc="http://purl.org/dc/elements/1.1/"
   xmlns:cc="http://creativecommons.org/ns#"
   xmlns:rdf="http://www.w3.org/1999/02/22-rdf-syntax-ns#"
   xmlns:svg="http://www.w3.org/2000/svg"
   xmlns="http://www.w3.org/2000/svg"
   xmlns:sodipodi="http://sodipodi.sourceforge.net/DTD/sodipodi-0.dtd"
   xmlns:inkscape="http://www.inkscape.org/namespaces/inkscape"
   width="22"
   height="22"
   viewBox="0 0 22 22"
   id="svg2"
   version="1.1"
   inkscape:version="0.91 r"
   sodipodi:docname="gtk-edit.svg">
  <metadata
     id="metadata16">
    <rdf:RDF>
      <cc:Work
         rdf:about="">
        <dc:format>image/svg+xml</dc:format>
        <dc:type
           rdf:resource="http://purl.org/dc/dcmitype/StillImage" />
        <dc:title></dc:title>
      </cc:Work>
    </rdf:RDF>
  </metadata>
  <defs
     id="defs14">
    <clipPath
       id="clip1">
      <path
         id="path4225"
         d="m 17,10 14,0 0,20 -14,0 m 0,-20"
         inkscape:connector-curvature="0" />
    </clipPath>
    <clipPath
       id="clip2">
      <path
         id="path4228"
         d="m 41.895,19.992 c 0,10.582 -8.02,19.16 -17.895,19.16 -9.875,0 -17.891,-8.574 -17.891,-19.16 0,-10.586 8.02,-19.16 17.891,-19.16 9.879,0 17.895,8.574 17.895,19.16 m 0,0"
         inkscape:connector-curvature="0" />
    </clipPath>
  </defs>
  <sodipodi:namedview
     pagecolor="#ffffff"
     bordercolor="#666666"
     borderopacity="1"
     objecttolerance="10"
     gridtolerance="10"
     guidetolerance="10"
     inkscape:pageopacity="0"
     inkscape:pageshadow="2"
     inkscape:window-width="1366"
     inkscape:window-height="747"
     id="namedview12"
     showgrid="true"
     inkscape:zoom="4.9166669"
     inkscape:cx="-33.505093"
     inkscape:cy="7.4764702"
     inkscape:window-x="0"
     inkscape:window-y="21"
     inkscape:window-maximized="1"
     inkscape:current-layer="svg2">
    <inkscape:grid
       type="xygrid"
       id="grid4144" />
  </sodipodi:namedview>
  <path
     id="path4152"
     d="M 4.3333335,1 13.666666,1 C 16,1 16,1 16,3.250275 l 0,13.49945 C 16,19 16,19 13.666666,19 L 4.3333335,19 C 2,19 2,19 2,16.749725 L 2,3.250275 C 2,1 2,1 4.3333335,1 Z"
     style="fill:#ffffff;fill-opacity:1;fill-rule:evenodd"
     inkscape:connector-curvature="0" />
  <g
     style="fill:#888888"
     id="g4154"
     transform="matrix(0.58333335,0,0,0.56256865,-8.5,-5.751923)">
    <path
       inkscape:connector-curvature="0"
       d="m 23.142968,19.112197 0,3.555122 13.714285,0 0,-3.555122 z"
       id="path4156"
       sodipodi:nodetypes="ccccc" />
    <path
       inkscape:connector-curvature="0"
       d="m 23.142968,33.332684 0,3.555122 6.857032,0 0,-3.555122 z"
       id="path4158"
       sodipodi:nodetypes="ccccc" />
    <path
       inkscape:connector-curvature="0"
       d="m 23.142968,26.22244 0,3.555121 13.714285,0 0,-3.555121 z"
       id="path4160"
       sodipodi:nodetypes="ccccc" />
  </g>
  <g
     id="g4250"
     transform="translate(-52.770186,-48.059322)" />
  <g
     id="g4282"
     clip-path="url(#clip1)"
     transform="translate(35.094221,-28.940678)">
    <g
       id="g4284"
       clip-path="url(#clip2)" />
  </g>
  <path
     id="path4288"
     d="m 20.00013,9.126322 c 0,0 6.5e-4,-0.487106 -1.085358,-1.114106 C 17.867098,7.407341 17.378407,7.673279 17.378407,7.673279 L 11.728,17.459575 11.416272,21 14.324,18.958074"
     inkscape:connector-curvature="0"
     style="fill:#ff6f03;fill-opacity:1;fill-rule:nonzero;stroke:none"
     sodipodi:nodetypes="cscccc" />
  <path
     id="path4290"
     d="M 11.728,17.46 11.416272,21 14.324,18.958"
     inkscape:connector-curvature="0"
     style="fill:#ffc13d;fill-opacity:1;fill-rule:nonzero;stroke:none"
     sodipodi:nodetypes="ccc" />
  <path
     id="path4292"
     d="M 11.556873,19.349472 11.416272,21 12.777319,20.054096"
     inkscape:connector-curvature="0"
     style="fill:#2d2d2d;fill-opacity:1;fill-rule:nonzero;stroke:none"
     sodipodi:nodetypes="ccc" />
</svg>
