<svg width="128" xmlns="http://www.w3.org/2000/svg" height="128" viewBox="0 0 128 128" xmlns:xlink="http://www.w3.org/1999/xlink">
<path style="fill:#fff;stroke:#777;stroke-width:.792" d="M 43.604004 24 C 43.602539 34.82666 34.82666 43.601074 24 43.601074 C 13.17334 43.601074 4.397461 34.82666 4.395996 24 C 4.394531 13.171875 13.171875 4.393066 24 4.393066 C 34.828125 4.393066 43.605469 13.171875 43.604004 24 Z " transform="scale(2.66667)"/>
<path style="fill:#dc322f" d="M 64 32 C 60.039062 32 56.851562 34.855469 56.851562 38.398438 L 56.851562 52.800781 L 42.777344 45.601562 C 39.347656 43.828125 34.929688 44.929688 32.949219 48 C 30.96875 51.070312 32.199219 55.027344 35.628906 56.800781 L 49.480469 64 L 35.628906 71.199219 C 32.199219 72.972656 30.96875 76.929688 32.949219 80 C 34.929688 83.070312 39.347656 84.171875 42.777344 82.398438 L 56.851562 75.199219 L 56.851562 89.601562 C 56.851562 93.144531 60.039062 96 64 96 C 67.960938 96 71.148438 93.144531 71.148438 89.601562 L 71.148438 75.199219 L 85.222656 82.398438 C 88.652344 84.171875 93.070312 83.070312 95.050781 80 C 97.03125 76.929688 95.800781 72.972656 92.371094 71.199219 L 78.519531 64 L 92.371094 56.800781 C 95.800781 55.027344 97.03125 51.070312 95.050781 48 C 93.070312 44.929688 88.652344 43.828125 85.222656 45.601562 L 71.148438 52.800781 L 71.148438 38.398438 C 71.148438 34.855469 67.960938 32 64 32 Z "/>
</svg>
