<svg width="128" xmlns="http://www.w3.org/2000/svg" height="128" viewBox="0 0 128 128" xmlns:xlink="http://www.w3.org/1999/xlink">
<path style="fill:#fff;stroke:#777;stroke-width:.792" d="M 43.604004 24 C 43.602539 34.82666 34.82666 43.601074 24 43.601074 C 13.17334 43.601074 4.397461 34.82666 4.395996 24 C 4.394531 13.171875 13.171875 4.393066 24 4.393066 C 34.828125 4.393066 43.605469 13.171875 43.604004 24 Z " transform="scale(2.66667)"/>
<path style="fill:#427fec;fill-rule:evenodd" d="M 64 32 C 54.972656 32 47.742188 39.144531 47.742188 48 C 47.761719 48.941406 47.828125 50.304688 47.914062 51.453125 C 46.371094 52.144531 46.257812 55.300781 47.566406 58.546875 C 48.085938 59.832031 48.75 60.820312 49.46875 61.636719 C 49.644531 62.546875 49.597656 62.957031 49.816406 64 C 50.421875 65.90625 52.804688 69.644531 55.003906 72.726562 C 55.222656 75.097656 55.445312 77.488281 55.003906 80.183594 C 48.664062 85.714844 32.320312 88.09375 32.347656 93.816406 L 32 96 L 96 96 L 95.652344 93.816406 C 95.628906 88.917969 79.257812 85.90625 72.996094 80.183594 C 72.742188 77.988281 72.691406 75.796875 72.820312 73.636719 C 74.828125 70.382812 77.511719 66.125 78.183594 64 C 78.425781 62.925781 78.515625 62.199219 78.703125 61.273438 C 79.304688 60.507812 79.816406 59.640625 80.257812 58.546875 C 81.503906 55.464844 81.421875 52.519531 80.085938 51.636719 C 80.164062 50.394531 80.226562 49.074219 80.257812 48 C 80.257812 39.144531 73.027344 32 64 32 Z "/>
</svg>
