<svg width="128" xmlns="http://www.w3.org/2000/svg" height="128" viewBox="0 0 128 128" xmlns:xlink="http://www.w3.org/1999/xlink">
<path style="fill:#fff;stroke:#777;stroke-width:.5" d="M 25.932037 35.186401 C 25.932037 42.094374 20.445477 47.694777 13.677926 47.694777 C 6.910376 47.694777 1.423816 42.094374 1.423816 35.186401 C 1.423816 28.278427 6.910376 22.678024 13.677926 22.678024 C 20.445477 22.678024 25.932037 28.278427 25.932037 35.186401 Z " transform="matrix(4.26611 0 0 4.17939 5.64851 -83.05757)"/>
<g style="fill:#427fec">
<path d="M 30.3125 39.457031 L 97.6875 39.457031 C 99.699219 39.457031 101.332031 41.210938 101.332031 43.375 L 101.332031 88.886719 C 101.332031 91.042969 99.699219 92.792969 97.6875 92.792969 L 30.3125 92.792969 C 28.300781 92.792969 26.667969 91.042969 26.667969 88.886719 L 26.667969 43.375 C 26.667969 41.210938 28.300781 39.457031 30.3125 39.457031 Z "/>
<path d="M 36.535156 35.207031 L 47.191406 35.207031 C 48.671875 35.207031 49.863281 36.398438 49.863281 37.878906 C 49.863281 39.351562 48.671875 40.542969 47.191406 40.542969 L 36.535156 40.542969 C 35.050781 40.542969 33.863281 39.351562 33.863281 37.878906 C 33.863281 36.398438 35.050781 35.207031 36.535156 35.207031 Z "/>
</g>
<g style="fill:#fff">
<path d="M 89.074219 45.625 L 91.46875 45.625 C 92.792969 45.625 93.863281 46.769531 93.863281 48.167969 L 93.863281 50.714844 C 93.863281 52.117188 92.792969 53.25 91.46875 53.25 L 89.074219 53.25 C 87.742188 53.25 86.667969 52.117188 86.667969 50.714844 L 86.667969 48.167969 C 86.667969 46.769531 87.742188 45.625 89.074219 45.625 Z "/>
<path d="M 78.269531 67.234375 C 78.269531 76.363281 71.285156 83.753906 62.664062 83.753906 C 54.046875 83.753906 47.0625 76.363281 47.0625 67.234375 C 47.0625 58.109375 54.046875 50.714844 62.664062 50.714844 C 71.285156 50.714844 78.269531 58.109375 78.269531 67.234375 Z "/>
</g>
</svg>
