<svg width="128" xmlns="http://www.w3.org/2000/svg" height="128" viewBox="0 0 128 128" xmlns:xlink="http://www.w3.org/1999/xlink">
<path style="fill:#427fec;fill-rule:evenodd" d="M 63.992188 12 L 64.007812 12 C 92.722656 12 116 35.277344 116 63.992188 L 116 64.007812 C 116 92.722656 92.722656 116 64.007812 116 L 63.992188 116 C 35.277344 116 12 92.722656 12 64.007812 L 12 63.992188 C 12 35.277344 35.277344 12 63.992188 12 Z "/>
<path style="fill:#fff" d="M 14.976562 65.417969 L 15.53125 62.730469 L 21.574219 65.1875 L 25.742188 68.945312 L 29.324219 69.457031 C 28.042969 72.269531 25.453125 76.808594 25.925781 79.953125 C 26.199219 81.777344 28.125 84.382812 29.222656 85.871094 C 30.757812 87.949219 33.652344 89.175781 34.425781 91.792969 L 34.554688 96.097656 L 35.394531 99.328125 C 35.226562 100.695312 33.910156 103.066406 34.777344 104.339844 C 35.734375 105.734375 39.265625 107.492188 40.90625 107.929688 C 42.476562 108.351562 42.644531 106.757812 42.011719 105.785156 L 44.058594 103.046875 L 46.648438 101.183594 L 48.472656 95.035156 L 52.394531 92.5625 C 54.003906 90.222656 52.839844 88.277344 53.441406 85.871094 L 56.082031 78.605469 C 53.09375 77.515625 48.8125 76.179688 46.703125 73.761719 L 46.152344 74.03125 L 45.597656 71.609375 L 42.289062 69.996094 L 41.738281 70.53125 L 40.910156 66.765625 L 36.496094 66.425781 L 33.183594 64.660156 C 31.757812 64.460938 29.859375 66.742188 29.324219 67.839844 L 27.390625 67.574219 L 27.945312 67.035156 L 26.289062 65.957031 L 26.566406 67.035156 C 25.375 65.835938 25.171875 64.324219 25.460938 62.730469 L 23.53125 61.921875 L 23.253906 62.730469 C 22.910156 61.398438 23.050781 59.675781 24.082031 58.691406 C 22.570312 57.6875 21.546875 58.628906 20.496094 59.769531 L 18.289062 55.460938 C 17.679688 56.785156 17.902344 58.101562 18.011719 59.5 L 17.460938 59.5 C 17.339844 57.992188 16.957031 56.347656 17.742188 54.929688 C 19.203125 52.277344 23.589844 51.152344 26.289062 51.695312 L 26.011719 52.234375 L 28.496094 54.386719 C 28.507812 50.269531 30.164062 49.835938 32.496094 46.839844 L 34.128906 43.953125 C 35.9375 42.011719 38.746094 40.6875 41.175781 39.816406 L 44.21875 37.972656 C 43.234375 36.308594 40.640625 36.785156 38.976562 36.894531 C 41.96875 35.234375 46.035156 36.132812 48.082031 33.125 C 45.847656 31.542969 45.847656 27.40625 42.289062 29.089844 L 42.839844 27.476562 L 39.804688 26.128906 L 37.59375 30.632812 L 34.566406 34.203125 L 34.289062 32.320312 C 33.121094 31.789062 29.90625 30.867188 29.84375 29.359375 C 29.777344 27.71875 34.964844 25.242188 36.21875 24.246094 L 35.667969 25.59375 L 37.804688 25.398438 C 38.257812 25.117188 42.5625 19.203125 43.117188 22.902344 C 46.109375 24.007812 46.445312 25.269531 49.460938 23.4375 L 47.53125 22.632812 C 47.226562 19.972656 44.820312 19.941406 42.566406 19.941406 L 49.738281 16.710938 C 50.535156 18.621094 53.039062 19.011719 53.851562 20.773438 C 54.425781 22.023438 52.714844 22.777344 52.757812 23.976562 C 52.8125 25.457031 54.285156 27.269531 54.980469 28.550781 L 59.128906 24.128906 C 61.417969 22.9375 65.101562 22.808594 66.925781 20.882812 C 69.035156 18.65625 67.875 15.109375 71.804688 15.097656 C 71.007812 14.769531 69.722656 14.519531 69.046875 15.097656 L 68.21875 14.289062 L 69.324219 14.289062 C 68.746094 13.515625 68.359375 13.101562 67.394531 12.945312 C 66.285156 11.605469 63.734375 12.238281 62.152344 12.089844 C 56.640625 11.582031 50.691406 13.308594 45.597656 15.007812 C 28.230469 20.792969 12.679688 39.425781 12.003906 57.882812 C 11.925781 59.980469 13.75 60.910156 14.65625 62.515625 L 14.976562 65.417969 M 88.082031 20.210938 C 87.113281 20.984375 85.460938 21.371094 84.21875 21.554688 L 81.972656 24.578125 L 79.34375 26.71875 C 78.917969 27.699219 79.597656 29.179688 79.808594 30.167969 L 82.566406 28.820312 C 82.960938 30.15625 84.035156 30.5 85.046875 31.242188 C 86.683594 28.214844 85.277344 25.324219 89.1875 23.707031 L 86.703125 26.667969 L 87.53125 26.128906 L 87.808594 27.746094 L 88.082031 25.589844 C 88.8125 28.019531 88.050781 31.359375 85.324219 32.277344 L 82.566406 32.050781 L 82.566406 30.4375 C 80.996094 30.753906 81.046875 31.515625 81.460938 32.859375 C 80.398438 32.5625 79.765625 32.613281 78.980469 33.394531 C 78.136719 32.550781 77.449219 31.902344 77.324219 30.703125 C 76.789062 30.183594 76.550781 29.828125 76.496094 29.089844 L 74.566406 28.820312 L 75.394531 33.125 C 74.65625 31.78125 73.894531 31.457031 72.359375 31.78125 L 73.1875 35.011719 L 74.289062 34.742188 L 73.460938 34.472656 L 74.566406 32.589844 L 75.117188 35.546875 L 77.601562 35.011719 C 76.90625 35.660156 76.351562 35.816406 75.394531 35.816406 L 75.667969 36.625 L 74.289062 36.625 L 76.222656 39.855469 C 71.699219 39.890625 71.648438 42.148438 71.808594 45.773438 C 72.6875 45.835938 73.121094 45.964844 73.738281 46.582031 C 77.386719 44.707031 78.230469 41.21875 82.566406 40.125 C 83.269531 42.257812 85.441406 42.125 84.773438 44.699219 C 86.902344 44.273438 87.496094 42.527344 86.152344 40.929688 C 87.964844 41.984375 88.488281 44.148438 89.738281 45.773438 C 90.617188 44.648438 90.273438 43.359375 91.667969 42.546875 L 91.667969 43.351562 C 94.007812 45.375 95.617188 45.832031 98.566406 46.851562 C 97.554688 48.253906 96.332031 49.632812 94.429688 49.515625 C 92.097656 49.375 89.125 47.148438 87.53125 49.8125 L 83.09375 46.378906 C 80.628906 45.367188 78.207031 46.320312 75.667969 46.042969 L 74.566406 46.582031 L 75.117188 46.851562 C 70.0625 49.070312 67.261719 54.910156 66.734375 59.769531 L 65.769531 62.996094 C 66.308594 66.152344 69.042969 69.417969 71.34375 71.5625 C 72.964844 73.074219 74.128906 70.117188 75.667969 71.609375 C 77.707031 70.855469 80.785156 69.546875 82.65625 71.648438 C 83.882812 73.03125 82.605469 74.167969 83.03125 75.644531 C 83.769531 78.203125 85.527344 81.195312 85.523438 83.988281 L 84.832031 90.714844 C 85.433594 94.816406 87.769531 98.261719 87.808594 102.558594 C 91.191406 102.21875 94.992188 100.558594 96.867188 97.714844 L 97.675781 95.316406 L 99.070312 93.652344 L 98.542969 91.007812 C 99.335938 89.160156 102.527344 88.964844 103.007812 86.945312 C 103.660156 84.195312 101.949219 80.933594 102.96875 78.066406 C 104.542969 73.652344 108.929688 70.421875 109.050781 65.421875 L 105.738281 65.691406 C 108.714844 62.125 115.027344 60.332031 111.808594 54.925781 L 110.429688 56.539062 L 109.875 56.539062 C 108.8125 54.359375 107.121094 54.132812 107.117188 51.425781 C 109.699219 53.59375 112.375 53.664062 114.84375 56.269531 C 117.511719 54.859375 114.824219 48.710938 114.105469 46.582031 C 111.71875 39.507812 107.804688 32.800781 102.425781 27.476562 C 100.503906 25.574219 98.96875 23.265625 96.082031 22.902344 L 96.359375 22.09375 C 94.117188 21.804688 90.363281 21.785156 88.632812 20.210938 Z "/>
<path style="fill:none;stroke:#427fec" d="M 7.999023 2 L 8.000977 2 C 11.313965 2 14 4.686035 14 7.999023 L 14 8.000977 C 14 11.313965 11.313965 14 8.000977 14 L 7.999023 14 C 4.686035 14 2 11.313965 2 8.000977 L 2 7.999023 C 2 4.686035 4.686035 2 7.999023 2 Z " transform="scale(8)"/>
</svg>
