<svg width="128" xmlns="http://www.w3.org/2000/svg" height="128" viewBox="0 0 128 128" xmlns:xlink="http://www.w3.org/1999/xlink">
<path style="fill:#fff;stroke:#777;stroke-width:.5" d="M 25.932037 35.186401 C 25.932037 42.094374 20.445477 47.694777 13.677926 47.694777 C 6.910376 47.694777 1.423816 42.094374 1.423816 35.186401 C 1.423816 28.278427 6.910376 22.678024 13.677926 22.678024 C 20.445477 22.678024 25.932037 28.278427 25.932037 35.186401 Z " transform="matrix(4.26611 0 0 4.17939 5.64851 -83.05757)"/>
<g style="fill:#dc322f">
<path d="M 64 85.425781 L 64 92.535156 L 52.640625 100 "/>
<path d="M 64 85.425781 L 64 92.535156 L 75.359375 100 "/>
<path d="M 32.644531 88.339844 L 32.902344 43.480469 L 95.097656 43.609375 L 95.355469 88.214844 Z "/>
<path d="M 30.734375 39.660156 L 97.265625 39.660156 L 97.265625 47.773438 L 30.734375 47.773438 Z "/>
</g>
</svg>
