<svg width="128" xmlns="http://www.w3.org/2000/svg" height="128" viewBox="0 0 128 128" xmlns:xlink="http://www.w3.org/1999/xlink">
<path style="fill:#fff;stroke:#777;stroke-width:.792" d="M 43.604004 24 C 43.604004 29.131348 41.490234 34.231934 37.861816 37.860352 C 34.231934 41.48877 29.131348 43.601074 24 43.601074 C 18.868652 43.601074 13.768066 41.48877 10.138184 37.860352 C 6.509766 34.231934 4.395996 29.131348 4.395996 24 C 4.394531 18.867188 6.508301 13.766602 10.136719 10.136719 C 13.766602 6.506836 18.867188 4.393066 24 4.393066 C 29.132812 4.393066 34.233398 6.506836 37.863281 10.136719 C 41.491699 13.766602 43.605469 18.867188 43.604004 24 Z " transform="scale(2.66667)"/>
<g style="fill-opacity:.941;fill:#53a93e">
<path d="M 64.367188 98.640625 C 66.128906 98.515625 67.839844 97.765625 69.101562 96.558594 L 91.035156 73.839844 C 92.429688 72.527344 93.269531 70.671875 93.328125 68.785156 C 93.457031 65.824219 91.546875 62.878906 88.746094 61.722656 C 85.941406 60.570312 82.441406 61.28125 80.347656 63.429688 L 64.019531 79.621094 L 46.886719 62.707031 C 44.011719 60.414062 39.351562 60.660156 36.746094 63.234375 C 34.140625 65.808594 33.957031 70.347656 36.351562 73.113281 L 58.410156 96.558594 C 59.960938 98.046875 62.199219 98.828125 64.367188 98.640625 Z "/>
<path d="M 64.65625 63.191406 C 68.292969 62.984375 71.359375 60.675781 71.21875 58.25 L 71.21875 34.128906 C 71.21875 31.617188 67.78125 29.332031 64 29.332031 C 60.21875 29.332031 56.78125 31.617188 56.78125 34.128906 L 56.78125 58.25 C 56.644531 60.8125 60.140625 63.207031 64 63.191406 C 64.21875 63.199219 64.4375 63.199219 64.65625 63.191406 Z "/>
</g>
</svg>
