<svg width="128" xmlns="http://www.w3.org/2000/svg" height="128" viewBox="0 0 128 128" xmlns:xlink="http://www.w3.org/1999/xlink">
<path style="fill:#fff;stroke:#777;stroke-width:.5" d="M 25.932037 35.186401 C 25.932037 42.094374 20.445477 47.694777 13.677926 47.694777 C 6.910376 47.694777 1.423816 42.094374 1.423816 35.186401 C 1.423816 28.278427 6.910376 22.678024 13.677926 22.678024 C 20.445477 22.678024 25.932037 28.278427 25.932037 35.186401 Z " transform="matrix(4.26611 0 0 4.17939 5.64851 -83.05757)"/>
<g style="fill:#dc322f">
<path d="M 62.816406 42.738281 C 39.394531 43.691406 16.605469 54.21875 26.28125 75.523438 C 40.398438 70.632812 60.050781 77.929688 51.886719 81.542969 C 67.96875 93.738281 107.679688 74.039062 103.726562 57.277344 C 99.625 47.070312 81.035156 41.996094 62.816406 42.738281 Z "/>
<path d="M 93.332031 25.441406 L 56.152344 84.453125 C 53.25 84.402344 50.554688 83.09375 48.601562 80.460938 L 88.441406 22.851562 C 91.117188 22.25 92.75 23.117188 93.332031 25.441406 Z "/>
<path d="M 48.386719 94.722656 C 52.554688 94.191406 59.011719 89.144531 55.996094 81.835938 C 48.769531 79.875 50.410156 78.882812 50.410156 78.882812 C 40.480469 81.136719 32.933594 91.910156 35.011719 98.757812 C 36.332031 103.101562 36.109375 102.652344 36.109375 102.652344 C 38.863281 94.261719 38.914062 95.800781 48.386719 94.722656 Z "/>
</g>
</svg>
