<svg width="128" xmlns="http://www.w3.org/2000/svg" height="128" viewBox="0 0 128 128" xmlns:xlink="http://www.w3.org/1999/xlink">
<path style="fill:#fff;stroke:#777;stroke-width:.5" d="M 25.932037 35.186401 C 25.932037 42.094374 20.445477 47.694777 13.677926 47.694777 C 6.910376 47.694777 1.423816 42.094374 1.423816 35.186401 C 1.423816 28.278427 6.910376 22.678024 13.677926 22.678024 C 20.445477 22.678024 25.932037 28.278427 25.932037 35.186401 Z " transform="matrix(4.26611 0 0 4.17939 5.64851 -83.05757)"/>
<path style="fill:#f2000b" d="M 57.332031 24 C 55.117188 24 53.332031 25.785156 53.332031 28 L 53.332031 68 C 53.332031 70.214844 55.117188 72 57.332031 72 L 70.667969 72 C 72.882812 72 74.667969 70.214844 74.667969 68 L 74.667969 28 C 74.667969 25.785156 72.769531 24.699219 70.667969 24 Z M 57.332031 82.667969 C 55.117188 82.667969 53.332031 84.449219 53.332031 86.667969 L 53.332031 100 C 53.332031 102.214844 55.230469 103.300781 57.332031 104 L 70.667969 104 C 72.882812 104 74.667969 102.214844 74.667969 100 L 74.667969 86.667969 C 74.667969 84.449219 72.882812 82.667969 70.667969 82.667969 Z "/>
</svg>
