<svg width="128" xmlns="http://www.w3.org/2000/svg" height="128" viewBox="0 0 128 128" xmlns:xlink="http://www.w3.org/1999/xlink">
<path style="fill:#fff;stroke:#777;stroke-width:.792" d="M 43.604004 24 C 43.602539 34.82666 34.82666 43.601074 24 43.601074 C 13.17334 43.601074 4.397461 34.82666 4.395996 24 C 4.394531 13.171875 13.171875 4.393066 24 4.393066 C 34.828125 4.393066 43.605469 13.171875 43.604004 24 Z " transform="scale(2.66667)"/>
<path style="fill:#53a93e;fill-rule:evenodd;fill-opacity:.941" d="M 72.359375 95.996094 C 69.515625 95.941406 66.671875 95.066406 64.347656 93.324219 C 56.875 87.722656 62.679688 81.90625 56.164062 77.023438 C 49.648438 72.140625 43.878906 77.976562 36.40625 72.378906 L 36.40625 72.371094 C 34.746094 71.125 33.550781 69.585938 32.824219 67.921875 C 32.820312 67.910156 32.820312 67.898438 32.816406 67.886719 C 32.671875 67.546875 32.546875 67.210938 32.4375 66.863281 C 32.390625 66.707031 32.339844 66.550781 32.300781 66.394531 C 32.296875 66.378906 32.292969 66.363281 32.289062 66.34375 C 32.210938 66.015625 32.148438 65.6875 32.101562 65.351562 C 32.101562 65.351562 32.101562 65.347656 32.101562 65.34375 C 32.101562 65.328125 32.09375 65.308594 32.09375 65.292969 C 32.070312 65.136719 32.054688 64.984375 32.042969 64.828125 C 32.03125 64.710938 32.019531 64.589844 32.011719 64.472656 C 32.011719 64.414062 32.003906 64.351562 32.003906 64.292969 C 32.003906 64.273438 32.003906 64.253906 32.003906 64.234375 C 32 64.078125 32 63.921875 32.003906 63.765625 C 32.003906 63.6875 32.007812 63.605469 32.011719 63.527344 C 32.019531 63.410156 32.03125 63.289062 32.042969 63.171875 C 32.058594 63 32.078125 62.828125 32.101562 62.65625 C 32.101562 62.652344 32.101562 62.648438 32.101562 62.648438 C 32.148438 62.3125 32.210938 61.984375 32.289062 61.65625 C 32.296875 61.636719 32.296875 61.621094 32.300781 61.605469 C 32.339844 61.449219 32.390625 61.292969 32.4375 61.136719 C 32.546875 60.789062 32.671875 60.453125 32.816406 60.113281 C 32.820312 60.101562 32.820312 60.089844 32.824219 60.078125 C 33.550781 58.414062 34.746094 56.875 36.40625 55.628906 L 36.40625 55.621094 C 43.878906 50.023438 49.648438 55.859375 56.164062 50.976562 C 62.679688 46.09375 56.875 40.277344 64.347656 34.675781 C 69.65625 30.695312 77.671875 31.214844 82.25 35.832031 C 86.828125 40.445312 86.242188 47.410156 80.929688 51.390625 C 73.460938 56.988281 67.6875 51.144531 61.171875 56.027344 C 57.882812 58.492188 57.738281 61.207031 57.433594 64 C 57.738281 66.796875 57.882812 69.507812 61.171875 71.972656 C 67.6875 76.855469 73.460938 71.011719 80.929688 76.613281 C 86.242188 80.589844 86.828125 87.554688 82.25 92.171875 C 79.675781 94.765625 76.019531 96.066406 72.363281 95.996094 Z "/>
</svg>
