<svg width="128" xmlns="http://www.w3.org/2000/svg" height="128" viewBox="0 0 128 128" xmlns:xlink="http://www.w3.org/1999/xlink">
<path style="stroke-opacity:.941;fill:#53a93e;stroke:#859900;fill-opacity:.941;stroke-width:.792" d="M 43.604004 24 C 43.602539 34.82666 34.82666 43.601074 24 43.601074 C 13.17334 43.601074 4.397461 34.82666 4.395996 24 C 4.394531 13.171875 13.171875 4.393066 24 4.393066 C 34.828125 4.393066 43.605469 13.171875 43.604004 24 Z " transform="scale(2.66667)"/>
<path style="fill:#fff" d="M 64.316406 26.667969 C 45.777344 26.667969 30.652344 42.355469 29.527344 62.125 L 18.667969 62.125 L 36.140625 90.421875 L 53.609375 62.125 L 41.175781 62.125 C 42.25 49.296875 52.1875 39.28125 64.316406 39.28125 C 68.800781 39.28125 73.046875 40.65625 76.59375 43.03125 L 82.574219 32.292969 C 77.261719 28.757812 71 26.667969 64.316406 26.667969 Z M 91.859375 37.578125 L 74.390625 65.875 L 86.824219 65.875 C 85.75 78.703125 75.8125 88.71875 63.683594 88.71875 C 59.199219 88.71875 54.953125 87.34375 51.40625 84.96875 L 45.425781 95.707031 C 50.738281 99.242188 57 101.332031 63.683594 101.332031 C 82.222656 101.332031 97.347656 85.644531 98.472656 65.875 L 109.332031 65.875 Z "/>
</svg>
