<svg width="128" xmlns="http://www.w3.org/2000/svg" height="128" viewBox="0 0 128 128" xmlns:xlink="http://www.w3.org/1999/xlink">
<g style="stroke:#777">
<path style="fill:#fff;stroke-width:.5" d="M 25.932037 35.186401 C 25.932037 42.094374 20.445477 47.694777 13.677926 47.694777 C 6.910376 47.694777 1.423816 42.094374 1.423816 35.186401 C 1.423816 28.278427 6.910376 22.678024 13.677926 22.678024 C 20.445477 22.678024 25.932037 28.278427 25.932037 35.186401 Z " transform="matrix(4.26611 0 0 4.17939 5.64851 -83.05757)"/>
<path style="fill:#bebebe" d="M 22.412109 12.499512 C 21.959473 12.499512 21.593262 12.875977 21.593262 13.335938 L 21.593262 14.95752 C 20.783203 15.172852 20.01123 15.498047 19.303711 15.909668 L 18.149414 14.756836 C 17.986816 14.594238 17.791992 14.507812 17.581055 14.506348 C 17.370117 14.503418 17.15625 14.57959 16.996582 14.739258 L 14.739258 16.996582 C 14.419922 17.315918 14.431641 17.824219 14.756836 18.149414 L 15.909668 19.303711 C 15.498047 20.01123 15.172852 20.783203 14.95752 21.593262 L 13.335938 21.593262 C 12.875977 21.593262 12.499512 21.959473 12.499512 22.412109 L 12.499512 25.587891 C 12.499512 26.040527 12.875977 26.406738 13.335938 26.406738 L 14.95752 26.406738 C 15.172852 27.216797 15.498047 27.98877 15.909668 28.696289 L 14.756836 29.850586 C 14.431641 30.175781 14.419922 30.684082 14.739258 31.003418 L 16.996582 33.260742 C 17.315918 33.580078 17.824219 33.568359 18.149414 33.243164 L 19.303711 32.090332 C 20.01123 32.501953 20.783203 32.827148 21.593262 33.04248 L 21.593262 34.664062 C 21.593262 35.124023 21.959473 35.500488 22.412109 35.500488 L 25.587891 35.500488 C 26.040527 35.500488 26.406738 35.124023 26.406738 34.664062 L 26.406738 33.04248 C 27.216797 32.827148 27.98877 32.501953 28.696289 32.090332 L 29.850586 33.243164 C 30.175781 33.568359 30.684082 33.580078 31.003418 33.260742 L 33.260742 31.003418 C 33.580078 30.684082 33.568359 30.175781 33.243164 29.850586 L 32.090332 28.696289 C 32.501953 27.98877 32.827148 27.216797 33.04248 26.406738 L 34.664062 26.406738 C 35.124023 26.406738 35.500488 26.040527 35.500488 25.587891 L 35.500488 22.412109 C 35.500488 21.959473 35.124023 21.593262 34.664062 21.593262 L 33.04248 21.593262 C 32.827148 20.783203 32.501953 20.01123 32.090332 19.303711 L 33.243164 18.149414 C 33.568359 17.824219 33.580078 17.315918 33.260742 16.996582 L 31.003418 14.739258 C 30.684082 14.419922 30.175781 14.431641 29.850586 14.756836 L 28.696289 15.909668 C 27.98877 15.498047 27.216797 15.172852 26.406738 14.95752 L 26.406738 13.335938 C 26.406738 12.875977 26.040527 12.499512 25.587891 12.499512 Z M 24 20.523926 C 25.918945 20.523926 27.476074 22.081055 27.476074 24 C 27.476074 25.918945 25.918945 27.476074 24 27.476074 C 22.081055 27.476074 20.523926 25.918945 20.523926 24 C 20.523926 22.081055 22.081055 20.523926 24 20.523926 Z " transform="scale(2.66667)"/>
</g>
</svg>
