<svg width="128" xmlns="http://www.w3.org/2000/svg" height="128" viewBox="0 0 128 128" xmlns:xlink="http://www.w3.org/1999/xlink">
<path style="fill:#fff;stroke:#777;stroke-width:.792" d="M 43.604004 24 C 43.602539 34.82666 34.82666 43.601074 24 43.601074 C 13.17334 43.601074 4.397461 34.82666 4.395996 24 C 4.394531 13.171875 13.171875 4.393066 24 4.393066 C 34.828125 4.393066 43.605469 13.171875 43.604004 24 Z " transform="scale(2.66667)"/>
<path style="fill:#53a93e;fill-opacity:.941" d="M 88.949219 26.679688 C 88.109375 26.765625 87.238281 27.292969 86.558594 28.097656 L 71.335938 44.429688 C 70.675781 45.207031 70.296875 46.164062 70.296875 47.269531 C 70.296875 47.617188 70.386719 47.953125 70.457031 48.285156 C 69.054688 50.105469 69.421875 52.148438 69.421875 58.527344 C 69.421875 60.398438 65.65625 62.484375 64.71875 62.484375 C 64.671875 62.484375 64.683594 62.484375 64.636719 62.484375 C 61.644531 62.484375 51.851562 63.050781 48.855469 68.367188 C 45.859375 73.683594 34.667969 97.789062 34.667969 101.332031 C 39.160156 101.332031 71.8125 80.289062 73.488281 78.308594 C 75.511719 75.910156 74.476562 71.078125 73.167969 67.859375 C 73.175781 67.84375 73.164062 67.777344 73.167969 67.757812 C 73.203125 67.640625 73.203125 67.503906 73.089844 67.25 C 72.386719 65.734375 72.050781 64.207031 72.050781 62.078125 C 72.050781 56.707031 72.445312 53.996094 73.488281 52.644531 C 73.574219 52.535156 73.644531 52.367188 73.726562 52.238281 C 75.355469 52.542969 77.628906 51.542969 78.667969 50.3125 L 92.140625 34.691406 C 93.5 33.078125 93.820312 30.722656 92.457031 29.113281 L 91.34375 27.792969 C 90.664062 26.988281 89.792969 26.59375 88.949219 26.679688 Z "/>
</svg>
