<svg width="128" xmlns="http://www.w3.org/2000/svg" height="128" viewBox="0 0 128 128" xmlns:xlink="http://www.w3.org/1999/xlink">
<path style="fill:#fff;stroke:#777;stroke-width:.792" d="M 43.604004 24 C 43.602539 34.82666 34.82666 43.601074 24 43.601074 C 13.17334 43.601074 4.397461 34.82666 4.395996 24 C 4.394531 13.171875 13.171875 4.393066 24 4.393066 C 34.828125 4.393066 43.605469 13.171875 43.604004 24 Z " transform="scale(2.66667)"/>
<path style="fill:#53a93e;fill-opacity:.941" d="M 68.996094 95.046875 L 68.996094 104 L 59.003906 104 L 59.003906 95.210938 C 53.175781 94.554688 48.59375 92.582031 45.265625 89.296875 C 41.933594 85.957031 40.179688 81.578125 40 76.15625 L 56.148438 76.238281 C 56.207031 78.210938 56.980469 79.769531 58.46875 80.921875 C 59.957031 82.070312 61.800781 82.644531 64 82.644531 C 65.902344 82.644531 67.570312 82.207031 68.996094 81.332031 C 70.660156 80.398438 71.496094 79.113281 71.496094 77.46875 C 71.496094 75.0625 68.816406 72.953125 63.464844 71.144531 C 55.496094 68.460938 50.527344 66.492188 48.566406 65.230469 C 43.210938 61.945312 40.535156 57.265625 40.535156 51.1875 C 40.535156 46.203125 42.289062 42.015625 45.800781 38.621094 C 49.191406 35.390625 53.589844 33.445312 59.003906 32.789062 L 59.003906 24 L 68.996094 24 L 68.996094 32.789062 C 80.59375 34.703125 86.453125 41.03125 86.574219 51.761719 L 70.78125 51.761719 C 70.78125 49.679688 70.125 47.984375 68.816406 46.667969 C 67.507812 45.300781 65.726562 44.617188 63.464844 44.617188 C 61.679688 44.617188 60.132812 45.082031 58.824219 46.011719 C 57.339844 46.996094 56.59375 48.3125 56.59375 49.953125 C 56.59375 52.035156 59.300781 54.035156 64.714844 55.949219 C 72.625 58.632812 77.679688 60.6875 79.882812 62.109375 C 85.292969 65.449219 88 70.050781 88 75.910156 C 88 81.113281 86.214844 85.4375 82.648438 88.886719 C 79.257812 92.117188 74.707031 94.171875 68.996094 95.046875 "/>
</svg>
