<svg width="128" xmlns="http://www.w3.org/2000/svg" height="128" viewBox="0 0 128 128" xmlns:xlink="http://www.w3.org/1999/xlink">
<path style="fill:#fff;stroke:#777;stroke-width:.5" d="M 25.932037 35.186401 C 25.932037 42.094374 20.445477 47.694777 13.677926 47.694777 C 6.910376 47.694777 1.423816 42.094374 1.423816 35.186401 C 1.423816 28.278427 6.910376 22.678024 13.677926 22.678024 C 20.445477 22.678024 25.932037 28.278427 25.932037 35.186401 Z " transform="matrix(4.26611 0 0 4.17939 5.64851 -83.05757)"/>
<g style="fill:#427fec">
<path style="fill-opacity:.6" d="M 47.394531 52.203125 C 42.878906 52.203125 39.265625 55.773438 39.265625 60.203125 C 39.273438 60.675781 39.308594 61.355469 39.351562 61.929688 C 38.578125 62.273438 38.523438 63.851562 39.175781 65.476562 C 39.4375 66.117188 39.769531 66.613281 40.128906 67.019531 C 40.214844 67.476562 40.191406 67.679688 40.300781 68.203125 C 40.605469 69.15625 41.796875 71.023438 42.894531 72.566406 C 43.003906 73.75 43.117188 74.945312 42.894531 76.292969 C 39.726562 79.058594 31.554688 80.25 31.566406 83.113281 L 31.394531 84.203125 L 63.394531 84.203125 L 63.21875 83.113281 C 63.207031 80.660156 55.023438 79.15625 51.890625 76.292969 C 51.765625 75.199219 51.738281 74.101562 51.804688 73.019531 C 52.808594 71.394531 54.148438 69.265625 54.484375 68.203125 C 54.605469 67.664062 54.652344 67.300781 54.746094 66.839844 C 55.046875 66.457031 55.300781 66.023438 55.523438 65.476562 C 56.144531 63.933594 56.105469 62.460938 55.4375 62.019531 C 55.476562 61.398438 55.507812 60.738281 55.523438 60.203125 C 55.523438 55.773438 51.90625 52.203125 47.394531 52.203125 Z "/>
<path d="M 72.605469 40 C 65.835938 40 60.410156 45.359375 60.410156 52 C 60.425781 52.707031 60.476562 53.730469 60.542969 54.589844 C 59.382812 55.105469 59.300781 57.476562 60.28125 59.910156 C 60.671875 60.875 61.167969 61.613281 61.710938 62.226562 C 61.839844 62.910156 61.804688 63.21875 61.96875 64 C 62.421875 65.429688 64.210938 68.230469 65.859375 70.546875 C 66.023438 72.320312 66.191406 74.113281 65.859375 76.136719 C 61.105469 80.285156 48.847656 82.070312 48.867188 86.363281 L 48.605469 88 L 96.605469 88 L 96.347656 86.363281 C 96.328125 82.6875 84.050781 80.429688 79.351562 76.136719 C 79.164062 74.492188 79.125 72.847656 79.222656 71.226562 C 80.726562 68.785156 82.738281 65.59375 83.246094 64 C 83.425781 63.195312 83.492188 62.648438 83.632812 61.953125 C 84.085938 61.378906 84.46875 60.730469 84.800781 59.910156 C 85.734375 57.597656 85.675781 55.390625 84.671875 54.726562 C 84.730469 53.796875 84.773438 52.804688 84.800781 52 C 84.800781 45.359375 79.375 40 72.605469 40 Z "/>
</g>
</svg>
