<svg width="128" xmlns="http://www.w3.org/2000/svg" height="128" viewBox="0 0 128 128" xmlns:xlink="http://www.w3.org/1999/xlink">
<path style="fill:#fff;stroke:#777;stroke-width:.5" d="M 25.932037 35.186401 C 25.932037 42.094374 20.445477 47.694777 13.677926 47.694777 C 6.910376 47.694777 1.423816 42.094374 1.423816 35.186401 C 1.423816 28.278427 6.910376 22.678024 13.677926 22.678024 C 20.445477 22.678024 25.932037 28.278427 25.932037 35.186401 Z " transform="matrix(4.26611 0 0 4.17939 5.64851 -83.05757)"/>
<path style="fill:#dc322f" d="M 64 29.332031 C 44.855469 29.332031 29.332031 44.855469 29.332031 64 C 29.332031 83.144531 44.855469 98.667969 64 98.667969 C 83.144531 98.667969 98.667969 83.144531 98.667969 64 C 98.667969 44.855469 83.144531 29.332031 64 29.332031 Z M 64 38 C 78.359375 38 90 49.640625 90 64 C 90 78.359375 78.359375 90 64 90 C 49.640625 90 38 78.359375 38 64 C 38 49.640625 49.640625 38 64 38 Z M 63.730469 42.332031 C 61.492188 42.332031 59.667969 44.160156 59.667969 46.394531 L 59.667969 64.269531 C 59.667969 66.507812 61.492188 68.332031 63.730469 68.332031 C 63.820312 68.339844 63.90625 68.332031 64 68.332031 L 79.167969 68.332031 C 81.566406 68.332031 83.5 66.402344 83.5 64 C 83.5 61.597656 81.566406 59.667969 79.167969 59.667969 L 68.332031 59.667969 L 68.332031 46.394531 C 68.332031 44.160156 66.507812 42.332031 64.269531 42.332031 Z "/>
</svg>
