<svg width="128" xmlns="http://www.w3.org/2000/svg" height="128" viewBox="0 0 128 128" xmlns:xlink="http://www.w3.org/1999/xlink">
<path style="fill:#fff;stroke:#777;stroke-width:.792" d="M 43.604004 24 C 43.602539 34.82666 34.82666 43.601074 24 43.601074 C 13.17334 43.601074 4.397461 34.82666 4.395996 24 C 4.394531 13.171875 13.171875 4.393066 24 4.393066 C 34.828125 4.393066 43.605469 13.171875 43.604004 24 Z " transform="scale(2.66667)"/>
<path style="fill:#dc322f" d="M 60.851562 98.78125 C 59.132812 96.917969 54.832031 93.292969 51.296875 90.722656 C 40.828125 83.101562 39.402344 82 35.152344 78.226562 C 27.316406 71.273438 23.988281 64.289062 24 54.8125 C 24.003906 50.191406 24.332031 48.410156 25.675781 45.683594 C 27.957031 41.058594 31.316406 37.621094 35.609375 35.519531 C 38.648438 34.03125 40.148438 33.371094 45.226562 33.34375 C 50.539062 33.3125 51.65625 33.910156 54.78125 35.566406 C 58.585938 37.578125 62.5 41.882812 63.308594 44.941406 L 63.808594 46.828125 L 65.042969 44.226562 C 72.007812 29.53125 94.246094 29.753906 101.984375 44.59375 C 104.4375 49.300781 104.707031 59.351562 102.53125 65.015625 C 99.691406 72.402344 94.359375 78.035156 82.027344 86.664062 C 73.941406 92.324219 64.792969 100.886719 64.15625 102.089844 C 63.414062 103.484375 64.121094 102.308594 60.851562 98.78125 Z "/>
</svg>
