<svg width="128" xmlns="http://www.w3.org/2000/svg" height="128" viewBox="0 0 128 128" xmlns:xlink="http://www.w3.org/1999/xlink">
<path style="fill:#fff;stroke:#777;stroke-width:.5" d="M 25.932037 35.186401 C 25.932037 42.094374 20.445477 47.694777 13.677926 47.694777 C 6.910376 47.694777 1.423816 42.094374 1.423816 35.186401 C 1.423816 28.278427 6.910376 22.678024 13.677926 22.678024 C 20.445477 22.678024 25.932037 28.278427 25.932037 35.186401 Z " transform="matrix(4.26611 0 0 4.17939 5.64851 -83.05757)"/>
<path style="fill:#dc322f" d="M 68.808594 32.71875 C 64.148438 33.890625 60.238281 38.171875 60.238281 38.171875 L 60.355469 38.304688 L 67.820312 66.035156 C 62.484375 63.140625 54.863281 63.867188 48.550781 68.425781 C 40.402344 74.320312 37.566406 84.363281 42.285156 90.832031 C 47.003906 97.300781 57.417969 97.753906 65.570312 91.863281 C 71.992188 87.21875 75.570312 79.898438 74.28125 73.886719 C 74.238281 73.699219 74.183594 73.523438 74.132812 73.339844 L 66.96875 45.617188 C 67.136719 45.371094 69.226562 44.414062 75.992188 43.953125 C 83.152344 43.46875 88 32 88 32 C 88 32 79.949219 35.082031 73.609375 32.847656 C 72.027344 32.289062 70.359375 32.316406 68.804688 32.710938 Z "/>
</svg>
