<svg width="128" xmlns="http://www.w3.org/2000/svg" height="128" viewBox="0 0 128 128" xmlns:xlink="http://www.w3.org/1999/xlink">
<path style="fill:#909ea9" d="M 64 21.332031 C 40.4375 21.332031 21.332031 40.4375 21.332031 64 C 21.332031 87.5625 40.4375 106.667969 64 106.667969 C 87.5625 106.667969 106.667969 87.5625 106.667969 64 C 106.667969 40.4375 87.5625 21.332031 64 21.332031 Z M 64 50.667969 C 71.347656 50.667969 77.332031 56.652344 77.332031 64 C 77.332031 71.347656 71.347656 77.332031 64 77.332031 C 56.652344 77.332031 50.667969 71.347656 50.667969 64 C 50.667969 56.652344 56.652344 50.667969 64 50.667969 Z M 64 53.332031 C 58.09375 53.332031 53.332031 58.09375 53.332031 64 C 53.332031 69.90625 58.09375 74.667969 64 74.667969 C 69.90625 74.667969 74.667969 69.90625 74.667969 64 C 74.667969 58.09375 69.90625 53.332031 64 53.332031 Z M 64 57.332031 C 67.683594 57.332031 70.667969 60.316406 70.667969 64 C 70.667969 67.683594 67.683594 70.667969 64 70.667969 C 60.316406 70.667969 57.332031 67.683594 57.332031 64 C 57.332031 60.316406 60.316406 57.332031 64 57.332031 Z "/>
</svg>
