<svg width="128" xmlns="http://www.w3.org/2000/svg" height="128" viewBox="0 0 128 128" xmlns:xlink="http://www.w3.org/1999/xlink">
<path style="fill:#909ea9" d="M 21.332031 21.332031 L 21.332031 106.667969 L 106.667969 106.667969 L 106.667969 32 L 96 21.332031 Z M 26.667969 26.667969 L 50.667969 26.667969 L 50.667969 42.667969 L 90.667969 42.667969 L 90.667969 26.667969 L 93.332031 26.667969 L 101.332031 34.667969 L 101.332031 101.332031 L 96 101.332031 L 96 50.667969 L 32 50.667969 L 32 101.332031 L 26.667969 101.332031 Z M 77.332031 26.667969 L 85.332031 26.667969 L 85.332031 40 L 77.332031 40 Z M 34.667969 66.667969 L 93.332031 66.667969 L 93.332031 69.332031 L 34.667969 69.332031 Z M 34.667969 85.332031 L 93.332031 85.332031 L 93.332031 88 L 34.667969 88 Z "/>
</svg>
