<svg width="128" xmlns="http://www.w3.org/2000/svg" height="128" viewBox="0 0 128 128" xmlns:xlink="http://www.w3.org/1999/xlink">
<defs>
<clipPath id="clip1">
<rect width="128" height="128"/>
</clipPath>
<filter width="100%" x="0" y="0" height="100%" filterUnits="objectBoundingBox" id="alpha">
<feColorMatrix values="0 0 0 0 1 0 0 0 0 1 0 0 0 0 1 0 0 0 1 0" in="SourceGraphic" type="matrix"/>
</filter>
<g style="clip-path:url(#clip1)" id="surface6">
<path style="fill:#fff" d="M 57.988281 48 L 57.988281 53.15625 L 55.707031 53.15625 L 55.707031 49.777344 C 55.335938 49.953125 54.976562 50.09375 54.628906 50.203125 C 54.285156 50.3125 53.855469 50.414062 53.335938 50.515625 L 53.335938 49.359375 C 54.101562 49.203125 54.699219 49.019531 55.125 48.800781 C 55.546875 48.585938 55.878906 48.316406 56.121094 48 L 57.988281 48 "/>
<path style="fill:#fff" d="M 67.054688 53.15625 L 60.285156 53.15625 C 60.363281 52.738281 60.597656 52.347656 60.988281 51.980469 C 61.382812 51.613281 62.121094 51.175781 63.203125 50.675781 C 63.867188 50.371094 64.289062 50.136719 64.472656 49.980469 C 64.65625 49.820312 64.75 49.667969 64.75 49.527344 C 64.75 49.371094 64.65625 49.238281 64.472656 49.132812 C 64.292969 49.019531 64.0625 48.964844 63.785156 48.964844 C 63.5 48.964844 63.261719 49.023438 63.078125 49.132812 C 62.894531 49.246094 62.773438 49.445312 62.710938 49.734375 L 60.453125 49.617188 C 60.539062 49.222656 60.703125 48.914062 60.9375 48.691406 C 61.175781 48.46875 61.507812 48.296875 61.9375 48.179688 C 62.367188 48.058594 62.964844 48 63.726562 48 C 64.519531 48 65.136719 48.054688 65.574219 48.167969 C 66.019531 48.28125 66.367188 48.457031 66.617188 48.691406 C 66.871094 48.925781 67 49.1875 67 49.476562 C 67 49.785156 66.851562 50.082031 66.5625 50.363281 C 66.273438 50.644531 65.746094 50.953125 64.984375 51.289062 C 64.527344 51.484375 64.222656 51.621094 64.070312 51.699219 C 63.917969 51.78125 63.738281 51.882812 63.53125 52.007812 L 67.054688 52.007812 L 67.054688 53.15625 "/>
<path style="fill:#fff" d="M 69.386719 50.429688 C 69.03125 50.3125 68.773438 50.183594 68.613281 50.039062 C 68.390625 49.839844 68.28125 49.609375 68.28125 49.351562 C 68.28125 48.929688 68.597656 48.582031 69.238281 48.3125 C 69.738281 48.105469 70.394531 48 71.214844 48 C 72.300781 48 73.101562 48.128906 73.621094 48.386719 C 74.140625 48.644531 74.402344 48.96875 74.402344 49.363281 C 74.402344 49.589844 74.296875 49.804688 74.089844 50.003906 C 73.9375 50.148438 73.691406 50.292969 73.359375 50.429688 C 73.800781 50.5625 74.125 50.738281 74.339844 50.953125 C 74.558594 51.171875 74.667969 51.410156 74.667969 51.671875 C 74.667969 51.925781 74.574219 52.164062 74.382812 52.386719 C 74.199219 52.605469 73.972656 52.773438 73.699219 52.894531 C 73.429688 53.015625 73.089844 53.101562 72.683594 53.15625 C 72.28125 53.214844 71.851562 53.242188 71.394531 53.242188 C 70.53125 53.242188 69.875 53.179688 69.421875 53.054688 C 68.964844 52.925781 68.621094 52.738281 68.386719 52.492188 C 68.148438 52.246094 68.03125 51.972656 68.03125 51.667969 C 68.03125 51.367188 68.140625 51.117188 68.363281 50.914062 C 68.585938 50.703125 68.925781 50.542969 69.386719 50.429688 M 70.402344 49.433594 C 70.402344 49.609375 70.488281 49.753906 70.660156 49.859375 C 70.839844 49.96875 71.074219 50.019531 71.367188 50.019531 C 71.625 50.019531 71.835938 49.96875 72.003906 49.859375 C 72.167969 49.753906 72.25 49.617188 72.25 49.449219 C 72.25 49.273438 72.164062 49.132812 71.992188 49.023438 C 71.816406 48.914062 71.597656 48.859375 71.328125 48.859375 C 71.054688 48.859375 70.828125 48.910156 70.65625 49.019531 C 70.488281 49.125 70.402344 49.265625 70.402344 49.433594 M 70.28125 51.617188 C 70.28125 51.839844 70.386719 52.023438 70.605469 52.167969 C 70.824219 52.308594 71.074219 52.378906 71.355469 52.378906 C 71.625 52.378906 71.867188 52.308594 72.078125 52.164062 C 72.292969 52.019531 72.402344 51.835938 72.402344 51.613281 C 72.402344 51.390625 72.292969 51.207031 72.074219 51.066406 C 71.859375 50.921875 71.609375 50.851562 71.328125 50.851562 C 71.046875 50.851562 70.800781 50.917969 70.589844 51.058594 C 70.382812 51.195312 70.28125 51.382812 70.28125 51.617188 "/>
</g>
<linearGradient gradientTransform="scale(2.66667)" id="linear0" y1="42" y2="9" gradientUnits="userSpaceOnUse" x2="0">
<stop offset="0" style="stop-color:#aa1e1e"/>
<stop offset="1" style="stop-color:#e35c5c"/>
</linearGradient>
<mask id="mask0">
<g style="filter:url(#alpha)">
<rect width="128" x="0" y="0" height="128" style="fill:#000;fill-opacity:.51"/>
</g>
</mask>
<radialGradient cx="10.388" cy="11.314" gradientTransform="matrix(2.3433 .18294 -.12394 1.5875 -12.552 -10.696)" id="radial2" r="17.094" gradientUnits="userSpaceOnUse">
<stop offset="0" style="stop-color:#fff;stop-opacity:.2"/>
<stop offset="1" style="stop-color:#fff;stop-opacity:0"/>
</radialGradient>
<radialGradient cx="15.047" cy="18.977" gradientTransform="matrix(2.9507 .0686 -.02067 .88929 -29.188 1.2014)" id="radial1" r="18.094" gradientUnits="userSpaceOnUse">
<stop offset="0" style="stop-color:#4f4f4f"/>
<stop offset="1" style="stop-color:#1e1e1e"/>
</radialGradient>
<radialGradient cx="24.218" cy="45.26" gradientTransform="matrix(2.74267 0 0 .43635 -2.42424 96.25067)" id="radial0" r="21.39" gradientUnits="userSpaceOnUse">
<stop offset="0" style="stop-color:#000;stop-opacity:.529"/>
<stop offset="1" style="stop-color:#000;stop-opacity:0"/>
</radialGradient>
</defs>
<g style="fill-rule:evenodd">
<path style="fill:url(#radial0)" d="M 122.667969 116 C 122.667969 121.15625 96.402344 125.332031 64 125.332031 C 31.597656 125.332031 5.332031 121.15625 5.332031 116 C 5.332031 110.84375 31.597656 106.667969 64 106.667969 C 96.402344 106.667969 122.667969 110.84375 122.667969 116 Z "/>
<path style="fill:url(#radial1);stroke:#131313" d="M 7.999512 3.524414 C 7.308105 3.524414 6.543457 4.308105 6.541992 4.999512 L 6.530273 13.507324 L 7.539551 13.507324 L 7.445801 25.505859 L 6.46582 25.529297 L 6.402832 42.999023 C 6.399902 43.728516 7.271484 44.491699 7.999512 44.491699 L 40.000488 44.491699 C 40.706543 44.491699 41.503418 43.705078 41.503418 42.999023 L 41.535645 18.509766 L 40.5 18.509766 L 40.5 14.57666 L 41.564941 14.548828 L 41.591309 8.466797 C 41.591309 7.936523 41.157715 7.475098 41.157715 7.475098 L 38.106445 3.955078 C 37.857422 3.70459 37.624512 3.549316 36.968262 3.51709 L 8.000977 3.522949 Z " transform="scale(2.66667)"/>
</g>
<path style="fill:none;stroke:url(#radial2)" d="M 7.999512 4.530762 C 8.028809 4.530762 7.854492 4.583496 7.718262 4.718262 C 7.583496 4.854492 7.530762 5.027344 7.530762 4.999512 L 7.530762 12.499512 C 8.083008 12.499512 8.53125 12.947754 8.53125 13.5 L 8.4375 25.5 C 8.4375 26.040527 8.008301 26.48291 7.469238 26.500488 L 7.40625 43.000488 C 7.40625 42.966797 7.437012 43.136719 7.59375 43.281738 C 7.750488 43.426758 7.989258 43.5 7.999512 43.5 L 40.000488 43.5 C 39.978516 43.5 40.17041 43.45459 40.3125 43.3125 C 40.45459 43.171875 40.5 42.97998 40.5 43.000488 L 40.532227 19.501465 L 40.5 19.501465 C 39.947754 19.5 39.500977 19.053223 39.500977 18.500977 L 39.500977 14.594238 C 39.500977 14.053711 39.928711 13.611328 40.469238 13.595215 L 40.562988 13.595215 L 40.59375 8.469727 C 40.59375 8.487305 40.438477 8.157715 40.438477 8.157715 C 40.426758 8.147461 40.416504 8.135742 40.40625 8.125488 L 37.375488 4.6875 C 37.207031 4.520508 37.274414 4.538086 36.969727 4.532227 C 36.927246 4.530762 36.968262 4.535156 36.906738 4.532227 L 8.000977 4.532227 Z " transform="scale(2.66667)"/>
<path style="fill:url(#linear0)" d="M 29.332031 24 L 98.667969 24 L 98.667969 112 L 29.332031 112 Z "/>
<path style="fill:#282828" d="M 48 24 L 80 24 L 80 56 L 48 56 Z "/>
<path style="fill:#131313;fill-opacity:.2" d="M 29.332031 24 L 98.667969 24 L 98.667969 42.667969 L 29.332031 42.667969 Z "/>
<use style="mask:url(#mask0)" xlink:href="#surface6"/>
<g style="fill:#fff">
<path d="M 66.753906 87.265625 C 66.148438 86.695312 65.371094 86.246094 64.417969 85.921875 C 63.46875 85.597656 62.5625 85.4375 61.699219 85.4375 C 60.589844 85.4375 59.710938 85.695312 59.0625 86.207031 C 58.414062 86.722656 58.085938 87.40625 58.085938 88.257812 C 58.085938 89.164062 58.339844 89.902344 58.84375 90.476562 C 59.347656 91.035156 60.433594 91.738281 62.101562 92.589844 C 64.320312 93.734375 65.847656 94.773438 66.6875 95.714844 C 67.539062 96.65625 67.964844 97.898438 67.964844 99.445312 C 67.964844 101.5625 67.179688 103.296875 65.613281 104.652344 C 64.054688 105.996094 61.898438 106.667969 59.144531 106.667969 C 58.203125 106.667969 57.1875 106.527344 56.101562 106.246094 C 55.027344 105.980469 54.171875 105.636719 53.53125 105.222656 L 53.53125 100.367188 C 54.292969 101.128906 55.195312 101.730469 56.238281 102.164062 C 57.289062 102.589844 58.257812 102.804688 59.144531 102.804688 C 60.417969 102.804688 61.378906 102.558594 62.015625 102.066406 C 62.652344 101.574219 62.972656 100.832031 62.972656 99.847656 C 62.972656 99.0625 62.652344 98.414062 62.015625 97.898438 C 61.378906 97.375 60.226562 96.671875 58.558594 95.800781 C 56.765625 94.824219 55.445312 93.847656 54.589844 92.859375 C 53.75 91.863281 53.332031 90.460938 53.332031 88.644531 C 53.332031 86.570312 54.09375 84.875 55.617188 83.554688 C 57.140625 82.222656 59.121094 81.554688 61.5625 81.554688 C 63.667969 81.554688 65.398438 81.851562 66.753906 82.445312 L 66.753906 87.265625 M 72.179688 82.09375 L 80.609375 82.09375 C 84.6875 82.09375 87.742188 83.074219 89.78125 85.03125 C 91.832031 86.992188 92.855469 89.925781 92.855469 93.832031 C 92.855469 97.605469 91.703125 100.609375 89.394531 102.835938 C 87.101562 105.066406 83.988281 106.179688 80.058594 106.179688 L 72.179688 106.179688 L 72.179688 82.09375 M 76.867188 102.46875 L 79.957031 102.46875 C 82.488281 102.46875 84.476562 101.710938 85.917969 100.199219 C 87.375 98.6875 88.101562 96.621094 88.101562 94 C 88.101562 91.460938 87.398438 89.484375 85.988281 88.074219 C 84.574219 86.660156 82.609375 85.957031 80.089844 85.957031 L 76.867188 85.957031 L 76.867188 102.46875 "/>
<path d="M 73.632812 79.886719 L 72.738281 79.886719 L 72.738281 74.867188 C 72.738281 74.792969 72.757812 74.566406 72.800781 74.183594 L 72.78125 74.183594 C 72.722656 74.488281 72.664062 74.707031 72.605469 74.839844 L 70.359375 79.886719 L 69.921875 79.886719 L 67.683594 74.886719 C 67.628906 74.769531 67.566406 74.535156 67.496094 74.183594 L 67.476562 74.183594 C 67.5 74.421875 67.511719 74.671875 67.511719 74.9375 L 67.511719 79.886719 L 66.664062 79.886719 L 66.664062 73.320312 L 67.859375 73.320312 L 70.035156 78.132812 C 70.101562 78.289062 70.140625 78.417969 70.15625 78.527344 L 70.183594 78.527344 C 70.207031 78.429688 70.257812 78.296875 70.332031 78.121094 L 72.460938 73.320312 L 73.632812 73.320312 L 73.632812 79.886719 M 82.332031 79.886719 L 81.4375 79.886719 L 81.4375 74.867188 C 81.4375 74.792969 81.457031 74.566406 81.5 74.183594 L 81.480469 74.183594 C 81.421875 74.488281 81.363281 74.703125 81.304688 74.839844 L 79.058594 79.886719 L 78.621094 79.886719 L 76.382812 74.886719 C 76.328125 74.769531 76.265625 74.535156 76.195312 74.183594 L 76.175781 74.183594 C 76.199219 74.421875 76.210938 74.671875 76.210938 74.933594 L 76.210938 79.886719 L 75.363281 79.886719 L 75.363281 73.320312 L 76.558594 73.320312 L 78.734375 78.132812 C 78.800781 78.289062 78.839844 78.417969 78.855469 78.523438 L 78.882812 78.523438 C 78.90625 78.429688 78.957031 78.296875 79.03125 78.121094 L 81.160156 73.320312 L 82.332031 73.320312 L 82.332031 79.886719 M 88.539062 79.582031 C 88.039062 79.859375 87.417969 79.996094 86.675781 79.996094 C 85.742188 79.996094 84.996094 79.695312 84.433594 79.09375 C 83.875 78.492188 83.597656 77.703125 83.597656 76.722656 C 83.597656 75.679688 83.917969 74.835938 84.558594 74.1875 C 85.203125 73.53125 86 73.207031 86.953125 73.207031 C 87.597656 73.207031 88.125 73.300781 88.539062 73.484375 L 88.539062 74.453125 C 88.050781 74.164062 87.519531 74.019531 86.945312 74.019531 C 86.230469 74.019531 85.648438 74.261719 85.199219 74.746094 C 84.75 75.222656 84.527344 75.867188 84.527344 76.675781 C 84.527344 77.441406 84.734375 78.054688 85.148438 78.507812 C 85.566406 78.960938 86.117188 79.1875 86.800781 79.1875 C 87.46875 79.1875 88.046875 79.027344 88.539062 78.710938 L 88.539062 79.578125 "/>
<path style="fill-opacity:.302" d="M 53.332031 48.128906 L 74.359375 48.128906 L 74.359375 53.511719 L 53.332031 53.511719 Z "/>
</g>
</svg>
