<svg width="128" xmlns="http://www.w3.org/2000/svg" height="128" viewBox="0 0 128 128" xmlns:xlink="http://www.w3.org/1999/xlink">
<path style="fill:#909ea9" d="M 63.417969 21.332031 C 53.636719 21.332031 45.75 29.222656 45.75 39 L 45.75 66.167969 C 45.75 75.945312 53.636719 83.832031 63.417969 83.832031 C 73.195312 83.832031 81.082031 75.945312 81.082031 66.167969 L 81.082031 39 C 81.082031 29.222656 73.195312 21.332031 63.417969 21.332031 Z M 35.417969 63.917969 C 35.417969 63.917969 35.410156 95.257812 61.082031 95.167969 L 61.082031 101 L 52.582031 101 L 52.582031 106.667969 L 75.417969 106.667969 L 75.417969 101 L 66.832031 101 L 66.832031 95.167969 C 95.195312 93.324219 92.5 63.917969 92.5 63.917969 L 86.75 63.917969 C 86.75 63.917969 86.820312 89.582031 64 89.582031 C 41.179688 89.582031 41.167969 63.917969 41.167969 63.917969 Z "/>
</svg>
