<svg width="24" xmlns="http://www.w3.org/2000/svg" height="24" viewBox="0 0 24 24" xmlns:xlink="http://www.w3.org/1999/xlink">
<defs>
<clipPath id="clip1">
<rect width="24" height="24"/>
</clipPath>
<filter width="100%" x="0" y="0" height="100%" filterUnits="objectBoundingBox" id="alpha">
<feColorMatrix values="0 0 0 0 1 0 0 0 0 1 0 0 0 0 1 0 0 0 1 0" in="SourceGraphic" type="matrix"/>
</filter>
<g style="clip-path:url(#clip1)" id="surface6">
<path style="fill:#fff" d="M 10.871094 9 L 10.871094 9.96875 L 10.445312 9.96875 L 10.445312 9.332031 C 10.375 9.367188 10.308594 9.394531 10.242188 9.414062 C 10.179688 9.433594 10.097656 9.453125 10 9.472656 L 10 9.253906 C 10.144531 9.226562 10.257812 9.191406 10.335938 9.148438 C 10.414062 9.109375 10.476562 9.058594 10.523438 9 L 10.871094 9 "/>
<path style="fill:#fff" d="M 12.574219 9.96875 L 11.304688 9.96875 C 11.316406 9.890625 11.363281 9.816406 11.433594 9.746094 C 11.507812 9.675781 11.648438 9.597656 11.851562 9.503906 C 11.976562 9.445312 12.054688 9.402344 12.089844 9.371094 C 12.125 9.339844 12.140625 9.3125 12.140625 9.285156 C 12.140625 9.257812 12.125 9.230469 12.089844 9.210938 C 12.054688 9.191406 12.011719 9.179688 11.960938 9.179688 C 11.90625 9.179688 11.863281 9.191406 11.828125 9.210938 C 11.792969 9.234375 11.769531 9.269531 11.757812 9.324219 L 11.335938 9.304688 C 11.351562 9.230469 11.382812 9.171875 11.425781 9.128906 C 11.46875 9.085938 11.53125 9.054688 11.613281 9.035156 C 11.695312 9.011719 11.804688 9 11.949219 9 C 12.097656 9 12.214844 9.011719 12.296875 9.03125 C 12.378906 9.054688 12.445312 9.085938 12.492188 9.128906 C 12.539062 9.171875 12.5625 9.222656 12.5625 9.277344 C 12.5625 9.335938 12.535156 9.390625 12.480469 9.441406 C 12.425781 9.496094 12.328125 9.554688 12.183594 9.617188 C 12.097656 9.652344 12.042969 9.679688 12.011719 9.695312 C 11.984375 9.707031 11.949219 9.726562 11.914062 9.75 L 12.574219 9.75 L 12.574219 9.96875 "/>
<path style="fill:#fff" d="M 13.011719 9.457031 C 12.945312 9.433594 12.894531 9.410156 12.863281 9.382812 C 12.824219 9.34375 12.800781 9.300781 12.800781 9.253906 C 12.800781 9.175781 12.863281 9.109375 12.980469 9.058594 C 13.074219 9.019531 13.199219 9 13.351562 9 C 13.554688 9 13.707031 9.023438 13.804688 9.074219 C 13.902344 9.121094 13.949219 9.183594 13.949219 9.253906 C 13.949219 9.296875 13.929688 9.339844 13.890625 9.375 C 13.863281 9.402344 13.816406 9.429688 13.753906 9.457031 C 13.835938 9.480469 13.898438 9.511719 13.9375 9.554688 C 13.980469 9.59375 14 9.640625 14 9.6875 C 14 9.734375 13.980469 9.78125 13.945312 9.824219 C 13.914062 9.863281 13.871094 9.894531 13.816406 9.917969 C 13.769531 9.941406 13.703125 9.957031 13.628906 9.96875 C 13.550781 9.976562 13.472656 9.984375 13.386719 9.984375 C 13.226562 9.984375 13.101562 9.972656 13.015625 9.949219 C 12.929688 9.921875 12.867188 9.890625 12.820312 9.84375 C 12.777344 9.796875 12.753906 9.746094 12.753906 9.6875 C 12.753906 9.632812 12.777344 9.585938 12.816406 9.546875 C 12.859375 9.507812 12.921875 9.476562 13.011719 9.457031 M 13.199219 9.269531 C 13.199219 9.300781 13.214844 9.328125 13.25 9.347656 C 13.28125 9.367188 13.328125 9.378906 13.382812 9.378906 C 13.429688 9.378906 13.46875 9.367188 13.5 9.347656 C 13.53125 9.328125 13.546875 9.304688 13.546875 9.273438 C 13.546875 9.238281 13.53125 9.210938 13.5 9.191406 C 13.464844 9.171875 13.425781 9.160156 13.375 9.160156 C 13.324219 9.160156 13.28125 9.171875 13.25 9.191406 C 13.214844 9.210938 13.199219 9.238281 13.199219 9.269531 M 13.175781 9.679688 C 13.175781 9.71875 13.199219 9.753906 13.238281 9.78125 C 13.28125 9.808594 13.328125 9.820312 13.378906 9.820312 C 13.429688 9.820312 13.476562 9.808594 13.515625 9.78125 C 13.554688 9.753906 13.574219 9.71875 13.574219 9.675781 C 13.574219 9.636719 13.554688 9.601562 13.515625 9.574219 C 13.472656 9.546875 13.425781 9.535156 13.375 9.535156 C 13.320312 9.535156 13.273438 9.546875 13.234375 9.574219 C 13.195312 9.597656 13.175781 9.632812 13.175781 9.679688 "/>
</g>
<linearGradient gradientTransform="scale(.5)" id="linear0" y1="42" y2="9" gradientUnits="userSpaceOnUse" x2="0">
<stop offset="0" style="stop-color:#aa1e1e"/>
<stop offset="1" style="stop-color:#e35c5c"/>
</linearGradient>
<mask id="mask0">
<g style="filter:url(#alpha)">
<rect width="24" x="0" y="0" height="24" style="fill:#000;fill-opacity:.51"/>
</g>
</mask>
<radialGradient cx="10.388" cy="11.314" gradientTransform="matrix(2.3433 .18294 -.12394 1.5875 -12.552 -10.696)" id="radial2" r="17.094" gradientUnits="userSpaceOnUse">
<stop offset="0" style="stop-color:#fff;stop-opacity:.2"/>
<stop offset="1" style="stop-color:#fff;stop-opacity:0"/>
</radialGradient>
<radialGradient cx="15.047" cy="18.977" gradientTransform="matrix(2.9507 .0686 -.02067 .88929 -29.188 1.2014)" id="radial1" r="18.094" gradientUnits="userSpaceOnUse">
<stop offset="0" style="stop-color:#4f4f4f"/>
<stop offset="1" style="stop-color:#1e1e1e"/>
</radialGradient>
<radialGradient cx="24.218" cy="45.26" gradientTransform="matrix(.51425 0 0 .08181 -.45454 18.047)" id="radial0" r="21.39" gradientUnits="userSpaceOnUse">
<stop offset="0" style="stop-color:#000;stop-opacity:.529"/>
<stop offset="1" style="stop-color:#000;stop-opacity:0"/>
</radialGradient>
</defs>
<g style="fill-rule:evenodd">
<path style="fill:url(#radial0)" d="M 23 21.75 C 23 22.714844 18.074219 23.5 12 23.5 C 5.925781 23.5 1 22.714844 1 21.75 C 1 20.785156 5.925781 20 12 20 C 18.074219 20 23 20.785156 23 21.75 Z "/>
<path style="fill:url(#radial1);stroke:#131313" d="M 8 3.523438 C 7.304688 3.523438 6.539062 4.304688 6.539062 5 L 6.53125 13.507812 L 7.539062 13.507812 L 7.445312 25.507812 L 6.46875 25.53125 L 6.40625 43 C 6.398438 43.726562 7.273438 44.492188 8 44.492188 L 40 44.492188 C 40.703125 44.492188 41.5 43.703125 41.5 43 L 41.53125 18.507812 L 40.5 18.507812 L 40.5 14.578125 L 41.5625 14.546875 L 41.59375 8.46875 C 41.59375 7.9375 41.15625 7.476562 41.15625 7.476562 L 38.109375 3.953125 C 37.859375 3.703125 37.625 3.546875 36.96875 3.515625 Z " transform="scale(.5)"/>
</g>
<path style="fill:none;stroke:url(#radial2)" d="M 8 4.53125 C 8.03125 4.53125 7.851562 4.585938 7.71875 4.71875 C 7.585938 4.851562 7.53125 5.03125 7.53125 5 L 7.53125 12.5 C 8.085938 12.5 8.53125 12.945312 8.53125 13.5 L 8.4375 25.5 C 8.4375 26.039062 8.007812 26.484375 7.46875 26.5 L 7.40625 43 C 7.40625 42.96875 7.4375 43.132812 7.59375 43.28125 C 7.75 43.429688 7.992188 43.5 8 43.5 L 40 43.5 C 39.976562 43.5 40.171875 43.453125 40.3125 43.3125 C 40.453125 43.171875 40.5 42.976562 40.5 43 L 40.53125 19.5 L 40.5 19.5 C 39.945312 19.5 39.5 19.054688 39.5 18.5 L 39.5 14.59375 C 39.5 14.054688 39.929688 13.609375 40.46875 13.59375 L 40.5625 13.59375 L 40.59375 8.46875 C 40.59375 8.484375 40.4375 8.15625 40.4375 8.15625 C 40.429688 8.148438 40.414062 8.132812 40.40625 8.125 L 37.375 4.6875 C 37.210938 4.523438 37.273438 4.539062 36.96875 4.53125 C 36.929688 4.53125 36.96875 4.53125 36.90625 4.53125 Z " transform="scale(.5)"/>
<path style="fill:url(#linear0)" d="M 5.5 4.5 L 18.5 4.5 L 18.5 21 L 5.5 21 Z "/>
<path style="fill:#282828" d="M 9 4.5 L 15 4.5 L 15 10.5 L 9 10.5 Z "/>
<path style="fill:#131313;fill-opacity:.2" d="M 5.5 4.5 L 18.5 4.5 L 18.5 8 L 5.5 8 Z "/>
<use style="mask:url(#mask0)" xlink:href="#surface6"/>
<g style="fill:#fff">
<path d="M 12.515625 16.363281 C 12.402344 16.253906 12.257812 16.171875 12.078125 16.109375 C 11.898438 16.050781 11.730469 16.019531 11.570312 16.019531 C 11.359375 16.019531 11.195312 16.066406 11.074219 16.164062 C 10.953125 16.261719 10.890625 16.390625 10.890625 16.546875 C 10.890625 16.71875 10.9375 16.855469 11.03125 16.964844 C 11.128906 17.070312 11.332031 17.203125 11.644531 17.359375 C 12.058594 17.574219 12.347656 17.769531 12.503906 17.945312 C 12.664062 18.121094 12.742188 18.355469 12.742188 18.644531 C 12.742188 19.042969 12.597656 19.367188 12.300781 19.621094 C 12.011719 19.875 11.605469 20 11.089844 20 C 10.914062 20 10.722656 19.972656 10.519531 19.921875 C 10.316406 19.871094 10.15625 19.808594 10.039062 19.730469 L 10.039062 18.820312 C 10.179688 18.960938 10.347656 19.074219 10.542969 19.15625 C 10.742188 19.234375 10.921875 19.277344 11.089844 19.277344 C 11.328125 19.277344 11.507812 19.230469 11.628906 19.136719 C 11.746094 19.042969 11.808594 18.90625 11.808594 18.722656 C 11.808594 18.574219 11.746094 18.453125 11.628906 18.355469 C 11.507812 18.257812 11.292969 18.125 10.980469 17.960938 C 10.644531 17.78125 10.394531 17.597656 10.234375 17.410156 C 10.078125 17.226562 10 16.960938 10 16.621094 C 10 16.230469 10.144531 15.914062 10.429688 15.667969 C 10.714844 15.417969 11.085938 15.292969 11.542969 15.292969 C 11.9375 15.292969 12.261719 15.347656 12.515625 15.457031 L 12.515625 16.363281 M 13.535156 15.390625 L 15.113281 15.390625 C 15.878906 15.390625 16.453125 15.574219 16.835938 15.945312 C 17.21875 16.3125 17.410156 16.859375 17.410156 17.59375 C 17.410156 18.300781 17.195312 18.863281 16.761719 19.28125 C 16.332031 19.699219 15.746094 19.910156 15.011719 19.910156 L 13.535156 19.910156 L 13.535156 15.390625 M 14.414062 19.210938 L 14.992188 19.210938 C 15.464844 19.210938 15.839844 19.070312 16.109375 18.789062 C 16.382812 18.503906 16.519531 18.117188 16.519531 17.625 C 16.519531 17.148438 16.386719 16.777344 16.121094 16.511719 C 15.859375 16.25 15.488281 16.117188 15.015625 16.117188 L 14.414062 16.117188 L 14.414062 19.210938 "/>
<path d="M 13.804688 14.976562 L 13.636719 14.976562 L 13.636719 14.039062 C 13.636719 14.023438 13.640625 13.980469 13.648438 13.910156 C 13.636719 13.964844 13.625 14.007812 13.613281 14.03125 L 13.191406 14.976562 L 13.109375 14.976562 L 12.691406 14.039062 C 12.679688 14.019531 12.667969 13.976562 12.65625 13.910156 L 12.652344 13.910156 C 12.65625 13.953125 12.660156 14 12.660156 14.050781 L 12.660156 14.976562 L 12.5 14.976562 L 12.5 13.746094 L 12.722656 13.746094 L 13.132812 14.648438 C 13.144531 14.679688 13.152344 14.703125 13.152344 14.722656 L 13.160156 14.722656 C 13.164062 14.707031 13.171875 14.679688 13.1875 14.648438 L 13.585938 13.746094 L 13.804688 13.746094 L 13.804688 14.976562 M 15.4375 14.976562 L 15.269531 14.976562 L 15.269531 14.039062 C 15.269531 14.023438 15.273438 13.980469 15.28125 13.910156 L 15.277344 13.910156 C 15.265625 13.964844 15.253906 14.007812 15.246094 14.03125 L 14.824219 14.976562 L 14.742188 14.976562 L 14.320312 14.039062 C 14.3125 14.019531 14.300781 13.976562 14.285156 13.910156 L 14.28125 13.910156 C 14.289062 13.953125 14.289062 14 14.289062 14.050781 L 14.289062 14.976562 L 14.132812 14.976562 L 14.132812 13.746094 L 14.355469 13.746094 L 14.761719 14.648438 C 14.773438 14.679688 14.78125 14.703125 14.785156 14.722656 L 14.789062 14.722656 C 14.792969 14.707031 14.804688 14.679688 14.820312 14.648438 L 15.21875 13.746094 L 15.4375 13.746094 L 15.4375 14.976562 M 16.601562 14.921875 C 16.507812 14.972656 16.390625 15 16.25 15 C 16.078125 15 15.9375 14.941406 15.832031 14.832031 C 15.726562 14.71875 15.675781 14.570312 15.675781 14.386719 C 15.675781 14.191406 15.734375 14.03125 15.855469 13.910156 C 15.976562 13.789062 16.125 13.726562 16.304688 13.726562 C 16.425781 13.726562 16.523438 13.742188 16.601562 13.777344 L 16.601562 13.960938 C 16.511719 13.90625 16.410156 13.878906 16.300781 13.878906 C 16.167969 13.878906 16.058594 13.925781 15.976562 14.015625 C 15.890625 14.105469 15.847656 14.226562 15.847656 14.375 C 15.847656 14.519531 15.886719 14.636719 15.964844 14.71875 C 16.042969 14.804688 16.148438 14.847656 16.277344 14.847656 C 16.398438 14.847656 16.507812 14.816406 16.601562 14.757812 L 16.601562 14.921875 "/>
<path style="fill-opacity:.302" d="M 10 9.023438 L 13.941406 9.023438 L 13.941406 10.035156 L 10 10.035156 Z "/>
</g>
</svg>
