<svg width="24" xmlns="http://www.w3.org/2000/svg" height="24" viewBox="0 0 24 24" xmlns:xlink="http://www.w3.org/1999/xlink">
<path style="fill:#909ea9" d="M 11.890625 4 C 10.058594 4 8.578125 5.480469 8.578125 7.3125 L 8.578125 12.40625 C 8.578125 14.238281 10.058594 15.71875 11.890625 15.71875 C 13.722656 15.71875 15.203125 14.238281 15.203125 12.40625 L 15.203125 7.3125 C 15.203125 5.480469 13.722656 4 11.890625 4 Z M 6.640625 11.984375 C 6.640625 11.984375 6.640625 17.859375 11.453125 17.84375 L 11.453125 18.9375 L 9.859375 18.9375 L 9.859375 20 L 14.140625 20 L 14.140625 18.9375 L 12.53125 18.9375 L 12.53125 17.84375 C 17.847656 17.5 17.34375 11.984375 17.34375 11.984375 L 16.265625 11.984375 C 16.265625 11.984375 16.277344 16.796875 12 16.796875 C 7.722656 16.796875 7.71875 11.984375 7.71875 11.984375 Z "/>
</svg>
