<?xml version="1.0" encoding="UTF-8" standalone="no"?>
<!-- Created with Inkscape (http://www.inkscape.org/) -->

<svg
   xmlns:dc="http://purl.org/dc/elements/1.1/"
   xmlns:cc="http://creativecommons.org/ns#"
   xmlns:rdf="http://www.w3.org/1999/02/22-rdf-syntax-ns#"
   xmlns:svg="http://www.w3.org/2000/svg"
   xmlns="http://www.w3.org/2000/svg"
   xmlns:xlink="http://www.w3.org/1999/xlink"
   xmlns:sodipodi="http://sodipodi.sourceforge.net/DTD/sodipodi-0.dtd"
   xmlns:inkscape="http://www.inkscape.org/namespaces/inkscape"
   width="64"
   height="64"
   id="svg2"
   version="1.1"
   inkscape:version="0.48.5 r10040"
   sodipodi:docname="folder-music.svg"
   inkscape:export-filename="/media/Data/Main/Visuals/Icons/Numix/Desktop/repos/numix-wiki/Gjorgi/Numix-folders/48/New/folder-144.png"
   inkscape:export-xdpi="270"
   inkscape:export-ydpi="270">
  <defs
     id="defs4">
    <linearGradient
       inkscape:collect="always"
       id="linearGradient3958">
      <stop
         style="stop-color:#000000;stop-opacity:1;"
         offset="0"
         id="stop3960" />
      <stop
         style="stop-color:#000000;stop-opacity:0;"
         offset="1"
         id="stop3962" />
    </linearGradient>
    <radialGradient
       inkscape:collect="always"
       xlink:href="#linearGradient3958"
       id="radialGradient3964"
       cx="32.5"
       cy="56.5"
       fx="32.5"
       fy="56.5"
       r="33.5"
       gradientTransform="matrix(1,0,0,0.10447761,0,50.597015)"
       gradientUnits="userSpaceOnUse" />
  </defs>
  <sodipodi:namedview
     id="base"
     pagecolor="#ffffff"
     bordercolor="#666666"
     borderopacity="1.0"
     inkscape:pageopacity="0.0"
     inkscape:pageshadow="2"
     inkscape:zoom="14.92147"
     inkscape:cx="30.636471"
     inkscape:cy="31.386768"
     inkscape:document-units="px"
     inkscape:current-layer="layer1"
     showgrid="true"
     inkscape:window-width="1920"
     inkscape:window-height="1052"
     inkscape:window-x="0"
     inkscape:window-y="28"
     inkscape:window-maximized="1"
     showguides="true"
     inkscape:guide-bbox="true">
    <inkscape:grid
       type="xygrid"
       id="grid2985"
       empspacing="5"
       visible="true"
       enabled="true"
       snapvisiblegridlinesonly="true" />
  </sodipodi:namedview>
  <metadata
     id="metadata7">
    <rdf:RDF>
      <cc:Work
         rdf:about="">
        <dc:format>image/svg+xml</dc:format>
        <dc:type
           rdf:resource="http://purl.org/dc/dcmitype/StillImage" />
        <dc:title></dc:title>
      </cc:Work>
    </rdf:RDF>
  </metadata>
  <g
     inkscape:label="Layer 1"
     inkscape:groupmode="layer"
     id="layer1"
     transform="translate(0,-988.3622)">
    <path
       sodipodi:type="arc"
       style="opacity:0.6;fill:url(#radialGradient3964);fill-opacity:1;stroke:none"
       id="path3956"
       sodipodi:cx="32.5"
       sodipodi:cy="56.5"
       sodipodi:rx="33.5"
       sodipodi:ry="3.5"
       d="m 66,56.5 a 33.5,3.5 0 1 1 -67,0 33.5,3.5 0 1 1 67,0 z"
       transform="matrix(1.1343284,0,0,1.1428571,-4.8656716,979.79077)" />
    <path
       sodipodi:nodetypes="ccccccccc"
       inkscape:connector-curvature="0"
       id="path3029"
       d="m 0,997.42103 0,42.82347 64,0 0,-21.4117 -3.047619,-18.353 L 37,1000.3622 l -3,-6 -30.952381,0 C 1.52381,994.3622 0,995.89161 0,997.42103 z"
       style="fill:#ef6c00;fill-opacity:1;stroke:none" />
    <rect
       style="fill:#fffdf0;fill-opacity:1;stroke:none"
       id="rect3799"
       width="31.571428"
       height="11.882284"
       x="5"
       y="1002.3622" />
    <path
       style="fill:#000000;fill-opacity:1;stroke:none;opacity:0.03"
       d="M 3.0625,6 C 1.538691,6 0,7.53308 0,9.0625 l 0,2 C 0,9.53308 1.538691,8 3.0625,8 L 33,8 36,14 60.9375,14.125 64,32.46875 l 0,-2 L 60.9375,12.125 37,12 34,6 z"
       transform="translate(0,988.3622)"
       id="path3790"
       inkscape:connector-curvature="0"
       sodipodi:nodetypes="sscsccccccccs" />
    <path
       style="fill:#ffa726;fill-opacity:1;stroke:none"
       d="m 64,1003.5387 0,42.8235 -64,0 0,-40 30,0 3,-6 27.952381,0.1176 c 1.523809,0 3.047619,1.5295 3.047619,3.0589 z"
       id="rect2987"
       inkscape:connector-curvature="0"
       sodipodi:nodetypes="cccccccc" />
    <path
       sodipodi:nodetypes="ccccc"
       id="path3794"
       d="m 0,1044.3622 0,2 64,0 0,-2 z"
       style="opacity:0.15;fill:#000000;fill-opacity:1;stroke:none"
       inkscape:connector-curvature="0" />
    <path
       style="fill:#000000;fill-opacity:1;stroke:none;opacity:0.03"
       d="m 33,12 -3,6 -30,0 0,2 31,0 3,-6 26.9375,0.125 c 1.523809,0 3.0625,1.5331 3.0625,3.0625 l 0,-2 C 64,13.6581 62.461309,12.125 60.9375,12.125 z"
       id="path3015"
       inkscape:connector-curvature="0"
       sodipodi:nodetypes="ccccccccscc"
       transform="translate(0,988.3622)" />
    <path
       id="path4139"
       d="m 30.50043,1014.3622 c -5.118414,0 -10.50043,5.3823 -10.50043,12.0001 0,6.6178 5.382024,11.9999 10.50043,11.9999 8.117546,0 13.49957,-5.3821 13.49957,-11.9999 0,-6.6178 -5.382015,-12.0001 -12,-12.0001 z m 2.474568,1.6878 c 1.118513,0.1035 2.202236,0.3588 3.187502,0.7875 -0.07584,0.095 -0.13446,0.1779 -0.187495,0.3375 -0.303047,0.9089 -0.75533,0.4757 -0.225005,1.6121 0.530329,1.1362 0.973478,1.4301 1.124998,0.8998 0.151536,-0.5299 -0.381089,-1.278 0.225002,-0.9749 0.606094,0.3031 1.05457,-0.082 0.6,0.6005 -0.454569,0.6818 -0.444669,1.0514 -0.974999,0.8997 -0.530331,-0.1518 -0.519667,0.8987 -1.050001,1.0502 -0.530328,0.1518 -0.712499,-0.2288 -0.712499,0.1501 0,0.3786 0.300759,0.031 0.225003,0.6375 -0.0231,0.1856 -0.01637,0.2187 -0.0375,0.3 -0.497811,-0.1425 -0.719833,-0.2215 -1.087498,-0.077 -0.378809,0.1518 -0.825,1.1252 -0.825,1.1252 0.473203,0.4732 0.692757,0.8139 0.862498,0.9751 -0.105915,0.053 -0.233331,0.075 -0.3375,0.1502 -0.757615,0.5305 -1.347717,0.6303 -1.575,1.3873 -0.227287,0.7583 -0.149985,0.064 -0.149985,0.975 0,0.9093 -0.229575,0.2916 0.225002,1.1253 0.454567,0.8334 1.569667,1.2327 2.099997,1.6874 0.530332,0.4543 1.076841,-0.9889 2.1375,0.3751 1.06066,1.3635 1.12881,0.8172 0.750001,1.5752 -0.37881,0.7576 -0.748477,1.0093 -0.899998,1.3123 -0.151535,0.303 0.294669,1.3479 0.825,1.5749 0.0111,0 0.02562,0 0.0375,0 -0.02823,0.065 -0.04701,0.123 -0.07502,0.1879 -0.686751,0.3119 -1.52861,0.7422 -1.687503,0.7874 -0.375,0.108 -1.698213,0.3318 -2.662499,0.5998 -0.12054,0.034 -0.215424,0.034 -0.2625,0.039 0.11988,-0.1305 1.06772,-0.6261 1.537499,-0.8997 0.642861,-0.3757 -0.0375,-0.3376 -0.0375,-0.3376 0,0 -1.023214,-0.114 -3.112497,-0.114 -1.044645,0 -1.497321,0.047 -1.725002,0.114 -0.113835,0.034 -0.169756,0.068 -0.225001,0.1125 -0.05525,0.047 -0.09375,0.096 -0.187497,0.15 -0.375004,0.2142 0.219635,0.4392 -0.262498,0.5997 -0.361606,0.12 -0.403628,0 -0.712499,-0.2261 0.22033,-0.2191 0.524375,-0.483 0.899999,-0.9376 0.681853,-0.8249 0.897715,-0.6747 1.124998,-1.4247 0.227289,-0.7503 -1.912497,-0.5249 -1.912497,-0.975 0,-0.45 -0.368149,-0.7499 -1.05,-1.05 -0.681853,-0.3002 -0.217395,-0.4502 -0.975001,-0.6752 -0.757613,-0.2241 -1.610214,1.1249 -1.837499,0.6752 -0.227289,-0.4502 0.7125,-0.4502 0.7125,-0.9749 0,-0.5124 -1.080546,0.3867 -1.275003,-0.2625 -0.0051,-0.024 -0.03371,-0.024 -0.0375,-0.039 -0.01902,-0.095 -0.0067,-0.1501 0,-0.2241 0.04767,-0.5394 0.672336,-0.7498 0.937502,-1.2751 0.303048,-0.5994 0.14619,0.4504 0.524999,0.9753 0.378809,0.525 0.227291,-0.675 0,-1.35 -0.227287,-0.6753 0.144676,-0.675 0.675002,-1.575 0.53033,-0.9002 0.525,-1.425 0.525,-2.1002 0,-0.6748 0.367386,-0.7494 1.124998,-1.425 0.347241,-0.309 0.619672,-0.5787 0.825001,-0.8248 0.04963,-0.024 0.09978,-0.024 0.149999,-0.039 0.803574,-0.3216 1.141071,-0.8036 1.8375,-2.2502 0.696432,-1.4461 -0.273213,-0.096 -0.487501,-0.1501 -0.214289,-0.053 -0.524999,-0.4338 -1.275,-0.8625 -0.154686,-0.088 -0.292719,-0.1305 -0.412498,-0.1485 l 1.387501,-2.2875 c 0.444443,-0.12 0.92162,-0.2022 1.387499,-0.2627 0.170455,0.9699 0.07502,1.8752 0.07502,1.8752 0,0 -0.2625,0.3106 -0.2625,0.525 0,0.2143 1.435714,-1.7678 1.65,-1.875 0.21429,-0.108 0.755355,0.5679 0.862498,-0.45 0.006,-0.059 -0.0067,-0.06 0,-0.1125 z m 2.025001,4.0499 c -0.07694,-0.024 -0.167807,-2e-4 -0.262497,0.039 0,0.2652 -0.102645,0.4581 -0.149985,0.5623 -0.02817,-0.048 -0.112515,-0.1125 -0.112515,-0.1125 -0.113625,0.2096 -0.358728,0.3944 -0.112515,0.3375 0.246225,-0.055 0.432963,0.096 0.262501,-0.1125 -0.03278,-0.039 -0.01734,-0.023 -0.0375,-0.039 0.03193,0.024 0.09242,0.039 0.225002,0.039 0.149175,0 0.229359,0 0.337498,0 -0.182899,0.135 -0.382399,0.1926 -0.112515,0.2625 0.359865,0.095 0.525,0.114 0.525,0.039 0,-0.075 -0.112485,-0.3375 -0.112485,-0.3375 0.07031,-0.029 0.135615,-0.064 0.07502,-0.1878 -0.11364,-0.2262 -0.294166,-0.4519 -0.525003,-0.4873 z m 5.737501,0.6371 c 0.187375,0.2912 0.36687,0.5904 0.525001,0.9002 -0.10431,0.6051 -0.369219,1.0126 0.07502,1.0126 0.1242,0 0.234992,-0.027 0.3375,-0.039 0.01395,0.036 0.02408,0.077 0.0375,0.1125 -0.757617,0 -1.121192,0.2265 -1.500001,0.15 -0.378809,-0.077 -1.431852,-0.144 -0.75,-0.8248 0.398514,-0.3987 0.896331,-1.0319 1.275,-1.3128 z m -4.725,1.388 c 0.06982,0.023 0.130695,0.095 0.187497,0.2236 0.227289,0.5306 0.603046,0.9744 0.300002,1.0503 -0.303048,0.075 -0.450003,0.1502 -0.450003,0.1502 0,0 1.049239,0.6822 1.125001,-0.075 0.07577,-0.758 -0.3,-1.2005 -0.3,-1.2005 0,0 0.523479,0.5222 0.675,0.8253 0.151533,0.303 0.14619,0 0.525002,0.3752 0.378805,0.3784 0.294669,-1.5056 0.825,-0.9752 0.530331,0.5303 0.864024,0.5213 0.712498,0.9 -0.151534,0.3786 0.975003,-0.4576 0.975003,0.2999 0,0.7304 0.465803,1.0268 -0.45,1.3876 -0.346733,-0.024 -0.621171,-0.082 -0.675003,-0.1879 -0.151531,-0.3027 -1.012498,-0.075 -1.012498,-0.075 -2.266376,-0.5664 -3.25029,-0.7459 -3.900002,-0.6373 0.0123,-0.024 0.02421,-0.024 0.0375,-0.039 0.331456,-0.597 0.955089,-1.4259 0.75,-1.725 0.288855,-0.1663 0.515285,-0.3487 0.675,-0.3003 z m 6.375,3.7872 c 0.0067,0.1517 0,0.2963 0,0.4501 0,0.4265 -0.02558,0.8621 -0.07502,1.2749 -0.681617,-0.6064 -1.650002,-0.5998 -1.650002,-0.5998 0,0 0.591625,-0.672 1.425002,-0.9752 0.10419,-0.039 0.215806,-0.089 0.3,-0.15 z"
       style="line-height:normal;opacity:1.0;color:#000000;fill:#b17621;fill-opacity:1"
       inkscape:connector-curvature="0" />
  </g>
</svg>
