<?xml version="1.0" encoding="UTF-8" standalone="no"?>
<svg
   xmlns:dc="http://purl.org/dc/elements/1.1/"
   xmlns:cc="http://creativecommons.org/ns#"
   xmlns:rdf="http://www.w3.org/1999/02/22-rdf-syntax-ns#"
   xmlns:svg="http://www.w3.org/2000/svg"
   xmlns="http://www.w3.org/2000/svg"
   xmlns:sodipodi="http://sodipodi.sourceforge.net/DTD/sodipodi-0.dtd"
   xmlns:inkscape="http://www.inkscape.org/namespaces/inkscape"
   width="22"
   height="22"
   viewBox="0 0 22 22"
   id="svg2"
   version="1.1"
   inkscape:version="0.48.4 r9939"
   sodipodi:docname="media-cdr.svg">
  <metadata
     id="metadata10">
    <rdf:RDF>
      <cc:Work
         rdf:about="">
        <dc:format>image/svg+xml</dc:format>
        <dc:type
           rdf:resource="http://purl.org/dc/dcmitype/StillImage" />
      </cc:Work>
    </rdf:RDF>
  </metadata>
  <defs
     id="defs8" />
  <sodipodi:namedview
     pagecolor="#ffffff"
     bordercolor="#666666"
     borderopacity="1"
     objecttolerance="10"
     gridtolerance="10"
     guidetolerance="10"
     inkscape:pageopacity="0"
     inkscape:pageshadow="2"
     inkscape:window-width="1920"
     inkscape:window-height="1014"
     id="namedview6"
     showgrid="false"
     inkscape:zoom="10.727273"
     inkscape:cx="-0.65254237"
     inkscape:cy="11"
     inkscape:window-x="0"
     inkscape:window-y="27"
     inkscape:window-maximized="1"
     inkscape:current-layer="svg2" />
  <g
     transform="matrix(0.5,0,0,0.5,-1,-503.1811)"
     id="g18"
     style="fill:#eee8d5">
    <path
       inkscape:connector-curvature="0"
       style="fill:#eee8d5"
       d="M 24,8 C 15.163444,8 8,15.163444 8,24 8,32.836556 15.163444,40 24,40 32.836556,40 40,32.836556 40,24 40,15.163444 32.836556,8 24,8 z m 0,11 c 2.755501,0 5,2.2445 5,5 0,2.7555 -2.244499,5 -5,5 -2.755501,0 -5,-2.2445 -5,-5 0,-2.7555 2.244499,-5 5,-5 z m 0,1 c -2.215061,0 -4,1.7849 -4,4 0,2.2151 1.784939,4 4,4 2.215061,0 4,-1.7849 4,-4 0,-2.2151 -1.784939,-4 -4,-4 z m 0,1.5 c 1.380712,0 2.5,1.119288 2.5,2.5 0,1.380712 -1.119288,2.5 -2.5,2.5 -1.380712,0 -2.5,-1.119288 -2.5,-2.5 0,-1.380712 1.119288,-2.5 2.5,-2.5 z"
       transform="translate(0,1004.3622)"
       id="path20" />
  </g>
  <path
     style="opacity:0.25605535;fill:#657b83"
     d="m 10.133952,10.106234 c 0.194691,-0.1885473 0.444999,-0.3153563 0.715246,-0.3488903 l -0.0972,-0.73459 c -0.431741,0.05355 -0.8260604,0.242834 -1.1367384,0.544249 L 10.133954,10.106234 z M 9.2679036,9.2124837 c 0.388071,-0.373169 0.8892784,-0.614943 1.4258194,-0.682869 L 9.9977496,3.0714777 c -1.7192277,0.219395 -3.3271011,0.98691 -4.5665352,2.187229 l 3.8366892,3.953777 z"
     id="path20-4"
     inkscape:connector-curvature="0"
     inkscape:transform-center-x="2.8597935"
     inkscape:transform-center-y="-4.4111286" />
  <path
     inkscape:connector-curvature="0"
     style="opacity:0.46366781;fill:#fffefb;fill-opacity:1"
     d="m 12.166628,11.43335 c -0.09445,0.254035 -0.26569,0.476322 -0.495113,0.623027 l 0.404236,0.62102 c 0.366536,-0.234347 0.640811,-0.575068 0.791298,-0.980932 l -0.700418,-0.263113 z m 1.166629,0.433366 c -0.189408,0.503963 -0.537526,0.938103 -0.992436,1.230584 l 2.979853,4.625593 c 1.456914,-0.938765 2.577168,-2.324178 3.17845,-3.941404 l -5.165867,-1.914773 z"
     id="path20-4-3"
     inkscape:transform-center-x="-4.0853192"
     inkscape:transform-center-y="3.578137" />
  <path
     style="opacity:0.25605535;fill:#657b83"
     d="m 11.89639,11.863299 c -0.188064,0.195157 -0.433844,0.330533 -0.702772,0.373378 l 0.122508,0.730796 c 0.429633,-0.06842 0.817182,-0.271211 1.117267,-0.583173 L 11.8964,11.863289 z m 0.896393,0.863313 c -0.37497,0.386332 -0.867516,0.645282 -1.401391,0.731693 l 0.884015,5.430852 c 1.710627,-0.278626 3.291042,-1.101199 4.488292,-2.343597 l -3.970916,-3.818949 z"
     id="path20-4-2"
     inkscape:connector-curvature="0"
     inkscape:transform-center-x="-2.9786581"
     inkscape:transform-center-y="4.3762385" />
  <path
     inkscape:connector-curvature="0"
     style="opacity:0.42560556;fill:#fffefb;fill-opacity:1"
     d="M 9.8417736,10.544637 C 9.9410136,10.292434 10.116424,10.073424 10.34858,9.9310827 L 9.9561576,9.3025307 c -0.370901,0.227375 -0.65157,0.562848 -0.809704,0.9657943 l 0.695313,0.276323 z M 8.6835475,10.089291 C 8.882469,9.5890077 9.2387156,9.1615197 9.6990746,8.8776927 L 6.807216,4.1965827 c -1.4744036,0.91105 -2.620653,2.275033 -3.2524074,3.8806 l 5.1287389,2.0121093 z"
     id="path20-4-3-7"
     inkscape:transform-center-x="4.0483055"
     inkscape:transform-center-y="-3.6293691" />
  <path
     inkscape:connector-curvature="0"
     style="fill:#839496;fill-opacity:1;stroke:none"
     d="m 11,8.0000047 c -1.6568544,0 -3.0000004,1.343146 -3.0000004,3.0000003 0,1.656854 1.343146,3 3.0000004,3 1.656854,0 3,-1.343146 3,-3 0,-1.6568543 -1.343146,-3.0000003 -3,-3.0000003 z m 0,1 c 1.104569,0 2,0.895431 2,2.0000003 0,1.104569 -0.895431,2 -2,2 -1.1045694,0 -2.0000004,-0.895431 -2.0000004,-2 0,-1.1045693 0.895431,-2.0000003 2.0000004,-2.0000003 z"
     id="path3008" />
</svg>
