<svg width="22" xmlns="http://www.w3.org/2000/svg" height="22" viewBox="0 0 22 22" xmlns:xlink="http://www.w3.org/1999/xlink">
<defs>
<clipPath id="clip1">
<rect width="22" height="22"/>
</clipPath>
<filter width="100%" x="0" y="0" height="100%" filterUnits="objectBoundingBox" id="alpha">
<feColorMatrix values="0 0 0 0 1 0 0 0 0 1 0 0 0 0 1 0 0 0 1 0" in="SourceGraphic" type="matrix"/>
</filter>
<g style="clip-path:url(#clip1)" id="surface6">
<path style="fill:#fff" d="M 9.964844 8.25 L 9.964844 9.136719 L 9.574219 9.136719 L 9.574219 8.554688 C 9.511719 8.585938 9.449219 8.609375 9.390625 8.628906 C 9.332031 8.648438 9.257812 8.664062 9.167969 8.683594 L 9.167969 8.484375 C 9.300781 8.457031 9.402344 8.425781 9.472656 8.386719 C 9.546875 8.351562 9.605469 8.304688 9.644531 8.25 L 9.964844 8.25 "/>
<path style="fill:#fff" d="M 11.523438 9.136719 L 10.363281 9.136719 C 10.375 9.066406 10.414062 8.996094 10.484375 8.933594 C 10.550781 8.871094 10.675781 8.796875 10.863281 8.710938 C 10.976562 8.65625 11.050781 8.617188 11.082031 8.589844 C 11.113281 8.5625 11.128906 8.535156 11.128906 8.511719 C 11.128906 8.484375 11.113281 8.464844 11.082031 8.445312 C 11.050781 8.425781 11.011719 8.414062 10.964844 8.414062 C 10.914062 8.414062 10.875 8.425781 10.839844 8.445312 C 10.808594 8.464844 10.789062 8.5 10.777344 8.546875 L 10.390625 8.527344 C 10.40625 8.460938 10.433594 8.40625 10.472656 8.367188 C 10.515625 8.332031 10.570312 8.300781 10.644531 8.28125 C 10.71875 8.261719 10.820312 8.25 10.953125 8.25 C 11.089844 8.25 11.195312 8.257812 11.269531 8.277344 C 11.347656 8.296875 11.40625 8.328125 11.449219 8.367188 C 11.492188 8.410156 11.515625 8.453125 11.515625 8.503906 C 11.515625 8.558594 11.492188 8.609375 11.441406 8.65625 C 11.390625 8.703125 11.300781 8.757812 11.167969 8.816406 C 11.089844 8.847656 11.039062 8.871094 11.011719 8.886719 C 10.984375 8.898438 10.953125 8.917969 10.917969 8.9375 L 11.523438 8.9375 L 11.523438 9.136719 "/>
<path style="fill:#fff" d="M 11.925781 8.667969 C 11.863281 8.648438 11.820312 8.625 11.792969 8.601562 C 11.753906 8.566406 11.734375 8.527344 11.734375 8.484375 C 11.734375 8.410156 11.789062 8.351562 11.898438 8.304688 C 11.984375 8.269531 12.097656 8.25 12.238281 8.25 C 12.425781 8.25 12.566406 8.273438 12.652344 8.316406 C 12.742188 8.359375 12.789062 8.417969 12.789062 8.484375 C 12.789062 8.523438 12.769531 8.558594 12.734375 8.59375 C 12.707031 8.621094 12.664062 8.644531 12.609375 8.667969 C 12.683594 8.691406 12.742188 8.71875 12.777344 8.757812 C 12.816406 8.796875 12.832031 8.835938 12.832031 8.882812 C 12.832031 8.925781 12.816406 8.964844 12.785156 9.003906 C 12.753906 9.042969 12.714844 9.070312 12.667969 9.089844 C 12.621094 9.113281 12.5625 9.125 12.492188 9.136719 C 12.421875 9.144531 12.347656 9.152344 12.269531 9.152344 C 12.121094 9.152344 12.011719 9.140625 11.933594 9.117188 C 11.855469 9.097656 11.792969 9.066406 11.753906 9.023438 C 11.714844 8.980469 11.691406 8.933594 11.691406 8.878906 C 11.691406 8.828125 11.710938 8.785156 11.75 8.75 C 11.789062 8.714844 11.847656 8.6875 11.925781 8.667969 M 12.101562 8.496094 C 12.101562 8.527344 12.113281 8.550781 12.144531 8.570312 C 12.175781 8.589844 12.214844 8.597656 12.265625 8.597656 C 12.308594 8.597656 12.347656 8.589844 12.375 8.570312 C 12.402344 8.550781 12.417969 8.527344 12.417969 8.5 C 12.417969 8.46875 12.402344 8.445312 12.375 8.425781 C 12.34375 8.40625 12.304688 8.398438 12.257812 8.398438 C 12.210938 8.398438 12.175781 8.40625 12.144531 8.425781 C 12.113281 8.445312 12.101562 8.46875 12.101562 8.496094 M 12.078125 8.871094 C 12.078125 8.910156 12.097656 8.941406 12.136719 8.964844 C 12.171875 8.992188 12.214844 9.003906 12.265625 9.003906 C 12.308594 9.003906 12.351562 8.992188 12.390625 8.964844 C 12.425781 8.941406 12.445312 8.910156 12.445312 8.871094 C 12.445312 8.832031 12.425781 8.800781 12.386719 8.777344 C 12.351562 8.753906 12.308594 8.738281 12.257812 8.738281 C 12.210938 8.738281 12.167969 8.75 12.132812 8.777344 C 12.097656 8.800781 12.078125 8.832031 12.078125 8.871094 "/>
</g>
<linearGradient gradientTransform="scale(.45833)" id="linear0" y1="42" y2="9" gradientUnits="userSpaceOnUse" x2="0">
<stop offset="0" style="stop-color:#aa1e1e"/>
<stop offset="1" style="stop-color:#e35c5c"/>
</linearGradient>
<mask id="mask0">
<g style="filter:url(#alpha)">
<rect width="22" x="0" y="0" height="22" style="fill:#000;fill-opacity:.51"/>
</g>
</mask>
<radialGradient cx="10.388" cy="11.314" gradientTransform="matrix(2.3433 .18294 -.12394 1.5875 -12.552 -10.696)" id="radial2" r="17.094" gradientUnits="userSpaceOnUse">
<stop offset="0" style="stop-color:#fff;stop-opacity:.2"/>
<stop offset="1" style="stop-color:#fff;stop-opacity:0"/>
</radialGradient>
<radialGradient cx="15.047" cy="18.977" gradientTransform="matrix(2.9507 .0686 -.02067 .88929 -29.188 1.2014)" id="radial1" r="18.094" gradientUnits="userSpaceOnUse">
<stop offset="0" style="stop-color:#4f4f4f"/>
<stop offset="1" style="stop-color:#1e1e1e"/>
</radialGradient>
<radialGradient cx="24.218" cy="45.26" gradientTransform="matrix(.4714 0 0 .075 -.41667 16.54308)" id="radial0" r="21.39" gradientUnits="userSpaceOnUse">
<stop offset="0" style="stop-color:#000;stop-opacity:.529"/>
<stop offset="1" style="stop-color:#000;stop-opacity:0"/>
</radialGradient>
</defs>
<g style="fill-rule:evenodd">
<path style="fill:url(#radial0)" d="M 21.082031 19.9375 C 21.082031 20.824219 16.570312 21.542969 11 21.542969 C 5.429688 21.542969 0.917969 20.824219 0.917969 19.9375 C 0.917969 19.050781 5.429688 18.332031 11 18.332031 C 16.570312 18.332031 21.082031 19.050781 21.082031 19.9375 Z "/>
<path style="fill:url(#radial1);stroke:#131313" d="M 8.002841 3.519886 C 7.3125 3.519886 6.545455 4.3125 6.545455 5.002841 L 6.528409 13.508523 L 7.542614 13.508523 L 7.448864 25.508523 L 6.46875 25.525568 L 6.400568 42.997159 C 6.400568 43.730114 7.269886 44.488636 8.002841 44.488636 L 39.997159 44.488636 C 40.704545 44.488636 41.505682 43.704545 41.505682 42.997159 L 41.53125 18.511364 L 40.5 18.511364 L 40.5 14.573864 L 41.565341 14.548295 L 41.590909 8.463068 C 41.590909 7.934659 41.15625 7.474432 41.15625 7.474432 L 38.105114 3.954545 C 37.857955 3.707386 37.627841 3.545455 36.971591 3.519886 Z " transform="scale(.45833)"/>
</g>
<path style="fill:none;stroke:url(#radial2)" d="M 8.002841 4.534091 C 8.028409 4.534091 7.857955 4.585227 7.721591 4.721591 C 7.585227 4.857955 7.534091 5.028409 7.534091 5.002841 L 7.534091 12.502841 C 8.079545 12.502841 8.53125 12.946023 8.53125 13.5 L 8.4375 25.5 C 8.4375 26.036932 8.011364 26.480114 7.465909 26.497159 L 7.40625 42.997159 C 7.40625 42.963068 7.440341 43.133523 7.59375 43.278409 C 7.747159 43.423295 7.985795 43.5 8.002841 43.5 L 39.997159 43.5 C 39.980114 43.5 40.167614 43.457386 40.3125 43.3125 C 40.457386 43.167614 40.5 42.980114 40.5 42.997159 L 40.534091 19.5 L 40.5 19.5 C 39.946023 19.5 39.502841 19.056818 39.502841 18.502841 L 39.502841 14.590909 C 39.502841 14.053977 39.928977 13.610795 40.465909 13.59375 L 40.559659 13.59375 L 40.59375 8.471591 C 40.59375 8.488636 40.440341 8.15625 40.440341 8.15625 C 40.423295 8.147727 40.414773 8.139205 40.40625 8.122159 L 37.372159 4.6875 C 37.210227 4.517045 37.269886 4.534091 36.971591 4.534091 C 36.928977 4.534091 36.971591 4.534091 36.903409 4.534091 Z " transform="scale(.45833)"/>
<path style="fill:url(#linear0)" d="M 5.042969 4.125 L 16.957031 4.125 L 16.957031 19.25 L 5.042969 19.25 Z "/>
<path style="fill:#282828" d="M 8.25 4.125 L 13.75 4.125 L 13.75 9.625 L 8.25 9.625 Z "/>
<path style="fill:#131313;fill-opacity:.2" d="M 5.042969 4.125 L 16.957031 4.125 L 16.957031 7.332031 L 5.042969 7.332031 Z "/>
<use style="mask:url(#mask0)" xlink:href="#surface6"/>
<g style="fill:#fff">
<path d="M 11.472656 15 C 11.371094 14.902344 11.234375 14.824219 11.070312 14.769531 C 10.910156 14.710938 10.753906 14.683594 10.605469 14.683594 C 10.414062 14.683594 10.261719 14.730469 10.152344 14.816406 C 10.039062 14.90625 9.984375 15.023438 9.984375 15.167969 C 9.984375 15.324219 10.027344 15.453125 10.113281 15.550781 C 10.199219 15.648438 10.386719 15.769531 10.671875 15.914062 C 11.054688 16.109375 11.316406 16.289062 11.460938 16.449219 C 11.609375 16.613281 11.679688 16.828125 11.679688 17.09375 C 11.679688 17.457031 11.546875 17.753906 11.277344 17.988281 C 11.007812 18.21875 10.640625 18.332031 10.164062 18.332031 C 10.003906 18.332031 9.828125 18.308594 9.644531 18.261719 C 9.457031 18.214844 9.3125 18.15625 9.199219 18.085938 L 9.199219 17.25 C 9.332031 17.382812 9.488281 17.484375 9.664062 17.558594 C 9.847656 17.632812 10.011719 17.667969 10.164062 17.667969 C 10.382812 17.667969 10.550781 17.628906 10.660156 17.542969 C 10.769531 17.457031 10.824219 17.332031 10.824219 17.160156 C 10.824219 17.027344 10.769531 16.914062 10.660156 16.828125 C 10.550781 16.734375 10.351562 16.617188 10.066406 16.464844 C 9.757812 16.296875 9.53125 16.128906 9.382812 15.960938 C 9.238281 15.789062 9.167969 15.546875 9.167969 15.234375 C 9.167969 14.878906 9.296875 14.589844 9.558594 14.359375 C 9.820312 14.132812 10.160156 14.015625 10.582031 14.015625 C 10.941406 14.015625 11.242188 14.066406 11.472656 14.171875 L 11.472656 15 M 12.40625 14.109375 L 13.855469 14.109375 C 14.554688 14.109375 15.082031 14.277344 15.429688 14.613281 C 15.785156 14.953125 15.960938 15.457031 15.960938 16.128906 C 15.960938 16.777344 15.761719 17.292969 15.363281 17.675781 C 14.96875 18.058594 14.433594 18.25 13.757812 18.25 L 12.40625 18.25 L 12.40625 14.109375 M 13.210938 17.613281 L 13.742188 17.613281 C 14.175781 17.613281 14.519531 17.480469 14.765625 17.222656 C 15.015625 16.960938 15.144531 16.605469 15.144531 16.15625 C 15.144531 15.71875 15.019531 15.378906 14.777344 15.136719 C 14.535156 14.894531 14.199219 14.773438 13.765625 14.773438 L 13.210938 14.773438 L 13.210938 17.613281 "/>
<path d="M 12.65625 13.730469 L 12.5 13.730469 L 12.5 12.867188 C 12.5 12.855469 12.503906 12.816406 12.511719 12.75 L 12.507812 12.75 C 12.5 12.800781 12.488281 12.839844 12.480469 12.863281 L 12.09375 13.730469 L 12.019531 13.730469 L 11.632812 12.871094 C 11.625 12.851562 11.613281 12.8125 11.601562 12.75 L 11.597656 12.75 C 11.601562 12.792969 11.605469 12.835938 11.605469 12.878906 L 11.605469 13.730469 L 11.457031 13.730469 L 11.457031 12.601562 L 11.664062 12.601562 L 12.039062 13.429688 C 12.046875 13.457031 12.054688 13.476562 12.058594 13.496094 L 12.0625 13.496094 C 12.066406 13.480469 12.074219 13.457031 12.089844 13.425781 L 12.453125 12.601562 L 12.65625 12.601562 L 12.65625 13.730469 M 14.152344 13.730469 L 13.996094 13.730469 L 13.996094 12.867188 C 13.996094 12.855469 14 12.816406 14.007812 12.75 L 14.003906 12.75 C 13.996094 12.800781 13.984375 12.839844 13.972656 12.863281 L 13.589844 13.730469 L 13.511719 13.730469 L 13.128906 12.871094 C 13.117188 12.851562 13.109375 12.8125 13.097656 12.75 L 13.09375 12.75 C 13.097656 12.792969 13.097656 12.835938 13.097656 12.878906 L 13.097656 13.730469 L 12.953125 13.730469 L 12.953125 12.601562 L 13.160156 12.601562 L 13.53125 13.429688 C 13.542969 13.457031 13.550781 13.476562 13.554688 13.496094 L 13.558594 13.496094 C 13.5625 13.480469 13.570312 13.457031 13.582031 13.425781 L 13.949219 12.601562 L 14.152344 12.601562 L 14.152344 13.730469 M 15.21875 13.679688 C 15.132812 13.726562 15.023438 13.75 14.898438 13.75 C 14.738281 13.75 14.609375 13.699219 14.511719 13.59375 C 14.417969 13.492188 14.367188 13.355469 14.367188 13.1875 C 14.367188 13.007812 14.421875 12.863281 14.535156 12.75 C 14.644531 12.636719 14.78125 12.582031 14.945312 12.582031 C 15.054688 12.582031 15.148438 12.597656 15.21875 12.628906 L 15.21875 12.796875 C 15.132812 12.746094 15.042969 12.722656 14.945312 12.722656 C 14.820312 12.722656 14.722656 12.765625 14.644531 12.847656 C 14.566406 12.929688 14.527344 13.039062 14.527344 13.179688 C 14.527344 13.308594 14.5625 13.414062 14.636719 13.492188 C 14.707031 13.570312 14.800781 13.609375 14.917969 13.609375 C 15.035156 13.609375 15.132812 13.582031 15.21875 13.527344 L 15.21875 13.675781 "/>
<path style="fill-opacity:.302" d="M 9.167969 8.273438 L 12.78125 8.273438 L 12.78125 9.199219 L 9.167969 9.199219 Z "/>
</g>
</svg>
