<svg width="22" xmlns="http://www.w3.org/2000/svg" height="22" viewBox="0 0 22 22" xmlns:xlink="http://www.w3.org/1999/xlink">
<path style="fill:#909ea9" d="M 10.898438 3.667969 C 9.21875 3.667969 7.863281 5.023438 7.863281 6.703125 L 7.863281 11.371094 C 7.863281 13.054688 9.21875 14.410156 10.898438 14.410156 C 12.582031 14.410156 13.9375 13.054688 13.9375 11.371094 L 13.9375 6.703125 C 13.9375 5.023438 12.582031 3.667969 10.898438 3.667969 Z M 6.085938 10.984375 C 6.085938 10.984375 6.085938 16.371094 10.5 16.355469 L 10.5 17.359375 L 9.039062 17.359375 L 9.039062 18.332031 L 12.960938 18.332031 L 12.960938 17.359375 L 11.488281 17.359375 L 11.488281 16.355469 C 16.363281 16.039062 15.898438 10.984375 15.898438 10.984375 L 14.910156 10.984375 C 14.910156 10.984375 14.921875 15.398438 11 15.398438 C 7.078125 15.398438 7.074219 10.984375 7.074219 10.984375 Z "/>
</svg>
