<svg width="32" xmlns="http://www.w3.org/2000/svg" height="32" viewBox="0 0 32 32" xmlns:xlink="http://www.w3.org/1999/xlink">
<path style="fill:#fff;stroke:#777;stroke-width:.5" d="M 25.932953 35.186401 C 25.932953 42.095309 20.446393 47.695712 13.677926 47.695712 C 6.90946 47.695712 1.4229 42.095309 1.4229 35.186401 C 1.4229 28.277492 6.90946 22.677089 13.677926 22.677089 C 20.446393 22.677089 25.932953 28.277492 25.932953 35.186401 Z " transform="matrix(1.06653 0 0 1.04485 1.41213 -20.76439)"/>
<path style="fill:#f2000b" d="M 14.332031 6 C 13.78125 6 13.332031 6.445312 13.332031 7 L 13.332031 17 C 13.332031 17.554688 13.78125 18 14.332031 18 L 17.667969 18 C 18.21875 18 18.667969 17.554688 18.667969 17 L 18.667969 7 C 18.667969 6.445312 18.191406 6.175781 17.667969 6 Z M 14.332031 20.667969 C 13.78125 20.667969 13.332031 21.113281 13.332031 21.667969 L 13.332031 25 C 13.332031 25.554688 13.808594 25.824219 14.332031 26 L 17.667969 26 C 18.21875 26 18.667969 25.554688 18.667969 25 L 18.667969 21.667969 C 18.667969 21.113281 18.21875 20.667969 17.667969 20.667969 Z "/>
</svg>
