<svg width="32" xmlns="http://www.w3.org/2000/svg" height="32" viewBox="0 0 32 32" xmlns:xlink="http://www.w3.org/1999/xlink">
<path style="fill:#fff;stroke:#777;stroke-width:.5" d="M 25.932953 35.186401 C 25.932953 42.095309 20.446393 47.695712 13.677926 47.695712 C 6.90946 47.695712 1.4229 42.095309 1.4229 35.186401 C 1.4229 28.277492 6.90946 22.677089 13.677926 22.677089 C 20.446393 22.677089 25.932953 28.277492 25.932953 35.186401 Z " transform="matrix(1.06653 0 0 1.04485 1.41213 -20.76439)"/>
<g style="fill:#427fec">
<path d="M 7.578125 9.863281 L 24.421875 9.863281 C 24.925781 9.863281 25.332031 10.300781 25.332031 10.84375 L 25.332031 22.222656 C 25.332031 22.761719 24.925781 23.199219 24.421875 23.199219 L 7.578125 23.199219 C 7.074219 23.199219 6.667969 22.761719 6.667969 22.222656 L 6.667969 10.84375 C 6.667969 10.300781 7.074219 9.863281 7.578125 9.863281 Z "/>
<path d="M 9.132812 8.800781 L 11.796875 8.800781 C 12.167969 8.800781 12.464844 9.097656 12.464844 9.46875 C 12.464844 9.835938 12.167969 10.136719 11.796875 10.136719 L 9.132812 10.136719 C 8.761719 10.136719 8.464844 9.835938 8.464844 9.46875 C 8.464844 9.097656 8.761719 8.800781 9.132812 8.800781 Z "/>
</g>
<g style="fill:#fff">
<path d="M 22.269531 11.40625 L 22.867188 11.40625 C 23.199219 11.40625 23.464844 11.691406 23.464844 12.042969 L 23.464844 12.679688 C 23.464844 13.03125 23.199219 13.3125 22.867188 13.3125 L 22.269531 13.3125 C 21.933594 13.3125 21.667969 13.03125 21.667969 12.679688 L 21.667969 12.042969 C 21.667969 11.691406 21.933594 11.40625 22.269531 11.40625 Z "/>
<path d="M 19.566406 16.808594 C 19.566406 19.089844 17.820312 20.9375 15.667969 20.9375 C 13.511719 20.9375 11.765625 19.089844 11.765625 16.808594 C 11.765625 14.527344 13.511719 12.679688 15.667969 12.679688 C 17.820312 12.679688 19.566406 14.527344 19.566406 16.808594 Z "/>
</g>
</svg>
