<svg width="22" xmlns="http://www.w3.org/2000/svg" height="22" viewBox="0 0 22 22" xmlns:xlink="http://www.w3.org/1999/xlink">
<defs>
<clipPath id="clip1">
<path d="M 3 3 L 18.90625 3 L 18.90625 18.90625 L 3 18.90625 Z "/>
</clipPath>
<clipPath id="clip2">
<path d="M 10.886719 18.570312 C 15.152344 18.570312 18.617188 15.09375 18.617188 10.828125 C 18.617188 6.589844 15.152344 3.109375 10.886719 3.109375 C 6.648438 3.109375 3.152344 6.589844 3.152344 10.828125 C 3.152344 15.09375 6.648438 18.570312 10.886719 18.570312 Z "/>
</clipPath>
</defs>
<path style="fill:#78b2a3" d="M 10.882812 2.382812 C 8.628906 2.382812 6.496094 3.269531 4.886719 4.878906 C 3.273438 6.488281 2.382812 8.617188 2.382812 10.871094 C 2.382812 15.566406 6.195312 19.386719 10.882812 19.386719 C 15.574219 19.386719 19.390625 15.566406 19.390625 10.871094 C 19.390625 6.191406 15.574219 2.382812 10.882812 2.382812 Z M 10.882812 2.734375 C 15.378906 2.734375 19.039062 6.386719 19.039062 10.871094 C 19.039062 15.375 15.378906 19.039062 10.882812 19.039062 C 6.390625 19.039062 2.734375 15.375 2.734375 10.871094 C 2.734375 8.710938 3.585938 6.671875 5.132812 5.128906 C 6.679688 3.585938 8.722656 2.734375 10.882812 2.734375 Z "/>
<g style="clip-rule:nonzero;clip-path:url(#clip1)">
<g style="clip-path:url(#clip2)">
<path style="fill:#78b2a3" d="M 8.265625 3.820312 C 8.222656 3.820312 8.183594 3.835938 8.140625 3.859375 C 8.238281 3.828125 8.289062 3.820312 8.265625 3.820312 M 10.804688 4.316406 L 10.828125 3.941406 L 10.4375 3.96875 L 10.488281 4.316406 L 10.804688 4.316406 M 6.378906 10.738281 C 6.300781 10.664062 6.351562 10.339844 6.351562 10.339844 C 6.351562 10.339844 5.175781 9.722656 3.890625 9.347656 C 3.734375 9.304688 3.8125 8.976562 3.96875 8.851562 L 3.917969 8.507812 C 3.890625 8.332031 4.179688 7.488281 4.46875 7.414062 C 4.753906 7.339844 4.441406 7.910156 4.441406 7.910156 L 4.152344 8.082031 C 4.152344 8.082031 4.492188 8.480469 4.570312 8.480469 C 4.652344 8.480469 4.78125 8.28125 4.78125 8.28125 L 4.414062 8.035156 L 4.753906 7.886719 L 4.777344 7.753906 L 4.835938 7.738281 L 5.398438 6.882812 C 5.789062 6.722656 6.265625 6.527344 6.328125 6.496094 C 6.433594 6.449219 7.164062 6.027344 7.296875 5.929688 C 7.429688 5.828125 7.714844 5.855469 7.820312 5.855469 C 7.925781 5.855469 8.082031 5.804688 8.109375 5.53125 C 8.132812 5.257812 8.238281 5.207031 8.316406 5.285156 C 8.398438 5.355469 8.238281 5.480469 8.421875 5.53125 C 8.605469 5.578125 8.761719 5.703125 8.894531 5.578125 C 8.988281 5.488281 8.859375 5.386719 8.773438 5.308594 L 10.230469 5.308594 L 10.386719 4.859375 L 10.046875 4.8125 L 8.789062 4.6875 L 8.789062 4.539062 L 8.6875 4.554688 C 8.824219 3.808594 9.632812 3.933594 9.023438 3.496094 C 8.988281 3.472656 8.453125 4.335938 8.320312 4.320312 C 8.074219 4.289062 7.757812 4.285156 7.691406 4.363281 C 7.601562 4.472656 7.890625 4 8.140625 3.859375 C 7.839844 3.949219 7.308594 3.675781 6.34375 4.355469 C 6.019531 4.585938 5.199219 5.519531 4.863281 5.878906 C 3.441406 7.558594 3.328125 8.992188 3.328125 9.054688 C 3.328125 9.179688 3.628906 9.25 3.65625 9.398438 C 3.679688 9.546875 3.15625 10.042969 3.15625 10.289062 C 3.15625 10.402344 2.894531 11.640625 3.472656 13.191406 C 3.980469 14.660156 4.96875 15.957031 5.097656 16.039062 L 5.460938 15.84375 C 5.460938 15.84375 4.859375 14.78125 4.835938 14.679688 C 4.808594 14.582031 5.515625 13.140625 5.855469 13.191406 C 6.195312 13.238281 6.117188 13.339844 6.328125 13.21875 C 6.535156 13.09375 6.667969 12.074219 6.902344 11.976562 C 7.140625 11.875 7.398438 11.753906 7.375 11.503906 C 7.347656 11.257812 6.457031 10.8125 6.378906 10.738281 M 12.0625 3.449219 L 11.355469 3.199219 L 11.484375 3.597656 L 12.0625 3.449219 M 9.417969 4.363281 C 9.496094 4.363281 11.066406 3.324219 10.910156 3.296875 C 10.753906 3.273438 10.726562 3.296875 10.304688 3.25 C 9.886719 3.199219 9.441406 3.84375 9.335938 3.941406 C 9.234375 4.042969 9.265625 4.363281 9.417969 4.363281 M 16.625 11.839844 L 16.828125 11.578125 L 16.625 11.507812 L 16.476562 11.699219 L 16.296875 11.960938 L 16.449219 12.03125 L 16.625 11.839844 M 17.515625 12.703125 L 17.460938 12.320312 L 17.132812 12.320312 L 17.109375 12.605469 L 16.804688 12.558594 L 16.730469 12.25 L 16.578125 12.152344 L 16.398438 12.367188 L 16.21875 12.320312 L 16.167969 12.484375 L 16.371094 12.535156 L 16.371094 14.089844 L 17.089844 14.261719 C 17.074219 14.289062 17.0625 14.3125 17.058594 14.324219 C 17.007812 14.492188 17.257812 14.566406 17.4375 14.492188 C 17.503906 14.46875 17.917969 14.308594 18.046875 13.996094 C 18.230469 13.5625 18.347656 12.933594 18.378906 12.734375 L 18.300781 12.558594 L 17.792969 12.75 L 17.511719 12.703125 L 17.515625 12.703125 M 17.257812 6.34375 C 16.101562 4.585938 13.3125 3.433594 13.3125 3.433594 L 12.597656 3.8125 L 12.496094 3.644531 L 12.242188 3.550781 L 12.242188 3.765625 L 12.46875 3.957031 L 12.316406 4.027344 L 11.734375 4.074219 L 10.417969 4.792969 L 10.542969 5.367188 L 10.390625 5.414062 L 10.316406 5.53125 L 10.746094 6.175781 L 10.769531 6.394531 L 10.417969 6.464844 L 10.417969 6.894531 L 10.214844 6.941406 L 10.242188 7.277344 L 8.515625 8.472656 L 8.566406 9.140625 C 8.695312 9.308594 9.679688 10.3125 9.679688 10.3125 C 9.679688 10.3125 10.824219 10.359375 11.074219 10.214844 C 11.332031 10.074219 11.152344 10.359375 11.226562 10.429688 C 11.304688 10.503906 11.332031 11.003906 11.40625 11.054688 C 11.484375 11.101562 11.40625 11.386719 11.507812 11.484375 C 11.609375 11.578125 11.609375 12.726562 11.609375 12.726562 C 11.609375 12.726562 12.21875 13.753906 12.21875 14.015625 C 12.21875 14.277344 12.191406 14.253906 12.671875 14.230469 C 13.15625 14.207031 13.253906 14.015625 13.359375 13.945312 C 13.460938 13.875 13.460938 13.707031 13.558594 13.5625 C 13.664062 13.417969 13.839844 12.871094 14.066406 12.679688 C 14.296875 12.484375 14.90625 12.34375 14.953125 12.007812 C 15.003906 11.671875 15.234375 11.410156 15.234375 11.410156 L 16.328125 10.253906 L 16.300781 10.410156 L 16.273438 11.007812 L 16.601562 10.886719 L 16.578125 10.242188 L 16.460938 10.117188 L 16.476562 10.097656 C 16.476562 10.097656 16.398438 9.953125 16.300781 9.953125 C 16.199219 9.953125 15.589844 10.097656 15.488281 10.074219 C 15.386719 10.046875 14.957031 8.902344 14.878906 8.855469 C 14.800781 8.804688 14.320312 8.019531 14.320312 8.019531 C 14.320312 8.019531 15.4375 9.355469 15.613281 9.882812 C 15.71875 10.1875 16.105469 9.902344 16.417969 9.582031 L 16.503906 9.785156 L 16.703125 9.738281 L 16.679688 9.5 L 16.90625 9.5 L 16.90625 9.859375 L 16.832031 10.050781 L 16.804688 10.359375 L 17.007812 10.550781 L 17.109375 10.382812 L 17.4375 10.074219 L 17.820312 9.882812 L 17.917969 10.074219 L 17.972656 10.335938 L 17.871094 10.625 L 17.667969 10.792969 L 17.566406 11.222656 L 17.566406 11.4375 L 17.335938 11.292969 L 17.3125 10.839844 L 16.980469 10.863281 L 16.832031 11.269531 L 17.058594 11.605469 L 17.589844 11.675781 L 18.023438 11.269531 L 18.070312 10.484375 L 18.265625 10.226562 C 18.390625 10.550781 18.480469 10.886719 18.480469 11.199219 C 18.480469 11.542969 18.75 11.023438 18.617188 9.980469 C 18.617188 9.976562 18.40625 7.492188 17.257812 6.34375 Z M 12.191406 7.371094 L 10.824219 7.324219 L 11.40625 6.847656 L 11.710938 6.847656 L 12.191406 7.179688 L 12.191406 7.371094 M 13.863281 7.207031 L 13.863281 7.421875 L 13.28125 7.421875 L 13.332031 7.5625 L 12.976562 7.609375 L 12.949219 7.730469 L 12.699219 7.683594 L 12.242188 7.589844 L 12.316406 7.46875 L 12.394531 7.324219 L 12.648438 7.0625 L 12.75 7.253906 L 13.128906 7.230469 L 13.332031 7.015625 L 14.121094 7.15625 L 13.863281 7.207031 M 13.914062 6.894531 L 13.609375 6.941406 L 13.558594 6.726562 L 13.941406 6.679688 L 13.992188 6.464844 L 14.269531 6.75 L 13.914062 6.894531 M 15.386719 14.324219 L 15.207031 14.46875 L 15.230469 14.828125 L 15.460938 14.828125 L 15.460938 14.519531 L 15.664062 14.253906 L 15.664062 13.707031 L 15.535156 13.679688 L 15.386719 14.324219 M 13.6875 13.609375 C 13.6875 13.609375 13.507812 13.65625 13.710938 13.730469 C 13.914062 13.800781 14.726562 12.558594 14.726562 12.558594 L 14.039062 12.988281 L 13.6875 13.609375 M 12.304688 18.191406 L 12.15625 18.042969 L 11.851562 17.996094 L 11.800781 18.144531 L 11.394531 18.09375 L 11.367188 17.902344 L 11.0625 17.902344 L 10.734375 18.09375 L 10.152344 18.09375 L 10.101562 17.949219 L 9.167969 17.851562 L 9.015625 17.996094 L 8.632812 17.902344 L 8.582031 17.566406 L 8.40625 17.539062 L 8.203125 17.902344 L 7.519531 17.875 C 7.644531 17.933594 8.664062 18.542969 10.230469 18.671875 C 12.304688 18.839844 13.296875 18.335938 13.296875 18.335938 L 13.21875 18.261719 Z "/>
</g>
</g>
</svg>
