<svg width="22" xmlns="http://www.w3.org/2000/svg" height="22" viewBox="0 0 22 22" xmlns:xlink="http://www.w3.org/1999/xlink">
<path style="fill:#c8a878" d="M 9.882812 17.3125 C 9.882812 17.699219 9.558594 18.011719 9.160156 18.011719 C 8.757812 18.011719 8.4375 17.699219 8.4375 17.3125 C 8.4375 16.929688 8.757812 16.613281 9.160156 16.613281 C 9.558594 16.613281 9.882812 16.929688 9.882812 17.3125 Z M 6.417969 6.488281 C 6.417969 6.875 6.089844 7.1875 5.695312 7.1875 C 5.292969 7.1875 4.96875 6.875 4.96875 6.488281 C 4.96875 6.101562 5.292969 5.792969 5.695312 5.792969 C 6.089844 5.792969 6.417969 6.101562 6.417969 6.488281 Z M 18.785156 8.859375 C 18.785156 9.246094 18.464844 9.558594 18.0625 9.558594 C 17.664062 9.558594 17.339844 9.246094 17.339844 8.859375 C 17.339844 8.472656 17.664062 8.160156 18.0625 8.160156 C 18.464844 8.160156 18.785156 8.472656 18.785156 8.859375 Z M 10.636719 19.363281 C 10.148438 19.21875 9.6875 18.75 9.3125 18.027344 C 9.171875 17.75 9.144531 17.714844 9.070312 17.714844 C 8.941406 17.710938 8.730469 17.613281 8.65625 17.519531 C 8.488281 17.304688 8.535156 17.042969 8.71875 16.855469 C 8.769531 16.800781 8.777344 16.738281 8.777344 16.707031 C 8.777344 16.683594 8.742188 16.535156 8.699219 16.378906 C 8.605469 16.042969 8.429688 15.253906 8.402344 15.027344 C 8.390625 14.9375 8.371094 14.851562 8.359375 14.832031 C 8.34375 14.8125 8.175781 14.855469 7.867188 14.960938 C 6.984375 15.261719 6.066406 15.492188 5.207031 15.632812 C 4.808594 15.703125 3.785156 15.707031 3.523438 15.648438 C 2.917969 15.507812 2.589844 15.203125 2.554688 14.75 C 2.535156 14.496094 2.601562 14.253906 2.792969 13.898438 C 3.046875 13.421875 3.34375 13.046875 3.898438 12.496094 C 4.351562 12.042969 5.253906 11.296875 5.757812 10.953125 L 5.867188 10.882812 L 5.707031 10.765625 C 3.648438 9.273438 2.492188 7.90625 2.554688 7.035156 C 2.605469 6.304688 3.433594 5.980469 4.882812 6.121094 C 5.207031 6.15625 5.207031 6.15625 5.304688 6.082031 C 5.597656 5.859375 6.03125 5.933594 6.21875 6.238281 C 6.285156 6.347656 6.316406 6.371094 6.457031 6.40625 C 6.726562 6.46875 7.5 6.699219 7.925781 6.839844 C 8.144531 6.914062 8.332031 6.964844 8.339844 6.957031 C 8.351562 6.949219 8.386719 6.789062 8.421875 6.597656 C 8.78125 4.667969 9.382812 3.273438 10.101562 2.679688 C 10.46875 2.375 10.890625 2.300781 11.273438 2.464844 C 11.628906 2.621094 12.050781 3.074219 12.371094 3.65625 C 12.601562 4.070312 12.914062 4.921875 13.105469 5.667969 C 13.207031 6.050781 13.355469 6.765625 13.355469 6.863281 C 13.355469 6.898438 13.367188 6.941406 13.386719 6.949219 C 13.402344 6.960938 13.632812 6.894531 13.898438 6.808594 C 16.246094 6.027344 18.148438 5.882812 18.886719 6.421875 C 19.371094 6.78125 19.324219 7.496094 18.757812 8.289062 C 18.664062 8.421875 18.640625 8.476562 18.664062 8.535156 C 18.675781 8.574219 18.6875 8.703125 18.6875 8.816406 C 18.691406 9 18.683594 9.035156 18.597656 9.132812 C 18.464844 9.289062 18.257812 9.367188 18.035156 9.339844 C 17.867188 9.324219 17.855469 9.328125 17.773438 9.414062 C 17.617188 9.578125 16.757812 10.289062 16.355469 10.585938 C 16.140625 10.746094 15.964844 10.886719 15.964844 10.902344 C 15.964844 10.914062 16.074219 11.007812 16.210938 11.105469 C 16.597656 11.390625 17.25 11.921875 17.546875 12.203125 C 18.902344 13.480469 19.433594 14.496094 19.082031 15.136719 C 18.742188 15.765625 17.550781 15.875 15.675781 15.453125 C 15.195312 15.34375 14.054688 15.011719 13.648438 14.859375 C 13.515625 14.8125 13.394531 14.78125 13.382812 14.792969 C 13.371094 14.804688 13.328125 14.992188 13.289062 15.207031 C 12.945312 17.089844 12.375 18.464844 11.675781 19.054688 C 11.570312 19.148438 11.410156 19.253906 11.320312 19.296875 C 11.117188 19.386719 10.824219 19.417969 10.636719 19.363281 Z M 11.074219 18.980469 C 11.855469 18.773438 12.527344 17.375 12.914062 15.136719 C 12.960938 14.878906 12.984375 14.660156 12.972656 14.648438 C 12.957031 14.636719 12.734375 14.550781 12.476562 14.449219 C 12.21875 14.355469 11.757812 14.15625 11.449219 14.015625 L 10.890625 13.753906 L 10.363281 13.996094 C 9.910156 14.203125 9.414062 14.40625 8.867188 14.605469 C 8.761719 14.644531 8.746094 14.664062 8.746094 14.75 C 8.746094 14.878906 8.824219 15.304688 8.957031 15.890625 C 9.125 16.632812 9.128906 16.640625 9.289062 16.691406 C 9.464844 16.75 9.566406 16.816406 9.644531 16.976562 C 9.722656 17.136719 9.71875 17.332031 9.59375 17.503906 C 9.484375 17.652344 9.480469 17.636719 9.726562 18.078125 C 10.023438 18.605469 10.328125 18.898438 10.691406 18.996094 C 10.816406 19.03125 10.894531 19.027344 11.074219 18.980469 Z M 18.070312 15.351562 C 18.3125 15.308594 18.578125 15.179688 18.679688 15.050781 C 18.8125 14.890625 18.847656 14.761719 18.832031 14.527344 C 18.792969 14.039062 18.34375 13.390625 17.46875 12.570312 C 16.953125 12.085938 15.6875 11.121094 15.59375 11.136719 C 15.566406 11.144531 15.339844 11.289062 15.089844 11.457031 C 14.839844 11.625 14.414062 11.894531 14.144531 12.054688 L 13.660156 12.347656 L 13.621094 12.902344 C 13.597656 13.210938 13.550781 13.671875 13.511719 13.929688 C 13.476562 14.1875 13.453125 14.402344 13.460938 14.414062 C 13.5 14.445312 14.335938 14.734375 14.847656 14.886719 C 16.261719 15.3125 17.371094 15.476562 18.070312 15.351562 Z M 4.9375 15.324219 C 5.761719 15.226562 6.847656 14.953125 7.953125 14.566406 C 8.195312 14.480469 8.292969 14.433594 8.292969 14.398438 C 8.292969 14.371094 8.261719 14.144531 8.226562 13.894531 C 8.191406 13.640625 8.144531 13.175781 8.125 12.855469 L 8.085938 12.273438 L 7.90625 12.175781 C 7.589844 12.011719 6.859375 11.566406 6.535156 11.34375 C 6.367188 11.226562 6.214844 11.128906 6.203125 11.128906 C 6.164062 11.128906 5.984375 11.257812 5.5 11.625 C 5 12 4.246094 12.65625 3.910156 13.007812 C 2.753906 14.222656 2.660156 15.089844 3.667969 15.308594 C 3.898438 15.355469 4.578125 15.367188 4.9375 15.324219 Z M 9.289062 14.066406 C 9.535156 13.972656 9.890625 13.816406 10.085938 13.726562 L 10.4375 13.566406 L 10.117188 13.417969 C 9.722656 13.234375 9.15625 12.941406 8.867188 12.769531 C 8.527344 12.574219 8.550781 12.5625 8.550781 12.925781 C 8.550781 13.246094 8.582031 13.589844 8.652344 14.039062 C 8.695312 14.328125 8.644531 14.324219 9.289062 14.066406 Z M 13.078125 14.125 C 13.191406 13.332031 13.25 12.617188 13.195312 12.617188 C 13.179688 12.617188 13.15625 12.625 13.144531 12.640625 C 13.113281 12.6875 12.132812 13.199219 11.722656 13.386719 C 11.515625 13.484375 11.34375 13.570312 11.34375 13.578125 C 11.34375 13.621094 12.894531 14.273438 13 14.277344 C 13.039062 14.277344 13.058594 14.234375 13.078125 14.125 Z M 11.453125 13.078125 C 11.984375 12.820312 12.710938 12.4375 13.074219 12.21875 L 13.246094 12.117188 L 13.265625 11.765625 C 13.292969 11.328125 13.289062 9.832031 13.261719 9.722656 C 13.246094 9.652344 13.148438 9.589844 12.691406 9.335938 C 12.390625 9.167969 12.140625 9.03125 12.136719 9.03125 C 12.132812 9.03125 11.960938 8.949219 11.757812 8.847656 C 11.078125 8.507812 10.953125 8.449219 10.902344 8.449219 C 10.78125 8.449219 9.210938 9.238281 8.644531 9.582031 C 8.503906 9.667969 8.488281 9.6875 8.46875 9.828125 C 8.429688 10.105469 8.464844 12.039062 8.511719 12.113281 C 8.546875 12.167969 9.128906 12.511719 9.550781 12.722656 C 10.140625 13.023438 10.8125 13.34375 10.855469 13.34375 C 10.878906 13.34375 11.148438 13.222656 11.453125 13.078125 Z M 10.578125 11.71875 C 10.003906 11.535156 9.734375 10.945312 10.007812 10.46875 C 10.132812 10.246094 10.339844 10.101562 10.625 10.035156 C 10.871094 9.980469 11.027344 9.996094 11.300781 10.113281 C 11.871094 10.359375 12.023438 11.054688 11.605469 11.488281 C 11.375 11.722656 10.910156 11.824219 10.578125 11.71875 Z M 8.03125 10.882812 C 8.03125 10.105469 8.023438 9.90625 7.992188 9.921875 C 7.738281 10.054688 6.519531 10.859375 6.519531 10.894531 C 6.519531 10.90625 6.617188 10.984375 6.730469 11.058594 C 7.007812 11.246094 7.976562 11.851562 8.007812 11.855469 C 8.019531 11.855469 8.03125 11.417969 8.03125 10.882812 Z M 14.378906 11.457031 C 14.730469 11.238281 15.066406 11.015625 15.132812 10.960938 C 15.25 10.871094 15.25 10.867188 15.1875 10.824219 C 14.636719 10.441406 13.792969 9.90625 13.742188 9.90625 C 13.726562 9.90625 13.707031 10.347656 13.703125 10.882812 C 13.699219 11.417969 13.707031 11.859375 13.71875 11.859375 C 13.730469 11.859375 14.027344 11.675781 14.378906 11.457031 Z M 6.988281 10.132812 C 7.378906 9.878906 7.785156 9.625 7.894531 9.566406 L 8.089844 9.457031 L 8.109375 9.136719 C 8.140625 8.660156 8.191406 8.1875 8.25 7.792969 C 8.328125 7.269531 8.34375 7.324219 8.0625 7.222656 C 7.746094 7.113281 6.746094 6.8125 6.46875 6.746094 L 6.253906 6.695312 L 6.152344 6.796875 C 5.953125 7 5.644531 7.054688 5.394531 6.929688 C 5.265625 6.863281 5.136719 6.699219 5.097656 6.550781 C 5.082031 6.480469 5.066406 6.472656 4.835938 6.453125 C 4.414062 6.417969 3.792969 6.453125 3.574219 6.523438 C 2.535156 6.859375 2.84375 7.875 4.429688 9.296875 C 4.722656 9.5625 5.183594 9.941406 5.453125 10.140625 C 6.164062 10.675781 6.15625 10.667969 6.222656 10.625 C 6.253906 10.605469 6.597656 10.382812 6.988281 10.132812 Z M 15.964844 10.382812 C 16.460938 10.027344 16.753906 9.796875 17.207031 9.398438 L 17.574219 9.078125 L 17.550781 8.941406 C 17.523438 8.742188 17.5625 8.574219 17.675781 8.457031 C 17.808594 8.320312 17.9375 8.261719 18.132812 8.277344 L 18.300781 8.289062 L 18.457031 8.085938 C 18.796875 7.632812 18.925781 7.15625 18.773438 6.871094 C 18.6875 6.710938 18.609375 6.640625 18.402344 6.546875 C 17.875 6.3125 16.816406 6.367188 15.511719 6.6875 C 14.945312 6.832031 13.519531 7.269531 13.460938 7.324219 C 13.449219 7.332031 13.472656 7.574219 13.511719 7.859375 C 13.578125 8.339844 13.644531 9.074219 13.644531 9.328125 C 13.644531 9.433594 13.660156 9.445312 13.929688 9.605469 C 14.402344 9.882812 15.011719 10.269531 15.285156 10.472656 C 15.425781 10.574219 15.550781 10.660156 15.558594 10.660156 C 15.570312 10.660156 15.75 10.539062 15.964844 10.382812 Z M 13.222656 9.019531 C 13.222656 8.660156 13.085938 7.488281 13.042969 7.488281 C 12.992188 7.488281 11.375 8.191406 11.375 8.214844 C 11.375 8.222656 11.449219 8.261719 11.542969 8.300781 C 11.796875 8.40625 12.757812 8.90625 12.980469 9.046875 C 13.085938 9.117188 13.1875 9.171875 13.199219 9.175781 C 13.210938 9.179688 13.222656 9.109375 13.222656 9.019531 Z M 8.675781 9.09375 C 8.890625 8.964844 9.800781 8.480469 10.101562 8.34375 L 10.429688 8.191406 L 10.230469 8.09375 C 9.804688 7.882812 8.785156 7.480469 8.726562 7.5 C 8.683594 7.515625 8.667969 7.601562 8.601562 8.1875 C 8.492188 9.199219 8.492188 9.210938 8.675781 9.09375 Z M 11.203125 7.839844 C 11.503906 7.707031 12.398438 7.34375 12.820312 7.1875 C 13.050781 7.101562 13.042969 7.164062 12.894531 6.378906 C 12.601562 4.8125 12.132812 3.625 11.609375 3.117188 C 11.347656 2.863281 11.152344 2.769531 10.886719 2.769531 C 10.65625 2.769531 10.472656 2.847656 10.277344 3.023438 C 9.667969 3.570312 9.164062 4.808594 8.847656 6.542969 C 8.757812 7.039062 8.753906 7.078125 8.789062 7.109375 C 8.8125 7.121094 9.058594 7.222656 9.34375 7.335938 C 9.632812 7.449219 10.089844 7.640625 10.367188 7.757812 C 10.644531 7.878906 10.875 7.980469 10.878906 7.980469 C 10.886719 7.984375 11.03125 7.921875 11.203125 7.839844 Z "/>
</svg>
