<svg width="22" xmlns="http://www.w3.org/2000/svg" height="22" viewBox="0 0 22 22" xmlns:xlink="http://www.w3.org/1999/xlink">
<g style="fill:#8ccd7c">
<path d="M 6.378906 6.898438 C 4.171875 6.898438 2.382812 8.699219 2.382812 10.917969 C 2.382812 11.058594 2.382812 11.195312 2.398438 11.328125 C 2.429688 12.191406 2.382812 13.433594 3.382812 16.453125 C 4.230469 19.019531 4.882812 18.964844 4.882812 18.964844 L 5.878906 18.460938 C 5.878906 18.460938 5.378906 17.457031 5.378906 16.453125 C 5.378906 15.96875 5.496094 15.371094 5.613281 14.878906 C 5.859375 14.925781 6.121094 14.941406 6.378906 14.941406 C 8.585938 14.941406 10.378906 13.140625 10.378906 10.917969 C 10.378906 8.699219 8.585938 6.898438 6.378906 6.898438 Z "/>
<path d="M 15.390625 14.875 C 17.597656 14.875 19.390625 13.070312 19.390625 10.851562 C 19.390625 10.714844 19.386719 10.578125 19.375 10.441406 C 19.339844 9.582031 19.390625 8.335938 18.390625 5.320312 C 17.539062 2.753906 16.890625 2.804688 16.890625 2.804688 L 15.890625 3.308594 C 15.890625 3.308594 16.390625 4.316406 16.390625 5.320312 C 16.390625 5.804688 16.277344 6.398438 16.15625 6.890625 C 15.910156 6.84375 15.648438 6.828125 15.390625 6.828125 C 13.183594 6.828125 11.394531 8.628906 11.394531 10.851562 C 11.394531 13.070312 13.183594 14.875 15.390625 14.875 Z "/>
</g>
</svg>
