<svg width="22" xmlns="http://www.w3.org/2000/svg" height="22" viewBox="0 0 22 22" xmlns:xlink="http://www.w3.org/1999/xlink">
<g style="fill:#b2a445">
<path d="M 3.203125 2.390625 C 2.890625 2.390625 2.636719 2.640625 2.636719 2.953125 L 2.636719 18.824219 C 2.636719 19.136719 2.890625 19.386719 3.203125 19.386719 L 6.421875 19.386719 C 6.738281 19.386719 6.992188 19.136719 6.992188 18.824219 L 6.992188 2.953125 C 6.992188 2.640625 6.738281 2.390625 6.421875 2.390625 Z M 3.742188 3.984375 L 5.886719 3.984375 L 5.886719 10.355469 L 3.742188 10.355469 Z M 4.8125 13.542969 C 5.40625 13.542969 5.886719 14.019531 5.886719 14.605469 C 5.886719 15.195312 5.40625 15.671875 4.8125 15.671875 C 4.222656 15.671875 3.742188 15.195312 3.742188 14.605469 C 3.742188 14.019531 4.222656 13.542969 4.8125 13.542969 Z "/>
<path d="M 8.566406 2.390625 C 8.25 2.390625 7.996094 2.640625 7.996094 2.953125 L 7.996094 18.824219 C 7.996094 19.136719 8.25 19.386719 8.566406 19.386719 L 10.707031 19.386719 C 11.027344 19.386719 11.28125 19.136719 11.28125 18.824219 L 11.28125 2.953125 C 11.28125 2.640625 11.027344 2.390625 10.707031 2.390625 Z M 8.566406 3.984375 L 10.707031 3.984375 L 10.707031 10.355469 L 8.566406 10.355469 Z M 9.636719 13.542969 C 10.230469 13.542969 10.707031 14.019531 10.707031 14.605469 C 10.707031 15.195312 10.230469 15.671875 9.636719 15.671875 C 9.046875 15.671875 8.566406 15.195312 8.566406 14.605469 C 8.566406 14.019531 9.046875 13.542969 9.636719 13.542969 Z "/>
<path d="M 12.203125 2.949219 C 11.898438 3.03125 11.71875 3.339844 11.796875 3.640625 L 15.941406 18.972656 C 16.027344 19.273438 16.335938 19.449219 16.640625 19.371094 L 18.710938 18.820312 C 19.019531 18.738281 19.195312 18.433594 19.113281 18.128906 L 14.96875 2.800781 C 14.890625 2.496094 14.578125 2.320312 14.273438 2.402344 Z M 12.617188 4.488281 L 14.691406 3.941406 L 16.351562 10.097656 L 14.28125 10.648438 Z M 16.152344 13.449219 C 16.722656 13.296875 17.3125 13.636719 17.460938 14.203125 C 17.617188 14.769531 17.277344 15.351562 16.707031 15.503906 C 16.132812 15.65625 15.546875 15.320312 15.394531 14.753906 C 15.242188 14.1875 15.578125 13.601562 16.152344 13.449219 Z "/>
</g>
</svg>
