<svg width="22" xmlns="http://www.w3.org/2000/svg" height="22" viewBox="0 0 22 22" xmlns:xlink="http://www.w3.org/1999/xlink">
<g style="stroke:#ff4545">
<path style="fill:none;stroke-width:8" d="M 65.085985 39.134269 L 198.151687 39.134269 C 210.691188 39.134269 220.888146 49.285294 220.888146 61.824796 L 220.888146 194.155582 C 220.888146 206.695083 210.691188 216.846109 198.151687 216.846109 L 65.085985 216.846109 C 52.592416 216.846109 42.395458 206.695083 42.395458 194.155582 L 42.395458 61.824796 C 42.395458 49.285294 52.592416 39.134269 65.085985 39.134269 Z " transform="scale(.08504)"/>
<g style="stroke-linecap:round;stroke-dasharray:0,159;fill:#000">
<path style="stroke-width:119" d="M 436.9785 117.069589 L -0.0590267 117.069589 M 436.9785 439.998692 L -0.0590267 439.998692 " transform="matrix(.02759 0 0 .02748 3.50944 3.23182)"/>
<path style="stroke-width:109" d="M 436.9785 117.069589 L -0.0590267 117.069589 M 436.9785 439.998692 L -0.0590267 439.998692 " transform="matrix(.02759 0 0 .02748 3.50944 3.23182)"/>
</g>
</g>
</svg>
