<svg width="22" xmlns="http://www.w3.org/2000/svg" height="22" viewBox="0 0 22 22" xmlns:xlink="http://www.w3.org/1999/xlink">
<path style="fill:#d64c62" d="M 8.660156 5.613281 C 8.421875 5.613281 8.1875 5.648438 7.964844 5.695312 C 7.222656 5.804688 6.324219 6.066406 5.390625 6.683594 C 3.078125 8.21875 2.09375 15.324219 2.453125 15.988281 C 2.8125 16.652344 6.050781 15.324219 7.746094 12.773438 C 7.875 12.582031 8 12.386719 8.113281 12.175781 C 8.289062 12.207031 8.476562 12.210938 8.660156 12.210938 L 13.34375 12.210938 C 13.460938 12.210938 13.558594 12.207031 13.675781 12.195312 C 13.78125 12.394531 13.902344 12.589844 14.023438 12.773438 C 15.71875 15.324219 18.957031 16.652344 19.316406 15.988281 C 19.679688 15.324219 18.695312 8.21875 16.378906 6.683594 C 15.714844 6.246094 15.074219 5.984375 14.484375 5.828125 C 14.433594 5.8125 14.390625 5.808594 14.339844 5.792969 C 14.019531 5.695312 13.691406 5.613281 13.34375 5.613281 Z M 14.519531 7.199219 C 14.585938 7.1875 14.65625 7.1875 14.71875 7.199219 C 14.804688 7.207031 14.890625 7.234375 14.96875 7.277344 C 15.285156 7.460938 15.382812 7.871094 15.199219 8.1875 C 15.015625 8.503906 14.621094 8.617188 14.304688 8.433594 C 13.988281 8.25 13.875 7.839844 14.054688 7.527344 C 14.160156 7.347656 14.328125 7.230469 14.519531 7.199219 Z M 6.769531 7.410156 L 7.382812 7.410156 L 7.382812 8.746094 L 8.710938 8.746094 L 8.710938 9.339844 L 7.382812 9.339844 L 7.382812 10.675781 L 6.769531 10.675781 L 6.769531 9.339844 L 5.441406 9.339844 L 5.441406 8.746094 L 6.769531 8.746094 Z M 16.261719 8.089844 C 16.347656 8.097656 16.433594 8.125 16.511719 8.167969 C 16.828125 8.351562 16.945312 8.761719 16.761719 9.078125 C 16.578125 9.394531 16.164062 9.507812 15.847656 9.324219 C 15.53125 9.140625 15.433594 8.734375 15.617188 8.417969 C 15.753906 8.179688 16.007812 8.054688 16.261719 8.089844 Z M 13.640625 8.714844 C 13.707031 8.703125 13.773438 8.707031 13.839844 8.714844 C 13.925781 8.722656 14.007812 8.75 14.089844 8.796875 C 14.40625 8.980469 14.503906 9.386719 14.320312 9.703125 C 14.136719 10.019531 13.742188 10.132812 13.425781 9.949219 C 13.109375 9.769531 12.992188 9.359375 13.175781 9.042969 C 13.28125 8.867188 13.449219 8.746094 13.640625 8.714844 Z M 15.199219 9.605469 C 15.261719 9.59375 15.320312 9.597656 15.382812 9.605469 C 15.46875 9.613281 15.554688 9.640625 15.632812 9.6875 C 15.949219 9.871094 16.0625 10.277344 15.878906 10.59375 C 15.699219 10.910156 15.285156 11.023438 14.96875 10.839844 C 14.652344 10.660156 14.554688 10.25 14.738281 9.933594 C 14.839844 9.757812 15.015625 9.636719 15.199219 9.605469 Z "/>
</svg>
