<svg width="22" xmlns="http://www.w3.org/2000/svg" height="22" viewBox="0 0 22 22" xmlns:xlink="http://www.w3.org/1999/xlink">
<path style="fill:#61c66b;fill-rule:evenodd;stroke:#61c66b;stroke-linejoin:round;stroke-width:12.5" d="M 234.935068 36.630866 C 219.729712 37.216262 202.686346 42.233935 193.579842 53.189189 C 180.379588 81.371787 212.544764 68.409464 216.30433 87.894763 C 220.063896 107.380061 197.422954 108.467223 197.422954 108.467223 L 99.674238 108.467223 C 99.674238 108.467223 99.757784 205.391947 99.757784 205.391947 C 99.757784 205.391947 100.843881 228.138733 120.310078 224.29185 C 136.183801 221.281246 130.586225 199.454367 143.034566 198.450832 C 145.875127 198.283577 149.801785 199.119855 155.065177 201.628692 C 165.926145 210.744132 171.022446 227.804222 171.607267 242.94087 C 171.774359 248.543938 171.273084 253.812495 170.354079 258.495657 C 170.270533 258.662913 170.270533 258.913796 170.270533 259.081052 C 168.599615 272.210631 163.503314 285.507465 154.229718 293.201231 C 126.074746 306.414438 139.107908 274.301328 119.641711 270.538073 C 105.35536 267.778353 101.010972 278.98449 99.674238 285.340209 L 99.674238 388.202513 C 99.674238 388.202513 197.757138 387.449862 197.757138 387.449862 C 197.757138 387.449862 220.39808 386.3627 216.638514 366.793774 C 212.878948 347.308475 180.713772 360.354426 193.914026 332.171827 C 203.02053 321.300202 220.063896 316.115273 235.269252 315.613505 C 240.866828 315.362622 246.13022 315.864389 250.725245 316.867924 C 250.975883 316.867924 251.226521 316.867924 251.393613 316.951552 C 264.510321 318.624109 277.877667 323.725411 285.480344 332.924478 C 298.764144 361.107077 266.598968 348.061126 262.839402 367.630053 C 259.079836 387.115351 281.720778 388.202513 281.720778 388.202513 L 378.968219 388.202513 L 378.968219 286.176488 C 380.304954 279.737141 384.732887 268.614632 398.852146 271.45798 C 418.401889 275.137607 405.368727 307.334344 433.607245 294.121138 C 442.797295 286.427372 447.81005 273.130538 449.564514 260.000959 C 449.564514 259.750075 449.564514 259.582819 449.564514 259.331936 C 450.567065 254.732402 451.068341 249.463845 450.901249 243.860776 C 450.316427 228.724128 445.220127 211.664039 434.359158 202.548599 C 406.12064 189.335392 419.153802 221.448502 399.604059 225.211757 C 380.137862 228.975012 379.051765 206.311854 379.051765 206.311854 L 378.968219 108.467223 L 276.79157 108.467223 C 270.358534 106.961921 259.83175 102.446015 262.505219 88.647414 C 266.264785 69.078488 298.429961 82.124438 285.146161 53.94184 C 277.459937 44.742772 264.176137 39.641471 251.059429 37.968913 C 250.892337 37.968913 250.641699 37.885285 250.391062 37.885285 C 245.796037 36.88175 240.532644 36.379983 234.935068 36.630866 Z " transform="matrix(.04676 0 0 .04671 -1.98456 .96476)"/>
</svg>
