<svg width="22" xmlns="http://www.w3.org/2000/svg" height="22" viewBox="0 0 22 22" xmlns:xlink="http://www.w3.org/1999/xlink">
<path style="fill:#9c9c37;stroke:#9c9c37;stroke-width:1.449" d="M 337.392048 491.241212 C 276.452598 487.039456 223.01441 438.819311 207.879121 380.461597 C 194.005107 319.969658 221.62037 251.807849 275.589621 220.194641 C 310.307848 199.385948 353.854993 196.784861 392.224277 207.589375 C 439.688009 222.262172 475.800276 264.679893 488.479399 311.966315 C 499.897248 355.517843 491.665776 405.005184 461.395199 439.352867 C 433.979085 473.633856 390.166409 493.375437 346.287349 491.641379 C 343.366504 491.574685 340.312893 491.441295 337.392048 491.241212 Z M 373.637081 484.371675 C 384.59025 483.437952 382.665147 480.036531 372.707721 479.169502 C 354.983502 475.768081 335.79886 475.634692 318.672086 481.703894 C 333.740992 488.973598 353.78861 487.106151 370.716235 484.905232 Z M 319.866978 474.700968 C 327.700153 466.697625 319.535063 447.622989 312.697631 440.086507 C 297.495959 432.283247 285.679813 419.544592 271.739416 409.873885 C 261.250927 406.072297 251.027969 413.342001 240.871394 415.809698 C 240.871394 425.880572 240.141183 437.285337 248.970101 444.221568 C 263.507944 458.627587 281.033014 471.299547 300.815102 476.968582 C 307.187855 477.235361 313.826139 476.901888 319.866978 474.700968 Z M 403.376594 475.101136 C 428.668458 464.229927 452.367133 446.622571 466.573061 422.679235 C 471.750923 415.809698 475.468362 403.737988 462.12541 407.73966 C 445.264168 418.410785 430.062497 431.549607 412.802958 441.553787 C 402.380852 449.890603 394.813208 461.362062 387.378329 472.233271 C 389.96726 478.302473 398.397881 476.835193 403.376594 475.101136 Z M 420.503368 431.216135 C 433.182491 420.745094 451.570538 414.008946 458.275206 398.135648 C 461.262434 385.663771 461.527965 372.725032 462.789239 359.986377 C 450.110116 348.715001 434.576531 341.111824 419.374859 333.842121 C 404.372337 335.042622 392.224277 348.448223 380.275365 357.118512 C 373.968995 360.586627 375.628566 368.523276 373.902612 374.592479 C 371.579212 388.665024 368.923899 402.73757 367.397093 417.0102 C 379.213239 425.747183 392.423425 433.817221 406.762119 437.218642 C 412.006364 437.285337 416.254866 433.750527 420.503368 431.216135 Z M 329.890787 433.35036 C 341.375019 428.948521 356.643073 425.613794 362.020083 413.408695 C 366.069436 396.268201 368.26007 378.794234 370.384321 361.320267 C 358.900089 350.382364 346.752029 338.84421 331.749507 333.24187 C 318.804852 332.975092 307.851683 342.178937 296.367451 347.181027 C 280.900249 351.382782 275.523238 365.522023 274.85941 380.128125 C 270.278994 394.534143 275.523238 409.340329 288.534276 417.343672 C 299.952125 425.747183 314.55635 439.152784 329.890787 433.35036 Z M 233.569282 413.141917 C 224.275684 395.868034 217.836548 376.860093 215.247617 357.38529 C 206.020402 359.252737 214.38464 381.995571 216.973571 391.199417 C 221.288456 403.737988 227.92674 415.276142 234.896938 426.547518 C 236.158212 421.878901 236.888424 417.343672 233.569282 413.141917 Z M 229.586311 336.109735 C 233.635664 330.240616 240.141183 325.638693 242.597348 318.96924 C 246.912233 298.760798 253.948814 279.285995 263.972624 261.211777 C 263.574327 249.606929 250.563289 242.470614 244.124154 255.342659 C 225.736106 279.085911 211.264646 308.098032 210.600818 338.710821 C 208.144653 349.248557 217.305485 356.851734 222.54973 344.379856 C 224.873129 341.645381 227.196529 338.84421 229.586311 336.109735 Z M 466.838592 350.582448 C 474.671768 340.31149 485.492171 328.106391 482.704092 314.167234 C 477.791761 287.7562 464.249661 262.679057 443.538214 245.471868 C 437.298227 242.870782 426.079527 233.200075 421.764642 242.337225 C 415.391889 254.609019 399.592772 266.147173 405.301697 281.42022 C 410.147644 296.426489 413.732318 312.166398 420.835282 326.372333 C 433.979085 336.576596 449.114373 344.57994 464.382427 351.316088 Z M 292.650012 343.712911 C 304.731689 337.577014 316.481453 330.840867 328.297599 324.171414 C 332.214186 310.232257 337.259283 296.626573 341.906082 282.954194 C 342.56991 268.081314 329.359724 257.476884 320.530806 247.072537 C 311.901036 233.200075 297.230428 243.8712 286.54279 248.939984 C 263.043264 261.54525 257.666254 289.22348 249.63393 312.366482 C 250.762438 321.036771 258.661996 328.306475 264.437304 334.775844 C 272.403245 342.779188 281.364929 353.517007 292.650012 343.712911 Z M 379.346005 268.881648 C 385.652375 268.014619 392.622574 268.61487 398.397881 266.814118 C 407.094034 257.476884 414.794443 246.538981 418.379117 234.200493 C 413.997849 221.728616 399.526389 216.126275 387.909392 211.857825 C 373.106018 207.455986 357.240518 205.321761 341.906082 207.055819 C 330.820147 212.724854 310.905294 229.198403 322.123994 242.003753 C 330.355467 251.807849 339.118002 261.145083 348.079686 270.348928 C 358.501792 270.415623 368.923899 269.615288 379.346005 268.881648 Z " transform="matrix(.05884 0 0 .05857 -9.64265 -9.41226)"/>
</svg>
