<svg width="22" xmlns="http://www.w3.org/2000/svg" height="22" viewBox="0 0 22 22" xmlns:xlink="http://www.w3.org/1999/xlink">
<g style="stroke:#549ca4;stroke-width:4.545;fill:#549ca4">
<path d="M 69.173955 106.241273 C 70.781583 113.77416 71.700228 119.469758 70.368193 127.048578 C 60.079371 135.408246 33.760197 139.174689 33.806129 147.809951 L 30.269347 173.807599 C 30.269347 182.396928 54.797163 189.378629 85.06651 189.378629 C 115.335857 189.378629 139.863673 182.396928 139.863673 173.807599 L 136.326891 147.809951 C 136.280958 140.41486 109.823988 135.683839 99.672962 127.048578 C 98.80025 120.020945 99.489233 113.222973 100.959065 106.241273 Z " transform="scale(.08504)"/>
<path d="M 84.836849 57.553098 C 72.251415 57.553098 62.10039 67.336665 62.10039 79.416844 C 62.192254 83.872272 62.559712 89.200412 65.131917 101.280591 C 66.647681 105.965679 80.15176 119.377894 80.243625 120.93959 C 83.22922 122.455354 87.822444 122.455354 90.853972 120.93959 C 90.853972 119.377894 102.980084 105.965679 104.54178 101.280591 C 107.389579 88.695157 107.389579 84.101933 107.573308 79.416844 C 107.573308 67.336665 97.37635 57.553098 84.836849 57.553098 Z " transform="scale(.08504)"/>
<g style="stroke-linejoin:round">
<path d="M 132.744176 71.194973 C 125.073492 66.647681 112.625854 34.954435 114.555008 48.458514 L 119.1023 80.243625 Z " transform="scale(.08504)"/>
<path d="M 177.987433 71.194973 C 185.704049 66.647681 198.105754 34.954435 196.1766 48.458514 L 191.629308 80.243625 Z " transform="scale(.08504)"/>
</g>
<path d="M 134.811127 107.573308 C 136.92401 117.44874 138.072316 124.935695 136.372823 134.811127 C 123.144337 145.788932 89.338208 150.749614 89.384141 162.094878 L 84.836849 196.1766 C 84.836849 207.475932 116.346366 216.616447 155.250974 216.616447 C 194.201514 216.616447 225.756963 207.475932 225.756963 196.1766 L 221.163739 162.094878 C 221.117807 152.357243 187.082017 146.202322 174.03726 134.811127 C 172.888954 125.624678 173.807599 116.759756 175.736753 107.573308 Z " transform="scale(.08504)"/>
<path d="M 155.250974 39.36393 C 136.464687 39.36393 121.169251 53.602925 121.169251 71.194973 C 121.35298 77.671419 121.904167 85.433968 125.716543 102.980084 C 128.013155 109.823988 148.269273 128.013155 148.453002 130.263835 C 152.862497 132.560447 159.798266 132.560447 164.345557 130.263835 C 164.345557 128.013155 182.534725 109.823988 184.831337 102.980084 C 189.148967 84.699052 189.148967 77.992945 189.378629 71.194973 C 189.378629 53.602925 174.083192 39.36393 155.250974 39.36393 Z " transform="scale(.08504)"/>
</g>
</svg>
