<svg width="22" xmlns="http://www.w3.org/2000/svg" height="22" viewBox="0 0 22 22" xmlns:xlink="http://www.w3.org/1999/xlink">
<g style="fill-rule:evenodd">
<path style="fill:#fff;stroke:#5b93d6;stroke-width:7.56" d="M 76.155655 33.438671 C 76.155655 33.438671 90.716175 31.96884 106.425002 34.403248 C 106.425002 34.403248 107.251782 37.296979 104.679577 38.169692 L 102.2911 62.651576 L 126.864849 176.150143 C 126.864849 176.150143 132.376718 190.481002 115.243992 193.558463 C 98.065334 196.681855 72.389211 201.458808 52.316822 185.933711 C 52.316822 185.933711 47.585801 179.916587 55.899537 152.403175 L 78.681928 63.019034 L 77.809216 38.307489 C 77.809216 38.307489 74.180569 34.770706 76.155655 33.438671 Z " transform="scale(.08504)"/>
<path style="fill:#d1d6cf;fill-opacity:.467" d="M 10.414062 15.652344 C 10.414062 16.023438 9.234375 16.320312 7.78125 16.320312 C 6.328125 16.320312 5.148438 16.023438 5.148438 15.652344 C 5.148438 15.28125 6.328125 14.984375 7.78125 14.984375 C 9.234375 14.984375 10.414062 15.28125 10.414062 15.652344 Z "/>
<path style="fill:#acc2e2" d="M 9.761719 12.851562 C 7.765625 13.925781 6.277344 13.617188 5.300781 13.066406 L 5.296875 13.078125 C 5.296875 13.085938 5.292969 13.09375 5.292969 13.097656 C 4.949219 14.234375 4.882812 14.902344 4.890625 15.25 C 4.898438 15.378906 4.90625 15.449219 4.917969 15.5 C 6.390625 16.546875 8.265625 16.21875 9.691406 15.960938 C 10.25 15.859375 10.257812 15.714844 10.292969 15.535156 C 10.328125 15.351562 10.261719 15.152344 10.261719 15.152344 C 10.253906 15.128906 10.246094 15.105469 10.242188 15.078125 Z "/>
<path style="fill:#fff;stroke:#5b93d6;stroke-width:7.56" d="M 143.354523 70.873447 L 142.619608 50.479533 C 142.619608 50.479533 142.711472 47.861395 141.287573 47.034615 L 142.298082 44.69207 C 142.298082 44.69207 150.933343 42.808848 171.648784 45.289189 C 171.648784 45.289189 174.909973 45.059528 175.323363 47.907327 C 175.323363 47.907327 173.486073 49.836481 173.669802 53.051738 L 171.281326 72.435144 C 171.281326 72.435144 196.360329 165.356067 203.066436 203.663556 C 203.066436 203.663556 200.034909 219.602043 182.672521 222.40391 C 165.310134 225.205776 129.896377 232.646799 102.153303 209.221357 C 102.153303 209.221357 92.737194 202.92864 105.322628 176.012347 L 140.277063 80.197692 C 140.277063 80.197692 143.400456 75.23701 143.859778 73.58345 C 144.3191 71.929889 143.400456 71.057176 143.354523 70.873447 Z " transform="scale(.08504)"/>
<path style="fill:#d1d6cf;fill-opacity:.467" d="M 16.636719 17.667969 C 16.636719 18.257812 15.035156 18.738281 13.0625 18.738281 C 11.085938 18.738281 9.484375 18.257812 9.484375 17.667969 C 9.484375 17.074219 11.085938 16.59375 13.0625 16.59375 C 15.035156 16.59375 16.636719 17.074219 16.636719 17.667969 Z "/>
<g style="fill:#acc2e2">
<g style="fill-opacity:.6">
<path d="M 7.265625 3.398438 L 7.332031 5.339844 C 7.335938 5.390625 7.332031 5.441406 7.316406 5.496094 L 6.550781 8.507812 C 6.816406 8.527344 7.089844 8.632812 7.363281 8.84375 C 7.882812 9.246094 8.371094 9.179688 8.808594 8.855469 L 8.070312 5.441406 C 8.058594 5.382812 8.054688 5.328125 8.058594 5.273438 L 8.238281 3.429688 C 7.882812 3.402344 7.546875 3.394531 7.269531 3.398438 C 7.269531 3.398438 7.265625 3.398438 7.265625 3.398438 Z "/>
<path d="M 13.03125 4.398438 C 12.957031 4.398438 12.910156 4.402344 12.851562 4.402344 L 12.902344 5.875 C 12.957031 6.019531 12.980469 6.222656 12.929688 6.417969 C 12.855469 6.6875 12.777344 6.765625 12.699219 6.902344 C 12.640625 7 12.609375 7.046875 12.585938 7.085938 L 11.042969 11.3125 C 11.96875 10.96875 12.921875 11.0625 13.578125 12.292969 C 13.578125 12.292969 14.804688 13.699219 14.496094 9.828125 C 14.46875 9.457031 14.484375 9.128906 14.535156 8.835938 C 14.152344 7.359375 13.871094 6.316406 13.871094 6.316406 C 13.847656 6.242188 13.84375 6.164062 13.851562 6.085938 L 14.054688 4.460938 C 13.648438 4.425781 13.289062 4.402344 13.03125 4.398438 Z M 12.808594 5.699219 C 12.8125 5.703125 12.816406 5.710938 12.824219 5.722656 C 12.824219 5.71875 12.820312 5.714844 12.820312 5.714844 C 12.808594 5.699219 12.804688 5.691406 12.808594 5.699219 Z M 12.828125 5.726562 C 12.835938 5.742188 12.839844 5.757812 12.851562 5.773438 C 12.839844 5.75 12.832031 5.738281 12.828125 5.726562 Z "/>
</g>
<path d="M 9.941406 14.132812 L 9.566406 15.15625 C 9.5625 15.171875 9.554688 15.1875 9.550781 15.203125 C 9.042969 16.285156 9.015625 16.886719 9.058594 17.15625 C 9.078125 17.289062 9.113281 17.34375 9.125 17.359375 C 11.230469 19.140625 13.898438 18.574219 15.425781 18.332031 C 16.347656 18.183594 16.566406 17.507812 16.613281 17.304688 C 16.484375 16.566406 16.269531 15.59375 16.023438 14.527344 C 13.285156 15.203125 11.285156 14.773438 9.941406 14.132812 Z "/>
</g>
</g>
</svg>
