<svg width="22" xmlns="http://www.w3.org/2000/svg" height="22" viewBox="0 0 22 22" xmlns:xlink="http://www.w3.org/1999/xlink">
<path style="fill:none;stroke:#92c8dd;stroke-linecap:round;stroke-width:8.073" d="M 34.403248 32.014772 L 221.623062 32.014772 C 222.909164 32.014772 223.965606 33.071213 223.965606 34.403248 L 223.965606 221.623062 C 223.965606 222.909164 222.909164 223.965606 221.623062 223.965606 L 34.403248 223.965606 C 33.071213 223.965606 32.014772 222.909164 32.014772 221.623062 L 32.014772 34.403248 C 32.014772 33.071213 33.071213 32.014772 34.403248 32.014772 Z " transform="scale(.08504)"/>
<g style="fill:#92c8dd">
<path d="M 8.886719 5.542969 C 8.585938 6.304688 8.285156 7.066406 7.984375 7.828125 L 9.792969 7.828125 Z M 8.511719 4.933594 L 9.265625 4.933594 C 9.890625 6.460938 10.515625 7.992188 11.136719 9.519531 L 10.445312 9.519531 C 10.300781 9.128906 10.148438 8.734375 10 8.34375 L 7.785156 8.34375 C 7.632812 8.734375 7.484375 9.128906 7.335938 9.519531 L 6.632812 9.519531 C 7.261719 7.992188 7.882812 6.460938 8.511719 4.933594 Z M 13.503906 7.789062 C 13.117188 7.804688 12.667969 7.777344 12.363281 8.039062 C 12.050781 8.375 12.203125 9.011719 12.703125 9.105469 C 13.1875 9.230469 13.757812 9.015625 13.960938 8.574219 C 14.074219 8.34375 14.148438 8.007812 14.089844 7.789062 Z M 14.710938 7.558594 L 14.710938 9.519531 L 14.105469 9.519531 L 14.105469 9 C 13.855469 9.417969 13.332031 9.628906 12.832031 9.609375 C 12.296875 9.640625 11.730469 9.324219 11.628906 8.8125 C 11.5 8.316406 11.703125 7.710938 12.246094 7.511719 C 12.832031 7.277344 13.484375 7.363281 14.105469 7.347656 C 14.148438 6.980469 13.890625 6.617188 13.5 6.527344 C 12.949219 6.402344 12.359375 6.511719 11.867188 6.757812 C 11.867188 6.585938 11.867188 6.410156 11.867188 6.234375 C 12.546875 5.996094 13.355469 5.867188 14.03125 6.179688 C 14.566406 6.4375 14.71875 7.039062 14.710938 7.558594 Z "/>
<g style="fill-opacity:.6">
<path d="M 6.632812 10.460938 L 7.703125 10.460938 L 7.703125 10.886719 L 6.632812 10.886719 Z "/>
<path d="M 7.851562 10.460938 L 8.859375 10.460938 L 8.859375 10.886719 L 7.851562 10.886719 Z "/>
<path d="M 9.003906 10.460938 L 9.894531 10.460938 L 9.894531 10.886719 L 9.003906 10.886719 Z "/>
<path d="M 10.042969 10.460938 L 10.429688 10.460938 L 10.429688 10.886719 L 10.042969 10.886719 Z "/>
<path d="M 10.578125 10.460938 L 11.453125 10.460938 L 11.453125 10.886719 L 10.578125 10.886719 Z "/>
<path d="M 11.597656 10.460938 L 13.863281 10.460938 L 13.863281 10.886719 L 11.597656 10.886719 Z "/>
<path d="M 6.632812 13.011719 L 7.703125 13.011719 L 7.703125 13.4375 L 6.632812 13.4375 Z "/>
<path d="M 7.851562 13.011719 L 8.859375 13.011719 L 8.859375 13.4375 L 7.851562 13.4375 Z "/>
<path d="M 9.003906 13.011719 L 9.894531 13.011719 L 9.894531 13.4375 L 9.003906 13.4375 Z "/>
<path d="M 10.042969 13.011719 L 10.429688 13.011719 L 10.429688 13.4375 L 10.042969 13.4375 Z "/>
<path d="M 10.578125 13.011719 L 11.453125 13.011719 L 11.453125 13.4375 L 10.578125 13.4375 Z "/>
<path d="M 11.597656 13.011719 L 13.863281 13.011719 L 13.863281 13.4375 L 11.597656 13.4375 Z "/>
<path d="M 6.632812 11.3125 L 8.246094 11.3125 L 8.246094 11.734375 L 6.632812 11.734375 Z "/>
<path d="M 8.394531 11.3125 L 9.171875 11.3125 L 9.171875 11.734375 L 8.394531 11.734375 Z "/>
<path d="M 9.320312 11.3125 L 9.683594 11.3125 L 9.683594 11.734375 L 9.320312 11.734375 Z "/>
<path d="M 9.828125 11.3125 L 10.53125 11.3125 L 10.53125 11.734375 L 9.828125 11.734375 Z "/>
<path d="M 10.679688 11.3125 L 11.382812 11.3125 L 11.382812 11.734375 L 10.679688 11.734375 Z "/>
<path d="M 11.53125 11.3125 L 12.65625 11.3125 L 12.65625 11.734375 L 11.53125 11.734375 Z "/>
<path d="M 12.804688 11.3125 L 14.285156 11.3125 L 14.285156 11.734375 L 12.804688 11.734375 Z "/>
<path d="M 6.632812 12.160156 L 8.519531 12.160156 L 8.519531 12.585938 L 6.632812 12.585938 Z "/>
<path d="M 8.664062 12.160156 L 10.6875 12.160156 L 10.6875 12.585938 L 8.664062 12.585938 Z "/>
<path d="M 10.832031 12.160156 L 11.640625 12.160156 L 11.640625 12.585938 L 10.832031 12.585938 Z "/>
<path d="M 11.789062 12.160156 L 13.691406 12.160156 L 13.691406 12.585938 L 11.789062 12.585938 Z "/>
<path d="M 13.835938 12.160156 L 15.136719 12.160156 L 15.136719 12.585938 L 13.835938 12.585938 Z "/>
<path d="M 6.632812 15.5625 L 8.519531 15.5625 L 8.519531 15.988281 L 6.632812 15.988281 Z "/>
<path d="M 8.664062 15.5625 L 10.6875 15.5625 L 10.6875 15.988281 L 8.664062 15.988281 Z "/>
<path d="M 10.832031 15.5625 L 11.640625 15.5625 L 11.640625 15.988281 L 10.832031 15.988281 Z "/>
<path d="M 11.789062 15.5625 L 13.691406 15.5625 L 13.691406 15.988281 L 11.789062 15.988281 Z "/>
<path d="M 13.835938 15.5625 L 15.136719 15.5625 L 15.136719 15.988281 L 13.835938 15.988281 Z "/>
<path d="M 6.632812 13.863281 L 7.960938 13.863281 L 7.960938 14.285156 L 6.632812 14.285156 Z "/>
<path d="M 8.105469 13.863281 L 10.308594 13.863281 L 10.308594 14.285156 L 8.105469 14.285156 Z "/>
<path d="M 10.453125 13.863281 L 11.515625 13.863281 L 11.515625 14.285156 L 10.453125 14.285156 Z "/>
<path d="M 12.792969 13.863281 L 13.636719 13.863281 L 13.636719 14.285156 L 12.792969 14.285156 Z "/>
<path d="M 13.777344 13.863281 L 15.136719 13.863281 L 15.136719 14.285156 L 13.777344 14.285156 Z "/>
<path d="M 11.65625 13.863281 L 12.652344 13.863281 L 12.652344 14.285156 L 11.65625 14.285156 Z "/>
<path d="M 6.632812 14.710938 L 8.386719 14.710938 L 8.386719 15.136719 L 6.632812 15.136719 Z "/>
<path d="M 8.53125 14.710938 L 9.082031 14.710938 L 9.082031 15.136719 L 8.53125 15.136719 Z "/>
<path d="M 9.226562 14.710938 L 10.488281 14.710938 L 10.488281 15.136719 L 9.226562 15.136719 Z "/>
<path d="M 10.628906 14.710938 L 11.488281 14.710938 L 11.488281 15.136719 L 10.628906 15.136719 Z "/>
<path d="M 11.636719 14.710938 L 12.496094 14.710938 L 12.496094 15.136719 L 11.636719 15.136719 Z "/>
<path d="M 12.640625 14.710938 L 13.882812 14.710938 L 13.882812 15.136719 L 12.640625 15.136719 Z "/>
<path d="M 14.027344 14.710938 L 14.285156 14.710938 L 14.285156 15.136719 L 14.027344 15.136719 Z "/>
<path d="M 6.632812 16.414062 L 7.328125 16.414062 L 7.328125 16.839844 L 6.632812 16.839844 Z "/>
<path d="M 7.507812 16.414062 L 10.035156 16.414062 L 10.035156 16.839844 L 7.507812 16.839844 Z "/>
</g>
</g>
</svg>
