<svg width="22" xmlns="http://www.w3.org/2000/svg" height="22" viewBox="0 0 22 22" xmlns:xlink="http://www.w3.org/1999/xlink">
<g style="fill:#de165d">
<path d="M 11 7.554688 C 11 10.078125 8.949219 12.128906 6.417969 12.128906 C 3.886719 12.128906 1.832031 10.078125 1.832031 7.554688 C 1.832031 5.027344 3.886719 2.976562 6.417969 2.976562 C 8.949219 2.976562 11 5.027344 11 7.554688 Z "/>
<path d="M 20.167969 7.554688 C 20.167969 10.078125 18.113281 12.128906 15.582031 12.128906 C 13.050781 12.128906 11 10.078125 11 7.554688 C 11 5.027344 13.050781 2.976562 15.582031 2.976562 C 18.113281 2.976562 20.167969 5.027344 20.167969 7.554688 Z "/>
<path d="M 2.699219 10.15625 L 11.144531 7.703125 L 18.992188 10.605469 L 10.941406 19.019531 Z "/>
</g>
</svg>
