<svg width="22" xmlns="http://www.w3.org/2000/svg" height="22" viewBox="0 0 22 22" xmlns:xlink="http://www.w3.org/1999/xlink">
<g style="fill:#52c8ff">
<path d="M 3.402344 7.164062 L 3.417969 8.226562 L 18.410156 8.226562 L 18.394531 7.164062 Z "/>
<path d="M 2.78125 10.351562 L 2.78125 11.414062 L 18.992188 11.414062 L 18.992188 10.351562 Z "/>
<path d="M 3.445312 13.542969 L 3.445312 14.605469 L 18.328125 14.605469 L 18.328125 13.542969 Z "/>
<path d="M 10.351562 2.785156 L 10.351562 19.003906 L 11.417969 19.003906 L 11.417969 2.785156 Z "/>
</g>
<g style="fill:none;stroke:#52c8ff">
<g style="stroke-width:12.5">
<path d="M 89.751598 7.747238 C 66.877343 -44.753313 68.622768 -110.620146 89.751598 -168.035447 " transform="matrix(.08504 0 0 .08504 0 17.6888)"/>
<path d="M 166.228779 7.747238 C 189.103035 -44.753313 187.35761 -110.620146 166.228779 -168.035447 " transform="matrix(.08504 0 0 .08504 0 17.6888)"/>
</g>
<path style="stroke-linecap:round;stroke-width:1.214" d="M 33.05421 27.318628 C 33.05421 32.345641 28.98175 36.418102 23.954737 36.418102 C 18.923263 36.418102 14.846343 32.345641 14.846343 27.318628 C 14.846343 22.287155 18.923263 18.210234 23.954737 18.210234 C 28.98175 18.210234 33.05421 22.287155 33.05421 27.318628 Z " transform="matrix(.87574 0 0 .87574 -10.09134 -13.03723)"/>
</g>
</svg>
