<svg width="22" xmlns="http://www.w3.org/2000/svg" height="22" viewBox="0 0 22 22" xmlns:xlink="http://www.w3.org/1999/xlink">
<g style="fill:#ec86ab">
<path d="M 3.324219 2.382812 L 3.324219 13.722656 L 4.269531 13.722656 L 4.269531 2.382812 Z "/>
<path d="M 5.214844 14.191406 C 5.214844 14.972656 4.582031 15.609375 3.796875 15.609375 C 3.015625 15.609375 2.382812 14.972656 2.382812 14.191406 C 2.382812 13.410156 3.015625 12.773438 3.796875 12.773438 C 4.582031 12.773438 5.214844 13.410156 5.214844 14.191406 Z "/>
<path d="M 8.996094 19.390625 L 8.996094 5.214844 L 8.050781 5.214844 L 8.050781 19.390625 Z "/>
<path d="M 7.105469 4.746094 C 7.105469 3.960938 7.742188 3.324219 8.523438 3.324219 C 9.304688 3.324219 9.941406 3.960938 9.941406 4.746094 C 9.941406 5.527344 9.304688 6.160156 8.523438 6.160156 C 7.742188 6.160156 7.105469 5.527344 7.105469 4.746094 Z "/>
<path d="M 12.773438 2.382812 L 12.773438 12.773438 L 13.722656 12.773438 L 13.722656 2.382812 Z "/>
<path d="M 14.664062 13.246094 C 14.664062 14.03125 14.03125 14.664062 13.25 14.664062 C 12.464844 14.664062 11.828125 14.03125 11.828125 13.246094 C 11.828125 12.464844 12.464844 11.828125 13.25 11.828125 C 14.03125 11.828125 14.664062 12.464844 14.664062 13.246094 Z "/>
<path d="M 18.445312 19.390625 L 18.445312 11.828125 L 17.5 11.828125 L 17.5 19.390625 Z "/>
<path d="M 16.554688 11.359375 C 16.554688 10.574219 17.191406 9.941406 17.972656 9.941406 C 18.753906 9.941406 19.390625 10.574219 19.390625 11.359375 C 19.390625 12.140625 18.753906 12.777344 17.972656 12.777344 C 17.191406 12.777344 16.554688 12.140625 16.554688 11.359375 Z "/>
</g>
</svg>
