<svg width="22" xmlns="http://www.w3.org/2000/svg" height="22" viewBox="0 0 22 22" xmlns:xlink="http://www.w3.org/1999/xlink">
<path style="fill:#4c7686" d="M 9.394531 3.667969 L 9.394531 12.46875 C 8.777344 12.226562 7.96875 12.183594 7.136719 12.410156 C 5.578125 12.832031 4.53125 14.015625 4.808594 15.050781 C 5.082031 16.082031 6.566406 16.582031 8.125 16.160156 C 9.449219 15.800781 10.398438 14.894531 10.484375 13.996094 L 10.496094 13.996094 L 10.496094 7.523438 L 16.136719 8.222656 L 16.136719 14.492188 C 15.519531 14.25 14.710938 14.207031 13.875 14.433594 C 12.320312 14.855469 11.273438 16.039062 11.546875 17.074219 C 11.824219 18.105469 13.308594 18.605469 14.867188 18.183594 C 16.191406 17.824219 17.136719 16.917969 17.226562 16.019531 L 17.238281 16.019531 L 17.238281 4.710938 Z M 10.496094 5.785156 L 16.136719 6.578125 L 16.136719 7.292969 L 10.496094 6.589844 Z "/>
</svg>
