<svg width="22" xmlns="http://www.w3.org/2000/svg" height="22" viewBox="0 0 22 22" xmlns:xlink="http://www.w3.org/1999/xlink">
<path style="fill:none;stroke:#6aaf53;stroke-linejoin:round;stroke-linecap:round;stroke-width:2" d="M 10.542614 1021.365041 L 37.457386 1021.365041 C 38.309659 1021.365041 39 1022.055382 39 1022.899132 L 39 1033.825268 C 39 1034.669018 38.309659 1035.359359 37.457386 1035.359359 L 10.542614 1035.359359 C 9.690341 1035.359359 9 1034.669018 9 1033.825268 L 9 1022.899132 C 9 1022.055382 9.690341 1021.365041 10.542614 1021.365041 Z " transform="matrix(.45833 0 0 .45833 0 -460.33267)"/>
<path style="fill:#6aaf53" d="M 5.269531 8.707031 C 5.144531 8.707031 5.042969 8.808594 5.042969 8.9375 L 5.042969 13.0625 C 5.042969 13.191406 5.144531 13.292969 5.269531 13.292969 L 10.796875 13.292969 C 10.921875 13.292969 11.023438 13.191406 11.023438 13.0625 L 11.023438 8.9375 C 11.023438 8.808594 10.921875 8.707031 10.796875 8.707031 Z M 6.875 11.917969 L 6.875 10.082031 L 7.332031 10.082031 L 7.332031 11.917969 Z M 7.792969 11.917969 L 7.792969 10.082031 L 8.25 10.082031 L 8.25 11.917969 Z M 8.707031 11.917969 L 8.707031 10.082031 L 9.167969 10.082031 L 9.167969 11.917969 Z "/>
</svg>
