<svg width="22" xmlns="http://www.w3.org/2000/svg" height="22" viewBox="0 0 22 22" xmlns:xlink="http://www.w3.org/1999/xlink">
<path style="fill:#9cc7cf" d="M 11.484375 14.261719 C 11.441406 12.71875 11.789062 11.222656 13.261719 10.160156 C 14.8125 8.960938 16.304688 7.460938 16.148438 5.691406 C 16.109375 3.984375 14.109375 2.644531 11.949219 2.453125 C 9.523438 2.121094 6.585938 2.945312 5.769531 4.828125 C 5.359375 5.742188 5.742188 7.386719 7.125 7.386719 C 7.9375 7.386719 8.308594 6.867188 8.367188 6.390625 C 8.414062 6.03125 8.265625 5.710938 8.175781 5.414062 C 8.078125 5.074219 8.503906 4.421875 8.96875 4.152344 C 9.359375 3.929688 9.765625 3.855469 9.824219 3.839844 C 11.222656 3.507812 12.613281 4.242188 13.191406 5.136719 C 13.773438 6.035156 13.132812 7.390625 12.21875 8.710938 C 11.296875 10.03125 10.3125 11.53125 10.316406 13.125 C 10.316406 13.730469 10.261719 13.9375 10.300781 14.183594 C 10.332031 14.378906 10.984375 14.355469 11.484375 14.261719 Z M 10.847656 16.339844 C 9.511719 16.269531 8.589844 17.769531 9.390625 18.726562 C 10.105469 19.785156 12.117188 19.523438 12.457031 18.328125 C 12.816406 17.394531 11.957031 16.324219 10.847656 16.339844 Z "/>
</svg>
