<svg width="64" xmlns="http://www.w3.org/2000/svg" height="64" viewBox="0 0 64 64" xmlns:xlink="http://www.w3.org/1999/xlink">
<path style="fill:#fff;stroke:#777;stroke-width:.5" d="M 25.932953 35.186401 C 25.932953 42.095309 20.446393 47.695712 13.677926 47.695712 C 6.90946 47.695712 1.4229 42.095309 1.4229 35.186401 C 1.4229 28.277492 6.90946 22.677089 13.677926 22.677089 C 20.446393 22.677089 25.932953 28.277492 25.932953 35.186401 Z " transform="matrix(2.13305 0 0 2.08969 2.82425 -41.52879)"/>
<path style="fill:#f2000b" d="M 28.667969 12 C 27.558594 12 26.667969 12.890625 26.667969 14 L 26.667969 34 C 26.667969 35.109375 27.558594 36 28.667969 36 L 35.332031 36 C 36.441406 36 37.332031 35.109375 37.332031 34 L 37.332031 14 C 37.332031 12.890625 36.382812 12.351562 35.332031 12 Z M 28.667969 41.332031 C 27.558594 41.332031 26.667969 42.226562 26.667969 43.332031 L 26.667969 50 C 26.667969 51.109375 27.617188 51.648438 28.667969 52 L 35.332031 52 C 36.441406 52 37.332031 51.109375 37.332031 50 L 37.332031 43.332031 C 37.332031 42.226562 36.441406 41.332031 35.332031 41.332031 Z "/>
</svg>
