
<svg xmlns="http://www.w3.org/2000/svg" xmlns:xlink="http://www.w3.org/1999/xlink" width="64px" height="64px" viewBox="0 0 64 64" version="1.1">
<g id="surface1">
<path style=" stroke:none;fill-rule:nonzero;fill:rgb(20.392157%,40.784314%,80.784314%);fill-opacity:1;" d="M 10.671875 0 C 9.296875 0 8 1.355469 8 2.789062 L 8 61.210938 C 8 62.566406 9.375 64 10.671875 64 L 53.328125 64 C 54.625 64 56 62.566406 56 61.210938 L 56 18 L 38 0 Z M 10.671875 0 "/>
<path style=" stroke:none;fill-rule:nonzero;fill:rgb(0%,0%,0%);fill-opacity:0.196078;" d="M 42 18 L 56 32 L 56 18 Z M 42 18 "/>
<path style=" stroke:none;fill-rule:nonzero;fill:rgb(100%,100%,100%);fill-opacity:0.392157;" d="M 38 0 L 55.984375 18 L 40.757812 18 C 39.410156 18 38 16.574219 38 15.226562 Z M 38 0 "/>
<path style=" stroke:none;fill-rule:evenodd;fill:rgb(97.647059%,97.647059%,97.647059%);fill-opacity:1;" d="M 20 22 L 32 22 L 32 32 L 20 32 Z M 20 22 "/>
<path style=" stroke:none;fill-rule:evenodd;fill:rgb(97.647059%,97.647059%,97.647059%);fill-opacity:1;" d="M 34 22 L 44 22 L 44 24 L 34 24 Z M 34 22 "/>
<path style=" stroke:none;fill-rule:nonzero;fill:rgb(0%,0%,0%);fill-opacity:0.196078;" d="M 8 48 L 8 61.335938 C 8 62.632812 9.375 64 10.664062 64 L 53.335938 64 C 54.625 64 56 62.632812 56 61.335938 L 56 48 Z M 8 48 "/>
<path style=" stroke:none;fill-rule:evenodd;fill:rgb(97.647059%,97.647059%,97.647059%);fill-opacity:1;" d="M 34 26 L 44 26 L 44 28 L 34 28 Z M 34 26 "/>
<path style=" stroke:none;fill-rule:evenodd;fill:rgb(97.647059%,97.647059%,97.647059%);fill-opacity:1;" d="M 34 30 L 44 30 L 44 32 L 34 32 Z M 34 30 "/>
<path style=" stroke:none;fill-rule:nonzero;fill:rgb(100%,100%,100%);fill-opacity:1;" d="M 20.320312 56.59375 C 20.320312 57.121094 20.335938 57.617188 20.378906 58.078125 C 20.425781 58.53125 20.515625 58.925781 20.648438 59.261719 C 20.789062 59.601562 20.988281 59.863281 21.234375 60.0625 C 21.480469 60.257812 21.808594 60.359375 22.222656 60.359375 C 22.625 60.359375 22.945312 60.257812 23.191406 60.0625 C 23.449219 59.863281 23.644531 59.601562 23.777344 59.261719 C 23.917969 58.910156 24.007812 58.511719 24.050781 58.0625 C 24.097656 57.609375 24.125 57.121094 24.125 56.59375 C 24.125 56.078125 24.097656 55.589844 24.050781 55.136719 C 24.007812 54.667969 23.917969 54.273438 23.777344 53.9375 C 23.644531 53.597656 23.457031 53.335938 23.210938 53.136719 C 22.960938 52.941406 22.632812 52.839844 22.222656 52.839844 C 21.808594 52.839844 21.480469 52.941406 21.234375 53.136719 C 20.988281 53.335938 20.789062 53.605469 20.648438 53.953125 C 20.515625 54.289062 20.425781 54.683594 20.378906 55.136719 C 20.335938 55.589844 20.320312 56.078125 20.320312 56.59375 M 17.890625 56.59375 C 17.890625 54.742188 18.277344 53.34375 19.035156 52.40625 C 19.800781 51.449219 20.863281 50.980469 22.222656 50.980469 C 23.628906 50.980469 24.707031 51.449219 25.441406 52.40625 C 26.183594 53.34375 26.550781 54.742188 26.550781 56.59375 C 26.550781 58.457031 26.171875 59.855469 25.425781 60.8125 C 24.675781 61.75 23.613281 62.21875 22.238281 62.21875 C 20.828125 62.21875 19.75 61.75 19.003906 60.8125 C 18.261719 59.855469 17.890625 58.457031 17.890625 56.59375 "/>
<path style=" stroke:none;fill-rule:nonzero;fill:rgb(100%,100%,100%);fill-opacity:1;" d="M 30.511719 60.25 C 30.570312 60.265625 30.644531 60.265625 30.71875 60.265625 C 30.800781 60.265625 30.875 60.265625 30.933594 60.265625 C 31.476562 60.265625 31.929688 60.175781 32.292969 59.988281 C 32.667969 59.804688 32.964844 59.550781 33.1875 59.222656 C 33.417969 58.902344 33.582031 58.511719 33.675781 58.078125 C 33.773438 57.625 33.832031 57.128906 33.832031 56.59375 C 33.832031 56.132812 33.789062 55.679688 33.707031 55.238281 C 33.632812 54.800781 33.5 54.414062 33.304688 54.074219 C 33.105469 53.738281 32.84375 53.476562 32.503906 53.277344 C 32.167969 53.0625 31.738281 52.964844 31.203125 52.964844 C 31.105469 52.964844 30.992188 52.964844 30.859375 52.980469 C 30.726562 52.980469 30.613281 52.988281 30.511719 53.011719 L 30.511719 60.25 M 36.25 56.59375 C 36.25 57.589844 36.113281 58.449219 35.824219 59.15625 C 35.550781 59.855469 35.171875 60.421875 34.679688 60.859375 C 34.191406 61.304688 33.601562 61.625 32.917969 61.832031 C 32.242188 62.03125 31.5 62.128906 30.6875 62.128906 C 30.257812 62.128906 29.835938 62.113281 29.425781 62.0625 C 29.023438 62.03125 28.585938 61.964844 28.125 61.871094 L 28.125 51.359375 C 28.667969 51.25 29.179688 51.1875 29.65625 51.152344 C 30.132812 51.121094 30.578125 51.09375 30.992188 51.09375 C 31.78125 51.09375 32.503906 51.203125 33.148438 51.40625 C 33.804688 51.621094 34.367188 51.953125 34.820312 52.402344 C 35.273438 52.839844 35.617188 53.417969 35.863281 54.109375 C 36.128906 54.792969 36.25 55.625 36.25 56.59375 "/>
<path style=" stroke:none;fill-rule:nonzero;fill:rgb(100%,100%,100%);fill-opacity:1;" d="M 46 51.21875 L 46 52.996094 L 42.832031 52.996094 L 42.832031 61.988281 L 40.425781 61.988281 L 40.425781 52.996094 L 37.265625 52.996094 L 37.265625 51.21875 L 46 51.21875 "/>
<path style=" stroke:none;fill-rule:evenodd;fill:rgb(97.647059%,97.647059%,97.647059%);fill-opacity:1;" d="M 20 34 L 44 34 L 44 36 L 20 36 Z M 20 34 "/>
<path style=" stroke:none;fill-rule:evenodd;fill:rgb(97.647059%,97.647059%,97.647059%);fill-opacity:1;" d="M 20 38 L 44 38 L 44 40 L 20 40 Z M 20 38 "/>
<path style=" stroke:none;fill-rule:evenodd;fill:rgb(97.647059%,97.647059%,97.647059%);fill-opacity:1;" d="M 20 42 L 44 42 L 44 44 L 20 44 Z M 20 42 "/>
</g>
</svg>
