
<svg xmlns="http://www.w3.org/2000/svg" xmlns:xlink="http://www.w3.org/1999/xlink" width="64px" height="64px" viewBox="0 0 64 64" version="1.1">
<g id="surface1">
<path style=" stroke:none;fill-rule:nonzero;fill:rgb(48.627451%,61.176471%,20.784314%);fill-opacity:1;" d="M 10.671875 0 C 9.296875 0 8 1.355469 8 2.789062 L 8 61.210938 C 8 62.566406 9.375 64 10.671875 64 L 53.328125 64 C 54.625 64 56 62.566406 56 61.210938 L 56 18 L 38 0 Z M 10.671875 0 "/>
<path style=" stroke:none;fill-rule:nonzero;fill:rgb(0%,0%,0%);fill-opacity:0.196078;" d="M 42 18 L 56 32 L 56 18 Z M 42 18 "/>
<path style=" stroke:none;fill-rule:nonzero;fill:rgb(100%,100%,100%);fill-opacity:0.392157;" d="M 38 0 L 55.984375 18 L 40.757812 18 C 39.410156 18 38 16.574219 38 15.226562 Z M 38 0 "/>
<path style=" stroke:none;fill-rule:nonzero;fill:rgb(100%,100%,100%);fill-opacity:1;" d="M 32 43.773438 L 22.890625 34.664062 L 32 25.5625 L 35.039062 28.59375 L 28.960938 34.664062 L 32 37.703125 L 41.109375 28.59375 L 33.171875 20.664062 C 32.527344 20.019531 31.472656 20.019531 30.828125 20.664062 L 18 33.492188 C 17.347656 34.136719 17.347656 35.191406 18 35.84375 L 30.828125 48.671875 C 31.472656 49.316406 32.527344 49.316406 33.171875 48.671875 L 46 35.84375 C 46.652344 35.191406 46.652344 34.136719 46 33.492188 L 44.140625 31.632812 Z M 32 43.773438 "/>
</g>
</svg>
