
<svg xmlns="http://www.w3.org/2000/svg" xmlns:xlink="http://www.w3.org/1999/xlink" width="64px" height="64px" viewBox="0 0 64 64" version="1.1">
<g id="surface1">
<path style=" stroke:none;fill-rule:nonzero;fill:rgb(87.45098%,9.411765%,9.411765%);fill-opacity:1;" d="M 10.671875 0 C 9.296875 0 8 1.355469 8 2.789062 L 8 61.210938 C 8 62.566406 9.375 64 10.671875 64 L 53.328125 64 C 54.625 64 56 62.566406 56 61.210938 L 56 18 L 38 0 Z M 10.671875 0 "/>
<path style=" stroke:none;fill-rule:nonzero;fill:rgb(0%,0%,0%);fill-opacity:0.196078;" d="M 42 18 L 56 32 L 56 18 Z M 42 18 "/>
<path style=" stroke:none;fill-rule:nonzero;fill:rgb(100%,100%,100%);fill-opacity:0.392157;" d="M 38 0 L 55.984375 18 L 40.757812 18 C 39.410156 18 38 16.574219 38 15.226562 Z M 38 0 "/>
<path style=" stroke:none;fill-rule:nonzero;fill:rgb(100%,100%,100%);fill-opacity:1;" d="M 31.375 21.351562 C 31.375 21.351562 32.296875 29.84375 25.789062 41.0625 C 19.28125 52.273438 17.367188 50.765625 16.6875 50.382812 C 16 49.992188 15.117188 48.726562 18.007812 46.203125 C 20.890625 43.679688 22.015625 43.726562 22.015625 43.726562 C 22.015625 43.726562 19.375 45.328125 18.351562 46.882812 C 17.320312 48.4375 16.492188 49.40625 16.734375 49.84375 C 16.976562 50.28125 19.929688 48.054688 21.148438 46.164062 C 23.09375 43.15625 26.765625 37.5625 28.476562 32.226562 C 30.1875 26.882812 31.375 21.351562 31.375 21.351562 Z M 31.375 21.351562 "/>
<path style=" stroke:none;fill-rule:nonzero;fill:rgb(100%,100%,100%);fill-opacity:1;" d="M 47.414062 41.007812 C 47.414062 41.007812 47.265625 41.398438 45.554688 41.257812 C 43.84375 41.109375 37.1875 39.023438 33.617188 34.75 C 30.046875 30.476562 29.75 24.601562 29.507812 21.546875 C 29.257812 18.492188 30.617188 19.34375 30.8125 19.726562 C 31.117188 19.984375 31.265625 20.820312 31.265625 20.820312 C 31.265625 20.820312 31.15625 19.570312 30.617188 19.03125 C 30.078125 18.5 29.601562 18.492188 29.0625 19.414062 C 28.523438 20.335938 28.28125 22.90625 28.71875 25.382812 C 29.164062 27.859375 30.976562 33.539062 33.226562 36.15625 C 35.476562 38.78125 39.976562 41.0625 43.304688 41.742188 C 46.632812 42.421875 47.414062 41.015625 47.414062 41.015625 Z M 47.414062 41.007812 "/>
<path style=" stroke:none;fill-rule:nonzero;fill:rgb(100%,100%,100%);fill-opacity:1;" d="M 25.734375 42.125 C 25.734375 42.125 32.195312 40.039062 38.3125 39.460938 C 44.429688 38.875 46.539062 39.507812 47.070312 39.945312 C 47.609375 40.382812 47.609375 40.867188 47.609375 40.867188 C 47.609375 40.867188 48.296875 40.1875 47.84375 39.5 C 47.460938 38.78125 46.875 38.195312 42.03125 38.34375 C 37.1875 38.484375 36.84375 38.679688 32.390625 39.507812 C 27.9375 40.335938 25.734375 42.125 25.734375 42.125 Z M 25.734375 42.125 "/>
</g>
</svg>
