
<svg xmlns="http://www.w3.org/2000/svg" xmlns:xlink="http://www.w3.org/1999/xlink" width="64px" height="64px" viewBox="0 0 64 64" version="1.1">
<g id="surface1">
<path style=" stroke:none;fill-rule:nonzero;fill:rgb(20.392157%,40.784314%,80.784314%);fill-opacity:1;" d="M 10.671875 0 C 9.296875 0 8 1.355469 8 2.789062 L 8 61.210938 C 8 62.566406 9.375 64 10.671875 64 L 53.328125 64 C 54.625 64 56 62.566406 56 61.210938 L 56 18 L 38 0 Z M 10.671875 0 "/>
<path style=" stroke:none;fill-rule:nonzero;fill:rgb(0%,0%,0%);fill-opacity:0.196078;" d="M 42 18 L 56 32 L 56 18 Z M 42 18 "/>
<path style=" stroke:none;fill-rule:nonzero;fill:rgb(100%,100%,100%);fill-opacity:0.392157;" d="M 38 0 L 55.984375 18 L 40.757812 18 C 39.410156 18 38 16.574219 38 15.226562 Z M 38 0 "/>
<path style=" stroke:none;fill-rule:evenodd;fill:rgb(97.647059%,97.647059%,97.647059%);fill-opacity:1;" d="M 20 22 L 32 22 L 32 32 L 20 32 Z M 20 22 "/>
<path style=" stroke:none;fill-rule:evenodd;fill:rgb(97.647059%,97.647059%,97.647059%);fill-opacity:1;" d="M 34 22 L 44 22 L 44 24 L 34 24 Z M 34 22 "/>
<path style=" stroke:none;fill-rule:nonzero;fill:rgb(0%,0%,0%);fill-opacity:0.196078;" d="M 8 48 L 8 61.335938 C 8 62.632812 9.375 64 10.664062 64 L 53.335938 64 C 54.625 64 56 62.632812 56 61.335938 L 56 48 Z M 8 48 "/>
<path style=" stroke:none;fill-rule:evenodd;fill:rgb(97.647059%,97.647059%,97.647059%);fill-opacity:1;" d="M 34 26 L 44 26 L 44 28 L 34 28 Z M 34 26 "/>
<path style=" stroke:none;fill-rule:nonzero;fill:rgb(100%,100%,100%);fill-opacity:1;" d="M 20.386719 60.152344 C 20.453125 60.167969 20.527344 60.167969 20.609375 60.167969 C 20.683594 60.167969 20.757812 60.167969 20.824219 60.167969 C 21.382812 60.167969 21.84375 60.078125 22.214844 59.886719 C 22.601562 59.707031 22.90625 59.453125 23.125 59.125 C 23.367188 58.800781 23.53125 58.417969 23.621094 57.980469 C 23.726562 57.527344 23.785156 57.035156 23.785156 56.5 C 23.785156 56.039062 23.742188 55.585938 23.660156 55.140625 C 23.578125 54.707031 23.449219 54.320312 23.242188 53.984375 C 23.042969 53.644531 22.773438 53.382812 22.4375 53.183594 C 22.089844 52.972656 21.644531 52.871094 21.105469 52.871094 C 20.996094 52.871094 20.882812 52.871094 20.742188 52.890625 C 20.609375 52.890625 20.496094 52.898438 20.386719 52.921875 L 20.386719 60.152344 M 26.261719 56.5 C 26.261719 57.496094 26.113281 58.351562 25.824219 59.058594 C 25.546875 59.757812 25.160156 60.324219 24.65625 60.761719 C 24.15625 61.203125 23.546875 61.523438 22.847656 61.730469 C 22.164062 61.929688 21.398438 62.027344 20.570312 62.027344 C 20.132812 62.027344 19.695312 62.011719 19.277344 61.960938 C 18.867188 61.929688 18.421875 61.863281 17.945312 61.773438 L 17.945312 51.269531 C 18.503906 51.160156 19.023438 51.097656 19.515625 51.0625 C 20 51.03125 20.460938 51.003906 20.882812 51.003906 C 21.6875 51.003906 22.429688 51.113281 23.085938 51.316406 C 23.761719 51.53125 24.328125 51.859375 24.796875 52.3125 C 25.257812 52.75 25.609375 53.324219 25.867188 54.015625 C 26.128906 54.699219 26.261719 55.527344 26.261719 56.5 "/>
<path style=" stroke:none;fill-rule:nonzero;fill:rgb(100%,100%,100%);fill-opacity:1;" d="M 29.8125 56.5 C 29.8125 57.027344 29.828125 57.519531 29.871094 57.980469 C 29.929688 58.433594 30.019531 58.828125 30.152344 59.164062 C 30.300781 59.5 30.496094 59.765625 30.742188 59.960938 C 30.996094 60.160156 31.335938 60.257812 31.753906 60.257812 C 32.164062 60.257812 32.496094 60.160156 32.75 59.960938 C 33.011719 59.765625 33.210938 59.5 33.34375 59.164062 C 33.488281 58.8125 33.582031 58.417969 33.621094 57.964844 C 33.671875 57.511719 33.703125 57.027344 33.703125 56.5 C 33.703125 55.980469 33.671875 55.496094 33.621094 55.042969 C 33.582031 54.574219 33.488281 54.179688 33.34375 53.84375 C 33.210938 53.503906 33.019531 53.242188 32.765625 53.046875 C 32.519531 52.847656 32.183594 52.75 31.753906 52.75 C 31.335938 52.75 30.996094 52.847656 30.742188 53.046875 C 30.496094 53.242188 30.300781 53.515625 30.152344 53.859375 C 30.019531 54.195312 29.929688 54.589844 29.871094 55.042969 C 29.832031 55.496094 29.8125 55.980469 29.8125 56.5 M 27.328125 56.5 C 27.328125 54.648438 27.722656 53.25 28.507812 52.3125 C 29.289062 51.359375 30.363281 50.890625 31.753906 50.890625 C 33.203125 50.890625 34.296875 51.359375 35.054688 52.3125 C 35.800781 53.25 36.179688 54.648438 36.179688 56.5 C 36.179688 58.359375 35.800781 59.757812 35.027344 60.710938 C 34.261719 61.648438 33.175781 62.117188 31.78125 62.117188 C 30.332031 62.117188 29.230469 61.648438 28.464844 60.710938 C 27.707031 59.757812 27.328125 58.359375 27.328125 56.5 "/>
<path style=" stroke:none;fill-rule:nonzero;fill:rgb(100%,100%,100%);fill-opacity:1;" d="M 42.585938 62.117188 C 40.859375 62.117188 39.535156 61.632812 38.621094 60.652344 C 37.710938 59.683594 37.25 58.300781 37.25 56.5 C 37.25 55.613281 37.390625 54.8125 37.667969 54.121094 C 37.949219 53.421875 38.335938 52.839844 38.820312 52.363281 C 39.320312 51.878906 39.914062 51.515625 40.589844 51.269531 C 41.269531 51.015625 42.019531 50.890625 42.824219 50.890625 C 43.261719 50.890625 43.65625 50.921875 44 50.988281 C 44.355469 51.046875 44.667969 51.121094 44.929688 51.203125 C 45.195312 51.285156 45.417969 51.367188 45.589844 51.457031 C 45.769531 51.554688 45.910156 51.621094 46 51.671875 L 45.367188 53.375 C 45.0625 53.203125 44.691406 53.054688 44.257812 52.9375 C 43.835938 52.816406 43.34375 52.75 42.785156 52.75 C 42.40625 52.75 42.027344 52.816406 41.65625 52.9375 C 41.304688 53.054688 40.976562 53.257812 40.6875 53.546875 C 40.40625 53.828125 40.175781 54.203125 39.988281 54.671875 C 39.816406 55.152344 39.734375 55.742188 39.734375 56.449219 C 39.734375 57.675781 39.972656 58.621094 40.449219 59.28125 C 40.933594 59.929688 41.730469 60.257812 42.824219 60.257812 C 43.457031 60.257812 43.984375 60.191406 44.394531 60.070312 C 44.816406 59.9375 45.152344 59.8125 45.40625 59.683594 L 46.023438 61.367188 C 45.679688 61.558594 45.210938 61.730469 44.609375 61.886719 C 44.035156 62.042969 43.359375 62.117188 42.585938 62.117188 "/>
<path style=" stroke:none;fill-rule:evenodd;fill:rgb(97.647059%,97.647059%,97.647059%);fill-opacity:1;" d="M 34 30 L 44 30 L 44 32 L 34 32 Z M 34 30 "/>
<path style=" stroke:none;fill-rule:evenodd;fill:rgb(97.647059%,97.647059%,97.647059%);fill-opacity:1;" d="M 20 34 L 44 34 L 44 36 L 20 36 Z M 20 34 "/>
<path style=" stroke:none;fill-rule:evenodd;fill:rgb(97.647059%,97.647059%,97.647059%);fill-opacity:1;" d="M 20 38 L 44 38 L 44 40 L 20 40 Z M 20 38 "/>
<path style=" stroke:none;fill-rule:evenodd;fill:rgb(97.647059%,97.647059%,97.647059%);fill-opacity:1;" d="M 20 42 L 44 42 L 44 44 L 20 44 Z M 20 42 "/>
</g>
</svg>
