
<svg xmlns="http://www.w3.org/2000/svg" xmlns:xlink="http://www.w3.org/1999/xlink" width="64px" height="64px" viewBox="0 0 64 64" version="1.1">
<g id="surface1">
<path style=" stroke:none;fill-rule:nonzero;fill:rgb(86.27451%,19.607843%,18.431373%);fill-opacity:1;" d="M 10.664062 1.335938 C 9.296875 1.335938 8 2.625 8 4 L 8 60 C 8 61.296875 9.375 62.664062 10.664062 62.664062 L 53.335938 62.664062 C 54.625 62.664062 56 61.296875 56 60 L 56 18.664062 L 38.664062 1.335938 Z M 10.664062 1.335938 "/>
<path style=" stroke:none;fill-rule:nonzero;fill:rgb(0%,0%,0%);fill-opacity:0.196078;" d="M 38.664062 16 L 38.75 16.085938 L 38.960938 16 Z M 41.335938 18.664062 L 56 33.335938 L 56 18.664062 Z M 41.335938 18.664062 "/>
<path style=" stroke:none;fill-rule:nonzero;fill:rgb(100%,100%,100%);fill-opacity:0.392157;" d="M 38.664062 1.335938 L 56 18.664062 L 41.335938 18.664062 C 40.039062 18.664062 38.664062 17.296875 38.664062 16 Z M 38.664062 1.335938 "/>
<path style=" stroke:none;fill-rule:nonzero;fill:rgb(100%,100%,100%);fill-opacity:1;" d="M 20.585938 24.007812 C 20.023438 24.070312 20 24.34375 20 25.34375 L 20 29.34375 L 44 29.34375 L 44 25.34375 C 44 24.007812 44 24.007812 42.664062 24.007812 L 21.335938 24.007812 C 21 24.007812 20.773438 23.992188 20.585938 24.007812 Z M 20 30.671875 L 20 46.664062 C 20 48 20 48 21.335938 48 L 42.664062 48 C 44 48 44 48 44 46.664062 L 44 30.671875 Z M 36.335938 33.335938 C 37.203125 33.335938 37.976562 33.554688 38.625 33.960938 C 39.28125 34.367188 39.773438 34.9375 40.125 35.710938 C 40.476562 36.484375 40.664062 37.398438 40.664062 38.460938 C 40.664062 40.765625 40.1875 42.492188 39.210938 43.625 C 38.226562 44.765625 36.734375 45.335938 34.75 45.335938 C 34.046875 45.335938 33.53125 45.28125 33.164062 45.210938 L 33.164062 43.25 C 33.617188 43.367188 34.085938 43.421875 34.585938 43.421875 C 35.421875 43.421875 36.085938 43.28125 36.625 43.046875 C 37.164062 42.796875 37.585938 42.4375 37.875 41.921875 C 38.164062 41.398438 38.328125 40.664062 38.375 39.75 L 38.25 39.75 C 37.9375 40.257812 37.578125 40.59375 37.164062 40.796875 C 36.757812 41 36.28125 41.125 35.664062 41.125 C 34.640625 41.125 33.804688 40.78125 33.210938 40.125 C 32.617188 39.46875 32.335938 38.585938 32.335938 37.421875 C 32.335938 36.164062 32.703125 35.148438 33.414062 34.421875 C 34.140625 33.6875 35.09375 33.335938 36.335938 33.335938 Z M 27.125 33.460938 L 29.210938 33.460938 L 29.210938 45.164062 L 26.710938 45.164062 L 26.710938 37.296875 L 26.75 36.085938 C 26.335938 36.5 26.039062 36.75 25.875 36.882812 L 24.539062 37.960938 L 23.335938 36.460938 Z M 36.039062 35.335938 C 35.695312 35.40625 35.382812 35.570312 35.164062 35.835938 C 34.875 36.1875 34.75 36.71875 34.75 37.382812 C 34.75 37.945312 34.859375 38.382812 35.125 38.710938 C 35.390625 39.039062 35.796875 39.210938 36.335938 39.210938 C 36.835938 39.210938 37.265625 39.039062 37.625 38.710938 C 37.984375 38.382812 38.164062 38.015625 38.164062 37.585938 C 38.164062 36.953125 38.007812 36.398438 37.664062 35.960938 C 37.335938 35.523438 36.898438 35.335938 36.375 35.335938 C 36.242188 35.335938 36.15625 35.3125 36.039062 35.335938 Z M 36.039062 35.335938 "/>
</g>
</svg>
