<svg width="24" xmlns="http://www.w3.org/2000/svg" height="24" viewBox="0 0 24 24" xmlns:xlink="http://www.w3.org/1999/xlink">
<path style="fill:#fff;stroke:#777;stroke-width:.5" d="M 25.930511 35.186401 C 25.930511 42.095309 20.446393 47.69322 13.677926 47.69322 C 6.90946 47.69322 1.425342 42.095309 1.425342 35.186401 C 1.425342 28.277492 6.90946 22.679581 13.677926 22.679581 C 20.446393 22.679581 25.930511 28.277492 25.930511 35.186401 Z " transform="matrix(.7999 0 0 .78363 1.05909 -15.57329)"/>
<g style="fill:#dc322f">
<path d="M 12 16.015625 L 12 17.351562 L 9.871094 18.75 "/>
<path d="M 12 16.015625 L 12 17.351562 L 14.128906 18.75 "/>
<path d="M 6.121094 16.5625 L 6.167969 8.152344 L 17.832031 8.175781 L 17.878906 16.539062 Z "/>
<path d="M 5.761719 7.4375 L 18.238281 7.4375 L 18.238281 8.957031 L 5.761719 8.957031 Z "/>
</g>
</svg>
