<svg width="24" xmlns="http://www.w3.org/2000/svg" height="24" viewBox="0 0 24 24" xmlns:xlink="http://www.w3.org/1999/xlink">
<path style="fill:#fff;stroke:#777;stroke-width:.5" d="M 25.930511 35.186401 C 25.930511 42.095309 20.446393 47.69322 13.677926 47.69322 C 6.90946 47.69322 1.425342 42.095309 1.425342 35.186401 C 1.425342 28.277492 6.90946 22.679581 13.677926 22.679581 C 20.446393 22.679581 25.930511 28.277492 25.930511 35.186401 Z " transform="matrix(.7999 0 0 .78363 1.05909 -15.57329)"/>
<path style="fill:#f2000b" d="M 10.75 4.5 C 10.335938 4.5 10 4.835938 10 5.25 L 10 12.75 C 10 13.164062 10.335938 13.5 10.75 13.5 L 13.25 13.5 C 13.664062 13.5 14 13.164062 14 12.75 L 14 5.25 C 14 4.835938 13.644531 4.632812 13.25 4.5 Z M 10.75 15.5 C 10.335938 15.5 10 15.835938 10 16.25 L 10 18.75 C 10 19.164062 10.355469 19.367188 10.75 19.5 L 13.25 19.5 C 13.664062 19.5 14 19.164062 14 18.75 L 14 16.25 C 14 15.835938 13.664062 15.5 13.25 15.5 Z "/>
</svg>
