<svg width="24" xmlns="http://www.w3.org/2000/svg" height="24" viewBox="0 0 24 24" xmlns:xlink="http://www.w3.org/1999/xlink">
<path style="fill:#fff;stroke:#777;stroke-width:.5" d="M 25.930511 35.186401 C 25.930511 42.095309 20.446393 47.69322 13.677926 47.69322 C 6.90946 47.69322 1.425342 42.095309 1.425342 35.186401 C 1.425342 28.277492 6.90946 22.679581 13.677926 22.679581 C 20.446393 22.679581 25.930511 28.277492 25.930511 35.186401 Z " transform="matrix(.7999 0 0 .78363 1.05909 -15.57329)"/>
<g style="fill:#427fec">
<path d="M 5.683594 7.398438 L 18.316406 7.398438 C 18.695312 7.398438 19 7.726562 19 8.132812 L 19 16.667969 C 19 17.070312 18.695312 17.398438 18.316406 17.398438 L 5.683594 17.398438 C 5.304688 17.398438 5 17.070312 5 16.667969 L 5 8.132812 C 5 7.726562 5.304688 7.398438 5.683594 7.398438 Z "/>
<path d="M 6.851562 6.601562 L 8.847656 6.601562 C 9.125 6.601562 9.347656 6.824219 9.347656 7.101562 C 9.347656 7.378906 9.125 7.601562 8.847656 7.601562 L 6.851562 7.601562 C 6.574219 7.601562 6.347656 7.378906 6.347656 7.101562 C 6.347656 6.824219 6.574219 6.601562 6.851562 6.601562 Z "/>
</g>
<g style="fill:#fff">
<path d="M 16.703125 8.554688 L 17.152344 8.554688 C 17.398438 8.554688 17.601562 8.769531 17.601562 9.03125 L 17.601562 9.507812 C 17.601562 9.773438 17.398438 9.984375 17.152344 9.984375 L 16.703125 9.984375 C 16.453125 9.984375 16.25 9.773438 16.25 9.507812 L 16.25 9.03125 C 16.25 8.769531 16.453125 8.554688 16.703125 8.554688 Z "/>
<path d="M 14.675781 12.605469 C 14.675781 14.316406 13.367188 15.703125 11.75 15.703125 C 10.132812 15.703125 8.824219 14.316406 8.824219 12.605469 C 8.824219 10.894531 10.132812 9.507812 11.75 9.507812 C 13.367188 9.507812 14.675781 10.894531 14.675781 12.605469 Z "/>
</g>
</svg>
