
<svg xmlns="http://www.w3.org/2000/svg" xmlns:xlink="http://www.w3.org/1999/xlink" width="128px" height="128px" viewBox="0 0 128 128" version="1.1">
<g id="surface1">
<path style=" stroke:none;fill-rule:nonzero;fill:rgb(48.627451%,61.176471%,20.784314%);fill-opacity:1;" d="M 21.34375 0 C 18.59375 0 16 2.710938 16 5.578125 L 16 122.421875 C 16 125.132812 18.75 128 21.34375 128 L 106.65625 128 C 109.25 128 112 125.132812 112 122.421875 L 112 36 L 76 0 Z M 21.34375 0 "/>
<path style=" stroke:none;fill-rule:nonzero;fill:rgb(0%,0%,0%);fill-opacity:0.196078;" d="M 84 36 L 112 64 L 112 36 Z M 84 36 "/>
<path style=" stroke:none;fill-rule:nonzero;fill:rgb(100%,100%,100%);fill-opacity:0.392157;" d="M 76 0 L 111.96875 36 L 81.515625 36 C 78.820312 36 76 33.148438 76 30.453125 Z M 76 0 "/>
<path style=" stroke:none;fill-rule:nonzero;fill:rgb(100%,100%,100%);fill-opacity:1;" d="M 64 87.546875 L 45.78125 69.328125 L 64 51.125 L 70.078125 57.1875 L 57.921875 69.328125 L 64 75.40625 L 82.21875 57.1875 L 66.34375 41.328125 C 65.054688 40.039062 62.945312 40.039062 61.65625 41.328125 L 36 66.984375 C 34.695312 68.273438 34.695312 70.382812 36 71.6875 L 61.65625 97.34375 C 62.945312 98.632812 65.054688 98.632812 66.34375 97.34375 L 92 71.6875 C 93.304688 70.382812 93.304688 68.273438 92 66.984375 L 88.28125 63.265625 Z M 64 87.546875 "/>
</g>
</svg>
