
<svg xmlns="http://www.w3.org/2000/svg" xmlns:xlink="http://www.w3.org/1999/xlink" width="128px" height="128px" viewBox="0 0 128 128" version="1.1">
<g id="surface1">
<path style=" stroke:none;fill-rule:nonzero;fill:rgb(20.392157%,40.784314%,80.784314%);fill-opacity:1;" d="M 21.34375 0 C 18.59375 0 16 2.710938 16 5.578125 L 16 122.421875 C 16 125.132812 18.75 128 21.34375 128 L 106.65625 128 C 109.25 128 112 125.132812 112 122.421875 L 112 36 L 76 0 Z M 21.34375 0 "/>
<path style=" stroke:none;fill-rule:nonzero;fill:rgb(0%,0%,0%);fill-opacity:0.196078;" d="M 84 36 L 112 64 L 112 36 Z M 84 36 "/>
<path style=" stroke:none;fill-rule:nonzero;fill:rgb(100%,100%,100%);fill-opacity:0.392157;" d="M 76 0 L 111.96875 36 L 81.515625 36 C 78.820312 36 76 33.148438 76 30.453125 Z M 76 0 "/>
<path style=" stroke:none;fill-rule:evenodd;fill:rgb(97.647059%,97.647059%,97.647059%);fill-opacity:1;" d="M 40 44 L 64 44 L 64 64 L 40 64 Z M 40 44 "/>
<path style=" stroke:none;fill-rule:evenodd;fill:rgb(97.647059%,97.647059%,97.647059%);fill-opacity:1;" d="M 68 44 L 88 44 L 88 48 L 68 48 Z M 68 44 "/>
<path style=" stroke:none;fill-rule:nonzero;fill:rgb(0%,0%,0%);fill-opacity:0.196078;" d="M 16 96 L 16 122.671875 C 16 125.265625 18.75 128 21.328125 128 L 106.671875 128 C 109.25 128 112 125.265625 112 122.671875 L 112 96 Z M 16 96 "/>
<path style=" stroke:none;fill-rule:evenodd;fill:rgb(97.647059%,97.647059%,97.647059%);fill-opacity:1;" d="M 68 52 L 88 52 L 88 56 L 68 56 Z M 68 52 "/>
<path style=" stroke:none;fill-rule:nonzero;fill:rgb(100%,100%,100%);fill-opacity:1;" d="M 40.773438 120.304688 C 40.90625 120.335938 41.054688 120.335938 41.21875 120.335938 C 41.367188 120.335938 41.515625 120.335938 41.648438 120.335938 C 42.765625 120.335938 43.6875 120.15625 44.429688 119.773438 C 45.203125 119.414062 45.8125 118.90625 46.25 118.25 C 46.734375 117.601562 47.0625 116.835938 47.242188 115.960938 C 47.453125 115.054688 47.570312 114.070312 47.570312 113 C 47.570312 112.078125 47.484375 111.171875 47.320312 110.28125 C 47.15625 109.414062 46.898438 108.640625 46.484375 107.96875 C 46.085938 107.289062 45.546875 106.765625 44.875 106.367188 C 44.179688 105.945312 43.289062 105.742188 42.210938 105.742188 C 41.992188 105.742188 41.765625 105.742188 41.484375 105.78125 C 41.21875 105.78125 40.992188 105.796875 40.773438 105.84375 L 40.773438 120.304688 M 52.523438 113 C 52.523438 114.992188 52.226562 116.703125 51.648438 118.117188 C 51.09375 119.515625 50.320312 120.648438 49.3125 121.523438 C 48.3125 122.40625 47.09375 123.046875 45.695312 123.460938 C 44.328125 123.859375 42.796875 124.054688 41.140625 124.054688 C 40.265625 124.054688 39.390625 124.023438 38.554688 123.921875 C 37.734375 123.859375 36.84375 123.726562 35.890625 123.546875 L 35.890625 102.539062 C 37.007812 102.320312 38.046875 102.195312 39.03125 102.125 C 40 102.0625 40.921875 102.007812 41.765625 102.007812 C 43.375 102.007812 44.859375 102.226562 46.171875 102.632812 C 47.523438 103.0625 48.65625 103.71875 49.59375 104.625 C 50.515625 105.5 51.21875 106.648438 51.734375 108.03125 C 52.257812 109.398438 52.523438 111.054688 52.523438 113 "/>
<path style=" stroke:none;fill-rule:nonzero;fill:rgb(100%,100%,100%);fill-opacity:1;" d="M 59.625 113 C 59.625 114.054688 59.65625 115.039062 59.742188 115.960938 C 59.859375 116.867188 60.039062 117.65625 60.304688 118.328125 C 60.601562 119 60.992188 119.53125 61.484375 119.921875 C 61.992188 120.320312 62.671875 120.515625 63.507812 120.515625 C 64.328125 120.515625 64.992188 120.320312 65.5 119.921875 C 66.023438 119.53125 66.421875 119 66.6875 118.328125 C 66.976562 117.625 67.164062 116.835938 67.242188 115.929688 C 67.34375 115.023438 67.40625 114.054688 67.40625 113 C 67.40625 111.960938 67.34375 110.992188 67.242188 110.085938 C 67.164062 109.148438 66.976562 108.359375 66.6875 107.6875 C 66.421875 107.007812 66.039062 106.484375 65.53125 106.09375 C 65.039062 105.695312 64.367188 105.5 63.507812 105.5 C 62.671875 105.5 61.992188 105.695312 61.484375 106.09375 C 60.992188 106.484375 60.601562 107.03125 60.304688 107.71875 C 60.039062 108.390625 59.859375 109.179688 59.742188 110.085938 C 59.664062 110.992188 59.625 111.960938 59.625 113 M 54.65625 113 C 54.65625 109.296875 55.445312 106.5 57.015625 104.625 C 58.578125 102.71875 60.726562 101.78125 63.507812 101.78125 C 66.40625 101.78125 68.59375 102.71875 70.109375 104.625 C 71.601562 106.5 72.359375 109.296875 72.359375 113 C 72.359375 116.71875 71.601562 119.515625 70.054688 121.421875 C 68.523438 123.296875 66.351562 124.234375 63.5625 124.234375 C 60.664062 124.234375 58.460938 123.296875 56.929688 121.421875 C 55.414062 119.515625 54.65625 116.71875 54.65625 113 "/>
<path style=" stroke:none;fill-rule:nonzero;fill:rgb(100%,100%,100%);fill-opacity:1;" d="M 85.171875 124.234375 C 81.71875 124.234375 79.070312 123.265625 77.242188 121.304688 C 75.421875 119.367188 74.5 116.601562 74.5 113 C 74.5 111.226562 74.78125 109.625 75.335938 108.242188 C 75.898438 106.84375 76.671875 105.679688 77.640625 104.726562 C 78.640625 103.757812 79.828125 103.03125 81.179688 102.539062 C 82.539062 102.03125 84.039062 101.78125 85.648438 101.78125 C 86.523438 101.78125 87.3125 101.84375 88 101.976562 C 88.710938 102.09375 89.335938 102.242188 89.859375 102.40625 C 90.390625 102.570312 90.835938 102.734375 91.179688 102.914062 C 91.539062 103.109375 91.820312 103.242188 92 103.34375 L 90.734375 106.75 C 90.125 106.40625 89.382812 106.109375 88.515625 105.875 C 87.671875 105.632812 86.6875 105.5 85.570312 105.5 C 84.8125 105.5 84.054688 105.632812 83.3125 105.875 C 82.609375 106.109375 81.953125 106.515625 81.375 107.09375 C 80.8125 107.65625 80.351562 108.40625 79.976562 109.34375 C 79.632812 110.304688 79.46875 111.484375 79.46875 112.898438 C 79.46875 115.351562 79.945312 117.242188 80.898438 118.5625 C 81.867188 119.859375 83.460938 120.515625 85.648438 120.515625 C 86.914062 120.515625 87.96875 120.382812 88.789062 120.140625 C 89.632812 119.875 90.304688 119.625 90.8125 119.367188 L 92.046875 122.734375 C 91.359375 123.117188 90.421875 123.460938 89.21875 123.773438 C 88.070312 124.085938 86.71875 124.234375 85.171875 124.234375 "/>
<path style=" stroke:none;fill-rule:evenodd;fill:rgb(97.647059%,97.647059%,97.647059%);fill-opacity:1;" d="M 68 60 L 88 60 L 88 64 L 68 64 Z M 68 60 "/>
<path style=" stroke:none;fill-rule:evenodd;fill:rgb(97.647059%,97.647059%,97.647059%);fill-opacity:1;" d="M 40 68 L 88 68 L 88 72 L 40 72 Z M 40 68 "/>
<path style=" stroke:none;fill-rule:evenodd;fill:rgb(97.647059%,97.647059%,97.647059%);fill-opacity:1;" d="M 40 76 L 88 76 L 88 80 L 40 80 Z M 40 76 "/>
<path style=" stroke:none;fill-rule:evenodd;fill:rgb(97.647059%,97.647059%,97.647059%);fill-opacity:1;" d="M 40 84 L 88 84 L 88 88 L 40 88 Z M 40 84 "/>
</g>
</svg>
