
<svg xmlns="http://www.w3.org/2000/svg" xmlns:xlink="http://www.w3.org/1999/xlink" width="128px" height="128px" viewBox="0 0 128 128" version="1.1">
<g id="surface1">
<path style=" stroke:none;fill-rule:nonzero;fill:rgb(20.392157%,40.784314%,80.784314%);fill-opacity:1;" d="M 21.34375 0 C 18.59375 0 16 2.710938 16 5.578125 L 16 122.421875 C 16 125.132812 18.75 128 21.34375 128 L 106.65625 128 C 109.25 128 112 125.132812 112 122.421875 L 112 36 L 76 0 Z M 21.34375 0 "/>
<path style=" stroke:none;fill-rule:nonzero;fill:rgb(0%,0%,0%);fill-opacity:0.196078;" d="M 84 36 L 112 64 L 112 36 Z M 84 36 "/>
<path style=" stroke:none;fill-rule:nonzero;fill:rgb(100%,100%,100%);fill-opacity:0.392157;" d="M 76 0 L 111.96875 36 L 81.515625 36 C 78.820312 36 76 33.148438 76 30.453125 Z M 76 0 "/>
<path style=" stroke:none;fill-rule:evenodd;fill:rgb(97.647059%,97.647059%,97.647059%);fill-opacity:1;" d="M 40 44 L 64 44 L 64 64 L 40 64 Z M 40 44 "/>
<path style=" stroke:none;fill-rule:evenodd;fill:rgb(97.647059%,97.647059%,97.647059%);fill-opacity:1;" d="M 68 44 L 88 44 L 88 48 L 68 48 Z M 68 44 "/>
<path style=" stroke:none;fill-rule:nonzero;fill:rgb(0%,0%,0%);fill-opacity:0.196078;" d="M 16 96 L 16 122.671875 C 16 125.265625 18.75 128 21.328125 128 L 106.671875 128 C 109.25 128 112 125.265625 112 122.671875 L 112 96 Z M 16 96 "/>
<path style=" stroke:none;fill-rule:evenodd;fill:rgb(97.647059%,97.647059%,97.647059%);fill-opacity:1;" d="M 68 52 L 88 52 L 88 56 L 68 56 Z M 68 52 "/>
<path style=" stroke:none;fill-rule:evenodd;fill:rgb(97.647059%,97.647059%,97.647059%);fill-opacity:1;" d="M 68 60 L 88 60 L 88 64 L 68 64 Z M 68 60 "/>
<path style=" stroke:none;fill-rule:nonzero;fill:rgb(100%,100%,100%);fill-opacity:1;" d="M 40.640625 113.1875 C 40.640625 114.242188 40.671875 115.234375 40.757812 116.15625 C 40.851562 117.0625 41.03125 117.851562 41.296875 118.523438 C 41.578125 119.203125 41.976562 119.726562 42.46875 120.125 C 42.960938 120.515625 43.617188 120.71875 44.445312 120.71875 C 45.25 120.71875 45.890625 120.515625 46.382812 120.125 C 46.898438 119.726562 47.289062 119.203125 47.554688 118.523438 C 47.835938 117.820312 48.015625 117.023438 48.101562 116.125 C 48.195312 115.21875 48.25 114.242188 48.25 113.1875 C 48.25 112.15625 48.195312 111.179688 48.101562 110.273438 C 48.015625 109.335938 47.835938 108.546875 47.554688 107.875 C 47.289062 107.195312 46.914062 106.671875 46.421875 106.273438 C 45.921875 105.882812 45.265625 105.679688 44.445312 105.679688 C 43.617188 105.679688 42.960938 105.882812 42.46875 106.273438 C 41.976562 106.671875 41.578125 107.210938 41.296875 107.90625 C 41.03125 108.578125 40.851562 109.367188 40.757812 110.273438 C 40.671875 111.179688 40.640625 112.15625 40.640625 113.1875 M 35.78125 113.1875 C 35.78125 109.484375 36.554688 106.6875 38.070312 104.8125 C 39.601562 102.898438 41.726562 101.960938 44.445312 101.960938 C 47.257812 101.960938 49.414062 102.898438 50.882812 104.8125 C 52.367188 106.6875 53.101562 109.484375 53.101562 113.1875 C 53.101562 116.914062 52.34375 119.710938 50.851562 121.625 C 49.351562 123.5 47.226562 124.4375 44.476562 124.4375 C 41.65625 124.4375 39.5 123.5 38.007812 121.625 C 36.523438 119.710938 35.78125 116.914062 35.78125 113.1875 "/>
<path style=" stroke:none;fill-rule:nonzero;fill:rgb(100%,100%,100%);fill-opacity:1;" d="M 61.023438 120.5 C 61.140625 120.53125 61.289062 120.53125 61.4375 120.53125 C 61.601562 120.53125 61.75 120.53125 61.867188 120.53125 C 62.953125 120.53125 63.859375 120.351562 64.585938 119.976562 C 65.335938 119.609375 65.929688 119.101562 66.375 118.445312 C 66.835938 117.804688 67.164062 117.023438 67.351562 116.15625 C 67.546875 115.25 67.664062 114.257812 67.664062 113.1875 C 67.664062 112.265625 67.578125 111.359375 67.414062 110.476562 C 67.265625 109.601562 67 108.828125 66.609375 108.148438 C 66.210938 107.476562 65.6875 106.953125 65.007812 106.554688 C 64.335938 106.125 63.476562 105.929688 62.40625 105.929688 C 62.210938 105.929688 61.984375 105.929688 61.71875 105.960938 C 61.453125 105.960938 61.226562 105.976562 61.023438 106.023438 L 61.023438 120.5 M 72.5 113.1875 C 72.5 115.179688 72.226562 116.898438 71.648438 118.3125 C 71.101562 119.710938 70.34375 120.84375 69.359375 121.71875 C 68.382812 122.609375 67.203125 123.25 65.835938 123.664062 C 64.484375 124.0625 63 124.257812 61.375 124.257812 C 60.515625 124.257812 59.671875 124.226562 58.851562 124.125 C 58.046875 124.0625 57.171875 123.929688 56.25 123.742188 L 56.25 102.71875 C 57.335938 102.5 58.359375 102.375 59.3125 102.304688 C 60.265625 102.242188 61.15625 102.1875 61.984375 102.1875 C 63.5625 102.1875 65.007812 102.40625 66.296875 102.8125 C 67.609375 103.242188 68.734375 103.90625 69.640625 104.804688 C 70.546875 105.679688 71.234375 106.835938 71.726562 108.21875 C 72.257812 109.585938 72.5 111.25 72.5 113.1875 "/>
<path style=" stroke:none;fill-rule:nonzero;fill:rgb(100%,100%,100%);fill-opacity:1;" d="M 92 102.4375 L 92 105.992188 L 85.664062 105.992188 L 85.664062 123.976562 L 80.851562 123.976562 L 80.851562 105.992188 L 74.53125 105.992188 L 74.53125 102.4375 L 92 102.4375 "/>
<path style=" stroke:none;fill-rule:evenodd;fill:rgb(97.647059%,97.647059%,97.647059%);fill-opacity:1;" d="M 40 68 L 88 68 L 88 72 L 40 72 Z M 40 68 "/>
<path style=" stroke:none;fill-rule:evenodd;fill:rgb(97.647059%,97.647059%,97.647059%);fill-opacity:1;" d="M 40 76 L 88 76 L 88 80 L 40 80 Z M 40 76 "/>
<path style=" stroke:none;fill-rule:evenodd;fill:rgb(97.647059%,97.647059%,97.647059%);fill-opacity:1;" d="M 40 84 L 88 84 L 88 88 L 40 88 Z M 40 84 "/>
</g>
</svg>
