
<svg xmlns="http://www.w3.org/2000/svg" xmlns:xlink="http://www.w3.org/1999/xlink" width="128px" height="128px" viewBox="0 0 128 128" version="1.1">
<g id="surface1">
<path style=" stroke:none;fill-rule:nonzero;fill:rgb(87.45098%,9.411765%,9.411765%);fill-opacity:1;" d="M 21.34375 0 C 18.59375 0 16 2.710938 16 5.578125 L 16 122.421875 C 16 125.132812 18.75 128 21.34375 128 L 106.65625 128 C 109.25 128 112 125.132812 112 122.421875 L 112 36 L 76 0 Z M 21.34375 0 "/>
<path style=" stroke:none;fill-rule:nonzero;fill:rgb(0%,0%,0%);fill-opacity:0.196078;" d="M 84 36 L 112 64 L 112 36 Z M 84 36 "/>
<path style=" stroke:none;fill-rule:nonzero;fill:rgb(100%,100%,100%);fill-opacity:0.392157;" d="M 76 0 L 111.96875 36 L 81.515625 36 C 78.820312 36 76 33.148438 76 30.453125 Z M 76 0 "/>
<path style=" stroke:none;fill-rule:nonzero;fill:rgb(100%,100%,100%);fill-opacity:1;" d="M 62.75 42.703125 C 62.75 42.703125 64.59375 59.6875 51.578125 82.125 C 38.5625 104.546875 34.734375 101.53125 33.375 100.765625 C 32 99.984375 30.234375 97.453125 36.015625 92.40625 C 41.78125 87.359375 44.03125 87.453125 44.03125 87.453125 C 44.03125 87.453125 38.75 90.65625 36.703125 93.765625 C 34.640625 96.875 32.984375 98.8125 33.46875 99.6875 C 33.953125 100.5625 39.859375 96.109375 42.296875 92.328125 C 46.1875 86.3125 53.53125 75.125 56.953125 64.453125 C 60.375 53.765625 62.75 42.703125 62.75 42.703125 Z M 62.75 42.703125 "/>
<path style=" stroke:none;fill-rule:nonzero;fill:rgb(100%,100%,100%);fill-opacity:1;" d="M 94.828125 82.015625 C 94.828125 82.015625 94.53125 82.796875 91.109375 82.515625 C 87.6875 82.21875 74.375 78.046875 67.234375 69.5 C 60.09375 60.953125 59.5 49.203125 59.015625 43.09375 C 58.515625 36.984375 61.234375 38.6875 61.625 39.453125 C 62.234375 39.96875 62.53125 41.640625 62.53125 41.640625 C 62.53125 41.640625 62.3125 39.140625 61.234375 38.0625 C 60.15625 37 59.203125 36.984375 58.125 38.828125 C 57.046875 40.671875 56.5625 45.8125 57.4375 50.765625 C 58.328125 55.71875 61.953125 67.078125 66.453125 72.3125 C 70.953125 77.5625 79.953125 82.125 86.609375 83.484375 C 93.265625 84.84375 94.828125 82.03125 94.828125 82.03125 Z M 94.828125 82.015625 "/>
<path style=" stroke:none;fill-rule:nonzero;fill:rgb(100%,100%,100%);fill-opacity:1;" d="M 51.46875 84.25 C 51.46875 84.25 64.390625 80.078125 76.625 78.921875 C 88.859375 77.75 93.078125 79.015625 94.140625 79.890625 C 95.21875 80.765625 95.21875 81.734375 95.21875 81.734375 C 95.21875 81.734375 96.59375 80.375 95.6875 79 C 94.921875 77.5625 93.75 76.390625 84.0625 76.6875 C 74.375 76.96875 73.6875 77.359375 64.78125 79.015625 C 55.875 80.671875 51.46875 84.25 51.46875 84.25 Z M 51.46875 84.25 "/>
</g>
</svg>
