
<svg xmlns="http://www.w3.org/2000/svg" xmlns:xlink="http://www.w3.org/1999/xlink" width="128px" height="128px" viewBox="0 0 128 128" version="1.1">
<g id="surface1">
<path style=" stroke:none;fill-rule:nonzero;fill:rgb(86.27451%,19.607843%,18.431373%);fill-opacity:1;" d="M 21.328125 2.671875 C 18.59375 2.671875 16 5.25 16 8 L 16 120 C 16 122.59375 18.75 125.328125 21.328125 125.328125 L 106.671875 125.328125 C 109.25 125.328125 112 122.59375 112 120 L 112 37.328125 L 77.328125 2.671875 Z M 21.328125 2.671875 "/>
<path style=" stroke:none;fill-rule:nonzero;fill:rgb(0%,0%,0%);fill-opacity:0.196078;" d="M 77.328125 32 L 77.5 32.171875 L 77.921875 32 Z M 82.671875 37.328125 L 112 66.671875 L 112 37.328125 Z M 82.671875 37.328125 "/>
<path style=" stroke:none;fill-rule:nonzero;fill:rgb(100%,100%,100%);fill-opacity:0.392157;" d="M 77.328125 2.671875 L 112 37.328125 L 82.671875 37.328125 C 80.078125 37.328125 77.328125 34.59375 77.328125 32 Z M 77.328125 2.671875 "/>
<path style=" stroke:none;fill-rule:nonzero;fill:rgb(100%,100%,100%);fill-opacity:1;" d="M 41.171875 48.015625 C 40.046875 48.140625 40 48.6875 40 50.6875 L 40 58.6875 L 88 58.6875 L 88 50.6875 C 88 48.015625 88 48.015625 85.328125 48.015625 L 42.671875 48.015625 C 42 48.015625 41.546875 47.984375 41.171875 48.015625 Z M 40 61.34375 L 40 93.328125 C 40 96 40 96 42.671875 96 L 85.328125 96 C 88 96 88 96 88 93.328125 L 88 61.34375 Z M 72.671875 66.671875 C 74.40625 66.671875 75.953125 67.109375 77.25 67.921875 C 78.5625 68.734375 79.546875 69.875 80.25 71.421875 C 80.953125 72.96875 81.328125 74.796875 81.328125 76.921875 C 81.328125 81.53125 80.375 84.984375 78.421875 87.25 C 76.453125 89.53125 73.46875 90.671875 69.5 90.671875 C 68.09375 90.671875 67.0625 90.5625 66.328125 90.421875 L 66.328125 86.5 C 67.234375 86.734375 68.171875 86.84375 69.171875 86.84375 C 70.84375 86.84375 72.171875 86.5625 73.25 86.09375 C 74.328125 85.59375 75.171875 84.875 75.75 83.84375 C 76.328125 82.796875 76.65625 81.328125 76.75 79.5 L 76.5 79.5 C 75.875 80.515625 75.15625 81.1875 74.328125 81.59375 C 73.515625 82 72.5625 82.25 71.328125 82.25 C 69.28125 82.25 67.609375 81.5625 66.421875 80.25 C 65.234375 78.9375 64.671875 77.171875 64.671875 74.84375 C 64.671875 72.328125 65.40625 70.296875 66.828125 68.84375 C 68.28125 67.375 70.1875 66.671875 72.671875 66.671875 Z M 54.25 66.921875 L 58.421875 66.921875 L 58.421875 90.328125 L 53.421875 90.328125 L 53.421875 74.59375 L 53.5 72.171875 C 52.671875 73 52.078125 73.5 51.75 73.765625 L 49.078125 75.921875 L 46.671875 72.921875 Z M 72.078125 70.671875 C 71.390625 70.8125 70.765625 71.140625 70.328125 71.671875 C 69.75 72.375 69.5 73.4375 69.5 74.765625 C 69.5 75.890625 69.71875 76.765625 70.25 77.421875 C 70.78125 78.078125 71.59375 78.421875 72.671875 78.421875 C 73.671875 78.421875 74.53125 78.078125 75.25 77.421875 C 75.96875 76.765625 76.328125 76.03125 76.328125 75.171875 C 76.328125 73.90625 76.015625 72.796875 75.328125 71.921875 C 74.671875 71.046875 73.796875 70.671875 72.75 70.671875 C 72.484375 70.671875 72.3125 70.625 72.078125 70.671875 Z M 72.078125 70.671875 "/>
</g>
</svg>
