<?xml version="1.0" encoding="UTF-8" standalone="no"?>
<!-- Created with Inkscape (http://www.inkscape.org/) -->

<svg
   xmlns:dc="http://purl.org/dc/elements/1.1/"
   xmlns:cc="http://creativecommons.org/ns#"
   xmlns:rdf="http://www.w3.org/1999/02/22-rdf-syntax-ns#"
   xmlns:svg="http://www.w3.org/2000/svg"
   xmlns="http://www.w3.org/2000/svg"
   xmlns:xlink="http://www.w3.org/1999/xlink"
   xmlns:sodipodi="http://sodipodi.sourceforge.net/DTD/sodipodi-0.dtd"
   xmlns:inkscape="http://www.inkscape.org/namespaces/inkscape"
   width="48"
   height="48"
   id="svg2"
   version="1.1"
   inkscape:version="0.48.5 r10040"
   sodipodi:docname="folder-publicshare.svg">
  <defs
     id="defs4">
    <linearGradient
       id="linearGradient3855">
      <stop
         style="stop-color:#000000;stop-opacity:1;"
         offset="0"
         id="stop3857" />
      <stop
         style="stop-color:#000000;stop-opacity:0.29411766;"
         offset="1"
         id="stop3859" />
    </linearGradient>
    <linearGradient
       id="linearGradient3833">
      <stop
         id="stop3835"
         offset="0"
         style="stop-color:#fdfeff;stop-opacity:1;" />
      <stop
         id="stop3837"
         offset="1"
         style="stop-color:#dfe4e4;stop-opacity:1;" />
    </linearGradient>
    <linearGradient
       id="linearGradient3823">
      <stop
         style="stop-color:#49b7ef;stop-opacity:1;"
         offset="0"
         id="stop3825" />
      <stop
         style="stop-color:#1d8de2;stop-opacity:1;"
         offset="1"
         id="stop3827" />
    </linearGradient>
    <linearGradient
       id="linearGradient3956">
      <stop
         style="stop-color:#f8f4e1;stop-opacity:1;"
         offset="0"
         id="stop3958" />
      <stop
         style="stop-color:#eae5c8;stop-opacity:1;"
         offset="1"
         id="stop3960" />
    </linearGradient>
    <linearGradient
       id="linearGradient3915">
      <stop
         style="stop-color:#f8f4e1;stop-opacity:1;"
         offset="0"
         id="stop3917" />
      <stop
         style="stop-color:#ad9e57;stop-opacity:1;"
         offset="1"
         id="stop3919" />
    </linearGradient>
    <linearGradient
       inkscape:collect="always"
       id="linearGradient3861">
      <stop
         style="stop-color:#000000;stop-opacity:1;"
         offset="0"
         id="stop3863" />
      <stop
         style="stop-color:#000000;stop-opacity:0;"
         offset="1"
         id="stop3865" />
    </linearGradient>
    <linearGradient
       id="linearGradient3844">
      <stop
         style="stop-color:#000000;stop-opacity:0.39215687;"
         offset="0"
         id="stop3846" />
      <stop
         style="stop-color:#000000;stop-opacity:0;"
         offset="1"
         id="stop3848" />
    </linearGradient>
    <linearGradient
       id="linearGradient3810">
      <stop
         style="stop-color:#f2c66f;stop-opacity:1;"
         offset="0"
         id="stop3812" />
      <stop
         style="stop-color:#fbd68f;stop-opacity:1;"
         offset="1"
         id="stop3814" />
    </linearGradient>
    <linearGradient
       inkscape:collect="always"
       xlink:href="#linearGradient3810"
       id="linearGradient3816"
       x1="24"
       y1="1046.3622"
       x2="24"
       y2="1014.3622"
       gradientUnits="userSpaceOnUse" />
    <radialGradient
       inkscape:collect="always"
       xlink:href="#linearGradient3844"
       id="radialGradient3850"
       cx="24.075672"
       cy="41.38316"
       fx="24.075672"
       fy="41.38316"
       r="21.075672"
       gradientTransform="matrix(1,0,0,0.11307633,0,36.703704)"
       gradientUnits="userSpaceOnUse" />
    <linearGradient
       inkscape:collect="always"
       xlink:href="#linearGradient3810"
       id="linearGradient3856"
       gradientUnits="userSpaceOnUse"
       x1="24"
       y1="1046.3622"
       x2="24"
       y2="1014.3622"
       gradientTransform="translate(0,-3)" />
    <linearGradient
       inkscape:collect="always"
       xlink:href="#linearGradient3810"
       id="linearGradient3858"
       gradientUnits="userSpaceOnUse"
       x1="24"
       y1="1046.3622"
       x2="24"
       y2="1014.3622"
       gradientTransform="translate(0,-1004.3622)" />
    <linearGradient
       inkscape:collect="always"
       xlink:href="#linearGradient3861"
       id="linearGradient3867"
       x1="1.9952808"
       y1="28.5625"
       x2="46.004719"
       y2="28.5625"
       gradientUnits="userSpaceOnUse" />
    <linearGradient
       inkscape:collect="always"
       xlink:href="#linearGradient3915"
       id="linearGradient3921"
       x1="35"
       y1="8"
       x2="38"
       y2="5"
       gradientUnits="userSpaceOnUse" />
    <linearGradient
       inkscape:collect="always"
       xlink:href="#linearGradient3915"
       id="linearGradient3933"
       gradientUnits="userSpaceOnUse"
       x1="35"
       y1="8"
       x2="38"
       y2="5"
       gradientTransform="matrix(1.0436562,0,0,1.2222222,26.301501,1003.2511)" />
    <linearGradient
       inkscape:collect="always"
       xlink:href="#linearGradient3915"
       id="linearGradient3954"
       x1="35"
       y1="11"
       x2="44"
       y2="5"
       gradientUnits="userSpaceOnUse"
       gradientTransform="translate(22,1004.3622)" />
    <linearGradient
       inkscape:collect="always"
       xlink:href="#linearGradient3823"
       id="linearGradient3829"
       x1="21"
       y1="14"
       x2="20"
       y2="24"
       gradientUnits="userSpaceOnUse" />
    <linearGradient
       inkscape:collect="always"
       xlink:href="#linearGradient3833"
       id="linearGradient3839"
       gradientUnits="userSpaceOnUse"
       x1="21"
       y1="14"
       x2="20"
       y2="26" />
    <linearGradient
       inkscape:collect="always"
       xlink:href="#linearGradient3855"
       id="linearGradient3862"
       x1="22"
       y1="15"
       x2="20"
       y2="30"
       gradientUnits="userSpaceOnUse" />
  </defs>
  <sodipodi:namedview
     id="base"
     pagecolor="#ffffff"
     bordercolor="#666666"
     borderopacity="1.0"
     inkscape:pageopacity="0.0"
     inkscape:pageshadow="2"
     inkscape:zoom="35.255567"
     inkscape:cx="15.111769"
     inkscape:cy="18.212129"
     inkscape:document-units="px"
     inkscape:current-layer="layer1"
     showgrid="true"
     inkscape:window-width="1920"
     inkscape:window-height="1052"
     inkscape:window-x="0"
     inkscape:window-y="28"
     inkscape:window-maximized="1">
    <inkscape:grid
       type="xygrid"
       id="grid2990"
       empspacing="5"
       visible="true"
       enabled="true"
       snapvisiblegridlinesonly="true" />
  </sodipodi:namedview>
  <metadata
     id="metadata7">
    <rdf:RDF>
      <cc:Work
         rdf:about="">
        <dc:format>image/svg+xml</dc:format>
        <dc:type
           rdf:resource="http://purl.org/dc/dcmitype/StillImage" />
        <dc:title></dc:title>
      </cc:Work>
    </rdf:RDF>
  </metadata>
  <g
     inkscape:groupmode="layer"
     id="layer3"
     inkscape:label="Blob"
     sodipodi:insensitive="true">
    <path
       sodipodi:type="arc"
       style="opacity:0.65;fill:url(#radialGradient3850);fill-opacity:1;stroke:none"
       id="path3842"
       sodipodi:cx="24.075672"
       sodipodi:cy="41.38316"
       sodipodi:rx="21.075672"
       sodipodi:ry="2.3831596"
       d="m 45.151344,41.38316 a 21.075672,2.3831596 0 1 1 -42.151344,0 21.075672,2.3831596 0 1 1 42.151344,0 z"
       transform="matrix(1.1387537,0,0,1.0490275,-3.4162611,-1.9120725)" />
  </g>
  <g
     inkscape:label="Body"
     inkscape:groupmode="layer"
     id="layer1"
     transform="translate(0,-1004.3622)">
    <path
       sodipodi:nodetypes="ccccccccc"
       inkscape:connector-curvature="0"
       id="path3029"
       d="m 3,1014.3622 0,28 42,0 0,-14 -2,-12 -16,0 -2,-4 -20,0 c -1,0 -2,1 -2,2 z"
       style="fill:#ef6c00;fill-opacity:1;stroke:none" />
    <rect
       style="fill:#fffdf0;fill-opacity:1;stroke:none"
       id="rect3799"
       width="21"
       height="7.9999828"
       x="6"
       y="1017.3622" />
    <path
       style="fill:#000000;fill-opacity:1;stroke:none;opacity:0.03"
       d="M 5,8 C 4,8 3,9 3,10 l 0,1 C 3,10 4,9 5,9 l 19,0 2,4 17,0 2,12 0,-1 -2,-12 -16,0 -2,-4 z"
       transform="translate(0,1004.3622)"
       id="path3810"
       inkscape:connector-curvature="0"
       sodipodi:nodetypes="sscsccccccccs" />
    <path
       style="fill:#ffa726;fill-opacity:1;stroke:none"
       d="m 45,1018.3622 0,28 -42,0 0,-26 20,0 2,-4 18,0 c 1,0 2,1 2,2 z"
       id="rect2987"
       inkscape:connector-curvature="0"
       sodipodi:nodetypes="cccccccc" />
    <path
       sodipodi:nodetypes="ccccc"
       id="path3794"
       d="m 3,1045.3622 0,1 42,0 0,-1 z"
       style="opacity:0.15;fill:#000000;fill-opacity:1;stroke:none"
       inkscape:connector-curvature="0" />
    <path
       style="fill:none;stroke:none;stroke-width:1px;stroke-linecap:butt;stroke-linejoin:miter;stroke-opacity:1;fill-opacity:1"
       d="m 25,13 -5,3 3,0 z"
       id="path3801"
       inkscape:connector-curvature="0"
       transform="translate(0,1004.3622)" />
    <path
       style="opacity:0.03;fill:#000000;fill-opacity:1;stroke:none"
       d="m 25,12 -2,4 -20,0 0,1 21,0 2,-4 17,0 c 1,0 2,1 2,2 l 0,-1 c 0,-1 -1,-2 -2,-2 z"
       transform="translate(0,1004.3622)"
       id="path3805"
       inkscape:connector-curvature="0"
       sodipodi:nodetypes="ccccccscssc" />
    <path
       id="path4054"
       d="m 26.125,1026.0189 c -1.592438,0 -2.90625,1.2076 -2.90625,2.7187 0.01176,0.5185 0.04058,1.1753 0.34375,2.5625 l 0.03125,0 c 0.06117,0.1835 0.155174,0.366 0.3125,0.5625 0.140811,0.176 0.327515,0.3765 0.5,0.5625 0.053,0.3921 0.06121,0.7349 0,1.1563 -0.472852,0.3591 -1.325539,0.6941 -2.09375,1 -0.400349,0.1594 -0.770465,0.3068 -1.0625,0.5 -0.278615,0.1843 -0.480486,0.4352 -0.5,0.75 -9.4e-4,0.015 -0.03132,0.016 -0.03125,0.031 l -0.34375,2.6563 0,0.031 c 0,0.3292 0.219343,0.5985 0.53125,0.8125 0.311908,0.2141 0.735265,0.3819 1.25,0.5313 1.029471,0.2988 2.425944,0.4687 3.96875,0.4687 1.542807,0 2.939279,-0.1699 3.96875,-0.4687 0.514736,-0.1494 0.938093,-0.3172 1.25,-0.5313 0.311907,-0.214 0.53125,-0.4833 0.53125,-0.8125 l 0,-0.031 -0.375,-2.6563 c -5.7e-5,-0.01 6.31e-4,-0.021 0,-0.031 -0.0093,-0.1504 -0.06356,-0.2982 -0.15625,-0.4063 -0.09896,-0.1155 -0.229531,-0.1904 -0.375,-0.2812 -0.290938,-0.1817 -0.662015,-0.335 -1.0625,-0.5 -0.777822,-0.3204 -1.628969,-0.6828 -2.09375,-1.0625 -0.03487,-0.3625 -0.03654,-0.7315 0,-1.0938 0.167784,-0.1984 0.356508,-0.4031 0.5,-0.5937 0.159783,-0.2123 0.280725,-0.4048 0.34375,-0.5938 0.341838,-1.4445 0.357008,-2.0339 0.375,-2.5625 0,-1.5111 -1.31381,-2.7187 -2.90625,-2.7187 z m -5.40625,0.5 c -1.307972,0 -2.375,1.01 -2.375,2.25 0.0096,0.4249 0.03248,0.9242 0.28125,2.0625 l 0,0.031 c 0.05068,0.1521 0.150196,0.2741 0.28125,0.4375 0.114736,0.1429 0.267554,0.319 0.40625,0.4688 0.04197,0.3142 0.0474,0.6317 0,0.9687 -0.386317,0.2964 -1.086099,0.5624 -1.71875,0.8125 -0.32795,0.1296 -0.604409,0.2486 -0.84375,0.4063 -0.22619,0.149 -0.387141,0.3705 -0.40625,0.625 -0.0011,0.015 -0.03132,0.016 -0.03125,0.031 l -0.3125,2.1563 0,0.031 c 0,0.203 0.097,0.3782 0.25,0.5313 0.152996,0.1531 0.365379,0.2933 0.625,0.4062 0.512057,0.2228 1.241906,0.3777 2.125,0.4688 l 0.03125,0 c 0.048,10e-5 0.09579,-0.013 0.125,-0.031 0.03617,-0.023 0.07835,-0.041 0.09375,-0.062 0.03081,-0.043 0.04923,-0.086 0.0625,-0.125 0.02328,-0.068 0.02803,-0.1491 0.03125,-0.2187 4.51e-4,-0.01 0,-0.021 0,-0.031 l 0.34375,-2.6562 c -4.82e-4,-0.1087 0.07478,-0.2392 0.25,-0.375 0.175219,-0.1359 0.440497,-0.2722 0.75,-0.4063 0.619006,-0.2683 1.403722,-0.5174 2.03125,-0.8437 l 0.34375,-0.1875 -0.34375,-0.1563 c -0.247975,-0.1204 -0.437647,-0.2526 -0.59375,-0.375 -0.0303,-0.3085 -0.03215,-0.63 0,-0.9375 0.0011,-0.01 -0.0011,-0.021 0,-0.031 0.238289,-0.3209 0.419608,-0.6539 0.5,-0.8438 l 0.03125,-0.062 -0.03125,-0.062 c -0.02713,-0.1552 -0.01815,-0.2731 -0.0625,-0.4062 -0.299552,-1.3707 -0.332372,-1.936 -0.34375,-2.4375 0,-0.2108 0.04947,-0.4563 0.125,-0.6875 l 0.0625,-0.125 -0.125,-0.062 c -0.417309,-0.3335 -0.969731,-0.5625 -1.5625,-0.5625 z"
       style="line-height:normal;opacity:1.0;color:#000000;fill:#b17621;fill-opacity:1"
       inkscape:connector-curvature="0" />
  </g>
</svg>
