<svg width="256" xmlns="http://www.w3.org/2000/svg" height="256" viewBox="0 0 256 256" xmlns:xlink="http://www.w3.org/1999/xlink">
<path style="fill:#dc322f;fill-rule:evenodd" d="M 256 128.195312 C 256.007812 198.890625 198.699219 256.210938 128 256.210938 C 57.300781 256.210938 -0.0078125 198.890625 0 128.195312 C -0.0078125 57.496094 57.300781 0.179688 128 0.179688 C 198.699219 0.179688 256.007812 57.496094 256 128.195312 Z "/>
<g style="fill:#fff;fill-opacity:.902">
<path d="M 143.996094 32.386719 L 111.992188 32.386719 L 111.992188 128.390625 L 143.996094 128.390625 Z "/>
<path style="fill-rule:evenodd" d="M 96 37.5 C 58.703125 50.671875 32 86.191406 32 128 C 32 181.019531 74.980469 224 128 224 C 181.019531 224 224 181.019531 224 128 C 224 86.191406 197.296875 50.671875 160 37.5 L 160 73 C 179.101562 84.074219 192 104.332031 192 128 C 192 163.347656 163.347656 192 128 192 C 92.652344 192 64 163.347656 64 128 C 64 104.332031 76.898438 84.074219 96 73 Z "/>
</g>
</svg>
