<svg width="256" xmlns="http://www.w3.org/2000/svg" height="256" viewBox="0 0 256 256" xmlns:xlink="http://www.w3.org/1999/xlink">
<path style="fill:#dc322f;fill-rule:evenodd" d="M 73.5 63 C 70.757812 62.980469 67.585938 63.390625 64 64 C 63.300781 69.003906 63.566406 73.214844 64 77 C 64.03125 78.210938 63.855469 79.351562 64 80.5 C 64.46875 84.195312 65.832031 87.808594 68.5 91 C 69.390625 92.0625 70.246094 92.980469 71.5 94 C 76.957031 99.875 82.796875 105.371094 88.5 111 L 105.5 128 C 99.769531 133.605469 94.203125 139.371094 88.5 145 C 82.835938 150.667969 77.042969 156.207031 71.5 162 C 70.316406 162.851562 69.367188 164.039062 68.5 165 C 67.480469 166.132812 66.648438 167.242188 66 168.5 C 64.800781 170.828125 64.304688 173.378906 64 176 C 63.808594 177.640625 63.492188 179.300781 63.5 181 C 63.457031 181.789062 63.488281 182.652344 63.5 183.5 C 63.605469 186.402344 63.953125 189.167969 64 192 C 66.871094 192.402344 69.570312 192.460938 72 192.5 C 72.453125 192.507812 73.058594 192.507812 73.5 192.5 C 74.628906 192.484375 75.449219 192.105469 76.5 192 C 76.671875 191.984375 76.832031 192.019531 77 192 C 82.136719 191.824219 86.988281 191.109375 91 187.5 C 92.0625 186.609375 92.980469 185.753906 94 184.5 L 128 150.5 L 162 184.5 C 162.851562 185.683594 164.039062 186.632812 165 187.5 C 166.132812 188.519531 167.242188 189.351562 168.5 190 C 170.726562 191.171875 173.035156 191.6875 175.5 192 C 178.269531 192.367188 181.097656 192.617188 184 192.5 C 186.429688 192.460938 189.125 192.402344 192 192 C 192.894531 186.738281 192.957031 182.625 192.5 179 C 192.453125 177.617188 192.207031 176.335938 192 175 C 191.253906 170.1875 189.292969 165.449219 184.5 162 C 179.042969 156.125 173.203125 150.628906 167.5 145 L 150.5 128 L 184.5 94 C 185.753906 92.980469 186.609375 92.0625 187.5 91 C 188.492188 89.851562 189.367188 88.703125 190 87.5 C 191.09375 85.421875 191.667969 83.285156 192 81 C 192.039062 80.84375 191.964844 80.65625 192 80.5 C 193.082031 75.859375 192.921875 70.597656 192 64 C 186.738281 63.105469 182.625 63.042969 179 63.5 C 177.707031 63.6875 176.1875 63.640625 175 64 C 174.503906 64.140625 173.984375 64.332031 173.5 64.5 C 169.246094 65.410156 165.101562 67.191406 162 71.5 C 156.125 76.957031 150.628906 82.796875 145 88.5 C 139.371094 94.203125 133.605469 99.769531 128 105.5 C 122.550781 99.777344 117.082031 94.082031 111.5 88.5 C 111.417969 88.417969 111.082031 88.582031 111 88.5 C 105.371094 82.796875 99.875 76.957031 94 71.5 C 93.148438 70.316406 91.960938 69.367188 91 68.5 C 90.332031 67.898438 89.710938 67.464844 89 67 C 88.621094 66.753906 88.390625 66.214844 88 66 C 87.851562 65.921875 87.648438 66.074219 87.5 66 C 85.460938 64.949219 83.269531 64.339844 81 64 C 80.691406 63.960938 80.3125 64.03125 80 64 C 78 63.515625 75.882812 63.019531 73.5 63 Z "/>
</svg>
