<svg width="256" xmlns="http://www.w3.org/2000/svg" height="256" viewBox="0 0 256 256" xmlns:xlink="http://www.w3.org/1999/xlink">
<path style="fill:#fff;fill-rule:evenodd" d="M 59.429688 0 L 196.570312 0 C 224 0 224 0 224 28.445312 L 224 227.554688 C 224 256 224 256 196.570312 256 L 59.429688 256 C 32 256 32 256 32 227.554688 L 32 28.445312 C 32 0 32 0 59.429688 0 Z "/>
<path style="fill:#859900" d="M 256 160 L 208 160 L 208 112 L 160 112 L 160 160 L 112 160 L 112 208 L 160 208 L 160 256 L 208 256 L 208 208 L 256 208 Z "/>
</svg>
