<svg width="256" xmlns="http://www.w3.org/2000/svg" height="256" viewBox="0 0 256 256" xmlns:xlink="http://www.w3.org/1999/xlink">
<path style="fill:#268bd2;fill-rule:evenodd" d="M 65.777344 0 L 190.222656 0 C 227.554688 0 240 12.800781 240 51.199219 L 240 204.800781 C 240 243.199219 227.554688 256 190.222656 256 L 65.777344 256 C 28.445312 256 16 243.199219 16 204.800781 L 16 51.199219 C 16 12.800781 28.445312 0 65.777344 0 Z "/>
<g style="fill:#fff">
<path style="fill-rule:evenodd;fill-opacity:.302" d="M 65.777344 0 L 190.222656 0 C 227.554688 0 240 12.800781 240 51.199219 L 240 153.601562 C 240 192 227.554688 204.800781 190.222656 204.800781 L 65.777344 204.800781 C 28.445312 204.800781 16 192 16 153.601562 L 16 51.199219 C 16 12.800781 28.445312 0 65.777344 0 Z "/>
<path style="fill-opacity:.902" d="M 200 112 L 128 192 L 56 112 L 96 112 L 96 32 L 160 32 L 160 112 Z "/>
</g>
</svg>
