<svg width="256" xmlns="http://www.w3.org/2000/svg" height="256" viewBox="0 0 256 256" xmlns:xlink="http://www.w3.org/1999/xlink">
<g style="fill-rule:evenodd">
<path style="fill:#aaa;fill-opacity:.941" d="M 74.667969 0.0625 L 181.332031 0.0625 C 208 0.0625 208 -2.601562 208 26.71875 L 208 133.34375 C 208 160 208 160 181.332031 160 L 74.667969 160 C 48 160 48 160 48 133.34375 L 48 26.71875 C 48 0.0625 48 0.0625 74.667969 0.0625 Z "/>
<path style="fill:#ccc" d="M 25.601562 64 L 230.398438 64 C 256 64 256 64 256 89.601562 L 256 166.398438 C 256 192 256 192 230.398438 192 L 25.601562 192 C 0 192 0 192 0 166.398438 L 0 89.601562 C 0 64 0 64 25.601562 64 Z "/>
</g>
<path style="fill:#dc322f" d="M 48 128 L 208 128 L 208 256 L 48 256 Z "/>
<g style="fill-rule:evenodd">
<path style="fill:#fff" d="M 208 128 C 208 172.183594 172.183594 208 128 208 C 83.816406 208 48 172.183594 48 128 C 48 83.816406 83.816406 48 128 48 C 172.183594 48 208 83.816406 208 128 Z "/>
<path style="fill:#555" d="M 181.332031 128.007812 C 181.332031 157.460938 157.453125 181.339844 128 181.339844 C 98.546875 181.339844 74.667969 157.460938 74.667969 128.007812 C 74.667969 98.550781 98.546875 74.671875 128 74.671875 C 157.453125 74.671875 181.332031 98.550781 181.332031 128.007812 Z "/>
<path style="fill:#eee" d="M 167.992188 108 C 167.992188 119.046875 159.039062 128.003906 147.996094 128.003906 C 136.953125 128.003906 128 119.046875 128 108 C 128 96.953125 136.953125 88 147.996094 88 C 159.039062 88 167.992188 96.953125 167.992188 108 Z "/>
</g>
</svg>
