<svg width="256" xmlns="http://www.w3.org/2000/svg" height="256" viewBox="0 0 256 256" xmlns:xlink="http://www.w3.org/1999/xlink">
<g style="fill-rule:evenodd">
<path style="fill:#fff" d="M 27.429688 0 L 164.570312 0 C 192 0 192 0 192 28.445312 L 192 227.554688 C 192 256 192 256 164.570312 256 L 27.429688 256 C 0 256 0 256 0 227.554688 L 0 28.445312 C 0 0 0 0 27.429688 0 Z "/>
<path style="fill:#268bd2" d="M 150.003906 214 C 152.253906 214 155.503906 212 159.503906 208 L 239.503906 144 C 255.566406 127.941406 255.503906 128 239.503906 112 L 159.503906 48 C 147.503906 36 144.253906 42 143.503906 66 C 143.253906 74 143.503906 84 143.503906 96 C 143.335938 96 143.175781 96 143.003906 96 C 63.503906 96 31.503906 144 32.003906 208.5 C 63.503906 176 95.503906 160 143.503906 161 C 143.492188 172.472656 143.265625 182.265625 143.503906 190 C 144.003906 206 145.503906 214 150.003906 214 Z "/>
</g>
</svg>
