<svg width="256" xmlns="http://www.w3.org/2000/svg" height="256" viewBox="0 0 256 256" xmlns:xlink="http://www.w3.org/1999/xlink">
<g style="fill-rule:evenodd">
<path style="fill:#2aa198" d="M 106.03125 0 C 47.449219 0 0 47.410156 0 106.03125 C 0 164.613281 47.449219 212.0625 106.03125 212.0625 C 122.199219 212.0625 137.394531 208.484375 151.175781 202.121094 L 190.9375 241.882812 C 209.628906 260.703125 209.808594 260.703125 228.628906 241.882812 C 247.316406 223.195312 247.316406 223.015625 228.628906 204.191406 L 192.183594 167.746094 C 204.640625 150.25 212.0625 129.09375 212.0625 106.03125 C 212.0625 47.410156 164.613281 0 106.03125 0 Z M 104.375 53.015625 C 118.722656 52.566406 132.636719 57.953125 142.941406 67.945312 C 153.246094 77.9375 159.058594 91.679688 159.046875 106.03125 C 159.046875 135.304688 135.3125 159.035156 106.03125 159.035156 C 76.75 159.035156 53.015625 135.304688 53.015625 106.03125 C 52.996094 77.386719 75.738281 53.910156 104.375 53.015625 Z "/>
<path style="fill:#fff" d="M 53.015625 106.011719 C 53.015625 135.285156 76.75 159.015625 106.03125 159.015625 C 135.3125 159.015625 159.046875 135.285156 159.046875 106.011719 C 159.046875 76.738281 135.3125 53.007812 106.03125 53.007812 C 76.75 53.007812 53.015625 76.738281 53.015625 106.011719 Z "/>
<path style="fill:#2aa198;fill-opacity:.102" d="M 53.015625 106.011719 C 53.015625 135.285156 76.75 159.015625 106.03125 159.015625 C 135.3125 159.015625 159.046875 135.285156 159.046875 106.011719 C 159.046875 76.738281 135.3125 53.007812 106.03125 53.007812 C 76.75 53.007812 53.015625 76.738281 53.015625 106.011719 Z "/>
</g>
</svg>
