<svg width="256" xmlns="http://www.w3.org/2000/svg" height="256" viewBox="0 0 256 256" xmlns:xlink="http://www.w3.org/1999/xlink">
<path style="fill:#e9b080;fill-rule:evenodd" d="M 40.890625 32.058594 L 215.109375 32.058594 C 240 32.058594 240 29.570312 240 56.941406 L 240 231.117188 C 240 256 240 256 215.109375 256 L 40.890625 256 C 16 256 16 256 16 231.117188 L 16 56.941406 C 16 32.058594 16 32.058594 40.890625 32.058594 Z "/>
<path style="fill:#fff" d="M 208 32 L 48 32 L 48 192 L 208 192 Z "/>
<path style="fill:#aaa" d="M 78.222656 0 L 78.222656 48 L 174.222656 48 L 174.222656 0 Z "/>
<g style="fill:#888">
<path d="M 78.222656 80 L 78.222656 96 L 174.222656 96 L 174.222656 80 Z "/>
<path d="M 78.222656 128 L 78.222656 144 L 174.222656 144 L 174.222656 128 Z "/>
</g>
</svg>
