<svg width="256" xmlns="http://www.w3.org/2000/svg" height="256" viewBox="0 0 256 256" xmlns:xlink="http://www.w3.org/1999/xlink">
<g style="fill-rule:evenodd">
<path style="fill:#aaa" d="M 29.332031 0.0117188 L 146.667969 0 C 176 0 176 0 176 24 L 176 168 C 176 192 176 192 146.667969 192 L 29.332031 192 C 0 192 0 192 0 168 L 0 24.011719 C 0 0.0117188 0 0.0117188 29.332031 0.0117188 Z "/>
<path style="fill:#fff" d="M 109.332031 64 L 226.667969 64 C 256 64 256 64 256 88 L 256 232 C 256 256 256 256 226.667969 256 L 109.332031 256 C 80 256 80 256 80 232 L 80 88 C 80 64 80 64 109.332031 64 Z "/>
</g>
<g style="fill:#888">
<path d="M 112 96 L 112 112 L 224 112 L 224 96 Z "/>
<path d="M 112 192 L 112 208 L 176 208 L 176 192 Z "/>
<path d="M 112 144 L 112 160 L 224 160 L 224 144 Z "/>
</g>
</svg>
