<svg width="256" xmlns="http://www.w3.org/2000/svg" height="256" viewBox="0 0 256 256" xmlns:xlink="http://www.w3.org/1999/xlink">
<path style="fill:#aaa" d="M 25.601562 0 C 25.601562 140.800781 89.601562 115.199219 163.585938 174.847656 C 157.3125 183.296875 153.601562 193.40625 153.601562 204.800781 C 153.601562 233.089844 176.511719 256 204.800781 256 C 233.089844 256 256 233.089844 256 204.800781 C 256 200.191406 254.71875 195.839844 253.953125 191.617188 L 256 192 L 253.183594 188.414062 C 249.34375 177.152344 241.535156 167.9375 231.550781 161.535156 Z M 204.800781 179.199219 C 218.878906 179.199219 230.398438 190.71875 230.398438 204.800781 C 230.398438 218.878906 218.878906 230.398438 204.800781 230.398438 C 190.71875 230.398438 179.199219 218.878906 179.199219 204.800781 C 179.199219 190.71875 190.71875 179.199219 204.800781 179.199219 Z "/>
<path style="fill:#ccc" d="M 230.398438 0 C 230.398438 140.800781 166.398438 115.199219 92.414062 174.847656 C 98.6875 183.296875 102.398438 193.40625 102.398438 204.800781 C 102.398438 233.089844 79.488281 256 51.199219 256 C 22.910156 256 0 233.089844 0 204.800781 C 0 200.191406 0.894531 195.839844 2.046875 191.617188 L 0 192 L 2.816406 188.414062 C 6.65625 177.152344 14.464844 167.9375 24.449219 161.535156 Z M 51.199219 179.199219 C 37.121094 179.199219 25.601562 190.71875 25.601562 204.800781 C 25.601562 218.878906 37.121094 230.398438 51.199219 230.398438 C 65.28125 230.398438 76.800781 218.878906 76.800781 204.800781 C 76.800781 190.71875 65.28125 179.199219 51.199219 179.199219 Z "/>
</svg>
