<svg width="256" xmlns="http://www.w3.org/2000/svg" height="256" viewBox="0 0 256 256" xmlns:xlink="http://www.w3.org/1999/xlink">
<path style="fill:#268bd2" d="M 71.996094 48 L 71.996094 80 L 167.996094 80 C 174.847656 80 177.5 84.277344 175.496094 91.5 L 169.996094 112 L 85.996094 112 C 56.582031 112 35.996094 133.636719 29.996094 156 C 26.996094 167.179688 27.402344 179.660156 33.996094 190.5 C 40.59375 201.339844 53.964844 208 68.496094 208 L 176.496094 208 L 179.996094 196.5 L 206.496094 100.5 C 213.453125 75.398438 194.878906 48 167.996094 48 Z M 85.996094 144 L 160.996094 144 L 151.996094 176 L 68.496094 176 C 62.132812 176 61.703125 174.660156 60.996094 173.5 C 60.289062 172.339844 59.703125 168.820312 60.996094 164 C 63.582031 154.363281 72.480469 144 85.996094 144 Z "/>
</svg>
