<svg width="256" xmlns="http://www.w3.org/2000/svg" height="256" viewBox="0 0 256 256" xmlns:xlink="http://www.w3.org/1999/xlink">
<g style="fill:#268bd2">
<path d="M 63.996094 32 L 63.996094 64 L 159.996094 64 C 166.847656 64 175.996094 73.828125 175.996094 80 L 175.996094 96 L 95.996094 96 C 81.289062 96 68.226562 102.144531 59.996094 111.5 C 51.765625 120.855469 47.894531 132.46875 47.996094 144 C 48.09375 155.53125 52.300781 167.242188 60.496094 176.5 C 68.695312 185.757812 81.464844 192 95.996094 192 L 207.996094 192 L 207.996094 80 C 207.996094 53.851562 186.878906 32 159.996094 32 Z M 95.996094 128 L 175.996094 128 L 175.996094 160 L 95.996094 160 C 89.632812 160 86.925781 158.242188 84.496094 155.5 C 82.066406 152.757812 80.035156 148.46875 79.996094 144 C 79.964844 139.53125 81.671875 135.144531 83.996094 132.5 C 86.320312 129.855469 89.238281 128 95.996094 128 Z "/>
<path d="M 31.996094 208 L 31.996094 240 L 223.996094 240 L 223.996094 208 Z "/>
</g>
</svg>
