<svg width="256" xmlns="http://www.w3.org/2000/svg" height="256" viewBox="0 0 256 256" xmlns:xlink="http://www.w3.org/1999/xlink">
<g style="fill:#268bd2">
<path d="M 63.996094 48 L 63.996094 80 L 159.996094 80 C 166.847656 80 175.996094 89.828125 175.996094 96 L 207.996094 96 C 207.996094 69.851562 186.878906 48 159.996094 48 Z M 47.996094 160 C 48.09375 171.53125 52.300781 183.242188 60.496094 192.5 C 68.695312 201.757812 81.464844 208 95.996094 208 L 207.996094 208 L 207.996094 160 L 175.996094 160 L 175.996094 176 L 95.996094 176 C 89.632812 176 86.925781 174.242188 84.496094 171.5 C 82.066406 168.757812 80.035156 164.46875 79.996094 160 Z "/>
<path d="M 15.996094 112 L 15.996094 144 L 239.996094 144 L 239.996094 112 Z "/>
</g>
</svg>
