<svg width="256" xmlns="http://www.w3.org/2000/svg" height="256" viewBox="0 0 256 256" xmlns:xlink="http://www.w3.org/1999/xlink">
<path style="fill:#268bd2;fill-rule:evenodd" d="M 256 128.019531 C 255.988281 198.703125 198.683594 256 128 256 C 57.316406 256 0.0117188 198.703125 0 128.019531 C -0.0117188 57.320312 57.300781 0 128 0 C 198.699219 0 256.011719 57.320312 256 128.019531 Z "/>
<path style="fill:#fff;fill-opacity:.902" d="M 130.5 48.054688 C 123.066406 47.8125 116.398438 52.046875 113.5 59.054688 C 110.601562 66.0625 112.171875 74.273438 117.5 79.554688 L 149 112.054688 L 48 112.054688 L 48 144.054688 L 149 144.054688 L 117.5 176.554688 C 110.488281 183.753906 110.488281 195.351562 117.5 202.554688 C 124.511719 209.753906 135.988281 209.753906 143 202.554688 L 202.5 141.054688 C 205.914062 137.597656 208 132.953125 208 128.054688 C 208 123.15625 205.914062 118.511719 202.5 115.054688 L 143 53.554688 C 139.773438 50.144531 135.175781 48.199219 130.5 48.054688 Z "/>
</svg>
