<svg width="256" xmlns="http://www.w3.org/2000/svg" height="256" viewBox="0 0 256 256" xmlns:xlink="http://www.w3.org/1999/xlink">
<path style="fill:#268bd2;fill-rule:evenodd" d="M 127.980469 0 C 57.296875 0.0117188 0 57.316406 0 128 C 0 198.683594 57.296875 255.988281 127.980469 256 C 198.679688 256.011719 256 198.699219 256 128 C 256 57.300781 198.679688 -0.0117188 127.980469 0 Z "/>
<path style="fill:#fff;fill-opacity:.902" d="M 207.945312 125.5 C 208.1875 132.933594 203.953125 139.601562 196.945312 142.5 C 189.9375 145.398438 181.726562 143.828125 176.445312 138.5 L 143.945312 107 L 143.945312 208 L 111.945312 208 L 111.945312 107 L 79.445312 138.5 C 72.246094 145.511719 60.648438 145.511719 53.445312 138.5 C 46.246094 131.488281 46.246094 120.011719 53.445312 113 L 114.945312 53.5 C 118.402344 50.085938 123.046875 48 127.945312 48 C 132.84375 48 137.488281 50.085938 140.945312 53.5 L 202.445312 113 C 205.855469 116.226562 207.800781 120.824219 207.945312 125.5 Z "/>
</svg>
