<?xml version="1.0" encoding="UTF-8" standalone="no"?>
<svg
   xmlns:dc="http://purl.org/dc/elements/1.1/"
   xmlns:cc="http://creativecommons.org/ns#"
   xmlns:rdf="http://www.w3.org/1999/02/22-rdf-syntax-ns#"
   xmlns:svg="http://www.w3.org/2000/svg"
   xmlns="http://www.w3.org/2000/svg"
   xmlns:sodipodi="http://sodipodi.sourceforge.net/DTD/sodipodi-0.dtd"
   xmlns:inkscape="http://www.inkscape.org/namespaces/inkscape"
   width="256"
   height="256"
   viewBox="0 0 256 256"
   id="svg2"
   version="1.1"
   inkscape:version="0.91 r"
   sodipodi:docname="gtk-edit.svg">
  <metadata
     id="metadata16">
    <rdf:RDF>
      <cc:Work
         rdf:about="">
        <dc:format>image/svg+xml</dc:format>
        <dc:type
           rdf:resource="http://purl.org/dc/dcmitype/StillImage" />
        <dc:title></dc:title>
      </cc:Work>
    </rdf:RDF>
  </metadata>
  <defs
     id="defs14">
    <clipPath
       id="clip1">
      <path
         id="path4225"
         d="m 17,10 14,0 0,20 -14,0 m 0,-20"
         inkscape:connector-curvature="0" />
    </clipPath>
    <clipPath
       id="clip2">
      <path
         id="path4228"
         d="m 41.895,19.992 c 0,10.582 -8.02,19.16 -17.895,19.16 -9.875,0 -17.891,-8.574 -17.891,-19.16 0,-10.586 8.02,-19.16 17.891,-19.16 9.879,0 17.895,8.574 17.895,19.16 m 0,0"
         inkscape:connector-curvature="0" />
    </clipPath>
  </defs>
  <sodipodi:namedview
     pagecolor="#ffffff"
     bordercolor="#666666"
     borderopacity="1"
     objecttolerance="10"
     gridtolerance="10"
     guidetolerance="10"
     inkscape:pageopacity="0"
     inkscape:pageshadow="2"
     inkscape:window-width="1366"
     inkscape:window-height="747"
     id="namedview12"
     showgrid="true"
     inkscape:zoom="0.86915209"
     inkscape:cx="248.72525"
     inkscape:cy="-55.333587"
     inkscape:window-x="0"
     inkscape:window-y="21"
     inkscape:window-maximized="1"
     inkscape:current-layer="svg2"
     showguides="false">
    <inkscape:grid
       type="xygrid"
       id="grid4144" />
  </sodipodi:namedview>
  <path
     id="path4152"
     d="M 41.866011,0 162.13318,0 c 29.86666,0 29.86666,0 29.86666,28.80352 l 0,174.39472 c 0,28.80352 0,28.80352 -29.86666,28.80352 l -120.267169,0 c -29.866669,0 -29.866669,0 -29.866669,-28.80352 l 0,-174.39472 C 11.999342,0 11.999342,0 41.866011,0 Z"
     style="fill:#ffffff;fill-opacity:1;fill-rule:evenodd"
     inkscape:connector-curvature="0"
     sodipodi:nodetypes="sssssssss" />
  <g
     style="fill:#888888"
     id="g4154"
     transform="matrix(7.4666668,0,0,7.2008788,-121.60016,-86.423728)">
    <path
       inkscape:connector-curvature="0"
       d="m 22.178682,18.112318 0,3.332927 15.535603,0 0,-3.332927 z"
       id="path4156"
       sodipodi:nodetypes="ccccc" />
    <path
       inkscape:connector-curvature="0"
       d="m 22.178682,34.776951 0,3.332926 7.821318,0 0,-3.332926 z"
       id="path4158"
       sodipodi:nodetypes="ccccc" />
    <path
       inkscape:connector-curvature="0"
       d="m 22.178682,26.444635 0,3.332926 15.535603,0 0,-3.332926 z"
       id="path4160"
       sodipodi:nodetypes="ccccc" />
  </g>
  <g
     id="g4250"
     transform="translate(-52.770186,185.94068)" />
  <g
     id="g4282"
     clip-path="url(#clip1)"
     transform="translate(35.094221,205.05932)">
    <g
       id="g4284"
       clip-path="url(#clip2)" />
  </g>
  <path
     id="path4288"
     d="m 244.00066,104.01886 c 0,0 0.008,-6.23488 -13.8924,-14.26038 -13.41006,-7.7423 -19.66524,-4.33832 -19.66524,-4.33832 L 138.12241,210.684 134.12868,256 l 37.216,-26.13632"
     inkscape:connector-curvature="0"
     style="fill:#ff6f03;fill-opacity:1;fill-rule:nonzero;stroke:none"
     sodipodi:nodetypes="cscccc" />
  <path
     id="path4290"
     d="m 138.12068,210.684 -3.992,45.316 37.216,-26.136"
     inkscape:connector-curvature="0"
     style="fill:#ffc13d;fill-opacity:1;fill-rule:nonzero;stroke:none"
     sodipodi:nodetypes="ccc" />
  <path
     id="path4292"
     d="M 135.92835,234.87352 134.12868,256 151.54986,243.8926 m -15.62152,-9.01908"
     inkscape:connector-curvature="0"
     style="fill:#2d2d2d;fill-opacity:1;fill-rule:nonzero;stroke:none" />
</svg>
