<svg width="256" xmlns="http://www.w3.org/2000/svg" height="256" viewBox="0 0 256 256" xmlns:xlink="http://www.w3.org/1999/xlink">
<path style="fill:#268bd2" d="M 50.464844 15.996094 L 205.535156 15.996094 C 224.570312 15.996094 240 31.425781 240 50.460938 L 240 205.53125 C 240 224.566406 224.570312 239.996094 205.535156 239.996094 L 50.464844 239.996094 C 31.429688 239.996094 16 224.566406 16 205.53125 L 16 50.460938 C 16 31.425781 31.429688 15.996094 50.464844 15.996094 Z "/>
<g style="fill-opacity:.902;fill:#fff">
<path d="M 48 48 L 48 112 L 64 112 L 64 64 L 112 64 L 112 48 Z M 144 48 L 144 64 L 192 64 L 192 112 L 208 112 L 208 48 Z M 48 144 L 48 208 L 112 208 L 112 192 L 64 192 L 64 144 Z M 192 144 L 192 192 L 144 192 L 144 208 L 208 208 L 208 144 Z "/>
<path d="M 80 80 L 80 176 L 176 176 L 176 80 Z M 96 96 L 160 96 L 160 160 L 96 160 Z "/>
</g>
</svg>
