<svg xmlns="http://www.w3.org/2000/svg" width="256" height="256" viewBox="0 0 256 256" xmlns:xlink="http://www.w3.org/1999/xlink">
 <g>
  <path d="M 0 48 C 0 58.667969 0 69.332031 0 80 C 17.097656 80.191406 46.933594 79.296875 64 80 C 87.070312 80 87.777344 80 96 96 L 112 160 C 128 208 128 208 147 208 C 165 208 183 208 201 208 C 194.988281 213.140625 189.394531 220.714844 192.535156 229.03125 C 195.867188 241.113281 213.296875 244.117188 220.773438 234.226562 C 234.707031 220.175781 242.4375 206.414062 256 192 C 241.625 176.796875 233.144531 162.179688 218.332031 147.40625 C 208.605469 138.410156 190.589844 146.480469 191.355469 159.882812 C 191.042969 166.847656 196.472656 171.578125 201 176 C 180.902344 175.804688 196.066406 176.710938 176 176 C 151.515625 176 151.328125 176 144 160 L 128 96 C 112 48 112 48 80 48 C 65 48 15 48 0 48 Z " fill="#268bd1" id="0"/>
  <path d="M 0 208.152344 C 0 197.484375 0 186.816406 0 176.152344 C 17.097656 175.960938 46.933594 176.855469 64 176.152344 C 87.070312 176.152344 87.777344 176.152344 96 160.152344 L 112 96.152344 C 128 48.152344 128 48.152344 147 48.152344 C 165 48.152344 183 48.152344 201 48.152344 C 194.988281 43.011719 189.394531 35.4375 192.535156 27.121094 C 195.867188 15.039062 213.296875 12.035156 220.773438 21.925781 C 234.707031 35.976562 242.4375 49.738281 256 64.152344 C 241.625 79.355469 233.144531 93.972656 218.332031 108.746094 C 208.605469 117.742188 190.589844 109.671875 191.355469 96.269531 C 191.042969 89.304688 196.472656 84.574219 201 80.152344 C 180.902344 80.347656 196.066406 79.441406 176 80.152344 C 151.515625 80.152344 151.328125 80.152344 144 96.152344 L 128 160.152344 C 112 208.152344 112 208.152344 80 208.152344 C 65 208.152344 15 208.152344 0 208.152344 Z " fill="#268bd1"/>
  <path d="M 0 208.152344 C 0 197.484375 0 186.816406 0 176.152344 C 17.097656 175.960938 46.933594 176.855469 64 176.152344 C 87.070312 176.152344 87.777344 176.152344 96 160.152344 L 112 96.152344 C 128 48.152344 128 48.152344 147 48.152344 C 165 48.152344 183 48.152344 201 48.152344 C 194.988281 43.011719 189.394531 35.4375 192.535156 27.121094 C 195.867188 15.039062 213.296875 12.035156 220.773438 21.925781 C 234.707031 35.976562 242.4375 49.738281 256 64.152344 C 241.625 79.355469 233.144531 93.972656 218.332031 108.746094 C 208.605469 117.742188 190.589844 109.671875 191.355469 96.269531 C 191.042969 89.304688 196.472656 84.574219 201 80.152344 C 180.902344 80.347656 196.066406 79.441406 176 80.152344 C 151.515625 80.152344 151.328125 80.152344 144 96.152344 L 128 160.152344 C 112 208.152344 112 208.152344 80 208.152344 C 65 208.152344 15 208.152344 0 208.152344 Z " fill-opacity="0.102"/>
  <use xlink:href="#0"/>
 </g>
</svg>
