<svg width="256" xmlns="http://www.w3.org/2000/svg" height="256" viewBox="0 0 256 256" xmlns:xlink="http://www.w3.org/1999/xlink">
<path style="fill:#b58900;fill-rule:evenodd" d="M 256 128.015625 C 255.992188 198.703125 198.6875 256 128 256 C 57.3125 256 0.0078125 198.703125 0 128.015625 C -0.0078125 57.316406 57.300781 0 128 0 C 198.699219 0 256.007812 57.316406 256 128.015625 Z "/>
<path style="fill:#fff;fill-opacity:.902" d="M 118.429688 54.761719 C 33.363281 117.613281 32.300781 100.523438 32.300781 117.859375 C 32.300781 126.875 35.289062 128 64 128 L 64 192 C 64 208 64 208 80 208 L 96 208 C 112 208 112 208 112 192 L 112 144 C 127.949219 144 128.050781 144 144 144 L 144 192 C 144 208 144 208 160 208 L 176 208 C 192 208 192 208 192 192 L 192 128 C 220.710938 128 223.699219 126.875 223.699219 117.859375 C 223.699219 100.5 222.992188 117.925781 137.570312 54.761719 C 128 45.746094 128 45.746094 118.429688 54.761719 Z "/>
</svg>
