<svg width="256" xmlns="http://www.w3.org/2000/svg" height="256" viewBox="0 0 256 256" xmlns:xlink="http://www.w3.org/1999/xlink">
<path style="fill:#dc322f;fill-rule:evenodd" d="M 131.5 0 C 96.949219 -0.945312 63.484375 12.121094 38.71875 36.230469 C 13.953125 60.339844 -0.0117188 93.4375 0 128 C 0.0117188 198.683594 57.316406 255.980469 128 255.980469 C 198.683594 255.980469 255.988281 198.683594 256 128 C 256.027344 58.652344 200.820312 1.894531 131.5 0 Z M 121 32 C 143.402344 30.28125 165.695312 36.472656 184 49.5 L 50 183.5 C 38.386719 167.316406 32.097656 147.917969 32 128 C 31.867188 77.597656 70.730469 35.675781 121 32 Z M 206.5 72 C 218.035156 88.382812 224.152344 107.964844 224 128 C 223.875 163.835938 203.804688 196.617188 171.945312 213.019531 C 140.082031 229.425781 101.738281 226.71875 72.5 206 Z "/>
</svg>
