<svg width="256" xmlns="http://www.w3.org/2000/svg" height="256" viewBox="0 0 256 256" xmlns:xlink="http://www.w3.org/1999/xlink">
<g style="fill:#888">
<path d="M 160 98.589844 C 160 104.132812 159.019531 108.78125 157.050781 112.542969 C 155.085938 116.203125 152.398438 119.171875 148.984375 121.449219 C 145.675781 123.625 141.691406 125.210938 137.039062 126.199219 C 132.488281 127.089844 127.574219 127.535156 122.296875 127.535156 C 113.046875 127.628906 104.519531 124.246094 96 122.945312 L 96 37.1875 C 104.488281 35.6875 112.410156 33.847656 120.4375 33.425781 C 127.675781 33.429688 133.574219 34.171875 138.125 35.652344 C 142.675781 37.039062 146.242188 38.917969 148.828125 41.292969 C 151.414062 43.570312 153.171875 46.144531 154.105469 49.011719 C 155.035156 51.882812 155.5 54.753906 155.5 57.621094 C 155.5 61.976562 154.363281 65.835938 152.085938 69.199219 C 149.914062 72.566406 146.96875 75.238281 143.242188 77.214844 C 149.761719 79.492188 154.15625 82.558594 156.433594 86.417969 C 158.8125 90.277344 160 94.335938 160 98.589844 M 114.695312 86.121094 L 114.695312 111.058594 C 116.039062 111.257812 117.488281 111.40625 119.039062 111.503906 C 120.695312 111.601562 122.296875 111.652344 123.851562 111.652344 C 126.023438 111.652344 128.140625 111.503906 130.210938 111.207031 C 132.28125 110.8125 134.089844 110.167969 135.640625 109.277344 C 137.296875 108.289062 138.640625 106.953125 139.675781 105.269531 C 140.710938 103.488281 141.226562 101.261719 141.226562 98.589844 C 141.226562 94.136719 139.726562 90.972656 136.726562 89.089844 C 133.832031 87.113281 129.902344 86.121094 124.9375 86.121094 L 114.695312 86.121094 M 122.144531 70.980469 C 127.003906 70.980469 130.675781 69.992188 133.160156 68.011719 C 135.640625 65.933594 136.882812 63.113281 136.882812 59.550781 C 136.882812 57.375 136.519531 55.644531 135.796875 54.355469 C 135.074219 52.972656 134.089844 51.933594 132.847656 51.238281 C 131.609375 50.449219 130.160156 49.953125 128.503906 49.753906 C 126.847656 49.457031 125.144531 49.308594 123.382812 49.308594 C 121.9375 49.308594 120.4375 49.359375 118.886719 49.457031 C 117.332031 49.558594 115.9375 49.707031 114.695312 49.902344 L 114.695312 70.980469 L 122.144531 70.980469 "/>
<path d="M 225.667969 128.277344 C 210.351562 128.277344 198.664062 124.121094 190.597656 115.808594 C 182.53125 107.496094 176 95.671875 176 80.332031 C 175.695312 64.121094 181.503906 54.53125 192.351562 45.003906 C 196.792969 40.847656 201.996094 37.730469 207.957031 35.652344 C 214.035156 33.476562 220.640625 32.390625 227.769531 32.386719 C 231.628906 32.390625 235.078125 32.6875 238.117188 33.277344 C 241.273438 33.773438 244.019531 34.367188 246.355469 35.058594 C 248.695312 35.753906 250.625 36.496094 252.144531 37.285156 C 253.78125 38.078125 255.007812 38.671875 255.824219 39.066406 L 250.214844 53.613281 C 247.527344 52.128906 244.253906 50.894531 240.394531 49.902344 C 236.65625 48.816406 232.328125 48.269531 227.421875 48.269531 C 224.03125 48.269531 220.699219 48.816406 217.425781 49.902344 C 214.269531 50.894531 211.40625 52.625 208.832031 55.097656 C 206.378906 57.472656 204.332031 60.691406 202.695312 64.746094 C 201.175781 68.804688 200.417969 73.851562 200.417969 79.886719 C 200.417969 90.378906 202.519531 98.441406 206.730469 104.082031 C 211.054688 109.625 218.066406 112.394531 227.769531 112.394531 C 233.382812 112.394531 238 111.851562 241.621094 110.761719 C 245.363281 109.671875 248.34375 108.585938 250.566406 107.496094 L 256 121.894531 C 252.960938 123.476562 248.8125 124.960938 243.550781 126.347656 C 238.40625 127.632812 232.445312 128.277344 225.667969 128.277344 "/>
<path d="M 32 32.5 L 0 128.386719 L 16 128.386719 L 26.5 96.425781 L 53.5 96.425781 L 64 128.386719 L 80 128.386719 L 48 32.5 Z M 40 56.472656 L 48 80.445312 L 32 80.445312 Z "/>
</g>
<path style="fill:#859900" d="M 128 176.390625 L 224 80.390625 L 256 112.390625 L 128 240.390625 C 101.332031 213.722656 74.667969 187.054688 48 160.390625 L 80 128.390625 Z "/>
</svg>
