<svg width="256" xmlns="http://www.w3.org/2000/svg" height="256" viewBox="0 0 256 256" xmlns:xlink="http://www.w3.org/1999/xlink">
<path style="fill:#859900;fill-rule:evenodd" d="M 256 128.015625 C 255.992188 198.703125 198.6875 256 128 256 C 57.3125 256 0.0078125 198.703125 0 128.015625 C -0.0078125 57.316406 57.300781 0 128 0 C 198.699219 0 256.007812 57.316406 256 128.015625 Z "/>
<g style="fill:#fff;fill-opacity:.902">
<path d="M 205.957031 96.085938 C 192.449219 66.808594 162.230469 48.003906 128.175781 48.003906 C 93.347656 48.003906 61.515625 68.578125 48.976562 99.195312 L 75.371094 108.804688 C 83.730469 88.386719 104.953125 74.671875 128.175781 74.671875 C 150.582031 74.671875 170.410156 86.933594 179.585938 106.007812 L 160.328125 113.261719 L 209.574219 140.046875 L 223.980469 89.304688 Z "/>
<path d="M 128.175781 181.347656 C 105.96875 181.347656 85.71875 168.722656 76.664062 149.769531 L 95.652344 142.847656 L 46.914062 116.648438 L 31.996094 166.039062 L 50.171875 159.417969 C 63.425781 188.585938 94.359375 208.015625 128.175781 208.015625 C 163.132812 208.015625 194.085938 188.242188 207.03125 157.644531 L 180.757812 147.765625 C 172.121094 168.164062 151.488281 181.347656 128.175781 181.347656 Z "/>
</g>
</svg>
