<svg width="256" xmlns="http://www.w3.org/2000/svg" height="256" viewBox="0 0 256 256" xmlns:xlink="http://www.w3.org/1999/xlink">
<path style="fill:#268bd2" d="M 50.464844 15.996094 L 205.535156 15.996094 C 224.570312 15.996094 240 31.425781 240 50.460938 L 240 205.53125 C 240 224.566406 224.570312 239.996094 205.535156 239.996094 L 50.464844 239.996094 C 31.429688 239.996094 16 224.566406 16 205.53125 L 16 50.460938 C 16 31.425781 31.429688 15.996094 50.464844 15.996094 Z "/>
<path style="fill:#fff;fill-opacity:.902" d="M 96 48 L 96 96 L 48 96 L 48 160 L 96 160 L 96 208 L 160 208 L 160 160 L 208 160 L 208 96 L 160 96 L 160 48 Z M 112 64 L 144 64 L 144 112 L 192 112 L 192 144 L 144 144 L 144 192 L 112 192 L 112 144 L 64 144 L 64 112 L 112 112 Z "/>
</svg>
