<svg width="16" xmlns="http://www.w3.org/2000/svg" height="16" viewBox="0 0 16 16" xmlns:xlink="http://www.w3.org/1999/xlink">
<g style="fill:#52c8ff">
<path d="M 2.472656 5.210938 L 2.488281 5.984375 L 13.386719 5.984375 L 13.378906 5.210938 Z "/>
<path d="M 2.019531 7.527344 L 2.019531 8.300781 L 13.8125 8.300781 L 13.8125 7.527344 Z "/>
<path d="M 2.503906 9.847656 L 2.503906 10.621094 L 13.328125 10.621094 L 13.328125 9.847656 Z "/>
<path d="M 7.527344 2.023438 L 7.527344 13.820312 L 8.304688 13.820312 L 8.304688 2.023438 Z "/>
</g>
<g style="fill:none;stroke:#52c8ff">
<g style="stroke-width:12.5">
<path d="M 89.745857 7.747238 C 66.883084 -44.736089 68.651475 -110.608663 89.745857 -168.08138 " transform="matrix(.06185 0 0 .06185 0 12.86458)"/>
<path d="M 166.228779 7.747238 C 189.091552 -44.736089 187.386318 -110.608663 166.228779 -168.08138 " transform="matrix(.06185 0 0 .06185 0 12.86458)"/>
</g>
<path style="stroke-linecap:round;stroke-width:1.214" d="M 33.056998 27.319186 C 33.056998 32.348429 28.984538 36.42089 23.955295 36.42089 C 18.926051 36.42089 14.847458 32.348429 14.847458 27.319186 C 14.847458 22.289943 18.926051 18.211349 23.955295 18.211349 C 28.984538 18.211349 33.056998 22.289943 33.056998 27.319186 Z " transform="matrix(.6369 0 0 .6369 -7.33916 -9.48162)"/>
</g>
</svg>
