<svg width="16" xmlns="http://www.w3.org/2000/svg" height="16" viewBox="0 0 16 16" xmlns:xlink="http://www.w3.org/1999/xlink">
<g style="fill:#ec7878">
<path d="M 8.722656 3.585938 C 8.667969 3.585938 8.613281 3.601562 8.5625 3.632812 C 8.515625 3.667969 8.472656 3.722656 8.472656 3.792969 C 8.480469 3.820312 8.476562 3.84375 8.476562 3.871094 C 8.476562 3.953125 8.539062 4.015625 8.621094 4.015625 C 8.699219 4.015625 8.765625 3.953125 8.765625 3.871094 C 8.765625 3.792969 8.703125 3.726562 8.621094 3.726562 C 8.652344 3.707031 8.691406 3.699219 8.722656 3.695312 C 8.835938 3.695312 8.921875 3.761719 8.984375 3.859375 C 9.042969 3.957031 9.074219 4.085938 9.074219 4.191406 C 9.070312 4.457031 8.9375 4.679688 8.746094 4.847656 C 8.554688 5.019531 8.296875 5.136719 8.054688 5.179688 L 8.074219 5.289062 C 8.335938 5.238281 8.609375 5.117188 8.816406 4.933594 C 9.027344 4.746094 9.179688 4.492188 9.183594 4.195312 C 9.1875 4.066406 9.152344 3.917969 9.074219 3.800781 C 9 3.679688 8.878906 3.585938 8.722656 3.585938 Z "/>
<path d="M 7.113281 3.585938 C 7.164062 3.585938 7.222656 3.601562 7.269531 3.632812 C 7.320312 3.667969 7.363281 3.722656 7.359375 3.792969 C 7.355469 3.820312 7.355469 3.84375 7.359375 3.871094 C 7.359375 3.953125 7.292969 4.015625 7.210938 4.015625 C 7.132812 4.015625 7.066406 3.953125 7.066406 3.871094 C 7.066406 3.792969 7.128906 3.726562 7.210938 3.726562 C 7.183594 3.707031 7.140625 3.699219 7.113281 3.695312 C 6.996094 3.695312 6.914062 3.761719 6.851562 3.859375 C 6.789062 3.957031 6.757812 4.085938 6.757812 4.191406 C 6.765625 4.457031 6.894531 4.679688 7.089844 4.847656 C 7.28125 5.019531 7.535156 5.136719 7.777344 5.179688 L 7.757812 5.289062 C 7.496094 5.238281 7.226562 5.117188 7.015625 4.933594 C 6.804688 4.746094 6.65625 4.492188 6.648438 4.195312 C 6.648438 4.066406 6.679688 3.917969 6.757812 3.800781 C 6.832031 3.679688 6.953125 3.585938 7.113281 3.585938 Z "/>
<path d="M 7.808594 4.640625 C 7.183594 4.667969 6.582031 4.976562 6.179688 5.449219 C 5.96875 5.675781 5.773438 5.925781 5.683594 6.226562 C 5.6875 6.273438 5.703125 6.320312 5.71875 6.367188 C 5.585938 6.375 5.417969 6.355469 5.324219 6.472656 C 5.15625 6.660156 5.117188 6.917969 5.035156 7.144531 C 4.660156 8.445312 4.855469 9.929688 5.652344 11.035156 C 6.089844 11.628906 6.734375 12.097656 7.476562 12.21875 C 7.597656 12.230469 7.742188 12.265625 7.855469 12.199219 C 7.898438 12.164062 7.957031 12.171875 7.996094 12.210938 C 8.148438 12.289062 8.324219 12.214844 8.484375 12.191406 C 9.238281 12.027344 9.890625 11.507812 10.296875 10.859375 C 11.050781 9.695312 11.175781 8.171875 10.707031 6.871094 C 10.644531 6.71875 10.585938 6.550781 10.460938 6.433594 C 10.378906 6.375 10.277344 6.355469 10.179688 6.347656 C 10.242188 6.21875 10.199219 6.0625 10.105469 5.957031 C 9.765625 5.402344 9.261719 4.921875 8.625 4.734375 C 8.359375 4.660156 8.082031 4.640625 7.808594 4.640625 Z "/>
<path d="M 7.890625 4.792969 C 7.886719 4.792969 7.878906 4.792969 7.875 4.796875 C 7.65625 4.8125 7.433594 4.832031 7.226562 4.90625 C 6.628906 5.117188 6.175781 5.601562 5.867188 6.136719 C 5.820312 6.222656 5.851562 6.335938 5.949219 6.34375 C 6.613281 6.347656 7.28125 6.34375 7.949219 6.347656 C 8.617188 6.34375 9.285156 6.347656 9.953125 6.34375 C 10.050781 6.335938 10.082031 6.222656 10.035156 6.136719 C 9.722656 5.601562 9.269531 5.117188 8.671875 4.90625 C 8.464844 4.832031 8.242188 4.8125 8.023438 4.796875 C 7.96875 4.792969 7.976562 4.808594 7.949219 4.808594 C 7.925781 4.808594 7.933594 4.792969 7.890625 4.792969 Z "/>
<path d="M 8.371094 6.511719 C 8.175781 6.511719 8.015625 6.671875 8.015625 6.871094 L 8.015625 11.953125 C 8.015625 12.023438 8.015625 12.078125 8.109375 12.089844 C 9.601562 12.007812 10.828125 10.410156 10.828125 8.464844 C 10.828125 7.820312 10.699219 7.214844 10.46875 6.691406 C 10.464844 6.679688 10.460938 6.667969 10.457031 6.660156 C 10.457031 6.65625 10.453125 6.65625 10.453125 6.65625 C 10.453125 6.652344 10.453125 6.652344 10.453125 6.652344 C 10.410156 6.570312 10.328125 6.511719 10.226562 6.511719 Z "/>
<path d="M 7.464844 6.511719 C 7.660156 6.511719 7.816406 6.671875 7.816406 6.871094 L 7.816406 11.953125 C 7.816406 12.023438 7.816406 12.078125 7.722656 12.089844 C 6.230469 12.007812 5.007812 10.410156 5.007812 8.464844 C 5.007812 7.820312 5.136719 7.214844 5.363281 6.691406 C 5.367188 6.679688 5.371094 6.667969 5.378906 6.660156 C 5.378906 6.65625 5.378906 6.65625 5.378906 6.65625 C 5.378906 6.652344 5.378906 6.652344 5.378906 6.652344 C 5.421875 6.570312 5.507812 6.511719 5.605469 6.511719 Z "/>
<g style="fill-rule:evenodd">
<path d="M 5.839844 6.660156 L 5.613281 6.941406 L 5.253906 6.914062 L 5.449219 7.214844 L 5.3125 7.546875 L 5.660156 7.453125 L 5.9375 7.683594 L 5.953125 7.324219 L 6.261719 7.136719 L 5.921875 7.007812 Z M 6.960938 7 L 6.769531 7.957031 L 5.875 8.34375 L 6.726562 8.824219 L 6.816406 9.792969 L 7.53125 9.132812 L 8.488281 9.347656 L 8.078125 8.460938 L 8.574219 7.621094 L 7.605469 7.734375 Z M 9.890625 7.441406 L 9.667969 7.722656 L 9.308594 7.695312 L 9.503906 7.996094 L 9.367188 8.332031 L 9.714844 8.234375 L 9.988281 8.46875 L 10.007812 8.109375 L 10.3125 7.917969 L 9.976562 7.792969 Z M 5.5625 9.160156 L 5.289062 9.710938 L 5.03125 9.75 C 5.121094 10.058594 5.246094 10.351562 5.402344 10.632812 L 5.5625 10.546875 L 6.105469 10.835938 L 6 10.230469 L 6.441406 9.800781 L 5.832031 9.710938 Z M 10.03125 9.210938 L 9.492188 9.824219 L 8.679688 9.730469 L 9.097656 10.429688 L 8.757812 11.171875 L 9.550781 10.996094 L 9.925781 11.339844 C 10.027344 11.230469 10.117188 11.121094 10.203125 11 L 10.226562 10.734375 L 10.445312 10.613281 C 10.515625 10.480469 10.582031 10.34375 10.640625 10.207031 L 10.191406 10.011719 Z M 7.34375 10.871094 L 7.121094 11.148438 L 6.761719 11.121094 L 6.957031 11.425781 L 6.824219 11.757812 L 7.167969 11.664062 L 7.441406 11.894531 L 7.460938 11.535156 L 7.765625 11.347656 L 7.429688 11.21875 Z "/>
<path style="fill-opacity:.902" d="M 10.457031 9.382812 C 10.457031 9.941406 9.347656 10.402344 7.980469 10.402344 C 6.613281 10.402344 5.5 9.941406 5.5 9.382812 C 5.5 8.816406 6.613281 8.363281 7.980469 8.363281 C 9.347656 8.363281 10.457031 8.816406 10.457031 9.382812 Z "/>
</g>
<path style="fill-opacity:.459" d="M 6.148438 11.210938 C 6.542969 11.613281 7.058594 11.910156 7.625 11.972656 C 7.65625 11.980469 7.726562 11.980469 7.710938 11.925781 C 7.707031 11.800781 7.707031 11.679688 7.707031 11.554688 C 7.707031 11.476562 7.707031 11.492188 7.648438 11.527344 C 7.066406 11.882812 6.574219 11.453125 6.148438 11.210938 Z M 9.667969 11.238281 C 9.242188 11.480469 8.746094 11.910156 8.164062 11.554688 C 8.105469 11.519531 8.105469 11.503906 8.105469 11.582031 C 8.105469 11.707031 8.105469 11.828125 8.101562 11.953125 C 8.085938 12.007812 8.152344 12.011719 8.191406 12 C 8.757812 11.9375 9.269531 11.640625 9.667969 11.238281 Z "/>
<g style="fill-rule:evenodd">
<path d="M 9.492188 6.003906 C 9.492188 6.691406 8.796875 7.253906 7.9375 7.253906 C 7.078125 7.253906 6.382812 6.691406 6.382812 6.003906 C 6.382812 5.3125 7.078125 4.753906 7.9375 4.753906 C 8.796875 4.753906 9.492188 5.3125 9.492188 6.003906 Z "/>
<path d="M 7.300781 3.832031 C 7.300781 3.878906 7.261719 3.921875 7.214844 3.921875 C 7.167969 3.921875 7.128906 3.878906 7.128906 3.832031 C 7.128906 3.78125 7.167969 3.742188 7.214844 3.742188 C 7.261719 3.742188 7.300781 3.78125 7.300781 3.832031 Z "/>
<path d="M 8.703125 3.832031 C 8.703125 3.878906 8.664062 3.921875 8.617188 3.921875 C 8.570312 3.921875 8.53125 3.878906 8.53125 3.832031 C 8.53125 3.78125 8.570312 3.742188 8.617188 3.742188 C 8.664062 3.742188 8.703125 3.78125 8.703125 3.832031 Z "/>
</g>
<path d="M 11.082031 7.480469 C 10.855469 7.511719 10.691406 7.714844 10.722656 7.945312 C 10.75 8.171875 10.957031 8.332031 11.183594 8.304688 L 14.425781 8.304688 C 14.574219 8.308594 14.714844 8.230469 14.789062 8.101562 C 14.863281 7.972656 14.863281 7.8125 14.789062 7.683594 C 14.714844 7.558594 14.574219 7.480469 14.425781 7.480469 L 11.183594 7.480469 C 11.148438 7.476562 11.113281 7.476562 11.082031 7.480469 Z "/>
<path d="M 1.367188 7.507812 C 1.21875 7.519531 1.089844 7.609375 1.027344 7.746094 C 0.964844 7.878906 0.980469 8.035156 1.066406 8.15625 C 1.152344 8.277344 1.296875 8.34375 1.441406 8.332031 L 4.710938 8.332031 C 4.859375 8.332031 4.996094 8.253906 5.070312 8.125 C 5.144531 7.996094 5.144531 7.839844 5.070312 7.710938 C 4.996094 7.582031 4.859375 7.503906 4.710938 7.507812 L 1.441406 7.507812 C 1.417969 7.503906 1.390625 7.503906 1.367188 7.507812 Z "/>
<path d="M 7.847656 0.996094 C 7.652344 1.035156 7.511719 1.207031 7.511719 1.410156 L 7.511719 4.730469 C 7.511719 4.878906 7.589844 5.015625 7.71875 5.089844 C 7.847656 5.167969 8.003906 5.167969 8.132812 5.089844 C 8.261719 5.015625 8.339844 4.878906 8.335938 4.730469 L 8.335938 1.410156 C 8.339844 1.285156 8.285156 1.167969 8.191406 1.085938 C 8.097656 1.003906 7.96875 0.972656 7.847656 0.996094 Z "/>
<path d="M 7.871094 10.742188 C 7.65625 10.769531 7.496094 10.964844 7.511719 11.183594 L 7.511719 14.425781 C 7.511719 14.574219 7.589844 14.710938 7.714844 14.785156 C 7.84375 14.863281 8.003906 14.863281 8.132812 14.785156 C 8.261719 14.710938 8.339844 14.574219 8.335938 14.425781 L 8.335938 11.183594 C 8.34375 11.058594 8.296875 10.9375 8.207031 10.851562 C 8.117188 10.769531 7.996094 10.730469 7.871094 10.742188 Z "/>
</g>
<path style="fill:none;stroke:#ec7878;stroke-linejoin:round;stroke-linecap:round;stroke-width:8" d="M 278.372625 118.741153 C 278.372625 168.061835 225.558245 208.020407 160.301155 208.020407 C 95.133582 208.020407 42.229686 168.061835 42.229686 118.741153 C 42.229686 69.420472 95.133582 29.4619 160.301155 29.4619 C 225.558245 29.4619 278.372625 69.420472 278.372625 118.741153 Z " transform="matrix(.04364 0 0 .05758 .92673 1.1083)"/>
</svg>
