<svg width="16" xmlns="http://www.w3.org/2000/svg" height="16" viewBox="0 0 16 16" xmlns:xlink="http://www.w3.org/1999/xlink">
<path style="fill:#61c66b;fill-rule:evenodd;stroke:#61c66b;stroke-linejoin:round;stroke-width:12.5" d="M 234.976841 36.60996 C 219.698383 37.184901 202.69679 42.244389 193.621615 53.168282 C 180.296042 81.340427 212.461218 68.346744 216.252114 87.894763 C 220.043009 107.327793 197.412511 108.477677 197.412511 108.477677 L 99.653351 108.477677 C 99.653351 108.477677 99.768227 205.412854 99.768227 205.412854 C 99.768227 205.412854 100.802108 228.065559 120.330964 224.385932 C 136.183801 221.281246 130.554895 199.43346 142.961463 198.398565 C 145.833354 198.283577 149.739125 199.088495 155.023404 201.618239 C 165.936589 210.702318 170.991116 227.835582 171.565494 243.014044 C 171.795246 248.533485 171.335743 253.822949 170.301863 258.537471 C 170.301863 258.652459 170.301863 258.882436 170.301863 259.112413 C 168.578728 272.221084 163.5242 285.559733 154.219275 293.148964 C 126.074746 306.372624 139.055692 274.290875 119.641711 270.496259 C 105.397133 267.736539 101.031859 279.005397 99.653351 285.329756 L 99.653351 388.244327 C 99.653351 388.244327 197.757138 387.439409 197.757138 387.439409 C 197.757138 387.439409 220.387636 386.404514 216.596741 366.856495 C 212.805845 347.308475 180.755545 360.302159 193.966242 332.130013 C 203.041416 321.20612 220.043009 316.146633 235.321468 315.571691 C 240.950374 315.341715 246.119777 315.916656 250.714802 316.836563 C 251.059429 316.836563 251.174305 316.951552 251.404056 316.951552 C 264.499877 318.676377 277.82545 323.735864 285.522117 332.934932 C 298.732815 361.107077 266.567639 348.113394 262.776743 367.546425 C 259.100723 387.094444 281.731222 388.244327 281.731222 388.244327 L 378.916003 388.244327 L 378.916003 286.134674 C 380.29451 279.810315 384.77466 268.656445 398.904362 271.416166 C 418.433219 275.210781 405.337397 307.29253 433.596802 294.06887 C 442.786852 286.479639 447.84138 273.140991 449.564514 260.032319 C 449.564514 259.802343 449.564514 259.572366 449.564514 259.342389 C 450.598395 254.742855 451.057897 249.453391 450.943022 243.933951 C 450.368644 228.6405 445.19924 211.622225 434.286056 202.538145 C 406.141527 189.314485 419.122473 221.511223 399.593616 225.19085 C 380.064759 228.985465 379.030879 206.332761 379.030879 206.332761 L 378.916003 108.477677 L 276.79157 108.477677 C 270.358534 106.982828 259.789977 102.498283 262.546992 88.584693 C 266.223012 69.036674 298.388188 82.145345 285.177491 53.9732 C 277.480823 44.774132 264.155251 39.714645 251.059429 37.98982 C 250.829678 37.98982 250.599926 37.874831 250.485051 37.874831 C 245.890026 36.839936 240.605747 36.379983 234.976841 36.60996 Z " transform="matrix(.034 0 0 .03397 -1.44332 .70164)"/>
</svg>
