<svg width="16" xmlns="http://www.w3.org/2000/svg" height="16" viewBox="0 0 16 16" xmlns:xlink="http://www.w3.org/1999/xlink">
<g style="fill:#ec86ab">
<path d="M 2.417969 1.730469 L 2.417969 9.980469 L 3.105469 9.980469 L 3.105469 1.730469 Z "/>
<path d="M 3.792969 10.324219 C 3.792969 10.890625 3.332031 11.351562 2.761719 11.351562 C 2.195312 11.351562 1.730469 10.890625 1.730469 10.324219 C 1.730469 9.753906 2.195312 9.289062 2.761719 9.289062 C 3.332031 9.289062 3.792969 9.753906 3.792969 10.324219 Z "/>
<path d="M 6.542969 14.101562 L 6.542969 3.792969 L 5.855469 3.792969 L 5.855469 14.101562 Z "/>
<path d="M 5.167969 3.449219 C 5.167969 2.878906 5.628906 2.417969 6.199219 2.417969 C 6.769531 2.417969 7.230469 2.878906 7.230469 3.449219 C 7.230469 4.019531 6.769531 4.480469 6.199219 4.480469 C 5.628906 4.480469 5.167969 4.019531 5.167969 3.449219 Z "/>
<path d="M 9.289062 1.730469 L 9.289062 9.289062 L 9.980469 9.289062 L 9.980469 1.730469 Z "/>
<path d="M 10.664062 9.632812 C 10.664062 10.203125 10.203125 10.664062 9.636719 10.664062 C 9.066406 10.664062 8.605469 10.203125 8.605469 9.632812 C 8.605469 9.066406 9.066406 8.605469 9.636719 8.605469 C 10.203125 8.605469 10.664062 9.066406 10.664062 9.632812 Z "/>
<path d="M 13.414062 14.101562 L 13.414062 8.605469 L 12.726562 8.605469 L 12.726562 14.101562 Z "/>
<path d="M 12.039062 8.261719 C 12.039062 7.691406 12.5 7.230469 13.070312 7.230469 C 13.640625 7.230469 14.101562 7.691406 14.101562 8.261719 C 14.101562 8.828125 13.640625 9.292969 13.070312 9.292969 C 12.5 9.292969 12.039062 8.828125 12.039062 8.261719 Z "/>
</g>
</svg>
