<svg width="16" xmlns="http://www.w3.org/2000/svg" height="16" viewBox="0 0 16 16" xmlns:xlink="http://www.w3.org/1999/xlink">
<path style="fill:none;stroke:#6aaf53;stroke-linejoin:round;stroke-linecap:round;stroke-width:2" d="M 10.535156 1021.366106 L 37.464844 1021.366106 C 38.308594 1021.366106 39 1022.045794 39 1022.901263 L 39 1033.823138 C 39 1034.666888 38.308594 1035.358294 37.464844 1035.358294 L 10.535156 1035.358294 C 9.691406 1035.358294 9 1034.666888 9 1033.823138 L 9 1022.901263 C 9 1022.045794 9.691406 1021.366106 10.535156 1021.366106 Z " transform="matrix(.33333 0 0 .33333 0 -334.7874)"/>
<path style="fill:#6aaf53" d="M 3.832031 6.332031 C 3.742188 6.332031 3.667969 6.40625 3.667969 6.5 L 3.667969 9.5 C 3.667969 9.59375 3.742188 9.667969 3.832031 9.667969 L 7.851562 9.667969 C 7.945312 9.667969 8.019531 9.59375 8.019531 9.5 L 8.019531 6.5 C 8.019531 6.40625 7.945312 6.332031 7.851562 6.332031 Z M 5 8.667969 L 5 7.332031 L 5.332031 7.332031 L 5.332031 8.667969 Z M 5.667969 8.667969 L 5.667969 7.332031 L 6 7.332031 L 6 8.667969 Z M 6.332031 8.667969 L 6.332031 7.332031 L 6.667969 7.332031 L 6.667969 8.667969 Z "/>
</svg>
