<svg width="16" xmlns="http://www.w3.org/2000/svg" height="16" viewBox="0 0 16 16" xmlns:xlink="http://www.w3.org/1999/xlink">
<path style="fill:#4c7686" d="M 6.832031 2.667969 L 6.832031 9.066406 C 6.382812 8.890625 5.796875 8.863281 5.1875 9.027344 C 4.054688 9.332031 3.296875 10.191406 3.496094 10.945312 C 3.695312 11.695312 4.777344 12.058594 5.910156 11.753906 C 6.871094 11.492188 7.5625 10.832031 7.625 10.179688 L 7.632812 10.179688 L 7.632812 5.472656 L 11.734375 5.980469 L 11.734375 10.539062 C 11.285156 10.363281 10.699219 10.332031 10.09375 10.496094 C 8.960938 10.804688 8.199219 11.664062 8.398438 12.417969 C 8.597656 13.167969 9.679688 13.53125 10.8125 13.222656 C 11.773438 12.964844 12.464844 12.304688 12.527344 11.648438 L 12.535156 11.648438 L 12.535156 3.425781 Z M 7.632812 4.207031 L 11.734375 4.785156 L 11.734375 5.300781 L 7.632812 4.792969 Z "/>
</svg>
