<svg width="16" xmlns="http://www.w3.org/2000/svg" height="16" viewBox="0 0 16 16" xmlns:xlink="http://www.w3.org/1999/xlink">
<path style="fill:#9cc7cf" d="M 8.351562 10.371094 C 8.320312 9.25 8.574219 8.164062 9.644531 7.390625 C 10.769531 6.515625 11.855469 5.425781 11.742188 4.140625 C 11.71875 2.898438 10.261719 1.925781 8.691406 1.785156 C 6.925781 1.542969 4.789062 2.140625 4.195312 3.511719 C 3.894531 4.175781 4.175781 5.371094 5.183594 5.371094 C 5.769531 5.371094 6.042969 4.992188 6.085938 4.648438 C 6.121094 4.386719 6.011719 4.152344 5.949219 3.9375 C 5.875 3.691406 6.183594 3.214844 6.523438 3.019531 C 6.808594 2.859375 7.101562 2.800781 7.144531 2.792969 C 8.160156 2.550781 9.171875 3.085938 9.59375 3.738281 C 10.019531 4.386719 9.550781 5.375 8.886719 6.335938 C 8.214844 7.296875 7.5 8.386719 7.5 9.546875 C 7.5 9.988281 7.460938 10.136719 7.488281 10.3125 C 7.511719 10.457031 7.988281 10.441406 8.351562 10.371094 Z M 7.890625 11.882812 C 6.917969 11.832031 6.246094 12.921875 6.828125 13.621094 C 7.351562 14.386719 8.8125 14.199219 9.0625 13.328125 C 9.320312 12.652344 8.695312 11.871094 7.890625 11.882812 Z "/>
</svg>
