<?xml version="1.0" encoding="UTF-8" standalone="no"?>
<svg
   xmlns:dc="http://purl.org/dc/elements/1.1/"
   xmlns:cc="http://creativecommons.org/ns#"
   xmlns:rdf="http://www.w3.org/1999/02/22-rdf-syntax-ns#"
   xmlns:svg="http://www.w3.org/2000/svg"
   xmlns="http://www.w3.org/2000/svg"
   xmlns:sodipodi="http://sodipodi.sourceforge.net/DTD/sodipodi-0.dtd"
   xmlns:inkscape="http://www.inkscape.org/namespaces/inkscape"
   width="24"
   height="24"
   viewBox="0 0 24 24"
   id="svg2989"
   version="1.1"
   inkscape:version="0.48.5 r10040"
   sodipodi:docname="application-text-template.svg">
  <metadata
     id="metadata3017">
    <rdf:RDF>
      <cc:Work
         rdf:about="">
        <dc:format>image/svg+xml</dc:format>
        <dc:type
           rdf:resource="http://purl.org/dc/dcmitype/StillImage" />
      </cc:Work>
    </rdf:RDF>
  </metadata>
  <defs
     id="defs3015" />
  <sodipodi:namedview
     pagecolor="#ffffff"
     bordercolor="#666666"
     borderopacity="1"
     objecttolerance="10"
     gridtolerance="10"
     guidetolerance="10"
     inkscape:pageopacity="0"
     inkscape:pageshadow="2"
     inkscape:window-width="1280"
     inkscape:window-height="970"
     id="namedview3013"
     showgrid="true"
     inkscape:zoom="11.313709"
     inkscape:cx="37.246422"
     inkscape:cy="11.551146"
     inkscape:window-x="0"
     inkscape:window-y="0"
     inkscape:window-maximized="1"
     inkscape:current-layer="svg2989">
    <inkscape:grid
       type="xygrid"
       id="grid3036"
       empspacing="5"
       visible="true"
       enabled="true"
       snapvisiblegridlinesonly="true" />
  </sodipodi:namedview>
  <path
     style="fill:#dcdcdc;fill-opacity:1"
     d="M 5,1 C 4.527343,1 4,1.527344 4,2 l 0,20 c 0,0.445312 0.554687,1 1,1 l 14,0 c 0.445313,0 1,-0.554688 1,-1 L 20,2 C 20,1.527344 19.472657,1 19,1 z"
     id="path4-1"
     inkscape:connector-curvature="0"
     sodipodi:nodetypes="sssssssss" />
  <path
     style="fill:#888888"
     inkscape:connector-curvature="0"
     id="path16"
     d="m 7,11 0,1 10,0 0,-1 z" />
  <path
     style="fill:#888888"
     inkscape:connector-curvature="0"
     id="path22"
     d="m 7,13 0,1 10,0 0,-1 z" />
  <path
     style="fill:#888888"
     inkscape:connector-curvature="0"
     id="path28"
     d="m 7,17 0,1 10,0 0,-1 z" />
  <path
     style="fill:#888888"
     inkscape:connector-curvature="0"
     id="path16-4"
     d="M 7,7 7,8 17,8 17,7 z" />
  <path
     style="fill:#888888"
     inkscape:connector-curvature="0"
     id="path22-9"
     d="m 7,15 0,1 10,0 0,-1 z" />
  <path
     style="fill:#888888"
     inkscape:connector-curvature="0"
     id="path16-6"
     d="m 7,9 0,1 10,0 0,-1 z" />
</svg>
