<?xml version="1.0" encoding="UTF-8" standalone="no"?>
<svg
   xmlns:dc="http://purl.org/dc/elements/1.1/"
   xmlns:cc="http://creativecommons.org/ns#"
   xmlns:rdf="http://www.w3.org/1999/02/22-rdf-syntax-ns#"
   xmlns:svg="http://www.w3.org/2000/svg"
   xmlns="http://www.w3.org/2000/svg"
   xmlns:sodipodi="http://sodipodi.sourceforge.net/DTD/sodipodi-0.dtd"
   xmlns:inkscape="http://www.inkscape.org/namespaces/inkscape"
   width="64"
   height="64"
   viewBox="0 0 64 64"
   id="svg2"
   version="1.1"
   inkscape:version="0.91 r"
   sodipodi:docname="dialog-information.svg">
  <metadata
     id="metadata10">
    <rdf:RDF>
      <cc:Work
         rdf:about="">
        <dc:format>image/svg+xml</dc:format>
        <dc:type
           rdf:resource="http://purl.org/dc/dcmitype/StillImage" />
        <dc:title></dc:title>
      </cc:Work>
    </rdf:RDF>
  </metadata>
  <defs
     id="defs8" />
  <sodipodi:namedview
     pagecolor="#ffffff"
     bordercolor="#666666"
     borderopacity="1"
     objecttolerance="10"
     gridtolerance="10"
     guidetolerance="10"
     inkscape:pageopacity="0"
     inkscape:pageshadow="2"
     inkscape:window-width="1920"
     inkscape:window-height="1056"
     id="namedview6"
     showgrid="true"
     inkscape:zoom="14.75"
     inkscape:cx="20.228994"
     inkscape:cy="17.071752"
     inkscape:window-x="0"
     inkscape:window-y="24"
     inkscape:window-maximized="1"
     inkscape:current-layer="svg2">
    <inkscape:grid
       type="xygrid"
       id="grid4138" />
  </sodipodi:namedview>
  <path
     style="fill:#78cf72"
     d="M 13.937407,8 C 10.656208,8 8,10.656208 8,13.937407 L 8,50.062593 C 8,53.351603 10.656208,56 13.937407,56 l 36.125186,0 C 53.351603,56 56,53.351603 56,50.062593 L 56,13.937407 C 56,10.656208 53.351603,8 50.062593,8 Z m 14.062281,6.000656 7.999875,0 0,7.999875 -7.999875,0 z m -1.999969,11.999813 9.999844,0 0,17.999718 3.999937,0 0,3.999938 -15.99975,0 0,-3.999938 3.999938,0 0,-13.999781 -1.999969,0 z"
     id="path4"
     inkscape:connector-curvature="0"
     sodipodi:nodetypes="ssssssssscccccccccccccccc" />
</svg>
