<svg xmlns="http://www.w3.org/2000/svg" viewBox="0 0 48 48" xmlns:xlink="http://www.w3.org/1999/xlink">
<g style="fill:none;stroke:#fff">
<g style="stroke-width:.5" transform="translate(-38.38147 -1006.10034)">
<path d="m 15,16.875 -2.184816,14.218428 19.934816,0 L 30,16.867078 z" transform="translate(0 1004.3622)"/>
<path d="m 12.741095,31.581214 0,3.027951 20.084798,0 0,-3.027951 z" transform="translate(0 1004.3622)"/>
</g>
<g style="stroke-width:.4" transform="translate(-39.59798 -1004.3622)">
<path d="m 24.860389,1036.3494 -9.148194,0 0,-0.9281 c 2.96581,0 6.426744,0 9.148195,0 z"/>
<path d="m 26.583962,1036.3494 4.507805,0 -2.61e-4,-0.6472 -4.507544,0 z"/>
</g>
</g>
<g transform="translate(0 -1004.3622)">
<path style="fill:#919fa9" d="M 23.78125 8 C 20.114348 8 17.15625 10.958098 17.15625 14.625 L 17.15625 24.8125 C 17.15625 28.479402 20.114348 31.4375 23.78125 31.4375 C 27.448152 31.4375 30.40625 28.479402 30.40625 24.8125 L 30.40625 14.625 C 30.40625 10.958098 27.448152 8 23.78125 8 z M 13.28125 23.96875 C 13.28125 23.96875 13.278676 35.721 22.90625 35.6875 L 22.90625 37.875 L 19.71875 37.875 L 19.71875 40 L 28.28125 40 L 28.28125 37.875 L 25.0625 37.875 L 25.0625 35.6875 C 35.697744 34.9973 34.6875 23.96875 34.6875 23.96875 L 32.53125 23.96875 C 32.53125 23.96875 32.557843 33.59375 24 33.59375 C 15.442157 33.59375 15.4375 23.96875 15.4375 23.96875 L 13.28125 23.96875 z " transform="translate(0 1004.3622)"/>
</g>
</svg>
