<?xml version="1.0" encoding="UTF-8" standalone="no"?>
<!-- Created with Inkscape (http://www.inkscape.org/) -->

<svg
   xmlns:dc="http://purl.org/dc/elements/1.1/"
   xmlns:cc="http://creativecommons.org/ns#"
   xmlns:rdf="http://www.w3.org/1999/02/22-rdf-syntax-ns#"
   xmlns:svg="http://www.w3.org/2000/svg"
   xmlns="http://www.w3.org/2000/svg"
   xmlns:xlink="http://www.w3.org/1999/xlink"
   xmlns:sodipodi="http://sodipodi.sourceforge.net/DTD/sodipodi-0.dtd"
   xmlns:inkscape="http://www.inkscape.org/namespaces/inkscape"
   width="32"
   height="32"
   id="svg2"
   version="1.1"
   inkscape:version="0.48.5 r10040"
   sodipodi:docname="folder-system.svg"
   inkscape:export-filename="/media/Data/Main/Visuals/Icons/Numix/Desktop/repos/numix-wiki/Gjorgi/Numix-folders/48/New/folder-144.png"
   inkscape:export-xdpi="270"
   inkscape:export-ydpi="270">
  <defs
     id="defs4">
    <linearGradient
       id="linearGradient3958"
       inkscape:collect="always">
      <stop
         id="stop3960"
         offset="0"
         style="stop-color:#000000;stop-opacity:1;" />
      <stop
         id="stop3962"
         offset="1"
         style="stop-color:#000000;stop-opacity:0;" />
    </linearGradient>
    <radialGradient
       gradientUnits="userSpaceOnUse"
       gradientTransform="matrix(1,0,0,0.10447761,0,50.597015)"
       r="33.5"
       fy="56.5"
       fx="32.5"
       cy="56.5"
       cx="32.5"
       id="radialGradient3964"
       xlink:href="#linearGradient3958"
       inkscape:collect="always" />
    <radialGradient
       inkscape:collect="always"
       xlink:href="#linearGradient3958"
       id="radialGradient3031"
       gradientUnits="userSpaceOnUse"
       gradientTransform="matrix(1,0,0,0.10447761,0,50.597015)"
       cx="32.5"
       cy="56.5"
       fx="32.5"
       fy="56.5"
       r="33.5" />
    <radialGradient
       gradientUnits="userSpaceOnUse"
       gradientTransform="matrix(1,0,0,0.10447761,0,50.597015)"
       r="33.5"
       fy="56.5"
       fx="32.5"
       cy="56.5"
       cx="32.5"
       id="radialGradient3964-3"
       xlink:href="#linearGradient3958-5"
       inkscape:collect="always" />
    <linearGradient
       id="linearGradient3958-5"
       inkscape:collect="always">
      <stop
         id="stop3960-1"
         offset="0"
         style="stop-color:#000000;stop-opacity:1;" />
      <stop
         id="stop3962-5"
         offset="1"
         style="stop-color:#000000;stop-opacity:0;" />
    </linearGradient>
  </defs>
  <sodipodi:namedview
     id="base"
     pagecolor="#ffffff"
     bordercolor="#666666"
     borderopacity="1.0"
     inkscape:pageopacity="0.0"
     inkscape:pageshadow="2"
     inkscape:zoom="21.767834"
     inkscape:cx="-8.7451409"
     inkscape:cy="-3.3756233"
     inkscape:document-units="px"
     inkscape:current-layer="layer1"
     showgrid="true"
     inkscape:window-width="1920"
     inkscape:window-height="1052"
     inkscape:window-x="0"
     inkscape:window-y="28"
     inkscape:window-maximized="1"
     showguides="true"
     inkscape:guide-bbox="true">
    <inkscape:grid
       type="xygrid"
       id="grid2985"
       empspacing="5"
       visible="true"
       enabled="true"
       snapvisiblegridlinesonly="true" />
  </sodipodi:namedview>
  <metadata
     id="metadata7">
    <rdf:RDF>
      <cc:Work
         rdf:about="">
        <dc:format>image/svg+xml</dc:format>
        <dc:type
           rdf:resource="http://purl.org/dc/dcmitype/StillImage" />
        <dc:title></dc:title>
      </cc:Work>
    </rdf:RDF>
  </metadata>
  <g
     inkscape:label="Layer 1"
     inkscape:groupmode="layer"
     id="layer1"
     transform="translate(0,-1020.3622)">
    <path
       sodipodi:type="arc"
       style="opacity:0.3;fill:url(#radialGradient3031);fill-opacity:1;stroke:none"
       id="path3956"
       sodipodi:cx="32.5"
       sodipodi:cy="56.5"
       sodipodi:rx="33.5"
       sodipodi:ry="3.5"
       d="m 66,56.5 a 33.5,3.5 0 1 1 -67,0 33.5,3.5 0 1 1 67,0 z"
       transform="matrix(0.71641791,0,0,0.85714286,-7.2835821,999.9336)" />
    <path
       sodipodi:nodetypes="ccccccccc"
       inkscape:connector-curvature="0"
       id="path3029"
       d="m 0,1024.8916 0,21.4118 32,0 0,-10.7059 -1.52381,-9.1765 -11.97619,-0.059 -1.5,-3 -15.476191,0 C 0.761905,1023.362 0,1024.1267 0,1024.8914 z"
       style="fill:#ef6c00;fill-opacity:1;stroke:none" />
    <rect
       style="fill:#fffdf0;fill-opacity:1;stroke:none"
       id="rect3799"
       width="15.785714"
       height="5.9411421"
       x="2.4999962"
       y="1027.3622" />
    <path
       style="opacity:0.02999998;fill:#000000;fill-opacity:1;stroke:none"
       d="M 1.53125,1023.3622 C 0.769345,1023.3622 0,1024.1288 0,1024.8935 l 0,1 c 0,-0.7647 0.769345,-1.5313 1.53125,-1.5313 l 14.96875,0 1.5,3 12.46875,0.062 1.53125,9.1719 0,-1 -1.53125,-9.1719 -11.96875,-0.062 -1.5,-3 z"
       id="path3790"
       inkscape:connector-curvature="0"
       sodipodi:nodetypes="sscsccccccccs" />
    <path
       style="fill:#ffa726;fill-opacity:1;stroke:none"
       d="m 32,1027.9505 0,21.4117 -32,0 0,-20 15,0 1.5,-3 13.97619,0.059 c 0.761905,0 1.52381,0.7648 1.52381,1.5295 z"
       id="rect2987"
       inkscape:connector-curvature="0"
       sodipodi:nodetypes="cccccccc" />
    <path
       sodipodi:nodetypes="ccccc"
       id="path3794"
       d="m 0,1048.3622 0,1 32,0 0,-1 z"
       style="opacity:0.15;fill:#000000;fill-opacity:1;stroke:none"
       inkscape:connector-curvature="0" />
    <path
       style="opacity:0.02999998;fill:#000000;fill-opacity:1;stroke:none"
       d="m 16.5,1026.3622 -1.5,3 -15,0 0,1 15.5,0 1.5,-3 13.46875,0.062 c 0.761904,0 1.53125,0.7666 1.53125,1.5313 l 0,-1 c 0,-0.7647 -0.769346,-1.5313 -1.53125,-1.5313 z"
       id="path3015"
       inkscape:connector-curvature="0"
       sodipodi:nodetypes="ccccccccscc" />
    <path
       id="path4139"
       d="m 15.250215,1033.3622 c -2.559207,0 -5.250215,2.6912 -5.250215,6.0001 0,3.3089 2.691012,5.9999 5.250215,5.9999 4.058773,0 6.749785,-2.691 6.749785,-5.9999 0,-3.3089 -2.691008,-6.0001 -6,-6.0001 z m 1.237284,0.8439 c 0.559256,0.052 1.101118,0.1794 1.593751,0.3938 -0.03792,0.047 -0.06723,0.089 -0.09375,0.1687 -0.151523,0.4545 -0.377665,0.2378 -0.112502,0.8061 0.265164,0.5681 0.486739,0.715 0.562499,0.4499 0.07577,-0.265 -0.190545,-0.6391 0.112501,-0.4875 0.303047,0.1516 0.527285,-0.041 0.3,0.3003 -0.227285,0.3408 -0.222335,0.5256 -0.4875,0.4498 -0.265165,-0.076 -0.259833,0.4494 -0.525,0.5251 -0.265164,0.076 -0.35625,-0.1144 -0.35625,0.075 0,0.1893 0.15038,0.015 0.112502,0.3188 -0.01155,0.093 -0.0082,0.1094 -0.01875,0.15 -0.248906,-0.071 -0.359917,-0.1108 -0.543749,-0.038 -0.189405,0.076 -0.4125,0.5626 -0.4125,0.5626 0.236601,0.2366 0.346378,0.407 0.431249,0.4875 -0.05296,0.027 -0.116666,0.038 -0.16875,0.075 -0.378808,0.2653 -0.673859,0.3152 -0.7875,0.6937 -0.113644,0.3792 -0.07499,0.032 -0.07499,0.4875 0,0.4546 -0.114787,0.1458 0.112501,0.5627 0.227284,0.4166 0.784834,0.6163 1.049999,0.8437 0.265166,0.2271 0.53842,-0.4945 1.06875,0.1875 0.53033,0.6817 0.564405,0.4086 0.375,0.7876 -0.189405,0.3788 -0.374238,0.5047 -0.449999,0.6562 -0.07577,0.1514 0.147335,0.6739 0.4125,0.7874 0.0055,0 0.01281,0 0.01875,0 -0.01412,0.033 -0.02351,0.062 -0.03751,0.094 -0.343375,0.1559 -0.764305,0.3711 -0.843751,0.3936 -0.1875,0.054 -0.849107,0.1659 -1.33125,0.2999 -0.06027,0.017 -0.107711,0.017 -0.131249,0.019 0.05994,-0.065 0.533859,-0.313 0.768749,-0.4498 0.32143,-0.1879 -0.01875,-0.1688 -0.01875,-0.1688 0,0 -0.511607,-0.057 -1.556249,-0.057 -0.522322,0 -0.74866,0.024 -0.862501,0.057 -0.05692,0.017 -0.08488,0.034 -0.1125,0.056 -0.02763,0.024 -0.04687,0.048 -0.09375,0.075 -0.187502,0.1071 0.109818,0.2197 -0.131249,0.2999 -0.180803,0.06 -0.201814,0 -0.356249,-0.1131 0.110165,-0.1095 0.262187,-0.2414 0.449999,-0.4687 0.340927,-0.4125 0.448858,-0.3374 0.562499,-0.7124 0.113645,-0.3752 -0.956248,-0.2624 -0.956248,-0.4875 0,-0.225 -0.184075,-0.375 -0.525,-0.525 -0.340927,-0.1501 -0.108698,-0.2251 -0.487501,-0.3376 -0.378806,-0.1121 -0.805107,0.5625 -0.918749,0.3376 -0.113645,-0.2251 0.35625,-0.2251 0.35625,-0.4875 0,-0.2561 -0.540273,0.1934 -0.637502,-0.1312 -0.0025,-0.012 -0.01685,-0.012 -0.01875,-0.019 -0.0095,-0.048 -0.0033,-0.075 0,-0.1121 0.02384,-0.2696 0.336168,-0.3748 0.468751,-0.6375 0.151524,-0.2997 0.07309,0.2252 0.2625,0.4877 0.189404,0.2625 0.113645,-0.3376 0,-0.675 -0.113644,-0.3377 0.07234,-0.3375 0.337501,-0.7876 0.265165,-0.4501 0.2625,-0.7124 0.2625,-1.05 0,-0.3374 0.183693,-0.3747 0.562499,-0.7126 0.17362,-0.1544 0.309836,-0.2893 0.4125,-0.4123 0.02481,-0.012 0.04989,-0.012 0.075,-0.02 0.401787,-0.1607 0.570535,-0.4017 0.91875,-1.125 0.348216,-0.7231 -0.136607,-0.048 -0.243751,-0.075 -0.107144,-0.026 -0.262499,-0.2169 -0.6375,-0.4312 -0.07734,-0.044 -0.146359,-0.065 -0.206249,-0.074 l 0.693751,-1.1437 c 0.222221,-0.06 0.46081,-0.1012 0.693749,-0.1314 0.08523,0.485 0.03751,0.9376 0.03751,0.9376 0,0 -0.13125,0.1553 -0.13125,0.2625 0,0.1072 0.717857,-0.8839 0.825,-0.9375 0.107145,-0.054 0.377678,0.284 0.431249,-0.225 0.003,-0.029 -0.0034,-0.03 0,-0.056 z m 1.0125,2.0249 c -0.03847,-0.012 -0.0839,0 -0.131248,0.02 0,0.1327 -0.05132,0.2291 -0.07499,0.2812 -0.01409,-0.024 -0.05626,-0.056 -0.05626,-0.056 -0.05681,0.1049 -0.179364,0.1972 -0.05626,0.1688 0.123113,-0.028 0.216482,0.048 0.131251,-0.056 -0.01639,-0.019 -0.0087,-0.011 -0.01875,-0.019 0.01597,0.012 0.04621,0.019 0.112501,0.019 0.07459,0 0.114679,0 0.168749,0 -0.09145,0.068 -0.1912,0.096 -0.05626,0.1312 0.179933,0.048 0.2625,0.057 0.2625,0.02 0,-0.038 -0.05624,-0.1687 -0.05624,-0.1687 0.03516,-0.014 0.06781,-0.032 0.03751,-0.094 -0.05682,-0.1131 -0.147083,-0.226 -0.262502,-0.2437 z m 2.868751,0.3186 c 0.09369,0.1456 0.183435,0.2952 0.2625,0.4501 -0.05215,0.3025 -0.184609,0.5063 0.03751,0.5063 0.0621,0 0.117496,-0.014 0.16875,-0.02 0.007,0.018 0.01204,0.039 0.01875,0.056 -0.378808,0 -0.560596,0.1132 -0.75,0.075 -0.189405,-0.038 -0.715926,-0.072 -0.375,-0.4124 0.199257,-0.1993 0.448165,-0.5159 0.6375,-0.6564 z m -2.3625,0.694 c 0.03491,0.012 0.06535,0.048 0.09375,0.1118 0.113645,0.2653 0.301523,0.4872 0.150001,0.5251 -0.151524,0.038 -0.225001,0.075 -0.225001,0.075 0,0 0.524619,0.3411 0.5625,-0.037 0.03789,-0.3789 -0.15,-0.6002 -0.15,-0.6002 0,0 0.26174,0.2611 0.3375,0.4127 0.07577,0.1515 0.0731,0 0.262501,0.1875 0.189403,0.1893 0.147335,-0.7527 0.4125,-0.4875 0.265166,0.2651 0.432012,0.2606 0.356249,0.4499 -0.07577,0.1893 0.487502,-0.2287 0.487502,0.15 0,0.3652 0.232901,0.5134 -0.225,0.6938 -0.173367,-0.012 -0.310586,-0.041 -0.337502,-0.094 -0.07576,-0.1513 -0.506249,-0.037 -0.506249,-0.037 -1.133188,-0.2832 -1.625145,-0.373 -1.950001,-0.3187 0.0061,-0.012 0.0121,-0.012 0.01875,-0.019 0.165728,-0.2985 0.477545,-0.713 0.375,-0.8625 0.144428,-0.083 0.257643,-0.1743 0.3375,-0.1502 z m 3.1875,1.8936 c 0.0034,0.076 0,0.1481 0,0.225 0,0.2133 -0.01279,0.4311 -0.03751,0.6375 -0.340809,-0.3032 -0.825001,-0.2999 -0.825001,-0.2999 0,0 0.295812,-0.336 0.712501,-0.4876 0.05209,-0.02 0.107903,-0.045 0.15,-0.075 z"
       style="line-height:normal;opacity:1.0;color:#000000;fill:#b17621;fill-opacity:1"
       inkscape:connector-curvature="0" />
  </g>
</svg>
