<?xml version="1.0" encoding="UTF-8" standalone="no"?>
<!-- Created with Inkscape (http://www.inkscape.org/) -->

<svg
   xmlns:dc="http://purl.org/dc/elements/1.1/"
   xmlns:cc="http://creativecommons.org/ns#"
   xmlns:rdf="http://www.w3.org/1999/02/22-rdf-syntax-ns#"
   xmlns:svg="http://www.w3.org/2000/svg"
   xmlns="http://www.w3.org/2000/svg"
   xmlns:xlink="http://www.w3.org/1999/xlink"
   xmlns:sodipodi="http://sodipodi.sourceforge.net/DTD/sodipodi-0.dtd"
   xmlns:inkscape="http://www.inkscape.org/namespaces/inkscape"
   width="24"
   height="24"
   id="svg2"
   version="1.1"
   inkscape:version="0.48.5 r10040"
   sodipodi:docname="network.svg"
   inkscape:export-filename="/media/Data/Main/Visuals/Icons/Numix/Desktop/repos/numix-wiki/Gjorgi/Numix-folders/48/New/folder-144.png"
   inkscape:export-xdpi="270"
   inkscape:export-ydpi="270">
  <defs
     id="defs4">
    <radialGradient
       inkscape:collect="always"
       xlink:href="#linearGradient3760"
       id="radialGradient3766"
       cx="11"
       cy="19"
       fx="11"
       fy="19"
       r="11"
       gradientTransform="matrix(1,0,0,0.09090909,0,17.272727)"
       gradientUnits="userSpaceOnUse" />
    <linearGradient
       inkscape:collect="always"
       id="linearGradient3760">
      <stop
         style="stop-color:#000000;stop-opacity:1;"
         offset="0"
         id="stop3762" />
      <stop
         style="stop-color:#000000;stop-opacity:0;"
         offset="1"
         id="stop3764" />
    </linearGradient>
    <radialGradient
       r="11"
       fy="19"
       fx="11"
       cy="19"
       cx="11"
       gradientTransform="matrix(1,0,0,0.09090909,0,17.272727)"
       gradientUnits="userSpaceOnUse"
       id="radialGradient3783"
       xlink:href="#linearGradient3760"
       inkscape:collect="always" />
  </defs>
  <sodipodi:namedview
     id="base"
     pagecolor="#ffffff"
     bordercolor="#666666"
     borderopacity="1.0"
     inkscape:pageopacity="0.0"
     inkscape:pageshadow="2"
     inkscape:zoom="45.206341"
     inkscape:cx="6.2261744"
     inkscape:cy="11.723393"
     inkscape:document-units="px"
     inkscape:current-layer="layer1"
     showgrid="true"
     inkscape:window-width="1920"
     inkscape:window-height="1052"
     inkscape:window-x="0"
     inkscape:window-y="28"
     inkscape:window-maximized="1"
     showguides="true"
     inkscape:guide-bbox="true">
    <inkscape:grid
       type="xygrid"
       id="grid2985"
       empspacing="5"
       visible="true"
       enabled="true"
       snapvisiblegridlinesonly="true" />
  </sodipodi:namedview>
  <metadata
     id="metadata7">
    <rdf:RDF>
      <cc:Work
         rdf:about="">
        <dc:format>image/svg+xml</dc:format>
        <dc:type
           rdf:resource="http://purl.org/dc/dcmitype/StillImage" />
        <dc:title />
      </cc:Work>
    </rdf:RDF>
  </metadata>
  <g
     inkscape:label="Layer 1"
     inkscape:groupmode="layer"
     id="layer1"
     transform="translate(0,-1028.3622)">
    <path
       sodipodi:type="arc"
       style="opacity:0.25;fill:url(#radialGradient3783);fill-opacity:1;stroke:none"
       id="path2990"
       sodipodi:cx="11"
       sodipodi:cy="19"
       sodipodi:rx="11"
       sodipodi:ry="1"
       d="M 22,19 A 11,1 0 1 1 0,19 11,1 0 1 1 22,19 z"
       transform="matrix(1.1818182,0,0,1,-1,1030.3622)" />
    <path
       sodipodi:nodetypes="ccccccccc"
       inkscape:connector-curvature="0"
       id="path3029"
       d="m 1,1032.3622 0,14 22,0 0,-7 -1,-6 -8,0 -1,-2 -11,0 c -0.5,0 -1,0.5 -1,1 z"
       style="fill:#ef6c00;fill-opacity:1;stroke:none" />
    <path
       style="opacity:0.02999998;fill:#000000;fill-opacity:1;stroke:none"
       d="m 2,1031.3622 c -0.5,0 -1,0.5 -1,1 l 0,1 c 0,-0.5 0.5,-1 1,-1 l 10,0 1,2 9,0 0,6 0,-1 0,-6 -8,0 -1,-2 z"
       id="path3806"
       inkscape:connector-curvature="0"
       sodipodi:nodetypes="sscsccccccccs" />
    <rect
       style="fill:#fffdf0;fill-opacity:1;stroke:none"
       id="rect3799"
       width="10"
       height="3.9999914"
       x="3"
       y="1034.3622" />
    <path
       style="fill:#ffa726;fill-opacity:1;stroke:none"
       d="m 23,1034.4289 0,14.9333 -22,0 0,-14 11,0 1,-2 9,0 c 0.5,0 1,0.5333 1,1.0667 z"
       id="rect2987"
       inkscape:connector-curvature="0"
       sodipodi:nodetypes="cccccccc" />
    <path
       sodipodi:nodetypes="ccccc"
       id="path3794"
       d="m 1,1048.3622 0,1 22,0 0,-1 z"
       style="opacity:0.15;fill:#000000;fill-opacity:1;stroke:none"
       inkscape:connector-curvature="0" />
    <path
       style="fill:none;stroke:none"
       d="m 12,1033.8622 -2.5,1.5 1.5,0 z"
       id="path3801"
       inkscape:connector-curvature="0" />
    <path
       style="opacity:0.02999998;fill:#000000;fill-opacity:1;stroke:none"
       d="m 13,1033.3622 -1,2 -11,0 0,1 12,0 1,-2 8,0 c 0.5,0 1,0.5 1,1 l 0,-1 c 0,-0.5 -0.5,-1 -1,-1 z"
       id="path3033"
       inkscape:connector-curvature="0"
       sodipodi:nodetypes="ccccccscssc" />
    <path
       id="path4139"
       d="M 11.375179,1037.3622 C 9.2425069,1037.3622 7,1039.6048 7,1042.3623 c 0,2.7573 2.24251,4.9999 4.375179,4.9999 3.382311,0 5.624821,-2.2426 5.624821,-4.9999 0,-2.7575 -2.242506,-5.0001 -5,-5.0001 z m 1.03107,0.7033 c 0.466047,0.043 0.917599,0.1495 1.328126,0.3281 -0.0316,0.039 -0.05602,0.074 -0.07812,0.1406 -0.126269,0.3787 -0.314721,0.1982 -0.09375,0.6717 0.220971,0.4734 0.405616,0.5959 0.468749,0.3749 0.06314,-0.2208 -0.158787,-0.5325 0.09375,-0.4062 0.252539,0.1263 0.439404,-0.034 0.25,0.2502 -0.189404,0.2841 -0.185279,0.4381 -0.406249,0.3749 -0.220972,-0.064 -0.216528,0.3744 -0.437501,0.4376 -0.22097,0.063 -0.296874,-0.095 -0.296874,0.063 0,0.1577 0.125316,0.013 0.09375,0.2657 -0.0096,0.077 -0.0068,0.091 -0.01562,0.1249 -0.207422,-0.059 -0.299931,-0.092 -0.453125,-0.032 -0.157837,0.063 -0.34375,0.4688 -0.34375,0.4688 0.197168,0.1972 0.288649,0.3391 0.359375,0.4063 -0.04413,0.022 -0.09722,0.031 -0.140625,0.063 -0.315674,0.221 -0.56155,0.2626 -0.65625,0.578 -0.0947,0.316 -0.06249,0.027 -0.06249,0.4062 0,0.379 -0.09566,0.1215 0.09375,0.469 0.189403,0.3472 0.654028,0.5135 0.874999,0.703 0.220971,0.1893 0.448683,-0.412 0.890625,0.1563 0.441941,0.5682 0.470337,0.3405 0.3125,0.6563 -0.157837,0.3157 -0.311865,0.4206 -0.374999,0.5469 -0.06314,0.1262 0.122779,0.5615 0.34375,0.6561 0.0046,0 0.01067,0 0.01562,0 -0.01176,0.027 -0.01959,0.051 -0.03126,0.078 -0.286147,0.1299 -0.636921,0.3092 -0.703127,0.328 -0.15625,0.045 -0.707588,0.1383 -1.109374,0.2499 -0.05022,0.014 -0.08976,0.014 -0.109375,0.016 0.04995,-0.054 0.444883,-0.2608 0.640624,-0.3748 0.267859,-0.1566 -0.01562,-0.1407 -0.01562,-0.1407 0,0 -0.426339,-0.048 -1.296874,-0.048 -0.435269,0 -0.623884,0.019 -0.71875,0.048 -0.04743,0.014 -0.07073,0.028 -0.09375,0.047 -0.02302,0.019 -0.03906,0.04 -0.07812,0.063 -0.156253,0.089 0.09151,0.183 -0.109375,0.2499 -0.150669,0.05 -0.168178,0 -0.296874,-0.094 0.0918,-0.091 0.218489,-0.2013 0.374999,-0.3907 0.284105,-0.3437 0.374048,-0.2811 0.46875,-0.5936 0.0947,-0.3127 -0.796874,-0.2187 -0.796874,-0.4063 0,-0.1875 -0.153396,-0.3124 -0.4375003,-0.4375 -0.2841057,-0.1251 -0.090581,-0.1876 -0.4062507,-0.2813 -0.3156718,-0.093 -0.6709225,0.4687 -0.7656243,0.2813 -0.094704,-0.1876 0.296875,-0.1876 0.296875,-0.4062 0,-0.2135 -0.4502275,0.1611 -0.5312513,-0.1094 -0.00213,-0.01 -0.014044,-0.01 -0.015625,-0.016 -0.00793,-0.039 -0.00281,-0.063 0,-0.093 0.019862,-0.2247 0.28014,-0.3125 0.3906256,-0.5313 0.12627,-0.2497 0.060913,0.1877 0.21875,0.4063 0.1578369,0.2188 0.094704,-0.2812 0,-0.5625 -0.094703,-0.2813 0.060281,-0.2812 0.2812507,-0.6562 0.2209705,-0.375 0.21875,-0.5938 0.21875,-0.875 0,-0.2813 0.1530775,-0.3123 0.4687493,-0.5938 0.144684,-0.1287 0.258196,-0.2411 0.34375,-0.3437 0.02068,-0.01 0.04157,-0.01 0.0625,-0.016 0.334823,-0.134 0.475446,-0.3348 0.765625,-0.9376 0.29018,-0.6025 -0.113839,-0.04 -0.203125,-0.062 -0.08929,-0.022 -0.21875,-0.1808 -0.531251,-0.3594 -0.06445,-0.037 -0.121966,-0.054 -0.171874,-0.062 l 0.578125,-0.9531 c 0.185185,-0.05 0.384009,-0.084 0.578125,-0.1095 0.07102,0.4042 0.03126,0.7814 0.03126,0.7814 0,0 -0.109375,0.1294 -0.109375,0.2187 0,0.089 0.598214,-0.7366 0.6875,-0.7812 0.08929,-0.045 0.314731,0.2366 0.359374,-0.1875 0.0025,-0.024 -0.0028,-0.025 0,-0.047 z m 0.84375,1.6874 c -0.03206,-0.01 -0.06992,-10e-5 -0.109373,0.016 0,0.1105 -0.04277,0.1909 -0.06249,0.2344 -0.01174,-0.02 -0.04688,-0.047 -0.04688,-0.047 -0.04734,0.087 -0.14947,0.1643 -0.04688,0.1406 0.102593,-0.023 0.180401,0.04 0.109375,-0.047 -0.01366,-0.016 -0.0072,-0.01 -0.01562,-0.016 0.01331,0.01 0.03851,0.016 0.09375,0.016 0.06216,0 0.09557,0 0.140624,0 -0.07621,0.056 -0.159333,0.08 -0.04688,0.1093 0.149944,0.039 0.21875,0.047 0.21875,0.016 0,-0.031 -0.04687,-0.1406 -0.04687,-0.1406 0.02929,-0.012 0.05651,-0.027 0.03126,-0.078 -0.04735,-0.094 -0.122569,-0.1883 -0.218751,-0.2031 z m 2.390626,0.2655 c 0.07807,0.1213 0.152862,0.246 0.218751,0.3751 -0.04346,0.2521 -0.153842,0.4219 0.03126,0.4219 0.05175,0 0.09791,-0.011 0.140625,-0.016 0.0058,0.015 0.01003,0.032 0.01563,0.047 -0.315674,0 -0.467164,0.094 -0.625,0.063 -0.157837,-0.032 -0.596605,-0.06 -0.3125,-0.3437 0.166047,-0.1661 0.37347,-0.4299 0.53125,-0.547 z m -1.96875,0.5783 c 0.02909,0.01 0.05446,0.039 0.07812,0.093 0.0947,0.2211 0.251269,0.406 0.125,0.4376 -0.12627,0.031 -0.187501,0.063 -0.187501,0.063 0,0 0.437183,0.2843 0.468751,-0.031 0.03157,-0.3158 -0.125,-0.5002 -0.125,-0.5002 0,0 0.218116,0.2176 0.28125,0.3439 0.06314,0.1262 0.06091,0 0.21875,0.1563 0.157836,0.1577 0.122779,-0.6273 0.34375,-0.4063 0.220972,0.221 0.36001,0.2172 0.296875,0.375 -0.06314,0.1577 0.406251,-0.1907 0.406251,0.125 0,0.3042 0.194084,0.4277 -0.1875,0.5781 -0.144472,-0.01 -0.258821,-0.034 -0.281251,-0.078 -0.06314,-0.1261 -0.421875,-0.031 -0.421875,-0.031 -0.944323,-0.236 -1.354287,-0.3108 -1.625,-0.2656 0.0051,-0.01 0.01009,-0.01 0.01562,-0.016 0.138107,-0.2488 0.397954,-0.5942 0.3125,-0.7188 0.120356,-0.069 0.214702,-0.1453 0.28125,-0.1251 z m 2.65625,1.578 c 0.0028,0.064 0,0.1234 0,0.1876 0,0.1777 -0.01066,0.3591 -0.03126,0.5311 -0.284007,-0.2526 -0.687501,-0.2499 -0.687501,-0.2499 0,0 0.24651,-0.28 0.593751,-0.4063 0.04341,-0.016 0.08992,-0.037 0.125,-0.063 z"
       style="line-height:normal;opacity:1.0;color:#000000;fill:#b17621;fill-opacity:1"
       inkscape:connector-curvature="0" />
  </g>
</svg>
