<?xml version="1.0" encoding="UTF-8" standalone="no"?>
<!-- Created with Inkscape (http://www.inkscape.org/) -->

<svg
   xmlns:dc="http://purl.org/dc/elements/1.1/"
   xmlns:cc="http://creativecommons.org/ns#"
   xmlns:rdf="http://www.w3.org/1999/02/22-rdf-syntax-ns#"
   xmlns:svg="http://www.w3.org/2000/svg"
   xmlns="http://www.w3.org/2000/svg"
   xmlns:xlink="http://www.w3.org/1999/xlink"
   xmlns:sodipodi="http://sodipodi.sourceforge.net/DTD/sodipodi-0.dtd"
   xmlns:inkscape="http://www.inkscape.org/namespaces/inkscape"
   width="24"
   height="24"
   id="svg2"
   version="1.1"
   inkscape:version="0.48.5 r10040"
   sodipodi:docname="folder-copy.svg"
   inkscape:export-filename="/media/Data/Main/Visuals/Icons/Numix/Desktop/repos/numix-wiki/Gjorgi/Numix-folders/48/New/folder-144.png"
   inkscape:export-xdpi="270"
   inkscape:export-ydpi="270">
  <defs
     id="defs4">
    <linearGradient
       inkscape:collect="always"
       id="linearGradient3760">
      <stop
         style="stop-color:#000000;stop-opacity:1;"
         offset="0"
         id="stop3762" />
      <stop
         style="stop-color:#000000;stop-opacity:0;"
         offset="1"
         id="stop3764" />
    </linearGradient>
    <radialGradient
       inkscape:collect="always"
       xlink:href="#linearGradient3760"
       id="radialGradient3766"
       cx="11"
       cy="19"
       fx="11"
       fy="19"
       r="11"
       gradientTransform="matrix(1,0,0,0.09090909,0,17.272727)"
       gradientUnits="userSpaceOnUse" />
  </defs>
  <sodipodi:namedview
     id="base"
     pagecolor="#ffffff"
     bordercolor="#666666"
     borderopacity="1.0"
     inkscape:pageopacity="0.0"
     inkscape:pageshadow="2"
     inkscape:zoom="32.002744"
     inkscape:cx="11.285136"
     inkscape:cy="10.631938"
     inkscape:document-units="px"
     inkscape:current-layer="layer1"
     showgrid="true"
     inkscape:window-width="1920"
     inkscape:window-height="1052"
     inkscape:window-x="0"
     inkscape:window-y="28"
     inkscape:window-maximized="1"
     showguides="true"
     inkscape:guide-bbox="true">
    <inkscape:grid
       type="xygrid"
       id="grid2985"
       empspacing="5"
       visible="true"
       enabled="true"
       snapvisiblegridlinesonly="true" />
  </sodipodi:namedview>
  <metadata
     id="metadata7">
    <rdf:RDF>
      <cc:Work
         rdf:about="">
        <dc:format>image/svg+xml</dc:format>
        <dc:type
           rdf:resource="http://purl.org/dc/dcmitype/StillImage" />
        <dc:title />
      </cc:Work>
    </rdf:RDF>
  </metadata>
  <g
     inkscape:label="Layer 1"
     inkscape:groupmode="layer"
     id="layer1"
     transform="translate(0,-1028.3622)">
    <g
       id="g3787"
       transform="translate(1,-3)">
      <path
         sodipodi:nodetypes="ccccccccc"
         inkscape:connector-curvature="0"
         id="path3773"
         d="m 2,1035.8622 0,7 11,0 0,-3.5 -0.5,-3 -4,0 -0.5,-1 -5.5,0 c -0.25,0 -0.5,0.25 -0.5,0.5 z"
         style="fill:#ef6c00;fill-opacity:1;stroke:none" />
      <rect
         style="fill:#fffdf0;fill-opacity:1;stroke:none"
         id="rect3775"
         width="4"
         height="2.4999783"
         x="4"
         y="1036.3622" />
      <path
         inkscape:connector-curvature="0"
         style="opacity:0.02999998;fill:#000000;fill-opacity:1;stroke:none"
         d="m 2.5,1035.3622 c -0.25,0 -0.5,0.25 -0.5,0.5 l 0,1 c 0,-0.25 0.25,-0.5 0.5,-0.5 l 5.5,0 0.5,1 4,0 0.5,3 0,-1 -0.5,-3 -4,0 -0.5,-1 -5.5,0 z"
         id="path3777" />
      <path
         style="fill:#ffa726;fill-opacity:1;stroke:none"
         d="m 13,1036.8956 0,7.4666 -11,0 0,-7 5.5,0 0.5,-1 4.5,0 c 0.25,0 0.5,0.2667 0.5,0.5334 z"
         id="path3779"
         inkscape:connector-curvature="0"
         sodipodi:nodetypes="cccccccc" />
      <path
         sodipodi:nodetypes="ccccc"
         id="path3781"
         d="m 2,1043.3622 0,1 11,0 0,-1 z"
         style="opacity:0.15;fill:#000000;fill-opacity:1;stroke:none"
         inkscape:connector-curvature="0" />
      <path
         style="fill:none;stroke:none"
         d="m 7.5,1036.6122 -1.25,0.75 0.75,0 z"
         id="path3783"
         inkscape:connector-curvature="0" />
      <path
         style="opacity:0.02999998;fill:#000000;fill-opacity:1;stroke:none"
         d="m 8,1036.3622 -0.5,1 -5.5,0 0,1 6.25,0 0.5,-1 3.75,0 c 0.25,0 0.5,0.2646 0.5,0.5313 l 0,-1 c 0,-0.2667 -0.25,-0.5313 -0.5,-0.5313 z"
         id="path3785"
         inkscape:connector-curvature="0"
         sodipodi:nodetypes="ccccccscssc" />
    </g>
    <path
       sodipodi:nodetypes="ccccccccc"
       inkscape:connector-curvature="0"
       id="path3029"
       d="m 10,1039.8622 0,7 11,0 0,-3.5 -0.5,-3 -4,0 -0.5,-1 -5.5,0 c -0.25,0 -0.5,0.25 -0.5,0.5 z"
       style="fill:#ef6c00;fill-opacity:1;stroke:none" />
    <rect
       style="fill:#fffdf0;fill-opacity:1;stroke:none"
       id="rect3799"
       width="4"
       height="2.4999783"
       x="12"
       y="1040.3622" />
    <path
       style="opacity:0.02999998;fill:#000000;fill-opacity:1;stroke:none"
       d="m 10.5,1039.3622 c -0.25,0 -0.5,0.25 -0.5,0.5 l 0,1 c 0,-0.25 0.25,-0.5 0.5,-0.5 l 5.5,0 0.5,1 4,0 0.5,3 0,-1 -0.5,-3 -4,0 -0.5,-1 -5.5,0 z"
       id="path3768"
       inkscape:connector-curvature="0" />
    <path
       style="fill:#ffa726;fill-opacity:1;stroke:none"
       d="m 21,1040.8956 0,7.4666 -11,0 0,-7 5.5,0 0.5,-1 4.5,0 c 0.25,0 0.5,0.2667 0.5,0.5334 z"
       id="rect2987"
       inkscape:connector-curvature="0"
       sodipodi:nodetypes="cccccccc" />
    <path
       sodipodi:nodetypes="ccccc"
       id="path3794"
       d="m 10,1047.3622 0,1 11,0 0,-1 z"
       style="opacity:0.15;fill:#000000;fill-opacity:1;stroke:none"
       inkscape:connector-curvature="0" />
    <path
       style="fill:none;stroke:none"
       d="m 15.5,1040.6122 -1.25,0.75 0.75,0 z"
       id="path3801"
       inkscape:connector-curvature="0" />
    <path
       style="opacity:0.02999998;fill:#000000;fill-opacity:1;stroke:none"
       d="m 16,1040.3622 -0.5,1 -5.5,0 0,1 6.25,0 0.5,-1 3.75,0 c 0.25,0 0.5,0.2646 0.5,0.5313 l 0,-1 c 0,-0.2667 -0.25,-0.5313 -0.5,-0.5313 z"
       id="path2995"
       inkscape:connector-curvature="0"
       sodipodi:nodetypes="ccccccscssc" />
  </g>
</svg>
