<?xml version="1.0" encoding="UTF-8" standalone="no"?>
<!-- Created with Inkscape (http://www.inkscape.org/) -->

<svg
   xmlns:dc="http://purl.org/dc/elements/1.1/"
   xmlns:cc="http://creativecommons.org/ns#"
   xmlns:rdf="http://www.w3.org/1999/02/22-rdf-syntax-ns#"
   xmlns:svg="http://www.w3.org/2000/svg"
   xmlns="http://www.w3.org/2000/svg"
   xmlns:xlink="http://www.w3.org/1999/xlink"
   xmlns:sodipodi="http://sodipodi.sourceforge.net/DTD/sodipodi-0.dtd"
   xmlns:inkscape="http://www.inkscape.org/namespaces/inkscape"
   width="24"
   height="24"
   id="svg2"
   version="1.1"
   inkscape:version="0.48.5 r10040"
   sodipodi:docname="folder-project.svg"
   inkscape:export-filename="/media/Data/Main/Visuals/Icons/Numix/Desktop/repos/numix-wiki/Gjorgi/Numix-folders/48/New/folder-144.png"
   inkscape:export-xdpi="270"
   inkscape:export-ydpi="270">
  <defs
     id="defs4">
    <radialGradient
       inkscape:collect="always"
       xlink:href="#linearGradient3760"
       id="radialGradient3766"
       cx="11"
       cy="19"
       fx="11"
       fy="19"
       r="11"
       gradientTransform="matrix(1,0,0,0.09090909,0,17.272727)"
       gradientUnits="userSpaceOnUse" />
    <linearGradient
       inkscape:collect="always"
       id="linearGradient3760">
      <stop
         style="stop-color:#000000;stop-opacity:1;"
         offset="0"
         id="stop3762" />
      <stop
         style="stop-color:#000000;stop-opacity:0;"
         offset="1"
         id="stop3764" />
    </linearGradient>
    <radialGradient
       r="11"
       fy="19"
       fx="11"
       cy="19"
       cx="11"
       gradientTransform="matrix(1,0,0,0.09090909,0,17.272727)"
       gradientUnits="userSpaceOnUse"
       id="radialGradient3783"
       xlink:href="#linearGradient3760"
       inkscape:collect="always" />
  </defs>
  <sodipodi:namedview
     id="base"
     pagecolor="#ffffff"
     bordercolor="#666666"
     borderopacity="1.0"
     inkscape:pageopacity="0.0"
     inkscape:pageshadow="2"
     inkscape:zoom="15.982855"
     inkscape:cx="22.334155"
     inkscape:cy="-1.1470685"
     inkscape:document-units="px"
     inkscape:current-layer="layer1"
     showgrid="true"
     inkscape:window-width="1280"
     inkscape:window-height="998"
     inkscape:window-x="0"
     inkscape:window-y="0"
     inkscape:window-maximized="1"
     showguides="true"
     inkscape:guide-bbox="true">
    <inkscape:grid
       type="xygrid"
       id="grid2985"
       empspacing="5"
       visible="true"
       enabled="true"
       snapvisiblegridlinesonly="true" />
  </sodipodi:namedview>
  <metadata
     id="metadata7">
    <rdf:RDF>
      <cc:Work
         rdf:about="">
        <dc:format>image/svg+xml</dc:format>
        <dc:type
           rdf:resource="http://purl.org/dc/dcmitype/StillImage" />
        <dc:title />
      </cc:Work>
    </rdf:RDF>
  </metadata>
  <g
     inkscape:label="Layer 1"
     inkscape:groupmode="layer"
     id="layer1"
     transform="translate(0,-1028.3622)">
    <path
       sodipodi:type="arc"
       style="opacity:0.25;fill:url(#radialGradient3783);fill-opacity:1;stroke:none"
       id="path2990"
       sodipodi:cx="11"
       sodipodi:cy="19"
       sodipodi:rx="11"
       sodipodi:ry="1"
       d="m 22,19 c 0,0.552285 -4.924868,1 -11,1 -6.0751322,0 -11,-0.447715 -11,-1 0,-0.552285 4.9248678,-1 11,-1 6.075132,0 11,0.447715 11,1 z"
       transform="matrix(1.1818182,0,0,1,-1,1030.3622)" />
    <path
       sodipodi:nodetypes="ccccccccc"
       inkscape:connector-curvature="0"
       id="path3029"
       d="m 1,1032.3622 0,14 22,0 0,-7 -1,-6 -8,0 -1,-2 -11,0 c -0.5,0 -1,0.5 -1,1 z"
       style="fill:#ef6c00;fill-opacity:1;stroke:none" />
    <path
       style="opacity:0.02999998;fill:#000000;fill-opacity:1;stroke:none"
       d="m 2,1031.3622 c -0.5,0 -1,0.5 -1,1 l 0,1 c 0,-0.5 0.5,-1 1,-1 l 10,0 1,2 9,0 0,6 0,-1 0,-6 -8,0 -1,-2 z"
       id="path3806"
       inkscape:connector-curvature="0"
       sodipodi:nodetypes="sscsccccccccs" />
    <rect
       style="fill:#fffdf0;fill-opacity:1;stroke:none"
       id="rect3799"
       width="10"
       height="3.9999914"
       x="3"
       y="1034.3622" />
    <path
       style="fill:#ffa726;fill-opacity:1;stroke:none"
       d="m 23,1034.4289 0,14.9333 -22,0 0,-14 11,0 1,-2 9,0 c 0.5,0 1,0.5333 1,1.0667 z"
       id="rect2987"
       inkscape:connector-curvature="0"
       sodipodi:nodetypes="cccccccc" />
    <path
       sodipodi:nodetypes="ccccc"
       id="path3794"
       d="m 1,1048.3622 0,1 22,0 0,-1 z"
       style="opacity:0.15;fill:#000000;fill-opacity:1;stroke:none"
       inkscape:connector-curvature="0" />
    <path
       style="fill:none;stroke:none"
       d="m 12,1033.8622 -2.5,1.5 1.5,0 z"
       id="path3801"
       inkscape:connector-curvature="0" />
    <path
       style="opacity:0.02999998;fill:#000000;fill-opacity:1;stroke:none"
       d="m 13,1033.3622 -1,2 -11,0 0,1 12,0 1,-2 8,0 c 0.5,0 1,0.5 1,1 l 0,-1 c 0,-0.5 -0.5,-1 -1,-1 z"
       id="path3033"
       inkscape:connector-curvature="0"
       sodipodi:nodetypes="ccccccscssc" />
    <path
       style="opacity:1.0;fill:#b17621;fill-opacity:1;fill-rule:nonzero;stroke:none"
       d="m 7.9594442,1037.763 c -0.3211913,0.01 -0.6247307,0.04 -0.9303701,0.1461 -0.096096,0.652 0.062319,1.3285 0.2371531,1.9534 0.444715,1.4333 1.2701494,2.7937 2.4809865,3.7061 0.044381,0.042 0.1074919,0.052 0.091213,0.1278 -0.00638,0.3176 -6.25e-4,0.6492 0,0.9677 0.013031,0.5567 0.3481013,1.0885 0.8391563,1.351 0.582803,0.307 1.16436,0.5916 1.751284,0.8944 0.270184,0.1433 0.644898,-0.021 0.729703,-0.3103 0.0516,-0.1903 0.01551,-0.39 0.01824,-0.5841 -0.002,-0.409 -0.05232,-0.8196 -0.03649,-1.2234 0.534166,-0.066 1.071178,-0.3252 1.386434,-0.7667 0.280975,-0.3766 0.381035,-0.8642 0.346608,-1.3327 0.571456,-0.102 1.160336,-0.1885 1.733042,-0.2921 0.33896,-0.068 0.485949,-0.509 0.273638,-0.7851 -0.416553,-0.5282 -0.835248,-1.0456 -1.258736,-1.5701 -0.341896,-0.4088 -0.877385,-0.6356 -1.404676,-0.566 -0.357584,0.058 -0.723729,0.1344 -1.07631,0.201 -1.13861,-1.0855 -2.669183,-1.6871 -4.2140282,-1.8622 -0.3172518,-0.029 -0.6456637,-0.06 -0.9668549,-0.055 z m 1.9337101,1.1866 c 0.3732147,-0.034 0.7475357,0.07 1.0580677,0.3287 0.621063,0.5176 0.717806,1.4414 0.200668,2.063 -0.517139,0.6215 -1.4403431,0.7183 -2.0614078,0.2007 -0.6210637,-0.5175 -0.7178062,-1.4413 -0.2006681,-2.063 0.2585693,-0.3107 0.6301253,-0.4952 1.0033402,-0.5294 z m 5.9653147,4.473 c -0.127784,-0.012 -0.25518,0.085 -0.273639,0.2191 -0.162858,0.7407 -0.689143,1.3843 -1.386432,1.6796 -0.181562,0.058 -0.222109,0.3007 -0.07297,0.4198 0.306031,0.2551 0.659574,0.5499 0.966855,0.8034 0.149517,0.1272 0.344099,-0.01 0.346609,-0.2007 -0.0048,-0.1555 -0.02249,-0.3214 -0.03649,-0.4748 0.381009,0.082 0.754027,0.1904 1.131038,0.2738 0.177662,0.037 0.345939,-0.1773 0.273638,-0.3468 -0.149044,-0.3575 -0.303021,-0.7032 -0.456064,-1.0589 0.15427,-0.018 0.302608,-0.031 0.456064,-0.055 0.189942,-0.038 0.264219,-0.3142 0.109455,-0.4381 -0.307783,-0.2591 -0.618589,-0.5096 -0.93037,-0.7668 -0.03648,-0.029 -0.0851,-0.051 -0.127698,-0.055 z"
       id="path10643"
       inkscape:connector-curvature="0"
       sodipodi:nodetypes="cccccccccccccccccccccccccccccccccccccccccc" />
  </g>
</svg>
