<svg width="128" xmlns="http://www.w3.org/2000/svg" height="128" viewBox="0 0 128 128" xmlns:xlink="http://www.w3.org/1999/xlink">
<path style="fill:#dc322f;fill-rule:evenodd" d="M 128 64.097656 C 128.003906 99.445312 99.347656 128.105469 64 128.105469 C 28.652344 128.105469 -0.00390625 99.445312 0 64.097656 C -0.00390625 28.746094 28.652344 0.0898438 64 0.0898438 C 99.347656 0.0898438 128.003906 28.746094 128 64.097656 Z "/>
<g style="fill:#fff;fill-opacity:.902">
<path d="M 71.996094 16.191406 L 55.996094 16.191406 L 55.996094 64.195312 L 71.996094 64.195312 Z "/>
<path style="fill-rule:evenodd" d="M 48 18.75 C 29.351562 25.335938 16 43.097656 16 64 C 16 90.507812 37.492188 112 64 112 C 90.507812 112 112 90.507812 112 64 C 112 43.097656 98.648438 25.335938 80 18.75 L 80 36.5 C 89.550781 42.035156 96 52.167969 96 64 C 96 81.671875 81.671875 96 64 96 C 46.328125 96 32 81.671875 32 64 C 32 52.167969 38.449219 42.035156 48 36.5 Z "/>
</g>
</svg>
