<svg width="128" xmlns="http://www.w3.org/2000/svg" height="128" viewBox="0 0 128 128" xmlns:xlink="http://www.w3.org/1999/xlink">
<path style="fill:#268bd2;fill-rule:evenodd" d="M 32.890625 0 L 95.113281 0 C 113.777344 0 120 6.398438 120 25.601562 L 120 102.398438 C 120 121.601562 113.777344 128 95.113281 128 L 32.890625 128 C 14.222656 128 8 121.601562 8 102.398438 L 8 25.601562 C 8 6.398438 14.222656 0 32.890625 0 Z "/>
<g style="fill:#fff">
<path style="fill-rule:evenodd;fill-opacity:.302" d="M 32.890625 0 L 95.113281 0 C 113.777344 0 120 6.398438 120 25.601562 L 120 76.800781 C 120 96 113.777344 102.398438 95.113281 102.398438 L 32.890625 102.398438 C 14.222656 102.398438 8 96 8 76.800781 L 8 25.601562 C 8 6.398438 14.222656 0 32.890625 0 Z "/>
<path style="fill-opacity:.902" d="M 48 16 L 48 24 L 80 24 L 80 16 Z M 48 32 L 48 48 L 80 48 L 80 32 Z M 28 56 L 64 96 L 100 56 Z "/>
</g>
</svg>
