<svg width="128" xmlns="http://www.w3.org/2000/svg" height="128" viewBox="0 0 128 128" xmlns:xlink="http://www.w3.org/1999/xlink">
<g style="fill-rule:evenodd">
<path style="fill:#fff" d="M 13.714844 0 L 82.285156 0 C 96 0 96 0 96 14.222656 L 96 113.777344 C 96 128 96 128 82.285156 128 L 13.714844 128 C 0 128 0 128 0 113.777344 L 0 14.222656 C 0 0 0 0 13.714844 0 Z "/>
<path style="fill:#268bd2" d="M 75.003906 107 C 76.128906 107 77.753906 106 79.753906 104 L 119.753906 72 C 127.78125 63.96875 127.753906 64 119.753906 56 L 79.753906 24 C 73.753906 18 72.128906 21 71.753906 33 C 71.628906 37 71.753906 42 71.753906 48 C 71.667969 48 71.585938 48 71.503906 48 C 31.753906 48 15.753906 72 16.003906 104.25 C 31.753906 88 47.753906 80 71.753906 80.5 C 71.746094 86.234375 71.632812 91.132812 71.753906 95 C 72.003906 103 72.753906 107 75.003906 107 Z "/>
</g>
</svg>
