<svg width="128" xmlns="http://www.w3.org/2000/svg" height="128" viewBox="0 0 128 128" xmlns:xlink="http://www.w3.org/1999/xlink">
<g style="fill-rule:evenodd">
<path style="fill:#aaa;fill-opacity:.941" d="M 37.332031 0.03125 L 90.667969 0.03125 C 104 0.03125 104 -1.300781 104 13.359375 L 104 66.671875 C 104 80 104 80 90.667969 80 L 37.332031 80 C 24 80 24 80 24 66.671875 L 24 13.359375 C 24 0.03125 24 0.03125 37.332031 0.03125 Z "/>
<path style="fill:#ccc" d="M 12.800781 32 L 115.199219 32 C 128 32 128 32 128 44.800781 L 128 83.199219 C 128 96 128 96 115.199219 96 L 12.800781 96 C 0 96 0 96 0 83.199219 L 0 44.800781 C 0 32 0 32 12.800781 32 Z "/>
</g>
<path style="fill:#dc322f" d="M 24 64 L 104 64 L 104 128 L 24 128 Z "/>
<g style="fill-rule:evenodd">
<path style="fill:#fff" d="M 104 64 C 104 86.089844 86.089844 104 64 104 C 41.910156 104 24 86.089844 24 64 C 24 41.910156 41.910156 24 64 24 C 86.089844 24 104 41.910156 104 64 Z "/>
<path style="fill:#555" d="M 90.664062 64.003906 C 90.664062 78.730469 78.726562 90.671875 64 90.671875 C 49.273438 90.671875 37.335938 78.730469 37.335938 64.003906 C 37.335938 49.277344 49.273438 37.335938 64 37.335938 C 78.726562 37.335938 90.664062 49.277344 90.664062 64.003906 Z "/>
<path style="fill:#eee" d="M 83.996094 54 C 83.996094 59.523438 79.519531 64 74 64 C 68.476562 64 64 59.523438 64 54 C 64 48.476562 68.476562 44 74 44 C 79.519531 44 83.996094 48.476562 83.996094 54 Z "/>
</g>
</svg>
