<svg width="128" xmlns="http://www.w3.org/2000/svg" height="128" viewBox="0 0 128 128" xmlns:xlink="http://www.w3.org/1999/xlink">
<path style="fill:#fff;fill-rule:evenodd" d="M 29.714844 0 L 98.285156 0 C 112 0 112 0 112 14.222656 L 112 113.777344 C 112 128 112 128 98.285156 128 L 29.714844 128 C 16 128 16 128 16 113.777344 L 16 14.222656 C 16 0 16 0 29.714844 0 Z "/>
<path style="fill:#859900" d="M 128 80 L 104 80 L 104 56 L 80 56 L 80 80 L 56 80 L 56 104 L 80 104 L 80 128 L 104 128 L 104 104 L 128 104 Z "/>
</svg>
