<svg width="128" xmlns="http://www.w3.org/2000/svg" height="128" viewBox="0 0 128 128" xmlns:xlink="http://www.w3.org/1999/xlink">
<path style="fill:#aaa" d="M 12.800781 0 C 12.800781 70.398438 44.800781 57.601562 81.792969 87.425781 C 78.65625 91.648438 76.800781 96.703125 76.800781 102.398438 C 76.800781 116.542969 88.257812 128 102.398438 128 C 116.542969 128 128 116.542969 128 102.398438 C 128 100.097656 127.359375 97.921875 126.976562 95.808594 L 128 96 L 126.59375 94.207031 C 124.671875 88.574219 120.769531 83.96875 115.777344 80.769531 Z M 102.398438 89.601562 C 109.441406 89.601562 115.199219 95.359375 115.199219 102.398438 C 115.199219 109.441406 109.441406 115.199219 102.398438 115.199219 C 95.359375 115.199219 89.601562 109.441406 89.601562 102.398438 C 89.601562 95.359375 95.359375 89.601562 102.398438 89.601562 Z "/>
<path style="fill:#ccc" d="M 115.199219 0 C 115.199219 70.398438 83.199219 57.601562 46.207031 87.425781 C 49.34375 91.648438 51.199219 96.703125 51.199219 102.398438 C 51.199219 116.542969 39.742188 128 25.601562 128 C 11.457031 128 0 116.542969 0 102.398438 C 0 100.097656 0.449219 97.921875 1.023438 95.808594 L 0 96 L 1.40625 94.207031 C 3.328125 88.574219 7.230469 83.96875 12.222656 80.769531 Z M 25.601562 89.601562 C 18.558594 89.601562 12.800781 95.359375 12.800781 102.398438 C 12.800781 109.441406 18.558594 115.199219 25.601562 115.199219 C 32.640625 115.199219 38.398438 109.441406 38.398438 102.398438 C 38.398438 95.359375 32.640625 89.601562 25.601562 89.601562 Z "/>
</svg>
