<svg width="128" xmlns="http://www.w3.org/2000/svg" height="128" viewBox="0 0 128 128" xmlns:xlink="http://www.w3.org/1999/xlink">
<path style="fill:#e9b080;fill-rule:evenodd" d="M 20.445312 16.03125 L 107.554688 16.03125 C 120 16.03125 120 14.785156 120 28.46875 L 120 115.558594 C 120 128 120 128 107.554688 128 L 20.445312 128 C 8 128 8 128 8 115.558594 L 8 28.46875 C 8 16.03125 8 16.03125 20.445312 16.03125 Z "/>
<path style="fill:#fff" d="M 104 16 L 24 16 L 24 96 L 104 96 Z "/>
<path style="fill:#aaa" d="M 39.109375 0 L 39.109375 24 L 87.109375 24 L 87.109375 0 Z "/>
<g style="fill:#888">
<path d="M 39.109375 40 L 39.109375 48 L 87.109375 48 L 87.109375 40 Z "/>
<path d="M 39.109375 64 L 39.109375 72 L 87.109375 72 L 87.109375 64 Z "/>
</g>
</svg>
