<svg width="128" xmlns="http://www.w3.org/2000/svg" height="128" viewBox="0 0 128 128" xmlns:xlink="http://www.w3.org/1999/xlink">
<g style="fill-rule:evenodd">
<path style="fill:#aaa" d="M 14.667969 0.0078125 L 73.332031 0 C 88 0 88 0 88 12 L 88 84 C 88 96 88 96 73.332031 96 L 14.667969 96 C 0 96 0 96 0 84 L 0 12.007812 C 0 0.0078125 0 0.0078125 14.667969 0.0078125 Z "/>
<path style="fill:#fff" d="M 54.667969 32 L 113.332031 32 C 128 32 128 32 128 44 L 128 116 C 128 128 128 128 113.332031 128 L 54.667969 128 C 40 128 40 128 40 116 L 40 44 C 40 32 40 32 54.667969 32 Z "/>
</g>
<g style="fill:#888">
<path d="M 56 48 L 56 56 L 112 56 L 112 48 Z "/>
<path d="M 56 96 L 56 104 L 88 104 L 88 96 Z "/>
<path d="M 56 72 L 56 80 L 112 80 L 112 72 Z "/>
</g>
</svg>
