<?xml version="1.0" encoding="UTF-8" standalone="no"?>
<!-- Created with Inkscape (http://www.inkscape.org/) -->

<svg
   xmlns:dc="http://purl.org/dc/elements/1.1/"
   xmlns:cc="http://creativecommons.org/ns#"
   xmlns:rdf="http://www.w3.org/1999/02/22-rdf-syntax-ns#"
   xmlns:svg="http://www.w3.org/2000/svg"
   xmlns="http://www.w3.org/2000/svg"
   xmlns:xlink="http://www.w3.org/1999/xlink"
   xmlns:sodipodi="http://sodipodi.sourceforge.net/DTD/sodipodi-0.dtd"
   xmlns:inkscape="http://www.inkscape.org/namespaces/inkscape"
   width="128"
   height="128"
   id="svg2"
   version="1.1"
   inkscape:version="0.48.5 r10040"
   sodipodi:docname="document-open-recent.svg"
   inkscape:export-filename="/media/Data/Main/Visuals/Icons/Numix/Desktop/repos/numix-wiki/Gjorgi/Numix-folders/48/New/folder-144.png"
   inkscape:export-xdpi="270"
   inkscape:export-ydpi="270">
  <defs
     id="defs4">
    <radialGradient
       gradientUnits="userSpaceOnUse"
       gradientTransform="matrix(1,0,0,0.10447761,0,50.597015)"
       r="33.5"
       fy="56.5"
       fx="32.5"
       cy="56.5"
       cx="32.5"
       id="radialGradient3964"
       xlink:href="#linearGradient3958"
       inkscape:collect="always" />
    <linearGradient
       id="linearGradient3958"
       inkscape:collect="always">
      <stop
         id="stop3960"
         offset="0"
         style="stop-color:#000000;stop-opacity:1;" />
      <stop
         id="stop3962"
         offset="1"
         style="stop-color:#000000;stop-opacity:0;" />
    </linearGradient>
    <radialGradient
       gradientUnits="userSpaceOnUse"
       gradientTransform="matrix(1,0,0,0.10447761,0,50.597015)"
       r="33.5"
       fy="56.5"
       fx="32.5"
       cy="56.5"
       cx="32.5"
       id="radialGradient3964-3"
       xlink:href="#linearGradient3958-6"
       inkscape:collect="always" />
    <linearGradient
       id="linearGradient3958-6"
       inkscape:collect="always">
      <stop
         id="stop3960-6"
         offset="0"
         style="stop-color:#000000;stop-opacity:1;" />
      <stop
         id="stop3962-4"
         offset="1"
         style="stop-color:#000000;stop-opacity:0;" />
    </linearGradient>
    <radialGradient
       inkscape:collect="always"
       xlink:href="#linearGradient3958-1"
       id="radialGradient3981"
       gradientUnits="userSpaceOnUse"
       gradientTransform="matrix(1,0,0,0.10447761,0,50.597015)"
       cx="32.5"
       cy="56.5"
       fx="32.5"
       fy="56.5"
       r="33.5" />
    <linearGradient
       id="linearGradient3958-1"
       inkscape:collect="always">
      <stop
         id="stop3960-7"
         offset="0"
         style="stop-color:#000000;stop-opacity:1;" />
      <stop
         id="stop3962-0"
         offset="1"
         style="stop-color:#000000;stop-opacity:0;" />
    </linearGradient>
    <radialGradient
       gradientUnits="userSpaceOnUse"
       gradientTransform="matrix(1,0,0,0.10447761,0,50.597015)"
       r="33.5"
       fy="56.5"
       fx="32.5"
       cy="56.5"
       cx="32.5"
       id="radialGradient3964-4"
       xlink:href="#linearGradient3958-1"
       inkscape:collect="always" />
  </defs>
  <sodipodi:namedview
     id="base"
     pagecolor="#ffffff"
     bordercolor="#666666"
     borderopacity="1.0"
     inkscape:pageopacity="0.0"
     inkscape:pageshadow="2"
     inkscape:zoom="11.144306"
     inkscape:cx="10.792472"
     inkscape:cy="82.866048"
     inkscape:document-units="px"
     inkscape:current-layer="layer1"
     showgrid="true"
     inkscape:window-width="1920"
     inkscape:window-height="1052"
     inkscape:window-x="0"
     inkscape:window-y="28"
     inkscape:window-maximized="1"
     showguides="true"
     inkscape:guide-bbox="true">
    <inkscape:grid
       type="xygrid"
       id="grid2985"
       empspacing="5"
       visible="true"
       enabled="true"
       snapvisiblegridlinesonly="true" />
  </sodipodi:namedview>
  <metadata
     id="metadata7">
    <rdf:RDF>
      <cc:Work
         rdf:about="">
        <dc:format>image/svg+xml</dc:format>
        <dc:type
           rdf:resource="http://purl.org/dc/dcmitype/StillImage" />
        <dc:title></dc:title>
      </cc:Work>
    </rdf:RDF>
  </metadata>
  <g
     inkscape:label="Layer 1"
     inkscape:groupmode="layer"
     id="layer1"
     transform="translate(0,-924.3622)">
    <g
       transform="matrix(2,0,0,2,0,-1056.3622)"
       id="layer1-1"
       inkscape:label="Layer 1">
      <path
         style="fill:#ef6c00;fill-opacity:1;stroke:none"
         d="m 0,997.42103 0,42.82347 64,0 0,-21.4117 -3.047619,-18.353 L 37,1000.3622 l -3,-6 -30.952381,0 C 1.52381,994.3622 0,995.89161 0,997.42103 z"
         id="path3029"
         inkscape:connector-curvature="0"
         sodipodi:nodetypes="ccccccccc" />
      <rect
         y="1002.3622"
         x="5"
         height="11.882284"
         width="31.571428"
         id="rect3799"
         style="fill:#fffdf0;fill-opacity:1;stroke:none" />
      <path
         sodipodi:nodetypes="sscsccccccccs"
         inkscape:connector-curvature="0"
         id="path3790"
         transform="translate(0,988.3622)"
         d="M 3.0625,6 C 1.538691,6 0,7.53308 0,9.0625 l 0,2 C 0,9.53308 1.538691,8 3.0625,8 L 33,8 36,14 60.9375,14.125 64,32.46875 l 0,-2 L 60.9375,12.125 37,12 34,6 z"
         style="opacity:0.02999998;fill:#000000;fill-opacity:1;stroke:none" />
      <path
         sodipodi:nodetypes="cccccccc"
         inkscape:connector-curvature="0"
         id="rect2987-9"
         d="m 64,1003.5387 0,42.8235 -64,0 0,-40 30,0 3,-6 27.952381,0.1176 c 1.523809,0 3.047619,1.5295 3.047619,3.0589 z"
         style="fill:#ffa726;fill-opacity:1;stroke:none" />
      <path
         inkscape:connector-curvature="0"
         style="opacity:0.15;fill:#000000;fill-opacity:1;stroke:none"
         d="m 0,1044.3622 0,2 64,0 0,-2 z"
         id="path3794-2"
         sodipodi:nodetypes="ccccc" />
      <path
         inkscape:connector-curvature="0"
         id="path3801"
         d="m 33.52381,1002.0093 -7.619048,4.5882 4.571428,0 z"
         style="fill:none;stroke:none" />
      <path
         sodipodi:nodetypes="ccccccccscc"
         inkscape:connector-curvature="0"
         id="path3015-9"
         transform="translate(0,988.3622)"
         d="m 33,12 -3,6 -30,0 0,2 31,0 3,-6 26.9375,0.125 c 1.523809,0 3.0625,1.5331 3.0625,3.0625 l 0,-2 C 64,13.6581 62.461309,12.125 60.9375,12.125 z"
         style="opacity:0.02999998;fill:#000000;fill-opacity:1;stroke:none" />
      <path
         sodipodi:nodetypes="ccccccccccccc"
         id="path2996"
         d="m 60,1025.3622 -12,0 0,-13 -13,0 0,13 -13,0 0,13 13,0 0,12 13,0 0,-12 12,0 z"
         style="fill:#4caf50;fill-opacity:1"
         inkscape:connector-curvature="0" />
    </g>
  </g>
</svg>
