<svg width="128" xmlns="http://www.w3.org/2000/svg" height="128" viewBox="0 0 128 128" xmlns:xlink="http://www.w3.org/1999/xlink">
<g style="fill:#268bd2">
<path d="M 32 16 L 32 32 L 80 32 C 83.421875 32 88 36.914062 88 40 L 88 48 L 48 48 C 40.644531 48 34.113281 51.070312 30 55.75 C 25.882812 60.429688 23.949219 66.234375 24 72 C 24.046875 77.765625 26.148438 83.621094 30.25 88.25 C 34.347656 92.878906 40.730469 96 48 96 L 104 96 L 104 40 C 104 26.925781 93.441406 16 80 16 Z M 48 64 L 88 64 L 88 80 L 48 80 C 44.816406 80 43.464844 79.121094 42.25 77.75 C 41.035156 76.378906 40.019531 74.234375 40 72 C 39.980469 69.765625 40.835938 67.570312 42 66.25 C 43.160156 64.929688 44.621094 64 48 64 Z "/>
<path d="M 16 104 L 16 120 L 112 120 L 112 104 Z "/>
</g>
</svg>
