<svg width="128" xmlns="http://www.w3.org/2000/svg" height="128" viewBox="0 0 128 128" xmlns:xlink="http://www.w3.org/1999/xlink">
<path style="fill:#268bd2" d="M 32 24 L 32 40 L 72 40 C 75.425781 40 80 44.914062 80 48 L 80 56 L 40 56 C 32.644531 56 26.113281 59.070312 22 63.75 C 17.886719 68.429688 15.949219 74.234375 16 80 C 16.046875 85.765625 18.152344 91.621094 22.25 96.25 C 26.347656 100.878906 32.734375 104 40 104 L 112 104 L 112 48 C 112 34.925781 101.441406 24 88 24 Z M 56 72 L 80 72 L 80 88 L 56 88 C 52.816406 88 51.464844 87.121094 50.25 85.75 C 49.035156 84.378906 48.019531 82.234375 48 80 C 47.984375 77.765625 48.835938 75.570312 50 74.25 C 51.164062 72.929688 52.621094 72 56 72 Z "/>
</svg>
