<svg width="128" xmlns="http://www.w3.org/2000/svg" height="128" viewBox="0 0 128 128" xmlns:xlink="http://www.w3.org/1999/xlink">
<g style="fill:#268bd2">
<path d="M 32 24 L 32 40 L 80 40 C 83.421875 40 88 44.914062 88 48 L 104 48 C 104 34.925781 93.441406 24 80 24 Z M 24 80 C 24.046875 85.765625 26.148438 91.621094 30.25 96.25 C 34.347656 100.878906 40.730469 104 48 104 L 104 104 L 104 80 L 88 80 L 88 88 L 48 88 C 44.816406 88 43.464844 87.121094 42.25 85.75 C 41.035156 84.378906 40.019531 82.234375 40 80 Z "/>
<path d="M 8 56 L 8 72 L 120 72 L 120 56 Z "/>
</g>
</svg>
