<svg width="128" xmlns="http://www.w3.org/2000/svg" height="128" viewBox="0 0 128 128" xmlns:xlink="http://www.w3.org/1999/xlink">
<path style="fill:#268bd2" d="M 36 24 L 36 40 L 84 40 C 87.421875 40 88.75 42.136719 87.75 45.75 L 85 56 L 43 56 C 28.289062 56 17.996094 66.820312 15 78 C 13.5 83.589844 13.699219 89.832031 17 95.25 C 20.296875 100.667969 26.980469 104 34.25 104 L 88.25 104 L 90 98.25 L 103.25 50.25 C 106.726562 37.699219 97.441406 24 84 24 Z M 43 72 L 80.5 72 L 76 88 L 34.25 88 C 31.066406 88 30.851562 87.332031 30.5 86.75 C 30.144531 86.167969 29.851562 84.410156 30.5 82 C 31.789062 77.179688 36.242188 72 43 72 Z "/>
</svg>
