<svg width="128" xmlns="http://www.w3.org/2000/svg" height="128" viewBox="0 0 128 128" xmlns:xlink="http://www.w3.org/1999/xlink">
<path style="fill:#268bd2;fill-rule:evenodd" d="M 128 64.007812 C 127.996094 99.351562 99.34375 128 64 128 C 28.65625 128 0.00390625 99.351562 0 64.007812 C -0.00390625 28.660156 28.648438 0 64 0 C 99.351562 0 128.003906 28.660156 128 64.007812 Z "/>
<path style="fill:#fff;fill-opacity:.902" d="M 65.25 24.027344 C 61.535156 23.90625 58.199219 26.023438 56.75 29.527344 C 55.300781 33.03125 56.085938 37.136719 58.75 39.777344 L 74.5 56.027344 L 24 56.027344 L 24 72.027344 L 74.5 72.027344 L 58.75 88.277344 C 55.242188 91.878906 55.242188 97.675781 58.75 101.277344 C 62.257812 104.878906 67.992188 104.878906 71.5 101.277344 L 101.25 70.527344 C 102.957031 68.800781 104 66.476562 104 64.027344 C 104 61.578125 102.957031 59.253906 101.25 57.527344 L 71.5 26.777344 C 69.886719 25.074219 67.585938 24.097656 65.25 24.027344 Z "/>
</svg>
