<svg width="128" xmlns="http://www.w3.org/2000/svg" height="128" viewBox="0 0 128 128" xmlns:xlink="http://www.w3.org/1999/xlink">
<path style="fill:#268bd2;fill-rule:evenodd" d="M 63.992188 0 C 28.648438 0.00390625 0 28.65625 0 64 C 0 99.34375 28.648438 127.996094 63.992188 128 C 99.339844 128.003906 128 99.351562 128 64 C 128 28.648438 99.339844 -0.00390625 63.992188 0 Z "/>
<path style="fill:#fff;fill-opacity:.902" d="M 103.972656 62.75 C 104.09375 66.464844 101.976562 69.800781 98.472656 71.25 C 94.96875 72.699219 90.863281 71.914062 88.222656 69.25 L 71.972656 53.5 L 71.972656 104 L 55.972656 104 L 55.972656 53.5 L 39.722656 69.25 C 36.121094 72.757812 30.324219 72.757812 26.722656 69.25 C 23.121094 65.742188 23.121094 60.007812 26.722656 56.5 L 57.472656 26.75 C 59.199219 25.042969 61.523438 24 63.972656 24 C 66.421875 24 68.746094 25.042969 70.472656 26.75 L 101.222656 56.5 C 102.925781 58.113281 103.902344 60.414062 103.972656 62.75 Z "/>
</svg>
