<svg width="128" xmlns="http://www.w3.org/2000/svg" height="128" viewBox="0 0 128 128" xmlns:xlink="http://www.w3.org/1999/xlink">
<path style="fill:#b58900;fill-rule:evenodd" d="M 128 64.007812 C 127.996094 99.351562 99.34375 128 64 128 C 28.65625 128 0.00390625 99.351562 0 64.007812 C -0.00390625 28.660156 28.648438 0 64 0 C 99.351562 0 128.003906 28.660156 128 64.007812 Z "/>
<path style="fill:#fff;fill-opacity:.902" d="M 59.214844 27.378906 C 16.683594 58.808594 16.148438 50.261719 16.148438 58.929688 C 16.148438 63.4375 17.644531 64 32 64 L 32 96 C 32 104 32 104 40 104 L 48 104 C 56 104 56 104 56 96 L 56 72 C 63.976562 72 64.023438 72 72 72 L 72 96 C 72 104 72 104 80 104 L 88 104 C 96 104 96 104 96 96 L 96 64 C 110.355469 64 111.851562 63.4375 111.851562 58.929688 C 111.851562 50.25 111.496094 58.960938 68.785156 27.378906 C 64 22.875 64 22.875 59.214844 27.378906 Z "/>
</svg>
