<?xml version="1.0" encoding="UTF-8" standalone="no"?>
<svg
   xmlns:dc="http://purl.org/dc/elements/1.1/"
   xmlns:cc="http://creativecommons.org/ns#"
   xmlns:rdf="http://www.w3.org/1999/02/22-rdf-syntax-ns#"
   xmlns:svg="http://www.w3.org/2000/svg"
   xmlns="http://www.w3.org/2000/svg"
   xmlns:sodipodi="http://sodipodi.sourceforge.net/DTD/sodipodi-0.dtd"
   xmlns:inkscape="http://www.inkscape.org/namespaces/inkscape"
   width="128"
   height="128"
   viewBox="0 0 128 128"
   id="svg2"
   version="1.1"
   inkscape:version="0.91 r"
   sodipodi:docname="gtk-edit.svg">
  <metadata
     id="metadata16">
    <rdf:RDF>
      <cc:Work
         rdf:about="">
        <dc:format>image/svg+xml</dc:format>
        <dc:type
           rdf:resource="http://purl.org/dc/dcmitype/StillImage" />
        <dc:title></dc:title>
      </cc:Work>
    </rdf:RDF>
  </metadata>
  <defs
     id="defs14">
    <clipPath
       id="clip1">
      <path
         id="path4225"
         d="m 17,10 14,0 0,20 -14,0 m 0,-20"
         inkscape:connector-curvature="0" />
    </clipPath>
    <clipPath
       id="clip2">
      <path
         id="path4228"
         d="m 41.895,19.992 c 0,10.582 -8.02,19.16 -17.895,19.16 -9.875,0 -17.891,-8.574 -17.891,-19.16 0,-10.586 8.02,-19.16 17.891,-19.16 9.879,0 17.895,8.574 17.895,19.16 m 0,0"
         inkscape:connector-curvature="0" />
    </clipPath>
  </defs>
  <sodipodi:namedview
     pagecolor="#ffffff"
     bordercolor="#666666"
     borderopacity="1"
     objecttolerance="10"
     gridtolerance="10"
     guidetolerance="10"
     inkscape:pageopacity="0"
     inkscape:pageshadow="2"
     inkscape:window-width="1366"
     inkscape:window-height="747"
     id="namedview12"
     showgrid="true"
     inkscape:zoom="3.4766083"
     inkscape:cx="46.258661"
     inkscape:cy="47.414046"
     inkscape:window-x="0"
     inkscape:window-y="21"
     inkscape:window-maximized="1"
     inkscape:current-layer="svg2"
     showguides="false">
    <inkscape:grid
       type="xygrid"
       id="grid4144" />
  </sodipodi:namedview>
  <path
     id="path4152"
     d="M 20.933008,0 81.06659,0 c 14.933334,0 14.933334,0 14.933334,14.401758 l 0,87.197362 c 0,14.40176 0,14.40176 -14.933334,14.40176 l -60.133582,0 c -14.9333348,0 -14.9333348,0 -14.9333348,-14.40176 l 0,-87.197362 C 5.9996732,0 5.9996732,0 20.933008,0 Z"
     style="fill:#ffffff;fill-opacity:1;fill-rule:evenodd"
     inkscape:connector-curvature="0"
     sodipodi:nodetypes="sssssssss" />
  <g
     style="fill:#888888"
     id="g4154"
     transform="matrix(3.7333334,0,0,3.6004394,-60.800076,-43.211864)">
    <path
       inkscape:connector-curvature="0"
       d="m 22.178682,18.112318 0,3.332927 15.535603,0 0,-3.332927 z"
       id="path4156"
       sodipodi:nodetypes="ccccc" />
    <path
       inkscape:connector-curvature="0"
       d="m 22.178682,34.776951 0,3.332926 7.821318,0 0,-3.332926 z"
       id="path4158"
       sodipodi:nodetypes="ccccc" />
    <path
       inkscape:connector-curvature="0"
       d="m 22.178682,26.444635 0,3.332926 15.535603,0 0,-3.332926 z"
       id="path4160"
       sodipodi:nodetypes="ccccc" />
  </g>
  <g
     id="g4250"
     transform="translate(-52.770186,57.940678)" />
  <g
     id="g4282"
     clip-path="url(#clip1)"
     transform="translate(35.094221,77.059322)">
    <g
       id="g4284"
       clip-path="url(#clip2)" />
  </g>
  <path
     id="path4288"
     d="m 122.00033,52.009432 c 0,0 0.004,-3.117438 -6.9462,-7.130188 -6.70503,-3.87115 -9.83262,-2.169166 -9.83262,-2.169166 L 69.061206,105.342 67.06434,128 l 18.608,-13.06816"
     inkscape:connector-curvature="0"
     style="fill:#ff6f03;fill-opacity:1;fill-rule:nonzero;stroke:none"
     sodipodi:nodetypes="cscccc" />
  <path
     id="path4290"
     d="m 69.06034,105.342 -1.996,22.658 18.608,-13.068"
     inkscape:connector-curvature="0"
     style="fill:#ffc13d;fill-opacity:1;fill-rule:nonzero;stroke:none"
     sodipodi:nodetypes="ccc" />
  <path
     id="path4292"
     d="M 67.964175,117.43676 67.06434,128 l 8.710592,-6.0537 m -7.810758,-4.50954"
     inkscape:connector-curvature="0"
     style="fill:#2d2d2d;fill-opacity:1;fill-rule:nonzero;stroke:none" />
</svg>
