<svg width="128" xmlns="http://www.w3.org/2000/svg" height="128" viewBox="0 0 128 128" xmlns:xlink="http://www.w3.org/1999/xlink">
<path style="fill:#dc322f;fill-rule:evenodd" d="M 65.75 0 C 48.476562 -0.472656 31.742188 6.0625 19.359375 18.113281 C 6.976562 30.167969 -0.0078125 46.71875 0 64 C 0.00390625 99.34375 28.65625 127.988281 64 127.988281 C 99.34375 127.988281 127.996094 99.34375 128 64 C 128.011719 29.324219 100.410156 0.949219 65.75 0 Z M 60.5 16 C 71.699219 15.140625 82.847656 18.238281 92 24.75 L 25 91.75 C 19.195312 83.65625 16.046875 73.960938 16 64 C 15.933594 38.800781 35.367188 17.835938 60.5 16 Z M 103.25 36 C 109.015625 44.191406 112.078125 53.980469 112 64 C 111.9375 81.917969 101.902344 98.308594 85.972656 106.511719 C 70.042969 114.710938 50.871094 113.359375 36.25 103 Z "/>
</svg>
