<svg width="128" xmlns="http://www.w3.org/2000/svg" height="128" viewBox="0 0 128 128" xmlns:xlink="http://www.w3.org/1999/xlink">
<path style="fill:#859900;fill-rule:evenodd" d="M 128 64.007812 C 127.996094 99.351562 99.34375 128 64 128 C 28.65625 128 0.00390625 99.351562 0 64.007812 C -0.00390625 28.660156 28.648438 0 64 0 C 99.351562 0 128.003906 28.660156 128 64.007812 Z "/>
<g style="fill:#fff;fill-opacity:.902">
<path d="M 102.980469 48.042969 C 96.222656 33.402344 81.117188 24 64.085938 24 C 46.671875 24 30.757812 34.289062 24.488281 49.597656 L 37.6875 54.402344 C 41.863281 44.191406 52.476562 37.335938 64.085938 37.335938 C 75.292969 37.335938 85.203125 43.464844 89.792969 53.003906 L 80.164062 56.628906 L 104.789062 70.023438 L 111.988281 44.652344 Z "/>
<path d="M 64.085938 90.675781 C 52.984375 90.675781 42.859375 84.359375 38.332031 74.882812 L 47.824219 71.425781 L 23.457031 58.324219 L 16 83.019531 L 25.085938 79.707031 C 31.710938 94.292969 47.179688 104.007812 64.085938 104.007812 C 81.566406 104.007812 97.042969 94.121094 103.515625 78.824219 L 90.378906 73.882812 C 86.058594 84.082031 75.742188 90.675781 64.085938 90.675781 Z "/>
</g>
</svg>
