<svg xmlns="http://www.w3.org/2000/svg" width="128" height="128" viewBox="0 0 128 128" xmlns:xlink="http://www.w3.org/1999/xlink">
 <g>
  <path d="M 0 24 C 0 29.332031 0 34.667969 0 40 C 8.550781 40.09375 23.464844 39.648438 32 40 C 43.535156 40 43.890625 40 48 48 L 56 80 C 64 104 64 104 73.5 104 C 82.5 104 91.5 104 100.5 104 C 97.492188 106.570312 94.695312 110.355469 96.265625 114.515625 C 97.933594 120.554688 106.648438 122.058594 110.386719 117.113281 C 117.351562 110.085938 121.21875 103.207031 128 96 C 120.8125 88.398438 116.570312 81.089844 109.167969 73.703125 C 104.300781 69.207031 95.296875 73.242188 95.675781 79.941406 C 95.519531 83.425781 98.238281 85.789062 100.5 88 C 90.449219 87.902344 98.035156 88.355469 88 88 C 75.757812 88 75.664062 88 72 80 L 64 48 C 56 24 56 24 40 24 C 32.5 24 7.5 24 0 24 Z " fill="#268bd1" id="0"/>
  <path d="M 0 104.074219 C 0 98.742188 0 93.410156 0 88.074219 C 8.550781 87.980469 23.464844 88.425781 32 88.074219 C 43.535156 88.074219 43.890625 88.074219 48 80.074219 L 56 48.074219 C 64 24.074219 64 24.074219 73.5 24.074219 C 82.5 24.074219 91.5 24.074219 100.5 24.074219 C 97.492188 21.503906 94.695312 17.71875 96.265625 13.558594 C 97.933594 7.519531 106.648438 6.019531 110.386719 10.960938 C 117.351562 17.988281 121.21875 24.867188 128 32.074219 C 120.8125 39.675781 116.570312 46.984375 109.167969 54.371094 C 104.300781 58.871094 95.296875 54.835938 95.675781 48.132812 C 95.519531 44.652344 98.238281 42.289062 100.5 40.074219 C 90.449219 40.171875 98.035156 39.722656 88 40.074219 C 75.757812 40.074219 75.664062 40.074219 72 48.074219 L 64 80.074219 C 56 104.074219 56 104.074219 40 104.074219 C 32.5 104.074219 7.5 104.074219 0 104.074219 Z " fill="#268bd1"/>
  <path d="M 0 104.074219 C 0 98.742188 0 93.410156 0 88.074219 C 8.550781 87.980469 23.464844 88.425781 32 88.074219 C 43.535156 88.074219 43.890625 88.074219 48 80.074219 L 56 48.074219 C 64 24.074219 64 24.074219 73.5 24.074219 C 82.5 24.074219 91.5 24.074219 100.5 24.074219 C 97.492188 21.503906 94.695312 17.71875 96.265625 13.558594 C 97.933594 7.519531 106.648438 6.019531 110.386719 10.960938 C 117.351562 17.988281 121.21875 24.867188 128 32.074219 C 120.8125 39.675781 116.570312 46.984375 109.167969 54.371094 C 104.300781 58.871094 95.296875 54.835938 95.675781 48.132812 C 95.519531 44.652344 98.238281 42.289062 100.5 40.074219 C 90.449219 40.171875 98.035156 39.722656 88 40.074219 C 75.757812 40.074219 75.664062 40.074219 72 48.074219 L 64 80.074219 C 56 104.074219 56 104.074219 40 104.074219 C 32.5 104.074219 7.5 104.074219 0 104.074219 Z " fill-opacity="0.102"/>
  <use xlink:href="#0"/>
 </g>
</svg>
