<svg width="128" xmlns="http://www.w3.org/2000/svg" height="128" viewBox="0 0 128 128" xmlns:xlink="http://www.w3.org/1999/xlink">
<g style="fill:#888">
<path d="M 80 49.296875 C 80 52.066406 79.507812 54.390625 78.527344 56.273438 C 77.542969 58.101562 76.199219 59.585938 74.492188 60.726562 C 72.835938 61.8125 70.847656 62.605469 68.519531 63.097656 C 66.242188 63.542969 63.785156 63.765625 61.148438 63.765625 C 56.523438 63.8125 52.257812 62.121094 48 61.472656 L 48 18.59375 C 52.246094 17.84375 56.203125 16.925781 60.21875 16.714844 C 63.839844 16.714844 66.785156 17.085938 69.0625 17.828125 C 71.335938 18.519531 73.121094 19.460938 74.414062 20.648438 C 75.707031 21.785156 76.585938 23.070312 77.050781 24.507812 C 77.519531 25.941406 77.75 27.375 77.75 28.8125 C 77.75 30.988281 77.179688 32.917969 76.042969 34.601562 C 74.957031 36.28125 73.484375 37.617188 71.621094 38.609375 C 74.878906 39.746094 77.078125 41.28125 78.214844 43.210938 C 79.40625 45.140625 80 47.167969 80 49.296875 M 57.347656 43.0625 L 57.347656 55.53125 C 58.019531 55.628906 58.746094 55.703125 59.519531 55.753906 C 60.347656 55.800781 61.148438 55.828125 61.925781 55.828125 C 63.011719 55.828125 64.070312 55.753906 65.105469 55.605469 C 66.140625 55.40625 67.046875 55.085938 67.820312 54.640625 C 68.648438 54.144531 69.320312 53.476562 69.835938 52.636719 C 70.355469 51.746094 70.613281 50.632812 70.613281 49.296875 C 70.613281 47.070312 69.863281 45.484375 68.363281 44.546875 C 66.914062 43.554688 64.949219 43.0625 62.46875 43.0625 L 57.347656 43.0625 M 61.070312 35.492188 C 63.503906 35.492188 65.339844 34.996094 66.578125 34.007812 C 67.820312 32.96875 68.441406 31.558594 68.441406 29.777344 C 68.441406 28.6875 68.261719 27.820312 67.898438 27.179688 C 67.535156 26.484375 67.046875 25.964844 66.425781 25.621094 C 65.804688 25.222656 65.078125 24.976562 64.253906 24.878906 C 63.425781 24.730469 62.570312 24.65625 61.691406 24.65625 C 60.96875 24.65625 60.21875 24.679688 59.441406 24.730469 C 58.667969 24.777344 57.96875 24.851562 57.347656 24.953125 L 57.347656 35.492188 L 61.070312 35.492188 "/>
<path d="M 112.832031 64.136719 C 105.175781 64.136719 99.332031 62.0625 95.300781 57.90625 C 91.265625 53.75 88 47.835938 88 40.167969 C 87.847656 32.0625 90.753906 27.265625 96.175781 22.503906 C 98.398438 20.425781 100.996094 18.867188 103.976562 17.828125 C 107.019531 16.738281 110.320312 16.195312 113.886719 16.195312 C 115.8125 16.195312 117.539062 16.34375 119.058594 16.640625 C 120.636719 16.886719 122.007812 17.183594 123.179688 17.53125 C 124.347656 17.875 125.3125 18.246094 126.070312 18.644531 C 126.890625 19.039062 127.503906 19.335938 127.914062 19.535156 L 125.105469 26.808594 C 123.761719 26.066406 122.125 25.445312 120.199219 24.953125 C 118.328125 24.40625 116.164062 24.136719 113.710938 24.136719 C 112.015625 24.136719 110.347656 24.40625 108.710938 24.953125 C 107.132812 25.445312 105.703125 26.3125 104.417969 27.550781 C 103.1875 28.738281 102.167969 30.34375 101.347656 32.375 C 100.589844 34.402344 100.207031 36.925781 100.207031 39.945312 C 100.207031 45.1875 101.261719 49.222656 103.363281 52.042969 C 105.527344 54.8125 109.035156 56.199219 113.886719 56.199219 C 116.691406 56.199219 119 55.925781 120.8125 55.382812 C 122.683594 54.835938 124.171875 54.292969 125.28125 53.75 L 128 60.949219 C 126.480469 61.738281 124.40625 62.480469 121.777344 63.171875 C 119.203125 63.816406 116.222656 64.136719 112.832031 64.136719 "/>
<path d="M 16 16.25 L 0 64.195312 L 8 64.195312 L 13.25 48.210938 L 26.75 48.210938 L 32 64.195312 L 40 64.195312 L 24 16.25 Z M 20 28.234375 L 24 40.222656 L 16 40.222656 Z "/>
</g>
<path style="fill:#859900" d="M 64 88.195312 L 112 40.195312 L 128 56.195312 L 64 120.195312 C 50.667969 106.859375 37.332031 93.527344 24 80.195312 L 40 64.195312 Z "/>
</svg>
