<svg width="128" xmlns="http://www.w3.org/2000/svg" height="128" viewBox="0 0 128 128" xmlns:xlink="http://www.w3.org/1999/xlink">
<path style="fill:#dc322f;fill-rule:evenodd" d="M 36.75 31.5 C 35.378906 31.488281 33.792969 31.695312 32 32 C 31.648438 34.5 31.785156 36.609375 32 38.5 C 32.015625 39.105469 31.925781 39.675781 32 40.25 C 32.234375 42.097656 32.914062 43.90625 34.25 45.5 C 34.695312 46.03125 35.125 46.488281 35.75 47 C 38.476562 49.9375 41.398438 52.683594 44.25 55.5 L 52.75 64 C 49.886719 66.800781 47.101562 69.683594 44.25 72.5 C 41.417969 75.335938 38.519531 78.101562 35.75 81 C 35.160156 81.425781 34.683594 82.019531 34.25 82.5 C 33.738281 83.066406 33.324219 83.621094 33 84.25 C 32.398438 85.414062 32.152344 86.691406 32 88 C 31.90625 88.820312 31.746094 89.652344 31.75 90.5 C 31.726562 90.894531 31.742188 91.324219 31.75 91.75 C 31.800781 93.199219 31.976562 94.585938 32 96 C 33.4375 96.199219 34.785156 96.230469 36 96.25 C 36.226562 96.253906 36.53125 96.253906 36.75 96.25 C 37.3125 96.242188 37.726562 96.050781 38.25 96 C 38.335938 95.992188 38.414062 96.007812 38.5 96 C 41.070312 95.910156 43.496094 95.554688 45.5 93.75 C 46.03125 93.304688 46.488281 92.875 47 92.25 L 64 75.25 L 81 92.25 C 81.425781 92.839844 82.019531 93.316406 82.5 93.75 C 83.066406 94.261719 83.621094 94.675781 84.25 95 C 85.363281 95.585938 86.519531 95.84375 87.75 96 C 89.132812 96.183594 90.550781 96.308594 92 96.25 C 93.214844 96.230469 94.5625 96.199219 96 96 C 96.449219 93.367188 96.476562 91.3125 96.25 89.5 C 96.226562 88.808594 96.105469 88.167969 96 87.5 C 95.628906 85.09375 94.644531 82.726562 92.25 81 C 89.523438 78.0625 86.601562 75.316406 83.75 72.5 L 75.25 64 L 92.25 47 C 92.875 46.488281 93.304688 46.03125 93.75 45.5 C 94.246094 44.925781 94.683594 44.351562 95 43.75 C 95.546875 42.710938 95.835938 41.640625 96 40.5 C 96.019531 40.421875 95.980469 40.328125 96 40.25 C 96.542969 37.929688 96.460938 35.296875 96 32 C 93.367188 31.550781 91.3125 31.523438 89.5 31.75 C 88.851562 31.84375 88.09375 31.820312 87.5 32 C 87.253906 32.070312 86.992188 32.164062 86.75 32.25 C 84.625 32.707031 82.550781 33.59375 81 35.75 C 78.0625 38.476562 75.316406 41.398438 72.5 44.25 C 69.683594 47.101562 66.800781 49.886719 64 52.75 C 61.273438 49.890625 58.542969 47.039062 55.75 44.25 C 55.707031 44.207031 55.542969 44.292969 55.5 44.25 C 52.683594 41.398438 49.9375 38.476562 47 35.75 C 46.574219 35.160156 45.980469 34.683594 45.5 34.25 C 45.167969 33.949219 44.855469 33.734375 44.5 33.5 C 44.3125 33.375 44.195312 33.105469 44 33 C 43.925781 32.960938 43.824219 33.035156 43.75 33 C 42.730469 32.476562 41.636719 32.171875 40.5 32 C 40.347656 31.980469 40.15625 32.015625 40 32 C 39 31.757812 37.941406 31.507812 36.75 31.5 Z "/>
</svg>
