<?xml version="1.0" encoding="UTF-8" standalone="no"?>
<svg
   xmlns:dc="http://purl.org/dc/elements/1.1/"
   xmlns:cc="http://creativecommons.org/ns#"
   xmlns:rdf="http://www.w3.org/1999/02/22-rdf-syntax-ns#"
   xmlns:svg="http://www.w3.org/2000/svg"
   xmlns="http://www.w3.org/2000/svg"
   xmlns:sodipodi="http://sodipodi.sourceforge.net/DTD/sodipodi-0.dtd"
   xmlns:inkscape="http://www.inkscape.org/namespaces/inkscape"
   width="22"
   height="22"
   viewBox="0 0 22 22"
   id="svg2"
   version="1.1"
   inkscape:version="0.48.5 r10040"
   sodipodi:docname="x-office-calendar.svg">
  <metadata
     id="metadata16">
    <rdf:RDF>
      <cc:Work
         rdf:about="">
        <dc:format>image/svg+xml</dc:format>
        <dc:type
           rdf:resource="http://purl.org/dc/dcmitype/StillImage" />
      </cc:Work>
    </rdf:RDF>
  </metadata>
  <defs
     id="defs14" />
  <sodipodi:namedview
     pagecolor="#ffffff"
     bordercolor="#666666"
     borderopacity="1"
     objecttolerance="10"
     gridtolerance="10"
     guidetolerance="10"
     inkscape:pageopacity="0"
     inkscape:pageshadow="2"
     inkscape:window-width="1280"
     inkscape:window-height="970"
     id="namedview12"
     showgrid="true"
     inkscape:zoom="29.5"
     inkscape:cx="10.558985"
     inkscape:cy="7.3153574"
     inkscape:window-x="0"
     inkscape:window-y="0"
     inkscape:window-maximized="1"
     inkscape:current-layer="svg2">
    <inkscape:grid
       type="xygrid"
       id="grid3004"
       empspacing="5"
       visible="true"
       enabled="true"
       snapvisiblegridlinesonly="true" />
  </sodipodi:namedview>
  <path
     style="fill:#dc322f;fill-opacity:1"
     d="M 4,0 C 3.527343,0 3,0.527344 3,1 l 0,20 c 0,0.445312 0.554687,1 1,1 l 14,0 c 0.445313,0 0.992367,-0.554753 1,-1 L 19,6 13,0 z"
     id="path4"
     inkscape:connector-curvature="0"
     sodipodi:nodetypes="ssssssccs" />
  <path
     style="fill:#000000;fill-opacity:0.19599998"
     d="m 14,6 5,5 0,-5 z"
     id="path6"
     inkscape:connector-curvature="0"
     sodipodi:nodetypes="cccc" />
  <path
     style="fill:#ffffff;fill-opacity:0.39200003"
     d="m 13,0 6,6 -5,0 C 13.554688,6 13,5.445312 13,5 z"
     id="path8"
     inkscape:connector-curvature="0"
     sodipodi:nodetypes="ccssc" />
  <path
     style="fill:#ffffff"
     d="m 6,8 0,2 10,0 0,-2 z m 0,3 0,7 10,0 0,-7 z m 6.57556,0.884739 c 0.388896,0 0.771128,0.04294 1.062799,0.229117 0.291672,0.186196 0.501912,0.429416 0.654693,0.787487 0.152781,0.350908 0.153179,1.059896 0.153179,1.554034 0,1.052723 -0.23326,1.361082 -0.670768,1.883863 C 13.344896,16.862039 12.881961,17 12,17 11.687495,17 11.458323,16.97851 11.298599,16.94271 l 0,-0.895173 c 0.201392,0.05013 0.486121,0.108732 0.701401,0.108732 0.375008,0 0.567272,-0.04886 0.803387,-0.156269 0.236113,-0.114575 0.340677,-0.222989 0.465678,-0.459315 0.125,-0.243488 0.1954,-0.351191 0.216233,-0.773714 l -0.05556,0.006 c 0,0 -0.124837,0.133939 -0.305394,0.227036 -0.187504,0.0931 -0.401833,0.145492 -0.672671,0.145492 -0.458342,0 -0.88728,-0.109611 -1.151175,-0.410388 -0.263892,-0.300779 -0.370919,-0.475274 -0.370919,-1.005215 0,-0.572913 0.02285,-0.937701 0.342304,-1.267125 0.319449,-0.336585 0.755053,-0.578029 1.303677,-0.578032 z M 9,12 l 1,0 0,5 -1,0 0,-4 -1.3125606,0.552597 -0.3139648,-0.831311 z m 3.390635,0.669562 c -0.152782,0.02864 -0.291674,0.107426 -0.388896,0.229165 -0.131947,0.15755 -0.187504,0.401038 -0.187504,0.701815 0,0.257809 0.04861,0.458328 0.16667,0.61588 0.118054,0.150389 0.298616,0.229165 0.534731,0.229165 0.229172,0 0.416674,-0.08593 0.5764,-0.229165 0.159725,-0.157552 0.24306,-0.322264 0.24306,-0.515619 0,-0.293619 -0.07639,-0.544268 -0.222227,-0.744785 -0.152781,-0.200521 -0.347229,-0.286456 -0.576398,-0.286456 -0.05556,0 -0.09723,-0.01433 -0.145836,0 z"
     id="path10"
     inkscape:connector-curvature="0"
     sodipodi:nodetypes="cccccccccccscscsccscccccsssccccccccccccscscscsc" />
</svg>
