<?xml version="1.0" encoding="UTF-8" standalone="no"?>
<svg
   xmlns:dc="http://purl.org/dc/elements/1.1/"
   xmlns:cc="http://creativecommons.org/ns#"
   xmlns:rdf="http://www.w3.org/1999/02/22-rdf-syntax-ns#"
   xmlns:svg="http://www.w3.org/2000/svg"
   xmlns="http://www.w3.org/2000/svg"
   xmlns:sodipodi="http://sodipodi.sourceforge.net/DTD/sodipodi-0.dtd"
   xmlns:inkscape="http://www.inkscape.org/namespaces/inkscape"
   width="22"
   height="22"
   viewBox="0 0 22 22"
   id="svg2"
   version="1.1"
   inkscape:version="0.48.5 r10040"
   sodipodi:docname="text-html.svg">
  <metadata
     id="metadata34">
    <rdf:RDF>
      <cc:Work
         rdf:about="">
        <dc:format>image/svg+xml</dc:format>
        <dc:type
           rdf:resource="http://purl.org/dc/dcmitype/StillImage" />
      </cc:Work>
    </rdf:RDF>
  </metadata>
  <defs
     id="defs32" />
  <sodipodi:namedview
     pagecolor="#ffffff"
     bordercolor="#666666"
     borderopacity="1"
     objecttolerance="10"
     gridtolerance="10"
     guidetolerance="10"
     inkscape:pageopacity="0"
     inkscape:pageshadow="2"
     inkscape:window-width="1280"
     inkscape:window-height="970"
     id="namedview30"
     showgrid="true"
     inkscape:zoom="29.5"
     inkscape:cx="9.4020091"
     inkscape:cy="9.6126348"
     inkscape:window-x="0"
     inkscape:window-y="0"
     inkscape:window-maximized="1"
     inkscape:current-layer="svg2">
    <inkscape:grid
       type="xygrid"
       id="grid3018"
       empspacing="5"
       visible="true"
       enabled="true"
       snapvisiblegridlinesonly="true" />
  </sodipodi:namedview>
  <path
     style="fill:#7099c3;fill-opacity:1"
     d="m 4,2e-7 c -0.472657,0 -1,0.527344 -1,1 L 3,21 c 0,0.445312 0.554687,1 1,1 l 14,0 c 0.445313,0 0.992367,-0.554753 1,-1 l 0,-14.9999998 -6,-6 z"
     id="path4"
     inkscape:connector-curvature="0"
     sodipodi:nodetypes="ssssssccs" />
  <path
     style="fill:#000000;fill-opacity:0.19599998"
     d="M 14,6.0000002 19,11 19,6.0000002 z"
     id="path6"
     inkscape:connector-curvature="0"
     sodipodi:nodetypes="cccc" />
  <path
     style="fill:#ffffff;fill-opacity:0.39200003"
     d="m 13,2e-7 6,6 -5,0 c -0.445312,0 -1,-0.554688 -1,-1 z"
     id="path8"
     inkscape:connector-curvature="0"
     sodipodi:nodetypes="ccssc" />
  <g
     style="fill:#ffffff"
     id="g10"
     transform="matrix(1.6669746,0,0,1.6670988,-2.3361114,-2.5043514)">
    <path
       d="m 5.6006321,7.5006661 0,0.5998444 4.7991129,0 0,-0.5998444 z"
       id="path12"
       inkscape:connector-curvature="0"
       sodipodi:nodetypes="ccccc" />
    <path
       d="m 5.2668101,8.700355 0.00663,0.5998445 5.4663799,0 0.01326,-0.5998445 z"
       id="path14"
       inkscape:connector-curvature="0"
       sodipodi:nodetypes="ccccc" />
    <path
       d="m 5.6006321,9.900044 0,0.599844 4.7991129,0 0,-0.599844 z"
       id="path16"
       inkscape:connector-curvature="0"
       sodipodi:nodetypes="ccccc" />
    <path
       d="m 7.726562,6.273438 0,5.453124 0.546876,0 0,-5.453124 z"
       id="path18"
       inkscape:connector-curvature="0" />
  </g>
  <g
     style="fill:none;stroke:#ffffff"
     id="g20"
     transform="matrix(1.6669746,0,0,1.6670988,-2.3361114,-2.5043514)">
    <g
       style="stroke-width:2"
       id="g22">
      <path
         d="m 20.447975,32.994922 c -2.005237,-6.001389 -2.005237,-11.988455 0,-17.989844"
         transform="matrix(0.27272,0,0,0.27272,1.45461,2.45464)"
         id="path24"
         inkscape:connector-curvature="0" />
      <path
         d="m 27.466306,32.994922 c 2.005237,-4.998771 2.005237,-11.988455 0,-17.989844"
         transform="matrix(0.27272,0,0,0.27272,1.45461,2.45464)"
         id="path26"
         inkscape:connector-curvature="0" />
    </g>
    <path
       style="stroke-width:1.82099998;stroke-linecap:round"
       d="m 33.055052,27.317092 c 0,5.033344 -4.068402,9.101746 -9.101746,9.101746 -5.033344,0 -9.101747,-4.068402 -9.101747,-9.101746 0,-5.033344 4.068403,-9.101747 9.101747,-9.101747 5.033344,0 9.101746,4.068403 9.101746,9.101747 z"
       transform="matrix(0.29957,0,0,0.29957,0.82443,0.81676)"
       id="path28"
       inkscape:connector-curvature="0" />
  </g>
</svg>
