<svg width="256" xmlns="http://www.w3.org/2000/svg" height="256" viewBox="0 0 256 256" xmlns:xlink="http://www.w3.org/1999/xlink">
<path style="fill:#9c9c37;stroke:#9c9c37;stroke-width:1.449" d="M 337.366636 491.213596 C 276.479566 487.046751 223.008705 438.827127 207.908164 380.445445 C 193.988511 319.96028 221.639559 251.794822 275.606736 220.190994 C 310.291771 199.408353 353.836323 196.771835 392.246577 207.62168 C 439.676081 222.254356 475.804425 264.667909 488.469027 311.936094 C 499.878578 355.530348 491.663701 405.010916 461.388457 439.365894 C 433.971306 473.634898 390.158629 493.391589 346.306019 491.632 C 343.339536 491.597611 340.333119 491.442859 337.366636 491.213596 Z M 373.649009 484.375844 C 384.602178 483.418673 382.662554 480.054247 372.736245 479.177318 C 354.977278 475.738381 335.809232 475.663871 318.654972 481.699205 C 333.755513 488.995482 353.79639 487.086872 370.682525 484.908879 Z M 319.875794 474.7067 C 327.668518 466.722635 319.533508 447.653731 312.722006 440.08807 C 297.47314 432.258758 285.681369 419.534692 271.727488 409.905669 C 261.230701 406.042597 250.996334 413.344606 240.881767 415.826372 C 240.841833 425.873799 240.15726 437.262411 248.982548 444.254915 C 263.512611 458.623939 281.043387 471.267763 300.821844 476.999324 C 307.171259 477.268708 313.828732 476.884693 319.875794 474.7067 Z M 403.353775 475.125104 C 428.643045 464.200748 452.340683 446.62205 466.602622 422.704245 C 471.73692 415.826372 475.502072 403.749972 462.112964 407.762065 C 445.266761 418.38838 430.052125 431.53085 412.823703 441.578276 C 402.366849 449.911966 394.836545 461.334968 387.380404 472.259323 C 389.964667 478.300389 398.407735 476.844572 403.353775 475.125104 Z M 420.508035 431.186956 C 433.206866 420.715394 451.576243 413.992272 458.27365 398.133043 C 461.274362 385.638239 461.502553 372.725032 462.757603 360.000966 C 450.093002 348.732717 434.576012 341.086814 419.36708 333.865047 C 404.340701 335.05148 392.212348 348.463333 380.306482 357.135185 C 373.991295 360.614243 375.628566 368.523797 373.8772 374.559131 C 371.59529 388.698893 368.936864 402.758412 367.373756 417.012805 C 379.20546 425.759167 392.400606 433.823474 406.776641 437.22229 C 411.985101 437.262411 416.286501 433.748964 420.508035 431.186956 Z M 329.876266 433.364949 C 341.399912 428.968842 356.614549 425.644536 362.011267 413.419116 C 366.044543 396.298943 368.252291 378.760366 370.380172 361.30203 C 358.930688 350.371943 346.722468 338.874431 331.741727 333.217381 C 318.809001 332.988118 307.855832 342.158616 296.372119 347.162269 C 280.889358 351.403624 275.49264 365.503265 274.842296 380.101551 C 270.278475 394.545085 275.49264 409.366902 288.533757 417.316578 C 299.943308 425.724778 314.587467 439.171021 329.876266 433.364949 Z M 233.579654 413.149733 C 224.263755 395.840418 217.834473 376.891877 215.25021 357.364448 C 206.008473 359.238668 214.411608 381.97004 216.961643 391.22078 C 221.297272 403.749972 227.94904 415.293337 234.874638 426.527197 C 236.129689 421.901827 236.888424 417.316578 233.579654 413.149733 Z M 229.586311 336.083161 C 233.653816 330.236969 240.123031 325.65172 242.593199 318.962988 C 246.888895 298.787892 253.928588 279.300584 264.003222 261.228972 C 263.586773 249.576708 250.579885 242.469572 244.116374 255.34839 C 225.707064 279.111443 211.256867 308.113143 210.606523 338.719679 C 208.176288 349.225631 217.303929 356.831413 222.552323 344.41112 C 224.868462 341.65997 227.230239 338.874431 229.586311 336.083161 Z M 466.865042 350.566816 C 474.66347 340.284395 485.46261 328.099096 482.690089 314.148476 C 477.783982 287.748906 464.280778 262.679057 443.515395 245.490105 C 437.314304 242.853587 426.058782 233.224564 421.763086 242.31482 C 415.407966 254.580361 399.588623 266.158115 405.293399 281.404067 C 410.159572 296.460879 413.736467 312.165356 420.850322 326.339507 C 433.971306 336.581807 449.106075 344.565872 464.35494 351.288993 Z M 292.641195 343.723332 C 304.73532 337.573367 316.487157 330.810125 328.278929 324.161514 C 332.232338 310.216626 337.252541 296.609899 341.896228 282.934394 C 342.540867 268.106845 329.345722 257.486263 320.560367 247.094942 C 311.889108 233.184443 297.244949 243.845147 286.559905 248.929042 C 263.056229 261.538476 257.653807 289.239112 249.627188 312.394619 C 250.768143 321.066471 258.680666 328.288238 264.459604 334.747707 C 272.412061 342.806282 281.385673 353.507107 292.641195 343.723332 Z M 379.353784 268.869143 C 385.629037 267.992214 392.628797 268.639881 398.407735 266.845902 C 407.118927 257.486263 414.763326 246.521786 418.374449 234.176003 C 414.004591 221.761442 399.54869 216.104391 387.910948 211.863036 C 373.118465 207.466928 357.259188 205.288935 341.896228 207.048524 C 330.828963 212.705575 310.936411 229.17235 322.157704 241.970926 C 330.372581 251.794822 339.118002 261.114341 348.057385 270.32496 C 358.514239 270.439591 368.936864 269.597051 379.353784 268.869143 Z " transform="matrix(.68473 0 0 .68153 -112.2054 -109.52453)"/>
</svg>
