<svg width="256" xmlns="http://www.w3.org/2000/svg" height="256" viewBox="0 0 256 256" xmlns:xlink="http://www.w3.org/1999/xlink">
<g style="fill:#8ccd7c">
<path d="M 74.246094 80.261719 C 48.542969 80.261719 27.707031 101.222656 27.707031 127.058594 C 27.707031 128.671875 27.734375 130.261719 27.890625 131.824219 C 28.28125 141.847656 27.707031 156.328125 39.347656 191.433594 C 49.246094 221.300781 56.796875 220.675781 56.796875 220.675781 L 68.410156 214.816406 C 68.410156 214.816406 62.605469 203.125 62.605469 191.433594 C 62.605469 185.808594 63.933594 178.878906 65.339844 173.152344 C 68.203125 173.699219 71.222656 173.878906 74.246094 173.878906 C 99.921875 173.878906 120.753906 152.917969 120.753906 127.058594 C 120.753906 101.222656 99.921875 80.261719 74.246094 80.261719 Z "/>
<path d="M 179.089844 173.074219 C 204.792969 173.074219 225.625 152.109375 225.625 126.277344 C 225.625 124.660156 225.597656 123.074219 225.441406 121.511719 C 225.050781 111.484375 225.625 97.003906 213.984375 61.902344 C 204.089844 32.03125 196.535156 32.65625 196.535156 32.65625 L 184.921875 38.515625 C 184.921875 38.515625 190.730469 50.207031 190.730469 61.902344 C 190.730469 67.527344 189.402344 74.453125 187.996094 80.183594 C 185.128906 79.636719 182.109375 79.453125 179.089844 79.453125 C 153.410156 79.453125 132.578125 100.417969 132.578125 126.277344 C 132.578125 152.109375 153.410156 173.074219 179.089844 173.074219 Z "/>
</g>
</svg>
