<svg width="256" xmlns="http://www.w3.org/2000/svg" height="256" viewBox="0 0 256 256" xmlns:xlink="http://www.w3.org/1999/xlink">
<path style="fill:#61c66b;fill-rule:evenodd;stroke:#61c66b;stroke-linejoin:round;stroke-width:12.5" d="M 234.919403 36.602773 C 219.748641 37.177714 202.703969 42.258762 193.607256 53.182655 C 180.35348 81.3548 212.518656 68.368304 216.302372 87.873202 C 220.078908 107.370914 197.390972 108.47049 197.390972 108.47049 L 99.646172 108.47049 C 99.646172 108.47049 99.746688 205.405667 99.746688 205.405667 C 99.746688 205.405667 100.845186 228.115866 120.323785 224.328437 C 136.2197 221.259686 130.569255 199.4119 143.018901 198.456059 C 145.890792 198.262016 149.767844 199.124429 155.030584 201.618239 C 165.943768 210.723878 171.019835 227.778088 171.594213 242.970923 C 171.780886 248.576605 171.307024 253.844509 170.344941 258.49435 C 170.301863 258.681206 170.301863 258.875249 170.251604 259.112413 C 168.578728 272.192337 163.502661 285.516612 154.262353 293.184897 C 126.067566 306.408557 139.09159 274.305248 119.605812 270.517819 C 105.389953 267.736539 100.98878 278.99821 99.646172 285.322569 L 99.646172 388.244327 C 99.646172 388.244327 197.728419 387.425035 197.728419 387.425035 C 197.728419 387.425035 220.416355 386.375767 216.632639 366.827747 C 212.856103 347.322849 180.734005 360.359653 193.944703 332.1372 C 203.041416 321.256428 220.078908 316.13226 235.299929 315.607625 C 240.900116 315.363275 246.170035 315.895096 250.76506 316.850937 C 251.001991 316.850937 251.195844 316.901244 251.389696 316.944365 C 264.499877 318.626069 277.854169 323.69993 285.514938 332.898998 C 298.775893 361.07833 266.610717 348.091834 262.827001 367.589545 C 259.043285 387.094444 281.731222 388.19402 281.731222 388.19402 L 378.951902 388.19402 L 378.951902 286.134674 C 380.337589 279.767195 384.745941 268.649259 398.861284 271.430539 C 418.39732 275.167661 405.373296 307.314091 433.568083 294.090431 C 442.758133 286.422145 447.8342 273.105057 449.557334 259.974825 C 449.557334 259.787969 449.600413 259.593926 449.600413 259.356763 C 450.605575 254.757229 451.086616 249.482138 450.892764 243.876457 C 450.318385 228.690808 445.19924 211.629412 434.336314 202.530959 C 406.141527 189.307299 419.158371 221.453729 399.629515 225.241157 C 380.100658 228.978279 379.045238 206.311201 379.045238 206.311201 L 378.951902 108.47049 L 276.805929 108.47049 C 270.387253 106.990015 259.811516 102.483909 262.489554 88.635 C 266.27327 69.086981 298.388188 82.123785 285.177491 53.944453 C 277.473644 44.745385 264.16961 39.671524 251.052249 37.98982 C 250.858397 37.946699 250.621466 37.896392 250.427613 37.896392 C 245.832588 36.890244 240.569848 36.40873 234.919403 36.602773 Z " transform="matrix(.54407 0 0 .54353 -23.09307 11.22627)"/>
</svg>
