<svg width="256" xmlns="http://www.w3.org/2000/svg" height="256" viewBox="0 0 256 256" xmlns:xlink="http://www.w3.org/1999/xlink">
<g style="fill:#ec7878">
<path d="M 139.53125 57.394531 C 138.699219 57.394531 137.785156 57.628906 137.003906 58.152344 C 136.222656 58.671875 135.546875 59.558594 135.574219 60.703125 C 135.675781 61.121094 135.625 61.511719 135.597656 61.953125 C 135.597656 63.230469 136.640625 64.269531 137.941406 64.269531 C 139.21875 64.269531 140.261719 63.230469 140.261719 61.953125 C 140.261719 60.675781 139.246094 59.636719 137.96875 59.609375 C 138.410156 59.324219 139.0625 59.167969 139.53125 59.140625 C 141.378906 59.140625 142.734375 60.183594 143.722656 61.746094 C 144.714844 63.308594 145.207031 65.390625 145.183594 67.082031 C 145.105469 71.300781 143.019531 74.871094 139.921875 77.578125 C 136.847656 80.3125 132.761719 82.160156 128.878906 82.890625 L 129.191406 84.609375 C 133.386719 83.828125 137.734375 81.875 141.09375 78.90625 C 144.453125 75.9375 146.847656 71.902344 146.953125 67.109375 C 146.980469 65.050781 146.433594 62.707031 145.207031 60.808594 C 144.011719 58.878906 142.058594 57.394531 139.53125 57.394531 Z "/>
<path d="M 113.800781 57.394531 C 114.636719 57.394531 115.546875 57.628906 116.328125 58.152344 C 117.109375 58.671875 117.785156 59.558594 117.761719 60.703125 C 117.65625 61.121094 117.707031 61.511719 117.734375 61.953125 C 117.734375 63.230469 116.691406 64.269531 115.390625 64.269531 C 114.113281 64.269531 113.074219 63.230469 113.074219 61.953125 C 113.074219 60.675781 114.089844 59.636719 115.363281 59.609375 C 114.921875 59.324219 114.269531 59.167969 113.800781 59.140625 C 111.953125 59.140625 110.597656 60.183594 109.609375 61.746094 C 108.621094 63.308594 108.125 65.390625 108.152344 67.082031 C 108.230469 71.300781 110.3125 74.871094 113.410156 77.578125 C 116.484375 80.3125 120.574219 82.160156 124.453125 82.890625 L 124.140625 84.609375 C 119.949219 83.828125 115.597656 81.875 112.238281 78.90625 C 108.878906 75.9375 106.484375 71.902344 106.378906 67.109375 C 106.355469 65.050781 106.902344 62.707031 108.125 60.808594 C 109.324219 58.878906 111.277344 57.394531 113.800781 57.394531 Z "/>
<path d="M 124.921875 74.269531 C 114.949219 74.714844 105.285156 79.609375 98.855469 87.160156 C 95.519531 90.78125 92.394531 94.84375 90.964844 99.636719 C 90.988281 100.390625 91.277344 101.121094 91.484375 101.847656 C 89.347656 102.003906 86.691406 101.71875 85.207031 103.59375 C 82.527344 106.5625 81.902344 110.675781 80.574219 114.324219 C 74.558594 135.128906 77.65625 158.855469 90.46875 176.535156 C 97.421875 186.042969 107.761719 193.566406 119.609375 195.496094 C 121.589844 195.675781 123.855469 196.222656 125.675781 195.183594 C 126.355469 194.609375 127.34375 194.765625 127.917969 195.363281 C 130.390625 196.640625 133.175781 195.417969 135.730469 195.078125 C 147.839844 192.421875 158.230469 184.113281 164.738281 173.75 C 176.796875 155.128906 178.800781 130.730469 171.328125 109.949219 C 170.339844 107.472656 169.347656 104.816406 167.394531 102.917969 C 166.09375 102.003906 164.425781 101.691406 162.863281 101.589844 C 163.878906 99.503906 163.203125 97.003906 161.691406 95.339844 C 156.25 86.433594 148.175781 78.75 138.019531 75.730469 C 133.75 74.53125 129.324219 74.246094 124.921875 74.269531 Z "/>
<path d="M 126.222656 76.71875 C 126.171875 76.71875 126.09375 76.71875 126.015625 76.746094 C 122.527344 77.003906 118.957031 77.34375 115.625 78.515625 C 106.09375 81.847656 98.828125 89.609375 93.855469 98.203125 C 93.097656 99.53125 93.621094 101.378906 95.15625 101.511719 C 105.832031 101.535156 116.511719 101.511719 127.1875 101.535156 C 127.1875 101.535156 127.1875 101.535156 127.214844 101.535156 C 137.890625 101.511719 148.566406 101.535156 159.246094 101.511719 C 160.78125 101.378906 161.300781 99.53125 160.546875 98.203125 C 155.546875 89.609375 148.28125 81.847656 138.75 78.515625 C 135.417969 77.34375 131.847656 77.003906 128.359375 76.746094 C 127.472656 76.667969 127.628906 76.953125 127.214844 76.953125 C 126.796875 76.925781 126.953125 76.691406 126.222656 76.71875 Z "/>
<path d="M 133.90625 104.191406 C 130.78125 104.191406 128.253906 106.746094 128.253906 109.921875 L 128.253906 191.25 C 128.253906 192.394531 128.253906 193.253906 129.765625 193.410156 C 153.644531 192.109375 173.230469 166.589844 173.230469 135.417969 C 173.230469 125.128906 171.171875 115.46875 167.527344 107.082031 C 167.527344 107.082031 167.5 107.082031 167.5 107.082031 C 167.449219 106.902344 167.371094 106.71875 167.292969 106.535156 C 167.292969 106.511719 167.265625 106.511719 167.265625 106.484375 C 167.265625 106.457031 167.265625 106.457031 167.265625 106.457031 C 166.589844 105.105469 165.234375 104.191406 163.644531 104.191406 Z "/>
<path d="M 119.425781 104.191406 C 122.550781 104.191406 125.078125 106.746094 125.078125 109.921875 L 125.078125 191.25 C 125.078125 192.394531 125.078125 193.253906 123.566406 193.410156 C 99.6875 192.109375 80.105469 166.589844 80.105469 135.417969 C 80.105469 125.128906 82.160156 115.46875 85.808594 107.082031 C 85.808594 107.082031 85.832031 107.082031 85.832031 107.082031 C 85.886719 106.902344 85.964844 106.71875 86.042969 106.535156 C 86.042969 106.511719 86.066406 106.511719 86.066406 106.484375 C 86.066406 106.457031 86.066406 106.457031 86.066406 106.457031 C 86.746094 105.105469 88.097656 104.191406 89.6875 104.191406 Z "/>
<g style="fill-rule:evenodd">
<path d="M 93.410156 106.5625 L 89.792969 111.042969 L 84.0625 110.625 L 87.214844 115.417969 L 85.027344 120.753906 L 90.574219 119.246094 L 94.972656 122.96875 L 95.261719 117.214844 L 100.15625 114.191406 L 94.765625 112.136719 Z M 111.378906 112.003906 L 108.332031 127.34375 L 93.984375 133.515625 L 107.605469 141.171875 L 109.035156 156.71875 L 120.519531 146.121094 L 135.78125 149.558594 L 129.246094 135.363281 L 137.214844 121.925781 L 121.691406 123.777344 Z M 158.253906 119.089844 L 154.660156 123.566406 L 148.90625 123.152344 L 152.058594 127.96875 L 149.894531 133.28125 L 155.441406 131.769531 L 159.816406 135.496094 L 160.105469 129.738281 L 165 126.71875 L 159.609375 124.6875 Z M 88.984375 146.5625 L 84.609375 155.390625 L 80.519531 155.988281 C 81.953125 160.910156 83.90625 165.652344 86.40625 170.128906 L 88.984375 168.777344 L 97.683594 173.359375 L 96.015625 163.671875 L 103.046875 156.796875 L 93.308594 155.390625 Z M 160.496094 147.394531 L 151.847656 157.214844 L 138.878906 155.675781 L 145.574219 166.902344 L 140.105469 178.777344 L 152.839844 175.910156 L 158.828125 181.433594 C 160.441406 179.714844 161.902344 177.917969 163.253906 175.988281 L 163.644531 171.746094 L 167.109375 169.816406 C 168.253906 167.707031 169.296875 165.519531 170.234375 163.308594 L 163.046875 160.207031 Z M 117.527344 173.90625 L 113.933594 178.386719 L 108.175781 177.96875 L 111.328125 182.785156 L 109.167969 188.125 L 114.714844 186.613281 L 119.089844 190.3125 L 119.375 184.582031 L 124.269531 181.535156 L 118.878906 179.503906 Z "/>
<path style="fill-opacity:.902" d="M 167.292969 150.105469 C 167.292969 159.089844 149.558594 166.40625 127.65625 166.40625 C 105.78125 166.40625 88.019531 159.089844 88.019531 150.105469 C 88.019531 141.09375 105.78125 133.800781 127.65625 133.800781 C 149.558594 133.800781 167.292969 141.09375 167.292969 150.105469 Z "/>
</g>
<path style="fill-opacity:.459" d="M 98.359375 179.347656 C 104.660156 185.832031 112.917969 190.546875 121.980469 191.535156 C 122.527344 191.71875 123.644531 191.667969 123.386719 190.808594 C 123.332031 188.828125 123.308594 186.847656 123.308594 184.871094 C 123.332031 183.644531 123.332031 183.878906 122.394531 184.453125 C 113.074219 190.128906 105.15625 183.253906 98.359375 179.347656 Z M 154.660156 179.792969 C 147.863281 183.699219 139.949219 190.574219 130.597656 184.894531 C 129.6875 184.324219 129.6875 184.089844 129.714844 185.3125 C 129.714844 187.292969 129.6875 189.269531 129.636719 191.25 C 129.347656 192.109375 130.46875 192.160156 131.042969 191.980469 C 140.105469 190.988281 148.332031 186.277344 154.660156 179.792969 Z "/>
<g style="fill-rule:evenodd">
<path d="M 151.902344 96.042969 C 151.902344 107.082031 140.753906 116.042969 127.003906 116.042969 C 113.253906 116.042969 102.109375 107.082031 102.109375 96.042969 C 102.109375 85 113.253906 76.066406 127.003906 76.066406 C 140.753906 76.066406 151.902344 85 151.902344 96.042969 Z "/>
<path d="M 116.824219 61.300781 C 116.824219 62.082031 116.199219 62.734375 115.441406 62.734375 C 114.6875 62.734375 114.089844 62.082031 114.089844 61.300781 C 114.089844 60.519531 114.6875 59.871094 115.441406 59.871094 C 116.199219 59.871094 116.824219 60.519531 116.824219 61.300781 Z "/>
<path d="M 139.246094 61.300781 C 139.246094 62.082031 138.644531 62.734375 137.890625 62.734375 C 137.136719 62.734375 136.511719 62.082031 136.511719 61.300781 C 136.511719 60.519531 137.136719 59.871094 137.890625 59.871094 C 138.644531 59.871094 139.246094 60.519531 139.246094 61.300781 Z "/>
</g>
<path d="M 177.292969 119.6875 C 173.671875 120.15625 171.09375 123.464844 171.535156 127.109375 C 171.980469 130.753906 175.3125 133.332031 178.933594 132.890625 L 230.808594 132.890625 C 233.203125 132.917969 235.417969 131.667969 236.613281 129.609375 C 237.785156 127.550781 237.785156 125.027344 236.613281 122.96875 C 235.417969 120.910156 233.203125 119.660156 230.808594 119.6875 L 178.933594 119.6875 C 178.386719 119.636719 177.839844 119.636719 177.292969 119.6875 Z "/>
<path d="M 21.847656 120.105469 C 19.503906 120.3125 17.421875 121.769531 16.433594 123.933594 C 15.441406 126.066406 15.675781 128.59375 17.058594 130.519531 C 18.4375 132.449219 20.730469 133.515625 23.074219 133.28125 L 75.363281 133.28125 C 77.734375 133.308594 79.949219 132.058594 81.144531 130 C 82.34375 127.941406 82.34375 125.417969 81.144531 123.359375 C 79.949219 121.300781 77.734375 120.050781 75.363281 120.105469 L 23.074219 120.105469 C 22.683594 120.050781 22.265625 120.050781 21.847656 120.105469 Z "/>
<path d="M 125.574219 15.964844 C 122.421875 16.5625 120.15625 19.324219 120.207031 22.550781 L 120.207031 75.675781 C 120.183594 78.046875 121.433594 80.261719 123.488281 81.457031 C 125.546875 82.65625 128.074219 82.65625 130.128906 81.457031 C 132.1875 80.261719 133.4375 78.046875 133.386719 75.675781 L 133.386719 22.550781 C 133.4375 20.546875 132.578125 18.671875 131.042969 17.394531 C 129.53125 16.09375 127.527344 15.574219 125.574219 15.964844 Z "/>
<path d="M 125.964844 171.902344 C 122.5 172.34375 119.949219 175.417969 120.207031 178.90625 L 120.207031 230.808594 C 120.15625 233.175781 121.40625 235.390625 123.464844 236.589844 C 125.519531 237.8125 128.046875 237.8125 130.105469 236.589844 C 132.160156 235.390625 133.410156 233.175781 133.386719 230.808594 L 133.386719 178.90625 C 133.515625 176.925781 132.761719 175 131.328125 173.644531 C 129.894531 172.292969 127.917969 171.667969 125.964844 171.902344 Z "/>
</g>
<path style="fill:none;stroke:#ec7878;stroke-linejoin:round;stroke-linecap:round;stroke-width:8" d="M 278.36703 118.724193 C 278.36703 168.049115 225.519082 207.990726 160.323534 207.990726 C 95.094418 207.990726 42.240875 168.049115 42.240875 118.724193 C 42.240875 69.424712 95.094418 29.45766 160.323534 29.45766 C 225.519082 29.45766 278.36703 69.424712 278.36703 118.724193 Z " transform="matrix(.6982 0 0 .92127 14.82773 17.73273)"/>
</svg>
