<svg width="256" xmlns="http://www.w3.org/2000/svg" height="256" viewBox="0 0 256 256" xmlns:xlink="http://www.w3.org/1999/xlink">
<path style="fill:#d64c62" d="M 100.78125 65.3125 C 97.996094 65.3125 95.285156 65.730469 92.683594 66.277344 C 84.035156 67.550781 73.59375 70.597656 62.734375 77.785156 C 35.808594 95.625 24.347656 178.308594 28.542969 186.042969 C 32.734375 193.777344 70.417969 178.332031 90.15625 148.621094 C 91.640625 146.40625 93.097656 144.140625 94.402344 141.691406 C 96.457031 142.03125 98.621094 142.082031 100.78125 142.082031 L 155.261719 142.082031 C 156.640625 142.082031 157.761719 142.03125 159.113281 141.902344 C 160.363281 144.21875 161.769531 146.484375 163.175781 148.621094 C 182.917969 178.332031 220.597656 193.777344 224.792969 186.042969 C 228.984375 178.308594 217.527344 95.625 190.597656 77.785156 C 182.863281 72.683594 175.390625 69.636719 168.566406 67.8125 C 167.96875 67.65625 167.449219 67.578125 166.847656 67.421875 C 163.152344 66.277344 159.324219 65.3125 155.261719 65.3125 Z M 168.957031 83.75 C 169.714844 83.621094 170.546875 83.644531 171.277344 83.75 C 172.292969 83.855469 173.253906 84.167969 174.191406 84.6875 C 177.863281 86.824219 179.011719 91.589844 176.875 95.261719 C 174.738281 98.933594 170.15625 100.261719 166.457031 98.125 C 162.761719 96.015625 161.433594 91.25 163.566406 87.578125 C 164.765625 85.519531 166.746094 84.113281 168.957031 83.75 Z M 78.777344 86.222656 L 85.910156 86.222656 L 85.910156 101.769531 L 101.355469 101.769531 L 101.355469 108.699219 L 85.910156 108.699219 L 85.910156 124.246094 L 78.777344 124.246094 L 78.777344 108.699219 L 63.308594 108.699219 L 63.308594 101.769531 L 78.777344 101.769531 Z M 189.246094 94.113281 C 190.234375 94.21875 191.222656 94.53125 192.136719 95.050781 C 195.832031 97.1875 197.160156 101.953125 195.050781 105.625 C 192.917969 109.296875 188.097656 110.625 184.425781 108.488281 C 180.730469 106.378906 179.582031 101.613281 181.71875 97.941406 C 183.308594 95.183594 186.25 93.722656 189.246094 94.113281 Z M 158.722656 101.40625 C 159.480469 101.277344 160.285156 101.300781 161.042969 101.40625 C 162.03125 101.511719 163.019531 101.824219 163.933594 102.34375 C 167.628906 104.480469 168.777344 109.246094 166.640625 112.917969 C 164.503906 116.589844 159.921875 117.917969 156.222656 115.78125 C 152.527344 113.671875 151.199219 108.90625 153.332031 105.234375 C 154.53125 103.175781 156.511719 101.769531 158.722656 101.40625 Z M 176.875 111.769531 C 177.605469 111.640625 178.253906 111.667969 179.011719 111.769531 C 180 111.875 180.988281 112.1875 181.902344 112.707031 C 185.597656 114.84375 186.925781 119.609375 184.792969 123.28125 C 182.683594 126.953125 177.863281 128.28125 174.191406 126.144531 C 170.496094 124.035156 169.347656 119.269531 171.484375 115.597656 C 172.683594 113.542969 174.714844 112.136719 176.875 111.769531 Z "/>
</svg>
