<svg width="256" xmlns="http://www.w3.org/2000/svg" height="256" viewBox="0 0 256 256" xmlns:xlink="http://www.w3.org/1999/xlink">
<g style="fill:#b2a445">
<path d="M 37.292969 27.8125 C 33.621094 27.8125 30.675781 30.730469 30.675781 34.375 L 30.675781 219.035156 C 30.675781 222.683594 33.621094 225.597656 37.292969 225.597656 L 74.714844 225.597656 C 78.410156 225.597656 81.355469 222.683594 81.355469 219.035156 L 81.355469 34.375 C 81.355469 30.730469 78.410156 27.8125 74.714844 27.8125 Z M 43.542969 46.355469 L 68.488281 46.355469 L 68.488281 120.519531 L 43.542969 120.519531 Z M 56.015625 157.605469 C 62.890625 157.605469 68.488281 163.152344 68.488281 169.972656 C 68.488281 176.796875 62.890625 182.34375 56.015625 182.34375 C 49.113281 182.34375 43.542969 176.796875 43.542969 169.972656 C 43.542969 163.152344 49.113281 157.605469 56.015625 157.605469 Z "/>
<path d="M 99.660156 27.8125 C 95.988281 27.8125 93.046875 30.730469 93.046875 34.375 L 93.046875 219.035156 C 93.046875 222.683594 95.988281 225.597656 99.660156 225.597656 L 124.609375 225.597656 C 128.308594 225.597656 131.25 222.683594 131.25 219.035156 L 131.25 34.375 C 131.25 30.730469 128.308594 27.8125 124.609375 27.8125 Z M 99.660156 46.355469 L 124.609375 46.355469 L 124.609375 120.519531 L 99.660156 120.519531 Z M 112.136719 157.605469 C 119.035156 157.605469 124.609375 163.152344 124.609375 169.972656 C 124.609375 176.796875 119.035156 182.34375 112.136719 182.34375 C 105.261719 182.34375 99.660156 176.796875 99.660156 169.972656 C 99.660156 163.152344 105.261719 157.605469 112.136719 157.605469 Z "/>
<path d="M 141.980469 34.324219 C 138.4375 35.285156 136.355469 38.855469 137.292969 42.371094 L 185.519531 220.753906 C 186.484375 224.269531 190.105469 226.328125 193.644531 225.390625 L 217.734375 219.011719 C 221.300781 218.046875 223.386719 214.480469 222.421875 210.964844 L 174.191406 32.578125 C 173.253906 29.0625 169.636719 27.003906 166.09375 27.941406 Z M 146.824219 52.238281 L 170.9375 45.859375 L 190.285156 117.5 L 166.199219 123.90625 Z M 187.941406 156.511719 C 194.582031 154.738281 201.433594 158.671875 203.203125 165.261719 C 205 171.847656 201.042969 178.644531 194.402344 180.390625 C 187.734375 182.160156 180.910156 178.253906 179.113281 171.667969 C 177.34375 165.078125 181.277344 158.28125 187.941406 156.511719 Z "/>
</g>
</svg>
