<svg width="256" xmlns="http://www.w3.org/2000/svg" height="256" viewBox="0 0 256 256" xmlns:xlink="http://www.w3.org/1999/xlink">
<g style="fill:#52c8ff">
<path d="M 39.582031 83.359375 L 39.792969 95.730469 L 214.21875 95.730469 L 214.035156 83.359375 Z "/>
<path d="M 32.34375 120.46875 L 32.34375 132.839844 L 220.988281 132.839844 L 220.988281 120.46875 Z "/>
<path d="M 40.078125 157.578125 L 40.078125 169.949219 L 213.253906 169.949219 L 213.253906 157.578125 Z "/>
<path d="M 120.46875 32.394531 L 120.46875 221.144531 L 132.863281 221.144531 L 132.863281 32.394531 Z "/>
</g>
<g style="fill:none;stroke:#52c8ff">
<g style="stroke-width:12.5">
<path d="M 89.761646 7.735396 C 66.894926 -44.76372 68.631739 -110.632347 89.761646 -168.053749 " transform="matrix(.9896 0 0 .9896 0 205.83333)"/>
<path d="M 166.236674 7.735396 C 189.103394 -44.76372 187.366581 -110.632347 166.236674 -168.053749 " transform="matrix(.9896 0 0 .9896 0 205.83333)"/>
</g>
<path style="stroke-linecap:round;stroke-width:1.214" d="M 33.055848 27.317269 C 33.055848 32.346513 28.982621 36.41974 23.953378 36.41974 C 18.924135 36.41974 14.847841 32.346513 14.847841 27.317269 C 14.847841 22.288026 18.924135 18.211733 23.953378 18.211733 C 28.982621 18.211733 33.055848 22.288026 33.055848 27.317269 Z " transform="matrix(10.1904 0 0 10.1904 -117.42653 -151.70593)"/>
</g>
</svg>
