<svg width="256" xmlns="http://www.w3.org/2000/svg" height="256" viewBox="0 0 256 256" xmlns:xlink="http://www.w3.org/1999/xlink">
<g style="stroke:#ff4545">
<path style="fill:none;stroke-width:8" d="M 65.106798 39.133551 L 198.158505 39.133551 C 210.710925 39.133551 220.867333 49.289959 220.867333 61.842379 L 220.867333 194.155941 C 220.867333 206.684677 210.710925 216.868716 198.158505 216.868716 L 65.106798 216.868716 C 52.578062 216.868716 42.394023 206.684677 42.394023 194.155941 L 42.394023 61.842379 C 42.394023 49.289959 52.578062 39.133551 65.106798 39.133551 Z " transform="scale(.9896)"/>
<g style="stroke-linecap:round;stroke-dasharray:0,159;fill:#000">
<path style="stroke-width:119" d="M 436.967439 117.012957 L -0.015891 117.012957 M 436.967439 439.980926 L -0.015891 439.980926 " transform="matrix(.32107 0 0 .3198 40.83713 37.6066)"/>
<path style="stroke-width:109" d="M 436.967439 117.012957 L -0.015891 117.012957 M 436.967439 439.980926 L -0.015891 439.980926 " transform="matrix(.32107 0 0 .3198 40.83713 37.6066)"/>
</g>
</g>
</svg>
