<svg width="256" xmlns="http://www.w3.org/2000/svg" height="256" viewBox="0 0 256 256" xmlns:xlink="http://www.w3.org/1999/xlink">
<g style="fill-rule:evenodd">
<path style="fill:#fff;stroke:#5b93d6;stroke-width:7.56" d="M 76.159244 33.445489 C 76.159244 33.445489 90.73663 31.973146 106.446891 34.392842 C 106.446891 34.392842 107.236352 37.313845 104.682447 38.182252 L 102.290382 62.63184 L 126.842601 176.156244 C 126.842601 176.156244 132.368823 190.473108 115.237533 193.579634 C 98.078611 196.686161 72.369834 201.446607 52.31754 185.921869 C 52.31754 185.921869 47.580778 179.92197 55.921427 152.393486 L 78.685517 63.02657 L 77.789479 38.288829 C 77.789479 38.288829 74.185593 34.763888 76.159244 33.445489 Z " transform="scale(.9896)"/>
<path style="fill:#d1d6cf;fill-opacity:.467" d="M 121.199219 182.136719 C 121.199219 186.433594 107.472656 189.894531 90.546875 189.894531 C 73.644531 189.894531 59.921875 186.433594 59.921875 182.136719 C 59.921875 177.839844 73.644531 174.347656 90.546875 174.347656 C 107.472656 174.347656 121.199219 177.839844 121.199219 182.136719 Z "/>
<path style="fill:#acc2e2" d="M 113.59375 149.558594 C 90.363281 162.058594 73.046875 158.464844 61.667969 152.03125 L 61.640625 152.160156 C 61.613281 152.265625 61.589844 152.34375 61.589844 152.421875 C 57.578125 165.652344 56.824219 173.410156 56.925781 177.449219 C 56.980469 178.933594 57.109375 179.792969 57.238281 180.363281 C 74.347656 192.550781 96.199219 188.722656 112.785156 185.730469 C 119.269531 184.558594 119.347656 182.863281 119.765625 180.753906 C 120.183594 178.644531 119.425781 176.300781 119.425781 176.300781 C 119.324219 176.042969 119.246094 175.753906 119.191406 175.46875 Z "/>
<path style="fill:#fff;stroke:#5b93d6;stroke-width:7.56" d="M 143.369954 70.893543 L 142.631808 50.47415 C 142.631808 50.47415 142.710754 47.8413 141.289726 47.051839 L 142.316024 44.711089 C 142.316024 44.711089 150.921142 42.816384 171.656319 45.291342 C 171.656319 45.291342 174.920738 45.078188 175.343099 47.920246 C 175.343099 47.920246 173.499709 49.81495 173.657602 53.051738 L 171.261589 72.421149 C 171.261589 72.421149 196.370377 165.340636 203.08079 203.657096 C 203.08079 203.657096 200.05321 219.604196 182.65745 222.394939 C 165.289321 225.185681 129.893865 232.630293 102.13249 209.238581 C 102.13249 209.238581 92.737912 202.946582 105.314016 176.025983 L 140.263427 80.185492 C 140.263427 80.185492 143.421269 75.235575 143.867314 73.577708 C 144.317306 71.919841 143.421269 71.079066 143.369954 70.893543 Z " transform="scale(.9896)"/>
<path style="fill:#d1d6cf;fill-opacity:.467" d="M 193.59375 205.574219 C 193.59375 212.472656 174.972656 218.046875 151.980469 218.046875 C 129.011719 218.046875 110.363281 212.472656 110.363281 205.574219 C 110.363281 198.671875 129.011719 193.074219 151.980469 193.074219 C 174.972656 193.074219 193.59375 198.671875 193.59375 205.574219 Z "/>
<g style="fill:#acc2e2">
<g style="fill-opacity:.6">
<path d="M 84.53125 39.53125 L 85.339844 62.136719 C 85.363281 62.734375 85.3125 63.332031 85.15625 63.933594 L 76.222656 99.011719 C 79.324219 99.246094 82.5 100.441406 85.675781 102.890625 C 91.71875 107.605469 97.394531 106.796875 102.5 103.046875 L 93.90625 63.308594 C 93.777344 62.65625 93.722656 62.003906 93.777344 61.355469 L 95.886719 39.894531 C 91.71875 39.582031 87.8125 39.480469 84.609375 39.53125 C 84.582031 39.53125 84.558594 39.53125 84.53125 39.53125 Z "/>
<path d="M 151.613281 51.199219 C 150.78125 51.199219 150.234375 51.222656 149.53125 51.222656 L 150.128906 68.386719 C 150.78125 70.027344 151.066406 72.421875 150.441406 74.660156 C 149.582031 77.8125 148.671875 78.722656 147.761719 80.3125 C 147.082031 81.457031 146.746094 81.980469 146.457031 82.449219 L 128.515625 131.640625 C 139.269531 127.628906 150.363281 128.75 157.996094 143.046875 C 157.996094 143.046875 172.265625 159.425781 168.699219 114.375 C 168.359375 110.050781 168.542969 106.222656 169.140625 102.8125 C 164.660156 85.652344 161.40625 73.515625 161.40625 73.515625 C 161.144531 72.628906 161.09375 71.71875 161.199219 70.808594 L 163.542969 51.902344 C 158.800781 51.484375 154.636719 51.222656 151.613281 51.199219 Z M 149.0625 66.328125 C 149.089844 66.378906 149.140625 66.457031 149.21875 66.589844 C 149.21875 66.5625 149.191406 66.511719 149.191406 66.484375 C 149.0625 66.328125 148.984375 66.222656 149.0625 66.328125 Z M 149.269531 66.640625 C 149.347656 66.796875 149.425781 67.003906 149.53125 67.160156 C 149.425781 66.925781 149.324219 66.769531 149.269531 66.640625 Z "/>
</g>
<path d="M 115.675781 164.453125 L 111.328125 176.355469 C 111.277344 176.535156 111.199219 176.71875 111.121094 176.902344 C 105.234375 189.480469 104.894531 196.484375 105.390625 199.636719 C 105.625 201.171875 106.042969 201.824219 106.171875 202.003906 C 130.703125 222.707031 161.746094 216.144531 179.480469 213.308594 C 190.234375 211.589844 192.785156 203.722656 193.332031 201.378906 C 191.796875 192.785156 189.324219 181.433594 186.457031 169.035156 C 154.582031 176.925781 131.328125 171.925781 115.675781 164.453125 Z "/>
</g>
</g>
</svg>
