<svg width="256" xmlns="http://www.w3.org/2000/svg" height="256" viewBox="0 0 256 256" xmlns:xlink="http://www.w3.org/1999/xlink">
<path style="fill:#c8a878" d="M 115 201.457031 C 115 205.964844 111.222656 209.582031 106.589844 209.582031 C 101.925781 209.582031 98.175781 205.964844 98.175781 201.457031 C 98.175781 196.980469 101.925781 193.332031 106.589844 193.332031 C 111.222656 193.332031 115 196.980469 115 201.457031 Z M 74.660156 75.519531 C 74.660156 80 70.886719 83.644531 66.25 83.644531 C 61.589844 83.644531 57.839844 80 57.839844 75.519531 C 57.839844 71.015625 61.589844 67.394531 66.25 67.394531 C 70.886719 67.394531 74.660156 71.015625 74.660156 75.519531 Z M 218.59375 103.074219 C 218.59375 107.578125 214.84375 111.222656 210.183594 111.222656 C 205.546875 111.222656 201.769531 107.578125 201.769531 103.074219 C 201.769531 98.59375 205.546875 94.949219 210.183594 94.949219 C 214.84375 94.949219 218.59375 98.59375 218.59375 103.074219 Z M 123.777344 225.3125 C 118.097656 223.644531 112.707031 218.203125 108.386719 209.765625 C 106.746094 206.535156 106.40625 206.121094 105.546875 206.121094 C 104.0625 206.09375 101.589844 204.949219 100.730469 203.855469 C 98.777344 201.378906 99.296875 198.332031 101.433594 196.144531 C 102.058594 195.519531 102.136719 194.765625 102.136719 194.425781 C 102.136719 194.113281 101.71875 192.394531 101.222656 190.574219 C 100.128906 186.667969 98.097656 177.5 97.761719 174.871094 C 97.628906 173.828125 97.394531 172.8125 97.265625 172.605469 C 97.109375 172.371094 95.15625 172.863281 91.5625 174.089844 C 81.277344 177.605469 70.597656 180.285156 60.597656 181.925781 C 55.964844 182.707031 44.035156 182.785156 40.988281 182.082031 C 33.957031 180.46875 30.15625 176.925781 29.738281 171.613281 C 29.503906 168.671875 30.285156 165.886719 32.5 161.71875 C 35.441406 156.199219 38.90625 151.824219 45.363281 145.390625 C 50.625 140.15625 61.144531 131.433594 66.980469 127.472656 L 68.253906 126.613281 L 66.40625 125.261719 C 42.472656 107.917969 29.011719 91.980469 29.714844 81.875 C 30.339844 73.359375 39.949219 69.582031 56.824219 71.222656 C 60.574219 71.613281 60.597656 71.613281 61.71875 70.753906 C 65.128906 68.175781 70.183594 69.0625 72.371094 72.605469 C 73.125 73.855469 73.515625 74.140625 75.15625 74.53125 C 78.253906 75.285156 87.292969 77.96875 92.238281 79.609375 C 94.792969 80.441406 96.953125 81.066406 97.058594 80.964844 C 97.160156 80.859375 97.605469 78.984375 98.019531 76.769531 C 102.1875 54.324219 109.167969 38.097656 117.527344 31.199219 C 121.824219 27.65625 126.71875 26.769531 131.199219 28.699219 C 135.339844 30.496094 140.207031 35.78125 143.957031 42.550781 C 146.640625 47.371094 150.261719 57.292969 152.5 65.964844 C 153.671875 70.417969 155.390625 78.722656 155.390625 79.84375 C 155.390625 80.285156 155.546875 80.753906 155.753906 80.859375 C 155.964844 80.988281 158.644531 80.234375 161.71875 79.21875 C 189.035156 70.128906 211.171875 68.4375 219.765625 74.738281 C 225.417969 78.90625 224.84375 87.238281 218.28125 96.433594 C 217.160156 98.019531 216.925781 98.621094 217.160156 99.296875 C 217.316406 99.792969 217.449219 101.277344 217.472656 102.578125 C 217.5 104.738281 217.394531 105.128906 216.40625 106.277344 C 214.871094 108.097656 212.472656 108.984375 209.871094 108.699219 C 207.917969 108.488281 207.761719 108.542969 206.796875 109.53125 C 205 111.433594 195 119.714844 190.339844 123.175781 C 187.839844 125.027344 185.78125 126.691406 185.78125 126.847656 C 185.78125 127.003906 187.058594 128.074219 188.621094 129.21875 C 193.152344 132.527344 200.730469 138.75 204.167969 142.003906 C 219.949219 156.875 226.121094 168.671875 222.03125 176.144531 C 218.074219 183.4375 204.246094 184.714844 182.394531 179.816406 C 176.824219 178.566406 163.542969 174.6875 158.800781 172.917969 C 157.265625 172.34375 155.886719 171.980469 155.730469 172.136719 C 155.574219 172.265625 155.078125 174.453125 154.636719 176.953125 C 150.652344 198.878906 143.984375 214.84375 135.859375 221.746094 C 134.636719 222.8125 132.785156 224.0625 131.746094 224.53125 C 129.347656 225.597656 125.964844 225.9375 123.777344 225.3125 Z M 128.855469 220.859375 C 137.96875 218.4375 145.753906 202.160156 150.285156 176.121094 C 150.808594 173.152344 151.09375 170.597656 150.9375 170.46875 C 150.78125 170.339844 148.203125 169.296875 145.183594 168.152344 C 142.1875 167.03125 136.796875 164.738281 133.230469 163.074219 L 126.71875 160.050781 L 120.574219 162.863281 C 115.339844 165.261719 109.53125 167.65625 103.175781 169.972656 C 101.953125 170.417969 101.769531 170.625 101.769531 171.613281 C 101.769531 173.152344 102.683594 178.097656 104.21875 184.921875 C 106.171875 193.542969 106.222656 193.644531 108.074219 194.246094 C 110.128906 194.921875 111.300781 195.703125 112.214844 197.527344 C 113.152344 199.402344 113.097656 201.691406 111.613281 203.699219 C 110.363281 205.390625 110.339844 205.234375 113.175781 210.363281 C 116.613281 216.511719 120.183594 219.894531 124.425781 221.042969 C 125.886719 221.457031 126.769531 221.40625 128.855469 220.859375 Z M 210.261719 178.644531 C 213.097656 178.152344 216.171875 176.640625 217.371094 175.15625 C 218.90625 173.253906 219.324219 171.769531 219.113281 169.035156 C 218.699219 163.359375 213.4375 155.832031 203.253906 146.25 C 197.265625 140.652344 182.527344 129.402344 181.433594 129.609375 C 181.121094 129.6875 178.488281 131.355469 175.597656 133.308594 C 172.683594 135.261719 167.734375 138.410156 164.609375 140.285156 L 158.933594 143.699219 L 158.488281 150.15625 C 158.230469 153.722656 157.683594 159.089844 157.238281 162.082031 C 156.824219 165.078125 156.535156 167.605469 156.640625 167.707031 C 157.082031 168.097656 166.824219 171.433594 172.761719 173.230469 C 189.246094 178.203125 202.136719 180.078125 210.261719 178.644531 Z M 57.472656 178.308594 C 67.03125 177.1875 79.660156 174.011719 92.527344 169.480469 C 95.363281 168.488281 96.484375 167.941406 96.484375 167.527344 C 96.484375 167.214844 96.144531 164.582031 95.730469 161.667969 C 95.339844 158.75 94.792969 153.308594 94.53125 149.582031 L 94.089844 142.8125 L 91.980469 141.691406 C 88.308594 139.765625 79.816406 134.582031 76.066406 132.003906 C 74.089844 130.625 72.316406 129.503906 72.160156 129.503906 C 71.746094 129.503906 69.636719 130.988281 64.011719 135.261719 C 58.203125 139.636719 49.425781 147.292969 45.519531 151.378906 C 32.03125 165.496094 30.964844 175.574219 42.683594 178.125 C 45.363281 178.699219 53.28125 178.800781 57.472656 178.308594 Z M 108.097656 163.699219 C 110.9375 162.578125 115.105469 160.78125 117.34375 159.738281 L 121.433594 157.863281 L 117.734375 156.121094 C 113.152344 153.984375 106.5625 150.574219 103.175781 148.59375 C 99.246094 146.300781 99.503906 146.171875 99.503906 150.417969 C 99.503906 154.113281 99.871094 158.152344 100.675781 163.359375 C 101.171875 166.71875 100.574219 166.691406 108.097656 163.699219 Z M 152.160156 164.347656 C 153.515625 155.128906 154.191406 146.796875 153.566406 146.796875 C 153.359375 146.796875 153.074219 146.925781 152.941406 147.109375 C 152.605469 147.628906 141.199219 153.59375 136.40625 155.78125 C 133.984375 156.902344 131.980469 157.890625 131.980469 158.019531 C 131.980469 158.515625 150.027344 166.09375 151.277344 166.121094 C 151.746094 166.121094 151.953125 165.652344 152.160156 164.347656 Z M 133.28125 152.160156 C 139.453125 149.191406 147.917969 144.714844 152.136719 142.1875 L 154.140625 141.015625 L 154.375 136.902344 C 154.6875 131.824219 154.636719 114.425781 154.296875 113.125 C 154.113281 112.316406 153.019531 111.589844 147.683594 108.621094 C 144.191406 106.691406 141.277344 105.105469 141.222656 105.105469 C 141.171875 105.105469 139.191406 104.140625 136.824219 102.96875 C 128.90625 98.984375 127.472656 98.332031 126.875 98.332031 C 125.441406 98.332031 107.160156 107.5 100.574219 111.511719 C 98.933594 112.5 98.777344 112.707031 98.542969 114.375 C 98.097656 117.605469 98.515625 140.105469 99.035156 140.9375 C 99.453125 141.589844 106.222656 145.574219 111.121094 148.046875 C 117.996094 151.535156 125.832031 155.261719 126.300781 155.261719 C 126.589844 155.261719 129.738281 153.878906 133.28125 152.160156 Z M 123.074219 136.378906 C 116.40625 134.21875 113.28125 127.34375 116.433594 121.796875 C 117.917969 119.21875 120.3125 117.550781 123.621094 116.769531 C 126.511719 116.121094 128.332031 116.328125 131.484375 117.683594 C 138.125 120.546875 139.921875 128.644531 135.027344 133.671875 C 132.34375 136.40625 126.953125 137.605469 123.074219 136.378906 Z M 93.464844 126.613281 C 93.464844 117.605469 93.359375 115.285156 92.996094 115.46875 C 90.027344 117.003906 75.886719 126.355469 75.886719 126.769531 C 75.886719 126.925781 76.980469 127.8125 78.332031 128.699219 C 81.535156 130.886719 92.8125 137.917969 93.175781 137.941406 C 93.332031 137.96875 93.464844 132.863281 93.464844 126.613281 Z M 167.316406 133.332031 C 171.40625 130.753906 175.339844 128.175781 176.09375 127.550781 C 177.449219 126.484375 177.472656 126.457031 176.71875 125.9375 C 170.3125 121.484375 160.519531 115.261719 159.894531 115.261719 C 159.714844 115.261719 159.503906 120.390625 159.453125 126.640625 C 159.402344 132.863281 159.480469 137.996094 159.636719 137.996094 C 159.765625 137.996094 163.230469 135.886719 167.316406 133.332031 Z M 81.300781 117.917969 C 85.859375 114.972656 90.597656 112.003906 91.847656 111.300781 L 94.140625 110.027344 L 94.375 106.300781 C 94.738281 100.78125 95.3125 95.285156 95.988281 90.703125 C 96.902344 84.582031 97.082031 85.207031 93.828125 84.0625 C 90.15625 82.761719 78.488281 79.269531 75.261719 78.488281 L 72.761719 77.890625 L 71.589844 79.089844 C 69.269531 81.457031 65.675781 82.082031 62.785156 80.625 C 61.277344 79.84375 59.765625 77.941406 59.324219 76.222656 C 59.113281 75.390625 58.933594 75.3125 56.25 75.105469 C 51.378906 74.6875 44.113281 75.078125 41.589844 75.910156 C 29.480469 79.816406 33.097656 91.613281 51.535156 108.175781 C 54.949219 111.277344 60.3125 115.703125 63.4375 118.019531 C 71.746094 124.21875 71.613281 124.140625 72.394531 123.644531 C 72.761719 123.410156 76.769531 120.832031 81.300781 117.917969 Z M 185.753906 120.832031 C 191.5625 116.691406 194.972656 113.984375 200.234375 109.375 L 204.480469 105.652344 L 204.246094 104.035156 C 203.90625 101.746094 204.347656 99.765625 205.675781 98.410156 C 207.238281 96.796875 208.722656 96.144531 211.015625 96.300781 L 212.96875 96.433594 L 214.765625 94.089844 C 218.75 88.800781 220.207031 83.28125 218.464844 79.972656 C 217.472656 78.074219 216.5625 77.265625 214.113281 76.171875 C 208.019531 73.464844 195.675781 74.089844 180.496094 77.839844 C 173.90625 79.480469 157.316406 84.609375 156.613281 85.234375 C 156.511719 85.339844 156.769531 88.152344 157.238281 91.457031 C 157.996094 97.03125 158.777344 105.597656 158.777344 108.566406 C 158.777344 109.765625 158.933594 109.894531 162.082031 111.769531 C 167.578125 115 174.660156 119.503906 177.863281 121.847656 C 179.503906 123.046875 180.964844 124.035156 181.066406 124.0625 C 181.171875 124.0625 183.28125 122.628906 185.753906 120.832031 Z M 153.878906 104.972656 C 153.878906 100.78125 152.265625 87.136719 151.769531 87.136719 C 151.171875 87.136719 132.34375 95.339844 132.34375 95.597656 C 132.34375 95.703125 133.230469 96.144531 134.324219 96.589844 C 137.265625 97.8125 148.464844 103.621094 151.042969 105.285156 C 152.292969 106.09375 153.4375 106.746094 153.59375 106.769531 C 153.75 106.796875 153.878906 105.988281 153.878906 104.972656 Z M 100.964844 105.832031 C 103.4375 104.296875 114.035156 98.699219 117.527344 97.109375 L 121.378906 95.339844 L 119.035156 94.167969 C 114.089844 91.71875 102.214844 87.03125 101.5625 87.265625 C 101.042969 87.449219 100.859375 88.464844 100.105469 95.261719 C 98.800781 107.03125 98.800781 107.160156 100.964844 105.832031 Z M 130.363281 91.25 C 133.878906 89.6875 144.269531 85.46875 149.167969 83.621094 C 151.847656 82.628906 151.769531 83.359375 150.050781 74.246094 C 146.613281 55.988281 141.171875 42.1875 135.078125 36.277344 C 132.058594 33.332031 129.765625 32.238281 126.691406 32.238281 C 124.011719 32.238281 121.875 33.125 119.582031 35.183594 C 112.5 41.535156 106.640625 55.964844 102.941406 76.121094 C 101.902344 81.902344 101.847656 82.371094 102.292969 82.707031 C 102.527344 82.863281 105.417969 84.0625 108.75 85.363281 C 112.082031 86.691406 117.421875 88.90625 120.652344 90.285156 C 123.855469 91.691406 126.535156 92.863281 126.589844 92.863281 C 126.667969 92.890625 128.359375 92.160156 130.363281 91.25 Z "/>
</svg>
