<svg width="256" xmlns="http://www.w3.org/2000/svg" height="256" viewBox="0 0 256 256" xmlns:xlink="http://www.w3.org/1999/xlink">
<path style="fill:none;stroke:#92c8dd;stroke-linecap:round;stroke-width:8.073" d="M 34.392842 32.024461 L 221.605478 32.024461 C 222.91993 32.024461 223.973859 33.07839 223.973859 34.392842 L 223.973859 221.605478 C 223.973859 222.91993 222.91993 223.973859 221.605478 223.973859 L 34.392842 223.973859 C 33.07839 223.973859 32.024461 222.91993 32.024461 221.605478 L 32.024461 34.392842 C 32.024461 33.07839 33.07839 32.024461 34.392842 32.024461 Z " transform="scale(.9896)"/>
<g style="fill:#92c8dd">
<path d="M 103.410156 64.503906 C 99.894531 73.359375 96.40625 82.214844 92.890625 91.09375 L 113.933594 91.09375 Z M 99.035156 57.394531 L 107.8125 57.394531 C 115.078125 75.183594 122.34375 92.996094 129.609375 110.78125 L 121.5625 110.78125 C 119.84375 106.222656 118.097656 101.640625 116.355469 97.082031 L 90.574219 97.082031 C 88.828125 101.640625 87.082031 106.222656 85.363281 110.78125 L 77.1875 110.78125 C 84.480469 92.996094 91.746094 75.183594 99.035156 57.394531 Z M 157.136719 90.652344 C 152.628906 90.832031 147.394531 90.519531 143.855469 93.542969 C 140.207031 97.449219 142.003906 104.871094 147.8125 105.9375 C 153.464844 107.421875 160.078125 104.921875 162.449219 99.765625 C 163.777344 97.109375 164.636719 93.203125 163.933594 90.652344 Z M 171.199219 87.941406 L 171.199219 110.78125 L 164.140625 110.78125 L 164.140625 104.714844 C 161.222656 109.609375 155.15625 112.058594 149.324219 111.824219 C 143.097656 112.160156 136.484375 108.488281 135.3125 102.527344 C 133.828125 96.769531 136.199219 89.714844 142.5 87.421875 C 149.324219 84.660156 156.902344 85.703125 164.140625 85.496094 C 164.636719 81.222656 161.613281 76.980469 157.082031 75.964844 C 150.703125 74.480469 143.800781 75.753906 138.074219 78.644531 C 138.074219 76.613281 138.074219 74.582031 138.074219 72.550781 C 146.015625 69.765625 155.390625 68.253906 163.253906 71.902344 C 169.503906 74.921875 171.277344 81.902344 171.199219 87.941406 Z "/>
<g style="fill-opacity:.6">
<path d="M 77.1875 121.71875 L 89.636719 121.71875 L 89.636719 126.667969 L 77.1875 126.667969 Z "/>
<path d="M 91.355469 121.71875 L 103.097656 121.71875 L 103.097656 126.667969 L 91.355469 126.667969 Z "/>
<path d="M 104.792969 121.71875 L 115.15625 121.71875 L 115.15625 126.667969 L 104.792969 126.667969 Z "/>
<path d="M 116.847656 121.71875 L 121.378906 121.71875 L 121.378906 126.667969 L 116.847656 126.667969 Z "/>
<path d="M 123.074219 121.71875 L 133.253906 121.71875 L 133.253906 126.667969 L 123.074219 126.667969 Z "/>
<path d="M 134.949219 121.71875 L 161.300781 121.71875 L 161.300781 126.667969 L 134.949219 126.667969 Z "/>
<path d="M 77.1875 151.40625 L 89.636719 151.40625 L 89.636719 156.355469 L 77.1875 156.355469 Z "/>
<path d="M 91.355469 151.40625 L 103.097656 151.40625 L 103.097656 156.355469 L 91.355469 156.355469 Z "/>
<path d="M 104.792969 151.40625 L 115.15625 151.40625 L 115.15625 156.355469 L 104.792969 156.355469 Z "/>
<path d="M 116.847656 151.40625 L 121.378906 151.40625 L 121.378906 156.355469 L 116.847656 156.355469 Z "/>
<path d="M 123.074219 151.40625 L 133.253906 151.40625 L 133.253906 156.355469 L 123.074219 156.355469 Z "/>
<path d="M 134.949219 151.40625 L 161.300781 151.40625 L 161.300781 156.355469 L 134.949219 156.355469 Z "/>
<path d="M 77.1875 131.613281 L 95.964844 131.613281 L 95.964844 136.5625 L 77.1875 136.5625 Z "/>
<path d="M 97.683594 131.613281 L 106.71875 131.613281 L 106.71875 136.5625 L 97.683594 136.5625 Z "/>
<path d="M 108.4375 131.613281 L 112.683594 131.613281 L 112.683594 136.5625 L 108.4375 136.5625 Z "/>
<path d="M 114.375 131.613281 L 122.550781 131.613281 L 122.550781 136.5625 L 114.375 136.5625 Z "/>
<path d="M 124.269531 131.613281 L 132.449219 131.613281 L 132.449219 136.5625 L 124.269531 136.5625 Z "/>
<path d="M 134.167969 131.613281 L 147.292969 131.613281 L 147.292969 136.5625 L 134.167969 136.5625 Z "/>
<path d="M 149.011719 131.613281 L 166.25 131.613281 L 166.25 136.5625 L 149.011719 136.5625 Z "/>
<path d="M 77.1875 141.511719 L 99.113281 141.511719 L 99.113281 146.457031 L 77.1875 146.457031 Z "/>
<path d="M 100.832031 141.511719 L 124.347656 141.511719 L 124.347656 146.457031 L 100.832031 146.457031 Z "/>
<path d="M 126.066406 141.511719 L 135.441406 141.511719 L 135.441406 146.457031 L 126.066406 146.457031 Z "/>
<path d="M 137.1875 141.511719 L 159.296875 141.511719 L 159.296875 146.457031 L 137.1875 146.457031 Z "/>
<path d="M 161.015625 141.511719 L 176.144531 141.511719 L 176.144531 146.457031 L 161.015625 146.457031 Z "/>
<path d="M 77.1875 181.09375 L 99.113281 181.09375 L 99.113281 186.042969 L 77.1875 186.042969 Z "/>
<path d="M 100.832031 181.09375 L 124.347656 181.09375 L 124.347656 186.042969 L 100.832031 186.042969 Z "/>
<path d="M 126.066406 181.09375 L 135.441406 181.09375 L 135.441406 186.042969 L 126.066406 186.042969 Z "/>
<path d="M 137.1875 181.09375 L 159.296875 181.09375 L 159.296875 186.042969 L 137.1875 186.042969 Z "/>
<path d="M 161.015625 181.09375 L 176.144531 181.09375 L 176.144531 186.042969 L 161.015625 186.042969 Z "/>
<path d="M 77.1875 161.300781 L 92.65625 161.300781 L 92.65625 166.25 L 77.1875 166.25 Z "/>
<path d="M 94.296875 161.300781 L 119.972656 161.300781 L 119.972656 166.25 L 94.296875 166.25 Z "/>
<path d="M 121.613281 161.300781 L 134.011719 161.300781 L 134.011719 166.25 L 121.613281 166.25 Z "/>
<path d="M 148.855469 161.300781 L 158.699219 161.300781 L 158.699219 166.25 L 148.855469 166.25 Z "/>
<path d="M 160.339844 161.300781 L 176.144531 161.300781 L 176.144531 166.25 L 160.339844 166.25 Z "/>
<path d="M 135.652344 161.300781 L 147.214844 161.300781 L 147.214844 166.25 L 135.652344 166.25 Z "/>
<path d="M 77.1875 171.199219 L 97.578125 171.199219 L 97.578125 176.144531 L 77.1875 176.144531 Z "/>
<path d="M 99.269531 171.199219 L 105.675781 171.199219 L 105.675781 176.144531 L 99.269531 176.144531 Z "/>
<path d="M 107.371094 171.199219 L 122.03125 171.199219 L 122.03125 176.144531 L 107.371094 176.144531 Z "/>
<path d="M 123.699219 171.199219 L 133.699219 171.199219 L 133.699219 176.144531 L 123.699219 176.144531 Z "/>
<path d="M 135.390625 171.199219 L 145.390625 171.199219 L 145.390625 176.144531 L 135.390625 176.144531 Z "/>
<path d="M 147.082031 171.199219 L 161.5625 171.199219 L 161.5625 176.144531 L 147.082031 176.144531 Z "/>
<path d="M 163.230469 171.199219 L 166.25 171.199219 L 166.25 176.144531 L 163.230469 176.144531 Z "/>
<path d="M 77.1875 190.988281 L 85.261719 190.988281 L 85.261719 195.9375 L 77.1875 195.9375 Z "/>
<path d="M 87.371094 190.988281 L 116.769531 190.988281 L 116.769531 195.9375 L 87.371094 195.9375 Z "/>
</g>
</g>
</svg>
