<svg width="256" xmlns="http://www.w3.org/2000/svg" height="256" viewBox="0 0 256 256" xmlns:xlink="http://www.w3.org/1999/xlink">
<g style="fill:#de165d">
<path d="M 128 87.886719 C 128 117.289062 104.121094 141.125 74.667969 141.125 C 45.210938 141.125 21.332031 117.289062 21.332031 87.886719 C 21.332031 58.484375 45.210938 34.648438 74.667969 34.648438 C 104.121094 34.648438 128 58.484375 128 87.886719 Z "/>
<path d="M 234.667969 87.886719 C 234.667969 117.289062 210.789062 141.125 181.332031 141.125 C 151.878906 141.125 128 117.289062 128 87.886719 C 128 58.484375 151.878906 34.648438 181.332031 34.648438 C 210.789062 34.648438 234.667969 58.484375 234.667969 87.886719 Z "/>
<path d="M 31.414062 118.167969 L 129.675781 89.648438 L 221.011719 123.398438 L 127.320312 221.316406 Z "/>
</g>
</svg>
