<svg width="256" xmlns="http://www.w3.org/2000/svg" height="256" viewBox="0 0 256 256" xmlns:xlink="http://www.w3.org/1999/xlink">
<g style="stroke:#549ca4;stroke-width:4.545;fill:#549ca4">
<path d="M 69.15673 106.237684 C 70.790913 113.788873 71.710634 119.472988 70.368552 127.028124 C 60.077936 135.396404 33.761273 139.158183 33.816536 147.814616 L 30.263964 173.787863 C 30.263964 182.392981 54.816182 189.367863 85.080146 189.367863 C 115.340163 189.367863 139.868697 182.392981 139.868697 173.787863 L 136.343756 147.814616 C 136.288494 140.393688 109.81394 135.684557 99.657532 127.028124 C 98.789126 120.02561 99.472009 113.236251 100.971984 106.237684 Z " transform="scale(.9896)"/>
<path d="M 84.815677 57.551662 C 72.263257 57.551662 62.079218 67.340971 62.079218 79.396031 C 62.185795 83.868324 62.552894 89.18534 65.130482 101.264084 C 66.630457 105.945584 80.15786 119.370358 80.264438 120.921648 C 83.209125 122.472937 87.843257 122.472937 90.866891 120.921648 C 90.866891 119.370358 103.000897 105.945584 104.524555 101.264084 C 107.394244 88.711664 107.394244 84.105162 107.552136 79.396031 C 107.552136 67.340971 97.368097 57.551662 84.815677 57.551662 Z " transform="scale(.9896)"/>
<g style="stroke-linejoin:round">
<path d="M 132.735922 71.185643 C 125.078157 66.630457 112.632314 34.945464 114.550702 48.449184 L 119.105889 80.264438 Z " transform="scale(.9896)"/>
<path d="M 177.999634 71.185643 C 185.685031 66.630457 198.10719 34.945464 196.184854 48.449184 L 191.629667 80.264438 Z " transform="scale(.9896)"/>
</g>
<path d="M 134.81615 107.552136 C 136.920062 117.448022 138.080569 124.920265 136.36744 134.81615 C 123.159768 145.78965 89.315601 150.735619 89.366916 162.080165 L 84.815677 196.184854 C 84.815677 207.474137 116.366461 216.631878 155.263175 216.631878 C 194.183572 216.631878 225.738303 207.474137 225.738303 196.184854 L 221.183117 162.080165 C 221.131802 152.369802 187.078428 146.18438 174.024701 134.81615 C 172.895772 125.630779 173.787863 116.737508 175.73783 107.552136 Z " transform="scale(.9896)"/>
<path d="M 155.263175 39.37039 C 136.446386 39.37039 121.186117 53.60436 121.186117 71.185643 C 121.344009 77.682902 121.896631 85.419614 125.737356 103.000897 C 127.99916 109.81394 148.264608 127.99916 148.446184 130.264911 C 152.867162 132.554346 159.814414 132.554346 164.3696 130.264911 C 164.3696 127.99916 182.550873 109.81394 184.816624 103.000897 C 189.131025 84.7091 189.131025 77.998686 189.367863 71.185643 C 189.367863 53.60436 174.103647 39.37039 155.263175 39.37039 Z " transform="scale(.9896)"/>
</g>
</svg>
