<svg width="256" xmlns="http://www.w3.org/2000/svg" height="256" viewBox="0 0 256 256" xmlns:xlink="http://www.w3.org/1999/xlink">
<g style="fill:#ec86ab">
<path d="M 38.699219 27.707031 L 38.699219 159.660156 L 49.6875 159.660156 L 49.6875 27.707031 Z "/>
<path d="M 60.703125 165.15625 C 60.703125 174.246094 53.308594 181.640625 44.191406 181.640625 C 35.105469 181.640625 27.707031 174.246094 27.707031 165.15625 C 27.707031 156.042969 35.105469 148.644531 44.191406 148.644531 C 53.308594 148.644531 60.703125 156.042969 60.703125 165.15625 Z "/>
<path d="M 104.6875 225.625 L 104.6875 60.703125 L 93.671875 60.703125 L 93.671875 225.625 Z "/>
<path d="M 82.683594 55.207031 C 82.683594 46.09375 90.078125 38.699219 99.167969 38.699219 C 108.28125 38.699219 115.675781 46.09375 115.675781 55.207031 C 115.675781 64.296875 108.28125 71.691406 99.167969 71.691406 C 90.078125 71.691406 82.683594 64.296875 82.683594 55.207031 Z "/>
<path d="M 148.644531 27.707031 L 148.644531 148.644531 L 159.660156 148.644531 L 159.660156 27.707031 Z "/>
<path d="M 170.652344 154.140625 C 170.652344 163.253906 163.253906 170.652344 154.167969 170.652344 C 145.050781 170.652344 137.65625 163.253906 137.65625 154.140625 C 137.65625 145.050781 145.050781 137.65625 154.167969 137.65625 C 163.253906 137.65625 170.652344 145.050781 170.652344 154.140625 Z "/>
<path d="M 214.636719 225.625 L 214.636719 137.65625 L 203.644531 137.65625 L 203.644531 225.625 Z "/>
<path d="M 192.628906 132.160156 C 192.628906 123.046875 200.027344 115.675781 209.140625 115.675781 C 218.230469 115.675781 225.625 123.046875 225.625 132.160156 C 225.625 141.277344 218.230469 148.671875 209.140625 148.671875 C 200.027344 148.671875 192.628906 141.277344 192.628906 132.160156 Z "/>
</g>
</svg>
