<svg width="256" xmlns="http://www.w3.org/2000/svg" height="256" viewBox="0 0 256 256" xmlns:xlink="http://www.w3.org/1999/xlink">
<path style="fill:none;stroke:#6aaf53;stroke-linejoin:round;stroke-linecap:round;stroke-width:2" d="M 10.540283 1021.361712 L 37.459717 1021.361712 C 38.310791 1021.361712 39 1022.051653 39 1022.901995 L 39 1033.821673 C 39 1034.672747 38.310791 1035.361956 37.459717 1035.361956 L 10.540283 1035.361956 C 9.689209 1035.361956 9 1034.672747 9 1033.821673 L 9 1022.901995 C 9 1022.051653 9.689209 1021.361712 10.540283 1021.361712 Z " transform="matrix(5.33333 0 0 5.33333 0 -5356.5984)"/>
<path style="fill:#6aaf53" d="M 61.332031 101.332031 C 59.855469 101.332031 58.667969 102.523438 58.667969 104 L 58.667969 152 C 58.667969 153.476562 59.855469 154.667969 61.332031 154.667969 L 125.617188 154.667969 C 127.097656 154.667969 128.285156 153.476562 128.285156 152 L 128.285156 104 C 128.285156 102.523438 127.097656 101.332031 125.617188 101.332031 Z M 80 138.667969 L 80 117.332031 L 85.332031 117.332031 L 85.332031 138.667969 Z M 90.667969 138.667969 L 90.667969 117.332031 L 96 117.332031 L 96 138.667969 Z M 101.332031 138.667969 L 101.332031 117.332031 L 106.667969 117.332031 L 106.667969 138.667969 Z "/>
</svg>
