<svg width="256" xmlns="http://www.w3.org/2000/svg" height="256" viewBox="0 0 256 256" xmlns:xlink="http://www.w3.org/1999/xlink">
<path style="fill:#4c7686" d="M 109.316406 42.667969 L 109.316406 145.085938 C 102.125 142.269531 92.726562 141.789062 83.027344 144.417969 C 64.898438 149.320312 52.742188 163.085938 55.9375 175.121094 C 59.128906 187.15625 76.417969 192.957031 94.546875 188.050781 C 109.949219 183.886719 120.980469 173.320312 122.003906 162.863281 L 122.125 162.863281 L 122.125 87.542969 L 187.765625 95.695312 L 187.765625 168.625 C 180.570312 165.808594 171.171875 165.324219 161.472656 167.953125 C 143.34375 172.859375 131.191406 186.625 134.382812 198.660156 C 137.578125 210.691406 154.867188 216.496094 172.992188 211.589844 C 188.394531 207.425781 199.429688 196.859375 200.449219 186.402344 L 200.574219 186.402344 L 200.574219 54.808594 L 109.316406 42.675781 Z M 122.125 67.3125 L 187.765625 76.566406 L 187.765625 84.84375 L 122.125 76.691406 Z "/>
</svg>
