<svg width="256" xmlns="http://www.w3.org/2000/svg" height="256" viewBox="0 0 256 256" xmlns:xlink="http://www.w3.org/1999/xlink">
<path style="fill:#9cc7cf" d="M 133.644531 165.964844 C 133.152344 148.019531 137.1875 130.597656 154.296875 118.230469 C 172.34375 104.269531 189.714844 86.796875 187.890625 66.222656 C 187.472656 46.355469 164.167969 30.78125 139.0625 28.542969 C 110.808594 24.660156 76.613281 34.269531 67.136719 56.171875 C 62.34375 66.824219 66.796875 85.9375 82.917969 85.9375 C 92.34375 85.9375 96.667969 79.894531 97.371094 74.375 C 97.917969 70.183594 96.171875 66.457031 95.15625 62.996094 C 93.984375 59.0625 98.957031 51.433594 104.375 48.308594 C 108.90625 45.730469 113.644531 44.84375 114.324219 44.6875 C 130.574219 40.808594 146.769531 49.375 153.515625 59.792969 C 160.285156 70.207031 152.839844 85.988281 142.160156 101.378906 C 131.457031 116.746094 120 134.191406 120.027344 152.734375 C 120.027344 159.792969 119.402344 162.1875 119.84375 165.027344 C 120.207031 167.316406 127.8125 167.03125 133.644531 165.964844 Z M 126.222656 190.128906 C 110.703125 189.296875 99.949219 206.769531 109.269531 217.917969 C 117.605469 230.207031 140.988281 227.160156 144.972656 213.253906 C 149.140625 202.421875 139.140625 189.949219 126.222656 190.128906 Z "/>
</svg>
