<?xml version="1.0" encoding="UTF-8" standalone="no"?>
<!-- Created with Inkscape (http://www.inkscape.org/) -->

<svg
   xmlns:dc="http://purl.org/dc/elements/1.1/"
   xmlns:cc="http://creativecommons.org/ns#"
   xmlns:rdf="http://www.w3.org/1999/02/22-rdf-syntax-ns#"
   xmlns:svg="http://www.w3.org/2000/svg"
   xmlns="http://www.w3.org/2000/svg"
   xmlns:sodipodi="http://sodipodi.sourceforge.net/DTD/sodipodi-0.dtd"
   xmlns:inkscape="http://www.inkscape.org/namespaces/inkscape"
   width="210mm"
   height="297mm"
   viewBox="0 0 744.09448819 1052.3622047"
   id="svg2"
   version="1.1"
   inkscape:version="0.91 r13725"
   sodipodi:docname="tab-icons.svg">
  <defs
     id="defs4" />
  <sodipodi:namedview
     id="base"
     pagecolor="#ffffff"
     bordercolor="#666666"
     borderopacity="1.0"
     inkscape:pageopacity="0.0"
     inkscape:pageshadow="2"
     inkscape:zoom="0.98994949"
     inkscape:cx="255.35233"
     inkscape:cy="899.3134"
     inkscape:document-units="px"
     inkscape:current-layer="layer1"
     showgrid="false"
     inkscape:window-width="1920"
     inkscape:window-height="1021"
     inkscape:window-x="0"
     inkscape:window-y="0"
     inkscape:window-maximized="1" />
  <metadata
     id="metadata7">
    <rdf:RDF>
      <cc:Work
         rdf:about="">
        <dc:format>image/svg+xml</dc:format>
        <dc:type
           rdf:resource="http://purl.org/dc/dcmitype/StillImage" />
        <dc:title></dc:title>
      </cc:Work>
    </rdf:RDF>
  </metadata>
  <g
     inkscape:label="Layer 1"
     inkscape:groupmode="layer"
     id="layer1">
    <g
       id="g4328"
       transform="translate(-3.8608093,0)"
       inkscape:export-filename="world.png"
       inkscape:export-xdpi="150.73"
       inkscape:export-ydpi="150.73">
      <rect
         ry="1.87653e-17"
         y="56.942493"
         x="435.63394"
         height="76.428574"
         width="76.428574"
         id="rect4298"
         style="color:#000000;display:inline;overflow:visible;visibility:visible;opacity:1;fill:none;fill-opacity:1;fill-rule:nonzero;stroke:none;stroke-width:24.70000076;stroke-linecap:butt;stroke-linejoin:round;stroke-miterlimit:4;stroke-dasharray:none;stroke-dashoffset:0;stroke-opacity:1;marker:none;enable-background:accumulate" />
      <path
         inkscape:connector-curvature="0"
         id="path4166"
         d="m 469.00095,132.08655 c -12.31427,-1.70494 -22.79409,-9.1391 -28.3736,-20.12762 -2.71954,-5.35595 -3.98875,-10.71689 -3.98875,-16.848355 0,-9.831881 3.60604,-18.761881 10.41691,-25.796245 5.70152,-5.888661 12.50597,-9.501254 20.62789,-10.951642 1.85535,-0.33131 2.67936,-0.382327 6.17596,-0.382327 4.54088,0 6.56736,0.261271 10.25445,1.322075 12.50693,3.598393 22.30759,13.548513 25.71576,26.107831 1.00018,3.685826 1.32771,6.654116 1.20309,10.905282 -0.16698,5.695861 -1.25785,10.126111 -3.74776,15.220671 -4.99085,10.21183 -14.39456,17.56808 -25.60259,20.02833 -3.47126,0.76197 -9.23465,0.99922 -12.68136,0.522 z m 13.64023,-9.81656 c 1.81604,-0.28008 3.80277,-1.28963 4.45105,-2.26174 0.26122,-0.3917 0.93588,-1.07442 1.49919,-1.51714 l 1.02431,-0.80497 -0.0755,-0.91468 c -0.0885,-1.06799 0.15743,-1.50763 1.91904,-3.43059 0.57625,-0.62907 1.18105,-1.44937 1.34394,-1.82291 0.26989,-0.61884 0.27789,-0.82538 0.0894,-2.32607 l -0.2068,-1.64694 0.73645,-1.39991 c 0.40502,-0.76994 1.08687,-1.77044 1.51524,-2.22336 1.75572,-1.85623 3.70757,-4.887002 3.36669,-5.227844 -0.0434,-0.04333 -0.39174,-0.0182 -0.7742,0.05578 -1.48053,0.28651 -1.39505,0.343149 -3.14331,-2.080729 -1.48955,-2.065261 -2.40513,-3.645662 -2.40902,-4.158424 0,-0.529758 -1.21889,-3.286017 -1.83644,-4.166321 -0.87252,-1.243871 -1.91765,-1.83512 -4.34309,-2.456882 -0.99749,-0.255694 -2.00626,-0.552688 -2.24171,-0.659976 -0.34462,-0.156995 -0.52148,-0.146835 -0.9061,0.0521 -1.46682,0.758545 -5.00369,0.302595 -5.50097,-0.709141 -0.0668,-0.135884 -0.24785,-0.765824 -0.40233,-1.399902 -0.15456,-0.634067 -0.29298,-1.162069 -0.30773,-1.173323 -0.0147,-0.01127 -0.40988,0.03033 -0.87817,0.09229 -0.54084,0.0716 -1.11144,0.03509 -1.56453,-0.10041 -0.8753,-0.261554 -1.45008,-0.165357 -3.32625,0.556663 -0.96408,0.371008 -1.74748,0.563477 -2.30576,0.566488 -0.46508,0.0022 -1.04921,0.08113 -1.2982,0.17478 -0.46794,0.176027 -1.93536,2.0599 -1.93536,2.484698 0,0.404272 -0.64706,1.084601 -1.70348,1.79097 -2.23902,1.497213 -2.56281,2.110592 -2.79113,5.287457 l -0.16307,2.268432 0.59499,1.190134 c 0.88163,1.76336 2.12577,3.304702 3.52558,4.36769 2.2214,1.68692 1.96462,1.60363 3.62549,1.17613 0.79233,-0.20397 1.89466,-0.58478 2.44963,-0.84623 1.45311,-0.68467 1.85718,-0.68127 2.09453,0.0177 0.28526,0.84016 0.5877,0.95587 1.63509,0.62571 1.36052,-0.42887 1.37475,-0.42177 1.49946,0.7488 0.36214,3.40066 0.29749,3.17504 1.11768,3.89703 0.66251,0.58314 0.76621,0.76697 0.86472,1.53256 0.0616,0.47847 0.26035,1.31461 0.44164,1.8581 l 0.32969,0.98816 -0.49154,1.19117 c -0.74001,1.79323 -0.80441,2.5157 -0.30071,3.37514 0.22702,0.38736 0.56444,0.84157 0.7499,1.00938 0.18536,0.1678 0.38601,0.52777 0.4458,0.79995 0.0599,0.27217 0.33837,0.9858 0.61921,1.58583 0.4183,0.89385 0.52313,1.35452 0.58023,2.54933 l 0.0694,1.45833 0.51437,-0.0873 c 0.28291,-0.048 1.09416,-0.17671 1.80266,-0.28598 z m -30.2305,-2.57728 c 0.71518,-0.3291 0.73193,-0.37653 0.438,-1.23913 -0.22929,-0.67296 -0.22816,-0.84023 0.0113,-1.76544 0.14571,-0.56213 0.41448,-1.40163 0.59734,-1.86556 0.53051,-1.34597 0.36535,-1.76612 -1.05633,-2.6867 -0.65297,-0.42283 -1.4466,-0.84027 -1.76362,-0.92766 -0.61434,-0.16932 -1.85709,-0.83169 -2.36764,-1.26191 -0.16992,-0.14319 -0.59073,-0.83519 -0.93518,-1.53778 -0.34436,-0.70258 -0.95957,-1.65856 -1.36701,-2.12436 -0.69983,-0.79997 -1.20768,-1.15623 -3.14748,-2.20773 -0.44971,-0.24383 -1.09815,-0.66869 -1.44096,-0.94415 -0.34279,-0.27545 -0.66606,-0.45802 -0.71839,-0.40569 -0.12974,0.12976 0.49702,2.34 1.20291,4.24191 1.61904,4.36231 4.21847,8.46643 7.43242,11.73475 1.36024,1.38322 1.44078,1.43727 1.99697,1.33919 0.31877,-0.0562 0.82159,-0.21359 1.11744,-0.34974 z m 42.88036,-3.21314 c 0.45301,-0.38497 0.99888,-0.9964 1.21297,-1.35872 0.65644,-1.11065 1.38021,-4.43296 1.15666,-5.30926 -0.11352,-0.44484 -0.12619,-0.4352 -0.56723,0.431 -0.33324,0.65429 -0.68454,1.04198 -1.3434,1.48226 -0.74356,0.49686 -0.91592,0.70598 -1.03463,1.25498 -0.0781,0.36232 -0.31929,1.08981 -0.53529,1.61663 -0.5404,1.31781 -0.51732,2.58306 0.0469,2.58306 0.13208,0 0.61069,-0.31498 1.06379,-0.69995 z m 12.49842,-25.155134 c -0.69957,-6.065033 -3.07232,-11.961991 -6.76488,-16.812725 -2.06979,-2.718934 -5.6452,-6.083589 -8.19412,-7.711151 l -0.87461,-0.558407 -0.79885,0.37417 -0.79883,0.37416 -0.66546,-0.474158 c -0.36597,-0.260795 -0.6875,-0.62239 -0.71458,-0.803562 -0.0303,-0.201069 -0.37004,-0.501096 -0.87279,-0.770178 l -0.8234,-0.440818 -1.96895,0.173882 c -1.51629,0.133923 -2.28441,0.124792 -3.34169,-0.03965 -1.32198,-0.20565 -1.42308,-0.197862 -2.72492,0.209616 -3.6976,1.157401 -4.39525,1.525592 -4.83177,2.550002 -0.3914,0.918572 -0.3369,0.979782 0.86046,0.965365 l 1.08636,-0.01311 0.32318,0.859551 c 0.28231,0.75093 0.39998,0.8809 0.93118,1.028417 1.02735,0.285339 1.31504,0.220457 1.61635,-0.364563 0.15162,-0.294385 0.46291,-0.781606 0.69185,-1.082706 l 0.41612,-0.547446 0.21245,0.382761 c 0.46308,0.834204 0.57589,1.416506 0.40076,2.067113 -0.14093,0.523248 -0.30304,0.699404 -0.91947,0.998879 -0.41161,0.199975 -0.88025,0.363599 -1.04131,0.363599 -0.16116,0 -0.79174,-0.411453 -1.40148,-0.914337 -1.10658,-0.912821 -1.10945,-0.91397 -1.7138,-0.699946 -0.33299,0.117914 -1.05295,0.625586 -1.59986,1.128145 -0.91323,0.839133 -2.19147,1.58977 -3.74724,2.200571 -0.71249,0.27974 -0.93275,0.83259 -0.62648,1.572104 0.16983,0.409915 0.15447,0.540004 -0.10485,0.886868 -0.47271,0.632464 -0.85664,0.811393 -2.3574,1.098726 l -1.39479,0.267045 -0.13459,0.647801 c -0.0738,0.356288 -0.11343,1.236061 -0.0875,1.955038 l 0.0469,1.307236 0.82349,0.213006 c 0.45292,0.117145 1.2909,0.214435 1.86212,0.216179 0.96191,0.0022 1.07525,-0.03639 1.53538,-0.532086 0.2732,-0.294385 0.79529,-0.956744 1.16021,-1.471911 0.47202,-0.666421 0.88433,-1.03952 1.42907,-1.293166 0.42116,-0.196086 0.89204,-0.468623 1.04653,-0.605644 0.15447,-0.137021 0.72238,-0.341253 1.26191,-0.453838 0.94603,-0.197419 1.00496,-0.189404 1.65445,0.224747 0.37048,0.236207 0.7144,0.555786 0.76439,0.710171 0.0495,0.154384 0.34627,0.373087 0.65852,0.485997 0.46307,0.167436 0.56773,0.290279 0.56773,0.66628 0,0.449343 0.0225,0.460998 0.91158,0.460998 0.83174,0 0.89752,-0.02643 0.75059,-0.30084 -0.0885,-0.165476 -0.64697,-0.77268 -1.24091,-1.349382 -0.82471,-0.800594 -1.08003,-1.157824 -1.08003,-1.510786 0,-0.254231 0.0382,-0.462244 0.085,-0.462244 0.11673,0 1.80806,0.934355 2.73968,1.513472 0.60228,0.374409 0.84024,0.659446 1.1143,1.334771 0.19171,0.472284 0.51515,1.067595 0.71875,1.322942 l 0.37013,0.464247 0,-0.547261 0,-0.547273 1.2352,-0.09489 c 0.67943,-0.05221 1.4761,-0.189122 1.77046,-0.304328 0.50465,-0.197462 0.53528,-0.256625 0.53528,-1.033075 0,-1.04435 0.42751,-1.477792 2.20761,-2.238114 0.98708,-0.421602 1.39514,-0.51716 1.84667,-0.432467 l 0.57963,0.108729 -0.42298,0.44149 c -0.53563,0.559057 -0.5339,0.754169 0.009,0.798936 0.23649,0.0195 0.79234,0.232806 1.2352,0.473823 0.72187,0.392888 0.80517,0.496645 0.80517,1.002551 l 0,0.56431 -1.27632,-0.135201 c -1.83764,-0.194657 -3.10364,-0.09749 -3.89191,0.298652 -1.5621,0.785028 -1.61877,1.234924 -0.38244,3.03862 1.16619,1.701403 1.22017,1.72768 2.24431,1.091079 l 0.83599,-0.519706 0,1.214929 c 0,0.668219 0.0452,1.33217 0.1,1.475452 0.0781,0.203095 -0.013,0.260503 -0.41169,0.260503 -0.28144,0 -0.51176,0.02827 -0.51176,0.06282 0,0.03455 1.04556,1.572386 2.32345,3.417395 2.69776,3.894986 3.27245,4.845892 3.27461,5.417774 0,0.95852 0.84137,1.456573 1.94283,1.154985 0.96981,-0.265528 5.05993,-2.898761 5.24278,-3.375335 0.0452,-0.117372 -0.21644,-0.674957 -0.58101,-1.239083 -0.63865,-0.988036 -0.69046,-1.027399 -1.41241,-1.072849 -1.002,-0.06315 -1.2837,-0.29485 -1.96357,-1.615756 -0.54265,-1.054413 -0.55524,-1.113781 -0.21375,-1.008995 0.19961,0.06131 0.84458,0.465958 1.4334,0.899379 0.63414,0.466857 1.339,0.836923 1.72927,0.907946 1.02899,0.18727 2.03264,0.76746 3.46032,2.000314 1.33013,1.148649 1.64819,1.605607 2.1564,3.097816 0.15422,0.452907 0.43583,1.156979 0.62571,1.564598 l 0.34532,0.741106 0.0504,-2.058665 c 0.0277,-1.132261 -0.0303,-2.761913 -0.12974,-3.621442 z m -67.52912,0.700791 c 0.26296,-2.825496 0.43063,-3.474543 1.23355,-4.775616 0.40936,-0.663334 0.74435,-1.239885 0.74435,-1.281219 0,-0.04127 0.52347,-0.910156 1.16333,-1.930709 0.86072,-1.372725 1.09868,-1.86898 0.91444,-1.90714 -0.13686,-0.02838 -0.40103,0.0299 -0.58692,0.129309 -0.18589,0.09954 -0.33802,0.120676 -0.33802,0.04701 0,-0.348381 0.63786,-0.950039 2.05365,-1.937144 1.94535,-1.356304 2.02362,-1.599508 1.16151,-3.606386 -0.26504,-0.617061 -0.26573,-0.823243 -0.009,-1.457223 0.079,-0.191288 0.0434,-0.28794 -0.10485,-0.28742 -0.26685,8.67e-4 -1.87583,2.457705 -2.96566,4.528285 -2.01781,3.833419 -3.40088,8.75405 -3.68267,13.101639 -0.13668,2.109227 0.20576,1.590876 0.41197,-0.623441 z m 27.17598,-19.593443 c 0,0.70066 0.0191,0.705599 1.58572,0.416891 0.69626,-0.128302 1.22685,-0.342965 1.58346,-0.64062 l 0.53623,-0.447664 -0.82957,-0.882796 c -0.4563,-0.485531 -0.99957,-1.160715 -1.20733,-1.500387 -0.42516,-0.695017 -0.50135,-0.718619 -1.1826,-0.366339 -0.46759,0.241807 -0.48591,0.294514 -0.48591,1.39989 0,0.631749 -0.039,1.148628 -0.0876,1.148628 -0.0486,0 -0.33472,-0.103227 -0.63664,-0.229405 -0.54621,-0.228214 -0.55047,-0.226416 -0.82462,0.348478 -0.2554,0.535563 -0.25583,0.607951 -0.009,0.988643 l 0.26912,0.410771 0.64315,-0.627969 0.64307,-0.627979 0,0.609858 z m -12.15406,-3.105615 c 3.40896,-3.566873 4.546,-4.648202 5.08501,-4.835699 0.30999,-0.107884 0.74364,-0.423455 0.96365,-0.701354 l 0.40007,-0.505299 -0.40007,0.118964 c -0.22001,0.06542 -1.28934,0.54802 -2.37632,1.072405 -3.48402,1.680757 -8.39337,5.230125 -8.28498,5.989905 0.0391,0.271724 0.1491,0.343127 0.47861,0.309625 0.23562,-0.02394 0.67579,0.06044 0.97815,0.187594 0.8917,0.374951 1.56991,0.0234 3.15588,-1.636141 z"
         style="fill:#000000" />
    </g>
    <g
       id="g4318"
       transform="translate(1.5641174,0)"
       inkscape:export-filename="characters.png"
       inkscape:export-xdpi="150.73"
       inkscape:export-ydpi="150.73">
      <rect
         ry="1.87653e-17"
         y="56.942493"
         x="242.77679"
         height="76.428574"
         width="76.428574"
         id="rect4294"
         style="color:#000000;display:inline;overflow:visible;visibility:visible;opacity:1;fill:none;fill-opacity:1;fill-rule:nonzero;stroke:none;stroke-width:24.70000076;stroke-linecap:butt;stroke-linejoin:round;stroke-miterlimit:4;stroke-dasharray:none;stroke-dashoffset:0;stroke-opacity:1;marker:none;enable-background:accumulate" />
      <path
         sodipodi:nodetypes="ssssssssssssssssssssssssssssscsssscscsssssssssss"
         inkscape:connector-curvature="0"
         id="path4179"
         d="m 271.93108,131.23355 c -4.53973,-2.03252 -8.59077,-6.84523 -8.59077,-10.20611 0,-3.47846 -4.24063,-10.92289 -6.56893,-11.53175 -4.18655,-1.09482 -5.22284,-10.882068 -1.37986,-13.032709 0.77633,-0.434435 1.41146,-1.609515 1.41146,-2.611296 0,-1.842659 2.3563,-2.463142 4.2026,-1.106679 0.51359,0.377376 0.96516,3.627946 1.00327,7.223504 0.0694,6.54176 1.69384,11.21401 5.5196,15.87645 1.23106,1.50021 1.6394,1.6048 2.07509,0.53153 0.99776,-2.45804 5.1843,-5.66093 8.58334,-6.56658 4.87108,-1.2979 10.30341,0.20504 13.45534,3.72263 3.17299,3.54115 4.18888,2.97674 7.23708,-4.02088 1.44297,-3.31241 2.13018,-6.73295 2.14531,-10.677821 0.0159,-4.102954 0.40625,-5.95155 1.33229,-6.306911 1.84613,-0.708416 3.00932,0.229691 3.00932,2.426907 0,1.033666 0.63037,2.509801 1.40093,3.280274 2.38188,2.381931 1.75452,7.594821 -1.2793,10.628591 -3.79317,3.79313 -6.65896,8.97749 -6.65896,12.04619 0,8.67577 -16.46466,14.99571 -26.89781,10.32466 z m 13.91719,-9.44564 c 4.06091,-1.35771 4.76693,-2.02242 4.07194,-3.83347 -1.55448,-4.05105 -12.47772,-4.51607 -15.59688,-0.66399 -2.2554,2.78529 -2.10059,3.2743 1.39131,4.39447 4.13907,1.32778 6.40149,1.35077 10.13363,0.10298 z m 3.11958,-18.96299 c -1.4515,-1.07784 -1.60639,-1.68283 -0.77716,-3.035196 1.57237,-2.564241 5.42857,-2.206167 5.81685,0.540106 0.17337,1.22605 -0.24693,2.58546 -0.93389,3.02092 -1.68931,1.07077 -2.01123,1.02953 -4.1058,-0.52583 z m -19.35862,-0.16747 c -0.36597,-0.36601 -0.66548,-1.67271 -0.66548,-2.903773 0,-1.962673 0.37374,-2.202244 3.03523,-1.945636 2.53694,0.2446 3.03524,0.675957 3.03524,2.627419 0,1.80439 -0.53833,2.39755 -2.36976,2.61112 -1.30338,0.15199 -2.66919,-0.0231 -3.03523,-0.38913 z m -6.73586,-12.525148 c -7.70479,-1.471064 -14.5886,-2.696475 -15.29747,-2.723121 -0.97485,-0.03662 -1.17121,-1.092197 -0.806,-4.332251 0.26558,-2.356106 0.89227,-4.693265 1.39273,-5.193712 0.50047,-0.500458 3.93444,-1.358822 7.63106,-1.907472 7.46202,-1.107523 7.88174,-1.403038 13.27737,-9.348439 3.87057,-5.699658 8.94529,-9.085695 13.68514,-9.131153 4.58863,-0.04392 9.37854,3.559262 13.94953,10.493804 4.36987,6.62946 4.56155,6.783467 9.70506,7.799375 2.88594,0.570007 5.71111,1.323098 6.2782,1.673545 1.53567,0.949124 3.42419,7.93744 2.40662,8.905834 -1.45158,1.381504 -28.13598,6.600205 -33.32212,6.516863 -2.69034,-0.04319 -11.19535,-1.282188 -18.90012,-2.753273 z"
         style="fill:#000000" />
    </g>
    <g
       id="g4322"
       transform="translate(-0.43408203,0)"
       inkscape:export-filename="plot.png"
       inkscape:export-xdpi="150.73"
       inkscape:export-ydpi="150.73">
      <rect
         style="color:#000000;display:inline;overflow:visible;visibility:visible;opacity:1;fill:none;fill-opacity:1;fill-rule:nonzero;stroke:none;stroke-width:24.70000076;stroke-linecap:butt;stroke-linejoin:round;stroke-miterlimit:4;stroke-dasharray:none;stroke-dashoffset:0;stroke-opacity:1;marker:none;enable-background:accumulate"
         id="rect4296"
         width="76.428574"
         height="76.428574"
         x="338.49109"
         y="56.942493"
         ry="1.87653e-17" />
      <g
         transform="matrix(0.13470419,0,0,0.13470419,369.35991,63.846343)"
         id="g4232">
        <path
           style="fill:none;fill-rule:evenodd;stroke:#cccccc;stroke-width:24.70000076;stroke-linecap:butt;stroke-linejoin:miter;stroke-miterlimit:4;stroke-dasharray:none;stroke-opacity:1"
           d="M -208.09142,104.83912 -121.21831,256.362 4.0406101,187.67163 143.44166,314.95085 317.1879,15.945694"
           id="path4198"
           inkscape:connector-curvature="0" />
        <path
           style="fill:#000000"
           d="m -201.97204,444.06166 0,-11.1577 255.033117,0 255.033113,0 0,11.1577 0,11.1577 -255.033113,0 -255.033117,0 0,-11.1577 z m 94.57478,-131.88365 c -26.00806,-11.26701 -47.82978,-20.51234 -48.4927,-20.54519 -0.66291,-0.0328 -9.03119,8.2606 -18.59616,18.42986 -9.56498,10.16928 -17.86905,18.5149 -18.4535,18.54583 -0.58445,0.0309 -4.59848,-3.25222 -8.92007,-7.29592 l -7.85743,-7.35219 11.76771,-12.52194 c 6.47223,-6.88707 17.43486,-18.14832 24.3614,-25.02502 l 12.5937,-12.50307 42.87431,18.65412 c 23.580872,10.25978 42.968024,18.51619 43.082555,18.34759 0.114531,-0.1686 10.168064,-43.58248 22.341188,-96.47528 12.173123,-52.89281 22.440087,-96.77075 22.815475,-97.50652 0.458677,-0.89904 14.781432,8.92011 43.671806,29.93974 23.64411,17.20265 43.293583,30.95479 43.665495,30.56032 C 57.828432,167.03589 67.570311,131.5664 79.105151,88.609257 90.63998,45.652111 100.40886,10.139388 100.81378,9.6920172 101.67222,8.743719 269.9846,27.701181 270.96281,28.856374 c 2.60855,3.080482 46.65364,81.275716 46.19669,82.015066 -1.19104,1.92713 -17.83237,10.83658 -18.63811,9.97847 -0.46109,-0.49106 -10.02544,-16.79255 -21.25413,-36.225545 -13.48942,-23.345524 -21.00664,-35.348233 -22.15736,-35.378412 -0.95786,-0.0255 -32.10645,-3.543685 -69.21908,-7.81889 -37.11263,-4.275205 -67.7694,-7.482459 -68.12615,-7.127113 -0.35673,0.355346 -10.80938,38.422864 -23.228092,84.59449 -12.418721,46.17162 -22.899806,84.53676 -23.291314,85.25587 -0.476912,0.87597 -14.904855,-8.82873 -43.718082,-29.40619 -23.6534395,-16.89252 -43.287939,-30.39193 -43.632223,-29.9987 -0.344284,0.39323 -10.097335,42.55634 -21.673448,93.69579 -11.576112,51.13945 -21.336357,93.26015 -21.689429,93.60155 -0.353072,0.3414 -21.921276,-8.59774 -47.929342,-19.86475 z"
           id="path4192"
           inkscape:connector-curvature="0" />
      </g>
    </g>
    <path
       style="fill:#000000"
       d=""
       id="path4211"
       inkscape:connector-curvature="0" />
    <g
       id="g4304"
       inkscape:export-filename="general.png"
       inkscape:export-xdpi="150.73"
       inkscape:export-ydpi="150.73">
      <rect
         ry="1.87653e-17"
         y="56.942493"
         x="56.908726"
         height="76.428574"
         width="76.428574"
         id="rect4290"
         style="color:#000000;display:inline;overflow:visible;visibility:visible;opacity:1;fill:none;fill-opacity:1;fill-rule:nonzero;stroke:none;stroke-width:24.70000076;stroke-linecap:butt;stroke-linejoin:round;stroke-miterlimit:4;stroke-dasharray:none;stroke-dashoffset:0;stroke-opacity:1;marker:none;enable-background:accumulate" />
      <g
         transform="matrix(0.71417571,0,0,0.71417571,-96.778239,445.37398)"
         id="g4224">
        <path
           inkscape:connector-curvature="0"
           id="path4230"
           d="m 255.68376,-440.07548 c -27.33481,-7.35125 -44.08103,-35.33385 -37.26829,-62.27458 2.56624,-10.14807 6.76947,-17.7149 13.6777,-24.62313 24.5842,-24.5842 65.92822,-18.42141 82.28411,12.26537 15.87762,29.78948 -0.40614,66.10159 -33.50904,74.7238 -7.11733,1.85383 -18.09945,1.81395 -25.18448,-0.0915 z m 30.14572,-13.15943 c 8.69949,-4.07098 15.89985,-11.26073 20.04882,-20.01927 2.96145,-6.25167 3.19313,-7.5042 3.19313,-17.26296 0,-9.89527 -0.19774,-10.92381 -3.31869,-17.26225 -10.15419,-20.62246 -34.10626,-29.22648 -54.68131,-19.64253 -6.42157,2.9912 -16.43579,13.00542 -19.42699,19.42699 -8.97859,19.27544 -1.81218,42.364 16.47585,53.0815 7.0313,4.12062 12.81104,5.43534 22.46844,5.11092 7.09374,-0.2383 9.64104,-0.81198 15.24075,-3.4324 z m -24.25805,-26.76002 0,-17.5 7.5,0 7.5,0 0,17.5 0,17.5 -7.5,0 -7.5,0 0,-17.5 z m 1.45455,-25.95454 c -5.10927,-5.10927 -1.34675,-13.94546 5.93808,-13.94546 4.31735,0 7.28346,2.53047 8.17166,6.97146 0.48281,2.41404 0.0446,3.73992 -2.06459,6.24652 -3.43621,4.08371 -8.38975,4.38288 -12.04515,0.72748 z"
           style="fill-opacity:1" />
        <path
           inkscape:connector-curvature="0"
           id="path4228"
           d="m 257.98236,-439.9788 c -18.09799,-3.93778 -33.52007,-18.41905 -38.81555,-36.44763 -2.25855,-7.68928 -2.08717,-21.26655 0.36875,-29.21316 4.88039,-15.79152 18.07676,-29.00779 33.81907,-33.8701 8.02074,-2.47735 21.56455,-2.65765 29.2853,-0.38986 19.62589,5.76466 34.15465,22.5804 37.09274,42.93154 3.76468,26.07662 -14.33034,51.42756 -40.66124,56.96598 -8.42301,1.77169 -13.02987,1.77676 -21.08907,0.0232 z m 22.08907,-10.69877 c 10.19101,-2.54754 21.4695,-12.11836 26.00163,-22.06472 9.47572,-20.79574 1.12278,-44.40407 -19.27816,-54.48676 -7.35526,-3.63516 -7.98601,-3.76588 -18.17161,-3.76588 -9.79211,0 -11.03721,0.22991 -17.29261,3.19313 -8.72443,4.13281 -15.93331,11.34169 -20.06612,20.06612 -2.96322,6.2554 -3.19313,7.50051 -3.19313,17.29261 0,10.1856 0.13072,10.81635 3.76588,18.17162 9.06813,18.3481 27.75389,26.71351 48.23412,21.59388 z m -18.5,-28.81736 0,-17 7.5,0 7.5,0 0,17 0,17 -7.5,0 -7.5,0 0,-17 z m 2.8466,-25.90603 c -3.40509,-2.67844 -4.28745,-6.34078 -2.4048,-9.98142 3.70851,-7.17146 14.5582,-4.49514 14.5582,3.59112 0,6.54076 -7.1696,10.31057 -12.1534,6.3903 z"
           style="fill-opacity:1" />
        <path
           inkscape:connector-curvature="0"
           id="path4226"
           d="m 256.18986,-440.60709 c -8.04868,-1.88955 -16.82302,-7.02282 -23.53211,-13.76704 -20.09615,-20.20136 -20.12854,-52.0526 -0.0733,-72.10781 20.05521,-20.05521 51.90645,-20.02282 72.10781,0.0733 10.43962,10.38525 14.80847,21.13721 14.85475,36.55835 0.0664,22.11208 -14.51368,41.80309 -35.83089,48.3912 -6.8519,2.11759 -20.35498,2.53553 -27.52623,0.85197 z m 27.10077,-10.67808 c 7.32517,-2.79888 14.62911,-8.4534 19.2443,-14.89844 5.67042,-7.91865 7.53731,-14.06813 7.53233,-24.81132 -0.004,-8.28751 -0.29048,-9.59374 -3.62082,-16.5 -12.74177,-26.42309 -45.38561,-32.76245 -66.39403,-12.89357 -16.94265,16.02365 -17.29585,42.64141 -0.78618,59.24823 4.97934,5.00863 13.56249,9.98292 20.05935,11.6252 5.6112,1.4184 18.01862,0.50197 23.96505,-1.7701 z m -21.7192,-28.20976 0,-17 7,0 7,0 0,17 0,17 -7,0 -7,0 0,-17 z m 2,-27 c -2.97766,-2.97766 -2.66668,-8.33043 0.63486,-10.92742 3.49525,-2.74937 6.9109,-2.61773 9.9106,0.38197 4.90658,4.90658 1.81071,12.54545 -5.08442,12.54545 -2.12771,0 -4.23152,-0.77048 -5.46104,-2 z"
           style="fill-opacity:1" />
      </g>
    </g>
    <g
       id="g4332"
       transform="translate(-8.0018311,0)"
       inkscape:export-filename="outline-128px.png"
       inkscape:export-xdpi="150.73"
       inkscape:export-ydpi="150.73">
      <rect
         style="color:#000000;display:inline;overflow:visible;visibility:visible;opacity:1;fill:none;fill-opacity:1;fill-rule:nonzero;stroke:none;stroke-width:24.70000076;stroke-linecap:butt;stroke-linejoin:round;stroke-miterlimit:4;stroke-dasharray:none;stroke-dashoffset:0;stroke-opacity:1;marker:none;enable-background:accumulate"
         id="rect4300"
         width="76.428574"
         height="76.428574"
         x="533.49109"
         y="56.942493"
         ry="1.87653e-17" />
      <g
         transform="matrix(0.1419399,0,0,0.1419399,623.20928,168.66095)"
         id="g4247">
        <path
           inkscape:connector-curvature="0"
           id="path4253"
           d="m -575.51193,-273.54167 c -10.66843,-3.05307 -17.3117,-7.0579 -25.86617,-15.59317 -5.59355,-5.58099 -8.97475,-9.97012 -11.17251,-14.50298 -6.80852,-14.04252 -6.35863,2.02162 -6.06871,-216.69144 l 0.2622,-197.80856 2.33261,-6.22278 c 6.83782,-18.24146 21.7253,-32.12959 40.66739,-37.93753 5.74318,-1.76094 14.83896,-1.83969 212.5,-1.83969 197.66104,0 206.75682,0.0788 212.5,1.83969 18.94209,5.80794 33.82957,19.69607 40.66739,37.93753 l 2.33261,6.22278 0.2622,197.80856 c 0.28992,218.71306 0.73981,202.64892 -6.06871,216.69144 -4.31064,8.89066 -16.80283,21.38285 -25.69349,25.69349 -13.98028,6.77835 2.75051,6.31396 -224.64434,6.23527 -193.43802,-0.067 -206.22693,-0.17749 -212.01047,-1.83261 z m 419.81833,-41.00597 c 1.93426,-1.32541 4.60125,-3.99239 5.92666,-5.92662 l 2.40982,-3.5168 0.25852,-170.32338 0.25852,-170.32338 -216.00852,0 -216.00852,0 0,169.03212 c 0,183.80919 -0.35917,172.39013 5.61,178.35654 5.92373,5.92099 -8.44156,5.55918 211.46335,5.32607 l 202.57335,-0.21473 3.51682,-2.40982 z m -372.16352,-34.38922 c -1.925,-0.61813 -5.57169,-3.19147 -8.10375,-5.71854 -11.00336,-10.98168 -8.0781,-28.05055 6.10375,-35.61545 3.29233,-1.75619 7.23807,-1.88463 66.5,-2.16453 48.00857,-0.22676 64.07002,-9.3e-4 67.49663,0.94901 6.25994,1.73541 13.26327,8.85226 14.82868,15.06906 1.57375,6.24992 1.48244,8.94242 -0.47505,14.00925 -2.04352,5.28951 -5.63341,9.29679 -10.85026,12.11182 -3.96943,2.14192 -4.48917,2.15966 -68,2.32083 -45.04082,0.11429 -65.03683,-0.17052 -67.5,-0.96145 z m 136.5,-79.58739 c -8.17111,-3.76384 -12.42079,-9.89403 -13.18937,-19.02572 -0.89302,-10.61031 7.18603,-21.10218 17.83324,-23.15917 2.39587,-0.46287 31.16195,-0.86118 63.92463,-0.88513 66.99197,-0.049 66.55128,-0.0899 73.69613,6.84394 9.49812,9.21761 9.0814,23.95268 -0.91948,32.51306 -2.31795,1.98408 -5.81885,4.05311 -7.7798,4.59785 -2.18345,0.60656 -27.98356,0.9841 -66.56535,0.97406 -59.07104,-0.0154 -63.24946,-0.13129 -67,-1.85889 z m -58,-78.43965 c -8.66219,-3.38958 -13.46979,-10.15014 -14.19669,-19.96372 -0.42099,-5.68354 -0.17693,-6.67663 2.87785,-11.7102 2.44254,-4.02473 4.67646,-6.23137 8.32835,-8.22664 l 4.99049,-2.72664 64.5,-10e-4 c 60.44744,-0.001 64.75132,0.11389 68.5,1.83352 8.25323,3.78599 12.96754,11.1869 12.81701,20.12116 -0.11286,6.69783 -2.08271,11.46377 -6.48884,15.69932 -6.78698,6.52422 -4.20352,6.30851 -74.54605,6.2246 -46.28947,-0.0552 -64.60489,-0.39803 -66.78212,-1.25 z m -77.07984,-78.08507 c -16.88088,-5.28525 -21.67325,-26.15421 -8.64049,-37.62611 2.46125,-2.16648 6.10519,-4.39187 8.09766,-4.94532 2.25685,-0.62688 27.37499,-1.00009 66.62267,-0.98988 59.27008,0.0154 63.23682,0.12637 67,1.87413 7.82782,3.63551 12.45034,10.2564 13.17695,18.87349 0.41206,4.88681 0.0685,6.52906 -2.34711,11.21865 -3.29215,6.39133 -8.96664,10.82037 -15.47371,12.07751 -2.39587,0.46287 -31.35613,0.83107 -64.35613,0.81823 -45.83481,-0.0178 -60.9632,-0.32491 -64.07984,-1.3007 z"
           style="fill-opacity:1" />
        <path
           inkscape:connector-curvature="0"
           id="path4251"
           d="m -572.56422,-273.14576 c -19.32132,-4.19897 -36.54369,-19.69689 -43.33068,-38.99206 l -2.46222,-7 -0.26475,-195.24323 c -0.23109,-170.41483 -0.0739,-196.16604 1.23608,-202.5 3.63268,-17.56458 15.60254,-32.95236 31.52867,-40.5315 4.675,-2.2248 10.88465,-4.53563 13.79922,-5.13518 7.47428,-1.53751 410.92728,-1.53751 418.40156,0 2.91457,0.59955 9.12422,2.91038 13.79922,5.13518 15.92613,7.57914 27.89599,22.96692 31.52867,40.5315 1.30998,6.33396 1.46717,32.08517 1.23608,202.5 l -0.26475,195.24323 -2.46222,7 c -6.87077,19.53336 -24.05795,34.85383 -43.79206,39.03576 -9.76772,2.06992 -409.41894,2.02823 -418.95282,-0.0437 z m 412.30287,-38.96466 c 2.98724,-0.88711 6.2614,-2.81656 8.2351,-4.85291 6.53229,-6.7396 6.16913,3.90544 6.16913,-180.83342 l 0,-167.84107 -217,0 -217,0 0,167.8185 c 0,185.47206 -0.38383,174.50943 6.33807,181.02455 6.60862,6.40533 -6.80516,6.01675 210.23043,6.09005 171.64667,0.058 198.72999,-0.12954 203.02727,-1.4057 z m -366.18422,-37.31657 c -9.79502,-3.29326 -14.46119,-9.17242 -15.17272,-19.11693 -0.38761,-5.41732 -0.0907,-7.45811 1.54925,-10.64785 2.35721,-4.58491 6.26433,-8.44671 11.21192,-11.08189 3.30756,-1.76166 6.93644,-1.86416 66,-1.86416 68.94345,0 68.98817,0.004 75.26674,6.10198 4.84806,4.70892 7.09596,9.87151 6.93886,15.93603 -0.2291,8.84424 -4.3578,15.47326 -12.2056,19.59725 l -4.5,2.36474 -62,0.21083 c -56.20711,0.19113 -62.47543,0.051 -67.08845,-1.5 z m 137.17918,-78.76234 c -12.27016,-4.56395 -18.13604,-17.71913 -13.18482,-29.56906 1.94729,-4.66051 8.48748,-10.47836 13.27331,-11.80731 5.5134,-1.53098 126.26979,-1.46729 131.3985,0.0693 14.88596,4.45994 19.88912,23.89762 9.13873,35.50466 -6.69284,7.22616 -2.59547,6.83134 -73.21645,7.05519 -53.45239,0.16943 -64.11856,-0.0288 -67.40927,-1.25279 z m -59.59073,-78.74753 c -5.29347,-1.69975 -12.42073,-9.34341 -13.79272,-14.79204 -2.55418,-10.14357 1.41943,-19.10729 11.29272,-25.4743 2.87284,-1.85262 5.69159,-1.94723 66.5,-2.23205 46.93927,-0.21986 64.62376,0.0139 67.80892,0.89646 5.57464,1.54458 12.6669,8.35046 14.10718,13.53755 3.12813,11.26575 -0.85692,21.61278 -10.26063,26.64132 l -4.15547,2.2221 -64,0.16241 c -45.04082,0.11429 -65.03683,-0.17052 -67.5,-0.96145 z m -79.5,-79.08981 c -16.82407,-7.34967 -18.33378,-30.15739 -2.60814,-39.40213 l 4.60814,-2.70902 62.5,-0.3012 c 67.24196,-0.32405 67.81759,-0.28675 74.91516,4.8547 13.51511,9.7903 9.37151,33.44054 -6.63783,37.88637 -5.99691,1.66536 -128.90927,1.36106 -132.77733,-0.32872 z"
           style="fill-opacity:1" />
        <path
           inkscape:connector-curvature="0"
           id="path4249"
           d="m -566.08535,-272.67273 c -8.47817,-1.00255 -12.50611,-2.29513 -21.27177,-6.82623 -13.53241,-6.99509 -24.86689,-21.44039 -29.2385,-37.26321 -1.65425,-5.98747 -1.7615,-18.27868 -1.7615,-201.87565 l 0,-195.5 2.7276,-8 c 6.96306,-20.42255 23.89281,-35.71685 44.2724,-39.9956 10.53598,-2.21206 406.46402,-2.21206 417,0 20.37959,4.27875 37.30934,19.57305 44.2724,39.9956 l 2.7276,8 0,195.5 c 0,183.59697 -0.10725,195.88818 -1.7615,201.87565 -5.69166,20.60068 -21.51042,36.60767 -42.3307,42.83442 -5.55578,1.66157 -17.88464,1.7753 -206.9078,1.90874 -110.55,0.078 -204.0277,-0.21613 -207.72823,-0.65372 z m 407.9967,-39.51282 c 4.94146,-2.06467 8.10723,-5.11129 10.34149,-9.95227 1.77158,-3.83851 1.847,-10.85328 1.86808,-173.75 l 0.022,-169.75 -217,0 -217,0 0,169.53212 c 0,150.75651 0.17141,169.94236 1.54773,173.23635 2.06467,4.94146 5.11129,8.10723 9.95227,10.34149 3.8464,1.77522 11.72929,1.84696 205.28212,1.86808 179.44657,0.0196 201.68396,-0.14594 204.98635,-1.52577 z m -369.26847,-37.76366 c -7.85192,-3.11096 -12.97945,-9.61162 -14.11476,-17.89461 -1.0994,-8.02098 3.795,-17.12946 11.44222,-21.294 3.54436,-1.93019 5.87141,-2.01065 66.67254,-2.30512 66.97199,-0.32436 67.91646,-0.26722 74.14768,4.48556 4.42531,3.37535 8.35232,11.51406 8.35232,17.31014 0,6.48687 -4.96993,14.61521 -11,17.99055 l -4.5,2.51887 -64,0.18861 c -47.4753,0.13992 -64.77459,-0.11828 -67,-1 z m 135.72748,-79.78979 c -15.8978,-7.92601 -16.28873,-28.3071 -0.72748,-37.92623 l 4,-2.47259 62.5,-0.2977 c 47.61371,-0.22679 63.57101,-7.5e-4 66.99663,0.94902 8.65518,2.39968 15.98106,12.20828 15.99779,21.41937 0.009,5.17145 -4.94446,13.56267 -9.99442,16.92931 l -4.5,3 -65,0.26446 c -64.58257,0.26277 -65.02744,0.25079 -69.27252,-1.86564 z m -55.03749,-77.35605 c -9.96732,-3.1618 -15.16537,-9.36697 -15.94099,-19.02951 -0.55626,-6.9299 1.39455,-11.99733 6.40942,-16.6491 7.19959,-6.67831 3.51715,-6.33392 71.18651,-6.65752 70.08397,-0.33515 68.97472,-0.43962 76.63158,7.21723 10.3121,10.31211 7.42709,26.68507 -5.97651,33.91771 -3.96266,2.13827 -4.5788,2.16033 -66,2.36341 -50.10583,0.16567 -62.82684,-0.0573 -66.31001,-1.16222 z m -80.90212,-79.32526 c -8.25208,-3.36482 -12.94183,-9.5001 -13.98326,-18.29337 -0.93964,-7.93382 2.61474,-14.83797 10.19539,-19.80385 l 4,-2.62029 66.07279,0 66.0728,0 4.16867,2.75854 c 11.06804,7.32407 13.37904,21.75703 5.00995,31.28889 -1.63023,1.85674 -4.6201,4.40564 -6.64414,5.66423 l -3.68007,2.28834 -63.5,0.21751 c -58.02519,0.19876 -63.86316,0.0694 -67.71213,-1.5 z"
           style="fill-opacity:1" />
      </g>
    </g>
    <g
       id="g4339"
       inkscape:export-filename="redaction-128px.png"
       inkscape:export-xdpi="150.73"
       inkscape:export-ydpi="150.73">
      <rect
         ry="1.87653e-17"
         y="56.942493"
         x="619.20538"
         height="76.428574"
         width="76.428574"
         id="rect4302"
         style="color:#000000;display:inline;overflow:visible;visibility:visible;opacity:1;fill:none;fill-opacity:1;fill-rule:nonzero;stroke:none;stroke-width:24.70000076;stroke-linecap:butt;stroke-linejoin:round;stroke-miterlimit:4;stroke-dasharray:none;stroke-dashoffset:0;stroke-opacity:1;marker:none;enable-background:accumulate" />
      <g
         inkscape:export-ydpi="101.43"
         inkscape:export-xdpi="101.43"
         inkscape:export-filename="icon.png"
         id="g4221"
         transform="matrix(0.12949689,0,0,0.12949689,554.4981,-371.71793)">
        <g
           style="fill:#000000"
           id="g4225"
           transform="matrix(0.8063266,0,0,0.8063266,2165.9344,3590.8388)">
          <path
             style="opacity:1;fill:#000000;fill-rule:evenodd;stroke:none;stroke-width:1px;stroke-linecap:butt;stroke-linejoin:miter;stroke-opacity:1"
             d="m -2005.3531,376.96865 c 66.8859,-553.16789 493.2081,-662.05224 609.7166,-718.07597 -87.1102,267.642221 -228.37,458.49231 -524.0034,551.44511 103.4822,-195.784379 261.9912,-326.08916 435.469,-459.88102 -148.4827,124.801 -297.0438,249.5153211 -393.871,431.44196 138.2913,-45.70146 419.6753,-307.72068 325.729,-313.41669 32.0063,-3.42141 70.1653,-26.69892 105.5059,-157.3018 -107.7232,39.11218 -425.5892,184.41539 -558.5461,665.78841 z"
             id="path4227"
             inkscape:connector-curvature="0"
             sodipodi:nodetypes="cccccccc" />
        </g>
      </g>
    </g>
    <g
       id="g4311"
       transform="translate(2.044754,0)"
       inkscape:export-filename="summary.png"
       inkscape:export-xdpi="150.73"
       inkscape:export-ydpi="150.73">
      <rect
         style="color:#000000;display:inline;overflow:visible;visibility:visible;opacity:1;fill:none;fill-opacity:1;fill-rule:nonzero;stroke:none;stroke-width:24.70000076;stroke-linecap:butt;stroke-linejoin:round;stroke-miterlimit:4;stroke-dasharray:none;stroke-dashoffset:0;stroke-opacity:1;marker:none;enable-background:accumulate"
         id="rect4292"
         width="76.428574"
         height="76.428574"
         x="148.58006"
         y="56.942493"
         ry="1.87653e-17" />
      <g
         transform="matrix(0.33692235,0,0,0.33692235,902.99504,23.607202)"
         id="g4278">
        <path
           inkscape:connector-curvature="0"
           id="path4284"
           d="m -2197.2144,320.46636 c -4.6557,-2.15554 -8.9242,-6.41703 -10.4364,-10.41924 -1.4849,-3.93015 -1.4849,-191.43965 0,-195.3698 1.5122,-4.00221 5.7807,-8.2637 10.4364,-10.41924 3.7686,-1.74479 7.9054,-1.85194 71.5,-1.85194 63.5945,0 67.7314,0.10715 71.5,1.85194 4.6557,2.15554 8.9242,6.41703 10.4364,10.41924 1.4849,3.93015 1.4849,191.43965 0,195.3698 -1.5122,4.00221 -5.7807,8.2637 -10.4364,10.41924 -3.7686,1.74479 -7.9055,1.85194 -71.5,1.85194 -63.5946,0 -67.7314,-0.10715 -71.5,-1.85194 z m 139.9433,-14.32665 c 1.3814,-1.97225 1.5567,-12.53155 1.5567,-93.77749 0,-81.24595 -0.1753,-91.80524 -1.5567,-93.7775 l -1.5567,-2.2225 -66.8866,0 -66.8866,0 -1.5567,2.2225 c -1.3814,1.97226 -1.5567,12.53155 -1.5567,93.7775 0,81.24594 0.1753,91.80524 1.5567,93.77749 l 1.5567,2.22251 66.8866,0 66.8866,0 1.5567,-2.22251 z m -128.2208,-27.33419 c -2.8019,-1.96251 -3.021,-7.41066 -0.3938,-9.78831 1.6579,-1.50036 7.3052,-1.65499 60.4433,-1.65499 l 58.6146,0 1.5567,2.22251 c 2.1233,3.03146 1.9542,6.37999 -0.4433,8.77749 -1.9538,1.95385 -3.3333,2 -59.7775,2 -50.6747,0 -58.0507,-0.19137 -60,-1.5567 z m 0,-30 c -1.5157,-1.06167 -2.2176,-2.57218 -2.2072,-4.75 0.038,-7.89193 -1.5702,-7.6933 62.2841,-7.6933 55.5754,0 56.4708,0.0314 59.0657,2.07258 3.343,2.62953 3.4795,6.78536 0.3205,9.75311 l -2.3145,2.17431 -57.463,0 c -50.3901,0 -57.7367,-0.19161 -59.6856,-1.5567 z m -0.2225,-30.4433 c -1.1111,-1.11111 -2,-3.33333 -2,-5 0,-1.66667 0.8889,-3.88889 2,-5 1.9535,-1.95351 3.3333,-2 59.3651,-2 56.5206,0 57.404,0.0305 60,2.07258 3.5405,2.78491 3.5405,7.06993 0,9.85484 -2.596,2.04207 -3.4794,2.07258 -60,2.07258 -56.0318,0 -57.4116,-0.0465 -59.3651,-2 z m 1.5,-29.19495 c -2.8001,-1.58785 -3.4671,-2.83163 -3.4847,-6.49835 -0.031,-6.4968 -1.9005,-6.3067 62.0186,-6.3067 56.5735,0 57.6276,0.0359 59.7775,2.03896 3.0687,2.85886 2.8691,7.2806 -0.4463,9.88846 -2.5962,2.04219 -3.4649,2.07213 -59.25,2.04217 -40.3136,-0.0216 -57.191,-0.35696 -58.6151,-1.16454 z m -1.845,-31.63379 c -2.4269,-2.68165 -2.1291,-7.72576 0.5675,-9.61456 1.9493,-1.36533 9.3253,-1.5567 60,-1.5567 56.4442,0 57.8237,0.0461 59.7775,2 2.3975,2.3975 2.5666,5.74603 0.4433,8.77749 l -1.5567,2.22251 -58.7883,0 c -55.6832,0 -58.8757,-0.0966 -60.4433,-1.82874 z"
           style="fill-opacity:1" />
        <path
           inkscape:connector-curvature="0"
           id="path4282"
           d="m -2198.9669,319.29288 c -2.0638,-1.08953 -4.9888,-3.84928 -6.5,-6.13278 l -2.7475,-4.15182 0,-96.64606 0,-96.64606 2.7511,-4.15722 c 1.5131,-2.28647 4.5327,-5.0661 6.7102,-6.17697 3.8588,-1.96864 5.7072,-2.01975 73.0387,-2.01975 67.3315,0 69.1799,0.0511 73.0387,2.01975 2.1775,1.11087 5.1971,3.8905 6.7102,6.17697 l 2.7511,4.15722 0,96.64606 0,96.64606 -2.7511,4.15721 c -1.5131,2.28647 -4.5327,5.06611 -6.7102,6.17698 -3.8618,1.97014 -5.661,2.01866 -73.2489,1.97555 -67.0928,-0.0428 -69.4088,-0.107 -73.0423,-2.02514 z m 141.03,-11.48736 2.2225,-1.55671 0,-93.88659 0,-93.88659 -2.2225,-1.55671 c -1.9567,-1.3705 -10.0636,-1.5567 -67.7775,-1.5567 -57.7139,0 -65.8208,0.1862 -67.7775,1.5567 l -2.2225,1.55671 0,93.88659 0,93.88659 2.2225,1.55671 c 1.9567,1.3705 10.0636,1.5567 67.7775,1.5567 57.7139,0 65.8208,-0.1862 67.7775,-1.5567 z m -127.1127,-29.49231 c -3.1963,-2.51422 -3.4663,-6.1495 -0.6648,-8.95099 1.954,-1.95397 3.3333,-2 59.9274,-2 l 57.9274,0 2.0901,2.65713 c 2.2108,2.81046 2.0136,5.61049 -0.5874,8.34287 -1.2307,1.29287 -9.3402,1.53778 -58.7279,1.77357 -56.8674,0.27151 -57.3201,0.25775 -59.9648,-1.82258 z m -1.1026,-31.16559 c -2.1005,-2.99899 -1.9666,-5.381 0.4378,-7.7854 1.9542,-1.95419 3.3228,-1.99965 59.75,-1.98469 31.7625,0.008 58.2451,0.34592 58.8503,0.75 2.5914,1.73034 3.5329,5.18437 2.1817,8.0038 l -1.3087,2.73089 -59.1744,0.2579 -59.1744,0.25791 -1.5623,-2.23041 z m -0.01,-30.00791 c -0.8562,-1.22237 -1.5567,-2.92225 -1.5567,-3.77749 0,-0.85524 0.7005,-2.55512 1.5567,-3.77749 l 1.5567,-2.22251 58.2522,0 c 64.0452,0 61.9677,-0.20115 61.9677,6 0,6.20115 2.0775,6 -61.9677,6 l -58.2522,0 -1.5567,-2.22251 z m 0.4433,-29.77749 c -2.4638,-2.46379 -2.5475,-5.11179 -0.25,-7.90931 l 1.75,-2.13087 58.9866,0.27009 58.9867,0.27009 1.3087,2.73089 c 1.3512,2.81943 0.4097,6.27346 -2.1817,8.0038 -0.6052,0.40408 -27.0878,0.74158 -58.8503,0.75 -56.4272,0.015 -57.7958,-0.0305 -59.75,-1.98469 z m 0,-30 c -2.7908,-2.79084 -2.5316,-6.43671 0.6349,-8.92742 2.5953,-2.04148 3.4865,-2.07258 59.3892,-2.07258 52.6141,0 56.902,0.12766 58.7782,1.75 3.1367,2.71219 3.5172,5.57404 1.1426,8.59287 l -2.0901,2.65713 -57.9274,0 c -56.5941,0 -57.9734,-0.046 -59.9274,-2 z"
           style="fill-opacity:1" />
        <path
           inkscape:connector-curvature="0"
           id="path4280"
           d="m -2197.2144,319.47218 c -4.6276,-2.13579 -7.9166,-5.42189 -9.4334,-9.42506 -1.4903,-3.93348 -1.4903,-191.43632 0,-195.3698 1.5168,-4.00318 4.8058,-7.28927 9.4334,-9.42506 3.7638,-1.73709 7.9866,-1.84612 71.5,-1.84612 63.5134,0 67.7362,0.10903 71.5,1.84612 4.6276,2.13579 7.9166,5.42188 9.4334,9.42506 1.4903,3.93348 1.4903,191.43632 0,195.3698 -1.5168,4.00317 -4.8058,7.28927 -9.4334,9.42506 -3.7638,1.73708 -7.9866,1.84612 -71.5,1.84612 -63.5134,0 -67.7362,-0.10904 -71.5,-1.84612 z m 140.4274,-12.74482 c 2.0626,-2.62212 2.0726,-3.07828 2.0726,-94.36514 0,-91.28686 -0.01,-91.74302 -2.0726,-94.36514 l -2.0726,-2.63486 -66.8548,0 -66.8548,0 -2.0726,2.63486 c -2.0626,2.62212 -2.0726,3.07828 -2.0726,94.36514 0,91.28686 0.01,91.74302 2.0726,94.36514 l 2.0726,2.63486 66.8548,0 66.8548,0 2.0726,-2.63486 z m -128.1774,-28.44524 c -1.128,-0.65699 -1.75,-2.23745 -1.75,-4.44654 0,-6.75467 -1.9913,-6.55382 61.9423,-6.24751 55.3196,0.26505 57.2668,0.33861 58.6387,2.21528 1.9475,2.66414 1.7786,5.9235 -0.4097,7.90388 -1.6579,1.50031 -7.1957,1.65215 -59.25,1.62458 -37.138,-0.0197 -58.0395,-0.39045 -59.1713,-1.04969 z m -0.1786,-30.49133 c -2.3324,-2.33247 -1.9882,-7.02322 0.6511,-8.87187 1.9479,-1.36439 9.2093,-1.5567 58.7775,-1.5567 62.187,0 61,-0.11484 61,5.90172 0,6.31718 2.1989,6.09828 -61.2573,6.09828 -51.0302,0 -57.7791,-0.17923 -59.1713,-1.57143 z m 0.084,-30.25731 c -2.1857,-2.41517 -2.1033,-6.4556 0.1737,-8.51627 1.6566,-1.4992 7.1894,-1.65499 58.7775,-1.65499 62.7684,0 61.3938,-0.13434 61.3938,6 0,6.13565 1.392,6 -61.5675,6 -54.0694,0 -57.211,-0.0977 -58.7775,-1.82874 z m 0.5675,-29.72796 c -2.6393,-1.84865 -2.9835,-6.5394 -0.6511,-8.87187 1.3923,-1.39231 8.1569,-1.57143 59.345,-1.57143 54.7002,0 57.8617,0.0973 59.4286,1.82874 2.3621,2.61012 2.0892,6.75375 -0.5675,8.61456 -3.3638,2.3561 -114.1912,2.3561 -117.555,0 z m 0.7775,-29.71772 c -3.2128,-1.63362 -4.0713,-7.46906 -1.3876,-9.43144 1.3996,-1.02343 13.8303,-1.29414 59.4237,-1.29414 54.5842,0 57.742,0.0974 59.3089,1.82874 2.03,2.24306 2.1188,5.15448 0.236,7.73013 -1.372,1.8769 -3.2994,1.94934 -58.25,2.18952 -44.3924,0.19402 -57.3782,-0.0298 -59.331,-1.02281 z"
           style="fill-opacity:1" />
      </g>
    </g>
  </g>
</svg>
