<svg width="16" xmlns="http://www.w3.org/2000/svg" height="16" viewBox="0 0 16 16">
<g style="fill-rule:evenodd">
<path style="fill:#fff" d="m 1.714286,4.9999996e-8 8.571429,0 C 12,4.9999996e-8 12,4.9999996e-8 12,1.7777778 L 12,14.222222 C 12,16 12,16 10.285715,16 L 1.714286,16 C 0,16 0,16 0,14.222222 L 0,1.7777778 C 0,4.9999998e-8 0,4.9999998e-8 1.714286,4.9999998e-8 z"/>
<path style="fill:#268bd2" d="m 9.3753602,13.375 c 0.140625,0 0.34375,-0.125 0.59375,-0.375 L 14.96911,9 c 1.003692,-1.0036924 1,-1 0,-2 L 9.9691102,3 c -0.75,-0.75 -0.953125,-0.375 -1,1.125 -0.01563,0.5 0,1.125 0,1.875 -0.01055,-4.4e-5 -0.02069,0 -0.03125,0 -4.96875,0 -6.96875,3 -6.9375,7.03125 C 3.9691102,11 5.9691102,10 8.9691102,10.0625 c -9.56e-4,0.716944 -0.0151,1.329167 0,1.8125 0.03125,1 0.125,1.5 0.40625,1.5 z"/>
</g>
</svg>
