<?xml version="1.0" encoding="UTF-8" standalone="no"?>
<!-- Created with Inkscape (http://www.inkscape.org/) -->

<svg
   xmlns:dc="http://purl.org/dc/elements/1.1/"
   xmlns:cc="http://creativecommons.org/ns#"
   xmlns:rdf="http://www.w3.org/1999/02/22-rdf-syntax-ns#"
   xmlns:svg="http://www.w3.org/2000/svg"
   xmlns="http://www.w3.org/2000/svg"
   xmlns:sodipodi="http://sodipodi.sourceforge.net/DTD/sodipodi-0.dtd"
   xmlns:inkscape="http://www.inkscape.org/namespaces/inkscape"
   inkscape:export-ydpi="100"
   inkscape:export-xdpi="100"
   inkscape:export-filename="/home/alecive/Scrivania/firefoxTest1.png"
   sodipodi:docname="gtk-select-color.svg"
   inkscape:version="0.91 r"
   version="1.1"
   id="svg2"
   height="16"
   width="16">
  <sodipodi:namedview
     id="base"
     pagecolor="#ffffff"
     bordercolor="#666666"
     borderopacity="1.0"
     inkscape:pageopacity="0.0"
     inkscape:pageshadow="2"
     inkscape:zoom="5.9438313"
     inkscape:cx="30.66255"
     inkscape:cy="26.365405"
     inkscape:document-units="px"
     inkscape:current-layer="svg2"
     showgrid="true"
     inkscape:window-width="1366"
     inkscape:window-height="747"
     inkscape:window-x="0"
     inkscape:window-y="21"
     inkscape:window-maximized="1"
     inkscape:object-paths="false"
     inkscape:snap-intersection-paths="false"
     inkscape:object-nodes="true"
     inkscape:snap-smooth-nodes="true"
     inkscape:snap-nodes="true">
    <inkscape:grid
       type="xygrid"
       id="grid4278" />
  </sodipodi:namedview>
  <defs
     id="defs4" />
  <metadata
     id="metadata7">
    <rdf:RDF>
      <cc:Work
         rdf:about="">
        <dc:format>image/svg+xml</dc:format>
        <dc:type
           rdf:resource="http://purl.org/dc/dcmitype/StillImage" />
        <dc:title></dc:title>
      </cc:Work>
    </rdf:RDF>
  </metadata>
  <g
     id="layer1"
     inkscape:groupmode="layer"
     inkscape:label="Livello 1"
     transform="translate(0,-1036.3622)" />
  <g
     id="g2036"
     transform="matrix(1.1,0,0,0.44444,95.081063,-239.60746)">
    <g
       id="g3712"
       style="opacity:0.4"
       transform="matrix(1.0526,0,0,1.2857,-1.2632,-13.429)" />
  </g>
  <g
     transform="translate(97.481063,-264.71846)"
     id="g3541" />
  <g
     transform="translate(97.481063,-264.71846)"
     id="g3536" />
  <g
     id="g4076"
     transform="translate(-605.51932,-849.96833)">
    <g
       transform="translate(-926.66758,684.38448)"
       id="g4038" />
  </g>
  <g
     id="g4299"
     transform="matrix(0.5,0,0,0.5,-1.9999997,1.9999998)">
    <path
       id="path28"
       style="fill:#268bd2;fill-opacity:1;fill-rule:nonzero;stroke:none"
       d="M 10.726447,14.520437 C 10.548702,13.890619 9.9643454,13.454546 9.2984134,13.454546 l -3.8165864,0 c -0.4447695,0 -0.8662003,0.196291 -1.1475246,0.5344 -0.2816207,0.338036 -0.3932761,0.782618 -0.3044407,1.210473 0.6746004,3.250327 2.3349843,6.17389 4.8014805,8.454545 0.2769528,0.256 0.6410368,0.395782 1.0160872,0.395782 0.071496,0 0.1435888,-0.0052 0.2153836,-0.01534 0.448028,-0.0648 0.841305,-0.326982 1.06795,-0.711928 L 13.056838,20.048 c 0.321852,-0.547127 0.246872,-1.235491 -0.184932,-1.703709 -1.004602,-1.088582 -1.746404,-2.410764 -2.145459,-3.823854"
       inkscape:connector-curvature="0" />
    <path
       id="path30"
       style="fill:#859900;fill-opacity:1;fill-rule:nonzero;stroke:none"
       d="M 23.631875,21.931564 C 23.363296,21.474982 22.869848,21.204 22.348912,21.204 c -0.105061,0 -0.211308,0.01106 -0.316665,0.03382 -0.670822,0.143709 -1.355055,0.216727 -2.033137,0.216727 -0.948146,0 -1.884954,-0.136364 -2.785385,-0.405381 -0.1427,-0.04262 -0.288215,-0.06306 -0.431507,-0.06306 -0.518638,0 -1.013271,0.268145 -1.28326,0.727273 l -1.8914,3.215854 c -0.218495,0.371637 -0.258727,0.818473 -0.110248,1.2216 0.148479,0.403418 0.470627,0.7216 0.880426,0.870182 C 16.16978,27.670764 18.06118,28 19.99911,28 c 1.603408,0 3.185329,-0.227564 4.701901,-0.676727 0.433286,-0.128073 0.783145,-0.443709 0.94985,-0.8568 0.166706,-0.413091 0.131734,-0.8784 -0.09432,-1.263055 l -1.924668,-3.271854"
       inkscape:connector-curvature="0" />
    <path
       id="path32"
       style="fill:#ee7616;fill-opacity:1;fill-rule:nonzero;stroke:none"
       d="m 29.272365,9.475855 c 0.176856,0.631782 0.761732,1.0696 1.429146,1.0696 l 3.816586,0 c 0.444547,0 0.865681,-0.195709 1.146932,-0.533527 C 35.946353,9.6744 36.058675,9.2304 35.970654,8.802837 35.241671,5.26051 33.277662,2.032656 30.440783,-0.286108 30.172499,-0.505381 29.836199,-0.62269 29.492342,-0.62269 c -0.08654,0 -0.173373,0.0071 -0.259912,0.0224 -0.430395,0.07527 -0.804853,0.333236 -1.023347,0.704873 l -1.893994,3.220145 c -0.344376,0.585818 -0.232128,1.327272 0.271174,1.789455 1.290816,1.185236 2.219846,2.693454 2.686102,4.361672"
       inkscape:connector-curvature="0" />
    <path
       id="path34"
       style="fill:#dc322f;fill-opacity:1;fill-rule:nonzero;stroke:none"
       d="m 24.701011,-3.323272 c -1.516572,-0.449163 -3.098493,-0.676727 -4.701901,-0.676727 -1.93793,0 -3.82933,0.329236 -5.621374,0.978691 -0.409799,0.148873 -0.731947,0.467054 -0.880426,0.870473 -0.148479,0.403127 -0.108247,0.849963 0.110248,1.2216 l 1.8914,3.215854 c 0.269989,0.458836 0.764622,0.727273 1.28326,0.727273 0.143589,0 0.288585,-0.02044 0.431507,-0.06306 0.900431,-0.269019 1.837239,-0.405382 2.785385,-0.405382 0.678082,0 1.362315,0.07302 2.033137,0.216727 0.105357,0.02276 0.211604,0.03382 0.316665,0.03382 0.520936,0 1.014384,-0.270981 1.282963,-0.727563 l 1.924668,-3.271855 c 0.226052,-0.384945 0.261024,-0.849963 0.09432,-1.263054 -0.166705,-0.413091 -0.516564,-0.728727 -0.94985,-0.8568"
       inkscape:connector-curvature="0" />
    <path
       id="path36"
       style="fill:#ffcf38;fill-opacity:1;fill-rule:nonzero;stroke:none"
       d="m 34.518097,13.454546 -3.816586,0 c -0.667414,0 -1.25229,0.437818 -1.429146,1.0696 -0.466256,1.668218 -1.395286,3.176436 -2.686102,4.361673 -0.503302,0.462181 -0.61555,1.203636 -0.271174,1.789454 l 1.893994,3.220145 c 0.218494,0.371636 0.592952,0.6296 1.023347,0.704873 0.08624,0.01506 0.173373,0.0224 0.259912,0.0224 0.343857,0 0.680157,-0.117309 0.948441,-0.336582 2.836879,-2.318763 4.800888,-5.546909 5.529871,-9.088945 0.08802,-0.427564 -0.0243,-0.871564 -0.305625,-1.209091 -0.281251,-0.337818 -0.702385,-0.533527 -1.146932,-0.533527"
       inkscape:connector-curvature="0" />
    <path
       id="path38"
       style="fill:#3a4f7a;fill-opacity:1;fill-rule:nonzero;stroke:none"
       d="m 11.130763,0.677528 c -0.226645,-0.384945 -0.619922,-0.647127 -1.06795,-0.711927 -0.071792,-0.01018 -0.143886,-0.01535 -0.2153836,-0.01535 -0.3750504,0 -0.7391344,0.139782 -1.0160872,0.395782 -2.4664962,2.280655 -4.1268801,5.204218 -4.8014805,8.454546 -0.088835,0.427854 0.02282,0.872144 0.3044407,1.210472 0.2813243,0.338109 0.7027551,0.5344 1.1475246,0.5344 l 3.8165864,0 c 0.665932,0 1.2502886,-0.436073 1.4280336,-1.065891 0.399055,-1.413091 1.140857,-2.735272 2.145459,-3.823854 0.431804,-0.468218 0.506784,-1.156582 0.184932,-1.70371 L 11.130763,0.677524"
       inkscape:connector-curvature="0" />
    <path
       sodipodi:nodetypes="cssssc"
       inkscape:connector-curvature="0"
       id="polygon19"
       d="M 32.528127,5.55 20.284376,8.743751 c -1.564368,0.408061 -3.097192,1.02752 -3.393752,2.709375 -0.313136,1.775874 0.826904,3.462897 2.543752,3.765625 1.2318,0.2172 2.194672,-0.548625 3.118752,-1.321876 z"
       style="fill:#4d4d4d;stroke:none" />
  </g>
</svg>
