<svg width="16" xmlns="http://www.w3.org/2000/svg" viewBox="0 0 16 16.0243" height="16.0243">
<g style="fill:#888" transform="matrix(1 0 0 .99884 0 .00234)">
<g style="letter-spacing:0;line-height:125%;word-spacing:0">
<path d="M 10.000022,6.1667128 C 10.000018,6.5134634 9.938605,6.8044847 9.8157797,7.0397776 9.6929473,7.2688804 9.5248663,7.4546386 9.3115372,7.5970531 9.1046648,7.7332761 8.8557761,7.8323472 8.5648705,7.8942667 8.2804232,7.9499939 7.9733529,7.977858 7.6436584,7.977858 7.0655242,7.9836194 6.5324018,7.7719676 6.0000221,7.6906447 l 0,-5.3659869 C 6.5306107,2.23082 7.025524,2.1156547 7.5272947,2.0893145 c 0.4525228,5.8e-6 0.8210072,0.046446 1.1054545,0.1393188 0.284441,0.086693 0.5074711,0.2043398 0.6690909,0.3529411 0.1616122,0.14242 0.2715106,0.3034105 0.3296972,0.4829721 0.058179,0.1795711 0.087272,0.3591375 0.087272,0.5386995 C 9.718806,3.8756957 9.6476945,4.1171815 9.5054766,4.327704 9.369715,4.5382336 9.1854728,4.7054161 8.9527492,4.8292519 9.360018,4.9716696 9.6347652,5.1636198 9.7769917,5.4051031 9.925674,5.6465914 10.000018,5.9004611 10.000022,6.1667128 m -2.8315151,-0.7801855 0,1.5603711 c 0.084038,0.012385 0.1745436,0.021673 0.2715151,0.027864 0.1034323,0.0062 0.2036342,0.00929 0.3006061,0.00929 0.1357551,9e-7 0.2682802,-0.00929 0.3975758,-0.027864 0.12929,-0.024767 0.2424213,-0.065015 0.3393938,-0.120743 C 8.581029,6.773525 8.6650693,6.6899338 8.729719,6.5846694 8.7943621,6.4732157 8.8266853,6.3338971 8.8266886,6.1667128 8.8266853,5.8880771 8.732948,5.689935 8.5454765,5.5722858 8.3644635,5.4484492 8.1188072,5.3865298 7.8085069,5.3865273 l -0.64,0 M 7.6339614,4.439159 C 7.9377973,4.4391625 8.167292,4.3772431 8.3224462,4.2534007 8.4775947,4.1233734 8.5551704,3.9469031 8.5551735,3.723989 8.5551704,3.5877705 8.5325442,3.4794114 8.4872947,3.3989116 8.4420393,3.3122289 8.3806252,3.2472136 8.3030523,3.2038653 8.2254738,3.1543345 8.1349688,3.1233747 8.0315372,3.1109861 c -0.1034368,-0.018571 -0.2101034,-0.027859 -0.32,-0.027864 -0.090507,4.9e-6 -0.1842445,0.0031 -0.2812122,0.00929 -0.096971,0.0062 -0.1842441,0.015485 -0.2618181,0.027864 l 0,1.3188851 0.4654545,0"/>
<path d="m 14.104162,8.0242976 c -0.957084,-2e-7 -1.68768,-0.2600618 -2.191789,-0.7801856 -0.504112,-0.5201226 -0.912332,-1.2600596 -0.912332,-2.2198136 -0.01905,-1.0143246 0.344024,-1.6144849 1.021921,-2.2105259 0.277625,-0.2600565 0.602741,-0.4551028 0.975346,-0.5851392 0.379908,-0.136217 0.792695,-0.2043285 1.238361,-0.2043343 0.241094,5.8e-6 0.456619,0.018582 0.646577,0.055727 0.197257,0.030966 0.368947,0.068117 0.515071,0.1114551 0.146115,0.04335 0.266662,0.089789 0.361645,0.1393189 0.102281,0.049541 0.178991,0.086693 0.230138,0.111455 L 15.638414,3.3524718 C 15.470372,3.2595973 15.265805,3.182198 15.024713,3.1202737 14.790918,3.052167 14.520598,3.0181115 14.213751,3.0181066 c -0.211876,4.9e-6 -0.420095,0.034061 -0.624659,0.1021671 -0.197265,0.061924 -0.37626,0.1702832 -0.536989,0.3250774 -0.153428,0.1486111 -0.281281,0.3498493 -0.383563,0.603715 -0.09498,0.2538735 -0.142468,0.5696626 -0.142467,0.9473682 -1e-6,0.6563489 0.131506,1.1609922 0.394523,1.5139315 0.270318,0.3467502 0.708676,0.5201246 1.315073,0.5201237 0.350682,9e-7 0.639268,-0.034055 0.865757,-0.1021671 0.233786,-0.06811 0.420088,-0.1362218 0.558906,-0.2043343 l 0.339727,0.9009285 c -0.18996,0.099071 -0.449321,0.1919505 -0.778085,0.2786377 -0.321467,0.080495 -0.69407,0.1207429 -1.117812,0.1207431"/>
</g>
<path d="m 2,2.03125 -2,6 1,0 0.65625,-2 1.6875,0 0.65625,2 1,0 -2,-6 -1,0 z m 0.5,1.5 0.5,1.5 -1,0 0.5,-1.5 z"/>
</g>
<path style="fill:#859900" d="M 8,11.0243 14,5.0242997 16,7.0242998 8,15.0243 c -1.6666667,-1.666667 -3.3333334,-3.333333 -5.0000001,-5 l 2,-2.0000002 z"/>
</svg>
