<?xml version="1.0" encoding="UTF-8" standalone="no"?>
<svg
   xmlns:dc="http://purl.org/dc/elements/1.1/"
   xmlns:cc="http://creativecommons.org/ns#"
   xmlns:rdf="http://www.w3.org/1999/02/22-rdf-syntax-ns#"
   xmlns:svg="http://www.w3.org/2000/svg"
   xmlns="http://www.w3.org/2000/svg"
   xmlns:sodipodi="http://sodipodi.sourceforge.net/DTD/sodipodi-0.dtd"
   xmlns:inkscape="http://www.inkscape.org/namespaces/inkscape"
   width="32"
   height="32"
   viewBox="0 0 32 32"
   id="svg2"
   version="1.1"
   inkscape:version="0.91 r13725"
   sodipodi:docname="application-vnd.openxmlformats-officedocument.wordprocessingml.document.svg">
  <metadata
     id="metadata42">
    <rdf:RDF>
      <cc:Work
         rdf:about="">
        <dc:format>image/svg+xml</dc:format>
        <dc:type
           rdf:resource="http://purl.org/dc/dcmitype/StillImage" />
      </cc:Work>
    </rdf:RDF>
  </metadata>
  <defs
     id="defs40" />
  <sodipodi:namedview
     pagecolor="#ffffff"
     bordercolor="#666666"
     borderopacity="1"
     objecttolerance="10"
     gridtolerance="10"
     guidetolerance="10"
     inkscape:pageopacity="0"
     inkscape:pageshadow="2"
     inkscape:window-width="1280"
     inkscape:window-height="998"
     id="namedview38"
     showgrid="true"
     inkscape:zoom="14.75"
     inkscape:cx="21.959255"
     inkscape:cy="-7.1212001"
     inkscape:window-x="0"
     inkscape:window-y="0"
     inkscape:window-maximized="1"
     inkscape:current-layer="svg2">
    <inkscape:grid
       type="xygrid"
       id="grid3046" />
  </sodipodi:namedview>
  <path
     style="fill:#3468ce;fill-opacity:1"
     d="M 5.335888,2.97e-4 C 4.648414,3.12e-4 4,0.676788 4,1.394031 L 4,30.606268 C 4,31.282757 4.687474,32 5.335888,32 l 21.327333,0 c 0.648413,0 1.335888,-0.717243 1.335888,-1.393732 L 28.000001,9 l -9,-9 z"
     id="path4-1"
     inkscape:connector-curvature="0"
     sodipodi:nodetypes="ssssssccs" />
  <path
     style="fill:#000000;fill-opacity:0.19599998"
     d="m 21,9 7,7 0,-7 z"
     id="path6-4"
     inkscape:connector-curvature="0"
     sodipodi:nodetypes="cccc" />
  <path
     style="fill:#ffffff;fill-opacity:0.39200003"
     d="M 19.000306,2.97e-4 27.9919,9 20.378638,9 C 19.705688,9 19.000306,8.2865104 19.000306,7.61356 z"
     id="path8-6"
     inkscape:connector-curvature="0"
     sodipodi:nodetypes="ccssc" />
  <rect
     style="fill:#f9f9f9;fill-opacity:1;fill-rule:evenodd;stroke:none"
     id="rect3029"
     width="6"
     height="5"
     x="10"
     y="11" />
  <rect
     style="fill:#f9f9f9;fill-opacity:1;fill-rule:evenodd;stroke:none"
     id="rect3031"
     width="5"
     height="1"
     x="17"
     y="11" />
  <path
     style="fill:#000000;fill-opacity:0.19599998"
     d="m 4,24 0,6.667969 C 4,31.316407 4.6874999,32 5.3320309,32 L 26.667969,32 C 27.3125,32 28,31.316407 28,30.667969 L 28,24 z"
     id="path26"
     inkscape:connector-curvature="0" />
  <rect
     style="fill:#f9f9f9;fill-opacity:1;fill-rule:evenodd;stroke:none"
     id="rect3033"
     width="5"
     height="1"
     x="17"
     y="12.999999" />
  <path
     style="fill:#ffffff"
     d="m 20.248593,26.265691 1.295792,2.214806 c -0.127262,0.216687 -0.260496,0.444153 -0.398075,0.681478 -0.141019,0.233884 -0.272289,0.461189 -0.40299,0.684755 -0.123822,0.220127 -0.237391,0.429892 -0.344015,0.622504 -0.103185,0.19261 -0.179229,0.353872 -0.234258,0.491451 l 1.066447,0 c 0.113502,-0.257961 0.248214,-0.546883 0.40299,-0.863315 0.154777,-0.326751 0.308825,-0.63616 0.463602,-0.935395 0.161656,0.312993 0.314229,0.628953 0.458687,0.941947 0.151338,0.312992 0.275233,0.598802 0.378418,0.856763 l 1.064809,0 c -0.05503,-0.137579 -0.126811,-0.298841 -0.216237,-0.491451 -0.09287,-0.19949 -0.199062,-0.410568 -0.319443,-0.630695 -0.120382,-0.230445 -0.247391,-0.460536 -0.38497,-0.69786 -0.141019,-0.237325 -0.283105,-0.468067 -0.427562,-0.684755 l 1.266304,-2.190233 -0.994369,0 -0.825637,1.498925 -0.783044,-1.498925 -1.066449,0 z m -6.457664,0.02621 c -0.58292,0 -1.03528,0.196182 -1.362957,0.596294 -0.327677,0.393211 -0.493088,0.98004 -0.493088,1.756117 0,0.779528 0.159377,1.365837 0.476707,1.765947 C 12.732369,30.803473 13.193694,31 13.800758,31 c 0.586369,0 1.042179,-0.196527 1.362957,-0.589741 0.324229,-0.40011 0.48326,-0.986419 0.48326,-1.765947 0,-0.776077 -0.159551,-1.362906 -0.473431,-1.756117 -0.31733,-0.400112 -0.77555,-0.596294 -1.382615,-0.596294 z m 4.642573,0 c -0.338026,0 -0.652386,0.05198 -0.938672,0.158903 -0.282838,0.103477 -0.530049,0.255182 -0.740452,0.458687 -0.203507,0.200055 -0.365988,0.443991 -0.48326,0.737176 -0.117275,0.289735 -0.176924,0.625129 -0.176924,0.997645 0,0.755383 0.193772,1.334364 0.576636,1.741374 C 17.053696,30.796144 17.609235,31 18.333573,31 c 0.324229,0 0.607126,-0.03111 0.848572,-0.09665 0.251794,-0.06554 0.448149,-0.138547 0.593017,-0.217876 l -0.258831,-0.706051 c -0.106927,0.05519 -0.248374,0.10699 -0.424286,0.162179 -0.172461,0.05173 -0.392952,0.07863 -0.658543,0.07863 -0.45875,0 -0.792502,-0.137053 -0.996007,-0.409542 -0.200056,-0.275939 -0.301424,-0.673738 -0.301424,-1.187673 0,-0.296634 0.03569,-0.545312 0.108118,-0.745367 0.07933,-0.196606 0.175959,-0.354519 0.293232,-0.471792 0.120724,-0.120725 0.257949,-0.20726 0.406266,-0.255555 0.155216,-0.05173 0.314766,-0.07863 0.473431,-0.07863 0.234548,0 0.440042,0.0269 0.615952,0.07863 0.182809,0.04829 0.339257,0.111041 0.466879,0.183475 l 0.265383,-0.714242 c -0.03794,-0.02069 -0.09776,-0.04872 -0.173646,-0.0901 -0.07244,-0.03794 -0.164837,-0.07199 -0.275212,-0.106482 -0.110376,-0.03449 -0.241568,-0.06596 -0.389885,-0.0901 -0.144867,-0.02759 -0.310279,-0.04096 -0.493088,-0.04096 z m -9.2032368,0.04751 c -0.1759102,0 -0.3682163,0.01077 -0.5717211,0.02457 C 8.4515902,26.377781 8.2345479,26.405971 8,26.450801 l 0,4.405037 c 0.200056,0.03794 0.3861536,0.06485 0.5586157,0.07863 0.1759102,0.02072 0.3577869,0.02785 0.540596,0.02785 0.3483723,0 0.6704053,-0.04172 0.9566913,-0.124501 0.293185,-0.08623 0.548069,-0.220008 0.758472,-0.406266 0.210403,-0.182809 0.372539,-0.421058 0.489812,-0.714242 0.120726,-0.296634 0.181837,-0.655643 0.181837,-1.073001 0,-0.407009 -0.05508,-0.75559 -0.165454,-1.041876 -0.106927,-0.289729 -0.254063,-0.531427 -0.447221,-0.714236 -0.196606,-0.189708 -0.434681,-0.328054 -0.717518,-0.417734 -0.2759387,-0.08623 -0.5875405,-0.131053 -0.9255658,-0.131053 z m 4.5606638,0.732262 c 0.17936,0 0.320809,0.04172 0.424286,0.124501 0.106927,0.08278 0.185622,0.192767 0.240811,0.334186 0.06208,0.141419 0.100704,0.306311 0.117948,0.502918 0.02069,0.189707 0.0344,0.393737 0.0344,0.611037 0,0.220751 -0.0137,0.424606 -0.0344,0.614314 -0.01725,0.189708 -0.05586,0.354601 -0.117948,0.502918 -0.05519,0.141418 -0.136989,0.251403 -0.247364,0.334187 -0.106925,0.08278 -0.245272,0.1245 -0.417733,0.1245 -0.175911,0 -0.317359,-0.04172 -0.424286,-0.1245 -0.103476,-0.08278 -0.186918,-0.192769 -0.249001,-0.334187 -0.05519,-0.141418 -0.09217,-0.306658 -0.11631,-0.496366 -0.01726,-0.193157 -0.02457,-0.400115 -0.02457,-0.620866 0,-0.2173 0.0073,-0.42133 0.02457,-0.611037 0.02414,-0.189709 0.06112,-0.354947 0.11631,-0.496365 0.06209,-0.144868 0.145525,-0.257955 0.249001,-0.340739 0.106927,-0.08279 0.248375,-0.124501 0.424286,-0.124501 z m -4.4672881,0.05078 c 0.2276497,0 0.4137475,0.04137 0.5586157,0.131054 0.1414184,0.08278 0.2563194,0.194404 0.3391014,0.335825 0.08623,0.141417 0.140794,0.302097 0.175284,0.484897 0.03449,0.186259 0.05242,0.376926 0.05242,0.570083 0,0.224201 -0.02396,0.431158 -0.0688,0.620866 -0.03794,0.18281 -0.10802,0.345463 -0.208048,0.479984 -0.09313,0.137969 -0.2195791,0.243562 -0.3816932,0.319443 -0.1552153,0.07933 -0.3486404,0.117948 -0.5831883,0.117948 l -0.090099,0 c -0.034488,0 -0.065782,3.25e-4 -0.093376,-0.0066 l 0,-3.032252 c 0.04484,-0.01035 0.093886,-0.01311 0.1490735,-0.01311 0.058637,-0.0069 0.1058724,-0.0082 0.1507116,-0.0082 z"
     id="path32"
     inkscape:connector-curvature="0" />
  <rect
     style="fill:#f9f9f9;fill-opacity:1;fill-rule:evenodd;stroke:none"
     id="rect3035"
     width="5"
     height="1"
     x="17"
     y="14.999999" />
  <rect
     style="fill:#f9f9f9;fill-opacity:1;fill-rule:evenodd;stroke:none"
     id="rect3037"
     width="12"
     height="1"
     x="10"
     y="17" />
  <rect
     style="fill:#f9f9f9;fill-opacity:1;fill-rule:evenodd;stroke:none"
     id="rect3039"
     width="12"
     height="1"
     x="10"
     y="19" />
  <rect
     style="fill:#f9f9f9;fill-opacity:1;fill-rule:evenodd;stroke:none"
     id="rect3041"
     width="12"
     height="1"
     x="10"
     y="21" />
</svg>
