<?xml version="1.0" encoding="UTF-8" standalone="no"?>
<svg
   xmlns:dc="http://purl.org/dc/elements/1.1/"
   xmlns:cc="http://creativecommons.org/ns#"
   xmlns:rdf="http://www.w3.org/1999/02/22-rdf-syntax-ns#"
   xmlns:svg="http://www.w3.org/2000/svg"
   xmlns="http://www.w3.org/2000/svg"
   xmlns:sodipodi="http://sodipodi.sourceforge.net/DTD/sodipodi-0.dtd"
   xmlns:inkscape="http://www.inkscape.org/namespaces/inkscape"
   width="32"
   height="32"
   viewBox="0 0 32 32"
   id="svg2"
   version="1.1"
   inkscape:version="0.48.5 r10040"
   sodipodi:docname="wps-office-doc.svg">
  <metadata
     id="metadata42">
    <rdf:RDF>
      <cc:Work
         rdf:about="">
        <dc:format>image/svg+xml</dc:format>
        <dc:type
           rdf:resource="http://purl.org/dc/dcmitype/StillImage" />
      </cc:Work>
    </rdf:RDF>
  </metadata>
  <defs
     id="defs40" />
  <sodipodi:namedview
     pagecolor="#ffffff"
     bordercolor="#666666"
     borderopacity="1"
     objecttolerance="10"
     gridtolerance="10"
     guidetolerance="10"
     inkscape:pageopacity="0"
     inkscape:pageshadow="2"
     inkscape:window-width="1280"
     inkscape:window-height="970"
     id="namedview38"
     showgrid="true"
     inkscape:zoom="20.85965"
     inkscape:cx="17.002104"
     inkscape:cy="6.9711351"
     inkscape:window-x="0"
     inkscape:window-y="0"
     inkscape:window-maximized="1"
     inkscape:current-layer="svg2">
    <inkscape:grid
       type="xygrid"
       id="grid3046" />
  </sodipodi:namedview>
  <path
     style="fill:#3468ce;fill-opacity:1"
     d="M 5.335888,2.97e-4 C 4.648414,3.12e-4 4,0.676788 4,1.394031 L 4,30.606268 C 4,31.282757 4.687474,32 5.335888,32 l 21.327333,0 c 0.648413,0 1.335888,-0.717243 1.335888,-1.393732 L 28.000001,9 l -9,-9 z"
     id="path4-1"
     inkscape:connector-curvature="0"
     sodipodi:nodetypes="ssssssccs" />
  <path
     style="fill:#000000;fill-opacity:0.19599998"
     d="m 21,9 7,7 0,-7 z"
     id="path6-4"
     inkscape:connector-curvature="0"
     sodipodi:nodetypes="cccc" />
  <path
     style="fill:#ffffff;fill-opacity:0.39200003"
     d="M 19.000306,2.97e-4 27.9919,9 20.378638,9 C 19.705688,9 19.000306,8.2865104 19.000306,7.61356 z"
     id="path8-6"
     inkscape:connector-curvature="0"
     sodipodi:nodetypes="ccssc" />
  <rect
     style="fill:#f9f9f9;fill-opacity:1;fill-rule:evenodd;stroke:none"
     id="rect3029"
     width="6"
     height="5"
     x="10"
     y="11" />
  <rect
     style="fill:#f9f9f9;fill-opacity:1;fill-rule:evenodd;stroke:none"
     id="rect3031"
     width="5"
     height="1"
     x="17"
     y="11" />
  <path
     style="fill:#000000;fill-opacity:0.19599998"
     d="m 4,24 0,6.667969 C 4,31.316407 4.6874999,32 5.3320309,32 L 26.667969,32 C 27.3125,32 28,31.316407 28,30.667969 L 28,24 z"
     id="path26"
     inkscape:connector-curvature="0" />
  <rect
     style="fill:#f9f9f9;fill-opacity:1;fill-rule:evenodd;stroke:none"
     id="rect3033"
     width="5"
     height="1"
     x="17"
     y="12.999999" />
  <g
     style="fill:#ffffff"
     id="g30"
     transform="matrix(1.0527705,0,0,1.0527705,-0.85183126,-0.5245205)">
    <path
       d="m 10.492188,29.066406 c 0.03125,0.0078 0.06641,0.0078 0.105468,0.0078 0.03516,0 0.07031,0 0.101563,0 0.265625,0 0.484375,-0.04297 0.660156,-0.132813 0.183594,-0.08594 0.328125,-0.207031 0.433594,-0.363281 0.113281,-0.152344 0.191406,-0.335937 0.234375,-0.542969 0.05078,-0.214844 0.07813,-0.449218 0.07813,-0.703125 0,-0.21875 -0.01953,-0.433593 -0.05859,-0.644531 -0.03906,-0.207031 -0.101563,-0.390625 -0.199219,-0.550781 -0.09375,-0.160157 -0.222656,-0.285157 -0.382812,-0.378907 -0.164063,-0.101562 -0.375,-0.148437 -0.632813,-0.148437 -0.05078,0 -0.105469,0 -0.171875,0.0078 -0.0625,0 -0.117187,0.0039 -0.167968,0.01562 l 0,3.433594 m 2.789062,-1.734375 c 0,0.472657 -0.07031,0.878907 -0.207031,1.214844 -0.132813,0.332031 -0.316407,0.601563 -0.554688,0.808594 -0.238281,0.210937 -0.527343,0.363281 -0.859375,0.460937 -0.324218,0.09375 -0.6875,0.140625 -1.082031,0.140625 -0.207031,0 -0.414063,-0.0078 -0.613281,-0.03125 -0.195313,-0.01563 -0.40625,-0.04687 -0.632813,-0.08984 l 0,-4.988282 c 0.265625,-0.05078 0.511719,-0.08203 0.746094,-0.09766 0.230469,-0.01563 0.449219,-0.02734 0.648437,-0.02734 0.382813,0 0.734376,0.05078 1.046876,0.148438 0.320312,0.101562 0.589843,0.257812 0.8125,0.472656 0.21875,0.207031 0.386718,0.480469 0.507812,0.808594 0.125,0.324218 0.1875,0.71875 0.1875,1.179687"
       id="path32"
       inkscape:connector-curvature="0" />
    <path
       d="m 14.96875,27.332031 c 0,0.25 0.0078,0.484375 0.02734,0.703125 0.02734,0.214844 0.07031,0.402344 0.132812,0.5625 0.07031,0.160156 0.164063,0.285156 0.28125,0.378906 0.121094,0.09375 0.28125,0.140626 0.480469,0.140626 0.195313,0 0.351563,-0.04688 0.472656,-0.140626 0.125,-0.09375 0.21875,-0.21875 0.28125,-0.378906 0.07031,-0.167968 0.113281,-0.355468 0.132813,-0.570312 0.02344,-0.214844 0.03906,-0.445313 0.03906,-0.695313 0,-0.246093 -0.01563,-0.476562 -0.03906,-0.691406 -0.01953,-0.222656 -0.0625,-0.410156 -0.132813,-0.570313 -0.0625,-0.160156 -0.152343,-0.285156 -0.273437,-0.378906 -0.117188,-0.09375 -0.277344,-0.140625 -0.480469,-0.140625 -0.199219,0 -0.359375,0.04687 -0.480469,0.140625 -0.117187,0.09375 -0.210937,0.222656 -0.28125,0.386719 -0.0625,0.160156 -0.105468,0.347656 -0.132812,0.5625 -0.01953,0.214844 -0.02734,0.445313 -0.02734,0.691406 m -1.179688,0 c 0,-0.878906 0.1875,-1.542969 0.558594,-1.988281 0.371094,-0.453125 0.882813,-0.675781 1.542969,-0.675781 0.6875,0 1.207031,0.222656 1.566406,0.675781 0.355469,0.445312 0.535157,1.109375 0.535157,1.988281 0,0.882813 -0.179688,1.546875 -0.546876,2 C 17.082031,29.777344 16.566406,30 15.902344,30 c -0.6875,0 -1.210938,-0.222656 -1.574219,-0.667969 -0.359375,-0.453125 -0.539063,-1.117187 -0.539063,-2"
       id="path34"
       inkscape:connector-curvature="0" />
    <path
       d="M 21.035156,30 C 20.214844,30 19.585938,29.769531 19.152344,29.304688 18.71875,28.84375 18.5,28.1875 18.5,27.332031 c 0,-0.421875 0.06641,-0.800781 0.199219,-1.128906 0.132812,-0.332031 0.316406,-0.609375 0.546875,-0.835937 0.238281,-0.230469 0.519531,-0.402344 0.839844,-0.519532 0.324218,-0.121094 0.679687,-0.179687 1.0625,-0.179687 0.207031,0 0.394531,0.01563 0.558593,0.04687 0.167969,0.02734 0.316407,0.0625 0.441407,0.101562 0.125,0.03906 0.230468,0.07813 0.3125,0.121094 0.08594,0.04687 0.152343,0.07813 0.195312,0.101562 l -0.300781,0.808594 c -0.144531,-0.08203 -0.320313,-0.152344 -0.527344,-0.207031 -0.199219,-0.05859 -0.433594,-0.08984 -0.699219,-0.08984 -0.179687,0 -0.359375,0.03125 -0.535156,0.08984 -0.167969,0.05469 -0.324219,0.152344 -0.460938,0.289063 -0.132812,0.132812 -0.242187,0.3125 -0.332031,0.535156 -0.08203,0.226562 -0.121093,0.507812 -0.121093,0.84375 0,0.582031 0.113281,1.03125 0.339843,1.34375 0.230469,0.308594 0.609375,0.464844 1.128907,0.464844 0.300781,0 0.550781,-0.03125 0.746093,-0.08984 0.199219,-0.0625 0.359375,-0.121094 0.480469,-0.183594 l 0.292969,0.800781 C 22.503906,29.73437 22.28125,29.816405 21.996094,29.890624 21.722656,29.964844 21.402344,30 21.035156,30"
       id="path36"
       inkscape:connector-curvature="0" />
  </g>
  <rect
     style="fill:#f9f9f9;fill-opacity:1;fill-rule:evenodd;stroke:none"
     id="rect3035"
     width="5"
     height="1"
     x="17"
     y="14.999999" />
  <rect
     style="fill:#f9f9f9;fill-opacity:1;fill-rule:evenodd;stroke:none"
     id="rect3037"
     width="12"
     height="1"
     x="10"
     y="17" />
  <rect
     style="fill:#f9f9f9;fill-opacity:1;fill-rule:evenodd;stroke:none"
     id="rect3039"
     width="12"
     height="1"
     x="10"
     y="19" />
  <rect
     style="fill:#f9f9f9;fill-opacity:1;fill-rule:evenodd;stroke:none"
     id="rect3041"
     width="12"
     height="1"
     x="10"
     y="21" />
</svg>
