<svg width="32" xmlns="http://www.w3.org/2000/svg" height="32" viewBox="0 0 32 32" xmlns:xlink="http://www.w3.org/1999/xlink">
<path style="fill:#dc322f" d="M 5.332031 0.667969 C 4.648438 0.667969 4 1.3125 4 2 L 4 30 C 4 30.648438 4.6875 31.332031 5.332031 31.332031 L 26.667969 31.332031 C 27.3125 31.332031 28 30.648438 28 30 L 28 9.332031 L 19.332031 0.667969 Z "/>
<path style="fill:#000;fill-opacity:.196" d="M 19.332031 8 L 19.375 8.042969 L 19.480469 8 Z M 20.667969 9.332031 L 28 16.667969 L 28 9.332031 Z "/>
<path style="fill:#fff;fill-opacity:.392" d="M 19.332031 0.667969 L 28 9.332031 L 20.667969 9.332031 C 20.019531 9.332031 19.332031 8.648438 19.332031 8 Z "/>
<path style="fill:#fff" d="M 10.292969 12.003906 C 10.011719 12.035156 10 12.171875 10 12.671875 L 10 14.671875 L 22 14.671875 L 22 12.671875 C 22 12.003906 22 12.003906 21.332031 12.003906 L 10.667969 12.003906 C 10.5 12.003906 10.386719 11.996094 10.292969 12.003906 Z M 10 15.335938 L 10 23.332031 C 10 24 10 24 10.667969 24 L 21.332031 24 C 22 24 22 24 22 23.332031 L 22 15.335938 Z M 18.167969 16.667969 C 18.601562 16.667969 18.988281 16.777344 19.3125 16.980469 C 19.640625 17.183594 19.886719 17.46875 20.0625 17.855469 C 20.238281 18.242188 20.332031 18.699219 20.332031 19.230469 C 20.332031 20.382812 20.09375 21.246094 19.605469 21.8125 C 19.113281 22.382812 18.367188 22.667969 17.375 22.667969 C 17.023438 22.667969 16.765625 22.640625 16.582031 22.605469 L 16.582031 21.625 C 16.808594 21.683594 17.042969 21.710938 17.292969 21.710938 C 17.710938 21.710938 18.042969 21.640625 18.3125 21.523438 C 18.582031 21.398438 18.792969 21.21875 18.9375 20.960938 C 19.082031 20.699219 19.164062 20.332031 19.1875 19.875 L 19.125 19.875 C 18.96875 20.128906 18.789062 20.296875 18.582031 20.398438 C 18.378906 20.5 18.140625 20.5625 17.832031 20.5625 C 17.320312 20.5625 16.902344 20.390625 16.605469 20.0625 C 16.308594 19.734375 16.167969 19.292969 16.167969 18.710938 C 16.167969 18.082031 16.351562 17.574219 16.707031 17.210938 C 17.070312 16.84375 17.546875 16.667969 18.167969 16.667969 Z M 13.5625 16.730469 L 14.605469 16.730469 L 14.605469 22.582031 L 13.355469 22.582031 L 13.355469 18.648438 L 13.375 18.042969 C 13.167969 18.25 13.019531 18.375 12.9375 18.441406 L 12.269531 18.980469 L 11.667969 18.230469 Z M 18.019531 17.667969 C 17.847656 17.703125 17.691406 17.785156 17.582031 17.917969 C 17.4375 18.09375 17.375 18.359375 17.375 18.691406 C 17.375 18.972656 17.429688 19.191406 17.5625 19.355469 C 17.695312 19.519531 17.898438 19.605469 18.167969 19.605469 C 18.417969 19.605469 18.632812 19.519531 18.8125 19.355469 C 18.992188 19.191406 19.082031 19.007812 19.082031 18.792969 C 19.082031 18.476562 19.003906 18.199219 18.832031 17.980469 C 18.667969 17.761719 18.449219 17.667969 18.1875 17.667969 C 18.121094 17.667969 18.078125 17.65625 18.019531 17.667969 Z "/>
</svg>
