<svg width="32" xmlns="http://www.w3.org/2000/svg" height="32" viewBox="0 0 32 32" xmlns:xlink="http://www.w3.org/1999/xlink">
<defs>
<clipPath id="clip1">
<rect width="32" height="32"/>
</clipPath>
<filter width="100%" x="0" y="0" height="100%" filterUnits="objectBoundingBox" id="alpha">
<feColorMatrix values="0 0 0 0 1 0 0 0 0 1 0 0 0 0 1 0 0 0 1 0" in="SourceGraphic" type="matrix"/>
</filter>
<g style="clip-path:url(#clip1)" id="surface6">
<path style="fill:#fff" d="M 14.496094 12 L 14.496094 13.289062 L 13.925781 13.289062 L 13.925781 12.445312 C 13.832031 12.488281 13.746094 12.523438 13.65625 12.550781 C 13.570312 12.578125 13.464844 12.605469 13.332031 12.628906 L 13.332031 12.339844 C 13.527344 12.300781 13.675781 12.253906 13.78125 12.199219 C 13.886719 12.144531 13.96875 12.078125 14.03125 12 L 14.496094 12 "/>
<path style="fill:#fff" d="M 16.761719 13.289062 L 15.070312 13.289062 C 15.089844 13.183594 15.148438 13.085938 15.246094 12.996094 C 15.347656 12.902344 15.53125 12.792969 15.800781 12.667969 C 15.964844 12.59375 16.070312 12.535156 16.117188 12.496094 C 16.164062 12.453125 16.1875 12.417969 16.1875 12.382812 C 16.1875 12.34375 16.164062 12.308594 16.117188 12.28125 C 16.074219 12.253906 16.015625 12.242188 15.945312 12.242188 C 15.875 12.242188 15.816406 12.253906 15.769531 12.285156 C 15.722656 12.3125 15.695312 12.363281 15.679688 12.433594 L 15.113281 12.40625 C 15.136719 12.304688 15.175781 12.226562 15.234375 12.171875 C 15.292969 12.117188 15.375 12.074219 15.484375 12.046875 C 15.59375 12.015625 15.742188 12 15.929688 12 C 16.128906 12 16.285156 12.015625 16.394531 12.042969 C 16.503906 12.070312 16.589844 12.113281 16.652344 12.171875 C 16.71875 12.230469 16.75 12.296875 16.75 12.371094 C 16.75 12.445312 16.714844 12.519531 16.640625 12.589844 C 16.570312 12.660156 16.4375 12.738281 16.246094 12.824219 C 16.132812 12.871094 16.054688 12.90625 16.015625 12.925781 C 15.980469 12.945312 15.933594 12.96875 15.882812 13.003906 L 16.765625 13.003906 L 16.765625 13.289062 "/>
<path style="fill:#fff" d="M 17.347656 12.609375 C 17.257812 12.578125 17.195312 12.546875 17.152344 12.507812 C 17.097656 12.460938 17.070312 12.402344 17.070312 12.339844 C 17.070312 12.230469 17.148438 12.144531 17.308594 12.078125 C 17.433594 12.027344 17.597656 12 17.804688 12 C 18.074219 12 18.277344 12.03125 18.40625 12.097656 C 18.535156 12.160156 18.601562 12.242188 18.601562 12.339844 C 18.601562 12.398438 18.574219 12.449219 18.523438 12.5 C 18.484375 12.539062 18.421875 12.574219 18.339844 12.609375 C 18.449219 12.640625 18.53125 12.683594 18.585938 12.738281 C 18.640625 12.792969 18.667969 12.851562 18.667969 12.917969 C 18.667969 12.980469 18.644531 13.042969 18.597656 13.097656 C 18.550781 13.152344 18.492188 13.195312 18.425781 13.222656 C 18.355469 13.253906 18.273438 13.277344 18.171875 13.289062 C 18.070312 13.304688 17.960938 13.3125 17.847656 13.3125 C 17.632812 13.3125 17.46875 13.296875 17.355469 13.261719 C 17.242188 13.230469 17.15625 13.183594 17.097656 13.125 C 17.039062 13.0625 17.007812 12.992188 17.007812 12.917969 C 17.007812 12.84375 17.035156 12.78125 17.089844 12.726562 C 17.144531 12.675781 17.230469 12.636719 17.347656 12.609375 M 17.601562 12.359375 C 17.601562 12.402344 17.621094 12.4375 17.664062 12.464844 C 17.710938 12.492188 17.769531 12.503906 17.839844 12.503906 C 17.90625 12.503906 17.960938 12.492188 18 12.464844 C 18.042969 12.4375 18.0625 12.40625 18.0625 12.363281 C 18.0625 12.320312 18.042969 12.28125 17.996094 12.257812 C 17.953125 12.226562 17.898438 12.214844 17.832031 12.214844 C 17.761719 12.214844 17.707031 12.226562 17.664062 12.253906 C 17.621094 12.28125 17.601562 12.316406 17.601562 12.359375 M 17.570312 12.90625 C 17.570312 12.960938 17.597656 13.007812 17.652344 13.042969 C 17.707031 13.078125 17.769531 13.09375 17.839844 13.09375 C 17.90625 13.09375 17.964844 13.078125 18.019531 13.042969 C 18.074219 13.003906 18.101562 12.957031 18.101562 12.902344 C 18.101562 12.847656 18.074219 12.800781 18.019531 12.765625 C 17.964844 12.730469 17.902344 12.710938 17.832031 12.710938 C 17.761719 12.710938 17.699219 12.730469 17.648438 12.765625 C 17.597656 12.800781 17.570312 12.84375 17.570312 12.90625 "/>
</g>
<linearGradient gradientTransform="scale(.66667)" id="linear0" y1="42" y2="9" gradientUnits="userSpaceOnUse" x2="0">
<stop offset="0" style="stop-color:#aa1e1e"/>
<stop offset="1" style="stop-color:#e35c5c"/>
</linearGradient>
<mask id="mask0">
<g style="filter:url(#alpha)">
<rect width="32" x="0" y="0" height="32" style="fill:#000;fill-opacity:.51"/>
</g>
</mask>
<radialGradient cx="10.388" cy="11.314" gradientTransform="matrix(2.3433 .18294 -.12394 1.5875 -12.552 -10.696)" id="radial2" r="17.094" gradientUnits="userSpaceOnUse">
<stop offset="0" style="stop-color:#fff;stop-opacity:.2"/>
<stop offset="1" style="stop-color:#fff;stop-opacity:0"/>
</radialGradient>
<radialGradient cx="15.047" cy="18.977" gradientTransform="matrix(2.9507 .0686 -.02067 .88929 -29.188 1.2014)" id="radial1" r="18.094" gradientUnits="userSpaceOnUse">
<stop offset="0" style="stop-color:#4f4f4f"/>
<stop offset="1" style="stop-color:#1e1e1e"/>
</radialGradient>
<radialGradient cx="24.218" cy="45.26" gradientTransform="matrix(.68567 0 0 .10909 -.60606 24.06267)" id="radial0" r="21.39" gradientUnits="userSpaceOnUse">
<stop offset="0" style="stop-color:#000;stop-opacity:.529"/>
<stop offset="1" style="stop-color:#000;stop-opacity:0"/>
</radialGradient>
</defs>
<g style="fill-rule:evenodd">
<path style="fill:url(#radial0)" d="M 30.667969 29 C 30.667969 30.289062 24.101562 31.332031 16 31.332031 C 7.898438 31.332031 1.332031 30.289062 1.332031 29 C 1.332031 27.710938 7.898438 26.667969 16 26.667969 C 24.101562 26.667969 30.667969 27.710938 30.667969 29 Z "/>
<path style="fill:url(#radial1);stroke:#131313" d="M 7.998047 3.521484 C 7.306641 3.521484 6.544922 4.306641 6.544922 4.998047 L 6.533203 13.505859 L 7.541016 13.505859 L 7.447266 25.505859 L 6.462891 25.529297 L 6.404297 43.001953 C 6.398438 43.728516 7.271484 44.490234 7.998047 44.490234 L 40.001953 44.490234 C 40.705078 44.490234 41.501953 43.705078 41.501953 43.001953 L 41.537109 18.509766 L 40.5 18.509766 L 40.5 14.578125 L 41.566406 14.548828 L 41.589844 8.466797 C 41.589844 7.933594 41.15625 7.476562 41.15625 7.476562 L 38.109375 3.955078 C 37.857422 3.703125 37.623047 3.550781 36.966797 3.515625 Z " transform="scale(.66667)"/>
</g>
<path style="fill:none;stroke:url(#radial2)" d="M 7.998047 4.529297 C 8.027344 4.529297 7.851562 4.582031 7.716797 4.716797 C 7.582031 4.851562 7.529297 5.027344 7.529297 4.998047 L 7.529297 12.498047 C 8.085938 12.498047 8.53125 12.949219 8.53125 13.5 L 8.4375 25.5 C 8.4375 26.039062 8.009766 26.484375 7.470703 26.501953 L 7.40625 43.001953 C 7.40625 42.966797 7.435547 43.136719 7.59375 43.283203 C 7.751953 43.423828 7.986328 43.5 7.998047 43.5 L 40.001953 43.5 C 39.978516 43.5 40.171875 43.453125 40.3125 43.3125 C 40.453125 43.171875 40.5 42.978516 40.5 43.001953 L 40.529297 19.5 L 40.5 19.5 C 39.949219 19.5 39.498047 19.054688 39.498047 18.498047 L 39.498047 14.595703 C 39.498047 14.056641 39.931641 13.611328 40.470703 13.59375 L 40.564453 13.59375 L 40.59375 8.466797 C 40.59375 8.490234 40.435547 8.15625 40.435547 8.15625 C 40.429688 8.144531 40.417969 8.138672 40.40625 8.126953 L 37.376953 4.6875 C 37.207031 4.517578 37.271484 4.535156 36.966797 4.529297 C 36.925781 4.529297 36.966797 4.535156 36.908203 4.529297 Z " transform="scale(.66667)"/>
<path style="fill:url(#linear0)" d="M 7.332031 6 L 24.667969 6 L 24.667969 28 L 7.332031 28 Z "/>
<path style="fill:#282828" d="M 12 6 L 20 6 L 20 14 L 12 14 Z "/>
<path style="fill:#131313;fill-opacity:.2" d="M 7.332031 6 L 24.667969 6 L 24.667969 10.667969 L 7.332031 10.667969 Z "/>
<use style="mask:url(#mask0)" xlink:href="#surface6"/>
<g style="fill:#fff">
<path d="M 16.6875 21.816406 C 16.539062 21.675781 16.34375 21.5625 16.105469 21.480469 C 15.867188 21.398438 15.640625 21.359375 15.425781 21.359375 C 15.148438 21.359375 14.929688 21.421875 14.765625 21.550781 C 14.601562 21.679688 14.523438 21.851562 14.523438 22.0625 C 14.523438 22.292969 14.585938 22.476562 14.710938 22.617188 C 14.835938 22.757812 15.109375 22.933594 15.527344 23.148438 C 16.078125 23.433594 16.460938 23.695312 16.671875 23.929688 C 16.882812 24.164062 16.992188 24.476562 16.992188 24.859375 C 16.992188 25.390625 16.796875 25.824219 16.402344 26.164062 C 16.015625 26.5 15.472656 26.667969 14.785156 26.667969 C 14.550781 26.667969 14.296875 26.632812 14.027344 26.5625 C 13.757812 26.496094 13.542969 26.410156 13.382812 26.304688 L 13.382812 25.09375 C 13.574219 25.28125 13.800781 25.433594 14.058594 25.542969 C 14.324219 25.648438 14.566406 25.699219 14.785156 25.699219 C 15.105469 25.699219 15.34375 25.640625 15.503906 25.515625 C 15.664062 25.394531 15.742188 25.207031 15.742188 24.960938 C 15.742188 24.765625 15.664062 24.605469 15.503906 24.476562 C 15.34375 24.34375 15.054688 24.167969 14.640625 23.949219 C 14.191406 23.707031 13.859375 23.460938 13.648438 23.214844 C 13.4375 22.964844 13.332031 22.613281 13.332031 22.160156 C 13.332031 21.644531 13.523438 21.21875 13.90625 20.886719 C 14.285156 20.554688 14.78125 20.390625 15.390625 20.390625 C 15.917969 20.390625 16.351562 20.464844 16.6875 20.613281 L 16.6875 21.816406 M 18.042969 20.523438 L 20.152344 20.523438 C 21.171875 20.523438 21.9375 20.769531 22.445312 21.257812 C 22.957031 21.746094 23.214844 22.480469 23.214844 23.457031 C 23.214844 24.402344 22.925781 25.152344 22.347656 25.710938 C 21.773438 26.265625 20.996094 26.542969 20.015625 26.542969 L 18.042969 26.542969 L 18.042969 20.523438 M 19.214844 25.617188 L 19.988281 25.617188 C 20.621094 25.617188 21.117188 25.429688 21.480469 25.050781 C 21.84375 24.671875 22.027344 24.15625 22.027344 23.5 C 22.027344 22.863281 21.847656 22.371094 21.496094 22.019531 C 21.144531 21.664062 20.652344 21.488281 20.023438 21.488281 L 19.214844 21.488281 L 19.214844 25.617188 "/>
<path d="M 18.410156 19.972656 L 18.183594 19.972656 L 18.183594 18.714844 C 18.183594 18.699219 18.191406 18.640625 18.199219 18.546875 L 18.195312 18.546875 C 18.179688 18.621094 18.164062 18.675781 18.152344 18.710938 L 17.589844 19.972656 L 17.480469 19.972656 L 16.921875 18.722656 C 16.90625 18.691406 16.890625 18.632812 16.875 18.546875 L 16.867188 18.546875 C 16.875 18.605469 16.878906 18.667969 16.878906 18.734375 L 16.878906 19.972656 L 16.667969 19.972656 L 16.667969 18.328125 L 16.964844 18.328125 L 17.507812 19.53125 C 17.523438 19.570312 17.535156 19.605469 17.539062 19.632812 L 17.546875 19.632812 C 17.550781 19.609375 17.5625 19.574219 17.582031 19.53125 L 18.117188 18.328125 L 18.410156 18.328125 L 18.410156 19.972656 M 20.582031 19.972656 L 20.359375 19.972656 L 20.359375 18.714844 C 20.359375 18.699219 20.363281 18.640625 20.375 18.546875 L 20.371094 18.546875 C 20.355469 18.621094 20.339844 18.675781 20.324219 18.710938 L 19.765625 19.972656 L 19.65625 19.972656 L 19.09375 18.722656 C 19.082031 18.691406 19.066406 18.632812 19.046875 18.546875 L 19.042969 18.546875 C 19.050781 18.605469 19.054688 18.667969 19.054688 18.734375 L 19.054688 19.972656 L 18.839844 19.972656 L 18.839844 18.328125 L 19.140625 18.328125 L 19.683594 19.53125 C 19.699219 19.570312 19.710938 19.605469 19.714844 19.632812 L 19.71875 19.632812 C 19.726562 19.609375 19.738281 19.574219 19.757812 19.53125 L 20.289062 18.328125 L 20.582031 18.328125 L 20.582031 19.972656 M 22.132812 19.894531 C 22.011719 19.964844 21.855469 20 21.667969 20 C 21.4375 20 21.25 19.925781 21.109375 19.773438 C 20.96875 19.625 20.898438 19.425781 20.898438 19.179688 C 20.898438 18.921875 20.980469 18.710938 21.140625 18.546875 C 21.300781 18.382812 21.5 18.300781 21.738281 18.300781 C 21.898438 18.300781 22.03125 18.324219 22.132812 18.371094 L 22.132812 18.613281 C 22.011719 18.542969 21.878906 18.503906 21.734375 18.503906 C 21.558594 18.503906 21.410156 18.566406 21.300781 18.6875 C 21.1875 18.804688 21.132812 18.96875 21.132812 19.167969 C 21.132812 19.359375 21.183594 19.511719 21.289062 19.628906 C 21.390625 19.738281 21.527344 19.796875 21.699219 19.796875 C 21.867188 19.796875 22.011719 19.757812 22.132812 19.675781 L 22.132812 19.894531 "/>
<path style="fill-opacity:.302" d="M 13.332031 12.03125 L 18.589844 12.03125 L 18.589844 13.378906 L 13.332031 13.378906 Z "/>
</g>
</svg>
