<svg width="32" xmlns="http://www.w3.org/2000/svg" height="32" viewBox="0 0 32 32" xmlns:xlink="http://www.w3.org/1999/xlink">
<path style="fill:#909ea9" d="M 15.855469 5.332031 C 13.410156 5.332031 11.4375 7.304688 11.4375 9.75 L 11.4375 16.542969 C 11.4375 18.984375 13.410156 20.957031 15.855469 20.957031 C 18.296875 20.957031 20.269531 18.984375 20.269531 16.542969 L 20.269531 9.75 C 20.269531 7.304688 18.296875 5.332031 15.855469 5.332031 Z M 8.855469 15.980469 C 8.855469 15.980469 8.851562 23.8125 15.269531 23.792969 L 15.269531 25.25 L 13.144531 25.25 L 13.144531 26.667969 L 18.855469 26.667969 L 18.855469 25.25 L 16.707031 25.25 L 16.707031 23.792969 C 23.796875 23.332031 23.125 15.980469 23.125 15.980469 L 21.6875 15.980469 C 21.6875 15.980469 21.707031 22.394531 16 22.394531 C 10.292969 22.394531 10.292969 15.980469 10.292969 15.980469 Z "/>
</svg>
