<svg width="64" xmlns="http://www.w3.org/2000/svg" height="64" viewBox="0 0 64 64" xmlns:xlink="http://www.w3.org/1999/xlink">
<path style="fill:#909ea9" d="M 32 10.667969 C 20.21875 10.667969 10.667969 20.21875 10.667969 32 C 10.667969 43.78125 20.21875 53.332031 32 53.332031 C 43.78125 53.332031 53.332031 43.78125 53.332031 32 C 53.332031 20.21875 43.78125 10.667969 32 10.667969 Z M 32 25.332031 C 35.675781 25.332031 38.667969 28.324219 38.667969 32 C 38.667969 35.675781 35.675781 38.667969 32 38.667969 C 28.324219 38.667969 25.332031 35.675781 25.332031 32 C 25.332031 28.324219 28.324219 25.332031 32 25.332031 Z M 32 26.667969 C 29.046875 26.667969 26.667969 29.046875 26.667969 32 C 26.667969 34.953125 29.046875 37.332031 32 37.332031 C 34.953125 37.332031 37.332031 34.953125 37.332031 32 C 37.332031 29.046875 34.953125 26.667969 32 26.667969 Z M 32 28.667969 C 33.839844 28.667969 35.332031 30.160156 35.332031 32 C 35.332031 33.839844 33.839844 35.332031 32 35.332031 C 30.160156 35.332031 28.667969 33.839844 28.667969 32 C 28.667969 30.160156 30.160156 28.667969 32 28.667969 Z "/>
</svg>
