<svg width="64" xmlns="http://www.w3.org/2000/svg" height="64" viewBox="0 0 64 64" xmlns:xlink="http://www.w3.org/1999/xlink">
<defs>
<clipPath id="clip1">
<rect width="64" height="64"/>
</clipPath>
<filter width="100%" x="0" y="0" height="100%" filterUnits="objectBoundingBox" id="alpha">
<feColorMatrix values="0 0 0 0 1 0 0 0 0 1 0 0 0 0 1 0 0 0 1 0" in="SourceGraphic" type="matrix"/>
</filter>
<g style="clip-path:url(#clip1)" id="surface6">
<path style="fill:#fff" d="M 28.992188 24 L 28.992188 26.578125 L 27.851562 26.578125 L 27.851562 24.890625 C 27.667969 24.976562 27.488281 25.046875 27.316406 25.101562 C 27.144531 25.15625 26.925781 25.207031 26.667969 25.257812 L 26.667969 24.679688 C 27.050781 24.601562 27.347656 24.507812 27.5625 24.402344 C 27.773438 24.292969 27.941406 24.160156 28.058594 24 L 28.992188 24 "/>
<path style="fill:#fff" d="M 33.527344 26.578125 L 30.144531 26.578125 C 30.179688 26.371094 30.296875 26.175781 30.496094 25.992188 C 30.691406 25.804688 31.0625 25.589844 31.601562 25.339844 C 31.933594 25.183594 32.144531 25.070312 32.238281 24.988281 C 32.328125 24.910156 32.375 24.835938 32.375 24.761719 C 32.375 24.683594 32.328125 24.621094 32.238281 24.566406 C 32.144531 24.511719 32.03125 24.484375 31.894531 24.484375 C 31.75 24.484375 31.632812 24.511719 31.539062 24.566406 C 31.449219 24.625 31.386719 24.722656 31.355469 24.867188 L 30.226562 24.808594 C 30.269531 24.609375 30.351562 24.457031 30.46875 24.347656 C 30.585938 24.234375 30.753906 24.148438 30.96875 24.089844 C 31.183594 24.03125 31.480469 24 31.863281 24 C 32.257812 24 32.566406 24.027344 32.789062 24.085938 C 33.007812 24.140625 33.183594 24.226562 33.308594 24.347656 C 33.4375 24.460938 33.5 24.59375 33.5 24.738281 C 33.5 24.894531 33.425781 25.039062 33.28125 25.179688 C 33.136719 25.320312 32.875 25.476562 32.492188 25.644531 C 32.265625 25.742188 32.113281 25.8125 32.035156 25.851562 C 31.957031 25.890625 31.871094 25.941406 31.765625 26.003906 L 33.527344 26.003906 L 33.527344 26.578125 "/>
<path style="fill:#fff" d="M 34.695312 25.214844 C 34.515625 25.15625 34.386719 25.089844 34.304688 25.019531 C 34.195312 24.917969 34.140625 24.804688 34.140625 24.675781 C 34.140625 24.464844 34.300781 24.289062 34.617188 24.15625 C 34.867188 24.050781 35.199219 24 35.609375 24 C 36.152344 24 36.550781 24.066406 36.808594 24.195312 C 37.070312 24.324219 37.199219 24.484375 37.199219 24.679688 C 37.199219 24.796875 37.148438 24.902344 37.046875 25 C 36.96875 25.074219 36.847656 25.148438 36.679688 25.214844 C 36.898438 25.28125 37.0625 25.367188 37.171875 25.476562 C 37.277344 25.585938 37.332031 25.707031 37.332031 25.835938 C 37.332031 25.964844 37.285156 26.082031 37.191406 26.191406 C 37.101562 26.300781 36.984375 26.386719 36.847656 26.445312 C 36.714844 26.507812 36.546875 26.550781 36.34375 26.578125 C 36.140625 26.609375 35.925781 26.621094 35.695312 26.621094 C 35.265625 26.621094 34.9375 26.589844 34.710938 26.527344 C 34.484375 26.464844 34.3125 26.371094 34.191406 26.246094 C 34.074219 26.125 34.015625 25.984375 34.015625 25.832031 C 34.015625 25.683594 34.070312 25.558594 34.179688 25.457031 C 34.292969 25.351562 34.464844 25.273438 34.695312 25.214844 M 35.199219 24.71875 C 35.199219 24.804688 35.242188 24.875 35.332031 24.929688 C 35.417969 24.984375 35.535156 25.011719 35.683594 25.011719 C 35.8125 25.011719 35.917969 24.984375 36 24.929688 C 36.085938 24.878906 36.125 24.808594 36.125 24.722656 C 36.125 24.636719 36.082031 24.566406 35.996094 24.511719 C 35.910156 24.457031 35.796875 24.429688 35.664062 24.429688 C 35.527344 24.429688 35.414062 24.457031 35.328125 24.511719 C 35.242188 24.5625 35.199219 24.632812 35.199219 24.71875 M 35.140625 25.808594 C 35.140625 25.921875 35.195312 26.011719 35.304688 26.082031 C 35.414062 26.152344 35.535156 26.191406 35.675781 26.191406 C 35.8125 26.191406 35.933594 26.152344 36.039062 26.082031 C 36.148438 26.007812 36.199219 25.917969 36.199219 25.808594 C 36.199219 25.695312 36.144531 25.605469 36.039062 25.53125 C 35.929688 25.460938 35.804688 25.425781 35.664062 25.425781 C 35.523438 25.425781 35.398438 25.460938 35.292969 25.527344 C 35.191406 25.597656 35.140625 25.691406 35.140625 25.808594 "/>
</g>
<linearGradient gradientTransform="scale(1.33333)" id="linear0" y1="42" y2="9" gradientUnits="userSpaceOnUse" x2="0">
<stop offset="0" style="stop-color:#aa1e1e"/>
<stop offset="1" style="stop-color:#e35c5c"/>
</linearGradient>
<mask id="mask0">
<g style="filter:url(#alpha)">
<rect width="64" x="0" y="0" height="64" style="fill:#000;fill-opacity:.51"/>
</g>
</mask>
<radialGradient cx="10.388" cy="11.314" gradientTransform="matrix(2.3433 .18294 -.12394 1.5875 -12.552 -10.696)" id="radial2" r="17.094" gradientUnits="userSpaceOnUse">
<stop offset="0" style="stop-color:#fff;stop-opacity:.2"/>
<stop offset="1" style="stop-color:#fff;stop-opacity:0"/>
</radialGradient>
<radialGradient cx="15.047" cy="18.977" gradientTransform="matrix(2.9507 .0686 -.02067 .88929 -29.188 1.2014)" id="radial1" r="18.094" gradientUnits="userSpaceOnUse">
<stop offset="0" style="stop-color:#4f4f4f"/>
<stop offset="1" style="stop-color:#1e1e1e"/>
</radialGradient>
<radialGradient cx="24.218" cy="45.26" gradientTransform="matrix(1.37133 0 0 .21817 -1.21212 48.12533)" id="radial0" r="21.39" gradientUnits="userSpaceOnUse">
<stop offset="0" style="stop-color:#000;stop-opacity:.529"/>
<stop offset="1" style="stop-color:#000;stop-opacity:0"/>
</radialGradient>
</defs>
<g style="fill-rule:evenodd">
<path style="fill:url(#radial0)" d="M 61.332031 58 C 61.332031 60.578125 48.199219 62.667969 32 62.667969 C 15.800781 62.667969 2.667969 60.578125 2.667969 58 C 2.667969 55.421875 15.800781 53.332031 32 53.332031 C 48.199219 53.332031 61.332031 55.421875 61.332031 58 Z "/>
<path style="fill:url(#radial1);stroke:#131313" d="M 8.000977 3.524414 C 7.30957 3.524414 6.541992 4.30957 6.541992 5.000977 L 6.530273 13.505859 L 7.538086 13.505859 L 7.444336 25.505859 L 6.46582 25.529297 L 6.401367 42.999023 C 6.401367 43.728516 7.271484 44.490234 8.000977 44.490234 L 39.999023 44.490234 C 40.705078 44.490234 41.501953 43.705078 41.504883 42.999023 L 41.53418 18.509766 L 40.5 18.509766 L 40.5 14.578125 L 41.563477 14.548828 L 41.589844 8.466797 C 41.589844 7.936523 41.15918 7.473633 41.15918 7.473633 L 38.106445 3.955078 C 37.857422 3.706055 37.625977 3.547852 36.969727 3.518555 L 8.000977 3.521484 Z " transform="scale(1.33333)"/>
</g>
<path style="fill:none;stroke:url(#radial2)" d="M 8.000977 4.532227 C 8.027344 4.532227 7.854492 4.582031 7.719727 4.719727 C 7.582031 4.854492 7.532227 5.027344 7.532227 5.000977 L 7.532227 12.500977 C 8.083008 12.500977 8.53125 12.946289 8.53125 13.5 L 8.4375 25.5 C 8.4375 26.039062 8.009766 26.484375 7.467773 26.499023 L 7.40625 42.999023 C 7.40625 42.966797 7.435547 43.136719 7.59375 43.280273 C 7.751953 43.426758 7.989258 43.5 8.000977 43.5 L 39.999023 43.5 C 39.978516 43.5 40.171875 43.453125 40.3125 43.3125 C 40.456055 43.171875 40.5 42.978516 40.5 43.001953 L 40.532227 19.5 L 40.5 19.5 C 39.949219 19.5 39.500977 19.051758 39.500977 18.500977 L 39.500977 14.595703 C 39.500977 14.053711 39.928711 13.611328 40.470703 13.59375 L 40.564453 13.59375 L 40.59375 8.469727 C 40.59375 8.487305 40.438477 8.15625 40.438477 8.15625 C 40.426758 8.147461 40.417969 8.135742 40.40625 8.126953 L 37.374023 4.6875 C 37.207031 4.520508 37.274414 4.538086 36.969727 4.532227 C 36.928711 4.532227 36.966797 4.535156 36.905273 4.532227 Z " transform="scale(1.33333)"/>
<path style="fill:url(#linear0)" d="M 14.667969 12 L 49.332031 12 L 49.332031 56 L 14.667969 56 Z "/>
<path style="fill:#282828" d="M 24 12 L 40 12 L 40 28 L 24 28 Z "/>
<path style="fill:#131313;fill-opacity:.2" d="M 14.667969 12 L 49.332031 12 L 49.332031 21.332031 L 14.667969 21.332031 Z "/>
<use style="mask:url(#mask0)" xlink:href="#surface6"/>
<g style="fill:#fff">
<path d="M 33.378906 43.632812 C 33.074219 43.347656 32.6875 43.125 32.210938 42.960938 C 31.734375 42.800781 31.28125 42.71875 30.847656 42.71875 C 30.296875 42.71875 29.855469 42.847656 29.53125 43.105469 C 29.207031 43.363281 29.042969 43.703125 29.042969 44.128906 C 29.042969 44.582031 29.167969 44.953125 29.421875 45.238281 C 29.671875 45.515625 30.214844 45.871094 31.050781 46.296875 C 32.160156 46.867188 32.925781 47.386719 33.34375 47.859375 C 33.769531 48.328125 33.980469 48.949219 33.980469 49.722656 C 33.980469 50.78125 33.589844 51.648438 32.804688 52.324219 C 32.027344 52.996094 30.949219 53.332031 29.570312 53.332031 C 29.101562 53.332031 28.59375 53.261719 28.050781 53.125 C 27.515625 52.988281 27.085938 52.820312 26.765625 52.613281 L 26.765625 50.183594 C 27.148438 50.566406 27.597656 50.863281 28.117188 51.082031 C 28.644531 51.296875 29.128906 51.402344 29.570312 51.402344 C 30.210938 51.402344 30.6875 51.277344 31.007812 51.03125 C 31.328125 50.785156 31.488281 50.417969 31.488281 49.925781 C 31.488281 49.53125 31.328125 49.207031 31.007812 48.949219 C 30.6875 48.6875 30.113281 48.335938 29.277344 47.902344 C 28.382812 47.414062 27.722656 46.921875 27.296875 46.429688 C 26.875 45.933594 26.667969 45.230469 26.667969 44.320312 C 26.667969 43.285156 27.046875 42.4375 27.808594 41.777344 C 28.570312 41.109375 29.5625 40.777344 30.78125 40.777344 C 31.835938 40.777344 32.699219 40.925781 33.375 41.222656 L 33.375 43.632812 M 36.089844 41.046875 L 40.304688 41.046875 C 42.34375 41.046875 43.871094 41.535156 44.890625 42.515625 C 45.914062 43.496094 46.429688 44.960938 46.429688 46.917969 C 46.429688 48.804688 45.851562 50.304688 44.699219 51.417969 C 43.550781 52.53125 41.992188 53.089844 40.027344 53.089844 L 36.089844 53.089844 L 36.089844 41.046875 M 38.433594 51.234375 L 39.976562 51.234375 C 41.242188 51.234375 42.238281 50.855469 42.960938 50.101562 C 43.6875 49.34375 44.050781 48.3125 44.050781 47 C 44.050781 45.730469 43.699219 44.742188 42.992188 44.035156 C 42.289062 43.332031 41.304688 42.976562 40.046875 42.976562 L 38.433594 42.976562 L 38.433594 51.234375 "/>
<path d="M 36.816406 39.941406 L 36.367188 39.941406 L 36.367188 37.433594 C 36.367188 37.398438 36.378906 37.28125 36.402344 37.09375 L 36.390625 37.09375 C 36.359375 37.242188 36.332031 37.351562 36.300781 37.417969 L 35.179688 39.941406 L 34.960938 39.941406 L 33.839844 37.441406 C 33.8125 37.382812 33.78125 37.269531 33.746094 37.09375 L 33.738281 37.09375 C 33.75 37.210938 33.757812 37.335938 33.757812 37.46875 L 33.757812 39.941406 L 33.332031 39.941406 L 33.332031 36.660156 L 33.929688 36.660156 L 35.019531 39.066406 C 35.050781 39.144531 35.070312 39.210938 35.078125 39.261719 L 35.089844 39.261719 C 35.101562 39.214844 35.128906 39.148438 35.167969 39.0625 L 36.230469 36.660156 L 36.816406 36.660156 L 36.816406 39.941406 M 41.167969 39.941406 L 40.71875 39.941406 L 40.71875 37.433594 C 40.71875 37.398438 40.730469 37.28125 40.75 37.09375 L 40.742188 37.09375 C 40.710938 37.242188 40.679688 37.351562 40.652344 37.417969 L 39.53125 39.941406 L 39.308594 39.941406 L 38.191406 37.441406 C 38.164062 37.382812 38.132812 37.269531 38.097656 37.09375 L 38.085938 37.09375 C 38.101562 37.210938 38.105469 37.335938 38.105469 37.46875 L 38.105469 39.941406 L 37.683594 39.941406 L 37.683594 36.660156 L 38.28125 36.660156 L 39.367188 39.066406 C 39.398438 39.144531 39.417969 39.210938 39.425781 39.261719 L 39.441406 39.261719 C 39.453125 39.214844 39.476562 39.148438 39.515625 39.0625 L 40.582031 36.660156 L 41.167969 36.660156 L 41.167969 39.941406 M 44.269531 39.792969 C 44.019531 39.929688 43.710938 40 43.335938 40 C 42.871094 40 42.5 39.847656 42.21875 39.546875 C 41.9375 39.246094 41.796875 38.851562 41.796875 38.359375 C 41.796875 37.839844 41.957031 37.417969 42.28125 37.09375 C 42.601562 36.765625 43 36.601562 43.476562 36.601562 C 43.796875 36.601562 44.0625 36.648438 44.269531 36.742188 L 44.269531 37.226562 C 44.027344 37.082031 43.761719 37.011719 43.472656 37.011719 C 43.113281 37.011719 42.824219 37.132812 42.601562 37.371094 C 42.375 37.613281 42.261719 37.933594 42.261719 38.339844 C 42.261719 38.722656 42.367188 39.027344 42.574219 39.253906 C 42.78125 39.480469 43.058594 39.59375 43.402344 39.59375 C 43.734375 39.59375 44.023438 39.511719 44.269531 39.355469 L 44.269531 39.789062 "/>
<path style="fill-opacity:.302" d="M 26.667969 24.0625 L 37.179688 24.0625 L 37.179688 26.757812 L 26.667969 26.757812 Z "/>
</g>
</svg>
