<svg width="64" xmlns="http://www.w3.org/2000/svg" height="64" viewBox="0 0 64 64" xmlns:xlink="http://www.w3.org/1999/xlink">
<path style="fill:#909ea9" d="M 10.667969 10.667969 L 10.667969 53.332031 L 53.332031 53.332031 L 53.332031 16 L 48 10.667969 Z M 13.332031 13.332031 L 25.332031 13.332031 L 25.332031 21.332031 L 45.332031 21.332031 L 45.332031 13.332031 L 46.667969 13.332031 L 50.667969 17.332031 L 50.667969 50.667969 L 48 50.667969 L 48 25.332031 L 16 25.332031 L 16 50.667969 L 13.332031 50.667969 Z M 38.667969 13.332031 L 42.667969 13.332031 L 42.667969 20 L 38.667969 20 Z M 17.332031 33.332031 L 46.667969 33.332031 L 46.667969 34.667969 L 17.332031 34.667969 Z M 17.332031 42.667969 L 46.667969 42.667969 L 46.667969 44 L 17.332031 44 Z "/>
</svg>
