<svg width="64" xmlns="http://www.w3.org/2000/svg" height="64" viewBox="0 0 64 64" xmlns:xlink="http://www.w3.org/1999/xlink">
<path style="fill:#909ea9" d="M 31.707031 10.667969 C 26.820312 10.667969 22.875 14.609375 22.875 19.5 L 22.875 33.082031 C 22.875 37.972656 26.820312 41.917969 31.707031 41.917969 C 36.597656 41.917969 40.542969 37.972656 40.542969 33.082031 L 40.542969 19.5 C 40.542969 14.609375 36.597656 10.667969 31.707031 10.667969 Z M 17.707031 31.957031 C 17.707031 31.957031 17.703125 47.628906 30.542969 47.582031 L 30.542969 50.5 L 26.292969 50.5 L 26.292969 53.332031 L 37.707031 53.332031 L 37.707031 50.5 L 33.417969 50.5 L 33.417969 47.582031 C 47.597656 46.664062 46.25 31.957031 46.25 31.957031 L 43.375 31.957031 C 43.375 31.957031 43.410156 44.792969 32 44.792969 C 20.589844 44.792969 20.582031 31.957031 20.582031 31.957031 Z "/>
</svg>
