<svg width="256" xmlns="http://www.w3.org/2000/svg" height="256" viewBox="0 0 256 256" xmlns:xlink="http://www.w3.org/1999/xlink">
<path style="fill:#909ea9" d="M 42.667969 42.667969 L 42.667969 213.332031 L 213.332031 213.332031 L 213.332031 64 L 192 42.667969 Z M 53.332031 53.332031 L 101.332031 53.332031 L 101.332031 85.332031 L 181.332031 85.332031 L 181.332031 53.332031 L 186.667969 53.332031 L 202.667969 69.332031 L 202.667969 202.667969 L 192 202.667969 L 192 101.332031 L 64 101.332031 L 64 202.667969 L 53.332031 202.667969 Z M 154.667969 53.332031 L 170.667969 53.332031 L 170.667969 80 L 154.667969 80 Z M 69.332031 133.332031 L 186.667969 133.332031 L 186.667969 138.667969 L 69.332031 138.667969 Z M 69.332031 170.667969 L 186.667969 170.667969 L 186.667969 176 L 69.332031 176 Z "/>
</svg>
