<svg width="256" xmlns="http://www.w3.org/2000/svg" height="256" viewBox="0 0 256 256" xmlns:xlink="http://www.w3.org/1999/xlink">
<defs>
<clipPath id="clip1">
<rect width="256" height="256"/>
</clipPath>
<filter width="100%" x="0" y="0" height="100%" filterUnits="objectBoundingBox" id="alpha">
<feColorMatrix values="0 0 0 0 1 0 0 0 0 1 0 0 0 0 1 0 0 0 1 0" in="SourceGraphic" type="matrix"/>
</filter>
<g style="clip-path:url(#clip1)" id="surface6">
<path style="fill:#fff" d="M 115.976562 96 L 115.976562 106.3125 L 111.410156 106.3125 L 111.410156 99.554688 C 110.671875 99.90625 109.957031 100.1875 109.261719 100.40625 C 108.574219 100.621094 107.710938 100.832031 106.667969 101.027344 L 106.667969 98.71875 C 108.203125 98.410156 109.398438 98.039062 110.246094 97.605469 C 111.097656 97.171875 111.761719 96.636719 112.242188 96 L 115.976562 96 "/>
<path style="fill:#fff" d="M 134.109375 106.316406 L 120.570312 106.316406 C 120.726562 105.480469 121.195312 104.695312 121.976562 103.960938 C 122.769531 103.226562 124.246094 102.355469 126.410156 101.355469 C 127.730469 100.742188 128.578125 100.277344 128.945312 99.957031 C 129.316406 99.640625 129.5 99.335938 129.5 99.050781 C 129.5 98.742188 129.316406 98.480469 128.945312 98.261719 C 128.585938 98.039062 128.125 97.929688 127.574219 97.929688 C 126.996094 97.929688 126.523438 98.042969 126.15625 98.269531 C 125.792969 98.496094 125.550781 98.894531 125.421875 99.464844 L 120.902344 99.238281 C 121.082031 98.445312 121.40625 97.828125 121.878906 97.382812 C 122.351562 96.9375 123.015625 96.59375 123.871094 96.359375 C 124.738281 96.121094 125.929688 96 127.449219 96 C 129.039062 96 130.273438 96.113281 131.152344 96.339844 C 132.039062 96.566406 132.730469 96.914062 133.234375 97.382812 C 133.742188 97.847656 134 98.371094 134 98.953125 C 134 99.570312 133.707031 100.164062 133.125 100.726562 C 132.546875 101.289062 131.496094 101.90625 129.964844 102.578125 C 129.058594 102.972656 128.449219 103.246094 128.136719 103.402344 C 127.835938 103.558594 127.476562 103.765625 127.0625 104.019531 L 134.109375 104.019531 L 134.109375 106.316406 "/>
<path style="fill:#fff" d="M 138.773438 100.863281 C 138.066406 100.628906 137.550781 100.363281 137.222656 100.074219 C 136.78125 99.675781 136.558594 99.222656 136.558594 98.703125 C 136.558594 97.855469 137.199219 97.160156 138.476562 96.621094 C 139.472656 96.207031 140.792969 96 142.429688 96 C 144.601562 96 146.207031 96.257812 147.238281 96.773438 C 148.28125 97.289062 148.800781 97.941406 148.800781 98.726562 C 148.800781 99.183594 148.59375 99.609375 148.183594 100.003906 C 147.871094 100.300781 147.382812 100.585938 146.71875 100.863281 C 147.597656 101.125 148.25 101.472656 148.679688 101.90625 C 149.117188 102.339844 149.335938 102.820312 149.335938 103.347656 C 149.332031 103.855469 149.144531 104.328125 148.769531 104.773438 C 148.398438 105.210938 147.941406 105.550781 147.394531 105.789062 C 146.855469 106.027344 146.179688 106.203125 145.367188 106.3125 C 144.5625 106.429688 143.703125 106.488281 142.785156 106.488281 C 141.066406 106.488281 139.75 106.359375 138.84375 106.105469 C 137.933594 105.851562 137.242188 105.480469 136.769531 104.984375 C 136.296875 104.492188 136.0625 103.941406 136.0625 103.332031 C 136.0625 102.738281 136.28125 102.234375 136.726562 101.824219 C 137.167969 101.410156 137.851562 101.089844 138.773438 100.863281 M 140.804688 98.871094 C 140.804688 99.222656 140.976562 99.503906 141.324219 99.722656 C 141.679688 99.933594 142.148438 100.039062 142.730469 100.039062 C 143.246094 100.039062 143.671875 99.933594 144.003906 99.722656 C 144.335938 99.507812 144.503906 99.234375 144.503906 98.898438 C 144.503906 98.546875 144.328125 98.265625 143.984375 98.046875 C 143.636719 97.824219 143.191406 97.714844 142.652344 97.714844 C 142.105469 97.714844 141.660156 97.824219 141.3125 98.039062 C 140.972656 98.253906 140.804688 98.527344 140.804688 98.871094 M 140.558594 103.234375 C 140.558594 103.683594 140.777344 104.050781 141.210938 104.335938 C 141.648438 104.617188 142.148438 104.757812 142.707031 104.757812 C 143.246094 104.757812 143.730469 104.613281 144.160156 104.328125 C 144.589844 104.039062 144.800781 103.671875 144.800781 103.230469 C 144.800781 102.78125 144.585938 102.414062 144.148438 102.128906 C 143.71875 101.84375 143.222656 101.699219 142.652344 101.699219 C 142.089844 101.699219 141.601562 101.839844 141.179688 102.113281 C 140.765625 102.390625 140.558594 102.765625 140.558594 103.234375 "/>
</g>
<linearGradient gradientTransform="scale(5.33333)" id="linear0" y1="42" y2="9" gradientUnits="userSpaceOnUse" x2="0">
<stop offset="0" style="stop-color:#aa1e1e"/>
<stop offset="1" style="stop-color:#e35c5c"/>
</linearGradient>
<mask id="mask0">
<g style="filter:url(#alpha)">
<rect width="256" x="0" y="0" height="256" style="fill:#000;fill-opacity:.51"/>
</g>
</mask>
<radialGradient cx="10.388" cy="11.314" gradientTransform="matrix(2.3433 .18294 -.12394 1.5875 -12.552 -10.696)" id="radial2" r="17.094" gradientUnits="userSpaceOnUse">
<stop offset="0" style="stop-color:#fff;stop-opacity:.2"/>
<stop offset="1" style="stop-color:#fff;stop-opacity:0"/>
</radialGradient>
<radialGradient cx="15.047" cy="18.977" gradientTransform="matrix(2.9507 .0686 -.02067 .88929 -29.188 1.2014)" id="radial1" r="18.094" gradientUnits="userSpaceOnUse">
<stop offset="0" style="stop-color:#4f4f4f"/>
<stop offset="1" style="stop-color:#1e1e1e"/>
</radialGradient>
<radialGradient cx="24.218" cy="45.26" gradientTransform="matrix(5.48533 0 0 .87269 -4.84848 192.50133)" id="radial0" r="21.39" gradientUnits="userSpaceOnUse">
<stop offset="0" style="stop-color:#000;stop-opacity:.529"/>
<stop offset="1" style="stop-color:#000;stop-opacity:0"/>
</radialGradient>
</defs>
<g style="fill-rule:evenodd">
<path style="fill:url(#radial0)" d="M 245.332031 232 C 245.332031 242.308594 192.800781 250.667969 128 250.667969 C 63.199219 250.667969 10.667969 242.308594 10.667969 232 C 10.667969 221.691406 63.199219 213.332031 128 213.332031 C 192.800781 213.332031 245.332031 221.691406 245.332031 232 Z "/>
<path style="fill:url(#radial1);stroke:#131313" d="M 8.000244 3.523682 C 7.308105 3.523682 6.542725 4.308105 6.541992 5.000244 L 6.531006 13.507324 L 7.538818 13.507324 L 7.445068 25.505859 L 6.465088 25.528564 L 6.402832 42.999756 C 6.399902 43.728516 7.271484 44.491699 8.000244 44.491699 L 39.999756 44.491699 C 40.706543 44.491699 41.502686 43.705078 41.50415 42.999023 L 41.534912 18.509033 L 40.5 18.509033 L 40.5 14.577393 L 41.564209 14.548828 L 41.591309 8.467529 C 41.591309 7.935791 41.158447 7.475098 41.158447 7.475098 L 38.106445 3.955078 C 37.856689 3.70459 37.625244 3.548584 36.968262 3.51709 L 8.000244 3.522949 Z " transform="scale(5.33333)"/>
</g>
<path style="fill:none;stroke:url(#radial2)" d="M 8.000244 4.531494 C 8.028809 4.531494 7.854492 4.583496 7.718994 4.718994 C 7.583496 4.854492 7.531494 5.028076 7.531494 5.000244 L 7.531494 12.500244 C 8.08374 12.500244 8.53125 12.947754 8.53125 13.5 L 8.4375 25.5 C 8.4375 26.040527 8.009033 26.48291 7.468506 26.499756 L 7.40625 42.999756 C 7.40625 42.966064 7.437012 43.136719 7.59375 43.281006 C 7.750488 43.426025 7.988525 43.5 8.000244 43.5 L 39.999756 43.5 C 39.978516 43.5 40.171143 43.45459 40.3125 43.3125 C 40.45459 43.171875 40.500732 42.97998 40.500732 43.000488 L 40.531494 19.500732 L 40.500732 19.500732 C 39.948486 19.500732 39.500977 19.053223 39.500244 18.500977 L 39.500244 14.594238 C 39.500244 14.054443 39.929443 13.611328 40.469238 13.594482 L 40.562988 13.594482 L 40.594482 8.469727 C 40.594482 8.487305 40.437744 8.156982 40.437744 8.156982 C 40.42749 8.146729 40.416504 8.136475 40.40625 8.125488 L 37.374756 4.688232 C 37.207031 4.519775 37.274414 4.538086 36.968994 4.531494 C 36.927246 4.530762 36.967529 4.534424 36.906738 4.531494 Z " transform="scale(5.33333)"/>
<path style="fill:url(#linear0)" d="M 58.667969 48 L 197.332031 48 L 197.332031 224 L 58.667969 224 Z "/>
<path style="fill:#282828" d="M 96 48 L 160 48 L 160 112 L 96 112 Z "/>
<path style="fill:#131313;fill-opacity:.2" d="M 58.667969 48 L 197.332031 48 L 197.332031 85.332031 L 58.667969 85.332031 Z "/>
<use style="mask:url(#mask0)" xlink:href="#surface6"/>
<g style="fill:#fff">
<path d="M 133.507812 174.535156 C 132.300781 173.390625 130.742188 172.496094 128.839844 171.847656 C 126.9375 171.195312 125.121094 170.871094 123.398438 170.871094 C 121.179688 170.871094 119.421875 171.386719 118.125 172.417969 C 116.824219 173.445312 116.175781 174.8125 116.175781 176.515625 C 116.175781 178.328125 116.679688 179.808594 117.6875 180.949219 C 118.695312 182.070312 120.867188 183.480469 124.203125 185.183594 C 128.636719 187.46875 131.695312 189.550781 133.375 191.429688 C 135.078125 193.3125 135.929688 195.796875 135.929688 198.886719 C 135.929688 203.121094 134.359375 206.59375 131.226562 209.300781 C 128.109375 211.992188 123.796875 213.335938 118.285156 213.335938 C 116.40625 213.335938 114.378906 213.054688 112.207031 212.496094 C 110.054688 211.957031 108.34375 211.273438 107.066406 210.445312 L 107.066406 200.738281 C 108.589844 202.261719 110.390625 203.457031 112.476562 204.332031 C 114.582031 205.183594 116.515625 205.609375 118.285156 205.609375 C 120.839844 205.609375 122.753906 205.117188 124.03125 204.128906 C 125.308594 203.144531 125.945312 201.667969 125.945312 199.695312 C 125.945312 198.128906 125.308594 196.828125 124.03125 195.800781 C 122.757812 194.75 120.453125 193.34375 117.113281 191.601562 C 113.53125 189.648438 110.890625 187.691406 109.183594 185.71875 C 107.503906 183.730469 106.664062 180.917969 106.664062 177.285156 C 106.664062 173.144531 108.1875 169.75 111.234375 167.109375 C 114.28125 164.441406 118.246094 163.109375 123.125 163.109375 C 127.335938 163.109375 130.796875 163.703125 133.507812 164.890625 L 133.507812 174.53125 M 144.359375 164.183594 L 161.222656 164.183594 C 169.375 164.183594 175.488281 166.144531 179.5625 170.0625 C 183.660156 173.984375 185.710938 179.851562 185.710938 187.667969 C 185.710938 195.214844 183.40625 201.214844 178.792969 205.671875 C 174.199219 210.128906 167.972656 212.359375 160.113281 212.359375 L 144.359375 212.359375 L 144.359375 164.183594 M 153.730469 204.933594 L 159.914062 204.933594 C 164.972656 204.933594 168.949219 203.421875 171.839844 200.398438 C 174.75 197.375 176.207031 193.242188 176.207031 188.003906 C 176.207031 182.917969 174.792969 178.964844 171.972656 176.144531 C 169.152344 173.324219 165.21875 171.910156 160.179688 171.910156 L 153.730469 171.910156 L 153.730469 204.933594 "/>
<path d="M 147.269531 159.769531 L 145.472656 159.769531 L 145.472656 149.734375 C 145.472656 149.585938 145.515625 149.132812 145.601562 148.371094 L 145.566406 148.371094 C 145.445312 148.972656 145.324219 149.410156 145.207031 149.679688 L 140.722656 159.769531 L 139.84375 159.769531 L 135.363281 149.769531 C 135.253906 149.539062 135.128906 149.070312 134.988281 148.371094 L 134.953125 148.371094 C 135 148.847656 135.027344 149.347656 135.027344 149.871094 L 135.027344 159.769531 L 133.332031 159.769531 L 133.332031 146.640625 L 135.722656 146.640625 L 140.070312 156.261719 C 140.199219 156.574219 140.277344 156.835938 140.308594 157.050781 L 140.363281 157.050781 C 140.414062 156.863281 140.515625 156.59375 140.667969 156.246094 L 144.925781 146.636719 L 147.269531 146.636719 L 147.269531 159.769531 M 164.667969 159.769531 L 162.871094 159.769531 L 162.871094 149.734375 C 162.871094 149.585938 162.914062 149.132812 163 148.367188 L 162.964844 148.367188 C 162.84375 148.972656 162.722656 149.410156 162.605469 149.679688 L 158.121094 159.769531 L 157.242188 159.769531 L 152.761719 149.769531 C 152.652344 149.539062 152.527344 149.070312 152.386719 148.371094 L 152.351562 148.371094 C 152.398438 148.84375 152.425781 149.347656 152.425781 149.871094 L 152.425781 159.769531 L 150.730469 159.769531 L 150.730469 146.636719 L 153.121094 146.636719 L 157.46875 156.261719 C 157.597656 156.574219 157.675781 156.835938 157.707031 157.050781 L 157.761719 157.050781 C 157.8125 156.863281 157.914062 156.59375 158.066406 156.246094 L 162.324219 146.636719 L 164.667969 146.636719 L 164.667969 159.769531 M 177.074219 159.164062 C 176.078125 159.714844 174.835938 159.992188 173.347656 159.992188 C 171.484375 159.992188 169.992188 159.390625 168.871094 158.1875 C 167.753906 156.984375 167.195312 155.40625 167.195312 153.445312 C 167.195312 151.363281 167.835938 149.671875 169.117188 148.371094 C 170.40625 147.066406 172.003906 146.410156 173.90625 146.410156 C 175.195312 146.410156 176.25 146.597656 177.074219 146.96875 L 177.074219 148.902344 C 176.105469 148.328125 175.042969 148.042969 173.886719 148.042969 C 172.460938 148.042969 171.296875 148.523438 170.398438 149.488281 C 169.503906 150.445312 169.054688 151.734375 169.054688 153.351562 C 169.054688 154.886719 169.46875 156.105469 170.296875 157.015625 C 171.128906 157.917969 172.230469 158.371094 173.605469 158.371094 C 174.933594 158.371094 176.09375 158.054688 177.074219 157.417969 L 177.074219 159.160156 "/>
<path style="fill-opacity:.302" d="M 106.667969 96.257812 L 148.71875 96.257812 L 148.71875 107.023438 L 106.667969 107.023438 Z "/>
</g>
</svg>
