<svg width="256" xmlns="http://www.w3.org/2000/svg" height="256" viewBox="0 0 256 256" xmlns:xlink="http://www.w3.org/1999/xlink">
<path style="fill:#909ea9" d="M 128 42.667969 C 80.871094 42.667969 42.667969 80.871094 42.667969 128 C 42.667969 175.128906 80.871094 213.332031 128 213.332031 C 175.128906 213.332031 213.332031 175.128906 213.332031 128 C 213.332031 80.871094 175.128906 42.667969 128 42.667969 Z M 128 101.332031 C 142.695312 101.332031 154.667969 113.304688 154.667969 128 C 154.667969 142.695312 142.695312 154.667969 128 154.667969 C 113.304688 154.667969 101.332031 142.695312 101.332031 128 C 101.332031 113.304688 113.304688 101.332031 128 101.332031 Z M 128 106.667969 C 116.1875 106.667969 106.667969 116.1875 106.667969 128 C 106.667969 139.8125 116.1875 149.332031 128 149.332031 C 139.8125 149.332031 149.332031 139.8125 149.332031 128 C 149.332031 116.1875 139.8125 106.667969 128 106.667969 Z M 128 114.667969 C 135.363281 114.667969 141.332031 120.636719 141.332031 128 C 141.332031 135.363281 135.363281 141.332031 128 141.332031 C 120.636719 141.332031 114.667969 135.363281 114.667969 128 C 114.667969 120.636719 120.636719 114.667969 128 114.667969 Z "/>
</svg>
