<svg width="256" xmlns="http://www.w3.org/2000/svg" height="256" viewBox="0 0 256 256" xmlns:xlink="http://www.w3.org/1999/xlink">
<path style="fill:#909ea9" d="M 126.832031 42.667969 C 107.277344 42.667969 91.5 58.441406 91.5 78 L 91.5 132.332031 C 91.5 151.890625 107.277344 167.667969 126.832031 167.667969 C 146.390625 167.667969 162.167969 151.890625 162.167969 132.332031 L 162.167969 78 C 162.167969 58.441406 146.390625 42.667969 126.832031 42.667969 Z M 70.832031 127.832031 C 70.832031 127.832031 70.820312 190.511719 122.167969 190.332031 L 122.167969 202 L 105.167969 202 L 105.167969 213.332031 L 150.832031 213.332031 L 150.832031 202 L 133.667969 202 L 133.667969 190.332031 C 190.386719 186.652344 185 127.832031 185 127.832031 L 173.5 127.832031 C 173.5 127.832031 173.640625 179.167969 128 179.167969 C 82.359375 179.167969 82.332031 127.832031 82.332031 127.832031 Z "/>
</svg>
