<svg width="64" xmlns="http://www.w3.org/2000/svg" height="64" viewBox="0 0 64 64" xmlns:xlink="http://www.w3.org/1999/xlink">
<path style="fill:#268bd2;fill-rule:evenodd" d="M 16.445312 0 L 47.554688 0 C 56.890625 0 60 3.199219 60 12.800781 L 60 51.199219 C 60 60.800781 56.890625 64 47.554688 64 L 16.445312 64 C 7.109375 64 4 60.800781 4 51.199219 L 4 12.800781 C 4 3.199219 7.109375 0 16.445312 0 Z "/>
<g style="fill:#fff">
<path style="fill-rule:evenodd;fill-opacity:.302" d="M 16.445312 0 L 47.554688 0 C 56.890625 0 60 3.199219 60 12.800781 L 60 38.398438 C 60 48 56.890625 51.199219 47.554688 51.199219 L 16.445312 51.199219 C 7.109375 51.199219 4 48 4 38.398438 L 4 12.800781 C 4 3.199219 7.109375 0 16.445312 0 Z "/>
<path style="fill-opacity:.902" d="M 50 28 L 32 48 L 14 28 L 24 28 L 24 8 L 40 8 L 40 28 Z "/>
</g>
</svg>
