<svg width="64" xmlns="http://www.w3.org/2000/svg" height="64" viewBox="0 0 64 64" xmlns:xlink="http://www.w3.org/1999/xlink">
<g style="fill-rule:evenodd">
<path style="fill:#fff" d="M 6.855469 0 L 41.144531 0 C 48 0 48 0 48 7.109375 L 48 56.890625 C 48 64 48 64 41.144531 64 L 6.855469 64 C 0 64 0 64 0 56.890625 L 0 7.109375 C 0 0 0 0 6.855469 0 Z "/>
<path style="fill:#268bd2" d="M 37.5 53.5 C 38.0625 53.5 38.875 53 39.875 52 L 59.875 36 C 63.890625 31.984375 63.875 32 59.875 28 L 39.875 12 C 36.875 9 36.0625 10.5 35.875 16.5 C 35.8125 18.5 35.875 21 35.875 24 C 35.835938 24 35.792969 24 35.75 24 C 15.875 24 7.875 36 8 52.125 C 15.875 44 23.875 40 35.875 40.25 C 35.871094 43.117188 35.816406 45.566406 35.875 47.5 C 36 51.5 36.375 53.5 37.5 53.5 Z "/>
</g>
</svg>
