<?xml version="1.0" encoding="UTF-8" standalone="no"?>
<svg
   xmlns:dc="http://purl.org/dc/elements/1.1/"
   xmlns:cc="http://creativecommons.org/ns#"
   xmlns:rdf="http://www.w3.org/1999/02/22-rdf-syntax-ns#"
   xmlns:svg="http://www.w3.org/2000/svg"
   xmlns="http://www.w3.org/2000/svg"
   xmlns:sodipodi="http://sodipodi.sourceforge.net/DTD/sodipodi-0.dtd"
   xmlns:inkscape="http://www.inkscape.org/namespaces/inkscape"
   width="64"
   height="64"
   viewBox="0 0 64 64"
   id="svg2"
   version="1.1"
   inkscape:version="0.91 r"
   sodipodi:docname="gtk-edit.svg">
  <metadata
     id="metadata16">
    <rdf:RDF>
      <cc:Work
         rdf:about="">
        <dc:format>image/svg+xml</dc:format>
        <dc:type
           rdf:resource="http://purl.org/dc/dcmitype/StillImage" />
        <dc:title></dc:title>
      </cc:Work>
    </rdf:RDF>
  </metadata>
  <defs
     id="defs14">
    <clipPath
       id="clip1">
      <path
         id="path4225"
         d="m 17,10 14,0 0,20 -14,0 m 0,-20"
         inkscape:connector-curvature="0" />
    </clipPath>
    <clipPath
       id="clip2">
      <path
         id="path4228"
         d="m 41.895,19.992 c 0,10.582 -8.02,19.16 -17.895,19.16 -9.875,0 -17.891,-8.574 -17.891,-19.16 0,-10.586 8.02,-19.16 17.891,-19.16 9.879,0 17.895,8.574 17.895,19.16 m 0,0"
         inkscape:connector-curvature="0" />
    </clipPath>
  </defs>
  <sodipodi:namedview
     pagecolor="#ffffff"
     bordercolor="#666666"
     borderopacity="1"
     objecttolerance="10"
     gridtolerance="10"
     guidetolerance="10"
     inkscape:pageopacity="0"
     inkscape:pageshadow="2"
     inkscape:window-width="1366"
     inkscape:window-height="747"
     id="namedview12"
     showgrid="true"
     inkscape:zoom="19.666667"
     inkscape:cx="40.926887"
     inkscape:cy="2.201155"
     inkscape:window-x="0"
     inkscape:window-y="21"
     inkscape:window-maximized="1"
     inkscape:current-layer="svg2"
     showguides="false">
    <inkscape:grid
       type="xygrid"
       id="grid4144" />
  </sodipodi:namedview>
  <path
     id="path4152"
     d="m 10.466334,0 30.066791,0 c 7.466667,0 7.466667,0 7.466667,7.200879 l 0,43.598682 c 0,7.200878 0,7.200878 -7.466667,7.200878 l -30.066791,0 c -7.4666675,0 -7.4666675,0 -7.4666675,-7.200878 l 0,-43.598682 C 2.9996665,0 2.9996665,0 10.466334,0 Z"
     style="fill:#ffffff;fill-opacity:1;fill-rule:evenodd"
     inkscape:connector-curvature="0"
     sodipodi:nodetypes="sssssssss" />
  <g
     style="fill:#888888"
     id="g4154"
     transform="matrix(1.8666667,0,0,1.8002197,-30.400208,-21.605932)">
    <path
       inkscape:connector-curvature="0"
       d="m 22.178682,18.112318 0,3.332927 15.535603,0 0,-3.332927 z"
       id="path4156"
       sodipodi:nodetypes="ccccc" />
    <path
       inkscape:connector-curvature="0"
       d="m 22.178682,34.776951 0,3.332926 7.821318,0 0,-3.332926 z"
       id="path4158"
       sodipodi:nodetypes="ccccc" />
    <path
       inkscape:connector-curvature="0"
       d="m 22.178682,26.444635 0,3.332926 15.535603,0 0,-3.332926 z"
       id="path4160"
       sodipodi:nodetypes="ccccc" />
  </g>
  <g
     id="g4250"
     transform="translate(-52.770186,-6.059322)" />
  <g
     id="g4282"
     clip-path="url(#clip1)"
     transform="translate(35.094221,13.059322)">
    <g
       id="g4284"
       clip-path="url(#clip2)" />
  </g>
  <path
     id="path4288"
     d="m 60.999992,26.004716 c 0,0 0.0021,-1.558719 -3.473099,-3.565094 -3.352515,-1.935575 -4.916308,-1.084583 -4.916308,-1.084583 L 34.530433,52.671 33.532,64 42.836,57.465922"
     inkscape:connector-curvature="0"
     style="fill:#ff6f03;fill-opacity:1;fill-rule:nonzero;stroke:none"
     sodipodi:nodetypes="cscccc" />
  <path
     id="path4290"
     d="M 34.53,52.671 33.532,64 42.836,57.466"
     inkscape:connector-curvature="0"
     style="fill:#ffc13d;fill-opacity:1;fill-rule:nonzero;stroke:none"
     sodipodi:nodetypes="ccc" />
  <path
     id="path4292"
     d="M 33.981917,58.718376 33.532,64 37.887296,60.973147 m -3.905379,-2.254771"
     inkscape:connector-curvature="0"
     style="fill:#2d2d2d;fill-opacity:1;fill-rule:nonzero;stroke:none" />
</svg>
