<svg width="64" xmlns="http://www.w3.org/2000/svg" height="64" viewBox="0 0 64 64" xmlns:xlink="http://www.w3.org/1999/xlink">
<g style="fill:#888">
<path d="M 40 24.648438 C 40 26.03125 39.753906 27.195312 39.261719 28.136719 C 38.773438 29.050781 38.097656 29.792969 37.246094 30.363281 C 36.417969 30.90625 35.421875 31.300781 34.257812 31.550781 C 33.121094 31.773438 31.894531 31.882812 30.574219 31.882812 C 28.261719 31.90625 26.128906 31.0625 24 30.734375 L 24 9.296875 C 26.121094 8.921875 28.101562 8.460938 30.109375 8.355469 C 31.917969 8.355469 33.394531 8.542969 34.53125 8.914062 C 35.667969 9.261719 36.5625 9.730469 37.207031 10.324219 C 37.855469 10.894531 38.292969 11.535156 38.527344 12.253906 C 38.757812 12.972656 38.875 13.6875 38.875 14.40625 C 38.875 15.496094 38.589844 16.457031 38.023438 17.300781 C 37.480469 18.140625 36.742188 18.808594 35.8125 19.304688 C 37.441406 19.871094 38.539062 20.640625 39.109375 21.605469 C 39.703125 22.570312 40 23.582031 40 24.648438 M 28.675781 21.53125 L 28.675781 27.765625 C 29.011719 27.8125 29.371094 27.851562 29.761719 27.875 C 30.171875 27.902344 30.574219 27.914062 30.960938 27.914062 C 31.503906 27.914062 32.035156 27.875 32.554688 27.800781 C 33.070312 27.703125 33.523438 27.542969 33.910156 27.320312 C 34.324219 27.070312 34.660156 26.738281 34.917969 26.316406 C 35.175781 25.871094 35.308594 25.316406 35.308594 24.648438 C 35.308594 23.535156 34.933594 22.742188 34.183594 22.273438 C 33.457031 21.777344 32.476562 21.53125 31.234375 21.53125 L 28.675781 21.53125 M 30.535156 17.746094 C 31.75 17.746094 32.667969 17.496094 33.289062 17.003906 C 33.910156 16.484375 34.21875 15.777344 34.21875 14.886719 C 34.21875 14.34375 34.128906 13.910156 33.949219 13.589844 C 33.769531 13.242188 33.523438 12.984375 33.210938 12.808594 C 32.902344 12.613281 32.539062 12.488281 32.125 12.4375 C 31.710938 12.363281 31.285156 12.328125 30.847656 12.328125 C 30.484375 12.328125 30.109375 12.339844 29.722656 12.363281 C 29.332031 12.390625 28.984375 12.425781 28.675781 12.476562 L 28.675781 17.746094 L 30.535156 17.746094 "/>
<path d="M 56.417969 32.070312 C 52.589844 32.070312 49.664062 31.03125 47.648438 28.953125 C 45.632812 26.875 44 23.917969 44 20.082031 C 43.925781 16.03125 45.375 13.632812 48.085938 11.25 C 49.199219 10.210938 50.5 9.433594 51.988281 8.914062 C 53.507812 8.371094 55.160156 8.097656 56.941406 8.097656 C 57.90625 8.097656 58.769531 8.171875 59.527344 8.320312 C 60.316406 8.445312 61.003906 8.59375 61.589844 8.765625 C 62.171875 8.9375 62.65625 9.125 63.035156 9.320312 C 63.445312 9.519531 63.75 9.667969 63.957031 9.765625 L 62.554688 13.402344 C 61.882812 13.03125 61.0625 12.722656 60.097656 12.476562 C 59.164062 12.203125 58.082031 12.066406 56.855469 12.066406 C 56.007812 12.066406 55.175781 12.203125 54.355469 12.476562 C 53.566406 12.722656 52.851562 13.15625 52.207031 13.773438 C 51.59375 14.367188 51.082031 15.171875 50.675781 16.1875 C 50.292969 17.199219 50.105469 18.460938 50.105469 19.972656 C 50.105469 22.59375 50.628906 24.609375 51.683594 26.019531 C 52.761719 27.40625 54.515625 28.097656 56.941406 28.097656 C 58.34375 28.097656 59.5 27.960938 60.40625 27.691406 C 61.339844 27.417969 62.085938 27.144531 62.640625 26.875 L 64 30.472656 C 63.242188 30.871094 62.203125 31.242188 60.886719 31.585938 C 59.601562 31.910156 58.113281 32.070312 56.417969 32.070312 "/>
<path d="M 8 8.125 L 0 32.097656 L 4 32.097656 L 6.625 24.105469 L 13.375 24.105469 L 16 32.097656 L 20 32.097656 L 12 8.125 Z M 10 14.117188 L 12 20.109375 L 8 20.109375 Z "/>
</g>
<path style="fill:#859900" d="M 32 44.097656 L 56 20.097656 L 64 28.097656 L 32 60.097656 C 25.332031 53.429688 18.667969 46.765625 12 40.097656 L 20 32.097656 Z "/>
</svg>
