<svg width="64" xmlns="http://www.w3.org/2000/svg" height="64" viewBox="0 0 64 64" xmlns:xlink="http://www.w3.org/1999/xlink">
<g style="stroke:#ff4545">
<path style="fill:none;stroke-width:8" d="M 65.098904 39.125657 L 198.154557 39.125657 C 210.706978 39.125657 220.875227 49.293907 220.875227 61.846327 L 220.875227 194.159888 C 220.875227 206.68073 210.706978 216.864769 198.154557 216.864769 L 65.098904 216.864769 C 52.578062 216.864769 42.394023 206.68073 42.394023 194.159888 L 42.394023 61.846327 C 42.394023 49.293907 52.578062 39.125657 65.098904 39.125657 Z " transform="scale(.2474)"/>
<g style="stroke-linecap:round;stroke-dasharray:0,159;fill:#000">
<path style="stroke-width:119" d="M 436.943106 117.025172 L -0.0280575 117.025172 M 436.943106 439.980926 L -0.0280575 439.980926 " transform="matrix(.08027 0 0 .07995 10.20928 9.40165)"/>
<path style="stroke-width:109" d="M 436.943106 117.025172 L -0.0280575 117.025172 M 436.943106 439.980926 L -0.0280575 439.980926 " transform="matrix(.08027 0 0 .07995 10.20928 9.40165)"/>
</g>
</g>
</svg>
