<svg width="64" xmlns="http://www.w3.org/2000/svg" height="64" viewBox="0 0 64 64" xmlns:xlink="http://www.w3.org/1999/xlink">
<g style="fill:#52c8ff">
<path d="M 9.894531 20.839844 L 9.949219 23.933594 L 53.554688 23.933594 L 53.507812 20.839844 Z "/>
<path d="M 8.085938 30.117188 L 8.085938 33.210938 L 55.246094 33.210938 L 55.246094 30.117188 Z "/>
<path d="M 10.019531 39.394531 L 10.019531 42.488281 L 53.3125 42.488281 L 53.3125 39.394531 Z "/>
<path d="M 30.117188 8.097656 L 30.117188 55.285156 L 33.214844 55.285156 L 33.214844 8.097656 Z "/>
</g>
<g style="fill:none;stroke:#52c8ff">
<g style="stroke-width:12.5">
<path d="M 89.761646 7.731449 C 66.898873 -44.767667 68.635686 -110.624453 89.761646 -168.049801 " transform="matrix(.2474 0 0 .2474 0 51.45833)"/>
<path d="M 166.244569 7.731449 C 189.107341 -44.767667 187.370528 -110.624453 166.244569 -168.049801 " transform="matrix(.2474 0 0 .2474 0 51.45833)"/>
</g>
<path style="stroke-linecap:round;stroke-width:1.214" d="M 33.055465 27.317653 C 33.055465 32.346896 28.983004 36.419356 23.953761 36.419356 C 18.924518 36.419356 14.847458 32.346896 14.847458 27.317653 C 14.847458 22.28841 18.924518 18.211349 23.953761 18.211349 C 28.983004 18.211349 33.055465 22.28841 33.055465 27.317653 Z " transform="matrix(2.5476 0 0 2.5476 -29.35663 -37.92648)"/>
</g>
</svg>
