<svg width="64" xmlns="http://www.w3.org/2000/svg" height="64" viewBox="0 0 64 64" xmlns:xlink="http://www.w3.org/1999/xlink">
<g style="fill:#8ccd7c">
<path d="M 18.5625 20.066406 C 12.136719 20.066406 6.925781 25.304688 6.925781 31.765625 C 6.925781 32.167969 6.933594 32.566406 6.972656 32.957031 C 7.070312 35.460938 6.925781 39.082031 9.835938 47.859375 C 12.3125 55.324219 14.199219 55.167969 14.199219 55.167969 L 17.101562 53.703125 C 17.101562 53.703125 15.652344 50.78125 15.652344 47.859375 C 15.652344 46.453125 15.984375 44.71875 16.335938 43.289062 C 17.050781 43.425781 17.804688 43.46875 18.5625 43.46875 C 24.980469 43.46875 30.1875 38.230469 30.1875 31.765625 C 30.1875 25.304688 24.980469 20.066406 18.5625 20.066406 Z "/>
<path d="M 44.773438 43.269531 C 51.199219 43.269531 56.40625 38.027344 56.40625 31.570312 C 56.40625 31.164062 56.398438 30.769531 56.359375 30.378906 C 56.261719 27.871094 56.40625 24.25 53.496094 15.476562 C 51.023438 8.007812 49.132812 8.164062 49.132812 8.164062 L 46.230469 9.628906 C 46.230469 9.628906 47.683594 12.550781 47.683594 15.476562 C 47.683594 16.882812 47.351562 18.613281 47 20.046875 C 46.28125 19.910156 45.527344 19.863281 44.773438 19.863281 C 38.351562 19.863281 33.144531 25.105469 33.144531 31.570312 C 33.144531 38.027344 38.351562 43.269531 44.773438 43.269531 Z "/>
</g>
</svg>
