<svg width="64" xmlns="http://www.w3.org/2000/svg" height="64" viewBox="0 0 64 64" xmlns:xlink="http://www.w3.org/1999/xlink">
<g style="fill:#b2a445">
<path d="M 9.324219 6.953125 C 8.40625 6.953125 7.667969 7.683594 7.667969 8.59375 L 7.667969 54.757812 C 7.667969 55.671875 8.40625 56.398438 9.324219 56.398438 L 18.679688 56.398438 C 19.601562 56.398438 20.339844 55.671875 20.339844 54.757812 L 20.339844 8.59375 C 20.339844 7.683594 19.601562 6.953125 18.679688 6.953125 Z M 10.886719 11.589844 L 17.121094 11.589844 L 17.121094 30.128906 L 10.886719 30.128906 Z M 14.003906 39.402344 C 15.722656 39.402344 17.121094 40.789062 17.121094 42.492188 C 17.121094 44.199219 15.722656 45.585938 14.003906 45.585938 C 12.277344 45.585938 10.886719 44.199219 10.886719 42.492188 C 10.886719 40.789062 12.277344 39.402344 14.003906 39.402344 Z "/>
<path d="M 24.914062 6.953125 C 23.996094 6.953125 23.261719 7.683594 23.261719 8.59375 L 23.261719 54.757812 C 23.261719 55.671875 23.996094 56.398438 24.914062 56.398438 L 31.152344 56.398438 C 32.078125 56.398438 32.8125 55.671875 32.8125 54.757812 L 32.8125 8.59375 C 32.8125 7.683594 32.078125 6.953125 31.152344 6.953125 Z M 24.914062 11.589844 L 31.152344 11.589844 L 31.152344 30.128906 L 24.914062 30.128906 Z M 28.035156 39.402344 C 29.757812 39.402344 31.152344 40.789062 31.152344 42.492188 C 31.152344 44.199219 29.757812 45.585938 28.035156 45.585938 C 26.316406 45.585938 24.914062 44.199219 24.914062 42.492188 C 24.914062 40.789062 26.316406 39.402344 28.035156 39.402344 Z "/>
<path d="M 35.496094 8.582031 C 34.609375 8.820312 34.089844 9.714844 34.324219 10.59375 L 46.378906 55.1875 C 46.621094 56.066406 47.527344 56.582031 48.410156 56.347656 L 54.433594 54.753906 C 55.324219 54.511719 55.847656 53.621094 55.605469 52.742188 L 43.546875 8.144531 C 43.3125 7.265625 42.410156 6.75 41.523438 6.984375 Z M 36.707031 13.058594 L 42.734375 11.464844 L 47.570312 29.375 L 41.550781 30.976562 Z M 46.984375 39.128906 C 48.644531 38.683594 50.359375 39.667969 50.800781 41.316406 C 51.25 42.960938 50.261719 44.660156 48.601562 45.097656 C 46.933594 45.539062 45.226562 44.5625 44.777344 42.917969 C 44.335938 41.269531 45.320312 39.570312 46.984375 39.128906 Z "/>
</g>
</svg>
