<svg width="64" xmlns="http://www.w3.org/2000/svg" height="64" viewBox="0 0 64 64" xmlns:xlink="http://www.w3.org/1999/xlink">
<g style="fill:#de165d">
<path d="M 32 21.972656 C 32 29.324219 26.03125 35.28125 18.667969 35.28125 C 11.304688 35.28125 5.332031 29.324219 5.332031 21.972656 C 5.332031 14.621094 11.304688 8.664062 18.667969 8.664062 C 26.03125 8.664062 32 14.621094 32 21.972656 Z "/>
<path d="M 58.667969 21.972656 C 58.667969 29.324219 52.695312 35.28125 45.332031 35.28125 C 37.96875 35.28125 32 29.324219 32 21.972656 C 32 14.621094 37.96875 8.664062 45.332031 8.664062 C 52.695312 8.664062 58.667969 14.621094 58.667969 21.972656 Z "/>
<path d="M 7.855469 29.542969 L 32.417969 22.410156 L 55.253906 30.851562 L 31.828125 55.328125 Z "/>
</g>
</svg>
