<svg width="64" xmlns="http://www.w3.org/2000/svg" height="64" viewBox="0 0 64 64" xmlns:xlink="http://www.w3.org/1999/xlink">
<g style="fill:#ec7878">
<path d="M 34.882812 14.347656 C 34.675781 14.347656 34.445312 14.40625 34.25 14.539062 C 34.054688 14.667969 33.886719 14.890625 33.894531 15.175781 C 33.917969 15.28125 33.90625 15.378906 33.898438 15.488281 C 33.898438 15.808594 34.160156 16.066406 34.484375 16.066406 C 34.804688 16.066406 35.066406 15.808594 35.066406 15.488281 C 35.066406 15.167969 34.8125 14.910156 34.492188 14.902344 C 34.601562 14.832031 34.765625 14.792969 34.882812 14.785156 C 35.34375 14.785156 35.683594 15.046875 35.929688 15.4375 C 36.179688 15.828125 36.300781 16.347656 36.296875 16.769531 C 36.277344 17.824219 35.753906 18.71875 34.980469 19.394531 C 34.210938 20.078125 33.191406 20.539062 32.21875 20.722656 L 32.296875 21.152344 C 33.347656 20.957031 34.433594 20.46875 35.273438 19.726562 C 36.113281 18.984375 36.710938 17.976562 36.738281 16.777344 C 36.746094 16.261719 36.609375 15.675781 36.300781 15.203125 C 36.003906 14.71875 35.515625 14.347656 34.882812 14.347656 Z "/>
<path d="M 28.449219 14.347656 C 28.660156 14.347656 28.886719 14.40625 29.082031 14.539062 C 29.277344 14.667969 29.445312 14.890625 29.441406 15.175781 C 29.414062 15.28125 29.425781 15.378906 29.433594 15.488281 C 29.433594 15.808594 29.171875 16.066406 28.847656 16.066406 C 28.527344 16.066406 28.269531 15.808594 28.269531 15.488281 C 28.269531 15.167969 28.523438 14.910156 28.839844 14.902344 C 28.730469 14.832031 28.566406 14.792969 28.449219 14.785156 C 27.988281 14.785156 27.648438 15.046875 27.402344 15.4375 C 27.15625 15.828125 27.03125 16.347656 27.039062 16.769531 C 27.058594 17.824219 27.578125 18.71875 28.351562 19.394531 C 29.121094 20.078125 30.144531 20.539062 31.113281 20.722656 L 31.035156 21.152344 C 29.988281 20.957031 28.898438 20.46875 28.058594 19.726562 C 27.21875 18.984375 26.621094 17.976562 26.59375 16.777344 C 26.589844 16.261719 26.726562 15.675781 27.03125 15.203125 C 27.332031 14.71875 27.820312 14.347656 28.449219 14.347656 Z "/>
<path d="M 31.230469 18.566406 C 28.738281 18.679688 26.320312 19.902344 24.714844 21.789062 C 23.878906 22.695312 23.097656 23.710938 22.742188 24.910156 C 22.746094 25.097656 22.820312 25.28125 22.871094 25.460938 C 22.335938 25.5 21.671875 25.429688 21.300781 25.898438 C 20.632812 26.640625 20.476562 27.667969 20.144531 28.582031 C 18.640625 33.78125 19.414062 39.714844 22.617188 44.132812 C 24.355469 46.511719 26.941406 48.390625 29.902344 48.875 C 30.398438 48.917969 30.964844 49.054688 31.417969 48.796875 C 31.589844 48.652344 31.835938 48.691406 31.980469 48.839844 C 32.597656 49.160156 33.292969 48.855469 33.933594 48.769531 C 36.960938 48.105469 39.558594 46.027344 41.183594 43.4375 C 44.199219 38.78125 44.699219 32.683594 42.832031 27.488281 C 42.585938 26.867188 42.335938 26.203125 41.847656 25.730469 C 41.523438 25.5 41.105469 25.421875 40.714844 25.398438 C 40.96875 24.875 40.800781 24.25 40.421875 23.835938 C 39.0625 21.609375 37.042969 19.6875 34.503906 18.933594 C 33.4375 18.632812 32.332031 18.5625 31.230469 18.566406 Z "/>
<path d="M 31.554688 19.179688 C 31.542969 19.179688 31.523438 19.179688 31.503906 19.1875 C 30.632812 19.25 29.738281 19.335938 28.90625 19.628906 C 26.523438 20.460938 24.707031 22.402344 23.464844 24.550781 C 23.273438 24.882812 23.40625 25.34375 23.789062 25.378906 C 26.457031 25.382812 29.128906 25.378906 31.796875 25.382812 C 31.796875 25.382812 31.796875 25.382812 31.804688 25.382812 C 34.472656 25.378906 37.140625 25.382812 39.8125 25.378906 C 40.195312 25.34375 40.324219 24.882812 40.136719 24.550781 C 38.886719 22.402344 37.070312 20.460938 34.6875 19.628906 C 33.855469 19.335938 32.960938 19.25 32.089844 19.1875 C 31.867188 19.167969 31.90625 19.238281 31.804688 19.238281 C 31.699219 19.230469 31.738281 19.171875 31.554688 19.179688 Z "/>
<path d="M 33.476562 26.046875 C 32.695312 26.046875 32.0625 26.6875 32.0625 27.480469 L 32.0625 47.8125 C 32.0625 48.097656 32.0625 48.3125 32.441406 48.351562 C 38.410156 48.027344 43.308594 41.648438 43.308594 33.855469 C 43.308594 31.28125 42.792969 28.867188 41.882812 26.769531 C 41.882812 26.769531 41.875 26.769531 41.875 26.769531 C 41.863281 26.726562 41.84375 26.679688 41.824219 26.632812 C 41.824219 26.628906 41.816406 26.628906 41.816406 26.621094 C 41.816406 26.613281 41.816406 26.613281 41.816406 26.613281 C 41.648438 26.277344 41.308594 26.046875 40.910156 26.046875 Z "/>
<path d="M 29.855469 26.046875 C 30.636719 26.046875 31.269531 26.6875 31.269531 27.480469 L 31.269531 47.8125 C 31.269531 48.097656 31.269531 48.3125 30.890625 48.351562 C 24.921875 48.027344 20.027344 41.648438 20.027344 33.855469 C 20.027344 31.28125 20.539062 28.867188 21.453125 26.769531 C 21.453125 26.769531 21.457031 26.769531 21.457031 26.769531 C 21.472656 26.726562 21.492188 26.679688 21.511719 26.632812 C 21.511719 26.628906 21.515625 26.628906 21.515625 26.621094 C 21.515625 26.613281 21.515625 26.613281 21.515625 26.613281 C 21.6875 26.277344 22.023438 26.046875 22.421875 26.046875 Z "/>
<g style="fill-rule:evenodd">
<path d="M 23.351562 26.640625 L 22.449219 27.761719 L 21.015625 27.65625 L 21.804688 28.855469 L 21.257812 30.1875 L 22.644531 29.8125 L 23.742188 30.742188 L 23.816406 29.304688 L 25.039062 28.546875 L 23.691406 28.035156 Z M 27.84375 28 L 27.082031 31.835938 L 23.496094 33.378906 L 26.902344 35.292969 L 27.257812 39.179688 L 30.128906 36.53125 L 33.945312 37.390625 L 32.3125 33.839844 L 34.304688 30.480469 L 30.421875 30.945312 Z M 39.5625 29.773438 L 38.664062 30.890625 L 37.226562 30.789062 L 38.015625 31.992188 L 37.472656 33.320312 L 38.859375 32.941406 L 39.953125 33.875 L 40.027344 32.433594 L 41.25 31.679688 L 39.902344 31.171875 Z M 22.246094 36.640625 L 21.152344 38.847656 L 20.128906 38.996094 C 20.488281 40.226562 20.976562 41.414062 21.601562 42.53125 L 22.246094 42.195312 L 24.421875 43.339844 L 24.003906 40.917969 L 25.761719 39.199219 L 23.328125 38.847656 Z M 40.125 36.847656 L 37.960938 39.304688 L 34.71875 38.917969 L 36.394531 41.726562 L 35.027344 44.695312 L 38.210938 43.976562 L 39.707031 45.359375 C 40.109375 44.929688 40.476562 44.480469 40.8125 43.996094 L 40.910156 42.9375 L 41.777344 42.453125 C 42.0625 41.925781 42.324219 41.378906 42.558594 40.828125 L 40.761719 40.050781 Z M 29.382812 43.476562 L 28.484375 44.597656 L 27.042969 44.492188 L 27.832031 45.695312 L 27.292969 47.03125 L 28.679688 46.652344 L 29.773438 47.578125 L 29.84375 46.144531 L 31.066406 45.382812 L 29.71875 44.875 Z "/>
<path style="fill-opacity:.902" d="M 41.824219 37.527344 C 41.824219 39.773438 37.390625 41.601562 31.914062 41.601562 C 26.445312 41.601562 22.003906 39.773438 22.003906 37.527344 C 22.003906 35.273438 26.445312 33.449219 31.914062 33.449219 C 37.390625 33.449219 41.824219 35.273438 41.824219 37.527344 Z "/>
</g>
<path style="fill-opacity:.459" d="M 24.589844 44.835938 C 26.164062 46.457031 28.230469 47.636719 30.496094 47.882812 C 30.632812 47.929688 30.910156 47.917969 30.847656 47.703125 C 30.832031 47.207031 30.828125 46.710938 30.828125 46.21875 C 30.832031 45.910156 30.832031 45.96875 30.597656 46.113281 C 28.269531 47.53125 26.289062 45.8125 24.589844 44.835938 Z M 38.664062 44.949219 C 36.964844 45.925781 34.988281 47.644531 32.648438 46.222656 C 32.421875 46.082031 32.421875 46.023438 32.429688 46.328125 C 32.429688 46.824219 32.421875 47.316406 32.410156 47.8125 C 32.335938 48.027344 32.617188 48.039062 32.761719 47.996094 C 35.027344 47.746094 37.082031 46.570312 38.664062 44.949219 Z "/>
<g style="fill-rule:evenodd">
<path d="M 37.976562 24.011719 C 37.976562 26.769531 35.1875 29.011719 31.75 29.011719 C 28.3125 29.011719 25.527344 26.769531 25.527344 24.011719 C 25.527344 21.25 28.3125 19.015625 31.75 19.015625 C 35.1875 19.015625 37.976562 21.25 37.976562 24.011719 Z "/>
<path d="M 29.207031 15.324219 C 29.207031 15.519531 29.050781 15.683594 28.859375 15.683594 C 28.671875 15.683594 28.523438 15.519531 28.523438 15.324219 C 28.523438 15.128906 28.671875 14.96875 28.859375 14.96875 C 29.050781 14.96875 29.207031 15.128906 29.207031 15.324219 Z "/>
<path d="M 34.8125 15.324219 C 34.8125 15.519531 34.660156 15.683594 34.472656 15.683594 C 34.285156 15.683594 34.128906 15.519531 34.128906 15.324219 C 34.128906 15.128906 34.285156 14.96875 34.472656 14.96875 C 34.660156 14.96875 34.8125 15.128906 34.8125 15.324219 Z "/>
</g>
<path d="M 44.324219 29.921875 C 43.417969 30.039062 42.773438 30.867188 42.882812 31.777344 C 42.996094 32.6875 43.828125 33.332031 44.734375 33.222656 L 57.703125 33.222656 C 58.300781 33.230469 58.855469 32.917969 59.152344 32.402344 C 59.445312 31.886719 59.445312 31.257812 59.152344 30.742188 C 58.855469 30.226562 58.300781 29.914062 57.703125 29.921875 L 44.734375 29.921875 C 44.597656 29.910156 44.460938 29.910156 44.324219 29.921875 Z "/>
<path d="M 5.460938 30.027344 C 4.875 30.078125 4.355469 30.441406 4.109375 30.984375 C 3.859375 31.515625 3.917969 32.148438 4.265625 32.628906 C 4.609375 33.113281 5.183594 33.378906 5.769531 33.320312 L 18.839844 33.320312 C 19.433594 33.328125 19.988281 33.015625 20.285156 32.5 C 20.585938 31.984375 20.585938 31.355469 20.285156 30.839844 C 19.988281 30.324219 19.433594 30.011719 18.839844 30.027344 L 5.769531 30.027344 C 5.671875 30.011719 5.566406 30.011719 5.460938 30.027344 Z "/>
<path d="M 31.394531 3.992188 C 30.605469 4.140625 30.039062 4.832031 30.050781 5.636719 L 30.050781 18.917969 C 30.046875 19.511719 30.359375 20.066406 30.871094 20.363281 C 31.386719 20.664062 32.019531 20.664062 32.53125 20.363281 C 33.046875 20.066406 33.359375 19.511719 33.347656 18.917969 L 33.347656 5.636719 C 33.359375 5.136719 33.144531 4.667969 32.761719 4.347656 C 32.382812 4.023438 31.882812 3.894531 31.394531 3.992188 Z "/>
<path d="M 31.492188 42.976562 C 30.625 43.085938 29.988281 43.855469 30.050781 44.726562 L 30.050781 57.703125 C 30.039062 58.292969 30.351562 58.847656 30.867188 59.148438 C 31.378906 59.453125 32.011719 59.453125 32.527344 59.148438 C 33.039062 58.847656 33.351562 58.292969 33.347656 57.703125 L 33.347656 44.726562 C 33.378906 44.230469 33.191406 43.75 32.832031 43.410156 C 32.472656 43.074219 31.980469 42.917969 31.492188 42.976562 Z "/>
</g>
<path style="fill:none;stroke:#ec7878;stroke-linejoin:round;stroke-linecap:round;stroke-width:8" d="M 278.372625 118.724193 C 278.372625 168.044875 225.513487 207.986486 160.323534 207.986486 C 95.088824 207.986486 42.252065 168.044875 42.252065 118.724193 C 42.252065 69.420472 95.088824 29.4619 160.323534 29.4619 C 225.513487 29.4619 278.372625 69.420472 278.372625 118.724193 Z " transform="matrix(.17455 0 0 .23032 3.70693 4.43318)"/>
</svg>
