<svg width="64" xmlns="http://www.w3.org/2000/svg" height="64" viewBox="0 0 64 64" xmlns:xlink="http://www.w3.org/1999/xlink">
<g style="stroke:#549ca4;stroke-width:4.545;fill:#549ca4">
<path d="M 69.15673 106.22979 C 70.783018 113.79282 71.714582 119.476935 70.372499 127.024176 C 60.077936 135.392457 33.757326 139.150288 33.820483 147.818563 L 30.267911 173.79181 C 30.267911 182.396928 54.820129 189.375758 85.072251 189.375758 C 115.340163 189.375758 139.860802 182.396928 139.860802 173.79181 L 136.339809 147.818563 C 136.292441 140.397635 109.81394 135.676662 99.661479 127.024176 C 98.793073 120.029557 99.472009 113.240198 100.971984 106.22979 Z " transform="scale(.2474)"/>
<path d="M 84.819624 57.551662 C 72.267204 57.551662 62.083165 67.340971 62.083165 79.388137 C 62.1779 83.872272 62.556841 89.177445 65.130482 101.256189 C 66.630457 105.945584 80.161808 119.366411 80.256543 120.913753 C 83.209125 122.476885 87.835363 122.476885 90.866891 120.913753 C 90.866891 119.366411 102.993002 105.945584 104.524555 101.256189 C 107.398191 88.703769 107.398191 84.10911 107.556083 79.388137 C 107.556083 67.340971 97.372044 57.551662 84.819624 57.551662 Z " transform="scale(.2474)"/>
<g style="stroke-linejoin:round">
<path d="M 132.73987 71.177749 C 125.082104 66.630457 112.624419 34.941517 114.550702 48.441289 L 119.097994 80.256543 Z " transform="scale(.2474)"/>
<path d="M 178.007528 71.177749 C 185.681083 66.630457 198.10719 34.941517 196.180906 48.441289 L 191.633615 80.256543 Z " transform="scale(.2474)"/>
</g>
<path d="M 134.808256 107.556083 C 136.92401 117.440127 138.076622 124.924212 136.371387 134.808256 C 123.155821 145.781755 89.319548 150.739566 89.366916 162.076218 L 84.819624 196.180906 C 84.819624 207.47019 116.366461 216.62793 155.25528 216.62793 C 194.191466 216.62793 225.738303 207.47019 225.738303 196.180906 L 221.191012 162.076218 C 221.127855 152.365855 187.086323 146.176485 174.028648 134.808256 C 172.891825 125.634726 173.79181 116.729613 175.733882 107.556083 Z " transform="scale(.2474)"/>
<path d="M 155.25528 39.362495 C 136.450333 39.362495 121.18217 53.60436 121.18217 71.177749 C 121.340062 77.682902 121.892684 85.419614 125.729461 102.993002 C 128.003107 109.81394 148.260661 128.003107 148.450131 130.260964 C 152.87111 132.550399 159.818361 132.550399 164.365653 130.260964 C 164.365653 128.003107 182.55482 109.81394 184.812677 102.993002 C 189.13892 84.7091 189.13892 77.998686 189.375758 71.177749 C 189.375758 53.60436 174.107594 39.362495 155.25528 39.362495 Z " transform="scale(.2474)"/>
</g>
</svg>
