<svg width="64" xmlns="http://www.w3.org/2000/svg" height="64" viewBox="0 0 64 64" xmlns:xlink="http://www.w3.org/1999/xlink">
<defs>
<clipPath id="clip1">
<path d="M 9 9 L 55 9 L 55 55 L 9 55 Z "/>
</clipPath>
<clipPath id="clip2">
<path d="M 31.667969 54.023438 C 44.082031 54.023438 54.160156 43.90625 54.160156 31.496094 C 54.160156 19.167969 44.082031 9.050781 31.667969 9.050781 C 19.335938 9.050781 9.171875 19.167969 9.171875 31.496094 C 9.171875 43.90625 19.335938 54.023438 31.667969 54.023438 Z "/>
</clipPath>
</defs>
<path style="fill:#78b2a3" d="M 31.660156 6.933594 C 25.097656 6.933594 18.898438 9.511719 14.210938 14.191406 C 9.519531 18.875 6.925781 25.066406 6.925781 31.628906 C 6.925781 45.285156 18.019531 56.398438 31.660156 56.398438 C 45.304688 56.398438 56.40625 45.285156 56.40625 31.628906 C 56.40625 18.015625 45.304688 6.933594 31.660156 6.933594 Z M 31.660156 7.949219 C 44.738281 7.949219 55.382812 18.574219 55.382812 31.628906 C 55.382812 44.726562 44.738281 55.382812 31.660156 55.382812 C 18.585938 55.382812 7.949219 44.726562 7.949219 31.628906 C 7.949219 25.339844 10.429688 19.40625 14.929688 14.914062 C 19.425781 10.429688 25.371094 7.949219 31.660156 7.949219 Z "/>
<g style="clip-rule:nonzero;clip-path:url(#clip1)">
<g style="clip-path:url(#clip2)">
<path style="fill:#78b2a3" d="M 24.042969 11.113281 C 23.925781 11.113281 23.800781 11.160156 23.679688 11.230469 C 23.972656 11.140625 24.113281 11.113281 24.042969 11.113281 M 31.433594 12.550781 L 31.503906 11.472656 L 30.363281 11.542969 L 30.515625 12.550781 L 31.433594 12.550781 M 18.554688 31.238281 C 18.328125 31.023438 18.476562 30.085938 18.476562 30.085938 C 18.476562 30.085938 15.050781 28.28125 11.316406 27.195312 C 10.859375 27.0625 11.09375 26.113281 11.542969 25.753906 L 11.394531 24.746094 C 11.316406 24.238281 12.15625 21.785156 12.996094 21.570312 C 13.835938 21.355469 12.917969 23.015625 12.917969 23.015625 L 12.082031 23.515625 C 12.082031 23.515625 13.074219 24.675781 13.300781 24.675781 C 13.527344 24.675781 13.914062 24.09375 13.914062 24.09375 L 12.84375 23.371094 L 13.835938 22.941406 L 13.898438 22.558594 L 14.0625 22.507812 L 15.703125 20.027344 C 16.835938 19.558594 18.230469 18.984375 18.40625 18.898438 C 18.710938 18.757812 20.847656 17.53125 21.222656 17.246094 C 21.609375 16.953125 22.441406 17.03125 22.746094 17.03125 C 23.054688 17.03125 23.507812 16.882812 23.585938 16.085938 C 23.660156 15.292969 23.964844 15.148438 24.191406 15.371094 C 24.425781 15.578125 23.964844 15.945312 24.5 16.085938 C 25.03125 16.230469 25.488281 16.59375 25.871094 16.230469 C 26.152344 15.96875 25.773438 15.671875 25.527344 15.441406 L 29.757812 15.441406 L 30.214844 14.140625 L 29.226562 13.996094 L 25.566406 13.632812 L 25.566406 13.203125 L 25.273438 13.253906 C 25.671875 11.074219 28.019531 11.4375 26.25 10.175781 C 26.144531 10.097656 24.597656 12.617188 24.199219 12.566406 C 23.488281 12.472656 22.566406 12.46875 22.371094 12.695312 C 22.109375 13.007812 22.949219 11.640625 23.679688 11.230469 C 22.8125 11.484375 21.257812 10.695312 18.457031 12.675781 C 17.507812 13.347656 15.128906 16.0625 14.148438 17.101562 C 10.011719 21.984375 9.679688 26.160156 9.679688 26.339844 C 9.679688 26.707031 10.558594 26.90625 10.632812 27.34375 C 10.710938 27.773438 9.1875 29.21875 9.1875 29.933594 C 9.1875 30.265625 8.425781 33.867188 10.097656 38.371094 C 11.582031 42.648438 14.460938 46.417969 14.832031 46.652344 L 15.886719 46.09375 C 15.886719 46.09375 14.132812 42.996094 14.0625 42.703125 C 13.984375 42.414062 16.042969 38.230469 17.03125 38.378906 C 18.019531 38.515625 17.792969 38.808594 18.40625 38.449219 C 19.011719 38.09375 19.394531 35.128906 20.078125 34.84375 C 20.769531 34.550781 21.523438 34.191406 21.453125 33.46875 C 21.375 32.746094 18.78125 31.453125 18.554688 31.238281 M 35.089844 10.03125 L 33.035156 9.308594 L 33.410156 10.460938 L 35.089844 10.03125 M 27.394531 12.695312 C 27.625 12.695312 32.195312 9.667969 31.738281 9.597656 C 31.28125 9.523438 31.203125 9.597656 29.980469 9.453125 C 28.761719 9.308594 27.46875 11.183594 27.160156 11.472656 C 26.863281 11.765625 26.960938 12.695312 27.394531 12.695312 M 48.367188 34.445312 L 48.957031 33.683594 L 48.367188 33.476562 L 47.929688 34.03125 L 47.410156 34.792969 L 47.851562 35 L 48.367188 34.445312 M 50.949219 36.953125 L 50.800781 35.839844 L 49.84375 35.839844 L 49.773438 36.671875 L 48.886719 36.535156 L 48.664062 35.632812 L 48.222656 35.351562 L 47.703125 35.976562 L 47.1875 35.839844 L 47.039062 36.320312 L 47.628906 36.464844 L 47.628906 40.984375 L 49.71875 41.484375 C 49.667969 41.570312 49.636719 41.640625 49.621094 41.671875 C 49.472656 42.160156 50.207031 42.375 50.730469 42.160156 C 50.917969 42.089844 52.121094 41.621094 52.5 40.714844 C 53.035156 39.453125 53.378906 37.628906 53.46875 37.042969 L 53.234375 36.535156 L 51.757812 37.089844 L 50.945312 36.953125 L 50.949219 36.953125 M 50.207031 18.449219 C 46.835938 13.339844 38.730469 9.992188 38.730469 9.992188 L 36.648438 11.085938 L 36.347656 10.605469 L 35.613281 10.324219 L 35.613281 10.949219 L 36.277344 11.511719 L 35.832031 11.71875 L 34.140625 11.855469 L 30.304688 13.9375 L 30.671875 15.613281 L 30.226562 15.75 L 30.011719 16.09375 L 31.261719 17.96875 L 31.335938 18.601562 L 30.304688 18.808594 L 30.304688 20.058594 L 29.714844 20.195312 L 29.792969 21.171875 L 24.773438 24.648438 L 24.921875 26.589844 C 25.292969 27.078125 28.164062 30 28.164062 30 C 28.164062 30 31.484375 30.136719 32.21875 29.71875 C 32.960938 29.304688 32.441406 30.136719 32.664062 30.34375 C 32.882812 30.554688 32.960938 32.011719 33.175781 32.15625 C 33.40625 32.292969 33.175781 33.125 33.476562 33.40625 C 33.769531 33.683594 33.769531 37.019531 33.769531 37.019531 C 33.769531 37.019531 35.539062 40.007812 35.539062 40.773438 C 35.539062 41.535156 35.460938 41.464844 36.867188 41.398438 C 38.269531 41.328125 38.5625 40.773438 38.859375 40.566406 C 39.152344 40.359375 39.152344 39.871094 39.445312 39.453125 C 39.746094 39.035156 40.261719 37.441406 40.925781 36.882812 C 41.589844 36.320312 43.359375 35.90625 43.503906 34.933594 C 43.652344 33.957031 44.316406 33.195312 44.316406 33.195312 L 47.5 29.824219 L 47.414062 30.28125 L 47.335938 32.019531 L 48.300781 31.667969 L 48.222656 29.792969 L 47.882812 29.425781 L 47.929688 29.375 C 47.929688 29.375 47.707031 28.957031 47.414062 28.957031 C 47.121094 28.957031 45.351562 29.375 45.050781 29.304688 C 44.757812 29.230469 43.507812 25.898438 43.289062 25.761719 C 43.058594 25.617188 41.660156 23.328125 41.660156 23.328125 C 41.660156 23.328125 44.910156 27.21875 45.421875 28.75 C 45.722656 29.636719 46.847656 28.808594 47.765625 27.878906 L 48.007812 28.46875 L 48.59375 28.332031 L 48.523438 27.636719 L 49.1875 27.636719 L 49.1875 28.679688 L 48.964844 29.238281 L 48.886719 30.136719 L 49.480469 30.695312 L 49.773438 30.207031 L 50.730469 29.304688 L 51.835938 28.75 L 52.128906 29.304688 L 52.277344 30.070312 L 51.984375 30.90625 L 51.394531 31.394531 L 51.101562 32.644531 L 51.101562 33.269531 L 50.4375 32.851562 L 50.363281 31.53125 L 49.402344 31.601562 L 48.964844 32.78125 L 49.628906 33.757812 L 51.171875 33.964844 L 52.429688 32.78125 L 52.570312 30.496094 L 53.132812 29.753906 C 53.496094 30.691406 53.757812 31.667969 53.757812 32.578125 C 53.757812 33.574219 54.542969 32.070312 54.160156 29.03125 C 54.160156 29.023438 53.546875 21.796875 50.207031 18.449219 Z M 35.460938 21.445312 L 31.484375 21.308594 L 33.175781 19.914062 L 34.0625 19.914062 L 35.460938 20.890625 L 35.460938 21.445312 M 40.332031 20.964844 L 40.332031 21.589844 L 38.640625 21.589844 L 38.78125 22.003906 L 37.753906 22.140625 L 37.675781 22.488281 L 36.941406 22.351562 L 35.613281 22.078125 L 35.832031 21.726562 L 36.054688 21.308594 L 36.796875 20.539062 L 37.089844 21.101562 L 38.195312 21.027344 L 38.78125 20.402344 L 41.074219 20.820312 L 40.332031 20.964844 M 40.476562 20.058594 L 39.597656 20.195312 L 39.445312 19.570312 L 40.554688 19.433594 L 40.703125 18.800781 L 41.511719 19.640625 L 40.476562 20.058594 M 44.757812 41.671875 L 44.238281 42.097656 L 44.308594 43.136719 L 44.972656 43.136719 L 44.972656 42.234375 L 45.566406 41.464844 L 45.566406 39.871094 L 45.195312 39.796875 L 44.757812 41.671875 M 39.816406 39.589844 C 39.816406 39.589844 39.296875 39.726562 39.890625 39.941406 C 40.476562 40.148438 42.839844 36.535156 42.839844 36.535156 L 40.847656 37.785156 L 39.816406 39.589844 M 35.800781 52.917969 L 35.359375 52.492188 L 34.480469 52.355469 L 34.328125 52.78125 L 33.152344 52.636719 L 33.074219 52.078125 L 32.1875 52.078125 L 31.230469 52.636719 L 29.539062 52.636719 L 29.386719 52.21875 L 26.667969 51.933594 L 26.222656 52.355469 L 25.117188 52.078125 L 24.96875 51.101562 L 24.453125 51.023438 L 23.859375 52.078125 L 21.875 52.003906 C 22.234375 52.175781 25.203125 53.945312 29.757812 54.316406 C 35.800781 54.804688 38.679688 53.339844 38.679688 53.339844 L 38.457031 53.125 Z "/>
</g>
</g>
</svg>
