<svg width="64" xmlns="http://www.w3.org/2000/svg" height="64" viewBox="0 0 64 64" xmlns:xlink="http://www.w3.org/1999/xlink">
<path style="fill:#9c9c37;stroke:#9c9c37;stroke-width:1.449" d="M 337.360931 491.207865 C 276.479566 487.058214 223.01441 438.821395 207.908164 380.451176 C 193.988511 319.948816 221.645263 251.789091 275.61244 220.196726 C 310.297476 199.402622 353.836323 196.766103 392.240872 207.633143 C 439.681786 222.260088 475.804425 264.67364 488.469027 311.924631 C 499.878578 355.530348 491.663701 405.005184 461.382752 439.371625 C 433.977011 473.646361 390.164334 493.385858 346.306019 491.643463 C 343.339536 491.597611 340.327415 491.437127 337.360931 491.207865 Z M 373.643304 484.375844 C 384.596473 483.412941 382.656849 480.06571 372.73054 479.171586 C 354.977278 475.732649 335.809232 475.663871 318.649267 481.693473 C 333.755513 489.006945 353.790685 487.081141 370.676821 484.903147 Z M 319.881499 474.700968 C 327.662813 466.722635 319.539212 447.648 312.716301 440.082339 C 297.47314 432.264489 285.675664 419.540424 271.733193 409.911401 C 261.236406 406.036865 250.990629 413.350337 240.881767 415.826372 C 240.836128 425.868067 240.151555 437.262411 248.982548 444.254915 C 263.518316 458.629671 281.043387 471.262032 300.827548 476.993593 C 307.171259 477.268708 313.834437 476.878962 319.881499 474.700968 Z M 403.353775 475.136567 C 428.637341 464.200748 452.346388 446.616319 466.608327 422.704245 C 471.742625 415.826372 475.507777 403.744241 462.112964 407.756334 C 445.272466 418.394111 430.052125 431.53085 412.823703 441.572545 C 402.372554 449.917698 394.84225 461.334968 387.380404 472.270786 C 389.958962 478.300389 398.40203 476.856035 403.353775 475.136567 Z M 420.51374 431.186956 C 433.201161 420.709662 451.570538 413.992272 458.279354 398.127311 C 461.268657 385.632508 461.496848 372.725032 462.751899 360.000966 C 450.087297 348.721254 434.570307 341.086814 419.372785 333.865047 C 404.334997 335.057212 392.218053 348.469065 380.306482 357.135185 C 373.98559 360.619975 375.628566 368.529529 373.871495 374.559131 C 371.589585 388.704624 368.942569 402.758412 367.368051 417.018537 C 379.211165 425.753436 392.400606 433.823474 406.776641 437.216558 C 411.979396 437.262411 416.292206 433.754695 420.51374 431.186956 Z M 329.876266 433.364949 C 341.399912 428.96311 356.620254 425.638805 362.005562 413.419116 C 366.044543 396.293211 368.257996 378.754634 370.380172 361.307762 C 358.924983 350.371943 346.716763 338.862968 331.747432 333.223112 C 318.809001 332.99385 307.855832 342.164348 296.377823 347.162269 C 280.883653 351.403624 275.498345 365.503265 274.836591 380.107283 C 270.27277 394.550817 275.498345 409.361171 288.528052 417.316578 C 299.937603 425.73051 314.587467 439.165289 329.876266 433.364949 Z M 233.579654 413.144001 C 224.26946 395.834686 217.834473 376.897608 215.255915 357.364448 C 206.014178 359.2444 214.411608 381.964308 216.967347 391.226511 C 221.302977 403.744241 227.943336 415.299068 234.880343 426.532928 C 236.135393 421.901827 236.888424 417.316578 233.579654 413.144001 Z M 229.586311 336.088893 C 233.648111 330.2427 240.128736 325.657451 242.593199 318.962988 C 246.883191 298.787892 253.934293 279.300584 263.997517 261.234704 C 263.586773 249.565245 250.579885 242.458109 244.122079 255.342659 C 225.707064 279.117175 211.262572 308.118874 210.600818 338.725411 C 208.181993 349.225631 217.309634 356.837144 222.558027 344.41112 C 224.862757 341.65997 227.235943 338.862968 229.586311 336.088893 Z M 466.859337 350.555353 C 474.66347 340.284395 485.456905 328.087633 482.695794 314.148476 C 477.789687 287.737443 464.280778 262.679057 443.515395 245.484373 C 437.308599 242.847855 426.058782 233.218833 421.768791 242.320552 C 415.402261 254.586093 399.588623 266.163846 405.293399 281.409799 C 410.153868 296.449416 413.736467 312.153893 420.856027 326.345239 C 433.977011 336.570344 449.106075 344.571603 464.349236 351.288993 Z M 292.635491 343.723332 C 304.729615 337.579099 316.481453 330.815856 328.278929 324.167245 C 332.226633 310.205162 337.246836 296.609899 341.901933 282.922931 C 342.540867 268.112577 329.351426 257.474799 320.566072 247.089211 C 311.894813 233.17298 297.244949 243.833684 286.565609 248.92331 C 263.061934 261.532745 257.653807 289.227648 249.621483 312.383156 C 250.762438 321.072202 258.680666 328.293969 264.453899 334.736244 C 272.417766 342.806282 281.385673 353.512839 292.635491 343.723332 Z M 379.34808 268.869143 C 385.623333 267.997946 392.628797 268.639881 398.40203 266.851634 C 407.118927 257.474799 414.763326 246.516054 418.368745 234.181735 C 414.010296 221.75571 399.542985 216.092928 387.905243 211.851572 C 373.118465 207.47266 357.259188 205.294666 341.901933 207.059987 C 330.834668 212.699843 310.936411 229.160887 322.163409 241.976658 C 330.378286 251.789091 339.118002 261.120072 348.06309 270.313497 C 358.514239 270.428128 368.942569 269.602783 379.34808 268.869143 Z " transform="matrix(.17118 0 0 .17038 -28.05135 -27.38113)"/>
</svg>
