<svg width="64" xmlns="http://www.w3.org/2000/svg" height="64" viewBox="0 0 64 64" xmlns:xlink="http://www.w3.org/1999/xlink">
<path style="fill:#61c66b;fill-rule:evenodd;stroke:#61c66b;stroke-linejoin:round;stroke-width:12.5" d="M 234.919403 36.60996 C 219.75582 37.184901 202.69679 42.244389 193.621615 53.168282 C 180.35348 81.340427 212.518656 68.375491 216.309552 87.866016 C 220.071728 107.385288 197.383792 108.477677 197.383792 108.477677 L 99.653351 108.477677 C 99.653351 108.477677 99.739508 205.412854 99.739508 205.412854 C 99.739508 205.412854 100.830826 228.123053 120.330964 224.328437 C 136.21252 221.252499 130.583614 199.404713 143.018901 198.456059 C 145.890792 198.25483 149.767844 199.117242 155.023404 201.618239 C 165.936589 210.731065 171.019835 227.778088 171.594213 242.95655 C 171.795246 248.562232 171.307024 253.851696 170.3593 258.479977 C 170.301863 258.681206 170.301863 258.882436 170.244425 259.112413 C 168.578728 272.192337 163.495482 285.502238 154.276712 293.177711 C 126.074746 306.401371 139.084411 274.290875 119.612992 270.525006 C 105.397133 267.736539 100.974421 279.005397 99.653351 285.329756 L 99.653351 388.244327 C 99.653351 388.244327 197.728419 387.439409 197.728419 387.439409 C 197.728419 387.439409 220.416355 386.375767 216.62546 366.827747 C 212.863283 347.337222 180.726826 360.359653 193.937523 332.130013 C 203.041416 321.263615 220.071728 316.117886 235.292749 315.600438 C 240.892936 315.370462 246.177215 315.887909 250.77224 316.836563 C 251.001991 316.836563 251.203024 316.894057 251.375337 316.951552 C 264.499877 318.618883 277.854169 323.707117 285.522117 332.906185 C 298.761534 361.07833 266.596358 348.084647 262.834181 367.603919 C 259.043285 387.094444 281.731222 388.186833 281.731222 388.186833 L 378.944722 388.186833 L 378.944722 286.134674 C 380.351948 279.752821 384.745941 268.656445 398.875643 271.416166 C 418.4045 275.153287 405.366116 307.321277 433.568083 294.097617 C 442.758133 286.422145 447.84138 273.112244 449.564514 259.974825 C 449.564514 259.773596 449.593233 259.601113 449.593233 259.342389 C 450.598395 254.742855 451.086616 249.482138 450.885584 243.876457 C 450.311206 228.697995 445.19924 211.622225 434.343493 202.538145 C 406.141527 189.314485 419.151192 221.453729 399.622335 225.248344 C 380.093478 228.985465 379.059597 206.304014 379.059597 206.304014 L 378.944722 108.477677 L 276.79157 108.477677 C 270.387253 106.982828 259.818696 102.469536 262.489554 88.642187 C 266.28045 69.094168 298.388188 82.116598 285.177491 53.944453 C 277.480823 44.745385 264.155251 39.657151 251.059429 37.98982 C 250.858397 37.932326 250.628645 37.903578 250.427613 37.903578 C 245.832588 36.89743 240.577028 36.40873 234.919403 36.60996 Z " transform="matrix(.13602 0 0 .13588 -5.77327 2.80657)"/>
</svg>
