<svg width="64" xmlns="http://www.w3.org/2000/svg" height="64" viewBox="0 0 64 64" xmlns:xlink="http://www.w3.org/1999/xlink">
<path style="fill:#c8a878" d="M 28.75 50.363281 C 28.75 51.492188 27.804688 52.394531 26.648438 52.394531 C 25.480469 52.394531 24.542969 51.492188 24.542969 50.363281 C 24.542969 49.246094 25.480469 48.332031 26.648438 48.332031 C 27.804688 48.332031 28.75 49.246094 28.75 50.363281 Z M 18.664062 18.878906 C 18.664062 20 17.722656 20.910156 16.5625 20.910156 C 15.398438 20.910156 14.460938 20 14.460938 18.878906 C 14.460938 17.753906 15.398438 16.847656 16.5625 16.847656 C 17.722656 16.847656 18.664062 17.753906 18.664062 18.878906 Z M 54.648438 25.769531 C 54.648438 26.894531 53.710938 27.804688 52.546875 27.804688 C 51.386719 27.804688 50.441406 26.894531 50.441406 25.769531 C 50.441406 24.648438 51.386719 23.738281 52.546875 23.738281 C 53.710938 23.738281 54.648438 24.648438 54.648438 25.769531 Z M 30.945312 56.328125 C 29.523438 55.910156 28.175781 54.550781 27.097656 52.441406 C 26.6875 51.632812 26.601562 51.53125 26.386719 51.53125 C 26.015625 51.523438 25.398438 51.238281 25.183594 50.964844 C 24.695312 50.34375 24.824219 49.582031 25.359375 49.035156 C 25.515625 48.878906 25.535156 48.691406 25.535156 48.605469 C 25.535156 48.527344 25.429688 48.097656 25.304688 47.644531 C 25.03125 46.667969 24.523438 44.375 24.441406 43.71875 C 24.40625 43.457031 24.347656 43.203125 24.316406 43.152344 C 24.277344 43.09375 23.789062 43.214844 22.890625 43.523438 C 20.320312 44.402344 17.648438 45.070312 15.148438 45.480469 C 13.992188 45.675781 11.007812 45.695312 10.246094 45.519531 C 8.488281 45.117188 7.539062 44.230469 7.433594 42.902344 C 7.375 42.167969 7.570312 41.472656 8.125 40.429688 C 8.859375 39.050781 9.726562 37.957031 11.339844 36.347656 C 12.65625 35.039062 15.285156 32.859375 16.746094 31.867188 L 17.0625 31.652344 L 16.601562 31.316406 C 10.617188 26.980469 7.253906 22.996094 7.429688 20.46875 C 7.585938 18.339844 9.988281 17.394531 14.207031 17.804688 C 15.144531 17.902344 15.148438 17.902344 15.429688 17.6875 C 16.28125 17.042969 17.546875 17.265625 18.09375 18.152344 C 18.28125 18.464844 18.378906 18.535156 18.789062 18.632812 C 19.5625 18.820312 21.824219 19.492188 23.058594 19.902344 C 23.699219 20.109375 24.238281 20.265625 24.265625 20.242188 C 24.289062 20.214844 24.402344 19.746094 24.503906 19.191406 C 25.546875 13.582031 27.292969 9.523438 29.382812 7.800781 C 30.457031 6.914062 31.679688 6.691406 32.800781 7.175781 C 33.835938 7.625 35.050781 8.945312 35.988281 10.636719 C 36.660156 11.84375 37.566406 14.324219 38.125 16.492188 C 38.417969 17.605469 38.847656 19.679688 38.847656 19.960938 C 38.847656 20.070312 38.886719 20.1875 38.9375 20.214844 C 38.992188 20.246094 39.660156 20.058594 40.429688 19.804688 C 47.257812 17.53125 52.792969 17.109375 54.941406 18.683594 C 56.355469 19.726562 56.210938 21.808594 54.570312 24.109375 C 54.289062 24.503906 54.230469 24.65625 54.289062 24.824219 C 54.328125 24.949219 54.363281 25.320312 54.367188 25.644531 C 54.375 26.183594 54.347656 26.28125 54.101562 26.570312 C 53.71875 27.023438 53.117188 27.246094 52.46875 27.175781 C 51.980469 27.121094 51.941406 27.136719 51.699219 27.382812 C 51.25 27.859375 48.75 29.929688 47.585938 30.792969 C 46.960938 31.257812 46.445312 31.671875 46.445312 31.710938 C 46.445312 31.75 46.765625 32.019531 47.15625 32.304688 C 48.289062 33.132812 50.183594 34.6875 51.042969 35.5 C 54.988281 39.21875 56.53125 42.167969 55.507812 44.035156 C 54.519531 45.859375 51.0625 46.179688 45.597656 44.953125 C 44.207031 44.640625 40.886719 43.671875 39.699219 43.230469 C 39.316406 43.085938 38.972656 42.996094 38.933594 43.035156 C 38.894531 43.066406 38.769531 43.613281 38.660156 44.238281 C 37.664062 49.71875 35.996094 53.710938 33.964844 55.4375 C 33.660156 55.703125 33.195312 56.015625 32.9375 56.132812 C 32.335938 56.398438 31.492188 56.484375 30.945312 56.328125 Z M 32.214844 55.214844 C 34.492188 54.609375 36.4375 50.539062 37.570312 44.03125 C 37.703125 43.289062 37.773438 42.648438 37.734375 42.617188 C 37.695312 42.585938 37.050781 42.324219 36.296875 42.039062 C 35.546875 41.757812 34.199219 41.183594 33.308594 40.769531 L 31.679688 40.011719 L 30.144531 40.714844 C 28.835938 41.316406 27.382812 41.914062 25.792969 42.492188 C 25.488281 42.605469 25.441406 42.65625 25.441406 42.902344 C 25.441406 43.289062 25.671875 44.523438 26.054688 46.230469 C 26.542969 48.386719 26.554688 48.410156 27.019531 48.5625 C 27.53125 48.730469 27.824219 48.925781 28.054688 49.382812 C 28.289062 49.851562 28.273438 50.421875 27.902344 50.925781 C 27.589844 51.347656 27.585938 51.308594 28.292969 52.589844 C 29.152344 54.128906 30.046875 54.972656 31.105469 55.261719 C 31.472656 55.363281 31.691406 55.351562 32.214844 55.214844 Z M 52.566406 44.660156 C 53.273438 44.539062 54.042969 44.160156 54.34375 43.789062 C 54.726562 43.3125 54.832031 42.941406 54.777344 42.257812 C 54.675781 40.839844 53.359375 38.957031 50.8125 36.5625 C 49.316406 35.164062 45.632812 32.351562 45.359375 32.402344 C 45.28125 32.421875 44.621094 32.839844 43.898438 33.328125 C 43.171875 33.816406 41.933594 34.601562 41.152344 35.070312 L 39.734375 35.925781 L 39.621094 37.539062 C 39.558594 38.429688 39.421875 39.773438 39.308594 40.519531 C 39.207031 41.269531 39.132812 41.902344 39.160156 41.925781 C 39.269531 42.023438 41.707031 42.859375 43.191406 43.308594 C 47.3125 44.550781 50.535156 45.019531 52.566406 44.660156 Z M 14.367188 44.578125 C 16.757812 44.296875 19.914062 43.503906 23.132812 42.371094 C 23.839844 42.121094 24.121094 41.984375 24.121094 41.882812 C 24.121094 41.804688 24.035156 41.144531 23.933594 40.417969 C 23.835938 39.6875 23.699219 38.328125 23.632812 37.394531 L 23.523438 35.703125 L 22.996094 35.421875 C 22.078125 34.941406 19.953125 33.644531 19.015625 33 C 18.523438 32.65625 18.078125 32.375 18.039062 32.375 C 17.9375 32.375 17.410156 32.746094 16.003906 33.816406 C 14.550781 34.910156 12.355469 36.824219 11.378906 37.84375 C 8.007812 41.375 7.742188 43.894531 10.671875 44.53125 C 11.339844 44.675781 13.320312 44.699219 14.367188 44.578125 Z M 27.023438 40.925781 C 27.734375 40.644531 28.777344 40.195312 29.335938 39.933594 L 30.359375 39.464844 L 29.433594 39.03125 C 28.289062 38.496094 26.640625 37.644531 25.792969 37.148438 C 24.8125 36.574219 24.875 36.542969 24.875 37.605469 C 24.875 38.527344 24.96875 39.539062 25.167969 40.839844 C 25.292969 41.679688 25.144531 41.671875 27.023438 40.925781 Z M 38.039062 41.085938 C 38.378906 38.78125 38.546875 36.699219 38.390625 36.699219 C 38.339844 36.699219 38.269531 36.730469 38.234375 36.777344 C 38.152344 36.90625 35.300781 38.398438 34.101562 38.945312 C 33.496094 39.226562 32.996094 39.472656 32.996094 39.503906 C 32.996094 39.628906 37.507812 41.523438 37.820312 41.53125 C 37.9375 41.53125 37.988281 41.414062 38.039062 41.085938 Z M 33.320312 38.039062 C 34.863281 37.296875 36.980469 36.179688 38.035156 35.546875 L 38.535156 35.253906 L 38.59375 34.226562 C 38.671875 32.957031 38.660156 28.605469 38.574219 28.28125 C 38.527344 28.078125 38.253906 27.898438 36.921875 27.15625 C 36.046875 26.671875 35.320312 26.277344 35.304688 26.277344 C 35.292969 26.277344 34.796875 26.035156 34.207031 25.742188 C 32.226562 24.746094 31.867188 24.582031 31.71875 24.582031 C 31.359375 24.582031 26.789062 26.875 25.144531 27.878906 C 24.734375 28.125 24.695312 28.175781 24.636719 28.59375 C 24.523438 29.402344 24.628906 35.027344 24.757812 35.234375 C 24.863281 35.398438 26.554688 36.394531 27.78125 37.011719 C 29.5 37.882812 31.457031 38.816406 31.574219 38.816406 C 31.648438 38.816406 32.433594 38.46875 33.320312 38.039062 Z M 30.769531 34.09375 C 29.101562 33.554688 28.320312 31.835938 29.109375 30.449219 C 29.480469 29.804688 30.078125 29.386719 30.90625 29.191406 C 31.628906 29.03125 32.082031 29.082031 32.871094 29.421875 C 34.53125 30.136719 34.980469 32.160156 33.757812 33.417969 C 33.085938 34.101562 31.738281 34.402344 30.769531 34.09375 Z M 23.367188 31.652344 C 23.367188 29.402344 23.339844 28.820312 23.25 28.867188 C 22.507812 29.25 18.972656 31.589844 18.972656 31.691406 C 18.972656 31.730469 19.246094 31.953125 19.582031 32.175781 C 20.382812 32.722656 23.203125 34.480469 23.292969 34.484375 C 23.332031 34.492188 23.367188 33.214844 23.367188 31.652344 Z M 41.828125 33.332031 C 42.851562 32.6875 43.835938 32.042969 44.023438 31.886719 C 44.363281 31.621094 44.367188 31.613281 44.179688 31.484375 C 42.578125 30.371094 40.128906 28.816406 39.972656 28.816406 C 39.929688 28.816406 39.875 30.097656 39.863281 31.660156 C 39.851562 33.214844 39.871094 34.5 39.910156 34.5 C 39.941406 34.5 40.808594 33.972656 41.828125 33.332031 Z M 20.324219 29.480469 C 21.464844 28.742188 22.648438 28 22.960938 27.824219 L 23.535156 27.507812 L 23.59375 26.574219 C 23.683594 25.195312 23.828125 23.820312 23.996094 22.675781 C 24.226562 21.144531 24.269531 21.300781 23.457031 21.015625 C 22.539062 20.691406 19.621094 19.816406 18.816406 19.621094 L 18.191406 19.472656 L 17.898438 19.773438 C 17.316406 20.363281 16.417969 20.519531 15.695312 20.15625 C 15.320312 19.960938 14.941406 19.484375 14.832031 19.054688 C 14.777344 18.847656 14.734375 18.828125 14.0625 18.777344 C 12.84375 18.671875 11.027344 18.769531 10.398438 18.976562 C 7.371094 19.953125 8.273438 22.902344 12.882812 27.042969 C 13.738281 27.820312 15.078125 28.925781 15.859375 29.503906 C 17.9375 31.054688 17.902344 31.035156 18.097656 30.910156 C 18.191406 30.851562 19.191406 30.207031 20.324219 29.480469 Z M 46.4375 30.207031 C 47.890625 29.171875 48.742188 28.496094 50.058594 27.34375 L 51.121094 26.414062 L 51.0625 26.007812 C 50.976562 25.4375 51.085938 24.941406 51.417969 24.601562 C 51.808594 24.199219 52.179688 24.035156 52.753906 24.074219 L 53.242188 24.109375 L 53.691406 23.523438 C 54.6875 22.199219 55.050781 20.820312 54.617188 19.992188 C 54.367188 19.519531 54.140625 19.316406 53.527344 19.042969 C 52.003906 18.367188 48.917969 18.523438 45.125 19.460938 C 43.476562 19.871094 39.328125 21.152344 39.152344 21.308594 C 39.128906 21.335938 39.191406 22.039062 39.308594 22.863281 C 39.5 24.257812 39.695312 26.398438 39.695312 27.140625 C 39.695312 27.441406 39.734375 27.472656 40.519531 27.941406 C 41.894531 28.75 43.664062 29.875 44.464844 30.460938 C 44.875 30.761719 45.242188 31.007812 45.265625 31.015625 C 45.292969 31.015625 45.820312 30.65625 46.4375 30.207031 Z M 38.46875 26.242188 C 38.46875 25.195312 38.066406 21.785156 37.941406 21.785156 C 37.792969 21.785156 33.085938 23.835938 33.085938 23.898438 C 33.085938 23.925781 33.308594 24.035156 33.582031 24.148438 C 34.316406 24.453125 37.117188 25.90625 37.761719 26.320312 C 38.074219 26.523438 38.359375 26.6875 38.398438 26.691406 C 38.4375 26.699219 38.46875 26.496094 38.46875 26.242188 Z M 25.242188 26.457031 C 25.859375 26.074219 28.507812 24.675781 29.382812 24.277344 L 30.34375 23.835938 L 29.757812 23.542969 C 28.523438 22.929688 25.554688 21.757812 25.390625 21.816406 C 25.261719 21.863281 25.214844 22.117188 25.027344 23.816406 C 24.699219 26.757812 24.699219 26.789062 25.242188 26.457031 Z M 32.589844 22.8125 C 33.46875 22.421875 36.066406 21.367188 37.292969 20.90625 C 37.960938 20.65625 37.941406 20.839844 37.511719 18.5625 C 36.652344 13.996094 35.292969 10.546875 33.769531 9.070312 C 33.015625 8.332031 32.441406 8.058594 31.671875 8.058594 C 31.003906 8.058594 30.46875 8.28125 29.894531 8.796875 C 28.125 10.382812 26.660156 13.992188 25.734375 19.03125 C 25.476562 20.476562 25.460938 20.59375 25.574219 20.675781 C 25.632812 20.714844 26.355469 21.015625 27.1875 21.339844 C 28.019531 21.671875 29.355469 22.226562 30.164062 22.570312 C 30.964844 22.921875 31.632812 23.214844 31.648438 23.214844 C 31.667969 23.222656 32.089844 23.039062 32.589844 22.8125 Z "/>
</svg>
