<svg width="64" xmlns="http://www.w3.org/2000/svg" height="64" viewBox="0 0 64 64" xmlns:xlink="http://www.w3.org/1999/xlink">
<path style="fill:#d64c62" d="M 25.195312 16.328125 C 24.5 16.328125 23.820312 16.433594 23.171875 16.570312 C 21.007812 16.886719 18.398438 17.648438 15.683594 19.445312 C 8.953125 23.90625 6.085938 44.578125 7.136719 46.511719 C 8.183594 48.445312 17.605469 44.582031 22.539062 37.15625 C 22.910156 36.601562 23.273438 36.035156 23.601562 35.421875 C 24.113281 35.507812 24.65625 35.519531 25.195312 35.519531 L 38.816406 35.519531 C 39.160156 35.519531 39.441406 35.507812 39.777344 35.476562 C 40.089844 36.054688 40.441406 36.621094 40.792969 37.15625 C 45.730469 44.582031 55.148438 48.445312 56.199219 46.511719 C 57.246094 44.578125 54.382812 23.90625 47.648438 19.445312 C 45.714844 18.171875 43.847656 17.410156 42.140625 16.953125 C 41.992188 16.914062 41.863281 16.894531 41.710938 16.855469 C 40.789062 16.570312 39.832031 16.328125 38.816406 16.328125 Z M 42.238281 20.9375 C 42.429688 20.90625 42.636719 20.910156 42.820312 20.9375 C 43.074219 20.964844 43.3125 21.042969 43.546875 21.171875 C 44.464844 21.707031 44.753906 22.898438 44.21875 23.816406 C 43.683594 24.734375 42.539062 25.066406 41.613281 24.53125 C 40.691406 24.003906 40.359375 22.8125 40.890625 21.894531 C 41.191406 21.378906 41.6875 21.027344 42.238281 20.9375 Z M 19.695312 21.554688 L 21.476562 21.554688 L 21.476562 25.441406 L 25.339844 25.441406 L 25.339844 27.175781 L 21.476562 27.175781 L 21.476562 31.0625 L 19.695312 31.0625 L 19.695312 27.175781 L 15.828125 27.175781 L 15.828125 25.441406 L 19.695312 25.441406 Z M 47.3125 23.527344 C 47.558594 23.554688 47.804688 23.632812 48.035156 23.761719 C 48.957031 24.296875 49.289062 25.488281 48.761719 26.40625 C 48.230469 27.324219 47.023438 27.65625 46.105469 27.121094 C 45.183594 26.59375 44.894531 25.402344 45.429688 24.484375 C 45.828125 23.796875 46.5625 23.429688 47.3125 23.527344 Z M 39.679688 25.351562 C 39.871094 25.320312 40.070312 25.324219 40.261719 25.351562 C 40.507812 25.378906 40.753906 25.457031 40.984375 25.585938 C 41.90625 26.121094 42.195312 27.3125 41.660156 28.230469 C 41.125 29.148438 39.980469 29.480469 39.054688 28.945312 C 38.132812 28.417969 37.800781 27.226562 38.332031 26.308594 C 38.632812 25.792969 39.128906 25.441406 39.679688 25.351562 Z M 44.21875 27.941406 C 44.402344 27.910156 44.5625 27.917969 44.753906 27.941406 C 45 27.96875 45.246094 28.046875 45.476562 28.175781 C 46.398438 28.710938 46.730469 29.902344 46.199219 30.820312 C 45.671875 31.738281 44.464844 32.070312 43.546875 31.535156 C 42.625 31.007812 42.335938 29.816406 42.871094 28.898438 C 43.171875 28.386719 43.679688 28.035156 44.21875 27.941406 Z "/>
</svg>
