<svg width="64" xmlns="http://www.w3.org/2000/svg" height="64" viewBox="0 0 64 64" xmlns:xlink="http://www.w3.org/1999/xlink">
<g style="fill-rule:evenodd">
<path style="fill:#fff;stroke:#5b93d6;stroke-width:7.56" d="M 76.151349 33.441542 C 76.151349 33.441542 90.740577 31.973146 106.450839 34.388895 C 106.450839 34.388895 107.240299 37.309898 104.682447 38.178304 L 102.282488 62.635787 L 126.834706 176.160191 C 126.834706 176.160191 132.360929 190.481002 115.229638 193.575687 C 98.082559 196.686161 72.361939 201.454502 52.309645 185.917921 C 52.309645 185.917921 47.572883 179.918022 55.925374 152.397433 L 78.677622 63.030517 L 77.793427 38.288829 C 77.793427 38.288829 74.177698 34.767835 76.151349 33.441542 Z " transform="scale(.2474)"/>
<path style="fill:#d1d6cf;fill-opacity:.467" d="M 30.300781 45.535156 C 30.300781 46.609375 26.867188 47.472656 22.636719 47.472656 C 18.410156 47.472656 14.980469 46.609375 14.980469 45.535156 C 14.980469 44.460938 18.410156 43.585938 22.636719 43.585938 C 26.867188 43.585938 30.300781 44.460938 30.300781 45.535156 Z "/>
<path style="fill:#acc2e2" d="M 28.398438 37.390625 C 22.589844 40.515625 18.261719 39.617188 15.417969 38.007812 L 15.410156 38.039062 C 15.402344 38.066406 15.398438 38.085938 15.398438 38.105469 C 14.394531 41.414062 14.207031 43.351562 14.230469 44.363281 C 14.246094 44.734375 14.277344 44.949219 14.308594 45.089844 C 18.585938 48.136719 24.050781 47.179688 28.195312 46.433594 C 29.816406 46.140625 29.835938 45.714844 29.941406 45.1875 C 30.046875 44.660156 29.855469 44.074219 29.855469 44.074219 C 29.832031 44.011719 29.8125 43.9375 29.796875 43.867188 Z "/>
<path style="fill:#fff;stroke:#5b93d6;stroke-width:7.56" d="M 143.366006 70.893543 L 142.623914 50.478097 C 142.623914 50.478097 142.70286 47.8413 141.281831 47.051839 L 142.30813 44.715036 C 142.30813 44.715036 150.913248 42.820331 171.660267 45.283448 C 171.660267 45.283448 174.928633 45.078188 175.339152 47.920246 C 175.339152 47.920246 173.507604 49.81495 173.665496 53.051738 L 171.265537 72.425096 C 171.265537 72.425096 196.370377 165.344584 203.08079 203.664991 C 203.08079 203.664991 200.049262 219.612091 182.665345 222.390991 C 165.297216 225.185681 129.897812 232.638187 102.124596 209.238581 C 102.124596 209.238581 92.730017 202.954477 105.314016 176.033877 L 140.255533 80.177597 C 140.255533 80.177597 143.413374 75.235575 143.871261 73.577708 C 144.313359 71.919841 143.413374 71.083013 143.366006 70.893543 Z " transform="scale(.2474)"/>
<path style="fill:#d1d6cf;fill-opacity:.467" d="M 48.398438 51.394531 C 48.398438 53.117188 43.742188 54.511719 37.996094 54.511719 C 32.253906 54.511719 27.589844 53.117188 27.589844 51.394531 C 27.589844 49.667969 32.253906 48.269531 37.996094 48.269531 C 43.742188 48.269531 48.398438 49.667969 48.398438 51.394531 Z "/>
<g style="fill:#acc2e2">
<g style="fill-opacity:.6">
<path d="M 21.132812 9.882812 L 21.335938 15.535156 C 21.339844 15.683594 21.328125 15.832031 21.289062 15.984375 L 19.054688 24.753906 C 19.832031 24.8125 20.625 25.109375 21.417969 25.722656 C 22.929688 26.902344 24.347656 26.699219 25.625 25.761719 L 23.476562 15.828125 C 23.445312 15.664062 23.429688 15.5 23.445312 15.339844 L 23.972656 9.972656 C 22.929688 9.894531 21.953125 9.871094 21.152344 9.882812 C 21.144531 9.882812 21.140625 9.882812 21.132812 9.882812 Z "/>
<path d="M 37.902344 12.800781 C 37.695312 12.800781 37.558594 12.804688 37.382812 12.804688 L 37.53125 17.097656 C 37.695312 17.507812 37.765625 18.105469 37.609375 18.664062 C 37.394531 19.453125 37.167969 19.679688 36.941406 20.078125 C 36.769531 20.363281 36.6875 20.496094 36.613281 20.613281 L 32.128906 32.910156 C 34.816406 31.90625 37.589844 32.1875 39.5 35.761719 C 39.5 35.761719 43.066406 39.855469 42.175781 28.59375 C 42.089844 27.511719 42.136719 26.554688 42.285156 25.703125 C 41.164062 21.414062 40.351562 18.378906 40.351562 18.378906 C 40.285156 18.15625 40.273438 17.929688 40.300781 17.703125 L 40.886719 12.976562 C 39.699219 12.871094 38.660156 12.804688 37.902344 12.800781 Z M 37.265625 16.582031 C 37.273438 16.59375 37.285156 16.613281 37.304688 16.648438 C 37.304688 16.640625 37.296875 16.628906 37.296875 16.621094 C 37.265625 16.582031 37.246094 16.554688 37.265625 16.582031 Z M 37.316406 16.660156 C 37.335938 16.699219 37.355469 16.75 37.382812 16.789062 C 37.355469 16.730469 37.332031 16.691406 37.316406 16.660156 Z "/>
</g>
<path d="M 28.917969 41.113281 L 27.832031 44.089844 C 27.820312 44.132812 27.800781 44.179688 27.78125 44.226562 C 26.308594 47.371094 26.222656 49.121094 26.347656 49.910156 C 26.40625 50.292969 26.511719 50.457031 26.542969 50.5 C 32.675781 55.675781 40.4375 54.035156 44.871094 53.328125 C 47.558594 52.898438 48.195312 50.929688 48.332031 50.34375 C 47.949219 48.195312 47.332031 45.359375 46.613281 42.257812 C 38.644531 44.230469 32.832031 42.980469 28.917969 41.113281 Z "/>
</g>
</g>
</svg>
