<svg width="64" xmlns="http://www.w3.org/2000/svg" height="64" viewBox="0 0 64 64" xmlns:xlink="http://www.w3.org/1999/xlink">
<g style="fill:#ec86ab">
<path d="M 9.675781 6.925781 L 9.675781 39.914062 L 12.421875 39.914062 L 12.421875 6.925781 Z "/>
<path d="M 15.175781 41.289062 C 15.175781 43.5625 13.328125 45.410156 11.046875 45.410156 C 8.777344 45.410156 6.925781 43.5625 6.925781 41.289062 C 6.925781 39.011719 8.777344 37.160156 11.046875 37.160156 C 13.328125 37.160156 15.175781 39.011719 15.175781 41.289062 Z "/>
<path d="M 26.171875 56.40625 L 26.171875 15.175781 L 23.417969 15.175781 L 23.417969 56.40625 Z "/>
<path d="M 20.671875 13.800781 C 20.671875 11.523438 22.519531 9.675781 24.792969 9.675781 C 27.070312 9.675781 28.917969 11.523438 28.917969 13.800781 C 28.917969 16.074219 27.070312 17.921875 24.792969 17.921875 C 22.519531 17.921875 20.671875 16.074219 20.671875 13.800781 Z "/>
<path d="M 37.160156 6.925781 L 37.160156 37.160156 L 39.914062 37.160156 L 39.914062 6.925781 Z "/>
<path d="M 42.664062 38.535156 C 42.664062 40.8125 40.8125 42.664062 38.542969 42.664062 C 36.261719 42.664062 34.414062 40.8125 34.414062 38.535156 C 34.414062 36.261719 36.261719 34.414062 38.542969 34.414062 C 40.8125 34.414062 42.664062 36.261719 42.664062 38.535156 Z "/>
<path d="M 53.660156 56.40625 L 53.660156 34.414062 L 50.910156 34.414062 L 50.910156 56.40625 Z "/>
<path d="M 48.15625 33.039062 C 48.15625 30.761719 50.007812 28.917969 52.285156 28.917969 C 54.558594 28.917969 56.40625 30.761719 56.40625 33.039062 C 56.40625 35.320312 54.558594 37.167969 52.285156 37.167969 C 50.007812 37.167969 48.15625 35.320312 48.15625 33.039062 Z "/>
</g>
</svg>
