<svg width="64" xmlns="http://www.w3.org/2000/svg" height="64" viewBox="0 0 64 64" xmlns:xlink="http://www.w3.org/1999/xlink">
<path style="fill:#4c7686" d="M 27.328125 10.667969 L 27.328125 36.269531 C 25.53125 35.566406 23.179688 35.445312 20.757812 36.105469 C 16.222656 37.332031 13.1875 40.773438 13.984375 43.78125 C 14.78125 46.789062 19.105469 48.238281 23.636719 47.011719 C 27.488281 45.972656 30.246094 43.332031 30.5 40.714844 L 30.53125 40.714844 L 30.53125 21.886719 L 46.941406 23.921875 L 46.941406 42.15625 C 45.144531 41.453125 42.792969 41.332031 40.367188 41.988281 C 35.835938 43.214844 32.796875 46.65625 33.597656 49.664062 C 34.394531 52.671875 38.714844 54.125 43.25 52.898438 C 47.097656 51.855469 49.855469 49.214844 50.113281 46.601562 L 50.144531 46.601562 L 50.144531 13.703125 Z M 30.53125 16.828125 L 46.941406 19.140625 L 46.941406 21.210938 L 30.53125 19.171875 Z "/>
</svg>
