<svg width="64" xmlns="http://www.w3.org/2000/svg" height="64" viewBox="0 0 64 64" xmlns:xlink="http://www.w3.org/1999/xlink">
<path style="fill:none;stroke:#6aaf53;stroke-linejoin:round;stroke-linecap:round;stroke-width:2" d="M 10.541016 1021.363177 L 37.458984 1021.363177 C 38.311523 1021.363177 39 1022.051653 39 1022.901263 L 39 1033.823138 C 39 1034.672747 38.311523 1035.361223 37.458984 1035.361223 L 10.541016 1035.361223 C 9.688477 1035.361223 9 1034.672747 9 1033.823138 L 9 1022.901263 C 9 1022.051653 9.688477 1021.363177 10.541016 1021.363177 Z " transform="matrix(1.33333 0 0 1.33333 0 -1339.1496)"/>
<path style="fill:#6aaf53" d="M 15.332031 25.332031 C 14.964844 25.332031 14.667969 25.628906 14.667969 26 L 14.667969 38 C 14.667969 38.371094 14.964844 38.667969 15.332031 38.667969 L 31.40625 38.667969 C 31.773438 38.667969 32.070312 38.371094 32.070312 38 L 32.070312 26 C 32.070312 25.628906 31.773438 25.332031 31.40625 25.332031 Z M 20 34.667969 L 20 29.332031 L 21.332031 29.332031 L 21.332031 34.667969 Z M 22.667969 34.667969 L 22.667969 29.332031 L 24 29.332031 L 24 34.667969 Z M 25.332031 34.667969 L 25.332031 29.332031 L 26.667969 29.332031 L 26.667969 34.667969 Z "/>
</svg>
