<svg width="64" xmlns="http://www.w3.org/2000/svg" height="64" viewBox="0 0 64 64" xmlns:xlink="http://www.w3.org/1999/xlink">
<path style="fill:#9cc7cf" d="M 33.410156 41.492188 C 33.289062 37.003906 34.296875 32.648438 38.574219 29.558594 C 43.085938 26.066406 47.429688 21.699219 46.972656 16.554688 C 46.867188 11.589844 41.042969 7.695312 34.765625 7.136719 C 27.703125 6.164062 19.152344 8.566406 16.785156 14.042969 C 15.585938 16.707031 16.699219 21.484375 20.730469 21.484375 C 23.085938 21.484375 24.167969 19.972656 24.34375 18.59375 C 24.480469 17.546875 24.042969 16.613281 23.789062 15.75 C 23.496094 14.765625 24.738281 12.859375 26.09375 12.078125 C 27.226562 11.433594 28.410156 11.210938 28.582031 11.171875 C 32.644531 10.203125 36.691406 12.34375 38.378906 14.949219 C 40.070312 17.550781 38.210938 21.496094 35.539062 25.34375 C 32.863281 29.1875 30 33.546875 30.007812 38.183594 C 30.007812 39.949219 29.851562 40.546875 29.960938 41.257812 C 30.050781 41.828125 31.953125 41.757812 33.410156 41.492188 Z M 31.554688 47.53125 C 27.675781 47.324219 24.988281 51.691406 27.316406 54.480469 C 29.402344 57.550781 35.246094 56.789062 36.242188 53.3125 C 37.285156 50.605469 34.785156 47.488281 31.554688 47.53125 Z "/>
</svg>
