<svg width="47.5" xmlns="http://www.w3.org/2000/svg" height="47.5" viewBox="0 0 38 38" xmlns:xlink="http://www.w3.org/1999/xlink">
<g style="stroke:#ff4545">
<g>
<path style="fill:none;stroke-width:8" d="M 65.105263 39.131579 L 198.157895 39.131579 C 210.710526 39.131579 220.868421 49.289474 220.868421 61.842105 L 220.868421 194.157895 C 220.868421 206.684211 210.710526 216.868421 198.157895 216.868421 L 65.105263 216.868421 C 52.578947 216.868421 42.394737 206.684211 42.394737 194.157895 L 42.394737 61.842105 C 42.394737 49.289474 52.578947 39.131579 65.105263 39.131579 Z " transform="scale(.14844)"/>
</g>
<g style="stroke-dasharray:0,159;stroke-linecap:round">
<path style="stroke-width:119" d="M 436.962653 117.014821 L -0.01181 117.014821 M 436.962653 439.986881 L -0.01181 439.986881 " transform="matrix(.04816 0 0 .04797 6.12557 5.64099)"/>
<path style="stroke-width:109" d="M 436.962653 117.014821 L -0.01181 117.014821 M 436.962653 439.986881 L -0.01181 439.986881 " transform="matrix(.04816 0 0 .04797 6.12557 5.64099)"/>
</g>
</g>
</svg>
