<svg width="47.5" xmlns="http://www.w3.org/2000/svg" height="47.5" viewBox="0 0 38 38" xmlns:xlink="http://www.w3.org/1999/xlink">
<path style="fill:none;stroke:#92c8dd;stroke-linecap:round;stroke-width:8.073" d="M 34.394737 32.026316 L 221.605263 32.026316 C 222.921053 32.026316 223.973684 33.078947 223.973684 34.394737 L 223.973684 221.605263 C 223.973684 222.921053 222.921053 223.973684 221.605263 223.973684 L 34.394737 223.973684 C 33.078947 223.973684 32.026316 222.921053 32.026316 221.605263 L 32.026316 34.394737 C 32.026316 33.078947 33.078947 32.026316 34.394737 32.026316 Z " transform="scale(.14844)"/>
<g style="fill:#92c8dd">
<g>
<path d="M 15.511719 9.675781 C 14.984375 11.003906 14.460938 12.332031 13.933594 13.664062 L 17.089844 13.664062 Z M 14.855469 8.609375 L 16.171875 8.609375 C 17.261719 11.277344 18.351562 13.949219 19.441406 16.617188 L 18.234375 16.617188 C 17.976562 15.933594 17.714844 15.246094 17.453125 14.5625 L 13.585938 14.5625 C 13.324219 15.246094 13.0625 15.933594 12.804688 16.617188 L 11.578125 16.617188 C 12.671875 13.949219 13.761719 11.277344 14.855469 8.609375 Z M 23.570312 13.597656 C 22.894531 13.625 22.109375 13.578125 21.578125 14.03125 C 21.03125 14.617188 21.300781 15.730469 22.171875 15.890625 C 23.019531 16.113281 24.011719 15.738281 24.367188 14.964844 C 24.566406 14.566406 24.695312 13.980469 24.589844 13.597656 Z M 25.679688 13.191406 L 25.679688 16.617188 L 24.621094 16.617188 L 24.621094 15.707031 C 24.183594 16.441406 23.273438 16.808594 22.398438 16.773438 C 21.464844 16.824219 20.472656 16.273438 20.296875 15.378906 C 20.074219 14.515625 20.429688 13.457031 21.375 13.113281 C 22.398438 12.699219 23.535156 12.855469 24.621094 12.824219 C 24.695312 12.183594 24.242188 11.546875 23.5625 11.394531 C 22.605469 11.171875 21.570312 11.363281 20.710938 11.796875 C 20.710938 11.492188 20.710938 11.1875 20.710938 10.882812 C 21.902344 10.464844 23.308594 10.238281 24.488281 10.785156 C 25.425781 11.238281 25.691406 12.285156 25.679688 13.191406 Z "/>
</g>
<g style="fill-opacity:.6">
<path d="M 11.578125 18.257812 L 13.445312 18.257812 L 13.445312 19 L 11.578125 19 Z "/>
<path d="M 13.703125 18.257812 L 15.464844 18.257812 L 15.464844 19 L 13.703125 19 Z "/>
<path d="M 15.71875 18.257812 L 17.273438 18.257812 L 17.273438 19 L 15.71875 19 Z "/>
<path d="M 17.527344 18.257812 L 18.207031 18.257812 L 18.207031 19 L 17.527344 19 Z "/>
<path d="M 18.460938 18.257812 L 19.988281 18.257812 L 19.988281 19 L 18.460938 19 Z "/>
<path d="M 20.242188 18.257812 L 24.195312 18.257812 L 24.195312 19 L 20.242188 19 Z "/>
<path d="M 11.578125 22.710938 L 13.445312 22.710938 L 13.445312 23.453125 L 11.578125 23.453125 Z "/>
<path d="M 13.703125 22.710938 L 15.464844 22.710938 L 15.464844 23.453125 L 13.703125 23.453125 Z "/>
<path d="M 15.71875 22.710938 L 17.273438 22.710938 L 17.273438 23.453125 L 15.71875 23.453125 Z "/>
<path d="M 17.527344 22.710938 L 18.207031 22.710938 L 18.207031 23.453125 L 17.527344 23.453125 Z "/>
<path d="M 18.460938 22.710938 L 19.988281 22.710938 L 19.988281 23.453125 L 18.460938 23.453125 Z "/>
<path d="M 20.242188 22.710938 L 24.195312 22.710938 L 24.195312 23.453125 L 20.242188 23.453125 Z "/>
<path d="M 11.578125 19.742188 L 14.394531 19.742188 L 14.394531 20.484375 L 11.578125 20.484375 Z "/>
<path d="M 14.652344 19.742188 L 16.007812 19.742188 L 16.007812 20.484375 L 14.652344 20.484375 Z "/>
<path d="M 16.265625 19.742188 L 16.902344 19.742188 L 16.902344 20.484375 L 16.265625 20.484375 Z "/>
<path d="M 17.15625 19.742188 L 18.382812 19.742188 L 18.382812 20.484375 L 17.15625 20.484375 Z "/>
<path d="M 18.640625 19.742188 L 19.867188 19.742188 L 19.867188 20.484375 L 18.640625 20.484375 Z "/>
<path d="M 20.125 19.742188 L 22.09375 19.742188 L 22.09375 20.484375 L 20.125 20.484375 Z "/>
<path d="M 22.351562 19.742188 L 24.9375 19.742188 L 24.9375 20.484375 L 22.351562 20.484375 Z "/>
<path d="M 11.578125 21.226562 L 14.867188 21.226562 L 14.867188 21.96875 L 11.578125 21.96875 Z "/>
<path d="M 15.125 21.226562 L 18.652344 21.226562 L 18.652344 21.96875 L 15.125 21.96875 Z "/>
<path d="M 18.910156 21.226562 L 20.316406 21.226562 L 20.316406 21.96875 L 18.910156 21.96875 Z "/>
<path d="M 20.578125 21.226562 L 23.894531 21.226562 L 23.894531 21.96875 L 20.578125 21.96875 Z "/>
<path d="M 24.152344 21.226562 L 26.421875 21.226562 L 26.421875 21.96875 L 24.152344 21.96875 Z "/>
<path d="M 11.578125 27.164062 L 14.867188 27.164062 L 14.867188 27.90625 L 11.578125 27.90625 Z "/>
<path d="M 15.125 27.164062 L 18.652344 27.164062 L 18.652344 27.90625 L 15.125 27.90625 Z "/>
<path d="M 18.910156 27.164062 L 20.316406 27.164062 L 20.316406 27.90625 L 18.910156 27.90625 Z "/>
<path d="M 20.578125 27.164062 L 23.894531 27.164062 L 23.894531 27.90625 L 20.578125 27.90625 Z "/>
<path d="M 24.152344 27.164062 L 26.421875 27.164062 L 26.421875 27.90625 L 24.152344 27.90625 Z "/>
<path d="M 11.578125 24.195312 L 13.898438 24.195312 L 13.898438 24.9375 L 11.578125 24.9375 Z "/>
<path d="M 14.144531 24.195312 L 17.996094 24.195312 L 17.996094 24.9375 L 14.144531 24.9375 Z "/>
<path d="M 18.242188 24.195312 L 20.101562 24.195312 L 20.101562 24.9375 L 18.242188 24.9375 Z "/>
<path d="M 22.328125 24.195312 L 23.804688 24.195312 L 23.804688 24.9375 L 22.328125 24.9375 Z "/>
<path d="M 24.050781 24.195312 L 26.421875 24.195312 L 26.421875 24.9375 L 24.050781 24.9375 Z "/>
<path d="M 20.347656 24.195312 L 22.082031 24.195312 L 22.082031 24.9375 L 20.347656 24.9375 Z "/>
<path d="M 11.578125 25.679688 L 14.636719 25.679688 L 14.636719 26.421875 L 11.578125 26.421875 Z "/>
<path d="M 14.890625 25.679688 L 15.851562 25.679688 L 15.851562 26.421875 L 14.890625 26.421875 Z "/>
<path d="M 16.105469 25.679688 L 18.304688 25.679688 L 18.304688 26.421875 L 16.105469 26.421875 Z "/>
<path d="M 18.554688 25.679688 L 20.054688 25.679688 L 20.054688 26.421875 L 18.554688 26.421875 Z "/>
<path d="M 20.308594 25.679688 L 21.808594 25.679688 L 21.808594 26.421875 L 20.308594 26.421875 Z "/>
<path d="M 22.0625 25.679688 L 24.234375 25.679688 L 24.234375 26.421875 L 22.0625 26.421875 Z "/>
<path d="M 24.484375 25.679688 L 24.9375 25.679688 L 24.9375 26.421875 L 24.484375 26.421875 Z "/>
<path d="M 11.578125 28.648438 L 12.789062 28.648438 L 12.789062 29.390625 L 11.578125 29.390625 Z "/>
<path d="M 13.105469 28.648438 L 17.515625 28.648438 L 17.515625 29.390625 L 13.105469 29.390625 Z "/>
</g>
</g>
</svg>
