<svg width="47.5" xmlns="http://www.w3.org/2000/svg" height="47.5" viewBox="0 0 38 38" xmlns:xlink="http://www.w3.org/1999/xlink">
<g style="fill:#52c9ff">
<path d="M 5.9375 12.503906 L 5.96875 14.359375 L 32.132812 14.359375 L 32.105469 12.503906 Z "/>
<path d="M 4.851562 18.070312 L 4.851562 19.925781 L 33.148438 19.925781 L 33.148438 18.070312 Z "/>
<path d="M 6.011719 23.636719 L 6.011719 25.492188 L 31.988281 25.492188 L 31.988281 23.636719 Z "/>
<path d="M 18.070312 4.859375 L 18.070312 33.171875 L 19.929688 33.171875 L 19.929688 4.859375 Z "/>
</g>
<g style="stroke:#52c9ff;fill:none">
<g style="stroke-width:12.5">
<path d="M 89.763158 7.736842 C 66.894737 -44.763158 68.631579 -110.631579 89.763158 -168.052632 " transform="matrix(.14844 0 0 .14844 0 30.875)"/>
<path d="M 166.236842 7.736842 C 189.105263 -44.763158 187.368421 -110.631579 166.236842 -168.052632 " transform="matrix(.14844 0 0 .14844 0 30.875)"/>
</g>
<g>
<path style="stroke-linecap:round;stroke-width:1.214" d="M 33.05597 27.317132 C 33.05597 32.346374 28.982489 36.419855 23.953247 36.419855 C 18.924005 36.419855 14.847968 32.346374 14.847968 27.317132 C 14.847968 22.28789 18.924005 18.211853 23.953247 18.211853 C 28.982489 18.211853 33.05597 22.28789 33.05597 27.317132 Z " transform="matrix(1.52856 0 0 1.52856 -17.61398 -22.75589)"/>
</g>
</g>
</svg>
