<svg width="47.5" xmlns="http://www.w3.org/2000/svg" height="47.5" viewBox="0 0 38 38" xmlns:xlink="http://www.w3.org/1999/xlink">
<path style="fill:#d64c63" d="M 15.117188 9.796875 C 14.699219 9.796875 14.292969 9.859375 13.902344 9.941406 C 12.605469 10.132812 11.039062 10.589844 9.410156 11.667969 C 5.371094 14.34375 3.652344 26.746094 4.28125 27.90625 C 4.910156 29.066406 10.5625 26.75 13.523438 22.292969 C 13.746094 21.960938 13.964844 21.621094 14.160156 21.253906 C 14.46875 21.304688 14.792969 21.3125 15.117188 21.3125 L 23.289062 21.3125 C 23.496094 21.3125 23.664062 21.304688 23.867188 21.285156 C 24.054688 21.632812 24.265625 21.972656 24.476562 22.292969 C 27.4375 26.75 33.089844 29.066406 33.71875 27.90625 C 34.347656 26.746094 32.628906 14.34375 28.589844 11.667969 C 27.429688 10.902344 26.308594 10.445312 25.285156 10.171875 C 25.195312 10.148438 25.117188 10.136719 25.027344 10.113281 C 24.472656 9.941406 23.898438 9.796875 23.289062 9.796875 Z M 25.34375 12.5625 C 25.457031 12.542969 25.582031 12.546875 25.691406 12.5625 C 25.84375 12.578125 25.988281 12.625 26.128906 12.703125 C 26.679688 13.023438 26.851562 13.738281 26.53125 14.289062 C 26.210938 14.839844 25.523438 15.039062 24.96875 14.71875 C 24.414062 14.402344 24.214844 13.6875 24.535156 13.136719 C 24.714844 12.828125 25.011719 12.617188 25.34375 12.5625 Z M 11.816406 12.933594 L 12.886719 12.933594 L 12.886719 15.265625 L 15.203125 15.265625 L 15.203125 16.304688 L 12.886719 16.304688 L 12.886719 18.636719 L 11.816406 18.636719 L 11.816406 16.304688 L 9.496094 16.304688 L 9.496094 15.265625 L 11.816406 15.265625 Z M 28.386719 14.117188 C 28.535156 14.132812 28.683594 14.179688 28.820312 14.257812 C 29.375 14.578125 29.574219 15.292969 29.257812 15.84375 C 28.9375 16.394531 28.214844 16.59375 27.664062 16.273438 C 27.109375 15.957031 26.9375 15.242188 27.257812 14.691406 C 27.496094 14.277344 27.9375 14.058594 28.386719 14.117188 Z M 23.808594 15.210938 C 23.921875 15.191406 24.042969 15.195312 24.15625 15.210938 C 24.304688 15.226562 24.453125 15.273438 24.589844 15.351562 C 25.144531 15.671875 25.316406 16.386719 24.996094 16.9375 C 24.675781 17.488281 23.988281 17.6875 23.433594 17.367188 C 22.878906 17.050781 22.679688 16.335938 23 15.785156 C 23.179688 15.476562 23.476562 15.265625 23.808594 15.210938 Z M 26.53125 16.765625 C 26.640625 16.746094 26.738281 16.75 26.851562 16.765625 C 27 16.78125 27.148438 16.828125 27.285156 16.90625 C 27.839844 17.226562 28.039062 17.941406 27.71875 18.492188 C 27.402344 19.042969 26.679688 19.242188 26.128906 18.921875 C 25.574219 18.605469 25.402344 17.890625 25.722656 17.339844 C 25.902344 17.03125 26.207031 16.820312 26.53125 16.765625 Z "/>
</svg>
