<svg width="47.5" xmlns="http://www.w3.org/2000/svg" height="47.5" viewBox="0 0 38 38" xmlns:xlink="http://www.w3.org/1999/xlink">
<g style="stroke:#559ca5;stroke-width:4.545;fill:#559ca5">
<g>
<path d="M 69.157895 106.236842 C 70.789474 113.789474 71.710526 119.473684 70.368421 127.026316 C 60.078947 135.394737 33.763158 139.157895 33.815789 147.815789 L 30.263158 173.789474 C 30.263158 182.394737 54.815789 189.368421 85.078947 189.368421 C 115.342105 189.368421 139.868421 182.394737 139.868421 173.789474 L 136.342105 147.815789 C 136.289474 140.394737 109.815789 135.684211 99.657895 127.026316 C 98.789474 120.026316 99.473684 113.236842 100.973684 106.236842 Z " transform="scale(.14844)"/>
<path d="M 84.815789 57.552632 C 72.263158 57.552632 62.078947 67.342105 62.078947 79.394737 C 62.184211 83.868421 62.552632 89.184211 65.131579 101.263158 C 66.631579 105.947368 80.157895 119.368421 80.263158 120.921053 C 83.210526 122.473684 87.842105 122.473684 90.868421 120.921053 C 90.868421 119.368421 103 105.947368 104.526316 101.263158 C 107.394737 88.710526 107.394737 84.105263 107.552632 79.394737 C 107.552632 67.342105 97.368421 57.552632 84.815789 57.552632 Z " transform="scale(.14844)"/>
</g>
<g style="stroke-linejoin:round">
<path d="M 132.736842 71.184211 C 125.078947 66.631579 112.631579 34.947368 114.552632 48.447368 L 119.105263 80.263158 Z " transform="scale(.14844)"/>
<path d="M 178 71.184211 C 185.684211 66.631579 198.105263 34.947368 196.184211 48.447368 L 191.631579 80.263158 Z " transform="scale(.14844)"/>
</g>
<g>
<path d="M 134.815789 107.552632 C 136.921053 117.447368 138.078947 124.921053 136.368421 134.815789 C 123.157895 145.789474 89.315789 150.736842 89.368421 162.078947 L 84.815789 196.184211 C 84.815789 207.473684 116.368421 216.631579 155.263158 216.631579 C 194.184211 216.631579 225.736842 207.473684 225.736842 196.184211 L 221.184211 162.078947 C 221.131579 152.368421 187.078947 146.184211 174.026316 134.815789 C 172.894737 125.631579 173.789474 116.736842 175.736842 107.552632 Z " transform="scale(.14844)"/>
<path d="M 155.263158 39.368421 C 136.447368 39.368421 121.184211 53.605263 121.184211 71.184211 C 121.342105 77.684211 121.894737 85.421053 125.736842 103 C 128 109.815789 148.263158 128 148.447368 130.263158 C 152.868421 132.552632 159.815789 132.552632 164.368421 130.263158 C 164.368421 128 182.552632 109.815789 184.815789 103 C 189.131579 84.710526 189.131579 78 189.368421 71.184211 C 189.368421 53.605263 174.105263 39.368421 155.263158 39.368421 Z " transform="scale(.14844)"/>
</g>
</g>
</svg>
