<svg width="47.5" xmlns="http://www.w3.org/2000/svg" height="47.5" viewBox="0 0 38 38" xmlns:xlink="http://www.w3.org/1999/xlink">
<defs>
<clipPath id="clip3">
<rect width="38" height="38"/>
</clipPath>
<clipPath id="clip1">
<rect width="38" height="38"/>
</clipPath>
<clipPath id="clip5">
<rect width="38" height="38"/>
</clipPath>
<clipPath id="clip2">
<rect width="38" height="38"/>
</clipPath>
<clipPath id="clip4">
<rect width="38" height="38"/>
</clipPath>
<filter width="100%" x="0" y="0" height="100%" filterUnits="objectBoundingBox" id="alpha">
<feColorMatrix values="0 0 0 0 1 0 0 0 0 1 0 0 0 0 1 0 0 0 1 0" in="SourceGraphic" type="matrix"/>
</filter>
<g style="clip-path:url(#clip2)" id="surface9">
<path style="fill:none;stroke:#fff;stroke-width:5.262" d="M 118.157895 93.789474 L 207.605263 93.789474 " transform="scale(.14844)"/>
</g>
<g style="clip-path:url(#clip5)" id="surface18">
<path style="fill:none;stroke:#fff;stroke-width:5.262" d="M 107.631579 188.5 L 197.078947 188.5 " transform="scale(.14844)"/>
</g>
<g style="clip-path:url(#clip1)" id="surface6">
<path style="fill:none;stroke:#fff;stroke-width:5.262" d="M 107.631579 62.236842 L 197.078947 62.236842 " transform="scale(.14844)"/>
</g>
<g style="clip-path:url(#clip3)" id="surface12">
<path style="fill:none;stroke:#fff;stroke-width:5.262" d="M 118.157895 125.368421 L 207.605263 125.368421 " transform="scale(.14844)"/>
</g>
<g style="clip-path:url(#clip4)" id="surface15">
<path style="fill:none;stroke:#fff;stroke-width:5.262" d="M 107.631579 156.947368 L 197.078947 156.947368 " transform="scale(.14844)"/>
</g>
<linearGradient gradientTransform="matrix(11.46713 0 0 2.41418 2.3936 -8.80389)" id="linear0" x1="8.718" gradientUnits="userSpaceOnUse" x2="17.436">
<stop offset="0" style="stop-color:#fff"/>
<stop offset="1" style="stop-color:#fff;stop-opacity:0"/>
</linearGradient>
<mask id="mask3">
<g style="filter:url(#alpha)">
<rect width="38" x="0" y="0" height="38" style="fill-opacity:.4"/>
</g>
</mask>
<mask id="mask4">
<g style="filter:url(#alpha)">
<rect width="38" x="0" y="0" height="38" style="fill-opacity:.4"/>
</g>
</mask>
<mask id="mask1">
<g style="filter:url(#alpha)">
<rect width="38" x="0" y="0" height="38" style="fill-opacity:.4"/>
</g>
</mask>
<mask id="mask0">
<g style="filter:url(#alpha)">
<rect width="38" x="0" y="0" height="38" style="fill-opacity:.4"/>
</g>
</mask>
<mask id="mask2">
<g style="filter:url(#alpha)">
<rect width="38" x="0" y="0" height="38" style="fill-opacity:.4"/>
</g>
</mask>
</defs>
<g style="fill:none;stroke:#ca9a69">
<path style="stroke-linecap:round;stroke-width:8.073" d="M 34.394737 32.026316 L 221.605263 32.026316 C 222.921053 32.026316 223.973684 33.078947 223.973684 34.394737 L 223.973684 221.605263 C 223.973684 222.921053 222.921053 223.973684 221.605263 223.973684 L 34.394737 223.973684 C 33.078947 223.973684 32.026316 222.921053 32.026316 221.605263 L 32.026316 34.394737 C 32.026316 33.078947 33.078947 32.026316 34.394737 32.026316 Z " transform="scale(.14844)"/>
<path style="stroke-opacity:.6;stroke-linejoin:bevel;stroke-width:5.321;stroke-miterlimit:6.4" d="M 47.263158 30.657895 L 47.131579 225.342105 " transform="scale(.14844)"/>
</g>
<use style="mask:url(#mask0)" xlink:href="#surface6"/>
<path style="fill:#ca9a69;stroke:#ca9a69;stroke-linecap:square;stroke-width:2.631" d="M 81.315789 56.973684 L 91.842105 56.973684 C 93.289474 56.973684 94.473684 58.131579 94.473684 59.605263 L 94.473684 70.131579 C 94.473684 71.578947 93.289474 72.763158 91.842105 72.763158 L 81.315789 72.763158 C 79.868421 72.763158 78.684211 71.578947 78.684211 70.131579 L 78.684211 59.605263 C 78.684211 58.131579 79.868421 56.973684 81.315789 56.973684 Z M 107.210526 56.973684 C 106 57.052632 104.973684 57.973684 105 59 L 105 70.736842 C 104.973684 71.789474 106.157895 72.763158 107.421053 72.763158 L 197.263158 72.763158 C 198.552632 72.763158 199.710526 71.789474 199.710526 70.736842 L 199.710526 59 C 199.710526 57.921053 198.552632 56.947368 197.263158 56.973684 L 107.447368 56.973684 C 107.368421 56.973684 107.289474 56.973684 107.210526 56.973684 Z " transform="scale(.14844)"/>
<use style="mask:url(#mask1)" xlink:href="#surface9"/>
<path style="fill:#ca9a69;stroke:#ca9a69;stroke-linecap:square;stroke-width:2.631" d="M 91.842105 88.526316 L 102.368421 88.526316 C 103.815789 88.526316 105 89.710526 105 91.157895 L 105 101.684211 C 105 103.157895 103.815789 104.315789 102.368421 104.315789 L 91.842105 104.315789 C 90.394737 104.315789 89.210526 103.157895 89.210526 101.684211 L 89.210526 91.157895 C 89.210526 89.710526 90.394737 88.526316 91.842105 88.526316 Z M 117.736842 88.526316 C 116.526316 88.631579 115.5 89.552632 115.526316 90.552632 L 115.526316 102.289474 C 115.5 103.368421 116.684211 104.342105 117.947368 104.315789 L 207.789474 104.315789 C 209.078947 104.342105 210.236842 103.368421 210.236842 102.289474 L 210.236842 90.552632 C 210.236842 89.5 209.078947 88.526316 207.789474 88.526316 L 117.973684 88.526316 C 117.894737 88.526316 117.815789 88.526316 117.736842 88.526316 Z " transform="scale(.14844)"/>
<use style="mask:url(#mask2)" xlink:href="#surface12"/>
<path style="fill:#ca9a69;stroke:#ca9a69;stroke-linecap:square;stroke-width:2.631" d="M 91.842105 120.105263 L 102.368421 120.105263 C 103.815789 120.105263 105 121.289474 105 122.736842 L 105 133.263158 C 105 134.710526 103.815789 135.894737 102.368421 135.894737 L 91.842105 135.894737 C 90.394737 135.894737 89.210526 134.710526 89.210526 133.263158 L 89.210526 122.736842 C 89.210526 121.289474 90.394737 120.105263 91.842105 120.105263 Z M 117.736842 120.105263 C 116.526316 120.184211 115.5 121.131579 115.526316 122.131579 L 115.526316 133.868421 C 115.5 134.921053 116.684211 135.894737 117.947368 135.894737 L 207.789474 135.894737 C 209.078947 135.894737 210.236842 134.921053 210.236842 133.868421 L 210.236842 122.131579 C 210.236842 121.078947 209.078947 120.105263 207.789474 120.105263 L 117.973684 120.105263 C 117.894737 120.105263 117.815789 120.105263 117.736842 120.105263 Z " transform="scale(.14844)"/>
<use style="mask:url(#mask3)" xlink:href="#surface15"/>
<g style="fill:#ca9a69;stroke-linecap:square">
<path style="stroke:#ca9a69;stroke-width:2.631" d="M 81.315789 151.684211 L 91.842105 151.684211 C 93.289474 151.684211 94.473684 152.842105 94.473684 154.315789 L 94.473684 164.842105 C 94.473684 166.289474 93.289474 167.447368 91.842105 167.447368 L 81.315789 167.447368 C 79.868421 167.447368 78.684211 166.289474 78.684211 164.842105 L 78.684211 154.315789 C 78.684211 152.842105 79.868421 151.684211 81.315789 151.684211 Z M 107.210526 151.684211 C 106 151.763158 104.973684 152.684211 105 153.684211 L 105 165.447368 C 104.973684 166.5 106.157895 167.473684 107.421053 167.447368 L 197.263158 167.447368 C 198.552632 167.473684 199.710526 166.5 199.710526 165.447368 L 199.710526 153.684211 C 199.710526 152.631579 198.552632 151.657895 197.263158 151.684211 L 107.447368 151.684211 C 107.368421 151.684211 107.289474 151.684211 107.210526 151.684211 Z " transform="scale(.14844)"/>
<path style="stroke:url(#linear0);stroke-width:5.262" d="M 107.210526 183.236842 C 106 183.315789 104.973684 184.263158 105 185.263158 L 105 197 C 104.973684 198.078947 106.157895 199.026316 107.421053 199.026316 L 197.263158 199.026316 C 198.552632 199.026316 199.710526 198.078947 199.710526 197 L 199.710526 185.263158 C 199.710526 184.210526 198.552632 183.236842 197.263158 183.236842 L 107.447368 183.236842 C 107.368421 183.236842 107.289474 183.236842 107.210526 183.236842 Z " transform="scale(.14844)"/>
</g>
<use style="mask:url(#mask4)" xlink:href="#surface18"/>
<g style="stroke:#ca9a69">
<g>
<path style="fill:#ca9a69;stroke-linecap:square;stroke-width:2.631" d="M 81.315789 183.236842 L 91.842105 183.236842 C 93.289474 183.236842 94.473684 184.421053 94.473684 185.868421 L 94.473684 196.394737 C 94.473684 197.868421 93.289474 199.026316 91.842105 199.026316 L 81.315789 199.026316 C 79.868421 199.026316 78.684211 197.868421 78.684211 196.394737 L 78.684211 185.868421 C 78.684211 184.421053 79.868421 183.236842 81.315789 183.236842 Z M 107.210526 183.236842 C 106 183.315789 104.973684 184.263158 105 185.263158 L 105 197 C 104.973684 198.078947 106.157895 199.052632 107.421053 199.026316 L 197.263158 199.026316 C 198.552632 199.052632 199.710526 198.078947 199.710526 197 L 199.710526 185.263158 C 199.710526 184.210526 198.552632 183.236842 197.263158 183.236842 L 107.447368 183.236842 C 107.368421 183.236842 107.289474 183.236842 107.210526 183.236842 Z " transform="scale(.14844)"/>
</g>
<g style="stroke-opacity:.6;fill:none;stroke-linejoin:round;stroke-width:5.266;stroke-miterlimit:6.4">
<path d="M 74.078947 188.552632 L 49.736842 188.578947 M 74.078947 157 L 49.736842 157.026316 M 74.078947 62.289474 L 49.736842 62.315789 " transform="scale(.14844)"/>
<path d="M 84.605263 125.263158 L 49.736842 125.289474 M 84.605263 93.868421 L 49.736842 93.868421 " transform="scale(.14844)"/>
</g>
</g>
</svg>
