<svg width="47.5" xmlns="http://www.w3.org/2000/svg" height="47.5" viewBox="0 0 38 38" xmlns:xlink="http://www.w3.org/1999/xlink">
<g style="fill-rule:evenodd">
<g>
<path style="fill:#fff;stroke:#5b93d7;stroke-width:7.56" d="M 76.157895 33.447368 C 76.157895 33.447368 90.736842 31.973684 106.447368 34.394737 C 106.447368 34.394737 107.236842 37.315789 104.684211 38.184211 L 102.289474 62.631579 L 126.842105 176.157895 C 126.842105 176.157895 132.368421 190.473684 115.236842 193.578947 C 98.078947 196.684211 72.368421 201.447368 52.315789 185.921053 C 52.315789 185.921053 47.578947 179.921053 55.921053 152.394737 L 78.684211 63.026316 L 77.789474 38.289474 C 77.789474 38.289474 74.184211 34.763158 76.157895 33.447368 Z " transform="scale(.14844)"/>
<path style="fill:#d2d6cf;fill-opacity:.467" d="M 18.179688 27.320312 C 18.179688 27.964844 16.121094 28.484375 13.582031 28.484375 C 11.046875 28.484375 8.988281 27.964844 8.988281 27.320312 C 8.988281 26.675781 11.046875 26.152344 13.582031 26.152344 C 16.121094 26.152344 18.179688 26.675781 18.179688 27.320312 Z "/>
<path style="fill:#adc3e2" d="M 17.039062 22.433594 C 13.554688 24.308594 10.957031 23.769531 9.25 22.804688 L 9.246094 22.824219 C 9.242188 22.839844 9.238281 22.851562 9.238281 22.863281 C 8.636719 24.847656 8.523438 26.011719 8.539062 26.617188 C 8.546875 26.839844 8.566406 26.96875 8.585938 27.054688 C 11.152344 28.882812 14.429688 28.308594 16.917969 27.859375 C 17.890625 27.683594 17.902344 27.429688 17.964844 27.113281 C 18.027344 26.796875 17.914062 26.445312 17.914062 26.445312 C 17.898438 26.40625 17.886719 26.363281 17.878906 26.320312 Z "/>
<path style="fill:#fff;stroke:#5b93d7;stroke-width:7.56" d="M 143.368421 70.894737 L 142.631579 50.473684 C 142.631579 50.473684 142.710526 47.842105 141.289474 47.052632 L 142.315789 44.710526 C 142.315789 44.710526 150.921053 42.815789 171.657895 45.289474 C 171.657895 45.289474 174.921053 45.078947 175.342105 47.921053 C 175.342105 47.921053 173.5 49.815789 173.657895 53.052632 L 171.263158 72.421053 C 171.263158 72.421053 196.368421 165.342105 203.078947 203.657895 C 203.078947 203.657895 200.052632 219.605263 182.657895 222.394737 C 165.289474 225.184211 129.894737 232.631579 102.131579 209.236842 C 102.131579 209.236842 92.736842 202.947368 105.315789 176.026316 L 140.263158 80.184211 C 140.263158 80.184211 143.421053 75.236842 143.868421 73.578947 C 144.315789 71.921053 143.421053 71.078947 143.368421 70.894737 Z " transform="scale(.14844)"/>
<path style="fill:#d2d6cf;fill-opacity:.467" d="M 29.039062 30.835938 C 29.039062 31.871094 26.246094 32.707031 22.796875 32.707031 C 19.351562 32.707031 16.554688 31.871094 16.554688 30.835938 C 16.554688 29.800781 19.351562 28.960938 22.796875 28.960938 C 26.246094 28.960938 29.039062 29.800781 29.039062 30.835938 Z "/>
</g>
<g style="fill:#adc3e2">
<g style="fill-opacity:.6">
<path d="M 12.679688 5.929688 L 12.800781 9.320312 C 12.804688 9.410156 12.796875 9.5 12.773438 9.589844 L 11.433594 14.851562 C 11.898438 14.886719 12.375 15.066406 12.851562 15.433594 C 13.757812 16.140625 14.609375 16.019531 15.375 15.457031 L 14.085938 9.496094 C 14.066406 9.398438 14.058594 9.300781 14.066406 9.203125 L 14.382812 5.984375 C 13.757812 5.9375 13.171875 5.921875 12.691406 5.929688 C 12.6875 5.929688 12.683594 5.929688 12.679688 5.929688 Z "/>
<path d="M 22.742188 7.679688 C 22.617188 7.679688 22.535156 7.683594 22.429688 7.683594 L 22.519531 10.257812 C 22.617188 10.503906 22.660156 10.863281 22.566406 11.199219 C 22.4375 11.671875 22.300781 11.808594 22.164062 12.046875 C 22.0625 12.21875 22.011719 12.296875 21.96875 12.367188 L 19.277344 19.746094 C 20.890625 19.144531 22.554688 19.3125 23.699219 21.457031 C 23.699219 21.457031 25.839844 23.914062 25.304688 17.15625 C 25.253906 16.507812 25.28125 15.933594 25.371094 15.421875 C 24.699219 12.847656 24.210938 11.027344 24.210938 11.027344 C 24.171875 10.894531 24.164062 10.757812 24.179688 10.621094 L 24.53125 7.785156 C 23.820312 7.722656 23.195312 7.683594 22.742188 7.679688 Z M 22.359375 9.949219 C 22.363281 9.957031 22.371094 9.96875 22.382812 9.988281 C 22.382812 9.984375 22.378906 9.976562 22.378906 9.972656 C 22.359375 9.949219 22.347656 9.933594 22.359375 9.949219 Z M 22.390625 9.996094 C 22.402344 10.019531 22.414062 10.050781 22.429688 10.074219 C 22.414062 10.039062 22.398438 10.015625 22.390625 9.996094 Z "/>
</g>
<g>
<path d="M 17.351562 24.667969 L 16.699219 26.453125 C 16.691406 26.480469 16.679688 26.507812 16.667969 26.535156 C 15.785156 28.421875 15.734375 29.472656 15.808594 29.945312 C 15.84375 30.175781 15.90625 30.273438 15.925781 30.300781 C 19.605469 33.40625 24.261719 32.421875 26.921875 31.996094 C 28.535156 31.738281 28.917969 30.558594 29 30.207031 C 28.769531 28.917969 28.398438 27.214844 27.96875 25.355469 C 23.1875 26.539062 19.699219 25.789062 17.351562 24.667969 Z "/>
</g>
</g>
</g>
</svg>
