<svg width="47.5" xmlns="http://www.w3.org/2000/svg" height="47.5" viewBox="0 0 38 38" xmlns:xlink="http://www.w3.org/1999/xlink">
<g style="fill:#8ccd7c">
<path d="M 11.136719 12.039062 C 7.28125 12.039062 4.15625 15.183594 4.15625 19.058594 C 4.15625 19.300781 4.160156 19.539062 4.183594 19.773438 C 4.242188 21.277344 4.15625 23.449219 5.902344 28.714844 C 7.386719 33.195312 8.519531 33.101562 8.519531 33.101562 L 10.261719 32.222656 C 10.261719 32.222656 9.390625 30.46875 9.390625 28.714844 C 9.390625 27.871094 9.589844 26.832031 9.800781 25.972656 C 10.230469 26.054688 10.683594 26.082031 11.136719 26.082031 C 14.988281 26.082031 18.113281 22.9375 18.113281 19.058594 C 18.113281 15.183594 14.988281 12.039062 11.136719 12.039062 Z "/>
<path d="M 26.863281 25.960938 C 30.71875 25.960938 33.84375 22.816406 33.84375 18.941406 C 33.84375 18.699219 33.839844 18.460938 33.816406 18.226562 C 33.757812 16.722656 33.84375 14.550781 32.097656 9.285156 C 30.613281 4.804688 29.480469 4.898438 29.480469 4.898438 L 27.738281 5.777344 C 27.738281 5.777344 28.609375 7.53125 28.609375 9.285156 C 28.609375 10.128906 28.410156 11.167969 28.199219 12.027344 C 27.769531 11.945312 27.316406 11.917969 26.863281 11.917969 C 23.011719 11.917969 19.886719 15.0625 19.886719 18.941406 C 19.886719 22.816406 23.011719 25.960938 26.863281 25.960938 Z "/>
</g>
</svg>
