<svg width="47.5" xmlns="http://www.w3.org/2000/svg" height="47.5" viewBox="0 0 38 38" xmlns:xlink="http://www.w3.org/1999/xlink">
<path style="fill:#9c9d38;stroke:#9c9d38;stroke-width:1.449" d="M 337.369081 491.214178 C 276.480017 487.04932 223.007172 438.82867 207.90851 380.444238 C 193.988836 319.958271 221.638024 251.792154 275.605283 220.192726 C 310.290371 199.406645 353.836891 196.770175 392.249105 207.621732 C 439.674878 222.25605 475.805179 264.668825 488.4698 311.934233 C 499.879368 355.531508 491.664479 405.013079 461.39109 439.363606 C 433.970094 473.637713 390.157351 493.392132 346.306576 491.634485 C 343.340088 491.596275 340.335568 491.443437 337.369081 491.214178 Z M 373.651508 484.374641 C 384.604694 483.419398 382.665068 480.056944 372.738743 479.178121 C 354.977848 475.739247 335.809773 475.662828 318.657388 481.699961 C 333.75605 488.998015 353.798859 487.08753 370.685021 484.909577 Z M 319.874409 474.707585 C 327.670947 466.721756 319.532122 447.655112 312.724413 440.08959 C 297.473623 432.2566 285.683735 419.532768 271.72603 409.903922 C 261.229227 406.044741 250.998647 413.342795 240.882163 415.826426 C 240.844131 425.875579 240.159557 437.262072 248.982956 444.254448 C 263.51114 458.621298 281.043844 471.268711 300.820429 477.000167 C 307.171756 477.267635 313.827337 476.885538 319.874409 474.707585 Z M 403.354418 475.127892 C 428.645629 464.199915 452.339499 446.62345 466.60146 422.704174 C 471.735766 415.826426 475.500923 403.752159 462.113696 407.764178 C 445.265567 418.386477 430.052809 431.530616 412.82436 441.579769 C 402.365589 449.909485 394.835274 461.334187 387.381023 472.262164 C 389.967191 478.299297 398.410272 476.847329 403.354418 475.127892 Z M 420.506803 431.186729 C 433.209456 420.717269 451.578861 413.99236 458.272475 398.135332 C 461.276995 385.640758 461.505186 372.725877 462.760239 360.002044 C 450.095618 348.730181 434.578604 341.088239 419.365846 333.866605 C 404.343248 335.051105 392.211073 348.462713 380.30709 357.136316 C 373.993795 360.6134 375.629167 368.522809 373.8797 374.559943 C 371.597786 388.697534 368.935553 402.758706 367.376246 417.010927 C 379.204165 425.76095 392.401233 433.823198 406.777289 437.223862 C 411.987659 437.262072 416.285263 433.746779 420.506803 431.186729 Z M 329.876797 433.364682 C 341.400461 428.970566 356.613219 425.646321 362.013749 413.419215 C 366.045129 396.301266 368.250979 378.76301 370.380765 361.301174 C 358.933165 350.373198 346.724927 338.872076 331.74036 333.21704 C 318.809516 332.987781 307.85633 342.158111 296.370698 347.163583 C 280.891716 351.40486 275.491187 365.504242 274.844645 380.10035 C 270.280818 394.543619 275.491187 409.368986 288.536127 417.316605 C 299.945696 425.72274 314.587975 439.172557 329.876797 433.364682 Z M 233.580039 413.151747 C 224.262225 395.842749 217.834834 376.890735 215.248665 357.365574 C 206.006915 359.23785 214.411964 381.972626 216.960101 391.219375 C 221.295737 403.752159 227.951318 415.29149 234.873123 426.525144 C 236.128176 421.90177 236.888814 417.316605 233.580039 413.151747 Z M 229.58669 336.082768 C 233.656103 330.236682 240.121525 325.651518 242.593598 318.964819 C 246.891202 298.790093 253.927103 279.303143 264.005555 261.229951 C 263.587204 249.575991 250.580296 242.468985 244.114874 255.345656 C 225.707437 279.112094 211.255316 308.113262 210.608774 338.719237 C 208.174733 349.226907 217.302388 356.830639 222.550789 344.412484 C 224.870735 341.661385 227.228712 338.872076 229.58669 336.082768 Z M 466.867683 350.564247 C 474.664222 340.285835 485.46528 328.096939 482.688952 314.150396 C 477.782837 287.747488 464.281514 262.68192 443.5161 245.487552 C 437.316901 242.851082 426.05946 233.222236 421.761856 242.316146 C 415.410529 254.581462 399.589261 266.159004 405.294045 281.404677 C 410.162128 296.459301 413.737126 312.163491 420.84909 326.339292 C 433.970094 336.579494 449.106788 344.565323 464.357578 351.290231 Z M 292.643572 343.724709 C 304.737715 337.572946 316.48957 330.809828 328.279458 324.161339 C 332.234775 310.214796 337.254985 296.61214 341.894876 282.933065 C 342.541418 268.107699 329.344351 257.4854 320.558983 247.09236 C 311.887711 233.184026 297.245431 243.844535 286.558469 248.926426 C 263.054758 261.535629 257.654228 289.237667 249.629499 312.392749 C 250.770455 321.066353 258.68109 328.287987 264.461938 334.745428 C 272.410604 342.807676 281.386131 353.506394 292.643572 343.724709 Z M 379.356293 268.871893 C 385.631555 267.99307 392.629424 268.642635 398.410272 266.846778 C 407.119576 257.4854 414.763987 246.519214 418.377017 234.177479 C 414.003349 221.759324 399.551229 216.104287 387.913469 211.86301 C 373.119062 207.468893 357.259762 205.29094 341.894876 207.048587 C 330.827595 212.703623 310.936913 229.172007 322.156322 241.972259 C 330.371212 251.792154 339.118548 261.115322 348.056043 270.323862 C 358.514814 270.438491 368.935553 269.597877 379.356293 268.871893 Z " transform="matrix(.10271 0 0 .10223 -16.83081 -16.42868)"/>
</svg>
