<svg width="47.5" xmlns="http://www.w3.org/2000/svg" height="47.5" viewBox="0 0 38 38" xmlns:xlink="http://www.w3.org/1999/xlink">
<path style="fill:#61c66c;fill-rule:evenodd;stroke:#61c66c;stroke-linejoin:round;stroke-width:12.5" d="M 234.919911 36.60204 C 219.746101 37.177008 202.705483 42.255888 193.61077 53.180273 C 180.351637 81.353688 212.518199 68.369002 216.299684 87.869987 C 220.08117 107.370973 197.392256 108.472994 197.392256 108.472994 L 99.648032 108.472994 C 99.648032 108.472994 99.743766 205.402955 99.743766 205.402955 C 99.743766 205.402955 100.844704 228.114176 120.326536 224.328973 C 136.218349 221.262478 130.570054 199.413708 143.01545 198.455429 C 145.887464 198.263773 149.764683 199.126225 155.030043 201.617751 C 165.943698 210.721405 171.01759 227.778778 171.591993 242.967507 C 171.783461 248.573441 171.304792 253.843978 170.347453 258.491633 C 170.299587 258.683289 170.299587 258.874945 170.25172 259.114514 C 168.576378 272.195028 163.502486 285.515112 154.264173 293.181347 C 126.070564 306.405602 139.090363 274.303243 119.608532 270.518039 C 105.392061 267.739029 100.988305 278.998812 99.648032 285.323456 L 99.648032 388.242662 C 99.648032 388.242662 197.727324 387.428125 197.727324 387.428125 C 197.727324 387.428125 220.416238 386.374017 216.634753 366.825118 C 212.853267 347.324132 180.734572 360.356732 193.945839 332.135404 C 203.040551 321.258933 220.08117 316.132138 235.302846 315.605084 C 240.903274 315.365515 246.168634 315.892568 250.763857 316.850848 C 251.003192 316.850848 251.194659 316.898762 251.386127 316.946676 C 264.50166 318.623665 277.856527 323.702545 285.515232 332.902027 C 298.774365 361.075442 266.607803 348.090756 262.826318 367.591741 C 259.044832 387.092727 281.733746 388.194748 281.733746 388.194748 L 378.951434 388.194748 L 378.951434 286.137993 C 380.339575 279.765435 384.74333 268.649394 398.864068 271.428405 C 418.393766 275.165694 405.373967 307.315968 433.567575 294.091712 C 442.758021 286.425477 447.831913 273.105393 449.555122 259.976966 C 449.555122 259.78531 449.602989 259.593654 449.602989 259.354084 C 450.608194 254.754343 451.086863 249.483807 450.895395 243.877872 C 450.320993 228.689144 445.199234 211.631771 434.333446 202.528116 C 406.139837 189.303861 419.159636 221.454134 399.629938 225.239338 C 380.10024 228.976628 379.047168 206.31332 379.047168 206.31332 L 378.951434 108.472994 L 276.803455 108.472994 C 270.389289 106.987661 259.810703 102.483748 262.491249 88.636611 C 266.272735 69.087711 298.39143 82.120311 285.180163 53.946897 C 277.473591 44.747415 264.166591 39.668534 251.051059 37.991545 C 250.859591 37.943631 250.620257 37.895717 250.428789 37.895717 C 245.833566 36.889524 240.568206 36.410384 234.919911 36.60204 Z " transform="matrix(.08161 0 0 .08153 -3.46396 1.68394)"/>
</svg>
