<svg width="47.5" xmlns="http://www.w3.org/2000/svg" height="47.5" viewBox="0 0 38 38" xmlns:xlink="http://www.w3.org/1999/xlink">
<g style="fill:#ec7878">
<g>
<path d="M 20.929688 8.609375 C 20.804688 8.609375 20.667969 8.644531 20.550781 8.722656 C 20.433594 8.800781 20.332031 8.933594 20.335938 9.105469 C 20.351562 9.167969 20.34375 9.226562 20.339844 9.292969 C 20.339844 9.484375 20.496094 9.640625 20.691406 9.640625 C 20.882812 9.640625 21.039062 9.484375 21.039062 9.292969 C 21.039062 9.101562 20.886719 8.945312 20.695312 8.941406 C 20.761719 8.898438 20.859375 8.875 20.929688 8.871094 C 21.207031 8.871094 21.410156 9.027344 21.558594 9.261719 C 21.707031 9.496094 21.78125 9.808594 21.777344 10.0625 C 21.765625 10.695312 21.453125 11.230469 20.988281 11.636719 C 20.527344 12.046875 19.914062 12.324219 19.332031 12.433594 L 19.378906 12.691406 C 20.007812 12.574219 20.660156 12.28125 21.164062 11.835938 C 21.667969 11.390625 22.027344 10.785156 22.042969 10.066406 C 22.046875 9.757812 21.964844 9.40625 21.78125 9.121094 C 21.601562 8.832031 21.308594 8.609375 20.929688 8.609375 Z "/>
<path d="M 17.070312 8.609375 C 17.195312 8.609375 17.332031 8.644531 17.449219 8.722656 C 17.566406 8.800781 17.667969 8.933594 17.664062 9.105469 C 17.648438 9.167969 17.65625 9.226562 17.660156 9.292969 C 17.660156 9.484375 17.503906 9.640625 17.308594 9.640625 C 17.117188 9.640625 16.960938 9.484375 16.960938 9.292969 C 16.960938 9.101562 17.113281 8.945312 17.304688 8.941406 C 17.238281 8.898438 17.140625 8.875 17.070312 8.871094 C 16.792969 8.871094 16.589844 9.027344 16.441406 9.261719 C 16.292969 9.496094 16.21875 9.808594 16.222656 10.0625 C 16.234375 10.695312 16.546875 11.230469 17.011719 11.636719 C 17.472656 12.046875 18.085938 12.324219 18.667969 12.433594 L 18.621094 12.691406 C 17.992188 12.574219 17.339844 12.28125 16.835938 11.835938 C 16.332031 11.390625 15.972656 10.785156 15.957031 10.066406 C 15.953125 9.757812 16.035156 9.40625 16.21875 9.121094 C 16.398438 8.832031 16.691406 8.609375 17.070312 8.609375 Z "/>
<path d="M 18.738281 11.140625 C 17.242188 11.207031 15.792969 11.941406 14.828125 13.074219 C 14.328125 13.617188 13.859375 14.226562 13.644531 14.945312 C 13.648438 15.058594 13.691406 15.167969 13.722656 15.277344 C 13.402344 15.300781 13.003906 15.257812 12.78125 15.539062 C 12.378906 15.984375 12.285156 16.601562 12.085938 17.148438 C 11.183594 20.269531 11.648438 23.828125 13.570312 26.480469 C 14.613281 27.90625 16.164062 29.035156 17.941406 29.324219 C 18.238281 29.351562 18.578125 29.433594 18.851562 29.277344 C 18.953125 29.191406 19.101562 29.214844 19.1875 29.304688 C 19.558594 29.496094 19.976562 29.3125 20.359375 29.261719 C 22.175781 28.863281 23.734375 27.617188 24.710938 26.0625 C 26.519531 23.269531 26.820312 19.609375 25.699219 16.492188 C 25.550781 16.121094 25.402344 15.722656 25.109375 15.4375 C 24.914062 15.300781 24.664062 15.253906 24.429688 15.238281 C 24.582031 14.925781 24.480469 14.550781 24.253906 14.300781 C 23.4375 12.964844 22.226562 11.8125 20.703125 11.359375 C 20.0625 11.179688 19.398438 11.136719 18.738281 11.140625 Z "/>
<path d="M 18.933594 11.507812 C 18.925781 11.507812 18.914062 11.507812 18.902344 11.511719 C 18.378906 11.550781 17.84375 11.601562 17.34375 11.777344 C 15.914062 12.277344 14.824219 13.441406 14.078125 14.730469 C 13.964844 14.929688 14.042969 15.207031 14.273438 15.226562 C 15.875 15.230469 17.476562 15.226562 19.078125 15.230469 C 19.078125 15.230469 19.078125 15.230469 19.082031 15.230469 C 20.683594 15.226562 22.285156 15.230469 23.886719 15.226562 C 24.117188 15.207031 24.195312 14.929688 24.082031 14.730469 C 23.332031 13.441406 22.242188 12.277344 20.8125 11.777344 C 20.3125 11.601562 19.777344 11.550781 19.253906 11.511719 C 19.121094 11.5 19.144531 11.542969 19.082031 11.542969 C 19.019531 11.539062 19.042969 11.503906 18.933594 11.507812 Z "/>
<path d="M 20.085938 15.628906 C 19.617188 15.628906 19.238281 16.011719 19.238281 16.488281 L 19.238281 28.6875 C 19.238281 28.859375 19.238281 28.988281 19.464844 29.011719 C 23.046875 28.816406 25.984375 24.988281 25.984375 20.3125 C 25.984375 18.769531 25.675781 17.320312 25.128906 16.0625 C 25.128906 16.0625 25.125 16.0625 25.125 16.0625 C 25.117188 16.035156 25.105469 16.007812 25.09375 15.980469 C 25.09375 15.976562 25.089844 15.976562 25.089844 15.972656 C 25.089844 15.96875 25.089844 15.96875 25.089844 15.96875 C 24.988281 15.765625 24.785156 15.628906 24.546875 15.628906 Z "/>
<path d="M 17.914062 15.628906 C 18.382812 15.628906 18.761719 16.011719 18.761719 16.488281 L 18.761719 28.6875 C 18.761719 28.859375 18.761719 28.988281 18.535156 29.011719 C 14.953125 28.816406 12.015625 24.988281 12.015625 20.3125 C 12.015625 18.769531 12.324219 17.320312 12.871094 16.0625 C 12.871094 16.0625 12.875 16.0625 12.875 16.0625 C 12.882812 16.035156 12.894531 16.007812 12.90625 15.980469 C 12.90625 15.976562 12.910156 15.976562 12.910156 15.972656 C 12.910156 15.96875 12.910156 15.96875 12.910156 15.96875 C 13.011719 15.765625 13.214844 15.628906 13.453125 15.628906 Z "/>
</g>
<g style="fill-rule:evenodd">
<path d="M 14.011719 15.984375 L 13.46875 16.65625 L 12.609375 16.59375 L 13.082031 17.3125 L 12.753906 18.113281 L 13.585938 17.886719 L 14.246094 18.445312 L 14.289062 17.582031 L 15.023438 17.128906 L 14.214844 16.820312 Z M 16.707031 16.800781 L 16.25 19.101562 L 14.097656 20.027344 L 16.140625 21.175781 L 16.355469 23.507812 L 18.078125 21.917969 L 20.367188 22.433594 L 19.386719 20.304688 L 20.582031 18.289062 L 18.253906 18.566406 Z M 23.738281 17.863281 L 23.199219 18.535156 L 22.335938 18.472656 L 22.808594 19.195312 L 22.484375 19.992188 L 23.316406 19.765625 L 23.972656 20.324219 L 24.015625 19.460938 L 24.75 19.007812 L 23.941406 18.703125 Z M 13.347656 21.984375 L 12.691406 23.308594 L 12.078125 23.398438 C 12.292969 24.136719 12.585938 24.847656 12.960938 25.519531 L 13.347656 25.316406 L 14.652344 26.003906 L 14.402344 24.550781 L 15.457031 23.519531 L 13.996094 23.308594 Z M 24.074219 22.109375 L 22.777344 23.582031 L 20.832031 23.351562 L 21.835938 25.035156 L 21.015625 26.816406 L 22.925781 26.386719 L 23.824219 27.214844 C 24.066406 26.957031 24.285156 26.6875 24.488281 26.398438 L 24.546875 25.761719 L 25.066406 25.472656 C 25.238281 25.15625 25.394531 24.828125 25.535156 24.496094 L 24.457031 24.03125 Z M 17.628906 26.085938 L 17.089844 26.757812 L 16.226562 26.695312 L 16.699219 27.417969 L 16.375 28.21875 L 17.207031 27.992188 L 17.863281 28.546875 L 17.90625 27.6875 L 18.640625 27.230469 L 17.832031 26.925781 Z "/>
<path style="fill-opacity:.902" d="M 25.09375 22.515625 C 25.09375 23.863281 22.433594 24.960938 19.148438 24.960938 C 15.867188 24.960938 13.203125 23.863281 13.203125 22.515625 C 13.203125 21.164062 15.867188 20.070312 19.148438 20.070312 C 22.433594 20.070312 25.09375 21.164062 25.09375 22.515625 Z "/>
</g>
<g>
<path style="fill-opacity:.459" d="M 14.753906 26.902344 C 15.699219 27.875 16.9375 28.582031 18.296875 28.730469 C 18.378906 28.757812 18.546875 28.75 18.507812 28.621094 C 18.5 28.324219 18.496094 28.027344 18.496094 27.730469 C 18.5 27.546875 18.5 27.582031 18.359375 27.667969 C 16.960938 28.519531 15.773438 27.488281 14.753906 26.902344 Z M 23.199219 26.96875 C 22.179688 27.554688 20.992188 28.585938 19.589844 27.734375 C 19.453125 27.648438 19.453125 27.613281 19.457031 27.796875 C 19.457031 28.09375 19.453125 28.390625 19.445312 28.6875 C 19.402344 28.816406 19.570312 28.824219 19.65625 28.796875 C 21.015625 28.648438 22.25 27.941406 23.199219 26.96875 Z "/>
</g>
<g style="fill-rule:evenodd">
<path d="M 22.785156 14.40625 C 22.785156 16.0625 21.113281 17.40625 19.050781 17.40625 C 16.988281 17.40625 15.316406 16.0625 15.316406 14.40625 C 15.316406 12.75 16.988281 11.410156 19.050781 11.410156 C 21.113281 11.410156 22.785156 12.75 22.785156 14.40625 Z "/>
<path d="M 17.523438 9.195312 C 17.523438 9.3125 17.429688 9.410156 17.316406 9.410156 C 17.203125 9.410156 17.113281 9.3125 17.113281 9.195312 C 17.113281 9.078125 17.203125 8.980469 17.316406 8.980469 C 17.429688 8.980469 17.523438 9.078125 17.523438 9.195312 Z "/>
<path d="M 20.886719 9.195312 C 20.886719 9.3125 20.796875 9.410156 20.683594 9.410156 C 20.570312 9.410156 20.476562 9.3125 20.476562 9.195312 C 20.476562 9.078125 20.570312 8.980469 20.683594 8.980469 C 20.796875 8.980469 20.886719 9.078125 20.886719 9.195312 Z "/>
</g>
<g>
<path d="M 26.59375 17.953125 C 26.050781 18.023438 25.664062 18.519531 25.730469 19.066406 C 25.796875 19.613281 26.296875 20 26.839844 19.933594 L 34.621094 19.933594 C 34.980469 19.9375 35.3125 19.75 35.492188 19.441406 C 35.667969 19.132812 35.667969 18.753906 35.492188 18.445312 C 35.3125 18.136719 34.980469 17.949219 34.621094 17.953125 L 26.839844 17.953125 C 26.757812 17.945312 26.675781 17.945312 26.59375 17.953125 Z "/>
<path d="M 3.277344 18.015625 C 2.925781 18.046875 2.613281 18.265625 2.464844 18.589844 C 2.316406 18.910156 2.351562 19.289062 2.558594 19.578125 C 2.765625 19.867188 3.109375 20.027344 3.460938 19.992188 L 11.304688 19.992188 C 11.660156 19.996094 11.992188 19.808594 12.171875 19.5 C 12.351562 19.191406 12.351562 18.8125 12.171875 18.503906 C 11.992188 18.195312 11.660156 18.007812 11.304688 18.015625 L 3.460938 18.015625 C 3.402344 18.007812 3.339844 18.007812 3.277344 18.015625 Z "/>
<path d="M 18.835938 2.394531 C 18.363281 2.484375 18.023438 2.898438 18.03125 3.382812 L 18.03125 11.351562 C 18.027344 11.707031 18.214844 12.039062 18.523438 12.21875 C 18.832031 12.398438 19.210938 12.398438 19.519531 12.21875 C 19.828125 12.039062 20.015625 11.707031 20.007812 11.351562 L 20.007812 3.382812 C 20.015625 3.082031 19.886719 2.800781 19.65625 2.609375 C 19.429688 2.414062 19.128906 2.335938 18.835938 2.394531 Z "/>
<path d="M 18.894531 25.785156 C 18.375 25.851562 17.992188 26.3125 18.03125 26.835938 L 18.03125 34.621094 C 18.023438 34.976562 18.210938 35.308594 18.519531 35.488281 C 18.828125 35.671875 19.207031 35.671875 19.515625 35.488281 C 19.824219 35.308594 20.011719 34.976562 20.007812 34.621094 L 20.007812 26.835938 C 20.027344 26.539062 19.914062 26.25 19.699219 26.046875 C 19.484375 25.84375 19.1875 25.75 18.894531 25.785156 Z "/>
</g>
</g>
<path style="fill:none;stroke:#ec7878;stroke-linejoin:round;stroke-linecap:round;stroke-width:8" d="M 278.368019 118.723491 C 278.368019 168.049519 225.518627 207.990882 160.324036 207.990882 C 95.092147 207.990882 42.242756 168.049519 42.242756 118.723491 C 42.242756 69.42573 95.092147 29.4561 160.324036 29.4561 C 225.518627 29.4561 278.368019 69.42573 278.368019 118.723491 Z " transform="matrix(.10473 0 0 .13819 2.22416 2.65991)"/>
</svg>
