<svg width="47.5" xmlns="http://www.w3.org/2000/svg" height="47.5" viewBox="0 0 38 38" xmlns:xlink="http://www.w3.org/1999/xlink">
<path style="fill:#c9a879" d="M 17.25 30.21875 C 17.25 30.894531 16.683594 31.4375 15.988281 31.4375 C 15.289062 31.4375 14.726562 30.894531 14.726562 30.21875 C 14.726562 29.546875 15.289062 29 15.988281 29 C 16.683594 29 17.25 29.546875 17.25 30.21875 Z M 11.199219 11.328125 C 11.199219 12 10.632812 12.546875 9.9375 12.546875 C 9.238281 12.546875 8.675781 12 8.675781 11.328125 C 8.675781 10.652344 9.238281 10.109375 9.9375 10.109375 C 10.632812 10.109375 11.199219 10.652344 11.199219 11.328125 Z M 32.789062 15.460938 C 32.789062 16.136719 32.226562 16.683594 31.527344 16.683594 C 30.832031 16.683594 30.265625 16.136719 30.265625 15.460938 C 30.265625 14.789062 30.832031 14.242188 31.527344 14.242188 C 32.226562 14.242188 32.789062 14.789062 32.789062 15.460938 Z M 18.566406 33.796875 C 17.714844 33.546875 16.90625 32.730469 16.257812 31.464844 C 16.011719 30.980469 15.960938 30.917969 15.832031 30.917969 C 15.609375 30.914062 15.238281 30.742188 15.109375 30.578125 C 14.816406 30.207031 14.894531 29.75 15.214844 29.421875 C 15.308594 29.328125 15.320312 29.214844 15.320312 29.164062 C 15.320312 29.117188 15.257812 28.859375 15.183594 28.585938 C 15.019531 28 14.714844 26.625 14.664062 26.230469 C 14.644531 26.074219 14.609375 25.921875 14.589844 25.890625 C 14.566406 25.855469 14.273438 25.929688 13.734375 26.113281 C 12.191406 26.640625 10.589844 27.042969 9.089844 27.289062 C 8.394531 27.40625 6.605469 27.417969 6.148438 27.3125 C 5.09375 27.070312 4.523438 26.539062 4.460938 25.742188 C 4.425781 25.300781 4.542969 24.882812 4.875 24.257812 C 5.316406 23.429688 5.835938 22.773438 6.804688 21.808594 C 7.59375 21.023438 9.171875 19.714844 10.046875 19.121094 L 10.238281 18.992188 L 9.960938 18.789062 C 6.371094 16.1875 4.351562 13.796875 4.457031 12.28125 C 4.550781 11.003906 5.992188 10.4375 8.523438 10.683594 C 9.085938 10.742188 9.089844 10.742188 9.257812 10.613281 C 9.769531 10.226562 10.527344 10.359375 10.855469 10.890625 C 10.96875 11.078125 11.027344 11.121094 11.273438 11.179688 C 11.738281 11.292969 13.09375 11.695312 13.835938 11.941406 C 14.21875 12.066406 14.542969 12.160156 14.558594 12.144531 C 14.574219 12.128906 14.640625 11.847656 14.703125 11.515625 C 15.328125 8.148438 16.375 5.714844 17.628906 4.679688 C 18.273438 4.148438 19.007812 4.015625 19.679688 4.304688 C 20.300781 4.574219 21.03125 5.367188 21.59375 6.382812 C 21.996094 7.105469 22.539062 8.59375 22.875 9.894531 C 23.050781 10.5625 23.308594 11.808594 23.308594 11.976562 C 23.308594 12.042969 23.332031 12.113281 23.363281 12.128906 C 23.394531 12.148438 23.796875 12.035156 24.257812 11.882812 C 28.355469 10.519531 31.675781 10.265625 32.964844 11.210938 C 33.8125 11.835938 33.726562 13.085938 32.742188 14.464844 C 32.574219 14.703125 32.539062 14.792969 32.574219 14.894531 C 32.597656 14.96875 32.617188 15.191406 32.621094 15.386719 C 32.625 15.710938 32.609375 15.769531 32.460938 15.941406 C 32.230469 16.214844 31.871094 16.347656 31.480469 16.304688 C 31.1875 16.273438 31.164062 16.28125 31.019531 16.429688 C 30.75 16.714844 29.25 17.957031 28.550781 18.476562 C 28.175781 18.753906 27.867188 19.003906 27.867188 19.027344 C 27.867188 19.050781 28.058594 19.210938 28.292969 19.382812 C 28.972656 19.878906 30.109375 20.8125 30.625 21.300781 C 32.992188 23.53125 33.917969 25.300781 33.304688 26.421875 C 32.710938 27.515625 30.636719 27.707031 27.359375 26.972656 C 26.523438 26.785156 24.53125 26.203125 23.820312 25.9375 C 23.589844 25.851562 23.382812 25.796875 23.359375 25.820312 C 23.335938 25.839844 23.261719 26.167969 23.195312 26.542969 C 22.597656 29.832031 21.597656 32.226562 20.378906 33.261719 C 20.195312 33.421875 19.917969 33.609375 19.761719 33.679688 C 19.402344 33.839844 18.894531 33.890625 18.566406 33.796875 Z M 19.328125 33.128906 C 20.695312 32.765625 21.863281 30.324219 22.542969 26.417969 C 22.621094 25.972656 22.664062 25.589844 22.640625 25.570312 C 22.617188 25.550781 22.230469 25.394531 21.777344 25.222656 C 21.328125 25.054688 20.519531 24.710938 19.984375 24.460938 L 19.007812 24.007812 L 18.085938 24.429688 C 17.300781 24.789062 16.429688 25.148438 15.476562 25.496094 C 15.292969 25.5625 15.265625 25.59375 15.265625 25.742188 C 15.265625 25.972656 15.402344 26.714844 15.632812 27.738281 C 15.925781 29.03125 15.933594 29.046875 16.210938 29.136719 C 16.519531 29.238281 16.695312 29.355469 16.832031 29.628906 C 16.972656 29.910156 16.964844 30.253906 16.742188 30.554688 C 16.554688 30.808594 16.550781 30.785156 16.976562 31.554688 C 17.492188 32.476562 18.027344 32.984375 18.664062 33.15625 C 18.882812 33.21875 19.015625 33.210938 19.328125 33.128906 Z M 31.539062 26.796875 C 31.964844 26.722656 32.425781 26.496094 32.605469 26.273438 C 32.835938 25.988281 32.898438 25.765625 32.867188 25.355469 C 32.804688 24.503906 32.015625 23.375 30.488281 21.9375 C 29.589844 21.097656 27.378906 19.410156 27.214844 19.441406 C 27.167969 19.453125 26.773438 19.703125 26.339844 19.996094 C 25.902344 20.289062 25.160156 20.761719 24.691406 21.042969 L 23.839844 21.554688 L 23.773438 22.523438 C 23.734375 23.058594 23.652344 23.863281 23.585938 24.3125 C 23.523438 24.761719 23.480469 25.140625 23.496094 25.15625 C 23.5625 25.214844 25.023438 25.714844 25.914062 25.984375 C 28.386719 26.730469 30.320312 27.011719 31.539062 26.796875 Z M 8.621094 26.746094 C 10.054688 26.578125 11.949219 26.101562 13.878906 25.421875 C 14.304688 25.273438 14.472656 25.191406 14.472656 25.128906 C 14.472656 25.082031 14.421875 24.6875 14.359375 24.25 C 14.300781 23.8125 14.21875 22.996094 14.179688 22.4375 L 14.113281 21.421875 L 13.796875 21.253906 C 13.246094 20.964844 11.972656 20.1875 11.410156 19.800781 C 11.113281 19.59375 10.847656 19.425781 10.824219 19.425781 C 10.761719 19.425781 10.445312 19.648438 9.601562 20.289062 C 8.730469 20.945312 7.414062 22.09375 6.828125 22.707031 C 4.804688 24.824219 4.644531 26.335938 6.402344 26.71875 C 6.804688 26.804688 7.992188 26.820312 8.621094 26.746094 Z M 16.214844 24.554688 C 16.640625 24.386719 17.265625 24.117188 17.601562 23.960938 L 18.214844 23.679688 L 17.660156 23.417969 C 16.972656 23.097656 15.984375 22.585938 15.476562 22.289062 C 14.886719 21.945312 14.925781 21.925781 14.925781 22.5625 C 14.925781 23.117188 14.980469 23.722656 15.101562 24.503906 C 15.175781 25.007812 15.085938 25.003906 16.214844 24.554688 Z M 22.824219 24.652344 C 23.027344 23.269531 23.128906 22.019531 23.035156 22.019531 C 23.003906 22.019531 22.960938 22.039062 22.941406 22.066406 C 22.890625 22.144531 21.179688 23.039062 20.460938 23.367188 C 20.097656 23.535156 19.796875 23.683594 19.796875 23.703125 C 19.796875 23.777344 22.503906 24.914062 22.691406 24.917969 C 22.761719 24.917969 22.792969 24.847656 22.824219 24.652344 Z M 19.992188 22.824219 C 20.917969 22.378906 22.1875 21.707031 22.820312 21.328125 L 23.121094 21.152344 L 23.15625 20.535156 C 23.203125 19.773438 23.195312 17.164062 23.144531 16.96875 C 23.117188 16.847656 22.953125 16.738281 22.152344 16.292969 C 21.628906 16.003906 21.191406 15.765625 21.183594 15.765625 C 21.175781 15.765625 20.878906 15.621094 20.523438 15.445312 C 19.335938 14.847656 19.121094 14.75 19.03125 14.75 C 18.816406 14.75 16.074219 16.125 15.085938 16.726562 C 14.839844 16.875 14.816406 16.90625 14.78125 17.15625 C 14.714844 17.640625 14.777344 21.015625 14.855469 21.140625 C 14.917969 21.238281 15.933594 21.835938 16.667969 22.207031 C 17.699219 22.730469 18.875 23.289062 18.945312 23.289062 C 18.988281 23.289062 19.460938 23.082031 19.992188 22.824219 Z M 18.460938 20.457031 C 17.460938 20.132812 16.992188 19.101562 17.464844 18.269531 C 17.6875 17.882812 18.046875 17.632812 18.542969 17.515625 C 18.976562 17.417969 19.25 17.449219 19.722656 17.652344 C 20.71875 18.082031 20.988281 19.296875 20.253906 20.050781 C 19.851562 20.460938 19.042969 20.640625 18.460938 20.457031 Z M 14.019531 18.992188 C 14.019531 17.640625 14.003906 17.292969 13.949219 17.320312 C 13.503906 17.550781 11.382812 18.953125 11.382812 19.015625 C 11.382812 19.039062 11.546875 19.171875 11.75 19.304688 C 12.230469 19.632812 13.921875 20.6875 13.976562 20.691406 C 14 20.695312 14.019531 19.929688 14.019531 18.992188 Z M 25.097656 20 C 25.710938 19.613281 26.300781 19.226562 26.414062 19.132812 C 26.617188 18.972656 26.621094 18.96875 26.507812 18.890625 C 25.546875 18.222656 24.078125 17.289062 23.984375 17.289062 C 23.957031 17.289062 23.925781 18.058594 23.917969 18.996094 C 23.910156 19.929688 23.921875 20.699219 23.945312 20.699219 C 23.964844 20.699219 24.484375 20.382812 25.097656 20 Z M 12.195312 17.6875 C 12.878906 17.246094 13.589844 16.800781 13.777344 16.695312 L 14.121094 16.503906 L 14.15625 15.945312 C 14.210938 15.117188 14.296875 14.292969 14.398438 13.605469 C 14.535156 12.6875 14.5625 12.78125 14.074219 12.609375 C 13.523438 12.414062 11.773438 11.890625 11.289062 11.773438 L 10.914062 11.683594 L 10.738281 11.863281 C 10.390625 12.21875 9.851562 12.3125 9.417969 12.09375 C 9.191406 11.976562 8.964844 11.691406 8.898438 11.433594 C 8.867188 11.308594 8.839844 11.296875 8.4375 11.265625 C 7.707031 11.203125 6.617188 11.261719 6.238281 11.386719 C 4.421875 11.972656 4.964844 13.742188 7.730469 16.226562 C 8.242188 16.691406 9.046875 17.355469 9.515625 17.703125 C 10.761719 18.632812 10.742188 18.621094 10.859375 18.546875 C 10.914062 18.511719 11.515625 18.125 12.195312 17.6875 Z M 27.863281 18.125 C 28.734375 17.503906 29.246094 17.097656 30.035156 16.40625 L 30.671875 15.847656 L 30.636719 15.605469 C 30.585938 15.261719 30.652344 14.964844 30.851562 14.761719 C 31.085938 14.519531 31.308594 14.421875 31.652344 14.445312 L 31.945312 14.464844 L 32.214844 14.113281 C 32.8125 13.320312 33.03125 12.492188 32.769531 11.996094 C 32.621094 11.710938 32.484375 11.589844 32.117188 11.425781 C 31.203125 11.019531 29.351562 11.113281 27.074219 11.675781 C 26.085938 11.921875 23.597656 12.691406 23.492188 12.785156 C 23.476562 12.800781 23.515625 13.222656 23.585938 13.71875 C 23.699219 14.554688 23.816406 15.839844 23.816406 16.285156 C 23.816406 16.464844 23.839844 16.484375 24.3125 16.765625 C 25.136719 17.25 26.199219 17.925781 26.679688 18.277344 C 26.925781 18.457031 27.144531 18.605469 27.160156 18.609375 C 27.175781 18.609375 27.492188 18.394531 27.863281 18.125 Z M 23.082031 15.746094 C 23.082031 15.117188 22.839844 13.070312 22.765625 13.070312 C 22.675781 13.070312 19.851562 14.300781 19.851562 14.339844 C 19.851562 14.355469 19.984375 14.421875 20.148438 14.488281 C 20.589844 14.671875 22.269531 15.542969 22.65625 15.792969 C 22.84375 15.914062 23.015625 16.011719 23.039062 16.015625 C 23.0625 16.019531 23.082031 15.898438 23.082031 15.746094 Z M 15.144531 15.875 C 15.515625 15.644531 17.105469 14.804688 17.628906 14.566406 L 18.207031 14.300781 L 17.855469 14.125 C 17.113281 13.757812 15.332031 13.054688 15.234375 13.089844 C 15.15625 13.117188 15.128906 13.269531 15.015625 14.289062 C 14.820312 16.054688 14.820312 16.074219 15.144531 15.875 Z M 19.554688 13.6875 C 20.082031 13.453125 21.640625 12.820312 22.375 12.542969 C 22.777344 12.394531 22.765625 12.503906 22.507812 11.136719 C 21.992188 8.398438 21.175781 6.328125 20.261719 5.441406 C 19.808594 5 19.464844 4.835938 19.003906 4.835938 C 18.601562 4.835938 18.28125 4.96875 17.9375 5.277344 C 16.875 6.230469 15.996094 8.394531 15.441406 11.417969 C 15.285156 12.285156 15.277344 12.355469 15.34375 12.40625 C 15.378906 12.429688 15.8125 12.609375 16.3125 12.804688 C 16.8125 13.003906 17.613281 13.335938 18.097656 13.542969 C 18.578125 13.753906 18.980469 13.929688 18.988281 13.929688 C 19 13.933594 19.253906 13.824219 19.554688 13.6875 Z "/>
</svg>
