<svg width="47.5" xmlns="http://www.w3.org/2000/svg" height="47.5" viewBox="0 0 38 38" xmlns:xlink="http://www.w3.org/1999/xlink">
<g style="fill:#b2a546">
<path d="M 5.59375 4.171875 C 5.042969 4.171875 4.601562 4.609375 4.601562 5.15625 L 4.601562 32.855469 C 4.601562 33.402344 5.042969 33.839844 5.59375 33.839844 L 11.207031 33.839844 C 11.761719 33.839844 12.203125 33.402344 12.203125 32.855469 L 12.203125 5.15625 C 12.203125 4.609375 11.761719 4.171875 11.207031 4.171875 Z M 6.53125 6.953125 L 10.273438 6.953125 L 10.273438 18.078125 L 6.53125 18.078125 Z M 8.402344 23.640625 C 9.433594 23.640625 10.273438 24.472656 10.273438 25.496094 C 10.273438 26.519531 9.433594 27.351562 8.402344 27.351562 C 7.367188 27.351562 6.53125 26.519531 6.53125 25.496094 C 6.53125 24.472656 7.367188 23.640625 8.402344 23.640625 Z "/>
<path d="M 14.949219 4.171875 C 14.398438 4.171875 13.957031 4.609375 13.957031 5.15625 L 13.957031 32.855469 C 13.957031 33.402344 14.398438 33.839844 14.949219 33.839844 L 18.691406 33.839844 C 19.246094 33.839844 19.6875 33.402344 19.6875 32.855469 L 19.6875 5.15625 C 19.6875 4.609375 19.246094 4.171875 18.691406 4.171875 Z M 14.949219 6.953125 L 18.691406 6.953125 L 18.691406 18.078125 L 14.949219 18.078125 Z M 16.820312 23.640625 C 17.855469 23.640625 18.691406 24.472656 18.691406 25.496094 C 18.691406 26.519531 17.855469 27.351562 16.820312 27.351562 C 15.789062 27.351562 14.949219 26.519531 14.949219 25.496094 C 14.949219 24.472656 15.789062 23.640625 16.820312 23.640625 Z "/>
<path d="M 21.296875 5.148438 C 20.765625 5.292969 20.453125 5.828125 20.59375 6.355469 L 27.828125 33.113281 C 27.972656 33.640625 28.515625 33.949219 29.046875 33.808594 L 32.660156 32.851562 C 33.195312 32.707031 33.507812 32.171875 33.363281 31.644531 L 26.128906 4.886719 C 25.988281 4.359375 25.445312 4.050781 24.914062 4.191406 Z M 22.023438 7.835938 L 25.640625 6.878906 L 28.542969 17.625 L 24.929688 18.585938 Z M 28.191406 23.476562 C 29.1875 23.210938 30.214844 23.800781 30.480469 24.789062 C 30.75 25.777344 30.15625 26.796875 29.160156 27.058594 C 28.160156 27.324219 27.136719 26.738281 26.867188 25.75 C 26.601562 24.761719 27.191406 23.742188 28.191406 23.476562 Z "/>
</g>
</svg>
