<svg width="47.5" xmlns="http://www.w3.org/2000/svg" height="47.5" viewBox="0 0 38 38" xmlns:xlink="http://www.w3.org/1999/xlink">
<g style="fill:#ec86ab">
<path d="M 5.804688 4.15625 L 5.804688 23.949219 L 7.453125 23.949219 L 7.453125 4.15625 Z "/>
<path d="M 9.105469 24.773438 C 9.105469 26.136719 7.996094 27.246094 6.628906 27.246094 C 5.265625 27.246094 4.15625 26.136719 4.15625 24.773438 C 4.15625 23.40625 5.265625 22.296875 6.628906 22.296875 C 7.996094 22.296875 9.105469 23.40625 9.105469 24.773438 Z "/>
<path d="M 15.703125 33.84375 L 15.703125 9.105469 L 14.050781 9.105469 L 14.050781 33.84375 Z "/>
<path d="M 12.402344 8.28125 C 12.402344 6.914062 13.511719 5.804688 14.875 5.804688 C 16.242188 5.804688 17.351562 6.914062 17.351562 8.28125 C 17.351562 9.644531 16.242188 10.753906 14.875 10.753906 C 13.511719 10.753906 12.402344 9.644531 12.402344 8.28125 Z "/>
<path d="M 22.296875 4.15625 L 22.296875 22.296875 L 23.949219 22.296875 L 23.949219 4.15625 Z "/>
<path d="M 25.597656 23.121094 C 25.597656 24.488281 24.488281 25.597656 23.125 25.597656 C 21.757812 25.597656 20.648438 24.488281 20.648438 23.121094 C 20.648438 21.757812 21.757812 20.648438 23.125 20.648438 C 24.488281 20.648438 25.597656 21.757812 25.597656 23.121094 Z "/>
<path d="M 32.195312 33.84375 L 32.195312 20.648438 L 30.546875 20.648438 L 30.546875 33.84375 Z "/>
<path d="M 28.894531 19.824219 C 28.894531 18.457031 30.003906 17.351562 31.371094 17.351562 C 32.734375 17.351562 33.84375 18.457031 33.84375 19.824219 C 33.84375 21.191406 32.734375 22.300781 31.371094 22.300781 C 30.003906 22.300781 28.894531 21.191406 28.894531 19.824219 Z "/>
</g>
</svg>
