<svg xmlns="http://www.w3.org/2000/svg" viewBox="0 0 48 48" xmlns:xlink="http://www.w3.org/1999/xlink">
<g transform="translate(0 -1004.3622)">
<path style="fill:#4c7686" d="m 20.496999,1012.3622 0,19.2036 c -1.348641,-0.528 -3.111019,-0.6182 -4.92972,-0.1255 -3.398977,0.9195 -5.677943,3.5007 -5.079109,5.757 0.598839,2.2564 3.840477,3.3441 7.239452,2.4246 2.887749,-0.7812 4.956515,-2.7619 5.148054,-4.7228 l 0.02298,0 0,-14.1227 12.307065,1.5284 0,13.6744 c -1.348641,-0.5281 -3.111018,-0.6184 -4.92972,-0.1255 -3.398977,0.9195 -5.677945,3.5009 -5.079108,5.7571 0.598837,2.2563 3.840475,3.3441 7.239451,2.4246 2.88775,-0.7812 4.956517,-2.7618 5.148054,-4.7228 l 0.02297,0 0,-24.6735 -17.110383,-2.2753 z m 2.40166,4.6214 12.307063,1.7351 0,1.5514 -12.307063,-1.5282 0,-1.7583 z"/>
</g>
</svg>
