<svg xmlns="http://www.w3.org/2000/svg" viewBox="0 0 48 48" xmlns:xlink="http://www.w3.org/1999/xlink">
<g transform="translate(0 -1004.3622)">
<rect width="30" x="9" y="1021.362" rx="1.54" height="14" style="fill:none;stroke:#6baf53;stroke-linejoin:round;stroke-linecap:round;stroke-width:2"/>
<path style="fill:#6baf53" d="M 11.5,19 C 11.223,19 11,19.223 11,19.5 l 0,9 c 0,0.277 0.223,0.5 0.5,0.5 l 12.053571,0 c 0.277,0 0.5,-0.223 0.5,-0.5 l 0,-9 c 0,-0.277 -0.223,-0.5 -0.5,-0.5 z m 3.5,7 0,-4 1,0 0,4 z m 2,0 0,-4 1,0 0,4 z m 2,0 0,-4 1,0 0,4 z" transform="translate(0 1004.3622)"/>
</g>
</svg>
