<svg width="47.5" xmlns="http://www.w3.org/2000/svg" height="47.5" viewBox="0 0 38 38" xmlns:xlink="http://www.w3.org/1999/xlink">
<path style="fill:#9dc7cf" d="M 20.046875 24.894531 C 19.972656 22.203125 20.578125 19.589844 23.144531 17.734375 C 25.851562 15.640625 28.457031 13.019531 28.183594 9.933594 C 28.121094 6.953125 24.625 4.617188 20.859375 4.28125 C 16.621094 3.699219 11.492188 5.140625 10.070312 8.425781 C 9.351562 10.023438 10.019531 12.890625 12.4375 12.890625 C 13.851562 12.890625 14.5 11.984375 14.605469 11.15625 C 14.6875 10.527344 14.425781 9.96875 14.273438 9.449219 C 14.097656 8.859375 14.84375 7.714844 15.65625 7.246094 C 16.335938 6.859375 17.046875 6.726562 17.148438 6.703125 C 19.585938 6.121094 22.015625 7.40625 23.027344 8.96875 C 24.042969 10.53125 22.925781 12.898438 21.324219 15.207031 C 19.71875 17.511719 18 20.128906 18.003906 22.910156 C 18.003906 23.96875 17.910156 24.328125 17.976562 24.753906 C 18.03125 25.097656 19.171875 25.054688 20.046875 24.894531 Z M 18.933594 28.519531 C 16.605469 28.394531 14.992188 31.015625 16.390625 32.6875 C 17.640625 34.53125 21.148438 34.074219 21.746094 31.988281 C 22.371094 30.363281 20.871094 28.492188 18.933594 28.519531 Z "/>
</svg>
