<?xml version="1.0" encoding="UTF-8" standalone="no"?>
<!-- Created with Inkscape (http://www.inkscape.org/) -->

<svg
   xmlns:dc="http://purl.org/dc/elements/1.1/"
   xmlns:cc="http://creativecommons.org/ns#"
   xmlns:rdf="http://www.w3.org/1999/02/22-rdf-syntax-ns#"
   xmlns:svg="http://www.w3.org/2000/svg"
   xmlns="http://www.w3.org/2000/svg"
   xmlns:xlink="http://www.w3.org/1999/xlink"
   xmlns:sodipodi="http://sodipodi.sourceforge.net/DTD/sodipodi-0.dtd"
   xmlns:inkscape="http://www.inkscape.org/namespaces/inkscape"
   width="256"
   height="256"
   id="svg2"
   version="1.1"
   inkscape:version="0.48.5 r10040"
   sodipodi:docname="folder-wine.svg"
   inkscape:export-filename="/media/Data/Main/Visuals/Icons/Numix/Desktop/repos/numix-wiki/Gjorgi/Numix-folders/48/New/folder-144.png"
   inkscape:export-xdpi="270"
   inkscape:export-ydpi="270">
  <defs
     id="defs4">
    <linearGradient
       inkscape:collect="always"
       id="linearGradient3810">
      <stop
         style="stop-color:#000000;stop-opacity:1;"
         offset="0"
         id="stop3812" />
      <stop
         style="stop-color:#000000;stop-opacity:0;"
         offset="1"
         id="stop3814" />
    </linearGradient>
    <radialGradient
       gradientUnits="userSpaceOnUse"
       gradientTransform="matrix(1,0,0,0.36666667,0,59.216667)"
       r="15"
       fy="93.5"
       fx="-9"
       cy="93.5"
       cx="-9"
       id="radialGradient3815"
       xlink:href="#linearGradient3809"
       inkscape:collect="always" />
    <radialGradient
       inkscape:collect="always"
       xlink:href="#linearGradient3958"
       id="radialGradient3964"
       cx="32.5"
       cy="56.5"
       fx="32.5"
       fy="56.5"
       r="33.5"
       gradientTransform="matrix(1,0,0,0.10447761,0,50.597015)"
       gradientUnits="userSpaceOnUse" />
    <linearGradient
       inkscape:collect="always"
       id="linearGradient3958">
      <stop
         style="stop-color:#000000;stop-opacity:1;"
         offset="0"
         id="stop3960" />
      <stop
         style="stop-color:#000000;stop-opacity:0;"
         offset="1"
         id="stop3962" />
    </linearGradient>
    <radialGradient
       r="33.5"
       fy="56.5"
       fx="32.5"
       cy="56.5"
       cx="32.5"
       gradientTransform="matrix(1,0,0,0.10447761,0,50.597015)"
       gradientUnits="userSpaceOnUse"
       id="radialGradient3981"
       xlink:href="#linearGradient3958"
       inkscape:collect="always" />
    <linearGradient
       id="linearGradient3809"
       inkscape:collect="always">
      <stop
         id="stop3811"
         offset="0"
         style="stop-color:#000000;stop-opacity:1;" />
      <stop
         id="stop3813"
         offset="1"
         style="stop-color:#000000;stop-opacity:0;" />
    </linearGradient>
    <radialGradient
       inkscape:collect="always"
       xlink:href="#linearGradient3810"
       id="radialGradient3816"
       cx="-25"
       cy="203.5"
       fx="-25"
       fy="203.5"
       r="35"
       gradientTransform="matrix(1,0,0,0.78571429,0,43.607143)"
       gradientUnits="userSpaceOnUse" />
    <radialGradient
       inkscape:collect="always"
       xlink:href="#linearGradient3958-1"
       id="radialGradient3964-3"
       cx="32.5"
       cy="56.5"
       fx="32.5"
       fy="56.5"
       r="33.5"
       gradientTransform="matrix(1,0,0,0.10447761,0,50.597015)"
       gradientUnits="userSpaceOnUse" />
    <linearGradient
       inkscape:collect="always"
       id="linearGradient3958-1">
      <stop
         style="stop-color:#000000;stop-opacity:1;"
         offset="0"
         id="stop3960-9" />
      <stop
         style="stop-color:#000000;stop-opacity:0;"
         offset="1"
         id="stop3962-9" />
    </linearGradient>
    <radialGradient
       r="33.5"
       fy="56.5"
       fx="32.5"
       cy="56.5"
       cx="32.5"
       gradientTransform="matrix(1,0,0,0.10447761,0,50.597015)"
       gradientUnits="userSpaceOnUse"
       id="radialGradient3981-1"
       xlink:href="#linearGradient3958-1"
       inkscape:collect="always" />
    <radialGradient
       gradientUnits="userSpaceOnUse"
       gradientTransform="matrix(1,0,0,0.36666667,0,59.216667)"
       r="15"
       fy="93.5"
       fx="-9"
       cy="93.5"
       cx="-9"
       id="radialGradient3815-2"
       xlink:href="#linearGradient3809-4"
       inkscape:collect="always" />
    <radialGradient
       inkscape:collect="always"
       xlink:href="#linearGradient3958-0"
       id="radialGradient3964-5"
       cx="32.5"
       cy="56.5"
       fx="32.5"
       fy="56.5"
       r="33.5"
       gradientTransform="matrix(1,0,0,0.10447761,0,50.597015)"
       gradientUnits="userSpaceOnUse" />
    <linearGradient
       inkscape:collect="always"
       id="linearGradient3958-0">
      <stop
         style="stop-color:#000000;stop-opacity:1;"
         offset="0"
         id="stop3960-0" />
      <stop
         style="stop-color:#000000;stop-opacity:0;"
         offset="1"
         id="stop3962-2" />
    </linearGradient>
    <radialGradient
       r="33.5"
       fy="56.5"
       fx="32.5"
       cy="56.5"
       cx="32.5"
       gradientTransform="matrix(1,0,0,0.10447761,0,50.597015)"
       gradientUnits="userSpaceOnUse"
       id="radialGradient3981-2"
       xlink:href="#linearGradient3958-0"
       inkscape:collect="always" />
    <linearGradient
       id="linearGradient3809-4"
       inkscape:collect="always">
      <stop
         id="stop3811-9"
         offset="0"
         style="stop-color:#000000;stop-opacity:1;" />
      <stop
         id="stop3813-5"
         offset="1"
         style="stop-color:#000000;stop-opacity:0;" />
    </linearGradient>
    <radialGradient
       inkscape:collect="always"
       xlink:href="#linearGradient3958-1-5"
       id="radialGradient3964-3-6"
       cx="32.5"
       cy="56.5"
       fx="32.5"
       fy="56.5"
       r="33.5"
       gradientTransform="matrix(1,0,0,0.10447761,0,50.597015)"
       gradientUnits="userSpaceOnUse" />
    <linearGradient
       inkscape:collect="always"
       id="linearGradient3958-1-5">
      <stop
         style="stop-color:#000000;stop-opacity:1;"
         offset="0"
         id="stop3960-9-7" />
      <stop
         style="stop-color:#000000;stop-opacity:0;"
         offset="1"
         id="stop3962-9-1" />
    </linearGradient>
    <radialGradient
       inkscape:collect="always"
       xlink:href="#linearGradient3958-8"
       id="radialGradient3964-53"
       cx="32.5"
       cy="56.5"
       fx="32.5"
       fy="56.5"
       r="33.5"
       gradientTransform="matrix(1,0,0,0.10447761,0,50.597015)"
       gradientUnits="userSpaceOnUse" />
    <linearGradient
       inkscape:collect="always"
       id="linearGradient3958-8">
      <stop
         style="stop-color:#000000;stop-opacity:1;"
         offset="0"
         id="stop3960-1" />
      <stop
         style="stop-color:#000000;stop-opacity:0;"
         offset="1"
         id="stop3962-4" />
    </linearGradient>
    <radialGradient
       inkscape:collect="always"
       xlink:href="#linearGradient3958-1-6"
       id="radialGradient3964-3-5"
       cx="32.5"
       cy="56.5"
       fx="32.5"
       fy="56.5"
       r="33.5"
       gradientTransform="matrix(1,0,0,0.10447761,0,50.597015)"
       gradientUnits="userSpaceOnUse" />
    <linearGradient
       inkscape:collect="always"
       id="linearGradient3958-1-6">
      <stop
         style="stop-color:#000000;stop-opacity:1;"
         offset="0"
         id="stop3960-9-3" />
      <stop
         style="stop-color:#000000;stop-opacity:0;"
         offset="1"
         id="stop3962-9-8" />
    </linearGradient>
    <radialGradient
       inkscape:collect="always"
       xlink:href="#linearGradient3958-80"
       id="radialGradient3964-0"
       cx="32.5"
       cy="56.5"
       fx="32.5"
       fy="56.5"
       r="33.5"
       gradientTransform="matrix(1,0,0,0.10447761,0,50.597015)"
       gradientUnits="userSpaceOnUse" />
    <linearGradient
       inkscape:collect="always"
       id="linearGradient3958-80">
      <stop
         style="stop-color:#000000;stop-opacity:1;"
         offset="0"
         id="stop3960-99" />
      <stop
         style="stop-color:#000000;stop-opacity:0;"
         offset="1"
         id="stop3962-43" />
    </linearGradient>
    <radialGradient
       inkscape:collect="always"
       xlink:href="#linearGradient3958-1-1"
       id="radialGradient3964-3-68"
       cx="32.5"
       cy="56.5"
       fx="32.5"
       fy="56.5"
       r="33.5"
       gradientTransform="matrix(1,0,0,0.10447761,0,50.597015)"
       gradientUnits="userSpaceOnUse" />
    <linearGradient
       inkscape:collect="always"
       id="linearGradient3958-1-1">
      <stop
         style="stop-color:#000000;stop-opacity:1;"
         offset="0"
         id="stop3960-9-0" />
      <stop
         style="stop-color:#000000;stop-opacity:0;"
         offset="1"
         id="stop3962-9-0" />
    </linearGradient>
    <radialGradient
       inkscape:collect="always"
       xlink:href="#linearGradient3958-4"
       id="radialGradient3964-4"
       cx="32.5"
       cy="56.5"
       fx="32.5"
       fy="56.5"
       r="33.5"
       gradientTransform="matrix(1,0,0,0.10447761,0,50.597015)"
       gradientUnits="userSpaceOnUse" />
    <linearGradient
       inkscape:collect="always"
       id="linearGradient3958-4">
      <stop
         style="stop-color:#000000;stop-opacity:1;"
         offset="0"
         id="stop3960-6" />
      <stop
         style="stop-color:#000000;stop-opacity:0;"
         offset="1"
         id="stop3962-5" />
    </linearGradient>
    <radialGradient
       inkscape:collect="always"
       xlink:href="#linearGradient3958-1-56"
       id="radialGradient3964-3-1"
       cx="32.5"
       cy="56.5"
       fx="32.5"
       fy="56.5"
       r="33.5"
       gradientTransform="matrix(1,0,0,0.10447761,0,50.597015)"
       gradientUnits="userSpaceOnUse" />
    <linearGradient
       inkscape:collect="always"
       id="linearGradient3958-1-56">
      <stop
         style="stop-color:#000000;stop-opacity:1;"
         offset="0"
         id="stop3960-9-6" />
      <stop
         style="stop-color:#000000;stop-opacity:0;"
         offset="1"
         id="stop3962-9-3" />
    </linearGradient>
    <radialGradient
       inkscape:collect="always"
       xlink:href="#linearGradient3958-44"
       id="radialGradient3964-6"
       cx="32.5"
       cy="56.5"
       fx="32.5"
       fy="56.5"
       r="33.5"
       gradientTransform="matrix(1,0,0,0.10447761,0,50.597015)"
       gradientUnits="userSpaceOnUse" />
    <linearGradient
       inkscape:collect="always"
       id="linearGradient3958-44">
      <stop
         style="stop-color:#000000;stop-opacity:1;"
         offset="0"
         id="stop3960-8" />
      <stop
         style="stop-color:#000000;stop-opacity:0;"
         offset="1"
         id="stop3962-1" />
    </linearGradient>
    <radialGradient
       inkscape:collect="always"
       xlink:href="#linearGradient3958-1-10"
       id="radialGradient3964-3-2"
       cx="32.5"
       cy="56.5"
       fx="32.5"
       fy="56.5"
       r="33.5"
       gradientTransform="matrix(1,0,0,0.10447761,0,50.597015)"
       gradientUnits="userSpaceOnUse" />
    <linearGradient
       inkscape:collect="always"
       id="linearGradient3958-1-10">
      <stop
         style="stop-color:#000000;stop-opacity:1;"
         offset="0"
         id="stop3960-9-64" />
      <stop
         style="stop-color:#000000;stop-opacity:0;"
         offset="1"
         id="stop3962-9-6" />
    </linearGradient>
    <radialGradient
       inkscape:collect="always"
       xlink:href="#linearGradient3958-13"
       id="radialGradient3964-33"
       cx="32.5"
       cy="56.5"
       fx="32.5"
       fy="56.5"
       r="33.5"
       gradientTransform="matrix(1,0,0,0.10447761,0,50.597015)"
       gradientUnits="userSpaceOnUse" />
    <linearGradient
       inkscape:collect="always"
       id="linearGradient3958-13">
      <stop
         style="stop-color:#000000;stop-opacity:1;"
         offset="0"
         id="stop3960-7" />
      <stop
         style="stop-color:#000000;stop-opacity:0;"
         offset="1"
         id="stop3962-8" />
    </linearGradient>
    <radialGradient
       inkscape:collect="always"
       xlink:href="#linearGradient3958-1-4"
       id="radialGradient3964-3-4"
       cx="32.5"
       cy="56.5"
       fx="32.5"
       fy="56.5"
       r="33.5"
       gradientTransform="matrix(1,0,0,0.10447761,0,50.597015)"
       gradientUnits="userSpaceOnUse" />
    <linearGradient
       inkscape:collect="always"
       id="linearGradient3958-1-4">
      <stop
         style="stop-color:#000000;stop-opacity:1;"
         offset="0"
         id="stop3960-9-01" />
      <stop
         style="stop-color:#000000;stop-opacity:0;"
         offset="1"
         id="stop3962-9-11" />
    </linearGradient>
    <radialGradient
       inkscape:collect="always"
       xlink:href="#linearGradient3958-87"
       id="radialGradient3964-7"
       cx="32.5"
       cy="56.5"
       fx="32.5"
       fy="56.5"
       r="33.5"
       gradientTransform="matrix(1,0,0,0.10447761,0,50.597015)"
       gradientUnits="userSpaceOnUse" />
    <linearGradient
       inkscape:collect="always"
       id="linearGradient3958-87">
      <stop
         style="stop-color:#000000;stop-opacity:1;"
         offset="0"
         id="stop3960-72" />
      <stop
         style="stop-color:#000000;stop-opacity:0;"
         offset="1"
         id="stop3962-10" />
    </linearGradient>
    <radialGradient
       inkscape:collect="always"
       xlink:href="#linearGradient3958-1-52"
       id="radialGradient3964-3-27"
       cx="32.5"
       cy="56.5"
       fx="32.5"
       fy="56.5"
       r="33.5"
       gradientTransform="matrix(1,0,0,0.10447761,0,50.597015)"
       gradientUnits="userSpaceOnUse" />
    <linearGradient
       inkscape:collect="always"
       id="linearGradient3958-1-52">
      <stop
         style="stop-color:#000000;stop-opacity:1;"
         offset="0"
         id="stop3960-9-37" />
      <stop
         style="stop-color:#000000;stop-opacity:0;"
         offset="1"
         id="stop3962-9-2" />
    </linearGradient>
    <radialGradient
       inkscape:collect="always"
       xlink:href="#linearGradient3958-18"
       id="radialGradient3964-63"
       cx="32.5"
       cy="56.5"
       fx="32.5"
       fy="56.5"
       r="33.5"
       gradientTransform="matrix(1,0,0,0.10447761,0,50.597015)"
       gradientUnits="userSpaceOnUse" />
    <linearGradient
       inkscape:collect="always"
       id="linearGradient3958-18">
      <stop
         style="stop-color:#000000;stop-opacity:1;"
         offset="0"
         id="stop3960-08" />
      <stop
         style="stop-color:#000000;stop-opacity:0;"
         offset="1"
         id="stop3962-50" />
    </linearGradient>
    <radialGradient
       inkscape:collect="always"
       xlink:href="#linearGradient3958-1-64"
       id="radialGradient3964-3-7"
       cx="32.5"
       cy="56.5"
       fx="32.5"
       fy="56.5"
       r="33.5"
       gradientTransform="matrix(1,0,0,0.10447761,0,50.597015)"
       gradientUnits="userSpaceOnUse" />
    <linearGradient
       inkscape:collect="always"
       id="linearGradient3958-1-64">
      <stop
         style="stop-color:#000000;stop-opacity:1;"
         offset="0"
         id="stop3960-9-9" />
      <stop
         style="stop-color:#000000;stop-opacity:0;"
         offset="1"
         id="stop3962-9-36" />
    </linearGradient>
    <radialGradient
       inkscape:collect="always"
       xlink:href="#linearGradient3958-6"
       id="radialGradient3964-8"
       cx="32.5"
       cy="56.5"
       fx="32.5"
       fy="56.5"
       r="33.5"
       gradientTransform="matrix(1,0,0,0.10447761,0,50.597015)"
       gradientUnits="userSpaceOnUse" />
    <linearGradient
       inkscape:collect="always"
       id="linearGradient3958-6">
      <stop
         style="stop-color:#000000;stop-opacity:1;"
         offset="0"
         id="stop3960-66" />
      <stop
         style="stop-color:#000000;stop-opacity:0;"
         offset="1"
         id="stop3962-0" />
    </linearGradient>
    <radialGradient
       inkscape:collect="always"
       xlink:href="#linearGradient3958-1-59"
       id="radialGradient3964-3-0"
       cx="32.5"
       cy="56.5"
       fx="32.5"
       fy="56.5"
       r="33.5"
       gradientTransform="matrix(1,0,0,0.10447761,0,50.597015)"
       gradientUnits="userSpaceOnUse" />
    <linearGradient
       inkscape:collect="always"
       id="linearGradient3958-1-59">
      <stop
         style="stop-color:#000000;stop-opacity:1;"
         offset="0"
         id="stop3960-9-65" />
      <stop
         style="stop-color:#000000;stop-opacity:0;"
         offset="1"
         id="stop3962-9-7" />
    </linearGradient>
    <radialGradient
       inkscape:collect="always"
       xlink:href="#linearGradient3958-49"
       id="radialGradient3964-83"
       cx="32.5"
       cy="56.5"
       fx="32.5"
       fy="56.5"
       r="33.5"
       gradientTransform="matrix(1,0,0,0.10447761,0,50.597015)"
       gradientUnits="userSpaceOnUse" />
    <linearGradient
       inkscape:collect="always"
       id="linearGradient3958-49">
      <stop
         style="stop-color:#000000;stop-opacity:1;"
         offset="0"
         id="stop3960-89" />
      <stop
         style="stop-color:#000000;stop-opacity:0;"
         offset="1"
         id="stop3962-54" />
    </linearGradient>
    <radialGradient
       inkscape:collect="always"
       xlink:href="#linearGradient3958-1-46"
       id="radialGradient3964-3-8"
       cx="32.5"
       cy="56.5"
       fx="32.5"
       fy="56.5"
       r="33.5"
       gradientTransform="matrix(1,0,0,0.10447761,0,50.597015)"
       gradientUnits="userSpaceOnUse" />
    <linearGradient
       inkscape:collect="always"
       id="linearGradient3958-1-46">
      <stop
         style="stop-color:#000000;stop-opacity:1;"
         offset="0"
         id="stop3960-9-02" />
      <stop
         style="stop-color:#000000;stop-opacity:0;"
         offset="1"
         id="stop3962-9-18" />
    </linearGradient>
    <radialGradient
       inkscape:collect="always"
       xlink:href="#linearGradient3958-65"
       id="radialGradient3964-57"
       cx="32.5"
       cy="56.5"
       fx="32.5"
       fy="56.5"
       r="33.5"
       gradientTransform="matrix(1,0,0,0.10447761,0,50.597015)"
       gradientUnits="userSpaceOnUse" />
    <linearGradient
       inkscape:collect="always"
       id="linearGradient3958-65">
      <stop
         style="stop-color:#000000;stop-opacity:1;"
         offset="0"
         id="stop3960-04" />
      <stop
         style="stop-color:#000000;stop-opacity:0;"
         offset="1"
         id="stop3962-6" />
    </linearGradient>
    <radialGradient
       inkscape:collect="always"
       xlink:href="#linearGradient3958-1-47"
       id="radialGradient3964-3-44"
       cx="32.5"
       cy="56.5"
       fx="32.5"
       fy="56.5"
       r="33.5"
       gradientTransform="matrix(1,0,0,0.10447761,0,50.597015)"
       gradientUnits="userSpaceOnUse" />
    <linearGradient
       inkscape:collect="always"
       id="linearGradient3958-1-47">
      <stop
         style="stop-color:#000000;stop-opacity:1;"
         offset="0"
         id="stop3960-9-2" />
      <stop
         style="stop-color:#000000;stop-opacity:0;"
         offset="1"
         id="stop3962-9-9" />
    </linearGradient>
    <radialGradient
       inkscape:collect="always"
       xlink:href="#linearGradient3958-03"
       id="radialGradient3964-41"
       cx="32.5"
       cy="56.5"
       fx="32.5"
       fy="56.5"
       r="33.5"
       gradientTransform="matrix(1,0,0,0.10447761,0,50.597015)"
       gradientUnits="userSpaceOnUse" />
    <linearGradient
       inkscape:collect="always"
       id="linearGradient3958-03">
      <stop
         style="stop-color:#000000;stop-opacity:1;"
         offset="0"
         id="stop3960-4" />
      <stop
         style="stop-color:#000000;stop-opacity:0;"
         offset="1"
         id="stop3962-51" />
    </linearGradient>
    <radialGradient
       inkscape:collect="always"
       xlink:href="#linearGradient3958-1-42"
       id="radialGradient3964-3-54"
       cx="32.5"
       cy="56.5"
       fx="32.5"
       fy="56.5"
       r="33.5"
       gradientTransform="matrix(1,0,0,0.10447761,0,50.597015)"
       gradientUnits="userSpaceOnUse" />
    <linearGradient
       inkscape:collect="always"
       id="linearGradient3958-1-42">
      <stop
         style="stop-color:#000000;stop-opacity:1;"
         offset="0"
         id="stop3960-9-8" />
      <stop
         style="stop-color:#000000;stop-opacity:0;"
         offset="1"
         id="stop3962-9-83" />
    </linearGradient>
    <radialGradient
       inkscape:collect="always"
       xlink:href="#linearGradient3958-031"
       id="radialGradient3964-05"
       cx="32.5"
       cy="56.5"
       fx="32.5"
       fy="56.5"
       r="33.5"
       gradientTransform="matrix(1,0,0,0.10447761,0,50.597015)"
       gradientUnits="userSpaceOnUse" />
    <linearGradient
       inkscape:collect="always"
       id="linearGradient3958-031">
      <stop
         style="stop-color:#000000;stop-opacity:1;"
         offset="0"
         id="stop3960-70" />
      <stop
         style="stop-color:#000000;stop-opacity:0;"
         offset="1"
         id="stop3962-44" />
    </linearGradient>
    <radialGradient
       inkscape:collect="always"
       xlink:href="#linearGradient3958-1-61"
       id="radialGradient3964-3-9"
       cx="32.5"
       cy="56.5"
       fx="32.5"
       fy="56.5"
       r="33.5"
       gradientTransform="matrix(1,0,0,0.10447761,0,50.597015)"
       gradientUnits="userSpaceOnUse" />
    <linearGradient
       inkscape:collect="always"
       id="linearGradient3958-1-61">
      <stop
         style="stop-color:#000000;stop-opacity:1;"
         offset="0"
         id="stop3960-9-1" />
      <stop
         style="stop-color:#000000;stop-opacity:0;"
         offset="1"
         id="stop3962-9-68" />
    </linearGradient>
    <radialGradient
       gradientUnits="userSpaceOnUse"
       gradientTransform="matrix(1,0,0,0.36666667,0,59.216667)"
       r="15"
       fy="93.5"
       fx="-9"
       cy="93.5"
       cx="-9"
       id="radialGradient3815-5"
       xlink:href="#linearGradient3809-7"
       inkscape:collect="always" />
    <radialGradient
       inkscape:collect="always"
       xlink:href="#linearGradient3958-3"
       id="radialGradient3964-836"
       cx="32.5"
       cy="56.5"
       fx="32.5"
       fy="56.5"
       r="33.5"
       gradientTransform="matrix(1,0,0,0.10447761,0,50.597015)"
       gradientUnits="userSpaceOnUse" />
    <linearGradient
       inkscape:collect="always"
       id="linearGradient3958-3">
      <stop
         style="stop-color:#000000;stop-opacity:1;"
         offset="0"
         id="stop3960-60" />
      <stop
         style="stop-color:#000000;stop-opacity:0;"
         offset="1"
         id="stop3962-3" />
    </linearGradient>
    <linearGradient
       id="linearGradient3809-7"
       inkscape:collect="always">
      <stop
         id="stop3811-98"
         offset="0"
         style="stop-color:#000000;stop-opacity:1;" />
      <stop
         id="stop3813-4"
         offset="1"
         style="stop-color:#000000;stop-opacity:0;" />
    </linearGradient>
  </defs>
  <sodipodi:namedview
     id="base"
     pagecolor="#ffffff"
     bordercolor="#666666"
     borderopacity="1.0"
     inkscape:pageopacity="0.0"
     inkscape:pageshadow="2"
     inkscape:zoom="4.2961318"
     inkscape:cx="61.837439"
     inkscape:cy="120.27025"
     inkscape:document-units="px"
     inkscape:current-layer="layer1"
     showgrid="true"
     inkscape:window-width="1920"
     inkscape:window-height="1052"
     inkscape:window-x="0"
     inkscape:window-y="28"
     inkscape:window-maximized="1"
     showguides="true"
     inkscape:guide-bbox="true">
    <inkscape:grid
       type="xygrid"
       id="grid2985"
       empspacing="5"
       visible="true"
       enabled="true"
       snapvisiblegridlinesonly="true" />
  </sodipodi:namedview>
  <metadata
     id="metadata7">
    <rdf:RDF>
      <cc:Work
         rdf:about="">
        <dc:format>image/svg+xml</dc:format>
        <dc:type
           rdf:resource="http://purl.org/dc/dcmitype/StillImage" />
        <dc:title></dc:title>
      </cc:Work>
    </rdf:RDF>
  </metadata>
  <g
     inkscape:label="Layer 1"
     inkscape:groupmode="layer"
     id="layer1"
     transform="translate(0,-796.3622)">
    <path
       sodipodi:type="arc"
       style="opacity:0.55;fill:url(#radialGradient3816);fill-opacity:1;stroke:none"
       id="path3039"
       sodipodi:cx="-25"
       sodipodi:cy="203.5"
       sodipodi:rx="35"
       sodipodi:ry="27.5"
       d="m 10,203.5 a 35,27.5 0 1 1 -70,0 35,27.5 0 1 1 70,0 z"
       transform="matrix(5.0857143,0,0,1.0909091,255.14286,788.3622)" />
    <path
       sodipodi:nodetypes="ccccccccc"
       inkscape:connector-curvature="0"
       id="path3029"
       d="m 0,832.59752 0,171.29388 256,0 0,-85.6468 -12.19048,-73.412 L 148,844.3622 l -12,-24 -123.809524,0 C 6.09524,820.3622 0,826.47984 0,832.59752 z"
       style="fill:#ef6c00;fill-opacity:1;stroke:none" />
    <rect
       style="fill:#fffdf0;fill-opacity:1;stroke:none"
       id="rect3799"
       width="126.28571"
       height="47.529137"
       x="19.999998"
       y="852.36218" />
    <path
       style="opacity:0.02999998;fill:#000000;fill-opacity:1;stroke:none"
       d="m 12.25,820.3622 c -6.095236,0 -12.25,6.13232 -12.25,12.25 l 0,8 c 0,-6.11768 6.154764,-12.25 12.25,-12.25 l 119.75,0 12,24 99.75,0.5 12.25,73.3752 0,-8 -12.25,-73.3752 -95.75,-0.5 -12,-24 z"
       id="path3790"
       inkscape:connector-curvature="0"
       sodipodi:nodetypes="sscsccccccccs" />
    <path
       style="fill:#ffa726;fill-opacity:1;stroke:none"
       d="m 256,857.0682 0,171.294 -256,0 0,-160 120,0 12,-24 111.80952,0.4704 c 6.09524,0 12.19048,6.118 12.19048,12.2356 z"
       id="rect2987"
       inkscape:connector-curvature="0"
       sodipodi:nodetypes="cccccccc" />
    <path
       sodipodi:nodetypes="ccccc"
       id="path3794"
       d="m 0,1020.3622 0,8 256,0 0,-8 z"
       style="opacity:0.15;fill:#000000;fill-opacity:1;stroke:none"
       inkscape:connector-curvature="0" />
    <path
       style="opacity:0.02999998;fill:#000000;fill-opacity:1;stroke:none"
       d="m 132,844.3622 -12,24 -120,0 0,8 124,0 12,-24 107.75,0.5 c 6.09524,0 12.25,6.1324 12.25,12.25 l 0,-8 c 0,-6.1176 -6.15476,-12.25 -12.25,-12.25 z"
       id="path3015"
       inkscape:connector-curvature="0"
       sodipodi:nodetypes="ccccccccscc" />
    <path
       id="path4139"
       d="M 122.00172,900.3622 C 101.52806,900.3622 80,921.8914 80,948.3626 c 0,26.4712 21.5281,47.9996 42.00172,47.9996 32.47018,0 53.99828,-21.5284 53.99828,-47.9996 0,-26.4712 -21.52806,-48.0004 -48,-48.0004 z m 9.89827,6.7512 c 4.47405,0.414 8.80895,1.4352 12.75001,3.15 -0.30336,0.38 -0.53784,0.7116 -0.74998,1.35 -1.21219,3.6356 -3.02132,1.9028 -0.90002,6.4484 2.12132,4.5448 3.89391,5.7204 4.49999,3.5992 0.60615,-2.1196 -1.52435,-5.112 0.90001,-3.8996 2.42438,1.2124 4.21828,-0.328 2.4,2.402 -1.81828,2.7272 -1.77868,4.2056 -3.9,3.5988 -2.12132,-0.6072 -2.07866,3.5948 -4.2,4.2008 -2.12131,0.6072 -2.85,-0.9152 -2.85,0.6004 0,1.5144 1.20304,0.124 0.90002,2.55 -0.0924,0.7424 -0.0655,0.8748 -0.15,1.2 -1.99125,-0.57 -2.87934,-0.886 -4.35,-0.308 -1.51523,0.6072 -3.3,4.5008 -3.3,4.5008 1.89282,1.8928 2.77103,3.2556 3.45,3.9004 -0.42366,0.212 -0.93333,0.3 -1.35,0.6008 -3.03046,2.122 -5.39087,2.5212 -6.3,5.5492 -0.90915,3.0332 -0.59994,0.256 -0.59994,3.9 0,3.6372 -0.9183,1.1664 0.9,4.5012 1.81827,3.3336 6.27867,4.9308 8.39999,6.7496 2.12133,1.8172 4.30737,-3.9556 8.55,1.5004 4.24264,5.454 4.51524,3.2688 3.00001,6.3008 -1.51524,3.0304 -2.99391,4.0372 -3.6,5.2492 -0.60614,1.212 1.17868,5.3916 3.3,6.2996 0.0444,0 0.10248,0 0.15,0 -0.11292,0.26 -0.18804,0.492 -0.30008,0.7516 -2.747,1.2476 -6.11444,2.9688 -6.75001,3.1496 -1.5,0.432 -6.79285,1.3272 -10.64999,2.3992 -0.48216,0.136 -0.8617,0.136 -1.05,0.156 0.47952,-0.522 4.27088,-2.5044 6.14999,-3.5988 2.57145,-1.5028 -0.15,-1.3504 -0.15,-1.3504 0,0 -4.09285,-0.456 -12.44999,-0.456 -4.17858,0 -5.98928,0.188 -6.9,0.456 -0.45534,0.136 -0.67903,0.272 -0.90001,0.45 -0.221,0.188 -0.375,0.384 -0.74999,0.6 -1.50001,0.8568 0.87854,1.7568 -1.04999,2.3988 -1.44642,0.48 -1.61451,0 -2.84999,-0.9044 0.88132,-0.8764 2.0975,-1.932 3.59999,-3.7504 2.72741,-3.2996 3.59086,-2.6988 4.49999,-5.6988 0.90916,-3.0012 -7.64998,-2.0996 -7.64998,-3.9 0,-1.8 -1.4726,-2.9996 -4.2,-4.2 -2.72742,-1.2008 -0.86958,-1.8008 -3.90001,-2.7008 -3.03045,-0.8964 -6.440854,4.4996 -7.349994,2.7008 -0.909156,-1.8008 2.85,-1.8008 2.85,-3.8996 0,-2.0496 -4.322184,1.5468 -5.100012,-1.05 -0.0204,-0.096 -0.13484,-0.096 -0.15,-0.156 -0.07608,-0.38 -0.0268,-0.6004 0,-0.8964 0.19068,-2.1576 2.689344,-2.9992 3.750008,-5.1004 1.212192,-2.3976 0.58476,1.8016 2.099996,3.9012 1.515232,2.1 0.909162,-2.7 0,-5.4 -0.909148,-2.7012 0.578702,-2.7 2.700012,-6.3 2.12132,-3.6008 2.1,-5.7 2.1,-8.4008 0,-2.6992 1.46954,-2.9976 4.49999,-5.7 1.38896,-1.236 2.47869,-2.3148 3.3,-3.2992 0.19852,-0.096 0.39912,-0.096 0.6,-0.156 3.21429,-1.2864 4.56428,-3.2144 7.35,-9.0008 2.78573,-5.7844 -1.09285,-0.384 -1.95001,-0.6004 -0.85715,-0.212 -2.09999,-1.7352 -5.1,-3.45 -0.61874,-0.352 -1.17087,-0.522 -1.64999,-0.594 l 5.55001,-9.15 c 1.77777,-0.48 3.68648,-0.8088 5.54999,-1.0508 0.68182,3.8796 0.30008,7.5008 0.30008,7.5008 0,0 -1.05,1.2424 -1.05,2.1 0,0.8572 5.74286,-7.0712 6.6,-7.5 0.85716,-0.432 3.02142,2.2716 3.44999,-1.8 0.024,-0.236 -0.0268,-0.24 0,-0.45 z M 140,923.313 c -0.30776,-0.096 -0.67123,-8e-4 -1.04999,0.156 0,1.0608 -0.41058,1.8324 -0.59994,2.2492 -0.11268,-0.192 -0.45006,-0.45 -0.45006,-0.45 -0.4545,0.8384 -1.43491,1.5776 -0.45006,1.35 0.9849,-0.22 1.73185,0.384 1.05,-0.45 -0.13112,-0.156 -0.0694,-0.092 -0.15,-0.156 0.12772,0.096 0.36968,0.156 0.90001,0.156 0.5967,0 0.91744,0 1.34999,0 -0.73159,0.54 -1.52959,0.7704 -0.45006,1.05 1.43946,0.38 2.1,0.456 2.1,0.156 0,-0.3 -0.44994,-1.35 -0.44994,-1.35 0.28124,-0.116 0.54246,-0.256 0.30008,-0.7512 -0.45456,-0.9048 -1.17666,-1.8076 -2.10001,-1.9492 z m 22.95,2.5484 c 0.7495,1.1648 1.46748,2.3616 2.1,3.6008 -0.41724,2.4204 -1.47687,4.0504 0.30008,4.0504 0.4968,0 0.93997,-0.108 1.35,-0.156 0.0558,0.144 0.0963,0.308 0.15,0.45 -3.03046,0 -4.48476,0.906 -6,0.6 -1.51524,-0.308 -5.72741,-0.576 -3,-3.2992 1.59406,-1.5948 3.58532,-4.1276 5.1,-5.2512 z m -18.9,5.552 c 0.27928,0.092 0.52278,0.38 0.74999,0.8944 0.90915,2.1224 2.41218,3.8976 1.20001,4.2012 -1.2122,0.3 -1.80002,0.6008 -1.80002,0.6008 0,0 4.19696,2.7288 4.50001,-0.3 0.30308,-3.032 -1.2,-4.802 -1.2,-4.802 0,0 2.09391,2.0888 2.7,3.3012 0.60613,1.212 0.58476,0 2.10001,1.5008 1.51522,1.5136 1.17867,-6.0224 3.3,-3.9008 2.12132,2.1212 3.45609,2.0852 2.84999,3.6 -0.60614,1.5144 3.90001,-1.8304 3.90001,1.1996 0,2.9216 1.86321,4.1072 -1.8,5.5504 -1.38693,-0.096 -2.48468,-0.328 -2.70001,-0.7516 -0.60613,-1.2108 -4.04999,-0.3 -4.04999,-0.3 -9.06551,-2.2656 -13.00116,-2.9836 -15.60001,-2.5492 0.0492,-0.096 0.0968,-0.096 0.15,-0.156 1.32582,-2.388 3.82035,-5.7036 3,-6.9 1.15542,-0.6652 2.06114,-1.3948 2.7,-1.2012 z m 25.5,15.1488 c 0.0268,0.6068 0,1.1852 0,1.8004 0,1.706 -0.10232,3.4484 -0.30008,5.0996 -2.72647,-2.4256 -6.60001,-2.3992 -6.60001,-2.3992 0,0 2.3665,-2.688 5.70001,-3.9008 0.41676,-0.156 0.86322,-0.356 1.2,-0.6 z"
       style="line-height:normal;opacity:1.0;color:#000000;fill:#b17621;fill-opacity:1"
       inkscape:connector-curvature="0" />
  </g>
</svg>
