<svg width="48" xmlns="http://www.w3.org/2000/svg" viewBox="0 0 48 48" height="48">
<g style="stroke:#777">
<path style="fill:#fff;stroke-width:.5" d="m 25.932203,35.18644 a 12.254237,12.508474 0 1 1 -24.5084741,0 12.254237,12.508474 0 1 1 24.5084741,0 z" transform="matrix(1.59979 0 0 1.56727 2.11819 -31.14659)"/>
</g>
<g style="fill:#427fed" transform="matrix(1.00616 0 0 1.07742 4.88265 3.81282)">
<path d="m 43.421053,-139.31579 169.157897,0 c 5.05263,0 9.15789,4.10526 9.15789,9.18421 l 0,106.710527 c 0,5.052632 -4.10526,9.157895 -9.15789,9.157895 l -169.157897,0 c -5.052632,0 -9.157895,-4.105263 -9.157895,-9.157895 l 0,-106.710527 c 0,-5.07895 4.105263,-9.18421 9.157895,-9.18421 z" transform="matrix(.14844 0 0 .14844 0 30.875)"/>
</g>
<g transform="translate(-.50002 -.20289)">
<path style="fill:#427fed" d="m 14.200497,13.405786 3.995789,0 c 0.55579,0 1.002106,0.446316 1.002106,1.002106 0,0.551577 -0.446316,0.997894 -1.002106,0.997894 l -3.995789,0 c -0.55579,0 -1.002105,-0.446317 -1.002105,-0.997894 0,-0.55579 0.446315,-1.002106 1.002105,-1.002106 z"/>
<path style="fill:#fff" d="m 33.902948,17.311594 0.89822,0 c 0.496485,0 0.898222,0.429307 0.898222,0.954909 l 0,0.95491 c 0,0.525602 -0.401737,0.950898 -0.898222,0.950898 l -0.89822,0 c -0.500275,0 -0.902011,-0.425296 -0.902011,-0.950898 l 0,-0.95491 c 0,-0.525602 0.401736,-0.954909 0.902011,-0.954909 z"/>
<path style="fill:#fff" d="m 29.851407,25.416311 c 0,3.422432 -2.618856,6.194883 -5.851684,6.194883 -3.232828,0 -5.851684,-2.772451 -5.851684,-6.194883 0,-3.422432 2.618856,-6.194883 5.851684,-6.194883 3.232828,0 5.851684,2.772451 5.851684,6.194883 z"/>
</g>
</svg>
