<svg width="48" xmlns="http://www.w3.org/2000/svg" viewBox="0 0 48 48" height="48" xmlns:xlink="http://www.w3.org/1999/xlink">
<g style="stroke:#777">
<path style="fill:#fff;stroke-width:.5" d="m 25.932203,35.18644 a 12.254237,12.508474 0 1 1 -24.5084741,0 12.254237,12.508474 0 1 1 24.5084741,0 z" transform="matrix(1.59979 0 0 1.56727 2.11819 -31.14659)"/>
</g>
<path style="fill:#f2000c;color:#000" d="M 21.500001,9 C 20.668999,9 20,9.669 20,10.5 l 0,1.5 0,12 0,1.5 c 0,0.831 0.669,1.5 1.500001,1.5 l 1.499998,0 2.000002,0 L 26.5,27 C 27.331,27 28,26.331 28,25.5 L 28,24 28,12 28,10.5 C 28,9.669 27.288354,9.2627855 26.5,9 l -1.499999,0 -2.000002,0 z m 0,21.999999 c -0.831002,0 -1.500001,0.669 -1.500001,1.5 l 0,1.5 L 20,36 l 0,1.5 c 0,0.831 0.71164,1.237216 1.500001,1.5 l 1.499998,0 2.000002,0 L 26.5,39 c 0.831,0 1.5,-0.669 1.5,-1.5 l 0,-1.5 0,-2.000001 0,-1.5 c 0,-0.831 -0.669,-1.5 -1.5,-1.5 l -1.499999,0 -2.000002,0 z"/>
</svg>
