<svg width="22" xmlns="http://www.w3.org/2000/svg" height="22" viewBox="0 0 22 22" xmlns:xlink="http://www.w3.org/1999/xlink">
<path style="fill:#fff;stroke:#777;stroke-width:.5" d="M 25.930955 35.186401 C 25.930955 42.09259 20.443729 47.693673 13.677926 47.693673 C 6.912124 47.693673 1.424898 42.09259 1.424898 35.186401 C 1.424898 28.280211 6.912124 22.679128 13.677926 22.679128 C 20.443729 22.679128 25.930955 28.280211 25.930955 35.186401 Z " transform="matrix(.73324 0 0 .71833 .97084 -14.27552)"/>
<g style="fill:#427fec">
<path d="M 5.210938 6.78125 L 16.789062 6.78125 C 17.136719 6.78125 17.417969 7.082031 17.417969 7.457031 L 17.417969 15.277344 C 17.417969 15.648438 17.136719 15.949219 16.789062 15.949219 L 5.210938 15.949219 C 4.863281 15.949219 4.582031 15.648438 4.582031 15.277344 L 4.582031 7.457031 C 4.582031 7.082031 4.863281 6.78125 5.210938 6.78125 Z "/>
<path d="M 6.28125 6.050781 L 8.109375 6.050781 C 8.367188 6.050781 8.570312 6.257812 8.570312 6.511719 C 8.570312 6.761719 8.367188 6.96875 8.109375 6.96875 L 6.28125 6.96875 C 6.023438 6.96875 5.820312 6.761719 5.820312 6.511719 C 5.820312 6.257812 6.023438 6.050781 6.28125 6.050781 Z "/>
</g>
<g style="fill:#fff">
<path d="M 15.308594 7.839844 L 15.722656 7.839844 C 15.949219 7.839844 16.132812 8.039062 16.132812 8.277344 L 16.132812 8.71875 C 16.132812 8.957031 15.949219 9.152344 15.722656 9.152344 L 15.308594 9.152344 C 15.082031 9.152344 14.894531 8.957031 14.894531 8.71875 L 14.894531 8.277344 C 14.894531 8.039062 15.082031 7.839844 15.308594 7.839844 Z "/>
<path d="M 13.453125 11.554688 C 13.453125 13.125 12.253906 14.394531 10.769531 14.394531 C 9.289062 14.394531 8.089844 13.125 8.089844 11.554688 C 8.089844 9.988281 9.289062 8.71875 10.769531 8.71875 C 12.253906 8.71875 13.453125 9.988281 13.453125 11.554688 Z "/>
</g>
</svg>
