<svg width="22" xmlns="http://www.w3.org/2000/svg" height="22" viewBox="0 0 22 22" xmlns:xlink="http://www.w3.org/1999/xlink">
<path style="fill:#fff;stroke:#777;stroke-width:.5" d="M 25.930955 35.186401 C 25.930955 42.09259 20.443729 47.693673 13.677926 47.693673 C 6.912124 47.693673 1.424898 42.09259 1.424898 35.186401 C 1.424898 28.280211 6.912124 22.679128 13.677926 22.679128 C 20.443729 22.679128 25.930955 28.280211 25.930955 35.186401 Z " transform="matrix(.73324 0 0 .71833 .97084 -14.27552)"/>
<g style="fill:#dc322f">
<path d="M 11 14.683594 L 11 15.90625 L 9.046875 17.1875 "/>
<path d="M 11 14.683594 L 11 15.90625 L 12.953125 17.1875 "/>
<path d="M 5.609375 15.183594 L 5.65625 7.472656 L 16.34375 7.496094 L 16.390625 15.160156 Z "/>
<path d="M 5.28125 6.816406 L 16.71875 6.816406 L 16.71875 8.210938 L 5.28125 8.210938 Z "/>
</g>
</svg>
