<svg width="22" xmlns="http://www.w3.org/2000/svg" height="22" viewBox="0 0 22 22" xmlns:xlink="http://www.w3.org/1999/xlink">
<path style="fill:#fff;stroke:#777;stroke-width:.5" d="M 25.930955 35.186401 C 25.930955 42.09259 20.443729 47.693673 13.677926 47.693673 C 6.912124 47.693673 1.424898 42.09259 1.424898 35.186401 C 1.424898 28.280211 6.912124 22.679128 13.677926 22.679128 C 20.443729 22.679128 25.930955 28.280211 25.930955 35.186401 Z " transform="matrix(.73324 0 0 .71833 .97084 -14.27552)"/>
<path style="fill:#f2000b" d="M 9.855469 4.125 C 9.472656 4.125 9.167969 4.429688 9.167969 4.8125 L 9.167969 11.6875 C 9.167969 12.070312 9.472656 12.375 9.855469 12.375 L 12.144531 12.375 C 12.527344 12.375 12.832031 12.070312 12.832031 11.6875 L 12.832031 4.8125 C 12.832031 4.429688 12.507812 4.246094 12.144531 4.125 Z M 9.855469 14.207031 C 9.472656 14.207031 9.167969 14.515625 9.167969 14.894531 L 9.167969 17.1875 C 9.167969 17.570312 9.492188 17.753906 9.855469 17.875 L 12.144531 17.875 C 12.527344 17.875 12.832031 17.570312 12.832031 17.1875 L 12.832031 14.894531 C 12.832031 14.515625 12.527344 14.207031 12.144531 14.207031 Z "/>
</svg>
