<?xml version="1.0" encoding="UTF-8" standalone="no"?>
<!-- Created with Inkscape (http://www.inkscape.org/) -->

<svg
   xmlns:dc="http://purl.org/dc/elements/1.1/"
   xmlns:cc="http://creativecommons.org/ns#"
   xmlns:rdf="http://www.w3.org/1999/02/22-rdf-syntax-ns#"
   xmlns:svg="http://www.w3.org/2000/svg"
   xmlns="http://www.w3.org/2000/svg"
   xmlns:sodipodi="http://sodipodi.sourceforge.net/DTD/sodipodi-0.dtd"
   xmlns:inkscape="http://www.inkscape.org/namespaces/inkscape"
   width="16"
   height="16"
   id="svg2"
   version="1.1"
   inkscape:version="0.48.5 r10040"
   sodipodi:docname="folder-copy.svg"
   inkscape:export-filename="/media/Data/Main/Visuals/Icons/Numix/Desktop/repos/numix-wiki/Gjorgi/Numix-folders/48/New/folder-144.png"
   inkscape:export-xdpi="270"
   inkscape:export-ydpi="270">
  <defs
     id="defs4" />
  <sodipodi:namedview
     id="base"
     pagecolor="#ffffff"
     bordercolor="#666666"
     borderopacity="1.0"
     inkscape:pageopacity="0.0"
     inkscape:pageshadow="2"
     inkscape:zoom="40.501526"
     inkscape:cx="9.4328263"
     inkscape:cy="6.8259159"
     inkscape:document-units="px"
     inkscape:current-layer="layer1"
     showgrid="true"
     inkscape:window-width="1920"
     inkscape:window-height="1052"
     inkscape:window-x="0"
     inkscape:window-y="28"
     inkscape:window-maximized="1"
     showguides="true"
     inkscape:guide-bbox="true">
    <inkscape:grid
       type="xygrid"
       id="grid2985"
       empspacing="5"
       visible="true"
       enabled="true"
       snapvisiblegridlinesonly="true" />
  </sodipodi:namedview>
  <metadata
     id="metadata7">
    <rdf:RDF>
      <cc:Work
         rdf:about="">
        <dc:format>image/svg+xml</dc:format>
        <dc:type
           rdf:resource="http://purl.org/dc/dcmitype/StillImage" />
        <dc:title />
      </cc:Work>
    </rdf:RDF>
  </metadata>
  <g
     inkscape:label="Layer 1"
     inkscape:groupmode="layer"
     id="layer1"
     transform="translate(0,-1036.3622)">
    <path
       style="fill:#ef6c00;fill-opacity:1;stroke:none"
       d="m 2,1038.8622 0,6.5 8,0 0,-3.5 -0.5,-2.5 -2.5,0 -0.5,-1 -4,0 c -0.25,0 -0.5,0.25 -0.5,0.5 z"
       id="path3017"
       inkscape:connector-curvature="0"
       sodipodi:nodetypes="ccccccccc" />
    <rect
       y="1039.3622"
       x="3"
       height="1.9999739"
       width="5"
       id="rect3021"
       style="fill:#fffdf0;fill-opacity:1;stroke:none" />
    <path
       sodipodi:nodetypes="cccccccc"
       inkscape:connector-curvature="0"
       id="path3023"
       d="m 10,1039.8622 0,6.5 -8,0 0,-6 3.5,0 0.5,-1 3.5,0 c 0.25,0 0.5,0.25 0.5,0.5 z"
       style="fill:#ffa726;fill-opacity:1;stroke:none" />
    <path
       inkscape:connector-curvature="0"
       id="path3027"
       d="m 7.5,1039.1122 -1.25,0.75 0.75,0 z"
       style="fill:none;stroke:none" />
    <path
       sodipodi:nodetypes="ccccccccc"
       inkscape:connector-curvature="0"
       id="path3029"
       d="m 6,1042.8622 0,6.5 8,0 0,-3.5 -0.5,-2.5 -2.5,0 -0.5,-1 -4,0 c -0.25,0 -0.5,0.25 -0.5,0.5 z"
       style="fill:#ef6c00;fill-opacity:1;stroke:none" />
    <rect
       style="fill:#fffdf0;fill-opacity:1;stroke:none"
       id="rect3799"
       width="5"
       height="1.9999739"
       x="7"
       y="1043.3622" />
    <path
       style="fill:#ffa726;fill-opacity:1;stroke:none"
       d="m 14,1043.8622 0,6.5 -8,0 0,-6 3.5,0 0.5,-1 3.5,0 c 0.25,0 0.5,0.25 0.5,0.5 z"
       id="rect2987"
       inkscape:connector-curvature="0"
       sodipodi:nodetypes="cccccccc" />
    <path
       style="fill:none;stroke:none"
       d="m 11.5,1043.1122 -1.25,0.75 0.75,0 z"
       id="path3801"
       inkscape:connector-curvature="0" />
  </g>
</svg>
