<svg xmlns="http://www.w3.org/2000/svg" viewBox="0 0 16 16">
 <g transform="translate(0,-1036.3622)">
  <path d="m 0 1037.36 0 13 16 0 0 -7 -1 -5 -5 0 -1 -2 -8 0 c -0.5 0 -1 0.5 -1 1 z" style="fill:#757575;fill-opacity:1;stroke:none"/>
  <path d="M 1,0 C 0.5,0 0,0.5 0,1 L 0,2 C 0,1.5 0.5,1 1,1 L 8,1 9,3 15,3 16,8 16,7 15,2 10,2 9,0 z" transform="translate(0,1036.3622)" style="fill:#000;opacity:0.03;fill-opacity:1;stroke:none"/>
  <rect width="10" height="3" x="2" y="1039.36" style="fill:#fffdf0;fill-opacity:1;stroke:none"/>
  <path d="m 16 1039.36 0 13 -16 0 0 -12 7 0 1 -2 7 0 c 0.5 0 1 0.5 1 1 z" style="fill:#bdbdbd;fill-opacity:1;stroke:none"/>
  <path d="m 0 1051.36 0 1 16 0 0 -1 z" style="fill:#000;opacity:0.15;fill-opacity:1;stroke:none"/>
  <path d="M 8,2 7,4 0,4 0,5 8,5 9,3 15,3 c 0.5,0 1,0.5 1,1 L 16,3 C 16,2.5 15.5,2 15,2 z" transform="translate(0,1036.3622)" style="fill:#000;opacity:0.03;fill-opacity:1;stroke:none"/>
 </g>
</svg>
