<svg width="24" xmlns="http://www.w3.org/2000/svg" height="24" viewBox="0 0 24 24" xmlns:xlink="http://www.w3.org/1999/xlink">
<g style="fill:#8ccd7c">
<path d="M 6.960938 7.523438 C 4.550781 7.523438 2.597656 9.488281 2.597656 11.910156 C 2.597656 12.0625 2.601562 12.210938 2.613281 12.359375 C 2.652344 13.296875 2.597656 14.65625 3.6875 17.945312 C 4.617188 20.746094 5.324219 20.6875 5.324219 20.6875 L 6.414062 20.140625 C 6.414062 20.140625 5.867188 19.042969 5.867188 17.945312 C 5.867188 17.417969 5.992188 16.769531 6.125 16.234375 C 6.394531 16.285156 6.675781 16.300781 6.960938 16.300781 C 9.367188 16.300781 11.320312 14.335938 11.320312 11.910156 C 11.320312 9.488281 9.367188 7.523438 6.960938 7.523438 Z "/>
<path d="M 16.789062 16.226562 C 19.199219 16.226562 21.152344 14.261719 21.152344 11.839844 C 21.152344 11.6875 21.148438 11.539062 21.136719 11.390625 C 21.097656 10.453125 21.152344 9.09375 20.0625 5.804688 C 19.132812 3.003906 18.425781 3.0625 18.425781 3.0625 L 17.335938 3.609375 C 17.335938 3.609375 17.882812 4.707031 17.882812 5.804688 C 17.882812 6.332031 17.757812 6.980469 17.625 7.515625 C 17.355469 7.464844 17.074219 7.449219 16.789062 7.449219 C 14.382812 7.449219 12.429688 9.414062 12.429688 11.839844 C 12.429688 14.261719 14.382812 16.226562 16.789062 16.226562 Z "/>
</g>
</svg>
