<svg width="24" xmlns="http://www.w3.org/2000/svg" height="24" viewBox="0 0 24 24" xmlns:xlink="http://www.w3.org/1999/xlink">
<g style="fill:#52c8ff">
<path d="M 3.710938 7.816406 L 3.730469 8.976562 L 20.082031 8.976562 L 20.066406 7.816406 Z "/>
<path d="M 3.03125 11.292969 L 3.03125 12.453125 L 20.71875 12.453125 L 20.71875 11.292969 Z "/>
<path d="M 3.757812 14.773438 L 3.757812 15.933594 L 19.992188 15.933594 L 19.992188 14.773438 Z "/>
<path d="M 11.292969 3.039062 L 11.292969 20.734375 L 12.457031 20.734375 L 12.457031 3.039062 Z "/>
</g>
<g style="fill:none;stroke:#52c8ff">
<g style="stroke-width:12.5">
<path d="M 89.766909 7.747238 C 66.904136 -44.757141 68.630423 -110.650768 89.766909 -168.039275 " transform="matrix(.09277 0 0 .09277 0 19.29688)"/>
<path d="M 166.228779 7.747238 C 189.091552 -44.757141 187.365265 -110.650768 166.228779 -168.039275 " transform="matrix(.09277 0 0 .09277 0 19.29688)"/>
</g>
<path style="stroke-linecap:round;stroke-width:1.214" d="M 33.054954 27.317142 C 33.054954 32.346385 28.982493 36.418845 23.95325 36.418845 C 18.924007 36.418845 14.847458 32.346385 14.847458 27.317142 C 14.847458 22.287898 18.924007 18.211349 23.95325 18.211349 C 28.982493 18.211349 33.054954 22.287898 33.054954 27.317142 Z " transform="matrix(.95535 0 0 .95535 -11.00874 -14.22243)"/>
</g>
</svg>
