<svg width="24" xmlns="http://www.w3.org/2000/svg" height="24" viewBox="0 0 24 24" xmlns:xlink="http://www.w3.org/1999/xlink">
<g style="stroke:#549ca4;stroke-width:4.545;fill:#549ca4">
<path d="M 69.177782 106.22979 C 70.777755 113.80861 71.704056 119.492724 70.35671 127.02944 C 60.083199 135.408246 33.767852 139.155551 33.809957 147.829089 L 30.273174 173.807599 C 30.273174 182.396928 54.820129 189.386284 85.093304 189.386284 C 115.324373 189.386284 139.871328 182.396928 139.871328 173.807599 L 136.334546 147.829089 C 136.292441 140.376583 109.808677 135.702978 99.661479 127.02944 C 98.777284 120.040084 99.493061 113.219146 100.966721 106.22979 Z " transform="scale(.09277)"/>
<path d="M 84.798572 57.556925 C 72.251415 57.556925 62.062113 67.325182 62.062113 79.409189 C 62.188426 83.872272 62.567367 89.177445 65.135745 101.261452 C 66.651509 105.935058 80.167071 119.366411 80.25128 120.924279 C 83.198599 122.482148 87.8301 122.482148 90.861628 120.924279 C 90.861628 119.366411 102.987739 105.935058 104.545608 101.261452 C 107.408717 88.714295 107.408717 84.124899 107.535031 79.409189 C 107.535031 67.325182 97.387833 57.556925 84.798572 57.556925 Z " transform="scale(.09277)"/>
<g style="stroke-linejoin:round">
<path d="M 132.755659 71.198801 C 125.09263 66.651509 112.629682 34.94678 114.566492 48.462342 L 119.113783 80.25128 Z " transform="scale(.09277)"/>
<path d="M 178.018054 71.198801 C 185.681083 66.651509 198.101927 34.94678 196.165117 48.462342 L 191.617825 80.25128 Z " transform="scale(.09277)"/>
</g>
<path d="M 134.818782 107.535031 C 136.92401 117.429601 138.060833 124.924212 136.37665 134.818782 C 123.155821 145.808071 89.303759 150.734303 89.387968 162.060428 L 84.798572 196.165117 C 84.798572 207.491242 116.376987 216.62793 155.281595 216.62793 C 194.186203 216.62793 225.722514 207.491242 225.722514 196.165117 L 221.175222 162.060428 C 221.133118 152.376381 187.070534 146.187012 174.018122 134.818782 C 172.881299 125.639989 173.807599 116.755928 175.744409 107.535031 Z " transform="scale(.09277)"/>
<path d="M 155.281595 39.367758 C 136.46086 39.367758 121.176906 53.599097 121.176906 71.198801 C 121.345325 77.682902 121.892684 85.43014 125.724198 102.987739 C 127.997844 109.808677 148.250135 127.997844 148.460658 130.27149 C 152.881636 132.545136 159.828887 132.545136 164.376179 130.27149 C 164.376179 127.997844 182.565346 109.808677 184.796888 102.987739 C 189.133657 84.714363 189.133657 78.019739 189.386284 71.198801 C 189.386284 53.599097 174.102331 39.367758 155.281595 39.367758 Z " transform="scale(.09277)"/>
</g>
</svg>
