<svg width="24" xmlns="http://www.w3.org/2000/svg" height="24" viewBox="0 0 24 24" xmlns:xlink="http://www.w3.org/1999/xlink">
<g style="fill:#ec7878">
<path d="M 13.082031 5.378906 C 13.003906 5.378906 12.917969 5.402344 12.84375 5.453125 C 12.769531 5.5 12.707031 5.582031 12.710938 5.691406 C 12.71875 5.730469 12.714844 5.765625 12.710938 5.808594 C 12.710938 5.925781 12.808594 6.023438 12.933594 6.023438 C 13.050781 6.023438 13.148438 5.925781 13.148438 5.808594 C 13.148438 5.6875 13.054688 5.589844 12.933594 5.589844 C 12.976562 5.5625 13.039062 5.546875 13.082031 5.542969 C 13.253906 5.542969 13.382812 5.640625 13.472656 5.789062 C 13.566406 5.933594 13.613281 6.128906 13.609375 6.289062 C 13.601562 6.683594 13.40625 7.019531 13.117188 7.273438 C 12.828125 7.527344 12.445312 7.703125 12.082031 7.769531 L 12.113281 7.933594 C 12.503906 7.859375 12.914062 7.675781 13.226562 7.398438 C 13.542969 7.117188 13.765625 6.742188 13.777344 6.292969 C 13.78125 6.097656 13.726562 5.878906 13.613281 5.699219 C 13.5 5.519531 13.316406 5.378906 13.082031 5.378906 Z "/>
<path d="M 10.667969 5.378906 C 10.746094 5.378906 10.832031 5.402344 10.90625 5.453125 C 10.980469 5.5 11.042969 5.582031 11.039062 5.691406 C 11.03125 5.730469 11.035156 5.765625 11.039062 5.808594 C 11.039062 5.925781 10.941406 6.023438 10.816406 6.023438 C 10.699219 6.023438 10.601562 5.925781 10.601562 5.808594 C 10.601562 5.6875 10.695312 5.589844 10.816406 5.589844 C 10.773438 5.5625 10.710938 5.546875 10.667969 5.542969 C 10.496094 5.542969 10.367188 5.640625 10.277344 5.789062 C 10.183594 5.933594 10.136719 6.128906 10.140625 6.289062 C 10.148438 6.683594 10.34375 7.019531 10.632812 7.273438 C 10.921875 7.527344 11.304688 7.703125 11.667969 7.769531 L 11.636719 7.933594 C 11.246094 7.859375 10.835938 7.675781 10.523438 7.398438 C 10.207031 7.117188 9.984375 6.742188 9.972656 6.292969 C 9.96875 6.097656 10.023438 5.878906 10.136719 5.699219 C 10.25 5.519531 10.433594 5.378906 10.667969 5.378906 Z "/>
<path d="M 11.710938 6.960938 C 10.777344 7.003906 9.871094 7.464844 9.265625 8.171875 C 8.953125 8.511719 8.664062 8.890625 8.527344 9.339844 C 8.53125 9.410156 8.558594 9.480469 8.578125 9.546875 C 8.375 9.5625 8.128906 9.535156 7.988281 9.710938 C 7.738281 9.988281 7.679688 10.375 7.554688 10.71875 C 6.988281 12.667969 7.28125 14.890625 8.480469 16.550781 C 9.132812 17.441406 10.101562 18.148438 11.214844 18.328125 C 11.398438 18.34375 11.609375 18.394531 11.78125 18.296875 C 11.84375 18.246094 11.9375 18.257812 11.992188 18.316406 C 12.222656 18.433594 12.484375 18.320312 12.726562 18.289062 C 13.859375 18.039062 14.835938 17.261719 15.445312 16.289062 C 16.574219 14.542969 16.761719 12.257812 16.0625 10.308594 C 15.96875 10.074219 15.875 9.828125 15.695312 9.648438 C 15.570312 9.5625 15.414062 9.535156 15.269531 9.523438 C 15.363281 9.328125 15.300781 9.09375 15.160156 8.9375 C 14.648438 8.101562 13.890625 7.382812 12.9375 7.101562 C 12.539062 6.988281 12.125 6.960938 11.710938 6.960938 Z "/>
<path d="M 11.832031 7.191406 C 11.828125 7.191406 11.820312 7.191406 11.8125 7.195312 C 11.488281 7.21875 11.152344 7.25 10.839844 7.359375 C 9.945312 7.671875 9.265625 8.402344 8.796875 9.207031 C 8.726562 9.332031 8.777344 9.503906 8.921875 9.515625 C 9.921875 9.519531 10.921875 9.515625 11.921875 9.519531 C 11.921875 9.519531 11.921875 9.519531 11.925781 9.519531 C 12.925781 9.515625 13.929688 9.519531 14.929688 9.515625 C 15.074219 9.503906 15.121094 9.332031 15.050781 9.207031 C 14.582031 8.402344 13.902344 7.671875 13.007812 7.359375 C 12.695312 7.25 12.359375 7.21875 12.035156 7.195312 C 11.949219 7.1875 11.964844 7.214844 11.925781 7.214844 C 11.886719 7.210938 11.902344 7.191406 11.832031 7.191406 Z "/>
<path d="M 12.554688 9.769531 C 12.261719 9.769531 12.023438 10.007812 12.023438 10.304688 L 12.023438 17.929688 C 12.023438 18.039062 12.023438 18.117188 12.164062 18.132812 C 14.40625 18.011719 16.242188 15.617188 16.242188 12.695312 C 16.242188 11.730469 16.046875 10.824219 15.707031 10.039062 C 15.707031 10.039062 15.703125 10.039062 15.703125 10.039062 C 15.699219 10.023438 15.691406 10.003906 15.683594 9.988281 C 15.683594 9.984375 15.679688 9.984375 15.679688 9.984375 C 15.679688 9.980469 15.679688 9.980469 15.679688 9.980469 C 15.617188 9.851562 15.492188 9.769531 15.34375 9.769531 Z "/>
<path d="M 11.195312 9.769531 C 11.488281 9.769531 11.726562 10.007812 11.726562 10.304688 L 11.726562 17.929688 C 11.726562 18.039062 11.726562 18.117188 11.585938 18.132812 C 9.34375 18.011719 7.507812 15.617188 7.507812 12.695312 C 7.507812 11.730469 7.703125 10.824219 8.042969 10.039062 C 8.042969 10.039062 8.046875 10.039062 8.046875 10.039062 C 8.050781 10.023438 8.058594 10.003906 8.066406 9.988281 C 8.066406 9.984375 8.070312 9.984375 8.070312 9.984375 C 8.070312 9.980469 8.070312 9.980469 8.070312 9.980469 C 8.132812 9.851562 8.257812 9.769531 8.40625 9.769531 Z "/>
<g style="fill-rule:evenodd">
<path d="M 8.757812 9.988281 L 8.417969 10.410156 L 7.878906 10.371094 L 8.175781 10.820312 L 7.972656 11.320312 L 8.492188 11.179688 L 8.902344 11.527344 L 8.929688 10.988281 L 9.390625 10.707031 L 8.882812 10.511719 Z M 10.441406 10.5 L 10.15625 11.9375 L 8.8125 12.515625 L 10.085938 13.234375 L 10.222656 14.691406 L 11.296875 13.699219 L 12.730469 14.019531 L 12.117188 12.691406 L 12.863281 11.429688 L 11.410156 11.605469 Z M 14.835938 11.164062 L 14.5 11.585938 L 13.960938 11.546875 L 14.253906 11.996094 L 14.054688 12.496094 L 14.574219 12.351562 L 14.984375 12.703125 L 15.007812 12.164062 L 15.46875 11.878906 L 14.964844 11.6875 Z M 8.34375 13.742188 L 7.933594 14.566406 L 7.546875 14.625 C 7.683594 15.085938 7.867188 15.53125 8.101562 15.949219 L 8.34375 15.824219 L 9.15625 16.253906 L 9 15.34375 L 9.660156 14.699219 L 8.746094 14.566406 Z M 15.046875 13.820312 L 14.234375 14.738281 L 13.019531 14.59375 L 13.648438 15.648438 L 13.132812 16.761719 L 14.328125 16.492188 L 14.890625 17.007812 C 15.042969 16.847656 15.179688 16.679688 15.304688 16.5 L 15.34375 16.101562 L 15.667969 15.921875 C 15.773438 15.722656 15.871094 15.515625 15.960938 15.308594 L 15.285156 15.019531 Z M 11.019531 16.304688 L 10.679688 16.722656 L 10.140625 16.683594 L 10.4375 17.136719 L 10.234375 17.636719 L 10.753906 17.496094 L 11.164062 17.84375 L 11.191406 17.304688 L 11.648438 17.019531 L 11.144531 16.828125 Z "/>
<path style="fill-opacity:.902" d="M 15.683594 14.070312 C 15.683594 14.914062 14.019531 15.601562 11.96875 15.601562 C 9.917969 15.601562 8.25 14.914062 8.25 14.070312 C 8.25 13.226562 9.917969 12.542969 11.96875 12.542969 C 14.019531 12.542969 15.683594 13.226562 15.683594 14.070312 Z "/>
</g>
<path style="fill-opacity:.459" d="M 9.222656 16.8125 C 9.8125 17.421875 10.585938 17.863281 11.4375 17.957031 C 11.488281 17.972656 11.59375 17.96875 11.566406 17.886719 C 11.5625 17.703125 11.558594 17.515625 11.558594 17.332031 C 11.5625 17.21875 11.5625 17.238281 11.476562 17.292969 C 10.601562 17.824219 9.859375 17.179688 9.222656 16.8125 Z M 14.5 16.855469 C 13.863281 17.222656 13.121094 17.867188 12.242188 17.335938 C 12.15625 17.28125 12.15625 17.257812 12.160156 17.375 C 12.160156 17.558594 12.15625 17.742188 12.152344 17.929688 C 12.125 18.011719 12.230469 18.015625 12.285156 18 C 13.132812 17.90625 13.90625 17.464844 14.5 16.855469 Z "/>
<g style="fill-rule:evenodd">
<path d="M 14.242188 9.003906 C 14.242188 10.039062 13.195312 10.878906 11.90625 10.878906 C 10.617188 10.878906 9.574219 10.039062 9.574219 9.003906 C 9.574219 7.96875 10.617188 7.132812 11.90625 7.132812 C 13.195312 7.132812 14.242188 7.96875 14.242188 9.003906 Z "/>
<path d="M 10.953125 5.746094 C 10.953125 5.820312 10.894531 5.882812 10.824219 5.882812 C 10.75 5.882812 10.695312 5.820312 10.695312 5.746094 C 10.695312 5.671875 10.75 5.613281 10.824219 5.613281 C 10.894531 5.613281 10.953125 5.671875 10.953125 5.746094 Z "/>
<path d="M 13.054688 5.746094 C 13.054688 5.820312 13 5.882812 12.925781 5.882812 C 12.855469 5.882812 12.796875 5.820312 12.796875 5.746094 C 12.796875 5.671875 12.855469 5.613281 12.925781 5.613281 C 13 5.613281 13.054688 5.671875 13.054688 5.746094 Z "/>
</g>
<path d="M 16.621094 11.21875 C 16.28125 11.265625 16.039062 11.574219 16.082031 11.917969 C 16.125 12.257812 16.4375 12.5 16.773438 12.457031 L 21.636719 12.457031 C 21.863281 12.460938 22.070312 12.34375 22.183594 12.152344 C 22.292969 11.957031 22.292969 11.722656 22.183594 11.527344 C 22.070312 11.335938 21.863281 11.21875 21.636719 11.21875 L 16.773438 11.21875 C 16.722656 11.214844 16.671875 11.214844 16.621094 11.21875 Z "/>
<path d="M 2.046875 11.257812 C 1.828125 11.28125 1.632812 11.414062 1.539062 11.617188 C 1.449219 11.820312 1.46875 12.054688 1.597656 12.234375 C 1.726562 12.417969 1.945312 12.515625 2.164062 12.496094 L 7.066406 12.496094 C 7.289062 12.496094 7.496094 12.378906 7.605469 12.1875 C 7.71875 11.996094 7.71875 11.757812 7.605469 11.566406 C 7.496094 11.371094 7.289062 11.253906 7.066406 11.257812 L 2.164062 11.257812 C 2.125 11.253906 2.085938 11.253906 2.046875 11.257812 Z "/>
<path d="M 11.773438 1.496094 C 11.476562 1.554688 11.265625 1.8125 11.269531 2.113281 L 11.269531 7.09375 C 11.265625 7.316406 11.382812 7.523438 11.578125 7.636719 C 11.769531 7.75 12.007812 7.75 12.199219 7.636719 C 12.390625 7.523438 12.507812 7.316406 12.503906 7.09375 L 12.503906 2.113281 C 12.507812 1.925781 12.429688 1.75 12.285156 1.632812 C 12.144531 1.507812 11.957031 1.460938 11.773438 1.496094 Z "/>
<path d="M 11.808594 16.117188 C 11.484375 16.15625 11.246094 16.445312 11.269531 16.773438 L 11.269531 21.636719 C 11.265625 21.859375 11.382812 22.066406 11.574219 22.179688 C 11.765625 22.296875 12.003906 22.296875 12.195312 22.179688 C 12.390625 22.066406 12.507812 21.859375 12.503906 21.636719 L 12.503906 16.773438 C 12.515625 16.585938 12.445312 16.40625 12.3125 16.28125 C 12.179688 16.152344 11.992188 16.09375 11.808594 16.117188 Z "/>
</g>
<path style="fill:none;stroke:#ec7878;stroke-linejoin:round;stroke-linecap:round;stroke-width:8" d="M 278.342786 118.741153 C 278.342786 168.039221 225.528406 207.975179 160.301155 207.975179 C 95.073904 207.975179 42.259524 168.039221 42.259524 118.741153 C 42.259524 69.443086 95.073904 29.4619 160.301155 29.4619 C 225.528406 29.4619 278.342786 69.443086 278.342786 118.741153 Z " transform="matrix(.06546 0 0 .08637 1.3901 1.66244)"/>
</svg>
