<svg width="24" xmlns="http://www.w3.org/2000/svg" height="24" viewBox="0 0 24 24" xmlns:xlink="http://www.w3.org/1999/xlink">
<path style="fill:none;stroke:#92c8dd;stroke-linecap:round;stroke-width:8.073" d="M 34.399421 32.041566 L 221.596268 32.041566 C 222.901509 32.041566 223.954123 33.094179 223.954123 34.399421 L 223.954123 221.596268 C 223.954123 222.901509 222.901509 223.954123 221.596268 223.954123 L 34.399421 223.954123 C 33.094179 223.954123 32.041566 222.901509 32.041566 221.596268 L 32.041566 34.399421 C 32.041566 33.094179 33.094179 32.041566 34.399421 32.041566 Z " transform="scale(.09277)"/>
<g style="fill:#92c8dd">
<path d="M 9.695312 6.046875 C 9.363281 6.878906 9.039062 7.707031 8.707031 8.539062 L 10.679688 8.539062 Z M 9.285156 5.378906 L 10.109375 5.378906 C 10.789062 7.046875 11.46875 8.71875 12.152344 10.386719 L 11.398438 10.386719 C 11.234375 9.957031 11.070312 9.527344 10.90625 9.101562 L 8.492188 9.101562 C 8.328125 9.527344 8.164062 9.957031 8.003906 10.386719 L 7.234375 10.386719 C 7.917969 8.71875 8.601562 7.046875 9.285156 5.378906 Z M 14.730469 8.5 C 14.308594 8.515625 13.820312 8.484375 13.484375 8.769531 C 13.144531 9.136719 13.3125 9.832031 13.859375 9.929688 C 14.386719 10.070312 15.007812 9.835938 15.230469 9.351562 C 15.355469 9.105469 15.433594 8.738281 15.367188 8.5 Z M 16.050781 8.246094 L 16.050781 10.386719 L 15.386719 10.386719 L 15.386719 9.816406 C 15.113281 10.277344 14.546875 10.503906 14 10.484375 C 13.414062 10.515625 12.796875 10.171875 12.6875 9.613281 C 12.546875 9.070312 12.769531 8.410156 13.359375 8.195312 C 14 7.9375 14.710938 8.035156 15.386719 8.015625 C 15.433594 7.613281 15.152344 7.214844 14.726562 7.121094 C 14.128906 6.980469 13.480469 7.101562 12.945312 7.371094 C 12.945312 7.183594 12.945312 6.992188 12.945312 6.800781 C 13.6875 6.539062 14.566406 6.398438 15.304688 6.742188 C 15.890625 7.023438 16.058594 7.679688 16.050781 8.246094 Z "/>
<g style="fill-opacity:.6">
<path d="M 7.234375 11.410156 L 8.402344 11.410156 L 8.402344 11.875 L 7.234375 11.875 Z "/>
<path d="M 8.5625 11.410156 L 9.664062 11.410156 L 9.664062 11.875 L 8.5625 11.875 Z "/>
<path d="M 9.824219 11.410156 L 10.796875 11.410156 L 10.796875 11.875 L 9.824219 11.875 Z "/>
<path d="M 10.953125 11.410156 L 11.378906 11.410156 L 11.378906 11.875 L 10.953125 11.875 Z "/>
<path d="M 11.539062 11.410156 L 12.492188 11.410156 L 12.492188 11.875 L 11.539062 11.875 Z "/>
<path d="M 12.652344 11.410156 L 15.121094 11.410156 L 15.121094 11.875 L 12.652344 11.875 Z "/>
<path d="M 7.234375 14.195312 L 8.402344 14.195312 L 8.402344 14.65625 L 7.234375 14.65625 Z "/>
<path d="M 8.5625 14.195312 L 9.664062 14.195312 L 9.664062 14.65625 L 8.5625 14.65625 Z "/>
<path d="M 9.824219 14.195312 L 10.796875 14.195312 L 10.796875 14.65625 L 9.824219 14.65625 Z "/>
<path d="M 10.953125 14.195312 L 11.378906 14.195312 L 11.378906 14.65625 L 10.953125 14.65625 Z "/>
<path d="M 11.539062 14.195312 L 12.492188 14.195312 L 12.492188 14.65625 L 11.539062 14.65625 Z "/>
<path d="M 12.652344 14.195312 L 15.121094 14.195312 L 15.121094 14.65625 L 12.652344 14.65625 Z "/>
<path d="M 7.234375 12.339844 L 8.996094 12.339844 L 8.996094 12.804688 L 7.234375 12.804688 Z "/>
<path d="M 9.15625 12.339844 L 10.003906 12.339844 L 10.003906 12.804688 L 9.15625 12.804688 Z "/>
<path d="M 10.164062 12.339844 L 10.5625 12.339844 L 10.5625 12.804688 L 10.164062 12.804688 Z "/>
<path d="M 10.722656 12.339844 L 11.488281 12.339844 L 11.488281 12.804688 L 10.722656 12.804688 Z "/>
<path d="M 11.648438 12.339844 L 12.417969 12.339844 L 12.417969 12.804688 L 11.648438 12.804688 Z "/>
<path d="M 12.578125 12.339844 L 13.808594 12.339844 L 13.808594 12.804688 L 12.578125 12.804688 Z "/>
<path d="M 13.96875 12.339844 L 15.585938 12.339844 L 15.585938 12.804688 L 13.96875 12.804688 Z "/>
<path d="M 7.234375 13.265625 L 9.292969 13.265625 L 9.292969 13.730469 L 7.234375 13.730469 Z "/>
<path d="M 9.453125 13.265625 L 11.65625 13.265625 L 11.65625 13.730469 L 9.453125 13.730469 Z "/>
<path d="M 11.820312 13.265625 L 12.699219 13.265625 L 12.699219 13.730469 L 11.820312 13.730469 Z "/>
<path d="M 12.859375 13.265625 L 14.933594 13.265625 L 14.933594 13.730469 L 12.859375 13.730469 Z "/>
<path d="M 15.09375 13.265625 L 16.515625 13.265625 L 16.515625 13.730469 L 15.09375 13.730469 Z "/>
<path d="M 7.234375 16.976562 L 9.292969 16.976562 L 9.292969 17.441406 L 7.234375 17.441406 Z "/>
<path d="M 9.453125 16.976562 L 11.65625 16.976562 L 11.65625 17.441406 L 9.453125 17.441406 Z "/>
<path d="M 11.820312 16.976562 L 12.699219 16.976562 L 12.699219 17.441406 L 11.820312 17.441406 Z "/>
<path d="M 12.859375 16.976562 L 14.933594 16.976562 L 14.933594 17.441406 L 12.859375 17.441406 Z "/>
<path d="M 15.09375 16.976562 L 16.515625 16.976562 L 16.515625 17.441406 L 15.09375 17.441406 Z "/>
<path d="M 7.234375 15.121094 L 8.6875 15.121094 L 8.6875 15.585938 L 7.234375 15.585938 Z "/>
<path d="M 8.839844 15.121094 L 11.246094 15.121094 L 11.246094 15.585938 L 8.839844 15.585938 Z "/>
<path d="M 11.402344 15.121094 L 12.5625 15.121094 L 12.5625 15.585938 L 11.402344 15.585938 Z "/>
<path d="M 13.953125 15.121094 L 14.878906 15.121094 L 14.878906 15.585938 L 13.953125 15.585938 Z "/>
<path d="M 15.03125 15.121094 L 16.515625 15.121094 L 16.515625 15.585938 L 15.03125 15.585938 Z "/>
<path d="M 12.71875 15.121094 L 13.800781 15.121094 L 13.800781 15.585938 L 12.71875 15.585938 Z "/>
<path d="M 7.234375 16.050781 L 9.148438 16.050781 L 9.148438 16.515625 L 7.234375 16.515625 Z "/>
<path d="M 9.304688 16.050781 L 9.90625 16.050781 L 9.90625 16.515625 L 9.304688 16.515625 Z "/>
<path d="M 10.066406 16.050781 L 11.441406 16.050781 L 11.441406 16.515625 L 10.066406 16.515625 Z "/>
<path d="M 11.597656 16.050781 L 12.535156 16.050781 L 12.535156 16.515625 L 11.597656 16.515625 Z "/>
<path d="M 12.691406 16.050781 L 13.628906 16.050781 L 13.628906 16.515625 L 12.691406 16.515625 Z "/>
<path d="M 13.789062 16.050781 L 15.148438 16.050781 L 15.148438 16.515625 L 13.789062 16.515625 Z "/>
<path d="M 15.304688 16.050781 L 15.585938 16.050781 L 15.585938 16.515625 L 15.304688 16.515625 Z "/>
<path d="M 7.234375 17.90625 L 7.992188 17.90625 L 7.992188 18.367188 L 7.234375 18.367188 Z "/>
<path d="M 8.191406 17.90625 L 10.945312 17.90625 L 10.945312 18.367188 L 8.191406 18.367188 Z "/>
</g>
</g>
</svg>
