<svg width="24" xmlns="http://www.w3.org/2000/svg" height="24" viewBox="0 0 24 24" xmlns:xlink="http://www.w3.org/1999/xlink">
<path style="fill:#d64c62" d="M 9.449219 6.121094 C 9.1875 6.121094 8.933594 6.164062 8.6875 6.214844 C 7.878906 6.332031 6.898438 6.617188 5.882812 7.292969 C 3.355469 8.964844 2.28125 16.714844 2.675781 17.441406 C 3.070312 18.167969 6.601562 16.71875 8.453125 13.933594 C 8.589844 13.726562 8.726562 13.511719 8.851562 13.285156 C 9.042969 13.316406 9.246094 13.320312 9.449219 13.320312 L 14.554688 13.320312 C 14.683594 13.320312 14.789062 13.316406 14.917969 13.304688 C 15.035156 13.519531 15.164062 13.734375 15.296875 13.933594 C 17.148438 16.71875 20.679688 18.167969 21.074219 17.441406 C 21.46875 16.714844 20.394531 8.964844 17.867188 7.292969 C 17.144531 6.8125 16.441406 6.527344 15.804688 6.355469 C 15.746094 6.34375 15.699219 6.335938 15.640625 6.320312 C 15.296875 6.214844 14.9375 6.121094 14.554688 6.121094 Z M 15.839844 7.851562 C 15.910156 7.839844 15.988281 7.839844 16.058594 7.851562 C 16.152344 7.859375 16.242188 7.890625 16.332031 7.9375 C 16.675781 8.140625 16.78125 8.585938 16.582031 8.929688 C 16.382812 9.273438 15.953125 9.398438 15.605469 9.199219 C 15.257812 9 15.132812 8.554688 15.335938 8.210938 C 15.445312 8.015625 15.632812 7.886719 15.839844 7.851562 Z M 7.386719 8.082031 L 8.054688 8.082031 L 8.054688 9.539062 L 9.5 9.539062 L 9.5 10.191406 L 8.054688 10.191406 L 8.054688 11.648438 L 7.386719 11.648438 L 7.386719 10.191406 L 5.933594 10.191406 L 5.933594 9.539062 L 7.386719 9.539062 Z M 17.742188 8.824219 C 17.835938 8.832031 17.925781 8.863281 18.011719 8.910156 C 18.359375 9.109375 18.484375 9.558594 18.285156 9.902344 C 18.085938 10.246094 17.632812 10.371094 17.289062 10.171875 C 16.945312 9.972656 16.835938 9.527344 17.035156 9.183594 C 17.183594 8.921875 17.460938 8.785156 17.742188 8.824219 Z M 14.878906 9.507812 C 14.953125 9.496094 15.027344 9.496094 15.097656 9.507812 C 15.191406 9.515625 15.28125 9.546875 15.367188 9.59375 C 15.714844 9.792969 15.824219 10.242188 15.621094 10.585938 C 15.421875 10.929688 14.992188 11.054688 14.644531 10.855469 C 14.300781 10.65625 14.175781 10.210938 14.375 9.867188 C 14.488281 9.671875 14.671875 9.539062 14.878906 9.507812 Z M 16.582031 10.476562 C 16.648438 10.464844 16.710938 10.46875 16.78125 10.476562 C 16.875 10.488281 16.96875 10.515625 17.054688 10.566406 C 17.398438 10.765625 17.523438 11.214844 17.324219 11.558594 C 17.125 11.902344 16.675781 12.027344 16.332031 11.828125 C 15.984375 11.628906 15.875 11.179688 16.078125 10.835938 C 16.1875 10.644531 16.378906 10.511719 16.582031 10.476562 Z "/>
</svg>
