<svg width="24" xmlns="http://www.w3.org/2000/svg" height="24" viewBox="0 0 24 24" xmlns:xlink="http://www.w3.org/1999/xlink">
<g style="stroke:#ff4545">
<path style="fill:none;stroke-width:8" d="M 65.093641 39.115131 L 198.144031 39.115131 C 210.691188 39.115131 220.88049 49.304433 220.88049 61.85159 L 220.88049 194.144099 C 220.88049 206.691256 210.691188 216.880558 198.144031 216.880558 L 65.093641 216.880558 C 52.588588 216.880558 42.399286 206.691256 42.399286 194.144099 L 42.399286 61.85159 C 42.399286 49.304433 52.588588 39.115131 65.093641 39.115131 Z " transform="scale(.09277)"/>
<g style="stroke-linecap:round;stroke-dasharray:0,159;fill:#000">
<path style="stroke-width:119" d="M 436.943106 117.057744 L -0.0118355 117.057744 M 436.943106 440.04607 L -0.0118355 440.04607 " transform="matrix(.0301 0 0 .02998 3.82848 3.52562)"/>
<path style="stroke-width:109" d="M 436.943106 117.057744 L -0.0118355 117.057744 M 436.943106 440.04607 L -0.0118355 440.04607 " transform="matrix(.0301 0 0 .02998 3.82848 3.52562)"/>
</g>
</g>
</svg>
