<svg width="24" xmlns="http://www.w3.org/2000/svg" height="24" viewBox="0 0 24 24" xmlns:xlink="http://www.w3.org/1999/xlink">
<g style="fill:#b2a445">
<path d="M 3.496094 2.609375 C 3.152344 2.609375 2.875 2.882812 2.875 3.222656 L 2.875 20.535156 C 2.875 20.875 3.152344 21.148438 3.496094 21.148438 L 7.003906 21.148438 C 7.351562 21.148438 7.625 20.875 7.625 20.535156 L 7.625 3.222656 C 7.625 2.882812 7.351562 2.609375 7.003906 2.609375 Z M 4.082031 4.34375 L 6.421875 4.34375 L 6.421875 11.296875 L 4.082031 11.296875 Z M 5.25 14.773438 C 5.894531 14.773438 6.421875 15.296875 6.421875 15.933594 C 6.421875 16.574219 5.894531 17.09375 5.25 17.09375 C 4.605469 17.09375 4.082031 16.574219 4.082031 15.933594 C 4.082031 15.296875 4.605469 14.773438 5.25 14.773438 Z "/>
<path d="M 9.34375 2.609375 C 9 2.609375 8.722656 2.882812 8.722656 3.222656 L 8.722656 20.535156 C 8.722656 20.875 9 21.148438 9.34375 21.148438 L 11.683594 21.148438 C 12.027344 21.148438 12.304688 20.875 12.304688 20.535156 L 12.304688 3.222656 C 12.304688 2.882812 12.027344 2.609375 11.683594 2.609375 Z M 9.34375 4.34375 L 11.683594 4.34375 L 11.683594 11.296875 L 9.34375 11.296875 Z M 10.511719 14.773438 C 11.160156 14.773438 11.683594 15.296875 11.683594 15.933594 C 11.683594 16.574219 11.160156 17.09375 10.511719 17.09375 C 9.867188 17.09375 9.34375 16.574219 9.34375 15.933594 C 9.34375 15.296875 9.867188 14.773438 10.511719 14.773438 Z "/>
<path d="M 13.3125 3.21875 C 12.976562 3.308594 12.78125 3.640625 12.871094 3.972656 L 17.390625 20.695312 C 17.484375 21.023438 17.820312 21.21875 18.15625 21.128906 L 20.414062 20.53125 C 20.746094 20.441406 20.941406 20.109375 20.851562 19.777344 L 16.332031 3.054688 C 16.242188 2.726562 15.902344 2.53125 15.570312 2.621094 Z M 13.765625 4.898438 L 16.023438 4.300781 L 17.839844 11.015625 L 15.582031 11.617188 Z M 17.621094 14.671875 C 18.242188 14.507812 18.882812 14.875 19.050781 15.492188 C 19.21875 16.109375 18.847656 16.75 18.226562 16.910156 C 17.601562 17.078125 16.960938 16.710938 16.792969 16.09375 C 16.625 15.476562 16.996094 14.839844 17.621094 14.671875 Z "/>
</g>
</svg>
