<svg width="24" xmlns="http://www.w3.org/2000/svg" height="24" viewBox="0 0 24 24" xmlns:xlink="http://www.w3.org/1999/xlink">
<defs>
<clipPath id="clip1">
<path d="M 3.125 3.125 L 20.625 3.125 L 20.625 20.625 L 3.125 20.625 Z "/>
</clipPath>
<clipPath id="clip2">
<path d="M 11.875 20.257812 C 16.53125 20.257812 20.308594 16.464844 20.308594 11.8125 C 20.308594 7.1875 16.53125 3.394531 11.875 3.394531 C 7.25 3.394531 3.441406 7.1875 3.441406 11.8125 C 3.441406 16.464844 7.25 20.257812 11.875 20.257812 Z "/>
</clipPath>
</defs>
<path style="fill:#78b2a3" d="M 11.871094 2.601562 C 9.410156 2.601562 7.085938 3.566406 5.328125 5.320312 C 3.570312 7.078125 2.597656 9.398438 2.597656 11.859375 C 2.597656 16.984375 6.757812 21.148438 11.871094 21.148438 C 16.988281 21.148438 21.152344 16.984375 21.152344 11.859375 C 21.152344 6.753906 16.988281 2.601562 11.871094 2.601562 Z M 11.871094 2.980469 C 16.777344 2.980469 20.769531 6.964844 20.769531 11.859375 C 20.769531 16.773438 16.777344 20.769531 11.871094 20.769531 C 6.96875 20.769531 2.980469 16.773438 2.980469 11.859375 C 2.980469 9.5 3.910156 7.277344 5.597656 5.59375 C 7.285156 3.910156 9.515625 2.980469 11.871094 2.980469 Z "/>
<g style="clip-rule:nonzero;clip-path:url(#clip1)">
<g style="clip-path:url(#clip2)">
<path style="fill:#78b2a3" d="M 9.015625 4.167969 C 8.972656 4.167969 8.925781 4.183594 8.878906 4.210938 C 8.988281 4.175781 9.042969 4.167969 9.015625 4.167969 M 11.789062 4.707031 L 11.8125 4.300781 L 11.386719 4.328125 L 11.441406 4.707031 L 11.789062 4.707031 M 6.957031 11.714844 C 6.871094 11.632812 6.929688 11.28125 6.929688 11.28125 C 6.929688 11.28125 5.644531 10.605469 4.242188 10.199219 C 4.070312 10.148438 4.160156 9.792969 4.328125 9.65625 L 4.273438 9.28125 C 4.242188 9.089844 4.558594 8.167969 4.875 8.089844 C 5.1875 8.007812 4.84375 8.628906 4.84375 8.628906 L 4.53125 8.816406 C 4.53125 8.816406 4.902344 9.253906 4.988281 9.253906 C 5.074219 9.253906 5.21875 9.035156 5.21875 9.035156 L 4.816406 8.765625 L 5.1875 8.601562 L 5.210938 8.460938 L 5.273438 8.441406 L 5.886719 7.507812 C 6.3125 7.332031 6.835938 7.117188 6.902344 7.085938 C 7.015625 7.035156 7.816406 6.574219 7.957031 6.46875 C 8.101562 6.355469 8.414062 6.386719 8.53125 6.386719 C 8.644531 6.386719 8.816406 6.332031 8.84375 6.03125 C 8.871094 5.734375 8.988281 5.679688 9.070312 5.765625 C 9.160156 5.84375 8.988281 5.980469 9.1875 6.03125 C 9.386719 6.085938 9.558594 6.222656 9.703125 6.085938 C 9.808594 5.988281 9.664062 5.875 9.574219 5.789062 L 11.160156 5.789062 L 11.332031 5.300781 L 10.960938 5.25 L 9.585938 5.113281 L 9.585938 4.953125 L 9.476562 4.96875 C 9.625 4.152344 10.507812 4.289062 9.84375 3.816406 C 9.804688 3.785156 9.222656 4.730469 9.074219 4.710938 C 8.808594 4.679688 8.460938 4.675781 8.386719 4.761719 C 8.289062 4.878906 8.605469 4.367188 8.878906 4.210938 C 8.554688 4.304688 7.972656 4.011719 6.921875 4.753906 C 6.566406 5.003906 5.671875 6.023438 5.304688 6.414062 C 3.753906 8.246094 3.628906 9.808594 3.628906 9.878906 C 3.628906 10.015625 3.960938 10.089844 3.988281 10.253906 C 4.015625 10.414062 3.445312 10.957031 3.445312 11.226562 C 3.445312 11.351562 3.160156 12.699219 3.785156 14.390625 C 4.34375 15.992188 5.421875 17.40625 5.5625 17.496094 L 5.957031 17.285156 C 5.957031 17.285156 5.300781 16.125 5.273438 16.011719 C 5.242188 15.90625 6.015625 14.335938 6.386719 14.390625 C 6.757812 14.445312 6.671875 14.554688 6.902344 14.417969 C 7.128906 14.285156 7.273438 13.171875 7.527344 13.066406 C 7.789062 12.957031 8.070312 12.820312 8.042969 12.550781 C 8.015625 12.28125 7.042969 11.792969 6.957031 11.714844 M 13.160156 3.761719 L 12.386719 3.492188 L 12.53125 3.921875 L 13.160156 3.761719 M 10.273438 4.761719 C 10.359375 4.761719 12.074219 3.625 11.902344 3.597656 C 11.730469 3.570312 11.703125 3.597656 11.242188 3.546875 C 10.785156 3.492188 10.300781 4.195312 10.1875 4.300781 C 10.074219 4.410156 10.109375 4.761719 10.273438 4.761719 M 18.136719 12.917969 L 18.359375 12.632812 L 18.136719 12.554688 L 17.972656 12.761719 L 17.777344 13.046875 L 17.945312 13.125 L 18.136719 12.917969 M 19.105469 13.859375 L 19.050781 13.441406 L 18.691406 13.441406 L 18.664062 13.753906 L 18.332031 13.703125 L 18.25 13.363281 L 18.082031 13.257812 L 17.886719 13.492188 L 17.695312 13.441406 L 17.640625 13.621094 L 17.859375 13.675781 L 17.859375 15.367188 L 18.644531 15.554688 C 18.625 15.589844 18.613281 15.617188 18.609375 15.628906 C 18.550781 15.8125 18.828125 15.890625 19.023438 15.8125 C 19.09375 15.785156 19.546875 15.609375 19.6875 15.269531 C 19.886719 14.796875 20.015625 14.109375 20.050781 13.890625 L 19.964844 13.703125 L 19.410156 13.910156 L 19.105469 13.859375 M 18.828125 6.917969 C 17.5625 5.003906 14.523438 3.746094 14.523438 3.746094 L 13.742188 4.15625 L 13.628906 3.976562 L 13.355469 3.871094 L 13.355469 4.105469 L 13.601562 4.316406 L 13.4375 4.394531 L 12.804688 4.445312 L 11.363281 5.226562 L 11.5 5.855469 L 11.335938 5.90625 L 11.253906 6.035156 L 11.722656 6.738281 L 11.75 6.976562 L 11.363281 7.054688 L 11.363281 7.523438 L 11.140625 7.574219 L 11.171875 7.9375 L 9.289062 9.242188 L 9.34375 9.96875 C 9.484375 10.152344 10.5625 11.25 10.5625 11.25 C 10.5625 11.25 11.804688 11.300781 12.082031 11.144531 C 12.359375 10.988281 12.164062 11.300781 12.25 11.378906 C 12.332031 11.457031 12.359375 12.003906 12.441406 12.058594 C 12.527344 12.109375 12.441406 12.421875 12.554688 12.527344 C 12.664062 12.632812 12.664062 13.882812 12.664062 13.882812 C 12.664062 13.882812 13.328125 15.003906 13.328125 15.289062 C 13.328125 15.578125 13.296875 15.550781 13.824219 15.523438 C 14.351562 15.5 14.460938 15.289062 14.574219 15.210938 C 14.683594 15.132812 14.683594 14.953125 14.792969 14.796875 C 14.90625 14.640625 15.097656 14.039062 15.347656 13.832031 C 15.59375 13.621094 16.257812 13.464844 16.3125 13.101562 C 16.371094 12.734375 16.617188 12.449219 16.617188 12.449219 L 17.8125 11.183594 L 17.78125 11.355469 L 17.75 12.007812 L 18.113281 11.875 L 18.082031 11.171875 L 17.957031 11.035156 L 17.972656 11.015625 C 17.972656 11.015625 17.890625 10.859375 17.78125 10.859375 C 17.671875 10.859375 17.007812 11.015625 16.894531 10.988281 C 16.785156 10.960938 16.316406 9.710938 16.234375 9.660156 C 16.148438 9.605469 15.621094 8.746094 15.621094 8.746094 C 15.621094 8.746094 16.839844 10.207031 17.035156 10.78125 C 17.144531 11.113281 17.570312 10.804688 17.914062 10.453125 L 18.003906 10.675781 L 18.222656 10.625 L 18.195312 10.363281 L 18.445312 10.363281 L 18.445312 10.753906 L 18.363281 10.964844 L 18.332031 11.300781 L 18.554688 11.511719 L 18.664062 11.328125 L 19.023438 10.988281 L 19.4375 10.78125 L 19.546875 10.988281 L 19.605469 11.277344 L 19.496094 11.589844 L 19.273438 11.773438 L 19.164062 12.242188 L 19.164062 12.476562 L 18.914062 12.320312 L 18.886719 11.824219 L 18.523438 11.851562 L 18.363281 12.292969 L 18.609375 12.660156 L 19.1875 12.738281 L 19.660156 12.292969 L 19.714844 11.4375 L 19.925781 11.15625 C 20.0625 11.507812 20.160156 11.875 20.160156 12.21875 C 20.160156 12.589844 20.453125 12.027344 20.308594 10.886719 C 20.308594 10.882812 20.082031 8.171875 18.828125 6.917969 Z M 13.296875 8.042969 L 11.804688 7.992188 L 12.441406 7.46875 L 12.773438 7.46875 L 13.296875 7.835938 L 13.296875 8.042969 M 15.125 7.859375 L 15.125 8.09375 L 14.488281 8.09375 L 14.542969 8.25 L 14.15625 8.304688 L 14.128906 8.433594 L 13.851562 8.382812 L 13.355469 8.277344 L 13.4375 8.148438 L 13.519531 7.992188 L 13.796875 7.703125 L 13.910156 7.914062 L 14.324219 7.886719 L 14.542969 7.652344 L 15.402344 7.808594 L 15.125 7.859375 M 15.179688 7.523438 L 14.847656 7.574219 L 14.792969 7.339844 L 15.207031 7.289062 L 15.265625 7.050781 L 15.566406 7.367188 L 15.179688 7.523438 M 16.785156 15.628906 L 16.589844 15.785156 L 16.617188 16.175781 L 16.867188 16.175781 L 16.867188 15.835938 L 17.085938 15.550781 L 17.085938 14.953125 L 16.949219 14.925781 L 16.785156 15.628906 M 14.929688 14.847656 C 14.929688 14.847656 14.734375 14.898438 14.957031 14.976562 C 15.179688 15.054688 16.0625 13.703125 16.0625 13.703125 L 15.316406 14.171875 L 14.929688 14.847656 M 13.425781 19.84375 L 13.257812 19.683594 L 12.929688 19.632812 L 12.875 19.792969 L 12.429688 19.738281 L 12.402344 19.527344 L 12.070312 19.527344 L 11.710938 19.738281 L 11.078125 19.738281 L 11.019531 19.582031 L 10 19.476562 L 9.832031 19.632812 L 9.417969 19.527344 L 9.363281 19.164062 L 9.167969 19.132812 L 8.949219 19.527344 L 8.203125 19.5 C 8.335938 19.566406 9.449219 20.230469 11.160156 20.367188 C 13.425781 20.550781 14.503906 20.003906 14.503906 20.003906 L 14.421875 19.921875 Z "/>
</g>
</g>
</svg>
