<svg width="24" xmlns="http://www.w3.org/2000/svg" height="24" viewBox="0 0 24 24" xmlns:xlink="http://www.w3.org/1999/xlink">
<path style="fill:#9c9c37;stroke:#9c9c37;stroke-width:1.449" d="M 337.353325 491.207865 C 276.502385 487.050572 223.01441 438.813753 207.923376 380.42825 C 193.988511 319.964101 221.614838 251.796733 275.589621 220.189083 C 310.274657 199.402622 353.84393 196.773745 392.240872 207.594933 C 439.704605 222.26773 475.789212 264.696567 488.446208 311.955199 C 499.886184 355.545632 491.671308 405.005184 461.36754 439.363983 C 433.984617 473.661645 390.17194 493.408784 346.298413 491.635821 C 343.316717 491.574685 340.335021 491.452411 337.353325 491.207865 Z M 373.681336 484.36056 C 384.634505 483.44351 382.687275 480.080994 372.768572 479.163944 C 355.000097 475.740291 335.832051 475.679155 318.672086 481.670547 C 333.763119 489.006945 353.783079 487.111709 370.69964 484.910789 Z M 319.889105 474.700968 C 327.678026 466.692067 319.524 447.678568 312.708694 440.097623 C 297.495959 432.272131 285.690877 419.555708 271.756012 409.896117 C 261.2288 406.044507 251.005842 413.319769 240.904586 415.826372 C 240.843735 425.852783 240.174374 437.285337 248.997761 444.254915 C 263.541135 458.622029 281.066206 471.277316 300.842761 477.024161 C 307.171259 477.268708 313.804011 476.901888 319.889105 474.700968 Z M 403.376594 475.128925 C 428.629734 464.185464 452.361601 446.639245 466.60072 422.673677 C 471.712199 415.826372 475.484958 403.782451 462.097751 407.756334 C 445.242041 418.394111 430.029306 431.538492 412.80849 441.564903 C 402.342128 449.879487 394.857463 461.312041 387.372797 472.255502 C 389.989388 478.308031 398.386817 476.840751 403.376594 475.128925 Z M 420.536559 431.171672 C 433.193555 420.717304 451.570538 413.992272 458.264142 398.157879 C 461.306689 385.624865 461.489242 372.725032 462.767111 360.008608 C 450.110116 348.759464 434.593126 341.117382 419.380391 333.842121 C 404.350209 335.064854 392.240872 348.453781 380.314088 357.135185 C 373.98559 360.619975 375.628566 368.506603 373.863889 374.559131 C 371.612404 388.681698 368.934963 402.743128 367.352838 416.987968 C 379.218771 425.73051 392.423425 433.800548 406.784247 437.2242 C 412.017428 437.285337 416.276993 433.739411 420.536559 431.171672 Z M 329.868659 433.372591 C 341.430338 428.970752 356.643073 425.669373 361.997955 413.442042 C 366.074968 396.32378 368.265602 378.77756 370.395385 361.292478 C 358.955408 350.349017 346.72437 338.855326 331.755038 333.230754 C 318.793788 332.986208 307.840619 342.156705 296.400643 347.169911 C 280.883653 351.38834 275.467919 365.510907 274.85941 380.122567 C 270.29559 394.550817 275.467919 409.345887 288.550871 417.293652 C 299.929997 425.73051 314.595074 439.180573 329.868659 433.372591 Z M 233.602473 413.136359 C 224.292279 395.834686 217.84208 376.882324 215.225489 357.379732 C 206.036997 359.213832 214.434427 381.956666 216.990166 391.249438 C 221.310583 403.782451 227.943336 415.276142 234.880343 426.525286 C 236.158212 421.878901 236.888424 417.293652 233.602473 413.136359 Z M 229.586311 336.104177 C 233.663324 330.235058 240.113524 325.649809 242.608412 318.985914 C 246.867978 298.810819 253.926687 279.308227 264.027943 261.211777 C 263.601986 249.595813 250.579885 242.442825 244.129686 255.342659 C 225.691851 279.124817 211.270178 308.10359 210.600818 338.733053 C 208.16678 349.248557 217.294421 356.829502 222.527602 344.418762 C 224.900789 341.667612 227.213124 338.855326 229.586311 336.104177 Z M 466.844124 350.593564 C 474.693895 340.261469 485.464512 328.095275 482.665369 314.156119 C 477.797293 287.745085 464.288385 262.679057 443.538214 245.499658 C 437.331419 242.870782 426.073995 233.21119 421.753578 242.320552 C 415.42508 254.609019 399.603836 266.163846 405.323824 281.386873 C 410.1919 296.487626 413.721254 312.138609 420.840814 326.322312 C 433.984617 336.59327 449.136501 344.541035 464.349236 351.266067 Z M 292.627884 343.746258 C 304.737221 337.571457 316.481453 330.785288 328.286535 324.18253 C 332.241846 310.243373 337.231623 296.609899 341.917145 282.915289 C 342.525655 268.120219 329.321001 257.482442 320.558466 247.089211 C 311.917632 233.21119 297.252556 243.848968 286.54279 248.92331 C 263.054328 261.517461 257.638594 289.212364 249.60627 312.383156 C 250.762438 321.06456 258.67306 328.278685 264.453899 334.75917 C 272.425372 342.829209 281.370461 353.528123 292.627884 343.746258 Z M 379.340473 268.853859 C 385.60812 267.997946 392.605978 268.670449 398.386817 266.836349 C 407.149353 257.482442 414.75572 246.538981 418.406776 234.189377 C 414.025509 221.778636 399.542985 216.092928 387.920456 211.874499 C 373.133677 207.47266 357.251582 205.27174 341.917145 207.044703 C 330.842274 212.730412 310.944017 229.176171 322.14059 241.953732 C 330.355467 251.796733 339.118002 261.089504 348.06309 270.321139 C 358.529452 270.443412 368.934963 269.587499 379.340473 268.853859 Z " transform="matrix(.06419 0 0 .06389 -10.51926 -10.26792)"/>
</svg>
