<svg width="24" xmlns="http://www.w3.org/2000/svg" height="24" viewBox="0 0 24 24" xmlns:xlink="http://www.w3.org/1999/xlink">
<path style="fill:#c8a878" d="M 10.78125 18.886719 C 10.78125 19.308594 10.425781 19.648438 9.992188 19.648438 C 9.554688 19.648438 9.203125 19.308594 9.203125 18.886719 C 9.203125 18.46875 9.554688 18.125 9.992188 18.125 C 10.425781 18.125 10.78125 18.46875 10.78125 18.886719 Z M 7 7.078125 C 7 7.5 6.644531 7.839844 6.210938 7.839844 C 5.773438 7.839844 5.421875 7.5 5.421875 7.078125 C 5.421875 6.65625 5.773438 6.316406 6.210938 6.316406 C 6.644531 6.316406 7 6.65625 7 7.078125 Z M 20.492188 9.664062 C 20.492188 10.085938 20.140625 10.425781 19.703125 10.425781 C 19.269531 10.425781 18.914062 10.085938 18.914062 9.664062 C 18.914062 9.242188 19.269531 8.902344 19.703125 8.902344 C 20.140625 8.902344 20.492188 9.242188 20.492188 9.664062 Z M 11.605469 21.125 C 11.070312 20.96875 10.566406 20.457031 10.160156 19.664062 C 10.007812 19.363281 9.976562 19.324219 9.894531 19.324219 C 9.753906 19.320312 9.523438 19.214844 9.441406 19.109375 C 9.261719 18.878906 9.308594 18.59375 9.507812 18.390625 C 9.566406 18.328125 9.574219 18.257812 9.574219 18.226562 C 9.574219 18.199219 9.535156 18.039062 9.488281 17.867188 C 9.386719 17.5 9.195312 16.640625 9.164062 16.394531 C 9.152344 16.296875 9.128906 16.203125 9.117188 16.179688 C 9.105469 16.160156 8.921875 16.207031 8.582031 16.320312 C 7.621094 16.648438 6.617188 16.902344 5.679688 17.054688 C 5.246094 17.128906 4.128906 17.136719 3.84375 17.070312 C 3.183594 16.917969 2.828125 16.585938 2.789062 16.089844 C 2.765625 15.8125 2.839844 15.550781 3.046875 15.160156 C 3.324219 14.644531 3.648438 14.234375 4.253906 13.628906 C 4.746094 13.140625 5.730469 12.320312 6.277344 11.949219 L 6.398438 11.871094 L 6.226562 11.742188 C 3.980469 10.117188 2.71875 8.621094 2.785156 7.675781 C 2.84375 6.878906 3.746094 6.523438 5.328125 6.675781 C 5.679688 6.714844 5.679688 6.714844 5.785156 6.632812 C 6.105469 6.390625 6.578125 6.476562 6.785156 6.804688 C 6.855469 6.921875 6.890625 6.949219 7.046875 6.988281 C 7.335938 7.058594 8.183594 7.308594 8.648438 7.464844 C 8.886719 7.542969 9.089844 7.601562 9.097656 7.589844 C 9.109375 7.582031 9.148438 7.40625 9.1875 7.195312 C 9.578125 5.09375 10.234375 3.570312 11.019531 2.925781 C 11.421875 2.59375 11.878906 2.507812 12.300781 2.691406 C 12.6875 2.859375 13.144531 3.355469 13.496094 3.988281 C 13.746094 4.441406 14.085938 5.371094 14.296875 6.183594 C 14.40625 6.601562 14.566406 7.378906 14.566406 7.484375 C 14.566406 7.527344 14.582031 7.570312 14.601562 7.582031 C 14.621094 7.59375 14.875 7.523438 15.160156 7.425781 C 17.722656 6.574219 19.796875 6.414062 20.601562 7.007812 C 21.132812 7.398438 21.078125 8.179688 20.464844 9.039062 C 20.359375 9.1875 20.335938 9.246094 20.359375 9.308594 C 20.375 9.355469 20.386719 9.496094 20.386719 9.617188 C 20.390625 9.820312 20.382812 9.855469 20.289062 9.964844 C 20.144531 10.132812 19.917969 10.21875 19.675781 10.191406 C 19.492188 10.171875 19.476562 10.175781 19.386719 10.269531 C 19.21875 10.445312 18.28125 11.222656 17.84375 11.546875 C 17.609375 11.722656 17.417969 11.878906 17.417969 11.890625 C 17.417969 11.90625 17.535156 12.007812 17.683594 12.113281 C 18.109375 12.425781 18.820312 13.007812 19.140625 13.3125 C 20.621094 14.707031 21.199219 15.8125 20.816406 16.515625 C 20.445312 17.195312 19.148438 17.316406 17.101562 16.859375 C 16.578125 16.742188 15.332031 16.375 14.886719 16.210938 C 14.742188 16.15625 14.613281 16.125 14.601562 16.136719 C 14.585938 16.148438 14.539062 16.355469 14.496094 16.589844 C 14.125 18.644531 13.5 20.140625 12.738281 20.789062 C 12.621094 20.890625 12.449219 21.007812 12.351562 21.050781 C 12.125 21.148438 11.808594 21.179688 11.605469 21.125 Z M 12.078125 20.707031 C 12.933594 20.480469 13.664062 18.953125 14.089844 16.511719 C 14.136719 16.234375 14.164062 15.992188 14.148438 15.980469 C 14.136719 15.96875 13.894531 15.871094 13.609375 15.765625 C 13.328125 15.660156 12.824219 15.445312 12.492188 15.289062 L 11.878906 15.003906 L 11.304688 15.269531 C 10.8125 15.492188 10.269531 15.71875 9.671875 15.933594 C 9.558594 15.976562 9.539062 15.996094 9.539062 16.089844 C 9.539062 16.234375 9.625 16.695312 9.769531 17.335938 C 9.953125 18.144531 9.957031 18.15625 10.132812 18.210938 C 10.324219 18.273438 10.433594 18.347656 10.519531 18.519531 C 10.609375 18.695312 10.601562 18.910156 10.464844 19.097656 C 10.347656 19.253906 10.34375 19.242188 10.609375 19.722656 C 10.933594 20.296875 11.265625 20.617188 11.664062 20.722656 C 11.800781 20.761719 11.882812 20.757812 12.078125 20.707031 Z M 19.710938 16.75 C 19.976562 16.703125 20.265625 16.558594 20.378906 16.421875 C 20.523438 16.242188 20.5625 16.101562 20.542969 15.847656 C 20.503906 15.316406 20.007812 14.609375 19.054688 13.710938 C 18.492188 13.1875 17.113281 12.132812 17.007812 12.152344 C 16.980469 12.15625 16.734375 12.3125 16.460938 12.496094 C 16.1875 12.679688 15.726562 12.976562 15.433594 13.152344 L 14.898438 13.472656 L 14.859375 14.078125 C 14.835938 14.410156 14.78125 14.914062 14.742188 15.195312 C 14.703125 15.476562 14.675781 15.710938 14.683594 15.722656 C 14.726562 15.757812 15.640625 16.070312 16.195312 16.242188 C 17.742188 16.707031 18.949219 16.882812 19.710938 16.75 Z M 5.386719 16.714844 C 6.285156 16.609375 7.46875 16.3125 8.675781 15.890625 C 8.941406 15.796875 9.046875 15.746094 9.046875 15.707031 C 9.046875 15.675781 9.011719 15.429688 8.976562 15.15625 C 8.9375 14.882812 8.886719 14.371094 8.863281 14.023438 L 8.820312 13.390625 L 8.621094 13.285156 C 8.277344 13.101562 7.484375 12.617188 7.132812 12.375 C 6.945312 12.246094 6.78125 12.140625 6.765625 12.140625 C 6.726562 12.140625 6.527344 12.28125 6 12.679688 C 5.457031 13.089844 4.632812 13.808594 4.265625 14.191406 C 3.003906 15.515625 2.902344 16.460938 4 16.699219 C 4.253906 16.753906 4.996094 16.761719 5.386719 16.714844 Z M 10.132812 15.347656 C 10.398438 15.242188 10.789062 15.074219 11 14.976562 L 11.382812 14.800781 L 11.039062 14.636719 C 10.609375 14.4375 9.988281 14.117188 9.671875 13.929688 C 9.304688 13.714844 9.328125 13.703125 9.328125 14.101562 C 9.328125 14.449219 9.363281 14.828125 9.4375 15.316406 C 9.484375 15.628906 9.429688 15.628906 10.132812 15.347656 Z M 14.265625 15.40625 C 14.390625 14.542969 14.457031 13.761719 14.398438 13.761719 C 14.378906 13.761719 14.351562 13.773438 14.339844 13.792969 C 14.304688 13.839844 13.238281 14.398438 12.789062 14.605469 C 12.5625 14.710938 12.375 14.800781 12.375 14.8125 C 12.375 14.859375 14.066406 15.570312 14.183594 15.574219 C 14.226562 15.574219 14.246094 15.53125 14.265625 15.40625 Z M 12.496094 14.265625 C 13.074219 13.988281 13.867188 13.566406 14.261719 13.328125 L 14.449219 13.21875 L 14.472656 12.835938 C 14.5 12.359375 14.496094 10.726562 14.464844 10.605469 C 14.449219 10.53125 14.34375 10.460938 13.84375 10.183594 C 13.519531 10.003906 13.246094 9.851562 13.238281 9.851562 C 13.234375 9.851562 13.050781 9.761719 12.828125 9.652344 C 12.085938 9.28125 11.949219 9.21875 11.894531 9.21875 C 11.761719 9.21875 10.046875 10.078125 9.429688 10.453125 C 9.273438 10.546875 9.261719 10.566406 9.238281 10.722656 C 9.195312 11.023438 9.234375 13.132812 9.285156 13.210938 C 9.324219 13.273438 9.957031 13.648438 10.417969 13.878906 C 11.0625 14.207031 11.796875 14.554688 11.839844 14.554688 C 11.867188 14.554688 12.164062 14.425781 12.496094 14.265625 Z M 11.539062 12.785156 C 10.914062 12.582031 10.621094 11.9375 10.914062 11.417969 C 11.054688 11.175781 11.28125 11.019531 11.589844 10.945312 C 11.859375 10.886719 12.03125 10.90625 12.328125 11.03125 C 12.949219 11.300781 13.117188 12.0625 12.660156 12.53125 C 12.40625 12.789062 11.902344 12.898438 11.539062 12.785156 Z M 8.761719 11.871094 C 8.761719 11.023438 8.753906 10.808594 8.71875 10.824219 C 8.441406 10.96875 7.113281 11.84375 7.113281 11.882812 C 7.113281 11.898438 7.214844 11.984375 7.34375 12.066406 C 7.644531 12.269531 8.699219 12.929688 8.734375 12.933594 C 8.75 12.933594 8.761719 12.457031 8.761719 11.871094 Z M 15.6875 12.5 C 16.070312 12.257812 16.4375 12.015625 16.507812 11.957031 C 16.636719 11.859375 16.636719 11.855469 16.566406 11.804688 C 15.96875 11.390625 15.046875 10.804688 14.992188 10.804688 C 14.972656 10.804688 14.953125 11.285156 14.949219 11.871094 C 14.945312 12.457031 14.953125 12.9375 14.964844 12.9375 C 14.976562 12.9375 15.304688 12.738281 15.6875 12.5 Z M 7.621094 11.054688 C 8.050781 10.777344 8.492188 10.5 8.609375 10.433594 L 8.824219 10.316406 L 8.847656 9.964844 C 8.882812 9.449219 8.933594 8.933594 9 8.503906 C 9.085938 7.929688 9.101562 7.988281 8.796875 7.878906 C 8.453125 7.757812 7.359375 7.429688 7.054688 7.359375 L 6.820312 7.300781 L 6.710938 7.414062 C 6.492188 7.636719 6.15625 7.695312 5.886719 7.558594 C 5.746094 7.484375 5.601562 7.308594 5.5625 7.144531 C 5.542969 7.066406 5.523438 7.058594 5.273438 7.039062 C 4.816406 7 4.136719 7.039062 3.898438 7.117188 C 2.765625 7.484375 3.101562 8.589844 4.832031 10.140625 C 5.152344 10.433594 5.652344 10.847656 5.945312 11.0625 C 6.726562 11.644531 6.714844 11.636719 6.789062 11.59375 C 6.820312 11.570312 7.195312 11.328125 7.621094 11.054688 Z M 17.414062 11.328125 C 17.960938 10.941406 18.277344 10.6875 18.773438 10.253906 L 19.171875 9.90625 L 19.148438 9.753906 C 19.117188 9.539062 19.15625 9.351562 19.28125 9.226562 C 19.429688 9.074219 19.566406 9.011719 19.78125 9.027344 L 19.964844 9.039062 L 20.132812 8.820312 C 20.507812 8.324219 20.644531 7.808594 20.480469 7.496094 C 20.386719 7.320312 20.304688 7.242188 20.074219 7.140625 C 19.5 6.886719 18.34375 6.945312 16.921875 7.296875 C 16.304688 7.449219 14.75 7.933594 14.683594 7.992188 C 14.671875 8 14.695312 8.265625 14.742188 8.574219 C 14.8125 9.097656 14.886719 9.898438 14.886719 10.179688 C 14.886719 10.289062 14.898438 10.304688 15.195312 10.476562 C 15.710938 10.78125 16.375 11.203125 16.675781 11.421875 C 16.828125 11.535156 16.964844 11.628906 16.976562 11.632812 C 16.984375 11.632812 17.183594 11.496094 17.414062 11.328125 Z M 14.425781 9.839844 C 14.425781 9.449219 14.273438 8.167969 14.226562 8.167969 C 14.171875 8.167969 12.40625 8.9375 12.40625 8.960938 C 12.40625 8.972656 12.492188 9.011719 12.59375 9.054688 C 12.867188 9.167969 13.917969 9.714844 14.160156 9.871094 C 14.277344 9.945312 14.382812 10.007812 14.398438 10.007812 C 14.414062 10.011719 14.425781 9.9375 14.425781 9.839844 Z M 9.464844 9.921875 C 9.695312 9.777344 10.691406 9.253906 11.019531 9.105469 L 11.378906 8.9375 L 11.160156 8.828125 C 10.695312 8.597656 9.582031 8.160156 9.519531 8.179688 C 9.472656 8.199219 9.457031 8.292969 9.382812 8.929688 C 9.261719 10.035156 9.261719 10.046875 9.464844 9.921875 Z M 12.222656 8.554688 C 12.550781 8.40625 13.523438 8.011719 13.984375 7.839844 C 14.234375 7.746094 14.226562 7.816406 14.066406 6.960938 C 13.746094 5.25 13.234375 3.953125 12.664062 3.402344 C 12.378906 3.125 12.164062 3.023438 11.878906 3.023438 C 11.625 3.023438 11.425781 3.105469 11.210938 3.296875 C 10.546875 3.894531 9.996094 5.246094 9.652344 7.136719 C 9.554688 7.679688 9.546875 7.722656 9.589844 7.753906 C 9.613281 7.769531 9.882812 7.878906 10.195312 8.003906 C 10.507812 8.128906 11.007812 8.335938 11.3125 8.464844 C 11.609375 8.597656 11.863281 8.707031 11.867188 8.707031 C 11.875 8.707031 12.035156 8.640625 12.222656 8.554688 Z "/>
</svg>
