<svg width="24" xmlns="http://www.w3.org/2000/svg" height="24" viewBox="0 0 24 24" xmlns:xlink="http://www.w3.org/1999/xlink">
<path style="fill:#61c66b;fill-rule:evenodd;stroke:#61c66b;stroke-linejoin:round;stroke-width:12.5" d="M 234.900257 36.60996 C 219.736674 37.146572 202.735081 42.282718 193.621615 53.168282 C 180.372626 81.378756 212.537802 68.346744 216.290406 87.894763 C 220.043009 107.366123 197.374219 108.439347 197.374219 108.439347 L 99.653351 108.439347 C 99.653351 108.439347 99.729935 205.412854 99.729935 205.412854 C 99.729935 205.412854 100.878691 228.103888 120.330964 224.347602 C 136.183801 221.281246 130.593187 199.43346 142.999755 198.436894 C 145.909938 198.283577 149.739125 199.126824 155.023404 201.579909 C 165.974881 210.702318 171.029408 227.797253 171.565494 242.975714 C 171.795246 248.571814 171.335743 253.861278 170.340154 258.460812 C 170.263571 258.690789 170.263571 258.844106 170.263571 259.150742 C 168.578728 272.182755 163.5242 285.521403 154.257566 293.187293 C 126.074746 306.372624 139.093984 274.329204 119.641711 270.496259 C 105.397133 267.736539 100.955275 279.005397 99.653351 285.291426 L 99.653351 388.244327 C 99.653351 388.244327 197.757138 387.401079 197.757138 387.401079 C 197.757138 387.401079 220.425928 386.404514 216.596741 366.856495 C 212.844137 347.308475 180.755545 360.340488 193.92795 332.130013 C 203.041416 321.24445 220.043009 316.108304 235.283176 315.571691 C 240.87379 315.341715 246.158069 315.878327 250.753094 316.874893 C 250.982845 316.874893 251.212596 316.874893 251.365764 316.951552 C 264.538169 318.638047 277.863742 323.697535 285.522117 332.896602 C 298.771106 361.107077 266.605931 348.075064 262.853327 367.623084 C 259.024139 387.094444 281.769514 388.167668 281.769514 388.167668 L 378.954295 388.167668 L 378.954295 286.134674 C 380.332802 279.771986 384.77466 268.656445 398.86607 271.416166 C 418.394927 275.172452 405.375689 307.29253 433.55851 294.1072 C 442.74856 286.44131 447.803088 273.102662 449.564514 259.99399 C 449.564514 259.764013 449.641098 259.610695 449.641098 259.380719 C 450.636687 254.781185 451.096189 249.491721 450.866438 243.895621 C 450.330352 228.717159 445.19924 211.622225 434.324348 202.499816 C 406.141527 189.314485 419.160765 221.434564 399.631908 225.267509 C 380.103051 228.947136 379.030879 206.332761 379.030879 206.332761 L 378.954295 108.439347 L 276.79157 108.439347 C 270.358534 106.982828 259.789977 102.459953 262.470408 88.661352 C 266.299596 69.113333 298.388188 82.145345 285.215782 53.934871 C 277.480823 44.735803 264.155251 39.676315 251.059429 37.98982 C 250.829678 37.913161 250.599926 37.913161 250.446759 37.913161 C 245.851734 36.916595 240.567455 36.379983 234.900257 36.60996 Z " transform="matrix(.05101 0 0 .05096 -2.16498 1.05246)"/>
</svg>
