<svg width="24" xmlns="http://www.w3.org/2000/svg" height="24" viewBox="0 0 24 24" xmlns:xlink="http://www.w3.org/1999/xlink">
<g style="fill:#de165d">
<path d="M 12 8.238281 C 12 10.996094 9.761719 13.230469 7 13.230469 C 4.238281 13.230469 2 10.996094 2 8.238281 C 2 5.484375 4.238281 3.25 7 3.25 C 9.761719 3.25 12 5.484375 12 8.238281 Z "/>
<path d="M 22 8.238281 C 22 10.996094 19.761719 13.230469 17 13.230469 C 14.238281 13.230469 12 10.996094 12 8.238281 C 12 5.484375 14.238281 3.25 17 3.25 C 19.761719 3.25 22 5.484375 22 8.238281 Z "/>
<path d="M 2.945312 11.078125 L 12.15625 8.40625 L 20.71875 11.570312 L 11.9375 20.75 Z "/>
</g>
</svg>
