<svg width="24" xmlns="http://www.w3.org/2000/svg" height="24" viewBox="0 0 24 24" xmlns:xlink="http://www.w3.org/1999/xlink">
<g style="fill-rule:evenodd">
<path style="fill:#fff;stroke:#5b93d6;stroke-width:7.56" d="M 76.167138 33.431016 C 76.167138 33.431016 90.735314 31.957357 106.440313 34.399421 C 106.440313 34.399421 107.240299 37.304635 104.671921 38.188831 L 102.271962 62.651576 L 126.861021 176.165454 C 126.861021 176.165454 132.376718 190.481002 115.240164 193.596739 C 98.061506 196.670372 72.377728 201.428186 52.335961 185.933711 C 52.335961 185.933711 47.578146 179.912759 55.914848 152.376381 L 78.693411 63.030517 L 77.809216 38.27304 C 77.809216 38.27304 74.188224 34.778362 76.167138 33.431016 Z " transform="scale(.09277)"/>
<path style="fill:#d1d6cf;fill-opacity:.467" d="M 11.363281 17.074219 C 11.363281 17.476562 10.074219 17.804688 8.488281 17.804688 C 6.902344 17.804688 5.617188 17.476562 5.617188 17.074219 C 5.617188 16.671875 6.902344 16.34375 8.488281 16.34375 C 10.074219 16.34375 11.363281 16.671875 11.363281 17.074219 Z "/>
<path style="fill:#acc2e2" d="M 10.648438 14.019531 C 8.472656 15.191406 6.847656 14.855469 5.78125 14.253906 L 5.777344 14.265625 C 5.777344 14.273438 5.773438 14.28125 5.773438 14.289062 C 5.398438 15.53125 5.328125 16.257812 5.335938 16.636719 C 5.339844 16.773438 5.355469 16.855469 5.367188 16.910156 C 6.96875 18.050781 9.019531 17.691406 10.574219 17.414062 C 11.179688 17.300781 11.1875 17.144531 11.226562 16.945312 C 11.265625 16.75 11.195312 16.527344 11.195312 16.527344 C 11.1875 16.503906 11.179688 16.476562 11.175781 16.449219 Z "/>
<path style="fill:#fff;stroke:#5b93d6;stroke-width:7.56" d="M 143.366006 70.904069 L 142.650229 50.48336 C 142.650229 50.48336 142.692334 47.830773 141.302883 47.072891 L 142.313393 44.715036 C 142.313393 44.715036 150.902722 42.820331 171.660267 45.3045 C 171.660267 45.3045 174.902317 45.093977 175.323363 47.914982 C 175.323363 47.914982 173.512867 49.809687 173.639181 53.051738 L 171.281326 72.419833 C 171.281326 72.419833 196.37564 165.344584 203.070264 203.659728 C 203.070264 203.659728 200.038736 219.617354 182.649555 222.396254 C 165.302479 225.175155 129.892549 232.627661 102.145648 209.217529 C 102.145648 209.217529 92.756333 202.94395 105.30349 176.03914 L 140.250269 80.167071 C 140.250269 80.167071 143.408111 75.240838 143.871261 73.59876 C 144.334411 71.914578 143.408111 71.072487 143.366006 70.904069 Z " transform="scale(.09277)"/>
<path style="fill:#d1d6cf;fill-opacity:.467" d="M 18.148438 19.273438 C 18.148438 19.917969 16.402344 20.441406 14.25 20.441406 C 12.09375 20.441406 10.347656 19.917969 10.347656 19.273438 C 10.347656 18.625 12.09375 18.101562 14.25 18.101562 C 16.402344 18.101562 18.148438 18.625 18.148438 19.273438 Z "/>
<g style="fill:#acc2e2">
<g style="fill-opacity:.6">
<path d="M 7.925781 3.707031 L 8 5.824219 C 8.003906 5.882812 7.996094 5.9375 7.984375 5.992188 L 7.144531 9.28125 C 7.4375 9.304688 7.734375 9.417969 8.03125 9.644531 C 8.597656 10.085938 9.128906 10.011719 9.609375 9.660156 L 8.804688 5.933594 C 8.792969 5.875 8.785156 5.8125 8.792969 5.75 L 8.988281 3.742188 C 8.597656 3.710938 8.230469 3.703125 7.933594 3.707031 C 7.929688 3.707031 7.925781 3.707031 7.925781 3.707031 Z "/>
<path d="M 14.214844 4.800781 C 14.136719 4.800781 14.085938 4.800781 14.019531 4.800781 L 14.074219 6.410156 C 14.136719 6.566406 14.164062 6.789062 14.105469 7 C 14.023438 7.292969 13.9375 7.378906 13.851562 7.527344 C 13.789062 7.636719 13.757812 7.683594 13.730469 7.730469 L 12.046875 12.339844 C 13.054688 11.964844 14.097656 12.070312 14.8125 13.410156 C 14.8125 13.410156 16.148438 14.945312 15.816406 10.722656 C 15.785156 10.316406 15.800781 9.957031 15.855469 9.636719 C 15.4375 8.03125 15.132812 6.890625 15.132812 6.890625 C 15.109375 6.808594 15.101562 6.722656 15.113281 6.636719 L 15.332031 4.867188 C 14.886719 4.828125 14.496094 4.800781 14.214844 4.800781 Z M 13.976562 6.21875 C 13.976562 6.222656 13.980469 6.230469 13.988281 6.242188 C 13.988281 6.238281 13.988281 6.234375 13.988281 6.234375 C 13.976562 6.21875 13.96875 6.207031 13.976562 6.21875 Z M 13.992188 6.246094 C 14 6.261719 14.007812 6.28125 14.019531 6.296875 C 14.007812 6.273438 14 6.257812 13.992188 6.246094 Z "/>
</g>
<path d="M 10.84375 15.417969 L 10.4375 16.53125 C 10.433594 16.550781 10.425781 16.566406 10.417969 16.585938 C 9.867188 17.765625 9.832031 18.421875 9.878906 18.714844 C 9.902344 18.859375 9.941406 18.921875 9.953125 18.9375 C 12.253906 20.878906 15.164062 20.265625 16.828125 19.996094 C 17.835938 19.835938 18.074219 19.097656 18.125 18.878906 C 17.980469 18.074219 17.75 17.007812 17.480469 15.847656 C 14.492188 16.585938 12.3125 16.117188 10.84375 15.417969 Z "/>
</g>
</g>
</svg>
