<svg width="24" xmlns="http://www.w3.org/2000/svg" height="24" viewBox="0 0 24 24" xmlns:xlink="http://www.w3.org/1999/xlink">
<g style="fill:#ec86ab">
<path d="M 3.628906 2.597656 L 3.628906 14.96875 L 4.65625 14.96875 L 4.65625 2.597656 Z "/>
<path d="M 5.691406 15.484375 C 5.691406 16.335938 4.996094 17.027344 4.144531 17.027344 C 3.289062 17.027344 2.597656 16.335938 2.597656 15.484375 C 2.597656 14.628906 3.289062 13.9375 4.144531 13.9375 C 4.996094 13.9375 5.691406 14.628906 5.691406 15.484375 Z "/>
<path d="M 9.8125 21.152344 L 9.8125 5.691406 L 8.78125 5.691406 L 8.78125 21.152344 Z "/>
<path d="M 7.75 5.175781 C 7.75 4.320312 8.445312 3.628906 9.296875 3.628906 C 10.152344 3.628906 10.84375 4.320312 10.84375 5.175781 C 10.84375 6.027344 10.152344 6.722656 9.296875 6.722656 C 8.445312 6.722656 7.75 6.027344 7.75 5.175781 Z "/>
<path d="M 13.9375 2.597656 L 13.9375 13.9375 L 14.96875 13.9375 L 14.96875 2.597656 Z "/>
<path d="M 16 14.449219 C 16 15.304688 15.304688 16 14.453125 16 C 13.597656 16 12.90625 15.304688 12.90625 14.449219 C 12.90625 13.597656 13.597656 12.90625 14.453125 12.90625 C 15.304688 12.90625 16 13.597656 16 14.449219 Z "/>
<path d="M 20.121094 21.152344 L 20.121094 12.90625 L 19.09375 12.90625 L 19.09375 21.152344 Z "/>
<path d="M 18.058594 12.390625 C 18.058594 11.535156 18.753906 10.84375 19.605469 10.84375 C 20.460938 10.84375 21.152344 11.535156 21.152344 12.390625 C 21.152344 13.246094 20.460938 13.9375 19.605469 13.9375 C 18.753906 13.9375 18.058594 13.246094 18.058594 12.390625 Z "/>
</g>
</svg>
