<svg width="24" xmlns="http://www.w3.org/2000/svg" height="24" viewBox="0 0 24 24" xmlns:xlink="http://www.w3.org/1999/xlink">
<path style="fill:#4c7686" d="M 10.25 4 L 10.25 13.601562 C 9.574219 13.335938 8.691406 13.292969 7.785156 13.539062 C 6.085938 14 4.945312 15.289062 5.242188 16.417969 C 5.542969 17.546875 7.164062 18.089844 8.863281 17.628906 C 10.308594 17.238281 11.34375 16.25 11.4375 15.269531 L 11.449219 15.269531 L 11.449219 8.207031 L 17.601562 8.972656 L 17.601562 15.808594 C 16.929688 15.542969 16.046875 15.5 15.136719 15.746094 C 13.4375 16.207031 12.300781 17.496094 12.597656 18.625 C 12.898438 19.753906 14.519531 20.296875 16.21875 19.835938 C 17.660156 19.445312 18.695312 18.457031 18.792969 17.476562 L 18.804688 17.476562 L 18.804688 5.136719 Z M 11.449219 6.3125 L 17.601562 7.179688 L 17.601562 7.953125 L 11.449219 7.191406 Z "/>
</svg>
