<svg width="24" xmlns="http://www.w3.org/2000/svg" height="24" viewBox="0 0 24 24" xmlns:xlink="http://www.w3.org/1999/xlink">
<path style="fill:none;stroke:#6aaf53;stroke-linejoin:round;stroke-linecap:round;stroke-width:2" d="M 10.539062 1021.3622 L 37.460938 1021.3622 C 38.3125 1021.3622 39 1022.0497 39 1022.901263 L 39 1033.823138 C 39 1034.6747 38.3125 1035.3622 37.460938 1035.3622 L 10.539062 1035.3622 C 9.6875 1035.3622 9 1034.6747 9 1033.823138 L 9 1022.901263 C 9 1022.0497 9.6875 1021.3622 10.539062 1021.3622 Z " transform="matrix(.5 0 0 .5 0 -502.1811)"/>
<path style="fill:#6aaf53" d="M 5.75 9.5 C 5.613281 9.5 5.5 9.613281 5.5 9.75 L 5.5 14.25 C 5.5 14.386719 5.613281 14.5 5.75 14.5 L 11.777344 14.5 C 11.914062 14.5 12.027344 14.386719 12.027344 14.25 L 12.027344 9.75 C 12.027344 9.613281 11.914062 9.5 11.777344 9.5 Z M 7.5 13 L 7.5 11 L 8 11 L 8 13 Z M 8.5 13 L 8.5 11 L 9 11 L 9 13 Z M 9.5 13 L 9.5 11 L 10 11 L 10 13 Z "/>
</svg>
