<svg width="24" xmlns="http://www.w3.org/2000/svg" height="24" viewBox="0 0 24 24" xmlns:xlink="http://www.w3.org/1999/xlink">
<path style="fill:#9cc7cf" d="M 12.53125 15.558594 C 12.484375 13.875 12.859375 12.242188 14.464844 11.085938 C 16.15625 9.773438 17.785156 8.136719 17.613281 6.207031 C 17.574219 4.34375 15.390625 2.886719 13.039062 2.675781 C 10.386719 2.3125 7.183594 3.210938 6.292969 5.265625 C 5.84375 6.265625 6.261719 8.054688 7.773438 8.054688 C 8.65625 8.054688 9.0625 7.488281 9.128906 6.972656 C 9.179688 6.578125 9.015625 6.230469 8.921875 5.90625 C 8.8125 5.539062 9.277344 4.820312 9.785156 4.527344 C 10.210938 4.289062 10.65625 4.203125 10.71875 4.1875 C 12.242188 3.824219 13.757812 4.628906 14.390625 5.605469 C 15.027344 6.582031 14.328125 8.0625 13.328125 9.503906 C 12.324219 10.945312 11.25 12.582031 11.253906 14.320312 C 11.253906 14.980469 11.195312 15.203125 11.234375 15.472656 C 11.269531 15.6875 11.984375 15.660156 12.53125 15.558594 Z M 11.832031 17.824219 C 10.378906 17.746094 9.371094 19.382812 10.242188 20.429688 C 11.023438 21.582031 13.21875 21.296875 13.589844 19.992188 C 13.980469 18.976562 13.042969 17.808594 11.832031 17.824219 Z "/>
</svg>
