<?xml version="1.0" encoding="UTF-8" standalone="no"?>
<svg
   xmlns:dc="http://purl.org/dc/elements/1.1/"
   xmlns:cc="http://creativecommons.org/ns#"
   xmlns:rdf="http://www.w3.org/1999/02/22-rdf-syntax-ns#"
   xmlns:svg="http://www.w3.org/2000/svg"
   xmlns="http://www.w3.org/2000/svg"
   xmlns:sodipodi="http://sodipodi.sourceforge.net/DTD/sodipodi-0.dtd"
   xmlns:inkscape="http://www.inkscape.org/namespaces/inkscape"
   width="48"
   viewBox="0 0 48 48"
   height="48"
   id="svg2"
   version="1.1"
   inkscape:version="0.91 r13725"
   sodipodi:docname="application-vnd.openxmlformats-officedocument.wordprocessingml.document.svg">
  <metadata
     id="metadata44">
    <rdf:RDF>
      <cc:Work
         rdf:about="">
        <dc:format>image/svg+xml</dc:format>
        <dc:type
           rdf:resource="http://purl.org/dc/dcmitype/StillImage" />
      </cc:Work>
    </rdf:RDF>
  </metadata>
  <defs
     id="defs42" />
  <sodipodi:namedview
     pagecolor="#ffffff"
     bordercolor="#666666"
     borderopacity="1"
     objecttolerance="10"
     gridtolerance="10"
     guidetolerance="10"
     inkscape:pageopacity="0"
     inkscape:pageshadow="2"
     inkscape:window-width="1280"
     inkscape:window-height="998"
     id="namedview40"
     showgrid="true"
     inkscape:zoom="9.8333331"
     inkscape:cx="5.7005599"
     inkscape:cy="12.845798"
     inkscape:window-x="0"
     inkscape:window-y="0"
     inkscape:window-maximized="1"
     inkscape:current-layer="svg2">
    <inkscape:grid
       type="xygrid"
       id="grid3109" />
  </sodipodi:namedview>
  <path
     style="fill:#3468ce"
     d="M 8,1 C 6.9714285,1 6,1.9714285 6,3 l 0,42 c 0,0.971429 1.0285714,2 2,2 l 32,0 c 0.971429,0 2,-1.028571 2,-2 L 42,14 29,1 z"
     id="path4" />
  <path
     style="fill-opacity:.196"
     d="M 29,12 29.0625,12.0625 29.21875,12 29,12 z m 2,2 11,11 0,-11 -11,0 z"
     id="path6" />
  <path
     inkscape:connector-curvature="0"
     id="path10"
     d="m 29,1 13,13 -11,0 c -0.971429,0 -2,-1.028571 -2,-2 L 29,1 z"
     style="fill:#ffffff;fill-opacity:0.39200003" />
  <path
     style="fill-opacity:.196"
     d="m 6.0000005,35 0,10 c 0,0.971429 1.028571,2 2,2 L 40,47 c 0.971429,0 2,-1.028571 2,-2 l 0,-10 z"
     id="path30" />
  <rect
     id="rect12"
     style="fill:#f9f9f9;fill-opacity:1"
     ry="0.60100001"
     height="7"
     rx="0.579"
     y="16"
     x="15"
     width="8" />
  <path
     style="fill:#f9f9f9;fill-opacity:1;stroke:#f9f9f9;stroke-linecap:round;stroke-linejoin:round;stroke-opacity:1;stroke-dashoffset:0.774"
     inkscape:connector-curvature="0"
     id="path16"
     d="m 25.5,16.5 6,0"
     sodipodi:nodetypes="cc" />
  <path
     style="fill:#f9f9f9;fill-opacity:1;stroke:#f9f9f9;stroke-linecap:round;stroke-linejoin:round;stroke-opacity:1;stroke-dashoffset:0.774"
     inkscape:connector-curvature="0"
     id="path22-8"
     d="m 15.5,25.5 16,0" />
  <path
     style="fill:#f9f9f9;fill-opacity:1;stroke:#f9f9f9;stroke-linecap:round;stroke-linejoin:round;stroke-opacity:1;stroke-dashoffset:0.774"
     inkscape:connector-curvature="0"
     id="path24-7"
     d="m 15.5,28.5 16,0" />
  <path
     style="fill:#f9f9f9;fill-opacity:1;stroke:#f9f9f9;stroke-linecap:round;stroke-linejoin:round;stroke-opacity:1;stroke-dashoffset:0.774"
     inkscape:connector-curvature="0"
     id="path26-4"
     d="m 15.5,31.5 16,0" />
  <path
     style="fill:#f9f9f9;fill-opacity:1;stroke:#f9f9f9;stroke-linecap:round;stroke-linejoin:round;stroke-opacity:1;stroke-dashoffset:0.774"
     inkscape:connector-curvature="0"
     id="path16-1"
     d="m 25.5,19.5 6,0"
     sodipodi:nodetypes="cc" />
  <path
     style="fill:#f9f9f9;fill-opacity:1;stroke:#f9f9f9;stroke-linecap:round;stroke-linejoin:round;stroke-opacity:1;stroke-dashoffset:0.774"
     inkscape:connector-curvature="0"
     id="path16-1-8"
     d="m 25.5,22.5 6,0"
     sodipodi:nodetypes="cc" />
  <path
     style="line-height:125%;letter-spacing:0;word-spacing:0;fill:#ffffff"
     inkscape:connector-curvature="0"
     id="path34"
     d="m 13.499436,43.792759 c 0.04063,0.0071 0.08533,0.01068 0.134096,0.01068 0.04876,1e-6 0.09346,1e-6 0.134095,0 0.341331,1e-6 0.625777,-0.05697 0.853337,-0.170892 0.235679,-0.113927 0.422601,-0.270577 0.560763,-0.469953 0.146281,-0.199373 0.24787,-0.434349 0.304763,-0.704931 0.06501,-0.277697 0.09752,-0.580319 0.09752,-0.907864 -4e-6,-0.284818 -0.02438,-0.562517 -0.07315,-0.8331 -0.04877,-0.270575 -0.134099,-0.509112 -0.256,-0.715611 -0.121909,-0.206491 -0.288513,-0.370262 -0.499811,-0.491315 -0.211306,-0.128164 -0.48356,-0.192249 -0.816765,-0.192254 -0.06501,5e-6 -0.138162,0.0035 -0.219429,0.01068 -0.08127,6e-6 -0.154416,0.0071 -0.219429,0.02136 l 0,4.443197 m 3.608392,-2.24296 c -6e-6,0.612366 -0.0894,1.135723 -0.268192,1.570072 -0.170672,0.427231 -0.410419,0.776136 -0.71924,1.046715 -0.30883,0.270579 -0.678609,0.469954 -1.109337,0.598122 -0.422607,0.121048 -0.889909,0.181573 -1.401909,0.181573 -0.268193,0 -0.532321,-0.01424 -0.792383,-0.04272 C 12.564825,44.882194 12.292571,44.843037 12,44.786068 l 0,-6.451181 c 0.341333,-0.06407 0.66235,-0.106801 0.96305,-0.128169 0.300697,-0.02135 0.581079,-0.03203 0.841145,-0.03204 0.495746,7e-6 0.946794,0.06409 1.353148,0.192254 0.414472,0.128176 0.763933,0.33111 1.048384,0.608804 0.284439,0.270584 0.503869,0.61949 0.658287,1.046714 0.162535,0.420115 0.243805,0.929231 0.243811,1.52735" />
  <path
     style="line-height:125%;letter-spacing:0;word-spacing:0;fill:#ffffff"
     inkscape:connector-curvature="0"
     id="path36"
     d="m 19.28993,41.549799 c -2e-6,0.320425 0.01219,0.623047 0.03657,0.907864 0.03251,0.277702 0.0894,0.5198 0.170667,0.726293 0.0894,0.206496 0.2113,0.370267 0.365715,0.491315 0.154411,0.121049 0.361649,0.181573 0.621716,0.181572 0.251935,1e-6 0.45511,-0.06052 0.609527,-0.181572 0.162536,-0.121048 0.284441,-0.284819 0.365714,-0.491315 0.0894,-0.213614 0.146283,-0.459271 0.170668,-0.736973 0.03251,-0.277697 0.04876,-0.576759 0.04876,-0.897184 -4e-6,-0.32042 -0.01626,-0.619481 -0.04876,-0.897184 -0.02439,-0.284816 -0.08128,-0.530474 -0.170668,-0.736973 -0.08127,-0.20649 -0.199115,-0.370261 -0.353524,-0.491315 -0.154417,-0.121043 -0.361655,-0.181568 -0.621717,-0.181573 -0.260067,5e-6 -0.467305,0.06053 -0.621716,0.181573 -0.154415,0.121054 -0.276321,0.288386 -0.365715,0.501995 -0.08127,0.206501 -0.138161,0.448597 -0.170667,0.726293 -0.02438,0.277703 -0.03657,0.576764 -0.03657,0.897184 m -1.523814,0 c 0,-1.139277 0.239746,-1.997297 0.719239,-2.574064 0.479493,-0.583875 1.145907,-0.875816 1.999245,-0.875822 0.88584,6e-6 1.560381,0.291947 2.023625,0.875822 0.463234,0.576767 0.694854,1.434787 0.69486,2.574064 -6e-6,1.139284 -0.235689,2.000864 -0.70705,2.584744 -0.471371,0.576762 -1.137785,0.865142 -1.999244,0.865142 -0.885846,0 -1.564451,-0.28838 -2.035816,-0.865142 -0.46324,-0.58388 -0.694859,-1.44546 -0.694859,-2.584744" />
  <path
     style="line-height:125%;letter-spacing:0;word-spacing:0;fill:#ffffff"
     inkscape:connector-curvature="0"
     id="path38"
     d="m 27.14062,44.999685 c -1.06464,0 -1.87734,-0.299062 -2.438102,-0.897183 -0.560765,-0.598122 -0.841145,-1.449022 -0.841145,-2.552703 0,-0.548275 0.08533,-1.03603 0.256001,-1.463265 0.170665,-0.427226 0.406348,-0.78681 0.70705,-1.078757 0.308823,-0.299055 0.670475,-0.523351 1.084955,-0.672888 0.422601,-0.156644 0.881777,-0.23497 1.377528,-0.234976 0.268187,6e-6 0.507933,0.02137 0.71924,0.06408 0.219425,0.03561 0.410409,0.07833 0.572954,0.128169 0.162535,0.04985 0.29663,0.103254 0.402287,0.160212 0.113773,0.05698 0.199106,0.09969 0.256001,0.128169 l -0.390096,1.046714 c -0.186927,-0.106803 -0.414484,-0.195808 -0.682669,-0.26702 -0.260068,-0.07831 -0.560768,-0.117483 -0.902099,-0.117488 -0.235686,5e-6 -0.467306,0.03917 -0.694859,0.117488 -0.219432,0.07122 -0.418543,0.19582 -0.597334,0.373828 -0.170671,0.170897 -0.312893,0.402314 -0.426669,0.694249 -0.105653,0.291945 -0.158478,0.655091 -0.158477,1.089438 -1e-6,0.754776 0.146285,1.335097 0.438859,1.740964 0.300697,0.39875 0.788317,0.598124 1.462862,0.598124 0.390092,0 0.711109,-0.03916 0.96305,-0.117489 0.260059,-0.07832 0.467298,-0.15665 0.621716,-0.234977 l 0.377906,1.036034 c -0.211307,0.113929 -0.499816,0.220735 -0.865526,0.320423 -0.357593,0.09257 -0.77207,0.13885 -1.243433,0.13885" />
  <path
     style="line-height:125%;letter-spacing:0;word-spacing:0;fill:#ffffff"
     d="m 34.409882,45 c -0.159658,-0.38449 -0.357123,-0.810445 -0.592396,-1.277867 -0.226879,-0.467419 -0.466358,-0.934839 -0.718437,-1.402262 -0.243683,0.444805 -0.487365,0.908457 -0.731042,1.390954 C 32.124324,44.185785 31.914255,44.61551 31.737799,45 l -1.676355,0 c 0.08402,-0.203552 0.205869,-0.448572 0.365522,-0.735056 0.168055,-0.286482 0.348714,-0.595583 0.541979,-0.927303 0.201665,-0.331715 0.411734,-0.670972 0.630207,-1.01777 0.218471,-0.354332 0.428539,-0.693589 0.630209,-1.017772 L 30.187487,38 31.86384,38 33.099049,40.239097 34.397277,38 l 1.562916,0 -1.991457,3.268175 c 0.226871,0.324183 0.449543,0.663438 0.66802,1.017771 0.218467,0.354337 0.420134,0.701133 0.605,1.040389 0.193258,0.331718 0.361314,0.644588 0.504167,0.938609 0.14284,0.286484 0.256278,0.531504 0.340311,0.735056 l -1.676352,0"
     id="path20"
     inkscape:connector-curvature="0" />
</svg>
