<?xml version="1.0" encoding="UTF-8" standalone="no"?>
<svg
   xmlns:dc="http://purl.org/dc/elements/1.1/"
   xmlns:cc="http://creativecommons.org/ns#"
   xmlns:rdf="http://www.w3.org/1999/02/22-rdf-syntax-ns#"
   xmlns:svg="http://www.w3.org/2000/svg"
   xmlns="http://www.w3.org/2000/svg"
   xmlns:sodipodi="http://sodipodi.sourceforge.net/DTD/sodipodi-0.dtd"
   xmlns:inkscape="http://www.inkscape.org/namespaces/inkscape"
   width="48"
   viewBox="0 0 48 48"
   height="48"
   id="svg2"
   version="1.1"
   inkscape:version="0.48.5 r10040"
   sodipodi:docname="wps-office-doc.svg">
  <metadata
     id="metadata44">
    <rdf:RDF>
      <cc:Work
         rdf:about="">
        <dc:format>image/svg+xml</dc:format>
        <dc:type
           rdf:resource="http://purl.org/dc/dcmitype/StillImage" />
      </cc:Work>
    </rdf:RDF>
  </metadata>
  <defs
     id="defs42" />
  <sodipodi:namedview
     pagecolor="#ffffff"
     bordercolor="#666666"
     borderopacity="1"
     objecttolerance="10"
     gridtolerance="10"
     guidetolerance="10"
     inkscape:pageopacity="0"
     inkscape:pageshadow="2"
     inkscape:window-width="1280"
     inkscape:window-height="970"
     id="namedview40"
     showgrid="true"
     inkscape:zoom="13.906433"
     inkscape:cx="27.999182"
     inkscape:cy="23.135637"
     inkscape:window-x="0"
     inkscape:window-y="0"
     inkscape:window-maximized="1"
     inkscape:current-layer="svg2">
    <inkscape:grid
       type="xygrid"
       id="grid3109" />
  </sodipodi:namedview>
  <path
     style="fill:#3468ce"
     d="M 8,1 C 6.9714285,1 6,1.9714285 6,3 l 0,42 c 0,0.971429 1.0285714,2 2,2 l 32,0 c 0.971429,0 2,-1.028571 2,-2 L 42,14 29,1 z"
     id="path4" />
  <path
     style="fill-opacity:.196"
     d="M 29,12 29.0625,12.0625 29.21875,12 29,12 z m 2,2 11,11 0,-11 -11,0 z"
     id="path6" />
  <path
     inkscape:connector-curvature="0"
     id="path10"
     d="m 29,1 13,13 -11,0 c -0.971429,0 -2,-1.028571 -2,-2 L 29,1 z"
     style="fill:#ffffff;fill-opacity:0.39200003" />
  <path
     style="fill-opacity:.196"
     d="m 6.0000005,35 0,10 c 0,0.971429 1.028571,2 2,2 L 40,47 c 0.971429,0 2,-1.028571 2,-2 l 0,-10 z"
     id="path30" />
  <g
     style="fill:#fff;word-spacing:0;line-height:125%;letter-spacing:0"
     transform="scale(1.06834 .93603)"
     id="g32">
    <path
       d="m 14.731741,46.579983 c 0.0441,0.0088 0.09261,0.01323 0.145532,0.01323 0.05292,1e-6 0.101428,1e-6 0.145532,0 0.370441,1e-6 0.679145,-0.07056 0.926112,-0.211683 0.255779,-0.14112 0.458642,-0.335162 0.608588,-0.582127 0.158757,-0.246961 0.269009,-0.538025 0.330754,-0.873192 0.07056,-0.343981 0.105837,-0.718836 0.105841,-1.124564 -4e-6,-0.352801 -0.02646,-0.696785 -0.07938,-1.031954 -0.05293,-0.335159 -0.145536,-0.630632 -0.277833,-0.886421 -0.132306,-0.255778 -0.313118,-0.45864 -0.542437,-0.608588 -0.229327,-0.158756 -0.5248,-0.238137 -0.886422,-0.238143 -0.07056,6e-6 -0.149945,0.0044 -0.238143,0.01323 -0.0882,7e-6 -0.167585,0.0088 -0.238143,0.02646 l 0,5.503752 m 3.916131,-2.778336 c -6e-6,0.758533 -0.09703,1.406811 -0.291064,1.944835 -0.185228,0.529208 -0.445421,0.961394 -0.78058,1.296557 -0.335169,0.335165 -0.736484,0.582128 -1.203946,0.740889 -0.458649,0.149942 -0.965805,0.224913 -1.52147,0.224913 -0.291066,0 -0.577719,-0.01764 -0.859961,-0.05292 -0.273425,-0.02646 -0.568898,-0.07497 -0.886421,-0.145532 l 0,-7.991024 c 0.370443,-0.07937 0.718838,-0.132294 1.045183,-0.158762 0.326342,-0.02645 0.630636,-0.03968 0.912882,-0.03969 0.538024,8e-6 1.02754,0.07939 1.468549,0.238143 0.449821,0.15877 0.829086,0.410143 1.137795,0.75412 0.308698,0.335171 0.546841,0.767357 0.714429,1.296557 0.176396,0.520392 0.264598,1.15103 0.264604,1.891915"
       id="path34" />
    <path
       d="m 21.016073,43.801647 c -2e-6,0.396908 0.01323,0.771763 0.03969,1.124564 0.03528,0.343987 0.09702,0.643871 0.185223,0.899652 0.09702,0.255785 0.22932,0.458647 0.396905,0.608588 0.167579,0.149943 0.392492,0.224914 0.674738,0.224913 0.27342,1e-6 0.493923,-0.07497 0.661509,-0.224913 0.176398,-0.149941 0.3087,-0.352803 0.396905,-0.608588 0.09702,-0.264601 0.158758,-0.568895 0.185223,-0.912882 0.03528,-0.343981 0.05292,-0.714426 0.05292,-1.111334 -4e-6,-0.396901 -0.01764,-0.767346 -0.05292,-1.111335 -0.02647,-0.352799 -0.08821,-0.657093 -0.185223,-0.912882 -0.0882,-0.255777 -0.216097,-0.458639 -0.383675,-0.608588 -0.167586,-0.149935 -0.392498,-0.224906 -0.674739,-0.224913 -0.282246,7e-6 -0.507159,0.07498 -0.674738,0.224913 -0.167585,0.149949 -0.299887,0.357221 -0.396905,0.621818 -0.0882,0.25579 -0.149945,0.555673 -0.185223,0.899652 -0.02646,0.343989 -0.03969,0.714434 -0.03969,1.111335 m -1.653772,0 c 0,-1.411213 0.260193,-2.474036 0.78058,-3.188472 0.520385,-0.723241 1.243634,-1.084866 2.169748,-1.084874 0.961389,8e-6 1.693457,0.361633 2.196209,1.084874 0.502741,0.714436 0.754114,1.777259 0.75412,3.188472 -6e-6,1.411221 -0.255789,2.478453 -0.76735,3.201701 -0.511572,0.71443 -1.23482,1.071644 -2.169748,1.071644 -0.961395,0 -1.697874,-0.357214 -2.209439,-1.071644 -0.502747,-0.723248 -0.75412,-1.79048 -0.75412,-3.201701"
       id="path36" />
    <path
       d="m 29.536303,48.074992 c -1.155437,0 -2.037448,-0.370445 -2.646034,-1.111334 -0.608589,-0.740888 -0.912882,-1.794891 -0.912882,-3.162011 0,-0.679145 0.09261,-1.283322 0.277834,-1.812534 0.185221,-0.529201 0.441004,-0.974616 0.76735,-1.336247 0.335162,-0.370438 0.727657,-0.648271 1.177485,-0.833501 0.458643,-0.194035 0.956979,-0.291056 1.49501,-0.291064 0.291059,8e-6 0.551252,0.02647 0.78058,0.07938 0.238138,0.04411 0.44541,0.09703 0.621818,0.158762 0.176396,0.06175 0.321928,0.1279 0.436595,0.198453 0.123476,0.07057 0.216087,0.123489 0.277834,0.158762 l -0.423365,1.296557 c -0.202869,-0.132296 -0.449832,-0.242547 -0.74089,-0.330755 -0.282248,-0.09701 -0.608592,-0.145525 -0.979033,-0.145532 -0.255787,7e-6 -0.50716,0.04852 -0.75412,0.145532 -0.238146,0.08821 -0.454238,0.24256 -0.648278,0.463056 -0.185225,0.211689 -0.339577,0.498343 -0.463056,0.859961 -0.114664,0.36163 -0.171994,0.811456 -0.171992,1.349478 -2e-6,0.934935 0.15876,1.653774 0.476286,2.156518 0.326341,0.493928 0.855548,0.740891 1.587621,0.74089 0.423361,1e-6 0.771755,-0.04851 1.045183,-0.145532 0.282238,-0.09702 0.507151,-0.194041 0.674739,-0.291064 l 0.410135,1.283327 c -0.229329,0.141122 -0.542442,0.273423 -0.939342,0.396905 -0.38809,0.114661 -0.837915,0.171992 -1.349478,0.171992"
       id="path38" />
  </g>
  <rect
     id="rect12"
     style="fill:#f9f9f9;fill-opacity:1"
     ry="0.60100001"
     height="7"
     rx="0.579"
     y="16"
     x="15"
     width="8" />
  <path
     style="fill:#f9f9f9;fill-opacity:1;stroke:#f9f9f9;stroke-linecap:round;stroke-linejoin:round;stroke-opacity:1;stroke-dashoffset:0.774"
     inkscape:connector-curvature="0"
     id="path16"
     d="m 25.5,16.5 6,0"
     sodipodi:nodetypes="cc" />
  <path
     style="fill:#f9f9f9;fill-opacity:1;stroke:#f9f9f9;stroke-linecap:round;stroke-linejoin:round;stroke-opacity:1;stroke-dashoffset:0.774"
     inkscape:connector-curvature="0"
     id="path22-8"
     d="m 15.5,25.5 16,0" />
  <path
     style="fill:#f9f9f9;fill-opacity:1;stroke:#f9f9f9;stroke-linecap:round;stroke-linejoin:round;stroke-opacity:1;stroke-dashoffset:0.774"
     inkscape:connector-curvature="0"
     id="path24-7"
     d="m 15.5,28.5 16,0" />
  <path
     style="fill:#f9f9f9;fill-opacity:1;stroke:#f9f9f9;stroke-linecap:round;stroke-linejoin:round;stroke-opacity:1;stroke-dashoffset:0.774"
     inkscape:connector-curvature="0"
     id="path26-4"
     d="m 15.5,31.5 16,0" />
  <path
     style="fill:#f9f9f9;fill-opacity:1;stroke:#f9f9f9;stroke-linecap:round;stroke-linejoin:round;stroke-opacity:1;stroke-dashoffset:0.774"
     inkscape:connector-curvature="0"
     id="path16-1"
     d="m 25.5,19.5 6,0"
     sodipodi:nodetypes="cc" />
  <path
     style="fill:#f9f9f9;fill-opacity:1;stroke:#f9f9f9;stroke-linecap:round;stroke-linejoin:round;stroke-opacity:1;stroke-dashoffset:0.774"
     inkscape:connector-curvature="0"
     id="path16-1-8"
     d="m 25.5,22.5 6,0"
     sodipodi:nodetypes="cc" />
</svg>
