<svg width="48" xmlns="http://www.w3.org/2000/svg" viewBox="0 0 48 48" height="48" xmlns:xlink="http://www.w3.org/1999/xlink">
<defs/>
<path style="fill:#dc322f" d="M 8,1 C 6.9714285,1 6,1.9714285 6,3 l 0,42 c 0,0.971429 1.0285714,2 2,2 l 32,0 c 0.971429,0 2,-1.028571 2,-2 L 42,14 29,1 z"/>
<path style="fill-opacity:.196" d="M 29,12 29.0625,12.0625 29.21875,12 29,12 z m 2,2 11,11 0,-11 -11,0 z"/>
<path style="fill:#fff;fill-opacity:.392" d="m 29,1 13,13 -11,0 c -0.971429,0 -2,-1.028571 -2,-2 L 29,1 z"/>
<path style="fill:#fff" d="M 15.4375,18.006944 C 15.015625,18.053796 15,18.256848 15,19.006558 l 0,2.998843 18,0 0,-2.998843 c 0,-0.999614 0,-0.999614 -1,-0.999614 l -16,0 c -0.25,0 -0.421875,-0.01562 -0.5625,0 z M 15,23.005015 15,35.000386 C 15,36 15,36 16,36 l 16,0 c 1,0 1,0 1,-0.999614 l 0,-11.995371 -18,0 z m 12.25,1.999229 c 0.654541,9e-6 1.229856,0.164492 1.71875,0.468569 0.492924,0.304093 0.862368,0.731838 1.125,1.311993 0.26262,0.576169 0.406243,1.261486 0.40625,2.061705 -7e-6,1.728489 -0.358403,3.021268 -1.09375,3.873505 -0.735358,0.85224 -1.852845,1.280756 -3.34375,1.280756 -0.525254,0 -0.916794,-0.0377 -1.1875,-0.09371 l 0,-1.468184 c 0.339393,0.08403 0.690781,0.124953 1.0625,0.124952 0.62626,10e-7 1.127206,-0.10109 1.53125,-0.281141 0.404036,-0.18405 0.723354,-0.455314 0.9375,-0.843425 0.214137,-0.392108 0.342672,-0.940177 0.375,-1.624373 l -0.09375,0 c -0.234348,0.37611 -0.505434,0.628909 -0.8125,0.780949 -0.307074,0.152046 -0.664397,0.249906 -1.125,0.249903 -0.771719,3e-6 -1.399307,-0.26157 -1.84375,-0.749711 -0.444445,-0.492138 -0.65625,-1.15822 -0.65625,-2.03047 0,-0.940257 0.275126,-1.704972 0.8125,-2.249132 0.541412,-0.548145 1.258205,-0.812177 2.1875,-0.812186 z m -6.90625,0.09371 1.5625,0 0,8.777863 -1.875,0 0,-5.060547 0,-0.843425 0.03125,-0.9059 c -0.311114,0.308093 -0.535041,0.4975 -0.65625,0.593521 l -1,0.812186 L 17.5,27.347089 20.34375,25.097957 z m 6.6875,1.405708 c -0.259092,0.04952 -0.492616,0.176805 -0.65625,0.374855 -0.218184,0.264081 -0.312502,0.659671 -0.3125,1.155804 -2e-6,0.424124 0.08327,0.75155 0.28125,0.999614 0.197977,0.248075 0.502207,0.37486 0.90625,0.374856 0.379794,4e-6 0.698039,-0.130783 0.96875,-0.374856 0.270702,-0.248064 0.406245,-0.523329 0.40625,-0.843424 -5e-6,-0.476127 -0.120459,-0.890182 -0.375,-1.21828 -0.250509,-0.328085 -0.576835,-0.468562 -0.96875,-0.468569 -0.09697,2e-6 -0.163636,-0.0165 -0.25,0 z"/>
</svg>
