<svg width="48" xmlns="http://www.w3.org/2000/svg" viewBox="0 0 48 48" height="48">
<path style="fill:#7099c4" d="M 8,1 C 6.9714285,1 6,1.9714285 6,3 l 0,42 c 0,0.971429 1.0285714,2 2,2 l 32,0 c 0.971429,0 2,-1.028571 2,-2 L 42,14 29,1 z"/>
<path style="fill-opacity:.196" d="M 29,12 29.0625,12.0625 29.21875,12 29,12 z m 2,2 11,11 0,-11 -11,0 z"/>
<path style="fill:#fff;fill-opacity:.392" d="m 29,1 13,13 -11,0 c -0.971429,0 -2,-1.028571 -2,-2 L 29,1 z"/>
<g style="fill:#fff;line-height:normal;color:#000" transform="matrix(.81817 0 0 .81817 4.36383 7.36392)">
<path d="m 15,19 0,2 18,0 0,-2 z"/>
<path d="m 14,23 0,2 20,0 0,-2 z"/>
<path d="m 15,27 0,2 18,0 0,-2 z"/>
<path d="m 23,14 0,20 2,0 0,-20 z"/>
</g>
<g style="stroke:#fff;fill:none">
<g style="stroke-width:2" transform="matrix(.81817 0 0 .81817 4.36383 7.36392)">
<path d="m 20.44194,33 c -2,-6 -2,-12 0,-18"/>
<path d="m 27.469672,33 c 2,-5 2,-12 0,-18"/>
</g>
<g transform="matrix(.81817 0 0 .81817 4.36383 7.36392)">
<path style="stroke-linecap:round;stroke-width:1.821" d="m 33.05724,27.317127 c 0,5.028 -4.075999,9.103999 -9.103999,9.103999 -5.028,0 -9.103999,-4.075999 -9.103999,-9.103999 0,-5.028 4.075999,-9.103999 9.103999,-9.103999 5.028,0 9.103999,4.075999 9.103999,9.103999 z" transform="matrix(1.09842 0 0 1.09842 -2.31068 -6.00564)"/>
</g>
</g>
</svg>
