<svg width="32" xmlns="http://www.w3.org/2000/svg" height="32" viewBox="0 0 32 32" xmlns:xlink="http://www.w3.org/1999/xlink">
<defs>
<clipPath id="clip1">
<path d="M 4.167969 4.167969 L 27.5 4.167969 L 27.5 27.5 L 4.167969 27.5 Z "/>
</clipPath>
<clipPath id="clip2">
<path d="M 15.832031 27.011719 C 22.042969 27.011719 27.082031 21.953125 27.082031 15.75 C 27.082031 9.582031 22.042969 4.523438 15.832031 4.523438 C 9.667969 4.523438 4.585938 9.582031 4.585938 15.75 C 4.585938 21.953125 9.667969 27.011719 15.832031 27.011719 Z "/>
</clipPath>
</defs>
<path style="fill:#78b2a3" d="M 15.832031 3.464844 C 12.550781 3.464844 9.449219 4.753906 7.105469 7.097656 C 4.757812 9.4375 3.464844 12.53125 3.464844 15.8125 C 3.464844 22.644531 9.011719 28.199219 15.832031 28.199219 C 22.652344 28.199219 28.203125 22.644531 28.203125 15.8125 C 28.203125 9.007812 22.652344 3.464844 15.832031 3.464844 Z M 15.832031 3.972656 C 22.371094 3.972656 27.691406 9.285156 27.691406 15.8125 C 27.691406 22.363281 22.371094 27.691406 15.832031 27.691406 C 9.292969 27.691406 3.972656 22.363281 3.972656 15.8125 C 3.972656 12.667969 5.214844 9.703125 7.464844 7.457031 C 9.714844 5.214844 12.683594 3.972656 15.832031 3.972656 Z "/>
<g style="clip-rule:nonzero;clip-path:url(#clip1)">
<g style="clip-path:url(#clip2)">
<path style="fill:#78b2a3" d="M 12.019531 5.558594 C 11.964844 5.558594 11.902344 5.578125 11.839844 5.613281 C 11.984375 5.570312 12.058594 5.558594 12.019531 5.558594 M 15.714844 6.277344 L 15.753906 5.734375 L 15.183594 5.769531 L 15.257812 6.277344 L 15.714844 6.277344 M 9.277344 15.617188 C 9.164062 15.511719 9.238281 15.042969 9.238281 15.042969 C 9.238281 15.042969 7.527344 14.140625 5.65625 13.597656 C 5.429688 13.53125 5.546875 13.058594 5.769531 12.878906 L 5.695312 12.371094 C 5.65625 12.121094 6.078125 10.890625 6.496094 10.785156 C 6.917969 10.675781 6.457031 11.507812 6.457031 11.507812 L 6.042969 11.757812 C 6.042969 11.757812 6.535156 12.335938 6.652344 12.335938 C 6.765625 12.335938 6.957031 12.046875 6.957031 12.046875 L 6.421875 11.6875 L 6.917969 11.472656 L 6.949219 11.277344 L 7.03125 11.253906 L 7.851562 10.011719 C 8.417969 9.777344 9.113281 9.492188 9.203125 9.449219 C 9.355469 9.378906 10.421875 8.765625 10.613281 8.621094 C 10.804688 8.476562 11.222656 8.515625 11.375 8.515625 C 11.527344 8.515625 11.753906 8.441406 11.792969 8.042969 C 11.828125 7.644531 11.980469 7.574219 12.097656 7.683594 C 12.214844 7.789062 11.980469 7.972656 12.25 8.042969 C 12.515625 8.113281 12.746094 8.296875 12.9375 8.113281 C 13.074219 7.984375 12.886719 7.835938 12.761719 7.722656 L 14.878906 7.722656 L 15.105469 7.070312 L 14.613281 7 L 12.785156 6.816406 L 12.785156 6.601562 L 12.636719 6.628906 C 12.835938 5.535156 14.011719 5.71875 13.125 5.089844 C 13.074219 5.050781 12.296875 6.308594 12.097656 6.28125 C 11.746094 6.238281 11.28125 6.234375 11.183594 6.347656 C 11.054688 6.503906 11.472656 5.820312 11.839844 5.613281 C 11.40625 5.742188 10.628906 5.347656 9.230469 6.339844 C 8.753906 6.671875 7.566406 8.03125 7.074219 8.550781 C 5.007812 10.992188 4.839844 13.078125 4.839844 13.171875 C 4.839844 13.351562 5.28125 13.453125 5.316406 13.671875 C 5.355469 13.886719 4.59375 14.609375 4.59375 14.96875 C 4.59375 15.132812 4.210938 16.933594 5.050781 19.1875 C 5.792969 21.324219 7.230469 23.210938 7.414062 23.328125 L 7.941406 23.046875 C 7.941406 23.046875 7.066406 21.496094 7.03125 21.351562 C 6.992188 21.207031 8.019531 19.113281 8.515625 19.191406 C 9.011719 19.257812 8.894531 19.402344 9.203125 19.226562 C 9.503906 19.046875 9.699219 17.566406 10.039062 17.421875 C 10.382812 17.277344 10.761719 17.097656 10.726562 16.734375 C 10.6875 16.375 9.390625 15.726562 9.277344 15.617188 M 17.546875 5.015625 L 16.515625 4.65625 L 16.707031 5.230469 L 17.546875 5.015625 M 13.699219 6.347656 C 13.8125 6.347656 16.097656 4.832031 15.871094 4.796875 C 15.640625 4.761719 15.601562 4.796875 14.988281 4.726562 C 14.382812 4.65625 13.734375 5.59375 13.582031 5.734375 C 13.429688 5.882812 13.480469 6.347656 13.699219 6.347656 M 24.183594 17.222656 L 24.480469 16.84375 L 24.183594 16.738281 L 23.964844 17.015625 L 23.703125 17.394531 L 23.925781 17.5 L 24.183594 17.222656 M 25.476562 18.476562 L 25.402344 17.917969 L 24.921875 17.917969 L 24.886719 18.335938 L 24.441406 18.269531 L 24.332031 17.816406 L 24.113281 17.675781 L 23.851562 17.988281 L 23.59375 17.917969 L 23.519531 18.160156 L 23.816406 18.230469 L 23.816406 20.492188 L 24.859375 20.742188 C 24.832031 20.785156 24.816406 20.820312 24.8125 20.835938 C 24.738281 21.082031 25.105469 21.1875 25.363281 21.082031 C 25.457031 21.042969 26.0625 20.808594 26.25 20.359375 C 26.515625 19.726562 26.691406 18.816406 26.734375 18.523438 L 26.617188 18.269531 L 25.878906 18.542969 L 25.472656 18.476562 L 25.476562 18.476562 M 25.105469 9.226562 C 23.417969 6.667969 19.363281 4.996094 19.363281 4.996094 L 18.324219 5.542969 L 18.175781 5.300781 L 17.804688 5.164062 L 17.804688 5.476562 L 18.136719 5.753906 L 17.917969 5.859375 L 17.070312 5.925781 L 15.152344 6.96875 L 15.335938 7.804688 L 15.113281 7.875 L 15.007812 8.046875 L 15.632812 8.984375 L 15.667969 9.300781 L 15.152344 9.402344 L 15.152344 10.027344 L 14.855469 10.097656 L 14.894531 10.585938 L 12.386719 12.324219 L 12.460938 13.292969 C 12.644531 13.539062 14.082031 15 14.082031 15 C 14.082031 15 15.742188 15.066406 16.109375 14.859375 C 16.480469 14.652344 16.222656 15.066406 16.332031 15.171875 C 16.441406 15.277344 16.480469 16.003906 16.589844 16.078125 C 16.703125 16.144531 16.589844 16.5625 16.738281 16.703125 C 16.886719 16.84375 16.886719 18.507812 16.886719 18.507812 C 16.886719 18.507812 17.769531 20.003906 17.769531 20.386719 C 17.769531 20.769531 17.730469 20.730469 18.433594 20.699219 C 19.132812 20.664062 19.28125 20.386719 19.429688 20.285156 C 19.578125 20.179688 19.578125 19.933594 19.722656 19.726562 C 19.871094 19.519531 20.128906 18.722656 20.460938 18.441406 C 20.792969 18.160156 21.679688 17.953125 21.75 17.46875 C 21.824219 16.980469 22.160156 16.597656 22.160156 16.597656 L 23.75 14.910156 L 23.707031 15.140625 L 23.667969 16.007812 L 24.152344 15.832031 L 24.113281 14.894531 L 23.941406 14.714844 L 23.964844 14.6875 C 23.964844 14.6875 23.855469 14.480469 23.707031 14.480469 C 23.5625 14.480469 22.675781 14.6875 22.527344 14.652344 C 22.378906 14.617188 21.753906 12.949219 21.644531 12.878906 C 21.53125 12.808594 20.832031 11.664062 20.832031 11.664062 C 20.832031 11.664062 22.453125 13.609375 22.710938 14.375 C 22.863281 14.816406 23.425781 14.402344 23.882812 13.9375 L 24.003906 14.234375 L 24.296875 14.167969 L 24.261719 13.816406 L 24.59375 13.816406 L 24.59375 14.339844 L 24.480469 14.621094 L 24.441406 15.066406 L 24.738281 15.347656 L 24.886719 15.105469 L 25.363281 14.652344 L 25.917969 14.375 L 26.066406 14.652344 L 26.140625 15.035156 L 25.992188 15.453125 L 25.695312 15.695312 L 25.550781 16.320312 L 25.550781 16.632812 L 25.21875 16.425781 L 25.183594 15.765625 L 24.699219 15.800781 L 24.480469 16.390625 L 24.816406 16.878906 L 25.585938 16.980469 L 26.214844 16.390625 L 26.285156 15.246094 L 26.566406 14.875 C 26.746094 15.34375 26.878906 15.832031 26.878906 16.289062 C 26.878906 16.785156 27.273438 16.035156 27.082031 14.515625 C 27.082031 14.511719 26.773438 10.898438 25.105469 9.226562 Z M 17.730469 10.722656 L 15.742188 10.652344 L 16.589844 9.957031 L 17.03125 9.957031 L 17.730469 10.445312 L 17.730469 10.722656 M 20.167969 10.480469 L 20.167969 10.792969 L 19.320312 10.792969 L 19.390625 11.003906 L 18.878906 11.070312 L 18.839844 11.242188 L 18.46875 11.175781 L 17.804688 11.039062 L 17.917969 10.863281 L 18.027344 10.652344 L 18.398438 10.269531 L 18.542969 10.550781 L 19.097656 10.515625 L 19.390625 10.203125 L 20.535156 10.410156 L 20.167969 10.480469 M 20.238281 10.027344 L 19.796875 10.097656 L 19.722656 9.785156 L 20.277344 9.714844 L 20.351562 9.402344 L 20.753906 9.820312 L 20.238281 10.027344 M 22.378906 20.835938 L 22.121094 21.046875 L 22.15625 21.570312 L 22.488281 21.570312 L 22.488281 21.117188 L 22.785156 20.730469 L 22.785156 19.933594 L 22.597656 19.898438 L 22.378906 20.835938 M 19.910156 19.792969 C 19.910156 19.792969 19.648438 19.863281 19.945312 19.972656 C 20.238281 20.074219 21.417969 18.269531 21.417969 18.269531 L 20.421875 18.894531 L 19.910156 19.792969 M 17.902344 26.457031 L 17.679688 26.246094 L 17.238281 26.179688 L 17.164062 26.390625 L 16.574219 26.316406 L 16.535156 26.039062 L 16.09375 26.039062 L 15.613281 26.316406 L 14.769531 26.316406 L 14.695312 26.109375 L 13.332031 25.964844 L 13.113281 26.179688 L 12.558594 26.039062 L 12.484375 25.550781 L 12.226562 25.511719 L 11.929688 26.039062 L 10.9375 26.003906 C 11.117188 26.085938 12.601562 26.972656 14.878906 27.160156 C 17.902344 27.402344 19.339844 26.667969 19.339844 26.667969 L 19.230469 26.5625 Z "/>
</g>
</g>
</svg>
