<svg width="32" xmlns="http://www.w3.org/2000/svg" height="32" viewBox="0 0 32 32" xmlns:xlink="http://www.w3.org/1999/xlink">
<g style="fill:#52c8ff">
<path d="M 4.949219 10.417969 L 4.972656 11.964844 L 26.777344 11.964844 L 26.753906 10.417969 Z "/>
<path d="M 4.042969 15.058594 L 4.042969 16.605469 L 27.625 16.605469 L 27.625 15.058594 Z "/>
<path d="M 5.011719 19.699219 L 5.011719 21.242188 L 26.65625 21.242188 L 26.65625 19.699219 Z "/>
<path d="M 15.058594 4.050781 L 15.058594 27.644531 L 16.609375 27.644531 L 16.609375 4.050781 Z "/>
</g>
<g style="fill:none;stroke:#52c8ff">
<g style="stroke-width:12.5">
<path d="M 89.777435 7.747238 C 66.883084 -44.767667 68.619897 -110.640242 89.777435 -168.049801 " transform="matrix(.1237 0 0 .1237 0 25.72917)"/>
<path d="M 166.228779 7.747238 C 189.091552 -44.767667 187.354739 -110.640242 166.228779 -168.049801 " transform="matrix(.1237 0 0 .1237 0 25.72917)"/>
</g>
<path style="stroke-linecap:round;stroke-width:1.214" d="M 33.056998 27.316119 C 33.056998 32.345363 28.981471 36.42089 23.952228 36.42089 C 18.922985 36.42089 14.847458 32.345363 14.847458 27.316119 C 14.847458 22.286876 18.922985 18.211349 23.952228 18.211349 C 28.981471 18.211349 33.056998 22.286876 33.056998 27.316119 Z " transform="matrix(1.2738 0 0 1.2738 -14.67832 -18.96324)"/>
</g>
</svg>
