<svg width="32" xmlns="http://www.w3.org/2000/svg" height="32" viewBox="0 0 32 32" xmlns:xlink="http://www.w3.org/1999/xlink">
<g style="stroke:#549ca4;stroke-width:4.545;fill:#549ca4">
<path d="M 69.15673 106.22979 C 70.798808 113.777031 71.714582 119.461146 70.35671 127.039966 C 60.093725 135.408246 33.757326 139.166077 33.820483 147.818563 L 30.252122 173.776021 C 30.252122 182.396928 54.820129 189.375758 85.072251 189.375758 C 115.355952 189.375758 139.860802 182.396928 139.860802 173.776021 L 136.355598 147.818563 C 136.292441 140.397635 109.829729 135.692451 99.661479 127.039966 C 98.777284 120.029557 99.472009 113.240198 100.987773 106.22979 Z " transform="scale(.1237)"/>
<path d="M 84.819624 57.567451 C 72.251415 57.567451 62.083165 67.35676 62.083165 79.388137 C 62.1779 83.872272 62.556841 89.177445 65.146271 101.271979 C 66.630457 105.945584 80.146019 119.366411 80.272332 120.913753 C 83.209125 122.461095 87.851152 122.461095 90.88268 120.913753 C 90.88268 119.366411 103.008791 105.945584 104.524555 101.271979 C 107.398191 88.703769 107.398191 84.093321 107.556083 79.388137 C 107.556083 67.35676 97.356255 57.567451 84.819624 57.567451 Z " transform="scale(.1237)"/>
<g style="stroke-linejoin:round">
<path d="M 132.72408 71.177749 C 125.082104 66.630457 112.640208 34.957306 114.566492 48.441289 L 119.113783 80.272332 Z " transform="scale(.1237)"/>
<path d="M 178.007528 71.177749 C 185.681083 66.630457 198.091401 34.957306 196.196696 48.441289 L 191.617825 80.272332 Z " transform="scale(.1237)"/>
</g>
<path d="M 134.808256 107.556083 C 136.92401 117.440127 138.092411 124.924212 136.355598 134.808256 C 123.155821 145.797544 89.303759 150.723777 89.366916 162.092007 L 84.819624 196.196696 C 84.819624 207.47019 116.366461 216.62793 155.271069 216.62793 C 194.175677 216.62793 225.722514 207.47019 225.722514 196.196696 L 221.175222 162.092007 C 221.143644 152.365855 187.070534 146.176485 174.028648 134.808256 C 172.891825 125.618937 173.776021 116.745402 175.733882 107.556083 Z " transform="scale(.1237)"/>
<path d="M 155.271069 39.378284 C 136.450333 39.378284 121.197959 53.62015 121.197959 71.177749 C 121.355851 77.682902 121.892684 85.419614 125.745251 103.008791 C 127.987318 109.829729 148.260661 127.987318 148.450131 130.260964 C 152.87111 132.566188 159.818361 132.566188 164.365653 130.260964 C 164.365653 127.987318 182.55482 109.829729 184.828466 103.008791 C 189.123131 84.724889 189.123131 77.998686 189.375758 71.177749 C 189.375758 53.62015 174.091805 39.378284 155.271069 39.378284 Z " transform="scale(.1237)"/>
</g>
</svg>
