<svg width="32" xmlns="http://www.w3.org/2000/svg" height="32" viewBox="0 0 32 32" xmlns:xlink="http://www.w3.org/1999/xlink">
<g style="fill:#de165d">
<path d="M 16 10.984375 C 16 14.660156 13.015625 17.640625 9.332031 17.640625 C 5.652344 17.640625 2.667969 14.660156 2.667969 10.984375 C 2.667969 7.3125 5.652344 4.332031 9.332031 4.332031 C 13.015625 4.332031 16 7.3125 16 10.984375 Z "/>
<path d="M 29.332031 10.984375 C 29.332031 14.660156 26.347656 17.640625 22.667969 17.640625 C 18.984375 17.640625 16 14.660156 16 10.984375 C 16 7.3125 18.984375 4.332031 22.667969 4.332031 C 26.347656 4.332031 29.332031 7.3125 29.332031 10.984375 Z "/>
<path d="M 3.925781 14.769531 L 16.210938 11.207031 L 27.625 15.425781 L 15.914062 27.664062 Z "/>
</g>
</svg>
