<svg width="32" xmlns="http://www.w3.org/2000/svg" height="32" viewBox="0 0 32 32" xmlns:xlink="http://www.w3.org/1999/xlink">
<g style="stroke:#ff4545">
<path style="fill:none;stroke-width:8" d="M 65.114693 39.125657 L 198.154557 39.125657 C 210.722767 39.125657 220.859438 49.293907 220.859438 61.830538 L 220.859438 194.144099 C 220.859438 206.68073 210.722767 216.880558 198.154557 216.880558 L 65.114693 216.880558 C 52.578062 216.880558 42.409812 206.68073 42.409812 194.144099 L 42.409812 61.830538 C 42.409812 49.293907 52.578062 39.125657 65.114693 39.125657 Z " transform="scale(.1237)"/>
<g style="stroke-linecap:round;stroke-dasharray:0,159;fill:#000">
<path style="stroke-width:119" d="M 436.943106 117.025172 L 0.0206084 117.025172 M 436.943106 439.980926 L 0.0206084 439.980926 " transform="matrix(.04013 0 0 .03997 5.10464 4.70083)"/>
<path style="stroke-width:109" d="M 436.943106 117.025172 L 0.0206084 117.025172 M 436.943106 439.980926 L 0.0206084 439.980926 " transform="matrix(.04013 0 0 .03997 5.10464 4.70083)"/>
</g>
</g>
</svg>
