<svg width="32" xmlns="http://www.w3.org/2000/svg" height="32" viewBox="0 0 32 32" xmlns:xlink="http://www.w3.org/1999/xlink">
<path style="fill:#61c66b;fill-rule:evenodd;stroke:#61c66b;stroke-linejoin:round;stroke-width:12.5" d="M 234.919403 36.60996 C 219.75582 37.184901 202.69679 42.244389 193.621615 53.168282 C 180.35348 81.340427 212.518656 68.346744 216.309552 87.894763 C 220.100447 107.385288 197.412511 108.477677 197.412511 108.477677 L 99.653351 108.477677 C 99.653351 108.477677 99.768227 205.412854 99.768227 205.412854 C 99.768227 205.412854 100.859545 228.123053 120.330964 224.328437 C 136.241239 221.281246 130.554895 199.43346 143.018901 198.456059 C 145.890792 198.283577 149.739125 199.145989 155.023404 201.618239 C 165.936589 210.702318 170.991116 227.778088 171.565494 242.95655 C 171.795246 248.590979 171.278305 253.822949 170.3593 258.479977 C 170.301863 258.709953 170.301863 258.882436 170.244425 259.112413 C 168.578728 272.221084 163.5242 285.502238 154.276712 293.206458 C 126.074746 306.430118 139.11313 274.290875 119.584273 270.496259 C 105.397133 267.736539 100.974421 279.005397 99.653351 285.329756 L 99.653351 388.244327 C 99.653351 388.244327 197.6997 387.439409 197.6997 387.439409 C 197.6997 387.439409 220.387636 386.34702 216.654178 366.799 C 212.863283 347.308475 180.755545 360.359653 193.966242 332.130013 C 203.041416 321.263615 220.100447 316.146633 235.321468 315.629186 C 240.892936 315.341715 246.177215 315.916656 250.77224 316.836563 C 251.001991 316.836563 251.174305 316.894057 251.404056 316.951552 C 264.499877 318.618883 277.882888 323.67837 285.522117 332.877438 C 298.790252 361.049583 266.625077 348.113394 262.834181 367.603919 C 259.043285 387.094444 281.731222 388.186833 281.731222 388.186833 L 378.973441 388.186833 L 378.973441 286.134674 C 380.351948 279.752821 384.717222 268.656445 398.846924 271.416166 C 418.375781 275.153287 405.394835 307.29253 433.539364 294.06887 C 442.729414 286.422145 447.84138 273.083497 449.564514 259.974825 C 449.564514 259.802343 449.621952 259.572366 449.621952 259.342389 C 450.598395 254.742855 451.115335 249.510886 450.885584 243.876457 C 450.311206 228.697995 445.19924 211.622225 434.343493 202.538145 C 406.141527 189.314485 419.179911 221.453729 399.651054 225.248344 C 380.122197 228.985465 379.030879 206.332761 379.030879 206.332761 L 378.973441 108.477677 L 276.79157 108.477677 C 270.415972 106.982828 259.789977 102.498283 262.489554 88.642187 C 266.28045 69.094168 298.388188 82.145345 285.177491 53.9732 C 277.480823 44.774132 264.155251 39.657151 251.059429 37.98982 C 250.887116 37.932326 250.599926 37.874831 250.427613 37.874831 C 245.832588 36.89743 240.548309 36.437477 234.919403 36.60996 Z " transform="matrix(.06801 0 0 .06794 -2.88663 1.40328)"/>
</svg>
