<svg width="32" xmlns="http://www.w3.org/2000/svg" height="32" viewBox="0 0 32 32" xmlns:xlink="http://www.w3.org/1999/xlink">
<path style="fill:none;stroke:#92c8dd;stroke-linecap:round;stroke-width:8.073" d="M 34.388895 32.020513 L 221.61732 32.020513 C 222.912035 32.020513 223.985701 33.094179 223.985701 34.388895 L 223.985701 221.61732 C 223.985701 222.912035 222.912035 223.985701 221.61732 223.985701 L 34.388895 223.985701 C 33.094179 223.985701 32.020513 222.912035 32.020513 221.61732 L 32.020513 34.388895 C 32.020513 33.094179 33.094179 32.020513 34.388895 32.020513 Z " transform="scale(.1237)"/>
<g style="fill:#92c8dd">
<path d="M 12.925781 8.0625 C 12.488281 9.167969 12.050781 10.277344 11.613281 11.386719 L 14.242188 11.386719 Z M 12.378906 7.175781 L 13.476562 7.175781 C 14.386719 9.398438 15.292969 11.625 16.199219 13.847656 L 15.195312 13.847656 C 14.980469 13.277344 14.761719 12.707031 14.542969 12.136719 L 11.320312 12.136719 C 11.105469 12.707031 10.886719 13.277344 10.671875 13.847656 L 9.648438 13.847656 C 10.558594 11.625 11.46875 9.398438 12.378906 7.175781 Z M 19.640625 11.332031 C 19.078125 11.355469 18.425781 11.316406 17.980469 11.691406 C 17.527344 12.179688 17.75 13.109375 18.476562 13.242188 C 19.183594 13.425781 20.011719 13.113281 20.304688 12.472656 C 20.472656 12.136719 20.578125 11.652344 20.492188 11.332031 Z M 21.398438 10.992188 L 21.398438 13.847656 L 20.519531 13.847656 L 20.519531 13.089844 C 20.152344 13.699219 19.394531 14.007812 18.664062 13.976562 C 17.886719 14.019531 17.058594 13.5625 16.914062 12.816406 C 16.730469 12.097656 17.023438 11.214844 17.8125 10.925781 C 18.664062 10.582031 19.613281 10.714844 20.519531 10.6875 C 20.578125 10.152344 20.203125 9.621094 19.636719 9.496094 C 18.839844 9.308594 17.976562 9.46875 17.257812 9.832031 C 17.257812 9.578125 17.257812 9.324219 17.257812 9.070312 C 18.253906 8.722656 19.425781 8.53125 20.40625 8.988281 C 21.1875 9.363281 21.410156 10.238281 21.398438 10.992188 Z "/>
<g style="fill-opacity:.6">
<path d="M 9.648438 15.214844 L 11.203125 15.214844 L 11.203125 15.832031 L 9.648438 15.832031 Z "/>
<path d="M 11.417969 15.214844 L 12.886719 15.214844 L 12.886719 15.832031 L 11.417969 15.832031 Z "/>
<path d="M 13.097656 15.214844 L 14.394531 15.214844 L 14.394531 15.832031 L 13.097656 15.832031 Z "/>
<path d="M 14.605469 15.214844 L 15.171875 15.214844 L 15.171875 15.832031 L 14.605469 15.832031 Z "/>
<path d="M 15.382812 15.214844 L 16.65625 15.214844 L 16.65625 15.832031 L 15.382812 15.832031 Z "/>
<path d="M 16.867188 15.214844 L 20.164062 15.214844 L 20.164062 15.832031 L 16.867188 15.832031 Z "/>
<path d="M 9.648438 18.925781 L 11.203125 18.925781 L 11.203125 19.542969 L 9.648438 19.542969 Z "/>
<path d="M 11.417969 18.925781 L 12.886719 18.925781 L 12.886719 19.542969 L 11.417969 19.542969 Z "/>
<path d="M 13.097656 18.925781 L 14.394531 18.925781 L 14.394531 19.542969 L 13.097656 19.542969 Z "/>
<path d="M 14.605469 18.925781 L 15.171875 18.925781 L 15.171875 19.542969 L 14.605469 19.542969 Z "/>
<path d="M 15.382812 18.925781 L 16.65625 18.925781 L 16.65625 19.542969 L 15.382812 19.542969 Z "/>
<path d="M 16.867188 18.925781 L 20.164062 18.925781 L 20.164062 19.542969 L 16.867188 19.542969 Z "/>
<path d="M 9.648438 16.453125 L 11.996094 16.453125 L 11.996094 17.070312 L 9.648438 17.070312 Z "/>
<path d="M 12.210938 16.453125 L 13.339844 16.453125 L 13.339844 17.070312 L 12.210938 17.070312 Z "/>
<path d="M 13.554688 16.453125 L 14.085938 16.453125 L 14.085938 17.070312 L 13.554688 17.070312 Z "/>
<path d="M 14.296875 16.453125 L 15.320312 16.453125 L 15.320312 17.070312 L 14.296875 17.070312 Z "/>
<path d="M 15.535156 16.453125 L 16.554688 16.453125 L 16.554688 17.070312 L 15.535156 17.070312 Z "/>
<path d="M 16.769531 16.453125 L 18.410156 16.453125 L 18.410156 17.070312 L 16.769531 17.070312 Z "/>
<path d="M 18.625 16.453125 L 20.78125 16.453125 L 20.78125 17.070312 L 18.625 17.070312 Z "/>
<path d="M 9.648438 17.6875 L 12.390625 17.6875 L 12.390625 18.308594 L 9.648438 18.308594 Z "/>
<path d="M 12.605469 17.6875 L 15.542969 17.6875 L 15.542969 18.308594 L 12.605469 18.308594 Z "/>
<path d="M 15.757812 17.6875 L 16.929688 17.6875 L 16.929688 18.308594 L 15.757812 18.308594 Z "/>
<path d="M 17.148438 17.6875 L 19.910156 17.6875 L 19.910156 18.308594 L 17.148438 18.308594 Z "/>
<path d="M 20.128906 17.6875 L 22.019531 17.6875 L 22.019531 18.308594 L 20.128906 18.308594 Z "/>
<path d="M 9.648438 22.636719 L 12.390625 22.636719 L 12.390625 23.253906 L 9.648438 23.253906 Z "/>
<path d="M 12.605469 22.636719 L 15.542969 22.636719 L 15.542969 23.253906 L 12.605469 23.253906 Z "/>
<path d="M 15.757812 22.636719 L 16.929688 22.636719 L 16.929688 23.253906 L 15.757812 23.253906 Z "/>
<path d="M 17.148438 22.636719 L 19.910156 22.636719 L 19.910156 23.253906 L 17.148438 23.253906 Z "/>
<path d="M 20.128906 22.636719 L 22.019531 22.636719 L 22.019531 23.253906 L 20.128906 23.253906 Z "/>
<path d="M 9.648438 20.164062 L 11.582031 20.164062 L 11.582031 20.78125 L 9.648438 20.78125 Z "/>
<path d="M 11.785156 20.164062 L 14.996094 20.164062 L 14.996094 20.78125 L 11.785156 20.78125 Z "/>
<path d="M 15.203125 20.164062 L 16.75 20.164062 L 16.75 20.78125 L 15.203125 20.78125 Z "/>
<path d="M 18.605469 20.164062 L 19.835938 20.164062 L 19.835938 20.78125 L 18.605469 20.78125 Z "/>
<path d="M 20.042969 20.164062 L 22.019531 20.164062 L 22.019531 20.78125 L 20.042969 20.78125 Z "/>
<path d="M 16.957031 20.164062 L 18.402344 20.164062 L 18.402344 20.78125 L 16.957031 20.78125 Z "/>
<path d="M 9.648438 21.398438 L 12.199219 21.398438 L 12.199219 22.019531 L 9.648438 22.019531 Z "/>
<path d="M 12.410156 21.398438 L 13.210938 21.398438 L 13.210938 22.019531 L 12.410156 22.019531 Z "/>
<path d="M 13.421875 21.398438 L 15.253906 21.398438 L 15.253906 22.019531 L 13.421875 22.019531 Z "/>
<path d="M 15.460938 21.398438 L 16.710938 21.398438 L 16.710938 22.019531 L 15.460938 22.019531 Z "/>
<path d="M 16.925781 21.398438 L 18.175781 21.398438 L 18.175781 22.019531 L 16.925781 22.019531 Z "/>
<path d="M 18.386719 21.398438 L 20.195312 21.398438 L 20.195312 22.019531 L 18.386719 22.019531 Z "/>
<path d="M 20.402344 21.398438 L 20.78125 21.398438 L 20.78125 22.019531 L 20.402344 22.019531 Z "/>
<path d="M 9.648438 23.875 L 10.65625 23.875 L 10.65625 24.492188 L 9.648438 24.492188 Z "/>
<path d="M 10.921875 23.875 L 14.597656 23.875 L 14.597656 24.492188 L 10.921875 24.492188 Z "/>
</g>
</g>
</svg>
