<svg width="32" xmlns="http://www.w3.org/2000/svg" height="32" viewBox="0 0 32 32" xmlns:xlink="http://www.w3.org/1999/xlink">
<path style="fill:#9c9c37;stroke:#9c9c37;stroke-width:1.449" d="M 337.38375 491.207865 C 276.502385 487.035288 223.01441 438.844322 207.908164 380.42825 C 193.988511 319.948816 221.645263 251.812017 275.589621 220.173799 C 310.274657 199.402622 353.859142 196.78903 392.240872 207.610217 C 439.658967 222.237161 475.804425 264.650714 488.491846 311.924631 C 499.901397 355.530348 491.68652 405.005184 461.382752 439.348699 C 433.954191 473.646361 390.141515 493.408784 346.328838 491.620537 C 343.362355 491.574685 340.350234 491.437127 337.38375 491.207865 Z M 373.666123 484.375844 C 384.619292 483.412941 382.656849 480.06571 372.753359 479.194512 C 355.000097 475.755576 335.832051 475.663871 318.672086 481.716399 C 333.778332 489.006945 353.813504 487.081141 370.69964 484.926074 Z M 319.85868 474.700968 C 327.662813 466.722635 319.539212 447.648 312.73912 440.082339 C 297.495959 432.241563 285.675664 419.540424 271.710374 409.911401 C 261.213587 406.059792 250.990629 413.350337 240.904586 415.826372 C 240.858948 425.868067 240.174374 437.239484 248.982548 444.254915 C 263.495497 458.606745 281.066206 471.262032 300.827548 476.993593 C 307.171259 477.268708 313.834437 476.901888 319.85868 474.700968 Z M 403.376594 475.113641 C 428.66016 464.200748 452.346388 446.639245 466.585508 422.704245 C 471.742625 415.826372 475.484958 403.767167 462.112964 407.756334 C 445.272466 418.394111 430.074944 431.507923 412.823703 441.595471 C 402.372554 449.894772 394.84225 461.312041 387.403223 472.270786 C 389.958962 478.277463 398.40203 476.856035 403.376594 475.113641 Z M 420.490921 431.186956 C 433.22398 420.732588 451.570538 413.992272 458.279354 398.127311 C 461.291476 385.655434 461.519667 372.725032 462.751899 360.023892 C 450.110116 348.74418 434.593126 341.086814 419.349966 333.887973 C 404.334997 335.034285 392.195234 348.469065 380.329301 357.135185 C 373.98559 360.619975 375.628566 368.506603 373.894314 374.559131 C 371.612404 388.681698 368.91975 402.758412 367.368051 417.018537 C 379.188346 425.776362 392.423425 433.800548 406.79946 437.239484 C 412.002215 437.239484 416.292206 433.754695 420.490921 431.186956 Z M 329.899085 433.342023 C 341.399912 428.986036 356.597435 425.638805 362.028381 413.442042 C 366.044543 396.293211 368.235177 378.77756 370.380172 361.307762 C 358.924983 350.394869 346.739582 338.885895 331.724613 333.200186 C 318.809001 332.970923 307.855832 342.141421 296.355004 347.185195 C 280.883653 351.403624 275.498345 365.526191 274.85941 380.107283 C 270.29559 394.550817 275.498345 409.361171 288.550871 417.339504 C 299.960423 425.73051 314.610286 439.165289 329.899085 433.342023 Z M 233.602473 413.166928 C 224.246641 395.834686 217.857292 376.897608 215.255915 357.364448 C 205.991359 359.2444 214.434427 381.987235 216.944528 391.203585 C 221.280158 403.767167 227.943336 415.276142 234.880343 426.510002 C 236.112574 421.878901 236.888424 417.339504 233.602473 413.166928 Z M 229.586311 336.088893 C 233.648111 330.219774 240.128736 325.634525 242.593199 318.985914 C 246.883191 298.810819 253.911474 279.323511 263.997517 261.211777 C 263.586773 249.565245 250.579885 242.458109 244.09926 255.342659 C 225.707064 279.094248 211.239753 308.118874 210.600818 338.702485 C 208.181993 349.248557 217.309634 356.814218 222.558027 344.434046 C 224.885576 341.682896 227.213124 338.885895 229.586311 336.088893 Z M 466.859337 350.578279 C 474.66347 340.307322 485.479724 328.11056 482.695794 314.171403 C 477.766868 287.760369 464.303598 262.679057 443.538214 245.484373 C 437.331419 242.870782 426.058782 233.241759 421.768791 242.320552 C 415.42508 254.563166 399.588623 266.163846 405.293399 281.386873 C 410.176687 296.472342 413.736467 312.153893 420.856027 326.322312 C 433.954191 336.59327 449.106075 344.571603 464.349236 351.311919 Z M 292.65831 343.746258 C 304.752434 337.556172 316.481453 330.815856 328.301748 324.167245 C 332.226633 310.228089 337.246836 296.609899 341.901933 282.945857 C 342.540867 268.089651 329.351426 257.497726 320.543253 247.089211 C 311.871994 233.195906 297.267768 243.833684 286.54279 248.92331 C 263.039115 261.532745 257.653807 289.227648 249.621483 312.383156 C 250.762438 321.049276 258.703486 328.293969 264.453899 334.75917 C 272.394947 342.829209 281.385673 353.512839 292.65831 343.746258 Z M 379.370899 268.869143 C 385.623333 267.997946 392.651616 268.639881 398.40203 266.851634 C 407.118927 257.497726 414.786145 246.538981 418.391564 234.158809 C 414.010296 221.778636 399.542985 216.092928 387.905243 211.874499 C 373.118465 207.47266 357.282008 205.27174 341.901933 207.059987 C 330.811849 212.699843 310.95923 229.160887 322.14059 241.953732 C 330.355467 251.812017 339.118002 261.120072 348.06309 270.336423 C 358.514239 270.428128 368.91975 269.602783 379.370899 268.869143 Z " transform="matrix(.08559 0 0 .08519 -14.02567 -13.69057)"/>
</svg>
