<svg width="32" xmlns="http://www.w3.org/2000/svg" height="32" viewBox="0 0 32 32" xmlns:xlink="http://www.w3.org/1999/xlink">
<path style="fill:#c8a878" d="M 14.375 25.183594 C 14.375 25.746094 13.902344 26.199219 13.324219 26.199219 C 12.742188 26.199219 12.273438 25.746094 12.273438 25.183594 C 12.273438 24.621094 12.742188 24.167969 13.324219 24.167969 C 13.902344 24.167969 14.375 24.621094 14.375 25.183594 Z M 9.332031 9.441406 C 9.332031 10 8.859375 10.457031 8.28125 10.457031 C 7.699219 10.457031 7.230469 10 7.230469 9.441406 C 7.230469 8.878906 7.699219 8.425781 8.28125 8.425781 C 8.859375 8.425781 9.332031 8.878906 9.332031 9.441406 Z M 27.324219 12.882812 C 27.324219 13.449219 26.855469 13.902344 26.273438 13.902344 C 25.691406 13.902344 25.222656 13.449219 25.222656 12.882812 C 25.222656 12.324219 25.691406 11.867188 26.273438 11.867188 C 26.855469 11.867188 27.324219 12.324219 27.324219 12.882812 Z M 15.472656 28.164062 C 14.761719 27.957031 14.089844 27.277344 13.546875 26.222656 C 13.34375 25.816406 13.300781 25.765625 13.191406 25.765625 C 13.007812 25.761719 12.699219 25.617188 12.589844 25.480469 C 12.347656 25.171875 12.410156 24.792969 12.679688 24.519531 C 12.757812 24.441406 12.765625 24.347656 12.765625 24.304688 C 12.765625 24.265625 12.714844 24.050781 12.652344 23.820312 C 12.515625 23.332031 12.261719 22.1875 12.21875 21.859375 C 12.203125 21.730469 12.175781 21.601562 12.160156 21.574219 C 12.136719 21.546875 11.894531 21.609375 11.445312 21.761719 C 10.160156 22.199219 8.824219 22.535156 7.574219 22.742188 C 6.996094 22.839844 5.503906 22.847656 5.125 22.761719 C 4.246094 22.558594 3.769531 22.117188 3.71875 21.453125 C 3.6875 21.082031 3.785156 20.734375 4.0625 20.214844 C 4.429688 19.523438 4.863281 18.976562 5.671875 18.175781 C 6.328125 17.519531 7.644531 16.429688 8.371094 15.933594 L 8.53125 15.828125 L 8.300781 15.65625 C 5.308594 13.488281 3.625 11.496094 3.714844 10.234375 C 3.792969 9.167969 4.992188 8.699219 7.101562 8.902344 C 7.570312 8.953125 7.574219 8.953125 7.714844 8.84375 C 8.140625 8.523438 8.773438 8.632812 9.046875 9.074219 C 9.140625 9.230469 9.191406 9.269531 9.394531 9.316406 C 9.78125 9.410156 10.910156 9.746094 11.53125 9.949219 C 11.847656 10.054688 12.121094 10.132812 12.132812 10.121094 C 12.144531 10.105469 12.199219 9.871094 12.253906 9.597656 C 12.773438 6.789062 13.644531 4.761719 14.691406 3.898438 C 15.226562 3.457031 15.839844 3.347656 16.398438 3.585938 C 16.917969 3.8125 17.527344 4.472656 17.996094 5.320312 C 18.332031 5.921875 18.78125 7.160156 19.0625 8.246094 C 19.207031 8.800781 19.425781 9.839844 19.425781 9.980469 C 19.425781 10.035156 19.441406 10.09375 19.46875 10.105469 C 19.496094 10.125 19.832031 10.027344 20.214844 9.902344 C 23.628906 8.765625 26.394531 8.554688 27.472656 9.34375 C 28.175781 9.863281 28.105469 10.90625 27.285156 12.054688 C 27.144531 12.253906 27.117188 12.328125 27.144531 12.410156 C 27.164062 12.472656 27.179688 12.660156 27.183594 12.824219 C 27.1875 13.09375 27.175781 13.140625 27.050781 13.285156 C 26.859375 13.511719 26.558594 13.621094 26.234375 13.585938 C 25.988281 13.5625 25.96875 13.566406 25.847656 13.691406 C 25.625 13.929688 24.375 14.964844 23.792969 15.398438 C 23.480469 15.628906 23.222656 15.835938 23.222656 15.855469 C 23.222656 15.875 23.382812 16.007812 23.578125 16.152344 C 24.144531 16.566406 25.089844 17.34375 25.519531 17.75 C 27.492188 19.609375 28.265625 21.082031 27.753906 22.019531 C 27.257812 22.929688 25.53125 23.089844 22.800781 22.476562 C 22.101562 22.320312 20.441406 21.835938 19.851562 21.613281 C 19.660156 21.542969 19.484375 21.496094 19.464844 21.515625 C 19.445312 21.535156 19.386719 21.808594 19.328125 22.121094 C 18.832031 24.859375 17.996094 26.855469 16.980469 27.71875 C 16.828125 27.851562 16.597656 28.007812 16.46875 28.066406 C 16.167969 28.199219 15.746094 28.242188 15.472656 28.164062 Z M 16.105469 27.605469 C 17.246094 27.304688 18.21875 25.269531 18.785156 22.015625 C 18.851562 21.644531 18.886719 21.324219 18.867188 21.308594 C 18.847656 21.292969 18.527344 21.160156 18.148438 21.019531 C 17.773438 20.878906 17.097656 20.59375 16.652344 20.382812 L 15.839844 20.007812 L 15.070312 20.359375 C 14.417969 20.65625 13.691406 20.957031 12.898438 21.246094 C 12.746094 21.300781 12.722656 21.328125 12.722656 21.453125 C 12.722656 21.644531 12.835938 22.261719 13.027344 23.113281 C 13.269531 24.191406 13.277344 24.207031 13.507812 24.28125 C 13.765625 24.363281 13.914062 24.464844 14.027344 24.691406 C 14.144531 24.925781 14.136719 25.210938 13.953125 25.460938 C 13.796875 25.675781 13.792969 25.652344 14.148438 26.296875 C 14.578125 27.0625 15.023438 27.488281 15.554688 27.628906 C 15.734375 27.683594 15.847656 27.675781 16.105469 27.605469 Z M 26.28125 22.332031 C 26.636719 22.269531 27.019531 22.082031 27.171875 21.894531 C 27.363281 21.65625 27.414062 21.472656 27.390625 21.128906 C 27.335938 20.417969 26.679688 19.480469 25.40625 18.28125 C 24.660156 17.582031 22.816406 16.175781 22.679688 16.199219 C 22.640625 16.210938 22.3125 16.417969 21.949219 16.664062 C 21.585938 16.90625 20.964844 17.300781 20.574219 17.535156 L 19.867188 17.960938 L 19.8125 18.769531 C 19.777344 19.214844 19.710938 19.886719 19.65625 20.261719 C 19.601562 20.636719 19.566406 20.949219 19.582031 20.964844 C 19.636719 21.011719 20.851562 21.429688 21.59375 21.652344 C 23.65625 22.277344 25.265625 22.511719 26.28125 22.332031 Z M 7.183594 22.289062 C 8.378906 22.148438 9.957031 21.75 11.566406 21.183594 C 11.921875 21.0625 12.058594 20.992188 12.058594 20.941406 C 12.058594 20.902344 12.019531 20.574219 11.964844 20.207031 C 11.917969 19.84375 11.847656 19.164062 11.816406 18.699219 L 11.761719 17.851562 L 11.496094 17.710938 C 11.039062 17.472656 9.976562 16.824219 9.507812 16.5 C 9.261719 16.328125 9.039062 16.1875 9.019531 16.1875 C 8.96875 16.1875 8.703125 16.375 8 16.90625 C 7.277344 17.453125 6.179688 18.410156 5.691406 18.921875 C 4.003906 20.6875 3.871094 21.945312 5.335938 22.265625 C 5.671875 22.335938 6.660156 22.351562 7.183594 22.289062 Z M 13.511719 20.460938 C 13.867188 20.324219 14.386719 20.097656 14.667969 19.96875 L 15.179688 19.734375 L 14.714844 19.515625 C 14.144531 19.246094 13.320312 18.820312 12.898438 18.574219 C 12.40625 18.289062 12.4375 18.269531 12.4375 18.800781 C 12.4375 19.265625 12.484375 19.769531 12.585938 20.417969 C 12.644531 20.839844 12.570312 20.835938 13.511719 20.460938 Z M 19.019531 20.542969 C 19.191406 19.390625 19.273438 18.347656 19.195312 18.347656 C 19.167969 18.347656 19.132812 18.367188 19.117188 18.386719 C 19.074219 18.453125 17.648438 19.199219 17.050781 19.472656 C 16.746094 19.613281 16.496094 19.738281 16.496094 19.753906 C 16.496094 19.816406 18.753906 20.761719 18.910156 20.765625 C 18.96875 20.765625 18.996094 20.707031 19.019531 20.542969 Z M 16.660156 19.019531 C 17.433594 18.648438 18.488281 18.089844 19.015625 17.773438 L 19.269531 17.628906 L 19.296875 17.113281 C 19.335938 16.476562 19.328125 14.304688 19.285156 14.140625 C 19.265625 14.039062 19.128906 13.949219 18.460938 13.578125 C 18.023438 13.335938 17.660156 13.136719 17.652344 13.136719 C 17.644531 13.136719 17.398438 13.019531 17.101562 12.871094 C 16.113281 12.371094 15.933594 12.292969 15.859375 12.292969 C 15.679688 12.292969 13.394531 13.4375 12.570312 13.9375 C 12.367188 14.0625 12.347656 14.089844 12.316406 14.296875 C 12.261719 14.699219 12.316406 17.511719 12.378906 17.617188 C 12.433594 17.699219 13.277344 18.195312 13.890625 18.503906 C 14.75 18.941406 15.730469 19.40625 15.789062 19.40625 C 15.824219 19.40625 16.21875 19.234375 16.660156 19.019531 Z M 15.382812 17.046875 C 14.550781 16.777344 14.160156 15.917969 14.554688 15.222656 C 14.738281 14.902344 15.039062 14.695312 15.453125 14.597656 C 15.8125 14.515625 16.042969 14.542969 16.433594 14.710938 C 17.265625 15.066406 17.488281 16.082031 16.878906 16.707031 C 16.542969 17.050781 15.871094 17.199219 15.382812 17.046875 Z M 11.683594 15.828125 C 11.683594 14.699219 11.667969 14.410156 11.625 14.433594 C 11.253906 14.625 9.484375 15.792969 9.484375 15.847656 C 9.484375 15.867188 9.621094 15.976562 9.792969 16.085938 C 10.191406 16.359375 11.601562 17.238281 11.648438 17.242188 C 11.667969 17.246094 11.683594 16.609375 11.683594 15.828125 Z M 20.914062 16.667969 C 21.425781 16.34375 21.917969 16.023438 22.011719 15.945312 C 22.179688 15.808594 22.183594 15.808594 22.089844 15.742188 C 21.289062 15.183594 20.066406 14.40625 19.988281 14.40625 C 19.964844 14.40625 19.9375 15.050781 19.933594 15.832031 C 19.925781 16.609375 19.933594 17.25 19.953125 17.25 C 19.972656 17.25 20.402344 16.984375 20.914062 16.667969 Z M 10.164062 14.738281 C 10.730469 14.371094 11.324219 14 11.480469 13.914062 L 11.769531 13.753906 L 11.796875 13.289062 C 11.84375 12.597656 11.914062 11.910156 12 11.339844 C 12.113281 10.574219 12.136719 10.652344 11.730469 10.507812 C 11.269531 10.34375 9.8125 9.910156 9.40625 9.8125 L 9.09375 9.738281 L 8.949219 9.886719 C 8.660156 10.183594 8.210938 10.261719 7.847656 10.078125 C 7.660156 9.980469 7.472656 9.742188 7.414062 9.527344 C 7.390625 9.425781 7.367188 9.414062 7.03125 9.386719 C 6.421875 9.335938 5.515625 9.386719 5.199219 9.488281 C 3.683594 9.976562 4.136719 11.453125 6.441406 13.523438 C 6.867188 13.910156 7.539062 14.464844 7.929688 14.753906 C 8.96875 15.527344 8.953125 15.519531 9.050781 15.457031 C 9.09375 15.425781 9.597656 15.105469 10.164062 14.738281 Z M 23.21875 15.105469 C 23.945312 14.585938 24.371094 14.246094 25.027344 13.671875 L 25.558594 13.207031 L 25.53125 13.003906 C 25.488281 12.71875 25.542969 12.472656 25.710938 12.300781 C 25.90625 12.097656 26.089844 12.019531 26.378906 12.039062 L 26.621094 12.054688 L 26.847656 11.761719 C 27.34375 11.101562 27.527344 10.410156 27.308594 9.996094 C 27.183594 9.757812 27.070312 9.660156 26.765625 9.519531 C 26.003906 9.183594 24.460938 9.261719 22.5625 9.730469 C 21.738281 9.933594 19.664062 10.574219 19.578125 10.652344 C 19.5625 10.667969 19.597656 11.019531 19.65625 11.433594 C 19.75 12.128906 19.847656 13.199219 19.847656 13.570312 C 19.847656 13.722656 19.867188 13.738281 20.261719 13.972656 C 20.949219 14.375 21.832031 14.9375 22.234375 15.230469 C 22.4375 15.378906 22.621094 15.503906 22.632812 15.507812 C 22.644531 15.507812 22.910156 15.328125 23.21875 15.105469 Z M 19.234375 13.121094 C 19.234375 12.597656 19.035156 10.890625 18.972656 10.890625 C 18.894531 10.890625 16.542969 11.917969 16.542969 11.949219 C 16.542969 11.964844 16.652344 12.019531 16.789062 12.074219 C 17.160156 12.226562 18.558594 12.953125 18.878906 13.160156 C 19.035156 13.261719 19.179688 13.34375 19.199219 13.347656 C 19.21875 13.347656 19.234375 13.25 19.234375 13.121094 Z M 12.621094 13.230469 C 12.929688 13.035156 14.253906 12.335938 14.691406 12.136719 L 15.171875 11.917969 L 14.878906 11.769531 C 14.261719 11.464844 12.777344 10.878906 12.695312 10.910156 C 12.628906 10.929688 12.605469 11.058594 12.511719 11.90625 C 12.351562 13.378906 12.351562 13.394531 12.621094 13.230469 Z M 16.296875 11.40625 C 16.734375 11.210938 18.035156 10.683594 18.644531 10.453125 C 18.980469 10.328125 18.972656 10.417969 18.757812 9.28125 C 18.328125 7 17.644531 5.273438 16.886719 4.535156 C 16.507812 4.167969 16.222656 4.03125 15.835938 4.03125 C 15.5 4.03125 15.234375 4.140625 14.949219 4.398438 C 14.0625 5.191406 13.332031 6.996094 12.867188 9.515625 C 12.738281 10.238281 12.730469 10.296875 12.785156 10.339844 C 12.816406 10.359375 13.175781 10.507812 13.59375 10.671875 C 14.011719 10.835938 14.675781 11.113281 15.082031 11.285156 C 15.480469 11.460938 15.816406 11.609375 15.824219 11.609375 C 15.832031 11.613281 16.042969 11.519531 16.296875 11.40625 Z "/>
</svg>
