<svg width="32" xmlns="http://www.w3.org/2000/svg" height="32" viewBox="0 0 32 32" xmlns:xlink="http://www.w3.org/1999/xlink">
<path style="fill:#d64c62" d="M 12.597656 8.164062 C 12.25 8.164062 11.910156 8.214844 11.585938 8.285156 C 10.503906 8.445312 9.199219 8.824219 7.839844 9.722656 C 4.476562 11.953125 3.042969 22.289062 3.566406 23.253906 C 4.089844 24.222656 8.800781 22.292969 11.269531 18.578125 C 11.457031 18.300781 11.636719 18.019531 11.800781 17.710938 C 12.058594 17.753906 12.328125 17.761719 12.597656 17.761719 L 19.40625 17.761719 C 19.582031 17.761719 19.71875 17.753906 19.890625 17.738281 C 20.046875 18.027344 20.222656 18.308594 20.398438 18.578125 C 22.863281 22.292969 27.574219 24.222656 28.097656 23.253906 C 28.621094 22.289062 27.191406 11.953125 23.824219 9.722656 C 22.859375 9.085938 21.925781 8.703125 21.070312 8.476562 C 20.996094 8.457031 20.929688 8.449219 20.855469 8.425781 C 20.394531 8.285156 19.914062 8.164062 19.40625 8.164062 Z M 21.121094 10.46875 C 21.214844 10.453125 21.316406 10.457031 21.410156 10.46875 C 21.535156 10.480469 21.65625 10.519531 21.773438 10.585938 C 22.234375 10.851562 22.375 11.449219 22.109375 11.90625 C 21.84375 12.367188 21.269531 12.53125 20.808594 12.265625 C 20.34375 12.003906 20.179688 11.40625 20.445312 10.949219 C 20.597656 10.691406 20.84375 10.515625 21.121094 10.46875 Z M 9.847656 10.777344 L 10.738281 10.777344 L 10.738281 12.722656 L 12.667969 12.722656 L 12.667969 13.585938 L 10.738281 13.585938 L 10.738281 15.53125 L 9.847656 15.53125 L 9.847656 13.585938 L 7.914062 13.585938 L 7.914062 12.722656 L 9.847656 12.722656 Z M 23.65625 11.765625 C 23.777344 11.777344 23.902344 11.816406 24.015625 11.882812 C 24.480469 12.148438 24.644531 12.746094 24.382812 13.203125 C 24.113281 13.660156 23.511719 13.828125 23.054688 13.5625 C 22.589844 13.296875 22.449219 12.703125 22.714844 12.242188 C 22.914062 11.898438 23.28125 11.714844 23.65625 11.765625 Z M 19.839844 12.675781 C 19.933594 12.660156 20.035156 12.664062 20.128906 12.675781 C 20.253906 12.6875 20.378906 12.726562 20.492188 12.792969 C 20.953125 13.058594 21.097656 13.65625 20.832031 14.113281 C 20.5625 14.574219 19.988281 14.738281 19.527344 14.472656 C 19.066406 14.207031 18.898438 13.613281 19.167969 13.152344 C 19.316406 12.898438 19.5625 12.722656 19.839844 12.675781 Z M 22.109375 13.972656 C 22.199219 13.957031 22.28125 13.957031 22.375 13.972656 C 22.5 13.984375 22.625 14.023438 22.738281 14.089844 C 23.199219 14.355469 23.367188 14.949219 23.097656 15.410156 C 22.835938 15.871094 22.234375 16.035156 21.773438 15.769531 C 21.3125 15.503906 21.167969 14.910156 21.433594 14.449219 C 21.585938 14.191406 21.839844 14.015625 22.109375 13.972656 Z "/>
</svg>
