<svg width="32" xmlns="http://www.w3.org/2000/svg" height="32" viewBox="0 0 32 32" xmlns:xlink="http://www.w3.org/1999/xlink">
<g style="fill:#ec7878">
<path d="M 17.441406 7.175781 C 17.335938 7.175781 17.222656 7.203125 17.125 7.269531 C 17.027344 7.332031 16.941406 7.445312 16.945312 7.589844 C 16.960938 7.640625 16.953125 7.6875 16.949219 7.746094 C 16.949219 7.902344 17.082031 8.035156 17.242188 8.035156 C 17.402344 8.035156 17.53125 7.902344 17.53125 7.746094 C 17.53125 7.585938 17.40625 7.453125 17.246094 7.449219 C 17.300781 7.414062 17.382812 7.394531 17.441406 7.394531 C 17.671875 7.394531 17.839844 7.523438 17.964844 7.71875 C 18.089844 7.914062 18.152344 8.175781 18.148438 8.386719 C 18.136719 8.914062 17.878906 9.359375 17.488281 9.699219 C 17.105469 10.039062 16.59375 10.269531 16.109375 10.363281 L 16.148438 10.574219 C 16.671875 10.480469 17.214844 10.234375 17.636719 9.863281 C 18.058594 9.492188 18.355469 8.988281 18.371094 8.386719 C 18.371094 8.132812 18.304688 7.839844 18.152344 7.601562 C 18 7.359375 17.757812 7.175781 17.441406 7.175781 Z "/>
<path d="M 14.226562 7.175781 C 14.328125 7.175781 14.441406 7.203125 14.542969 7.269531 C 14.636719 7.332031 14.722656 7.445312 14.71875 7.589844 C 14.707031 7.640625 14.714844 7.6875 14.714844 7.746094 C 14.714844 7.902344 14.585938 8.035156 14.425781 8.035156 C 14.265625 8.035156 14.132812 7.902344 14.132812 7.746094 C 14.132812 7.585938 14.261719 7.453125 14.421875 7.449219 C 14.363281 7.414062 14.285156 7.394531 14.226562 7.394531 C 13.996094 7.394531 13.824219 7.523438 13.699219 7.71875 C 13.578125 7.914062 13.515625 8.175781 13.519531 8.386719 C 13.527344 8.914062 13.789062 9.359375 14.175781 9.699219 C 14.558594 10.039062 15.070312 10.269531 15.558594 10.363281 L 15.519531 10.574219 C 14.992188 10.480469 14.449219 10.234375 14.03125 9.863281 C 13.609375 9.492188 13.308594 8.988281 13.296875 8.386719 C 13.292969 8.132812 13.363281 7.839844 13.515625 7.601562 C 13.664062 7.359375 13.910156 7.175781 14.226562 7.175781 Z "/>
<path d="M 15.613281 9.285156 C 14.367188 9.339844 13.160156 9.949219 12.355469 10.894531 C 11.941406 11.347656 11.550781 11.855469 11.371094 12.453125 C 11.375 12.550781 11.410156 12.640625 11.433594 12.730469 C 11.167969 12.75 10.835938 12.714844 10.652344 12.949219 C 10.316406 13.320312 10.238281 13.835938 10.070312 14.289062 C 9.320312 16.890625 9.707031 19.855469 11.308594 22.066406 C 12.175781 23.253906 13.46875 24.195312 14.949219 24.4375 C 15.199219 24.460938 15.480469 24.527344 15.710938 24.398438 C 15.792969 24.324219 15.917969 24.347656 15.988281 24.421875 C 16.300781 24.582031 16.648438 24.425781 16.964844 24.386719 C 18.480469 24.050781 19.777344 23.015625 20.59375 21.71875 C 22.097656 19.390625 22.351562 16.339844 21.417969 13.742188 C 21.292969 13.433594 21.167969 13.101562 20.925781 12.863281 C 20.761719 12.75 20.554688 12.710938 20.359375 12.699219 C 20.484375 12.4375 20.402344 12.125 20.210938 11.917969 C 19.53125 10.804688 18.523438 9.84375 17.253906 9.464844 C 16.71875 9.316406 16.164062 9.28125 15.613281 9.285156 Z "/>
<path d="M 15.777344 9.589844 C 15.769531 9.589844 15.761719 9.589844 15.753906 9.59375 C 15.316406 9.625 14.871094 9.667969 14.453125 9.816406 C 13.261719 10.230469 12.355469 11.199219 11.730469 12.277344 C 11.636719 12.441406 11.703125 12.671875 11.894531 12.6875 C 13.230469 12.691406 14.5625 12.6875 15.898438 12.691406 C 15.898438 12.691406 15.898438 12.691406 15.902344 12.691406 C 17.238281 12.6875 18.570312 12.691406 19.90625 12.6875 C 20.097656 12.671875 20.164062 12.441406 20.066406 12.277344 C 19.441406 11.199219 18.535156 10.230469 17.34375 9.816406 C 16.925781 9.667969 16.480469 9.625 16.042969 9.59375 C 15.933594 9.582031 15.953125 9.621094 15.902344 9.621094 C 15.847656 9.617188 15.871094 9.585938 15.777344 9.589844 Z "/>
<path d="M 16.738281 13.023438 C 16.347656 13.023438 16.03125 13.34375 16.03125 13.738281 L 16.03125 23.90625 C 16.03125 24.050781 16.03125 24.15625 16.222656 24.175781 C 19.207031 24.011719 21.652344 20.824219 21.652344 16.925781 C 21.652344 15.640625 21.394531 14.433594 20.941406 13.386719 C 20.941406 13.386719 20.9375 13.386719 20.9375 13.386719 C 20.929688 13.363281 20.921875 13.339844 20.910156 13.316406 C 20.910156 13.3125 20.910156 13.3125 20.910156 13.308594 C 20.824219 13.136719 20.652344 13.023438 20.457031 13.023438 Z "/>
<path d="M 14.929688 13.023438 C 15.320312 13.023438 15.636719 13.34375 15.636719 13.738281 L 15.636719 23.90625 C 15.636719 24.050781 15.636719 24.15625 15.445312 24.175781 C 12.460938 24.011719 10.011719 20.824219 10.011719 16.925781 C 10.011719 15.640625 10.269531 14.433594 10.726562 13.386719 C 10.726562 13.386719 10.730469 13.386719 10.730469 13.386719 C 10.734375 13.363281 10.746094 13.339844 10.753906 13.316406 C 10.753906 13.3125 10.757812 13.3125 10.757812 13.308594 C 10.84375 13.136719 11.011719 13.023438 11.210938 13.023438 Z "/>
<g style="fill-rule:evenodd">
<path d="M 11.675781 13.320312 L 11.222656 13.878906 L 10.507812 13.828125 L 10.902344 14.425781 L 10.628906 15.09375 L 11.320312 14.90625 L 11.871094 15.371094 L 11.90625 14.652344 L 12.519531 14.273438 L 11.847656 14.015625 Z M 13.921875 14 L 13.542969 15.917969 L 11.746094 16.691406 L 13.449219 17.644531 L 13.628906 19.589844 L 15.066406 18.265625 L 16.972656 18.695312 L 16.15625 16.921875 L 17.152344 15.242188 L 15.210938 15.472656 Z M 19.78125 14.886719 L 19.332031 15.445312 L 18.613281 15.394531 L 19.007812 15.996094 L 18.738281 16.660156 L 19.429688 16.472656 L 19.976562 16.9375 L 20.011719 16.21875 L 20.625 15.839844 L 19.949219 15.585938 Z M 11.121094 18.320312 L 10.574219 19.425781 L 10.066406 19.5 C 10.246094 20.113281 10.488281 20.707031 10.800781 21.265625 L 11.121094 21.097656 L 12.210938 21.667969 L 12.003906 20.457031 L 12.878906 19.597656 L 11.664062 19.425781 Z M 20.0625 18.425781 L 18.980469 19.652344 L 17.359375 19.460938 L 18.195312 20.863281 L 17.511719 22.347656 L 19.105469 21.988281 L 19.855469 22.679688 C 20.054688 22.464844 20.238281 22.238281 20.40625 22 L 20.457031 21.46875 L 20.886719 21.226562 C 21.03125 20.964844 21.160156 20.691406 21.277344 20.414062 L 20.378906 20.027344 Z M 14.691406 21.738281 L 14.242188 22.296875 L 13.523438 22.246094 L 13.917969 22.847656 L 13.644531 23.515625 L 14.339844 23.328125 L 14.886719 23.789062 L 14.921875 23.074219 L 15.535156 22.691406 L 14.859375 22.4375 Z "/>
<path style="fill-opacity:.902" d="M 20.910156 18.761719 C 20.910156 19.886719 18.695312 20.800781 15.957031 20.800781 C 13.222656 20.800781 11.003906 19.886719 11.003906 18.761719 C 11.003906 17.636719 13.222656 16.726562 15.957031 16.726562 C 18.695312 16.726562 20.910156 17.636719 20.910156 18.761719 Z "/>
</g>
<path style="fill-opacity:.459" d="M 12.292969 22.417969 C 13.082031 23.230469 14.113281 23.816406 15.246094 23.941406 C 15.316406 23.964844 15.457031 23.957031 15.421875 23.851562 C 15.417969 23.605469 15.414062 23.355469 15.414062 23.109375 C 15.417969 22.957031 15.417969 22.984375 15.300781 23.058594 C 14.132812 23.765625 13.144531 22.90625 12.292969 22.417969 Z M 19.332031 22.472656 C 18.484375 22.960938 17.492188 23.820312 16.324219 23.113281 C 16.210938 23.039062 16.210938 23.011719 16.214844 23.164062 C 16.214844 23.410156 16.210938 23.660156 16.203125 23.90625 C 16.167969 24.011719 16.308594 24.019531 16.378906 23.996094 C 17.511719 23.875 18.542969 23.285156 19.332031 22.472656 Z "/>
<g style="fill-rule:evenodd">
<path d="M 18.988281 12.003906 C 18.988281 13.386719 17.59375 14.503906 15.875 14.503906 C 14.15625 14.503906 12.761719 13.386719 12.761719 12.003906 C 12.761719 10.625 14.15625 9.507812 15.875 9.507812 C 17.59375 9.507812 18.988281 10.625 18.988281 12.003906 Z "/>
<path d="M 14.601562 7.664062 C 14.601562 7.761719 14.523438 7.839844 14.429688 7.839844 C 14.335938 7.839844 14.261719 7.761719 14.261719 7.664062 C 14.261719 7.566406 14.335938 7.484375 14.429688 7.484375 C 14.523438 7.484375 14.601562 7.566406 14.601562 7.664062 Z "/>
<path d="M 17.40625 7.664062 C 17.40625 7.761719 17.332031 7.839844 17.238281 7.839844 C 17.140625 7.839844 17.0625 7.761719 17.0625 7.664062 C 17.0625 7.566406 17.140625 7.484375 17.238281 7.484375 C 17.332031 7.484375 17.40625 7.566406 17.40625 7.664062 Z "/>
</g>
<path d="M 22.160156 14.960938 C 21.707031 15.019531 21.386719 15.433594 21.441406 15.886719 C 21.496094 16.34375 21.914062 16.667969 22.367188 16.613281 L 28.851562 16.613281 C 29.152344 16.613281 29.425781 16.457031 29.578125 16.199219 C 29.722656 15.945312 29.722656 15.628906 29.578125 15.371094 C 29.425781 15.113281 29.152344 14.957031 28.851562 14.960938 L 22.367188 14.960938 C 22.296875 14.953125 22.230469 14.953125 22.160156 14.960938 Z "/>
<path d="M 2.730469 15.011719 C 2.4375 15.039062 2.175781 15.222656 2.054688 15.492188 C 1.929688 15.757812 1.960938 16.074219 2.132812 16.316406 C 2.304688 16.554688 2.589844 16.691406 2.882812 16.660156 L 9.421875 16.660156 C 9.714844 16.664062 9.992188 16.507812 10.144531 16.25 C 10.292969 15.992188 10.292969 15.675781 10.144531 15.417969 C 9.992188 15.164062 9.714844 15.007812 9.421875 15.011719 L 2.882812 15.011719 C 2.835938 15.007812 2.785156 15.007812 2.730469 15.011719 Z "/>
<path d="M 15.695312 1.996094 C 15.300781 2.070312 15.019531 2.414062 15.027344 2.820312 L 15.027344 9.460938 C 15.023438 9.753906 15.179688 10.03125 15.4375 10.183594 C 15.691406 10.332031 16.007812 10.332031 16.265625 10.183594 C 16.523438 10.03125 16.679688 9.753906 16.671875 9.460938 L 16.671875 2.820312 C 16.679688 2.566406 16.574219 2.332031 16.378906 2.175781 C 16.191406 2.011719 15.941406 1.945312 15.695312 1.996094 Z "/>
<path d="M 15.746094 21.488281 C 15.3125 21.542969 14.992188 21.925781 15.027344 22.363281 L 15.027344 28.851562 C 15.019531 29.148438 15.175781 29.425781 15.433594 29.574219 C 15.691406 29.726562 16.003906 29.726562 16.261719 29.574219 C 16.519531 29.425781 16.675781 29.148438 16.671875 28.851562 L 16.671875 22.363281 C 16.691406 22.117188 16.59375 21.875 16.417969 21.707031 C 16.238281 21.535156 15.988281 21.457031 15.746094 21.488281 Z "/>
</g>
<path style="fill:none;stroke:#ec7878;stroke-linejoin:round;stroke-linecap:round;stroke-width:8" d="M 278.372625 118.707233 C 278.372625 168.061835 225.513487 207.986486 160.345913 207.986486 C 95.088824 207.986486 42.229686 168.061835 42.229686 118.707233 C 42.229686 69.420472 95.088824 29.4619 160.345913 29.4619 C 225.513487 29.4619 278.372625 69.420472 278.372625 118.707233 Z " transform="matrix(.08728 0 0 .11516 1.85347 2.21659)"/>
</svg>
