<svg width="32" xmlns="http://www.w3.org/2000/svg" height="32" viewBox="0 0 32 32" xmlns:xlink="http://www.w3.org/1999/xlink">
<g style="fill:#8ccd7c">
<path d="M 9.28125 10.03125 C 6.066406 10.03125 3.464844 12.652344 3.464844 15.882812 C 3.464844 16.082031 3.464844 16.28125 3.488281 16.476562 C 3.535156 17.730469 3.464844 19.542969 4.917969 23.929688 C 6.15625 27.664062 7.097656 27.585938 7.097656 27.585938 L 8.550781 26.851562 C 8.550781 26.851562 7.824219 25.390625 7.824219 23.929688 C 7.824219 23.226562 7.992188 22.359375 8.167969 21.644531 C 8.527344 21.710938 8.902344 21.734375 9.28125 21.734375 C 12.488281 21.734375 15.09375 19.113281 15.09375 15.882812 C 15.09375 12.652344 12.488281 10.03125 9.28125 10.03125 Z "/>
<path d="M 22.386719 21.632812 C 25.597656 21.632812 28.203125 19.011719 28.203125 15.785156 C 28.203125 15.582031 28.199219 15.382812 28.179688 15.1875 C 28.132812 13.933594 28.203125 12.125 26.746094 7.738281 C 25.511719 4.003906 24.566406 4.082031 24.566406 4.082031 L 23.113281 4.816406 C 23.113281 4.816406 23.839844 6.277344 23.839844 7.738281 C 23.839844 8.441406 23.675781 9.308594 23.5 10.023438 C 23.140625 9.953125 22.761719 9.933594 22.386719 9.933594 C 19.175781 9.933594 16.574219 12.550781 16.574219 15.785156 C 16.574219 19.011719 19.175781 21.632812 22.386719 21.632812 Z "/>
</g>
</svg>
