<svg width="32" xmlns="http://www.w3.org/2000/svg" height="32" viewBox="0 0 32 32" xmlns:xlink="http://www.w3.org/1999/xlink">
<g style="fill:#b2a445">
<path d="M 4.660156 3.476562 C 4.203125 3.476562 3.835938 3.839844 3.835938 4.296875 L 3.835938 27.378906 C 3.835938 27.835938 4.203125 28.199219 4.660156 28.199219 L 9.339844 28.199219 C 9.800781 28.199219 10.167969 27.835938 10.167969 27.378906 L 10.167969 4.296875 C 10.167969 3.839844 9.800781 3.476562 9.339844 3.476562 Z M 5.441406 5.792969 L 8.5625 5.792969 L 8.5625 15.066406 L 5.441406 15.066406 Z M 7.003906 19.699219 C 7.863281 19.699219 8.5625 20.394531 8.5625 21.246094 C 8.5625 22.097656 7.863281 22.792969 7.003906 22.792969 C 6.140625 22.792969 5.441406 22.097656 5.441406 21.246094 C 5.441406 20.394531 6.140625 19.699219 7.003906 19.699219 Z "/>
<path d="M 12.457031 3.476562 C 12 3.476562 11.628906 3.839844 11.628906 4.296875 L 11.628906 27.378906 C 11.628906 27.835938 12 28.199219 12.457031 28.199219 L 15.574219 28.199219 C 16.039062 28.199219 16.40625 27.835938 16.40625 27.378906 L 16.40625 4.296875 C 16.40625 3.839844 16.039062 3.476562 15.574219 3.476562 Z M 12.457031 5.792969 L 15.574219 5.792969 L 15.574219 15.066406 L 12.457031 15.066406 Z M 14.015625 19.699219 C 14.878906 19.699219 15.574219 20.394531 15.574219 21.246094 C 15.574219 22.097656 14.878906 22.792969 14.015625 22.792969 C 13.15625 22.792969 12.457031 22.097656 12.457031 21.246094 C 12.457031 20.394531 13.15625 19.699219 14.015625 19.699219 Z "/>
<path d="M 17.746094 4.289062 C 17.304688 4.410156 17.042969 4.855469 17.160156 5.296875 L 23.191406 27.59375 C 23.308594 28.035156 23.761719 28.292969 24.207031 28.175781 L 27.214844 27.375 C 27.664062 27.253906 27.921875 26.808594 27.800781 26.371094 L 21.773438 4.074219 C 21.65625 3.632812 21.203125 3.375 20.761719 3.492188 Z M 18.351562 6.53125 L 21.367188 5.730469 L 23.785156 14.6875 L 20.773438 15.488281 Z M 23.492188 19.5625 C 24.324219 19.34375 25.179688 19.832031 25.402344 20.65625 C 25.625 21.480469 25.128906 22.332031 24.300781 22.550781 C 23.464844 22.769531 22.613281 22.28125 22.390625 21.457031 C 22.167969 20.636719 22.660156 19.785156 23.492188 19.5625 Z "/>
</g>
</svg>
