<svg width="32" xmlns="http://www.w3.org/2000/svg" height="32" viewBox="0 0 32 32" xmlns:xlink="http://www.w3.org/1999/xlink">
<g style="fill-rule:evenodd">
<path style="fill:#fff;stroke:#5b93d6;stroke-width:7.56" d="M 76.167138 33.441542 C 76.167138 33.441542 90.724788 31.988935 106.450839 34.388895 C 106.450839 34.388895 107.240299 37.325687 104.682447 38.178304 L 102.282488 62.619998 L 126.850495 176.144402 C 126.850495 176.144402 132.376718 190.481002 115.229638 193.575687 C 98.082559 196.670372 72.377728 201.438713 52.325435 185.933711 C 52.325435 185.933711 47.588672 179.933812 55.925374 152.397433 L 78.693411 63.030517 L 77.777637 38.304618 C 77.777637 38.304618 74.177698 34.767835 76.167138 33.441542 Z " transform="scale(.1237)"/>
<path style="fill:#d1d6cf;fill-opacity:.467" d="M 15.148438 22.765625 C 15.148438 23.304688 13.433594 23.738281 11.316406 23.738281 C 9.207031 23.738281 7.488281 23.304688 7.488281 22.765625 C 7.488281 22.230469 9.207031 21.792969 11.316406 21.792969 C 13.433594 21.792969 15.148438 22.230469 15.148438 22.765625 Z "/>
<path style="fill:#acc2e2" d="M 14.199219 18.695312 C 11.296875 20.257812 9.128906 19.808594 7.707031 19.003906 L 7.707031 19.019531 C 7.703125 19.035156 7.699219 19.042969 7.699219 19.050781 C 7.199219 20.707031 7.101562 21.675781 7.117188 22.179688 C 7.121094 22.367188 7.136719 22.472656 7.15625 22.546875 C 9.292969 24.070312 12.023438 23.589844 14.097656 23.214844 C 14.910156 23.070312 14.917969 22.859375 14.972656 22.59375 C 15.023438 22.332031 14.929688 22.039062 14.929688 22.039062 C 14.914062 22.003906 14.90625 21.96875 14.898438 21.933594 Z "/>
<path style="fill:#fff;stroke:#5b93d6;stroke-width:7.56" d="M 143.366006 70.893543 L 142.639703 50.462308 C 142.639703 50.462308 142.70286 47.8413 141.281831 47.051839 L 142.323919 44.715036 C 142.323919 44.715036 150.913248 42.820331 171.660267 45.283448 C 171.660267 45.283448 174.912844 45.093977 175.354941 47.936035 C 175.354941 47.936035 173.491815 49.83074 173.649707 53.051738 L 171.249747 72.409307 C 171.249747 72.409307 196.354588 165.344584 203.08079 203.649202 C 203.08079 203.649202 200.049262 219.596302 182.649555 222.406781 C 165.281427 225.185681 129.882023 232.638187 102.124596 209.238581 C 102.124596 209.238581 92.745806 202.954477 105.314016 176.018088 L 140.271322 80.177597 C 140.271322 80.177597 143.429163 75.251364 143.871261 73.577708 C 144.313359 71.935631 143.429163 71.083013 143.366006 70.893543 Z " transform="scale(.1237)"/>
<path style="fill:#d1d6cf;fill-opacity:.467" d="M 24.199219 25.695312 C 24.199219 26.558594 21.871094 27.253906 18.996094 27.253906 C 16.125 27.253906 13.796875 26.558594 13.796875 25.695312 C 13.796875 24.832031 16.125 24.132812 18.996094 24.132812 C 21.871094 24.132812 24.199219 24.832031 24.199219 25.695312 Z "/>
<g style="fill:#acc2e2">
<g style="fill-opacity:.6">
<path d="M 10.566406 4.941406 L 10.667969 7.765625 C 10.671875 7.839844 10.664062 7.917969 10.644531 7.992188 L 9.527344 12.375 C 9.914062 12.40625 10.3125 12.554688 10.710938 12.863281 C 11.464844 13.449219 12.175781 13.347656 12.8125 12.878906 L 11.738281 7.914062 C 11.722656 7.832031 11.714844 7.75 11.722656 7.667969 L 11.984375 4.988281 C 11.464844 4.949219 10.976562 4.933594 10.574219 4.941406 C 10.574219 4.941406 10.570312 4.941406 10.566406 4.941406 Z "/>
<path d="M 18.953125 6.398438 C 18.847656 6.398438 18.777344 6.402344 18.691406 6.402344 L 18.765625 8.546875 C 18.847656 8.753906 18.882812 9.050781 18.804688 9.332031 C 18.699219 9.726562 18.582031 9.839844 18.46875 10.039062 C 18.386719 10.183594 18.34375 10.246094 18.308594 10.304688 L 16.066406 16.457031 C 17.410156 15.953125 18.796875 16.09375 19.75 17.878906 C 19.75 17.878906 21.535156 19.929688 21.085938 14.296875 C 21.042969 13.757812 21.066406 13.277344 21.144531 12.851562 C 20.582031 10.707031 20.175781 9.191406 20.175781 9.191406 C 20.144531 9.078125 20.136719 8.964844 20.148438 8.851562 L 20.441406 6.488281 C 19.851562 6.433594 19.328125 6.402344 18.953125 6.398438 Z M 18.632812 8.292969 C 18.636719 8.296875 18.644531 8.308594 18.652344 8.324219 C 18.652344 8.320312 18.648438 8.3125 18.648438 8.308594 C 18.632812 8.292969 18.621094 8.277344 18.632812 8.292969 Z M 18.660156 8.332031 C 18.667969 8.347656 18.679688 8.375 18.691406 8.394531 C 18.679688 8.367188 18.664062 8.347656 18.660156 8.332031 Z "/>
</g>
<path d="M 14.460938 20.558594 L 13.917969 22.042969 C 13.910156 22.066406 13.898438 22.089844 13.890625 22.113281 C 13.152344 23.683594 13.113281 24.558594 13.175781 24.953125 C 13.203125 25.144531 13.253906 25.226562 13.269531 25.25 C 16.339844 27.839844 20.21875 27.019531 22.433594 26.664062 C 23.777344 26.449219 24.097656 25.464844 24.167969 25.171875 C 23.972656 24.097656 23.664062 22.679688 23.308594 21.128906 C 19.324219 22.117188 16.417969 21.492188 14.460938 20.558594 Z "/>
</g>
</g>
</svg>
