<svg width="32" xmlns="http://www.w3.org/2000/svg" height="32" viewBox="0 0 32 32" xmlns:xlink="http://www.w3.org/1999/xlink">
<g style="fill:#ec86ab">
<path d="M 4.835938 3.464844 L 4.835938 19.957031 L 6.210938 19.957031 L 6.210938 3.464844 Z "/>
<path d="M 7.589844 20.644531 C 7.589844 21.78125 6.664062 22.707031 5.523438 22.707031 C 4.386719 22.707031 3.464844 21.78125 3.464844 20.644531 C 3.464844 19.503906 4.386719 18.582031 5.523438 18.582031 C 6.664062 18.582031 7.589844 19.503906 7.589844 20.644531 Z "/>
<path d="M 13.085938 28.203125 L 13.085938 7.589844 L 11.707031 7.589844 L 11.707031 28.203125 Z "/>
<path d="M 10.335938 6.902344 C 10.335938 5.761719 11.261719 4.835938 12.394531 4.835938 C 13.535156 4.835938 14.460938 5.761719 14.460938 6.902344 C 14.460938 8.035156 13.535156 8.960938 12.394531 8.960938 C 11.261719 8.960938 10.335938 8.035156 10.335938 6.902344 Z "/>
<path d="M 18.582031 3.464844 L 18.582031 18.582031 L 19.957031 18.582031 L 19.957031 3.464844 Z "/>
<path d="M 21.332031 19.269531 C 21.332031 20.40625 20.40625 21.332031 19.269531 21.332031 C 18.132812 21.332031 17.207031 20.40625 17.207031 19.269531 C 17.207031 18.132812 18.132812 17.207031 19.269531 17.207031 C 20.40625 17.207031 21.332031 18.132812 21.332031 19.269531 Z "/>
<path d="M 26.828125 28.203125 L 26.828125 17.207031 L 25.457031 17.207031 L 25.457031 28.203125 Z "/>
<path d="M 24.078125 16.519531 C 24.078125 15.378906 25.003906 14.460938 26.144531 14.460938 C 27.277344 14.460938 28.203125 15.378906 28.203125 16.519531 C 28.203125 17.660156 27.277344 18.582031 26.144531 18.582031 C 25.003906 18.582031 24.078125 17.660156 24.078125 16.519531 Z "/>
</g>
</svg>
