<svg width="32" xmlns="http://www.w3.org/2000/svg" height="32" viewBox="0 0 32 32" xmlns:xlink="http://www.w3.org/1999/xlink">
<path style="fill:none;stroke:#6aaf53;stroke-linejoin:round;stroke-linecap:round;stroke-width:2" d="M 10.541016 1021.360247 L 37.458984 1021.360247 C 38.308594 1021.360247 39 1022.051653 39 1022.901263 L 39 1033.823138 C 39 1034.672747 38.308594 1035.364153 37.458984 1035.364153 L 10.541016 1035.364153 C 9.691406 1035.364153 9 1034.672747 9 1033.823138 L 9 1022.901263 C 9 1022.051653 9.691406 1021.360247 10.541016 1021.360247 Z " transform="matrix(.66667 0 0 .66667 0 -669.5748)"/>
<path style="fill:#6aaf53" d="M 7.667969 12.667969 C 7.480469 12.667969 7.332031 12.816406 7.332031 13 L 7.332031 19 C 7.332031 19.183594 7.480469 19.332031 7.667969 19.332031 L 15.703125 19.332031 C 15.886719 19.332031 16.035156 19.183594 16.035156 19 L 16.035156 13 C 16.035156 12.816406 15.886719 12.667969 15.703125 12.667969 Z M 10 17.332031 L 10 14.667969 L 10.667969 14.667969 L 10.667969 17.332031 Z M 11.332031 17.332031 L 11.332031 14.667969 L 12 14.667969 L 12 17.332031 Z M 12.667969 17.332031 L 12.667969 14.667969 L 13.332031 14.667969 L 13.332031 17.332031 Z "/>
</svg>
