<svg width="32" xmlns="http://www.w3.org/2000/svg" height="32" viewBox="0 0 32 32" xmlns:xlink="http://www.w3.org/1999/xlink">
<path style="fill:#4c7686" d="M 13.664062 5.332031 L 13.664062 18.136719 C 12.765625 17.785156 11.589844 17.722656 10.378906 18.050781 C 8.113281 18.664062 6.59375 20.386719 6.992188 21.890625 C 7.390625 23.394531 9.550781 24.121094 11.820312 23.507812 C 13.742188 22.984375 15.121094 21.664062 15.25 20.359375 L 15.265625 20.359375 L 15.265625 10.941406 L 23.46875 11.960938 L 23.46875 21.078125 C 22.570312 20.726562 21.394531 20.664062 20.183594 20.996094 C 17.917969 21.605469 16.398438 23.328125 16.796875 24.832031 C 17.195312 26.335938 19.359375 27.0625 21.625 26.449219 C 23.550781 25.929688 24.929688 24.609375 25.054688 23.300781 L 25.070312 23.300781 L 25.070312 6.851562 L 13.664062 5.335938 Z M 15.265625 8.414062 L 23.46875 9.570312 L 23.46875 10.605469 L 15.265625 9.585938 Z "/>
</svg>
