<svg width="32" xmlns="http://www.w3.org/2000/svg" height="32" viewBox="0 0 32 32" xmlns:xlink="http://www.w3.org/1999/xlink">
<path style="fill:#9cc7cf" d="M 16.707031 20.746094 C 16.644531 18.503906 17.148438 16.324219 19.285156 14.777344 C 21.542969 13.035156 23.714844 10.847656 23.488281 8.277344 C 23.433594 5.792969 20.519531 3.847656 17.382812 3.566406 C 13.851562 3.082031 9.578125 4.285156 8.390625 7.019531 C 7.792969 8.351562 8.347656 10.742188 10.363281 10.742188 C 11.542969 10.742188 12.082031 9.988281 12.171875 9.296875 C 12.238281 8.773438 12.019531 8.308594 11.894531 7.875 C 11.746094 7.382812 12.371094 6.429688 13.046875 6.039062 C 13.613281 5.714844 14.207031 5.605469 14.289062 5.585938 C 16.320312 5.101562 18.347656 6.171875 19.191406 7.472656 C 20.035156 8.777344 19.105469 10.75 17.769531 12.671875 C 16.433594 14.59375 15 16.773438 15.003906 19.089844 C 15.003906 19.972656 14.925781 20.273438 14.980469 20.628906 C 15.027344 20.914062 15.976562 20.878906 16.707031 20.746094 Z M 15.777344 23.765625 C 13.839844 23.660156 12.492188 25.847656 13.660156 27.238281 C 14.699219 28.777344 17.625 28.394531 18.121094 26.65625 C 18.644531 25.300781 17.394531 23.742188 15.777344 23.765625 Z "/>
</svg>
