
<svg xmlns="http://www.w3.org/2000/svg" xmlns:xlink="http://www.w3.org/1999/xlink" width="256px" height="256px" viewBox="0 0 256 256" version="1.1">
<g id="surface1">
<path style=" stroke:none;fill-rule:nonzero;fill:rgb(87.45098%,9.411765%,9.411765%);fill-opacity:1;" d="M 42.6875 0 C 37.1875 0 32 5.421875 32 11.15625 L 32 244.84375 C 32 250.265625 37.5 256 42.6875 256 L 213.3125 256 C 218.5 256 224 250.265625 224 244.84375 L 224 72 L 152 0 Z M 42.6875 0 "/>
<path style=" stroke:none;fill-rule:nonzero;fill:rgb(0%,0%,0%);fill-opacity:0.196078;" d="M 168 72 L 224 128 L 224 72 Z M 168 72 "/>
<path style=" stroke:none;fill-rule:nonzero;fill:rgb(100%,100%,100%);fill-opacity:0.392157;" d="M 152 0 L 223.9375 72 L 163.03125 72 C 157.640625 72 152 66.296875 152 60.90625 Z M 152 0 "/>
<path style=" stroke:none;fill-rule:nonzero;fill:rgb(100%,100%,100%);fill-opacity:1;" d="M 125.5 85.40625 C 125.5 85.40625 129.1875 119.375 103.15625 164.25 C 77.125 209.09375 69.46875 203.0625 66.75 201.53125 C 64 199.96875 60.46875 194.90625 72.03125 184.8125 C 83.5625 174.71875 88.0625 174.90625 88.0625 174.90625 C 88.0625 174.90625 77.5 181.3125 73.40625 187.53125 C 69.28125 193.75 65.96875 197.625 66.9375 199.375 C 67.90625 201.125 79.71875 192.21875 84.59375 184.65625 C 92.375 172.625 107.0625 150.25 113.90625 128.90625 C 120.75 107.53125 125.5 85.40625 125.5 85.40625 Z M 125.5 85.40625 "/>
<path style=" stroke:none;fill-rule:nonzero;fill:rgb(100%,100%,100%);fill-opacity:1;" d="M 189.65625 164.03125 C 189.65625 164.03125 189.0625 165.59375 182.21875 165.03125 C 175.375 164.4375 148.75 156.09375 134.46875 139 C 120.1875 121.90625 119 98.40625 118.03125 86.1875 C 117.03125 73.96875 122.46875 77.375 123.25 78.90625 C 124.46875 79.9375 125.0625 83.28125 125.0625 83.28125 C 125.0625 83.28125 124.625 78.28125 122.46875 76.125 C 120.3125 74 118.40625 73.96875 116.25 77.65625 C 114.09375 81.34375 113.125 91.625 114.875 101.53125 C 116.65625 111.4375 123.90625 134.15625 132.90625 144.625 C 141.90625 155.125 159.90625 164.25 173.21875 166.96875 C 186.53125 169.6875 189.65625 164.0625 189.65625 164.0625 Z M 189.65625 164.03125 "/>
<path style=" stroke:none;fill-rule:nonzero;fill:rgb(100%,100%,100%);fill-opacity:1;" d="M 102.9375 168.5 C 102.9375 168.5 128.78125 160.15625 153.25 157.84375 C 177.71875 155.5 186.15625 158.03125 188.28125 159.78125 C 190.4375 161.53125 190.4375 163.46875 190.4375 163.46875 C 190.4375 163.46875 193.1875 160.75 191.375 158 C 189.84375 155.125 187.5 152.78125 168.125 153.375 C 148.75 153.9375 147.375 154.71875 129.5625 158.03125 C 111.75 161.34375 102.9375 168.5 102.9375 168.5 Z M 102.9375 168.5 "/>
</g>
</svg>
