
<svg xmlns="http://www.w3.org/2000/svg" xmlns:xlink="http://www.w3.org/1999/xlink" width="256px" height="256px" viewBox="0 0 256 256" version="1.1">
<g id="surface1">
<path style=" stroke:none;fill-rule:nonzero;fill:rgb(20.392157%,40.784314%,80.784314%);fill-opacity:1;" d="M 42.6875 0 C 37.1875 0 32 5.421875 32 11.15625 L 32 244.84375 C 32 250.265625 37.5 256 42.6875 256 L 213.3125 256 C 218.5 256 224 250.265625 224 244.84375 L 224 72 L 152 0 Z M 42.6875 0 "/>
<path style=" stroke:none;fill-rule:nonzero;fill:rgb(0%,0%,0%);fill-opacity:0.196078;" d="M 168 72 L 224 128 L 224 72 Z M 168 72 "/>
<path style=" stroke:none;fill-rule:nonzero;fill:rgb(100%,100%,100%);fill-opacity:0.392157;" d="M 152 0 L 223.9375 72 L 163.03125 72 C 157.640625 72 152 66.296875 152 60.90625 Z M 152 0 "/>
<path style=" stroke:none;fill-rule:evenodd;fill:rgb(97.647059%,97.647059%,97.647059%);fill-opacity:1;" d="M 80 88 L 128 88 L 128 128 L 80 128 Z M 80 88 "/>
<path style=" stroke:none;fill-rule:evenodd;fill:rgb(97.647059%,97.647059%,97.647059%);fill-opacity:1;" d="M 136 88 L 176 88 L 176 96 L 136 96 Z M 136 88 "/>
<path style=" stroke:none;fill-rule:nonzero;fill:rgb(0%,0%,0%);fill-opacity:0.196078;" d="M 32 192 L 32 245.34375 C 32 250.53125 37.5 256 42.65625 256 L 213.34375 256 C 218.5 256 224 250.53125 224 245.34375 L 224 192 Z M 32 192 "/>
<path style=" stroke:none;fill-rule:evenodd;fill:rgb(97.647059%,97.647059%,97.647059%);fill-opacity:1;" d="M 136 104 L 176 104 L 176 112 L 136 112 Z M 136 104 "/>
<path style=" stroke:none;fill-rule:nonzero;fill:rgb(100%,100%,100%);fill-opacity:1;" d="M 81.546875 240.609375 C 81.8125 240.671875 82.109375 240.671875 82.4375 240.671875 C 82.734375 240.671875 83.03125 240.671875 83.296875 240.671875 C 85.53125 240.671875 87.375 240.3125 88.859375 239.546875 C 90.40625 238.828125 91.625 237.8125 92.5 236.5 C 93.46875 235.203125 94.125 233.671875 94.484375 231.921875 C 94.90625 230.109375 95.140625 228.140625 95.140625 226 C 95.140625 224.15625 94.96875 222.34375 94.640625 220.5625 C 94.3125 218.828125 93.796875 217.28125 92.96875 215.9375 C 92.171875 214.578125 91.09375 213.53125 89.75 212.734375 C 88.359375 211.890625 86.578125 211.484375 84.421875 211.484375 C 83.984375 211.484375 83.53125 211.484375 82.96875 211.5625 C 82.4375 211.5625 81.984375 211.59375 81.546875 211.6875 L 81.546875 240.609375 M 105.046875 226 C 105.046875 229.984375 104.453125 233.40625 103.296875 236.234375 C 102.1875 239.03125 100.640625 241.296875 98.625 243.046875 C 96.625 244.8125 94.1875 246.09375 91.390625 246.921875 C 88.65625 247.71875 85.59375 248.109375 82.28125 248.109375 C 80.53125 248.109375 78.78125 248.046875 77.109375 247.84375 C 75.46875 247.71875 73.6875 247.453125 71.78125 247.09375 L 71.78125 205.078125 C 74.015625 204.640625 76.09375 204.390625 78.0625 204.25 C 80 204.125 81.84375 204.015625 83.53125 204.015625 C 86.75 204.015625 89.71875 204.453125 92.34375 205.265625 C 95.046875 206.125 97.3125 207.4375 99.1875 209.25 C 101.03125 211 102.4375 213.296875 103.46875 216.0625 C 104.515625 218.796875 105.046875 222.109375 105.046875 226 "/>
<path style=" stroke:none;fill-rule:nonzero;fill:rgb(100%,100%,100%);fill-opacity:1;" d="M 119.25 226 C 119.25 228.109375 119.3125 230.078125 119.484375 231.921875 C 119.71875 233.734375 120.078125 235.3125 120.609375 236.65625 C 121.203125 238 121.984375 239.0625 122.96875 239.84375 C 123.984375 240.640625 125.34375 241.03125 127.015625 241.03125 C 128.65625 241.03125 129.984375 240.640625 131 239.84375 C 132.046875 239.0625 132.84375 238 133.375 236.65625 C 133.953125 235.25 134.328125 233.671875 134.484375 231.859375 C 134.6875 230.046875 134.8125 228.109375 134.8125 226 C 134.8125 223.921875 134.6875 221.984375 134.484375 220.171875 C 134.328125 218.296875 133.953125 216.71875 133.375 215.375 C 132.84375 214.015625 132.078125 212.96875 131.0625 212.1875 C 130.078125 211.390625 128.734375 211 127.015625 211 C 125.34375 211 123.984375 211.390625 122.96875 212.1875 C 121.984375 212.96875 121.203125 214.0625 120.609375 215.4375 C 120.078125 216.78125 119.71875 218.359375 119.484375 220.171875 C 119.328125 221.984375 119.25 223.921875 119.25 226 M 109.3125 226 C 109.3125 218.59375 110.890625 213 114.03125 209.25 C 117.15625 205.4375 121.453125 203.5625 127.015625 203.5625 C 132.8125 203.5625 137.1875 205.4375 140.21875 209.25 C 143.203125 213 144.71875 218.59375 144.71875 226 C 144.71875 233.4375 143.203125 239.03125 140.109375 242.84375 C 137.046875 246.59375 132.703125 248.46875 127.125 248.46875 C 121.328125 248.46875 116.921875 246.59375 113.859375 242.84375 C 110.828125 239.03125 109.3125 233.4375 109.3125 226 "/>
<path style=" stroke:none;fill-rule:nonzero;fill:rgb(100%,100%,100%);fill-opacity:1;" d="M 170.34375 248.46875 C 163.4375 248.46875 158.140625 246.53125 154.484375 242.609375 C 150.84375 238.734375 149 233.203125 149 226 C 149 222.453125 149.5625 219.25 150.671875 216.484375 C 151.796875 213.6875 153.34375 211.359375 155.28125 209.453125 C 157.28125 207.515625 159.65625 206.0625 162.359375 205.078125 C 165.078125 204.0625 168.078125 203.5625 171.296875 203.5625 C 173.046875 203.5625 174.625 203.6875 176 203.953125 C 177.421875 204.1875 178.671875 204.484375 179.71875 204.8125 C 180.78125 205.140625 181.671875 205.46875 182.359375 205.828125 C 183.078125 206.21875 183.640625 206.484375 184 206.6875 L 181.46875 213.5 C 180.25 212.8125 178.765625 212.21875 177.03125 211.75 C 175.34375 211.265625 173.375 211 171.140625 211 C 169.625 211 168.109375 211.265625 166.625 211.75 C 165.21875 212.21875 163.90625 213.03125 162.75 214.1875 C 161.625 215.3125 160.703125 216.8125 159.953125 218.6875 C 159.265625 220.609375 158.9375 222.96875 158.9375 225.796875 C 158.9375 230.703125 159.890625 234.484375 161.796875 237.125 C 163.734375 239.71875 166.921875 241.03125 171.296875 241.03125 C 173.828125 241.03125 175.9375 240.765625 177.578125 240.28125 C 179.265625 239.75 180.609375 239.25 181.625 238.734375 L 184.09375 245.46875 C 182.71875 246.234375 180.84375 246.921875 178.4375 247.546875 C 176.140625 248.171875 173.4375 248.46875 170.34375 248.46875 "/>
<path style=" stroke:none;fill-rule:evenodd;fill:rgb(97.647059%,97.647059%,97.647059%);fill-opacity:1;" d="M 136 120 L 176 120 L 176 128 L 136 128 Z M 136 120 "/>
<path style=" stroke:none;fill-rule:evenodd;fill:rgb(97.647059%,97.647059%,97.647059%);fill-opacity:1;" d="M 80 136 L 176 136 L 176 144 L 80 144 Z M 80 136 "/>
<path style=" stroke:none;fill-rule:evenodd;fill:rgb(97.647059%,97.647059%,97.647059%);fill-opacity:1;" d="M 80 152 L 176 152 L 176 160 L 80 160 Z M 80 152 "/>
<path style=" stroke:none;fill-rule:evenodd;fill:rgb(97.647059%,97.647059%,97.647059%);fill-opacity:1;" d="M 80 168 L 176 168 L 176 176 L 80 176 Z M 80 168 "/>
</g>
</svg>
