
<svg xmlns="http://www.w3.org/2000/svg" xmlns:xlink="http://www.w3.org/1999/xlink" width="256px" height="256px" viewBox="0 0 256 256" version="1.1">
<g id="surface1">
<path style=" stroke:none;fill-rule:nonzero;fill:rgb(48.627451%,61.176471%,20.784314%);fill-opacity:1;" d="M 42.6875 0 C 37.1875 0 32 5.421875 32 11.15625 L 32 244.84375 C 32 250.265625 37.5 256 42.6875 256 L 213.3125 256 C 218.5 256 224 250.265625 224 244.84375 L 224 72 L 152 0 Z M 42.6875 0 "/>
<path style=" stroke:none;fill-rule:nonzero;fill:rgb(0%,0%,0%);fill-opacity:0.196078;" d="M 168 72 L 224 128 L 224 72 Z M 168 72 "/>
<path style=" stroke:none;fill-rule:nonzero;fill:rgb(100%,100%,100%);fill-opacity:0.392157;" d="M 152 0 L 223.9375 72 L 163.03125 72 C 157.640625 72 152 66.296875 152 60.90625 Z M 152 0 "/>
<path style=" stroke:none;fill-rule:nonzero;fill:rgb(100%,100%,100%);fill-opacity:1;" d="M 128 175.09375 L 91.5625 138.65625 L 128 102.25 L 140.15625 114.375 L 115.84375 138.65625 L 128 150.8125 L 164.4375 114.375 L 132.6875 82.65625 C 130.109375 80.078125 125.890625 80.078125 123.3125 82.65625 L 72 133.96875 C 69.390625 136.546875 69.390625 140.765625 72 143.375 L 123.3125 194.6875 C 125.890625 197.265625 130.109375 197.265625 132.6875 194.6875 L 184 143.375 C 186.609375 140.765625 186.609375 136.546875 184 133.96875 L 176.5625 126.53125 Z M 128 175.09375 "/>
</g>
</svg>
