
<svg xmlns="http://www.w3.org/2000/svg" xmlns:xlink="http://www.w3.org/1999/xlink" width="256px" height="256px" viewBox="0 0 256 256" version="1.1">
<g id="surface1">
<path style=" stroke:none;fill-rule:nonzero;fill:rgb(20.392157%,40.784314%,80.784314%);fill-opacity:1;" d="M 42.6875 0 C 37.1875 0 32 5.421875 32 11.15625 L 32 244.84375 C 32 250.265625 37.5 256 42.6875 256 L 213.3125 256 C 218.5 256 224 250.265625 224 244.84375 L 224 72 L 152 0 Z M 42.6875 0 "/>
<path style=" stroke:none;fill-rule:nonzero;fill:rgb(0%,0%,0%);fill-opacity:0.196078;" d="M 168 72 L 224 128 L 224 72 Z M 168 72 "/>
<path style=" stroke:none;fill-rule:nonzero;fill:rgb(100%,100%,100%);fill-opacity:0.392157;" d="M 152 0 L 223.9375 72 L 163.03125 72 C 157.640625 72 152 66.296875 152 60.90625 Z M 152 0 "/>
<path style=" stroke:none;fill-rule:evenodd;fill:rgb(97.647059%,97.647059%,97.647059%);fill-opacity:1;" d="M 80 88 L 128 88 L 128 128 L 80 128 Z M 80 88 "/>
<path style=" stroke:none;fill-rule:evenodd;fill:rgb(97.647059%,97.647059%,97.647059%);fill-opacity:1;" d="M 136 88 L 176 88 L 176 96 L 136 96 Z M 136 88 "/>
<path style=" stroke:none;fill-rule:nonzero;fill:rgb(0%,0%,0%);fill-opacity:0.196078;" d="M 32 192 L 32 245.34375 C 32 250.53125 37.5 256 42.65625 256 L 213.34375 256 C 218.5 256 224 250.53125 224 245.34375 L 224 192 Z M 32 192 "/>
<path style=" stroke:none;fill-rule:evenodd;fill:rgb(97.647059%,97.647059%,97.647059%);fill-opacity:1;" d="M 136 104 L 176 104 L 176 112 L 136 112 Z M 136 104 "/>
<path style=" stroke:none;fill-rule:evenodd;fill:rgb(97.647059%,97.647059%,97.647059%);fill-opacity:1;" d="M 136 120 L 176 120 L 176 128 L 136 128 Z M 136 120 "/>
<path style=" stroke:none;fill-rule:nonzero;fill:rgb(100%,100%,100%);fill-opacity:1;" d="M 81.28125 226.375 C 81.28125 228.484375 81.34375 230.46875 81.515625 232.3125 C 81.703125 234.125 82.0625 235.703125 82.59375 237.046875 C 83.15625 238.40625 83.953125 239.453125 84.9375 240.25 C 85.921875 241.03125 87.234375 241.4375 88.890625 241.4375 C 90.5 241.4375 91.78125 241.03125 92.765625 240.25 C 93.796875 239.453125 94.578125 238.40625 95.109375 237.046875 C 95.671875 235.640625 96.03125 234.046875 96.203125 232.25 C 96.390625 230.4375 96.5 228.484375 96.5 226.375 C 96.5 224.3125 96.390625 222.359375 96.203125 220.546875 C 96.03125 218.671875 95.671875 217.09375 95.109375 215.75 C 94.578125 214.390625 93.828125 213.34375 92.84375 212.546875 C 91.84375 211.765625 90.53125 211.359375 88.890625 211.359375 C 87.234375 211.359375 85.921875 211.765625 84.9375 212.546875 C 83.953125 213.34375 83.15625 214.421875 82.59375 215.8125 C 82.0625 217.15625 81.703125 218.734375 81.515625 220.546875 C 81.34375 222.359375 81.28125 224.3125 81.28125 226.375 M 71.5625 226.375 C 71.5625 218.96875 73.109375 213.375 76.140625 209.625 C 79.203125 205.796875 83.453125 203.921875 88.890625 203.921875 C 94.515625 203.921875 98.828125 205.796875 101.765625 209.625 C 104.734375 213.375 106.203125 218.96875 106.203125 226.375 C 106.203125 233.828125 104.6875 239.421875 101.703125 243.25 C 98.703125 247 94.453125 248.875 88.953125 248.875 C 83.3125 248.875 79 247 76.015625 243.25 C 73.046875 239.421875 71.5625 233.828125 71.5625 226.375 "/>
<path style=" stroke:none;fill-rule:nonzero;fill:rgb(100%,100%,100%);fill-opacity:1;" d="M 122.046875 241 C 122.28125 241.0625 122.578125 241.0625 122.875 241.0625 C 123.203125 241.0625 123.5 241.0625 123.734375 241.0625 C 125.90625 241.0625 127.71875 240.703125 129.171875 239.953125 C 130.671875 239.21875 131.859375 238.203125 132.75 236.890625 C 133.671875 235.609375 134.328125 234.046875 134.703125 232.3125 C 135.09375 230.5 135.328125 228.515625 135.328125 226.375 C 135.328125 224.53125 135.15625 222.71875 134.828125 220.953125 C 134.53125 219.203125 134 217.65625 133.21875 216.296875 C 132.421875 214.953125 131.375 213.90625 130.015625 213.109375 C 128.671875 212.25 126.953125 211.859375 124.8125 211.859375 C 124.421875 211.859375 123.96875 211.859375 123.4375 211.921875 C 122.90625 211.921875 122.453125 211.953125 122.046875 212.046875 L 122.046875 241 M 145 226.375 C 145 230.359375 144.453125 233.796875 143.296875 236.625 C 142.203125 239.421875 140.6875 241.6875 138.71875 243.4375 C 136.765625 245.21875 134.40625 246.5 131.671875 247.328125 C 128.96875 248.125 126 248.515625 122.75 248.515625 C 121.03125 248.515625 119.34375 248.453125 117.703125 248.25 C 116.09375 248.125 114.34375 247.859375 112.5 247.484375 L 112.5 205.4375 C 114.671875 205 116.71875 204.75 118.625 204.609375 C 120.53125 204.484375 122.3125 204.375 123.96875 204.375 C 127.125 204.375 130.015625 204.8125 132.59375 205.625 C 135.21875 206.484375 137.46875 207.8125 139.28125 209.609375 C 141.09375 211.359375 142.46875 213.671875 143.453125 216.4375 C 144.515625 219.171875 145 222.5 145 226.375 "/>
<path style=" stroke:none;fill-rule:nonzero;fill:rgb(100%,100%,100%);fill-opacity:1;" d="M 184 204.875 L 184 211.984375 L 171.328125 211.984375 L 171.328125 247.953125 L 161.703125 247.953125 L 161.703125 211.984375 L 149.0625 211.984375 L 149.0625 204.875 L 184 204.875 "/>
<path style=" stroke:none;fill-rule:evenodd;fill:rgb(97.647059%,97.647059%,97.647059%);fill-opacity:1;" d="M 80 136 L 176 136 L 176 144 L 80 144 Z M 80 136 "/>
<path style=" stroke:none;fill-rule:evenodd;fill:rgb(97.647059%,97.647059%,97.647059%);fill-opacity:1;" d="M 80 152 L 176 152 L 176 160 L 80 160 Z M 80 152 "/>
<path style=" stroke:none;fill-rule:evenodd;fill:rgb(97.647059%,97.647059%,97.647059%);fill-opacity:1;" d="M 80 168 L 176 168 L 176 176 L 80 176 Z M 80 168 "/>
</g>
</svg>
