<?xml version="1.0" encoding="UTF-8" standalone="no"?>
<svg
   xmlns:dc="http://purl.org/dc/elements/1.1/"
   xmlns:cc="http://creativecommons.org/ns#"
   xmlns:rdf="http://www.w3.org/1999/02/22-rdf-syntax-ns#"
   xmlns:svg="http://www.w3.org/2000/svg"
   xmlns="http://www.w3.org/2000/svg"
   xmlns:sodipodi="http://sodipodi.sourceforge.net/DTD/sodipodi-0.dtd"
   xmlns:inkscape="http://www.inkscape.org/namespaces/inkscape"
   width="256"
   height="256"
   viewBox="0 0 256 256"
   version="1.1"
   id="svg2"
   inkscape:version="0.91 r13725"
   sodipodi:docname="application-vnd.openxmlformats-officedocument.wordprocessingml.document.svg">
  <metadata
     id="metadata37">
    <rdf:RDF>
      <cc:Work
         rdf:about="">
        <dc:format>image/svg+xml</dc:format>
        <dc:type
           rdf:resource="http://purl.org/dc/dcmitype/StillImage" />
        <dc:title></dc:title>
      </cc:Work>
    </rdf:RDF>
  </metadata>
  <defs
     id="defs35" />
  <sodipodi:namedview
     pagecolor="#ffffff"
     bordercolor="#666666"
     borderopacity="1"
     objecttolerance="10"
     gridtolerance="10"
     guidetolerance="10"
     inkscape:pageopacity="0"
     inkscape:pageshadow="2"
     inkscape:window-width="1280"
     inkscape:window-height="998"
     id="namedview33"
     showgrid="true"
     inkscape:zoom="1.84375"
     inkscape:cx="207.62725"
     inkscape:cy="158.98136"
     inkscape:window-x="0"
     inkscape:window-y="0"
     inkscape:window-maximized="1"
     inkscape:current-layer="svg2">
    <inkscape:grid
       type="xygrid"
       id="grid3404" />
  </sodipodi:namedview>
  <path
     inkscape:connector-curvature="0"
     id="path5"
     d="M 42.6875,0 C 37.1875,0 32,5.42188 32,11.15625 l 0,233.68751 C 32,250.26562 37.5,256 42.6875,256 l 170.625,0 C 218.5,256 224,250.26562 224,244.84376 L 224,72 152,0 Z m 0,0"
     style="fill:#3366cc;fill-opacity:1;fill-rule:nonzero;stroke:none" />
  <path
     inkscape:connector-curvature="0"
     id="path7"
     d="m 168,72 56,56 0,-56 z m 0,0"
     style="fill:#000000;fill-opacity:0.19607801;fill-rule:nonzero;stroke:none" />
  <path
     inkscape:connector-curvature="0"
     id="path9"
     d="m 152,0 71.9375,72 -60.90625,0 C 157.64062,72 152,66.296876 152,60.906248 Z m 0,0"
     style="fill:#ffffff;fill-opacity:0.39215698;fill-rule:nonzero;stroke:none" />
  <path
     inkscape:connector-curvature="0"
     id="path11"
     d="m 80,88 48,0 0,40 -48,0 z m 0,0"
     style="fill:#f8f8f8;fill-opacity:1;fill-rule:evenodd;stroke:none" />
  <path
     inkscape:connector-curvature="0"
     id="path13"
     d="m 136,88 40,0 0,8 -40,0 z m 0,0"
     style="fill:#f8f8f8;fill-opacity:1;fill-rule:evenodd;stroke:none" />
  <path
     inkscape:connector-curvature="0"
     id="path15"
     d="m 32,192 0,53.34376 C 32,250.53124 37.5,256 42.656248,256 l 170.687512,0 C 218.5,256 224,250.53124 224,245.34376 L 224,192 Z m 0,0"
     style="fill:#000000;fill-opacity:0.19607801;fill-rule:nonzero;stroke:none" />
  <path
     inkscape:connector-curvature="0"
     id="path17"
     d="m 136,104 40,0 0,8 -40,0 z m 0,0"
     style="fill:#f8f8f8;fill-opacity:1;fill-rule:evenodd;stroke:none" />
  <path
     inkscape:connector-curvature="0"
     id="path25"
     d="m 136,120 40,0 0,8 -40,0 z m 0,0"
     style="fill:#f8f8f8;fill-opacity:1;fill-rule:evenodd;stroke:none" />
  <path
     inkscape:connector-curvature="0"
     id="path27"
     d="m 80,136 96,0 0,8 -96,0 z m 0,0"
     style="fill:#f8f8f8;fill-opacity:1;fill-rule:evenodd;stroke:none" />
  <path
     inkscape:connector-curvature="0"
     id="path29"
     d="m 80,152 96,0 0,8 -96,0 z m 0,0"
     style="fill:#f8f8f8;fill-opacity:1;fill-rule:evenodd;stroke:none" />
  <path
     inkscape:connector-curvature="0"
     id="path31"
     d="m 80,168 96,0 0,8 -96,0 z m 0,0"
     style="fill:#f8f8f8;fill-opacity:1;fill-rule:evenodd;stroke:none" />
  <g
     id="g3420"
     transform="matrix(3.309714,0,0,3.3182972,4.606149,38.296704)">
    <path
       style="fill:#ffffff;fill-opacity:1;fill-rule:nonzero;stroke:none"
       d="m 20.386719,60.152344 c 0.06641,0.01563 0.140625,0.01563 0.222656,0.01563 0.07422,0 0.148437,0 0.214844,0 0.558593,0 1.019531,-0.08984 1.390625,-0.28125 0.386718,-0.179688 0.691406,-0.433594 0.910156,-0.761719 0.242188,-0.324219 0.40625,-0.707031 0.496094,-1.144531 0.105468,-0.453125 0.164062,-0.945313 0.164062,-1.480469 0,-0.460938 -0.04297,-0.914062 -0.125,-1.359375 -0.08203,-0.433594 -0.210937,-0.820313 -0.417968,-1.15625 -0.199219,-0.339844 -0.46875,-0.601563 -0.804688,-0.800781 -0.347656,-0.210938 -0.792969,-0.3125 -1.332031,-0.3125 -0.109375,0 -0.222657,0 -0.363281,0.01953 -0.132813,0 -0.246094,0.0078 -0.355469,0.03125 l 0,7.230469 M 26.261719,56.5 c 0,0.996094 -0.148438,1.851562 -0.4375,2.558594 -0.277344,0.699218 -0.664063,1.265625 -1.167969,1.703125 -0.5,0.441406 -1.109375,0.761719 -1.808594,0.96875 -0.683594,0.199219 -1.449218,0.296875 -2.277344,0.296875 -0.4375,0 -0.875,-0.01563 -1.292968,-0.06641 -0.410156,-0.03125 -0.855469,-0.09766 -1.332032,-0.1875 l 0,-10.503907 c 0.558594,-0.109375 1.078126,-0.171875 1.570313,-0.207031 0.484375,-0.03125 0.945313,-0.05859 1.367187,-0.05859 0.804688,0 1.546876,0.109375 2.203126,0.3125 0.675781,0.214844 1.242187,0.542969 1.710937,0.996094 0.460937,0.4375 0.8125,1.011719 1.070313,1.703125 0.261718,0.683594 0.394531,1.511719 0.394531,2.484375"
       id="path19"
       inkscape:connector-curvature="0" />
    <path
       style="fill:#ffffff;fill-opacity:1;fill-rule:nonzero;stroke:none"
       d="m 29.8125,56.5 c 0,0.527344 0.01563,1.019531 0.05859,1.480469 0.05859,0.453125 0.148437,0.847656 0.28125,1.183593 0.148437,0.335938 0.34375,0.601563 0.589844,0.796876 0.253906,0.199218 0.59375,0.296874 1.011718,0.296874 0.410156,0 0.742188,-0.09766 0.996094,-0.296874 0.261719,-0.195313 0.460938,-0.460938 0.59375,-0.796876 0.144531,-0.351562 0.238281,-0.746093 0.277344,-1.199218 0.05078,-0.453125 0.08203,-0.9375 0.08203,-1.464844 0,-0.519531 -0.03125,-1.003906 -0.08203,-1.457031 C 33.58203,54.574219 33.488281,54.179688 33.34375,53.84375 33.210938,53.503906 33.019531,53.242188 32.765625,53.046875 32.519531,52.847656 32.183594,52.75 31.753906,52.75 c -0.417968,0 -0.757812,0.09766 -1.011718,0.296875 -0.246094,0.195313 -0.441407,0.46875 -0.589844,0.8125 -0.132813,0.335937 -0.222656,0.730469 -0.28125,1.183594 -0.03906,0.453125 -0.05859,0.9375 -0.05859,1.457031 m -2.484375,0 c 0,-1.851562 0.394531,-3.25 1.179687,-4.1875 0.78125,-0.953125 1.855469,-1.421875 3.246094,-1.421875 1.449219,0 2.542969,0.46875 3.300782,1.421875 0.746093,0.9375 1.125,2.335938 1.125,4.1875 0,1.859375 -0.378907,3.257812 -1.152344,4.210938 -0.765625,0.9375 -1.851563,1.40625 -3.246094,1.40625 -1.449219,0 -2.550781,-0.46875 -3.316406,-1.40625 C 27.707031,59.757812 27.328125,58.359375 27.328125,56.5"
       id="path21"
       inkscape:connector-curvature="0" />
    <path
       style="fill:#ffffff;fill-opacity:1;fill-rule:nonzero;stroke:none"
       d="m 42.585938,62.117188 c -1.726563,0 -3.050782,-0.484376 -3.964844,-1.464844 C 37.710938,59.683594 37.25,58.300781 37.25,56.5 c 0,-0.886719 0.140625,-1.6875 0.417969,-2.378906 0.28125,-0.699219 0.667969,-1.28125 1.152343,-1.757813 0.5,-0.484375 1.09375,-0.847656 1.769532,-1.09375 0.679687,-0.253906 1.429687,-0.378906 2.234375,-0.378906 0.4375,0 0.832031,0.03125 1.175781,0.09766 0.355469,0.05859 0.667969,0.132813 0.929688,0.214844 0.265624,0.08203 0.488281,0.164063 0.660156,0.253906 0.179687,0.09766 0.320312,0.164063 0.410156,0.214844 L 45.367188,53.375 C 45.0625,53.203125 44.691406,53.054688 44.257812,52.9375 43.835938,52.816406 43.34375,52.75 42.785156,52.75 c -0.378906,0 -0.757812,0.06641 -1.128906,0.1875 -0.351562,0.117188 -0.679688,0.320312 -0.96875,0.609375 -0.28125,0.28125 -0.511719,0.65625 -0.699219,1.125 -0.171875,0.480469 -0.253906,1.070313 -0.253906,1.777344 0,1.226562 0.238281,2.171875 0.714844,2.832031 0.484375,0.648438 1.28125,0.976562 2.375,0.976562 0.632812,0 1.160156,-0.06641 1.570312,-0.1875 0.421875,-0.132812 0.757813,-0.257812 1.011719,-0.386718 l 0.617188,1.683594 c -0.34375,0.191406 -0.8125,0.363281 -1.414063,0.519531 -0.574219,0.15625 -1.25,0.230469 -2.023437,0.230469"
       id="path23"
       inkscape:connector-curvature="0" />
    <path
       style="fill:#ffffff;fill-opacity:1;fill-rule:nonzero;stroke:none"
       d="M 54.00216,62 C 53.748254,61.398437 53.43966,60.730469 53.072473,60 52.72091,59.265625 52.34591,58.539063 51.951379,57.8125 51.568567,58.503906 51.18966,59.222656 50.806848,59.984375 50.427941,60.722656 50.103723,61.398437 49.826379,62 l -2.625,0 c 0.132812,-0.324219 0.324219,-0.703125 0.578125,-1.152344 0.257813,-0.445312 0.542969,-0.929687 0.84375,-1.449219 0.316406,-0.515624 0.644531,-1.050781 0.988281,-1.585937 0.339844,-0.5625 0.667969,-1.089844 0.976563,-1.597656 l -3.1875,-5.160157 2.621093,0 1.929688,3.503907 2.03125,-3.503907 2.445312,0 -3.113281,5.109376 c 0.351563,0.507812 0.703125,1.035156 1.039063,1.589843 0.339844,0.558594 0.660156,1.09375 0.941406,1.628907 0.3125,0.519531 0.570312,1.003906 0.796875,1.464843 0.21875,0.449219 0.402344,0.828125 0.527344,1.152344 l -2.617188,0"
       id="path15-6"
       inkscape:connector-curvature="0" />
  </g>
</svg>
