
<svg xmlns="http://www.w3.org/2000/svg" xmlns:xlink="http://www.w3.org/1999/xlink" width="256px" height="256px" viewBox="0 0 256 256" version="1.1">
<g id="surface1">
<path style=" stroke:none;fill-rule:nonzero;fill:rgb(86.27451%,19.607843%,18.431373%);fill-opacity:1;" d="M 42.65625 5.34375 C 37.1875 5.34375 32 10.5 32 16 L 32 240 C 32 245.1875 37.5 250.65625 42.65625 250.65625 L 213.34375 250.65625 C 218.5 250.65625 224 245.1875 224 240 L 224 74.65625 L 154.65625 5.34375 Z M 42.65625 5.34375 "/>
<path style=" stroke:none;fill-rule:nonzero;fill:rgb(0%,0%,0%);fill-opacity:0.196078;" d="M 154.65625 64 L 155 64.34375 L 155.84375 64 Z M 165.34375 74.65625 L 224 133.34375 L 224 74.65625 Z M 165.34375 74.65625 "/>
<path style=" stroke:none;fill-rule:nonzero;fill:rgb(100%,100%,100%);fill-opacity:0.392157;" d="M 154.65625 5.34375 L 224 74.65625 L 165.34375 74.65625 C 160.15625 74.65625 154.65625 69.1875 154.65625 64 Z M 154.65625 5.34375 "/>
<path style=" stroke:none;fill-rule:nonzero;fill:rgb(100%,100%,100%);fill-opacity:1;" d="M 82.34375 96.03125 C 80.09375 96.28125 80 97.375 80 101.375 L 80 117.375 L 176 117.375 L 176 101.375 C 176 96.03125 176 96.03125 170.65625 96.03125 L 85.34375 96.03125 C 84 96.03125 83.09375 95.96875 82.34375 96.03125 Z M 80 122.6875 L 80 186.65625 C 80 192 80 192 85.34375 192 L 170.65625 192 C 176 192 176 192 176 186.65625 L 176 122.6875 Z M 145.34375 133.34375 C 148.8125 133.34375 151.90625 134.21875 154.5 135.84375 C 157.125 137.46875 159.09375 139.75 160.5 142.84375 C 161.90625 145.9375 162.65625 149.59375 162.65625 153.84375 C 162.65625 163.0625 160.75 169.96875 156.84375 174.5 C 152.90625 179.0625 146.9375 181.34375 139 181.34375 C 136.1875 181.34375 134.125 181.125 132.65625 180.84375 L 132.65625 173 C 134.46875 173.46875 136.34375 173.6875 138.34375 173.6875 C 141.6875 173.6875 144.34375 173.125 146.5 172.1875 C 148.65625 171.1875 150.34375 169.75 151.5 167.6875 C 152.65625 165.59375 153.3125 162.65625 153.5 159 L 153 159 C 151.75 161.03125 150.3125 162.375 148.65625 163.1875 C 147.03125 164 145.125 164.5 142.65625 164.5 C 138.5625 164.5 135.21875 163.125 132.84375 160.5 C 130.46875 157.875 129.34375 154.34375 129.34375 149.6875 C 129.34375 144.65625 130.8125 140.59375 133.65625 137.6875 C 136.5625 134.75 140.375 133.34375 145.34375 133.34375 Z M 108.5 133.84375 L 116.84375 133.84375 L 116.84375 180.65625 L 106.84375 180.65625 L 106.84375 149.1875 L 107 144.34375 C 105.34375 146 104.15625 147 103.5 147.53125 L 98.15625 151.84375 L 93.34375 145.84375 Z M 144.15625 141.34375 C 142.78125 141.625 141.53125 142.28125 140.65625 143.34375 C 139.5 144.75 139 146.875 139 149.53125 C 139 151.78125 139.4375 153.53125 140.5 154.84375 C 141.5625 156.15625 143.1875 156.84375 145.34375 156.84375 C 147.34375 156.84375 149.0625 156.15625 150.5 154.84375 C 151.9375 153.53125 152.65625 152.0625 152.65625 150.34375 C 152.65625 147.8125 152.03125 145.59375 150.65625 143.84375 C 149.34375 142.09375 147.59375 141.34375 145.5 141.34375 C 144.96875 141.34375 144.625 141.25 144.15625 141.34375 Z M 144.15625 141.34375 "/>
</g>
</svg>
