<svg width="24" xmlns="http://www.w3.org/2000/svg" height="24" viewBox="0 0 24 24">
<g style="fill-rule:evenodd" transform="translate(1 1)">
<path style="fill:#fff" d="m 3,2 10,0 c 2,0 2,0 2,2 l 0,14 c 0,2 0,2 -2,2 L 3,20 C 1,20 1,20 1,18 L 1,4 C 1,2 1,2 3,2 z"/>
<path style="fill:#268bd2" d="m 13.957456,18.104503 6.875,-5.5 c 1.378907,-1.378906 1.375,-1.375 0,-2.7500003 l -6.875,-5.5 c -0.957031,-0.767583 -0.957031,-0.482666 -0.957031,1.415042 -0.01953,0.6875 -0.04297,1.459958 0,2.459958 -0.01563,0 0.01563,0 0,0 -6.8320305,0 -10.0429683,4.3750003 -9.9999995,9.9179693 2.707031,-2.792969 5.875,-4.003907 9.9999995,-3.917969 0,0.984374 -0.01953,1.335937 0,2 0,1 0,2.554347 0.957031,1.875 z"/>
</g>
</svg>
