<svg width="24" xmlns="http://www.w3.org/2000/svg" height="24" viewBox="0 0 24 24">
<g style="fill:#888" transform="translate(1 1)">
<path d="m 13.75,8.4375 c 0,0.476562 -0.08594,0.878906 -0.253906,1.199219 -0.167969,0.316406 -0.398438,0.570312 -0.691406,0.765625 -0.285157,0.1875 -0.628907,0.324218 -1.027344,0.410156 -0.390625,0.07422 -0.8125,0.113281 -1.265625,0.113281 C 9.714844,10.933594 8.730469,10.644531 8,10.53125 L 8,3 c 0.730469,-0.128906 1.660156,-0.125 2.351562,-0.160156 0.621094,0 1.128907,0.0625 1.519532,0.191406 0.390625,0.117188 0.695312,0.28125 0.917968,0.484375 0.222657,0.195313 0.375,0.417969 0.453126,0.664063 0.08203,0.246093 0.121093,0.492187 0.121093,0.738281 0,0.375 -0.09766,0.707031 -0.292969,0.996093 -0.1875,0.289063 -0.441406,0.519532 -0.761718,0.6875 0.5625,0.195313 0.9375,0.460938 1.132812,0.792969 C 13.648438,7.726562 13.75,8.074219 13.75,8.4375 m -3.894531,-1.070312 0,2.144531 c 0.117187,0.015625 0.242187,0.027343 0.375,0.039062 0.140625,0.00781 0.28125,0.011719 0.414062,0.011719 0.183594,0 0.367188,-0.011719 0.546875,-0.039062 C 11.367188,9.488281 11.523438,9.433594 11.65625,9.359375 11.800781,9.273438 11.914062,9.15625 12.003906,9.011719 12.09375,8.859375 12.136719,8.667969 12.136719,8.4375 12.136719,8.054688 12.007812,7.785156 11.75,7.621094 11.5,7.453125 11.164062,7.367188 10.738281,7.367188 l -0.882812,0 m 0.640625,-1.300782 c 0.417968,0 0.734375,-0.085937 0.945312,-0.253906 0.214844,-0.179688 0.320313,-0.421875 0.320313,-0.726562 0,-0.1875 -0.03125,-0.335938 -0.08984,-0.449219 -0.0625,-0.117188 -0.148441,-0.207031 -0.25391,-0.265625 -0.109375,-0.070313 -0.234375,-0.113282 -0.375,-0.128906 -0.140625,-0.023438 -0.289063,-0.039063 -0.441407,-0.039063 -0.121093,0 -0.25,0.00391 -0.386718,0.015625 -0.132813,0.00781 -0.25,0.019531 -0.359375,0.035156 l 0,1.8125 0.640625,0"/>
<path d="m 19.394531,10.992188 c -1.316406,0 -2.320312,-0.359376 -3.015625,-1.074219 C 15.6875,9.203125 15,8.316406 15,7 14.972656,5.605468 15.597656,4.652344 16.53125,3.835938 16.910156,3.476562 17.359375,3.210938 17.871094,3.03125 18.394531,2.84375 18.960938,2.75 19.574219,2.75 c 0.332031,0 0.628906,0.027344 0.890625,0.078125 0.269531,0.039063 0.503906,0.09375 0.707031,0.152344 0.199219,0.058593 0.367187,0.121093 0.496094,0.191406 0.140625,0.066406 0.246093,0.117187 0.316406,0.152344 l -0.480469,1.25 C 21.273438,4.445312 20.992188,4.339844 20.660156,4.253906 20.335938,4.160156 19.964844,4.113281 19.542969,4.113281 c -0.289063,0 -0.578125,0.046875 -0.859375,0.140625 C 18.414062,4.339844 18.167969,4.488281 17.945312,4.703125 17.734375,4.90625 17.525636,5.1176773 17.385011,5.4653333 17.256104,5.8129893 17,6.480469 17,7 c 0,0.902344 0.402344,1.425781 0.765625,1.910156 0.371094,0.476563 0.972656,0.714844 1.808594,0.714844 0.480469,0 0.878906,-0.046875 1.191406,-0.140625 0.320313,-0.09375 0.578125,-0.1875 0.765625,-0.28125 L 22,10.441406 c -0.261719,0.136719 -0.617188,0.265625 -1.070312,0.382813 -0.441407,0.109375 -0.953126,0.167969 -1.535157,0.167969"/>
<path d="M 3,3 0,11 1.375,11 2.5080526,8 4.4328642,8 5.5,11 6.875,11 4,3 z M 3.4375,4.820312 4,7 2.6511249,7 z"/>
</g>
<g transform="translate(1 1)">
<path style="fill:#859900" d="m 11,16 8,-8 3,3 -11,11 C 8.707031,19.707032 6.292969,17.289063 4,15 l 3,-3 z"/>
</g>
</svg>
