<svg width="256" xmlns="http://www.w3.org/2000/svg" height="256" viewBox="0 0 256 256" xmlns:xlink="http://www.w3.org/1999/xlink">
<path style="fill:#fff;stroke:#777;stroke-width:.792" d="M 43.604004 24 C 43.603271 34.825928 34.825928 43.601807 24 43.601807 C 13.174072 43.601807 4.397461 34.825928 4.395996 24 C 4.394531 13.171875 13.171875 4.393799 24 4.393799 C 34.828125 4.393799 43.605469 13.171875 43.604004 24 Z " transform="scale(5.33333)"/>
<path style="fill:#dc322f" d="M 128 64 C 120.078125 64 113.703125 69.707031 113.703125 76.800781 L 113.703125 105.601562 L 85.554688 91.199219 C 78.695312 87.65625 69.855469 89.859375 65.894531 96 C 61.933594 102.140625 64.398438 110.054688 71.257812 113.601562 L 98.957031 128 L 71.257812 142.398438 C 64.398438 145.945312 61.933594 153.859375 65.894531 160 C 69.855469 166.140625 78.695312 168.34375 85.554688 164.800781 L 113.703125 150.398438 L 113.703125 179.199219 C 113.703125 186.292969 120.078125 192 128 192 C 135.921875 192 142.296875 186.292969 142.296875 179.199219 L 142.296875 150.398438 L 170.445312 164.800781 C 177.304688 168.34375 186.144531 166.140625 190.105469 160 C 194.066406 153.859375 191.601562 145.945312 184.742188 142.398438 L 157.042969 128 L 184.742188 113.601562 C 191.601562 110.054688 194.066406 102.140625 190.105469 96 C 186.144531 89.859375 177.304688 87.65625 170.445312 91.199219 L 142.296875 105.601562 L 142.296875 76.800781 C 142.296875 69.707031 135.921875 64 128 64 Z "/>
</svg>
