<svg width="256" xmlns="http://www.w3.org/2000/svg" height="256" viewBox="0 0 256 256" xmlns:xlink="http://www.w3.org/1999/xlink">
<path style="stroke-opacity:.941;fill:#53a93e;stroke:#859900;fill-opacity:.941;stroke-width:.792" d="M 43.604004 24 C 43.603271 34.825928 34.825928 43.601807 24 43.601807 C 13.174072 43.601807 4.397461 34.825928 4.395996 24 C 4.394531 13.171875 13.171875 4.393799 24 4.393799 C 34.828125 4.393799 43.605469 13.171875 43.604004 24 Z " transform="scale(5.33333)"/>
<path style="fill:#fff" d="M 128.628906 53.332031 C 91.554688 53.332031 61.308594 84.710938 59.054688 124.25 L 37.332031 124.25 L 72.277344 180.847656 L 107.222656 124.25 L 82.351562 124.25 C 84.5 98.597656 104.375 78.5625 128.628906 78.5625 C 137.601562 78.5625 146.089844 81.308594 153.183594 86.0625 L 165.148438 64.585938 C 154.527344 57.511719 142.003906 53.332031 128.628906 53.332031 Z M 183.722656 75.152344 L 148.777344 131.75 L 173.648438 131.75 C 171.5 157.402344 151.625 177.4375 127.371094 177.4375 C 118.398438 177.4375 109.910156 174.691406 102.816406 169.9375 L 90.851562 191.414062 C 101.472656 198.488281 113.996094 202.667969 127.371094 202.667969 C 164.445312 202.667969 194.691406 171.289062 196.945312 131.75 L 218.667969 131.75 Z "/>
</svg>
