<svg width="256" xmlns="http://www.w3.org/2000/svg" height="256" viewBox="0 0 256 256" xmlns:xlink="http://www.w3.org/1999/xlink">
<path style="fill:#fff;stroke:#777;stroke-width:.5" d="M 25.932037 35.186401 C 25.932037 42.094842 20.445935 47.694777 13.677926 47.694777 C 6.909918 47.694777 1.423816 42.094842 1.423816 35.186401 C 1.423816 28.278427 6.909918 22.678024 13.677926 22.678024 C 20.445935 22.678024 25.932037 28.278427 25.932037 35.186401 Z " transform="matrix(8.53221 0 0 8.35877 11.29701 -166.11515)"/>
<g style="fill:#427fec">
<path d="M 60.628906 78.917969 L 195.371094 78.917969 C 199.398438 78.917969 202.667969 82.417969 202.667969 86.75 L 202.667969 177.773438 C 202.667969 182.082031 199.398438 185.585938 195.371094 185.585938 L 60.628906 185.585938 C 56.601562 185.585938 53.332031 182.082031 53.332031 177.773438 L 53.332031 86.75 C 53.332031 82.417969 56.601562 78.917969 60.628906 78.917969 Z "/>
<path d="M 73.070312 70.414062 L 94.378906 70.414062 C 97.34375 70.414062 99.726562 72.796875 99.726562 75.761719 C 99.726562 78.703125 97.34375 81.082031 94.378906 81.082031 L 73.070312 81.082031 C 70.105469 81.082031 67.726562 78.703125 67.726562 75.761719 C 67.726562 72.796875 70.105469 70.414062 73.070312 70.414062 Z "/>
</g>
<g style="fill:#fff">
<path d="M 178.148438 91.246094 L 182.941406 91.246094 C 185.585938 91.246094 187.730469 93.535156 187.730469 96.339844 L 187.730469 101.433594 C 187.730469 104.234375 185.585938 106.503906 182.941406 106.503906 L 178.148438 106.503906 C 175.480469 106.503906 173.339844 104.234375 173.339844 101.433594 L 173.339844 96.339844 C 173.339844 93.535156 175.480469 91.246094 178.148438 91.246094 Z "/>
<path d="M 156.539062 134.472656 C 156.539062 152.722656 142.574219 167.511719 125.332031 167.511719 C 108.089844 167.511719 94.121094 152.722656 94.121094 134.472656 C 94.121094 116.21875 108.089844 101.433594 125.332031 101.433594 C 142.574219 101.433594 156.539062 116.21875 156.539062 134.472656 Z "/>
</g>
</svg>
