<svg width="256" xmlns="http://www.w3.org/2000/svg" height="256" viewBox="0 0 256 256" xmlns:xlink="http://www.w3.org/1999/xlink">
<path style="fill:#427fec;fill-rule:evenodd" d="M 127.984375 24 L 128.015625 24 C 185.445312 24 232 70.554688 232 127.984375 L 232 128.015625 C 232 185.445312 185.445312 232 128.015625 232 L 127.984375 232 C 70.554688 232 24 185.445312 24 128.015625 L 24 127.984375 C 24 70.554688 70.554688 24 127.984375 24 Z "/>
<path style="fill:#fff" d="M 29.957031 130.839844 L 31.058594 125.457031 L 43.144531 130.375 L 51.480469 137.894531 L 58.644531 138.914062 C 56.085938 144.542969 50.90625 153.617188 51.851562 159.902344 C 52.398438 163.558594 56.246094 168.769531 58.445312 171.742188 C 61.515625 175.898438 67.300781 178.351562 68.847656 183.585938 L 69.105469 192.195312 L 70.789062 198.65625 C 70.453125 201.390625 67.816406 206.136719 69.554688 208.675781 C 71.464844 211.46875 78.535156 214.984375 81.816406 215.863281 C 84.949219 216.699219 85.292969 213.519531 84.027344 211.570312 L 88.117188 206.089844 L 93.296875 202.363281 L 96.945312 190.074219 L 104.792969 185.128906 C 108.007812 180.445312 105.675781 176.554688 106.878906 171.742188 L 112.164062 157.210938 C 106.183594 155.035156 97.625 152.359375 93.40625 147.523438 L 92.300781 148.0625 L 91.199219 143.21875 L 84.578125 139.988281 L 83.472656 141.066406 L 81.820312 133.53125 L 72.992188 132.847656 L 66.371094 129.316406 C 63.515625 128.921875 59.722656 133.480469 58.644531 135.683594 L 54.785156 135.144531 L 55.886719 134.070312 L 52.578125 131.914062 L 53.128906 134.070312 C 50.75 131.667969 50.34375 128.644531 50.921875 125.457031 L 47.058594 123.84375 L 46.507812 125.457031 C 45.816406 122.792969 46.101562 119.351562 48.164062 117.382812 C 45.140625 115.371094 43.097656 117.261719 40.992188 119.535156 L 36.578125 110.925781 C 35.363281 113.566406 35.800781 116.203125 36.023438 119 L 34.921875 119 C 34.679688 115.988281 33.914062 112.695312 35.480469 109.855469 C 38.40625 104.550781 47.183594 102.304688 52.578125 103.390625 L 52.023438 104.46875 L 56.992188 108.773438 C 57.011719 100.542969 60.328125 99.671875 64.992188 93.679688 L 68.257812 87.902344 C 71.875 84.019531 77.492188 81.375 82.347656 79.628906 L 88.441406 75.941406 C 86.46875 72.617188 81.28125 73.574219 77.957031 73.789062 C 83.933594 70.46875 92.070312 72.261719 96.164062 66.253906 C 91.695312 63.082031 91.695312 54.808594 84.578125 58.179688 L 85.679688 54.953125 L 79.613281 52.261719 L 75.183594 61.261719 L 69.128906 68.40625 L 68.578125 64.640625 C 66.242188 63.582031 59.8125 61.730469 59.6875 58.71875 C 59.550781 55.441406 69.929688 50.480469 72.4375 48.492188 L 71.335938 51.183594 L 75.613281 50.796875 C 76.519531 50.238281 85.128906 38.40625 86.234375 45.800781 C 92.214844 48.011719 92.890625 50.539062 98.921875 46.878906 L 95.058594 45.261719 C 94.453125 39.949219 89.640625 39.882812 85.128906 39.882812 L 99.472656 33.421875 C 101.070312 37.242188 106.082031 38.027344 107.703125 41.546875 C 108.855469 44.046875 105.433594 45.554688 105.519531 47.953125 C 105.625 50.914062 108.574219 54.535156 109.957031 57.105469 L 118.257812 48.253906 C 122.835938 45.871094 130.199219 45.613281 133.847656 41.765625 C 138.070312 37.308594 135.75 30.21875 143.613281 30.191406 C 142.019531 29.539062 139.449219 29.042969 138.097656 30.191406 L 136.441406 28.578125 L 138.648438 28.578125 C 137.496094 27.035156 136.714844 26.203125 134.785156 25.886719 C 132.570312 23.214844 127.46875 24.472656 124.300781 24.179688 C 113.28125 23.164062 101.378906 26.617188 91.199219 30.011719 C 56.460938 41.589844 25.363281 78.847656 24.003906 115.769531 C 23.851562 119.960938 27.503906 121.824219 29.3125 125.03125 L 29.957031 130.839844 M 176.164062 40.417969 C 174.226562 41.96875 170.921875 42.738281 168.441406 43.109375 L 163.945312 49.160156 L 158.683594 53.433594 C 157.839844 55.394531 159.195312 58.359375 159.613281 60.332031 L 165.132812 57.640625 C 165.925781 60.316406 168.070312 61.003906 170.097656 62.484375 C 173.367188 56.429688 170.550781 50.644531 178.371094 47.414062 L 173.40625 53.335938 L 175.0625 52.261719 L 175.613281 55.488281 L 176.164062 51.183594 C 177.621094 56.039062 176.097656 62.71875 170.648438 64.550781 L 165.132812 64.101562 L 165.132812 60.871094 C 161.992188 61.511719 162.097656 63.035156 162.925781 65.714844 C 160.792969 65.125 159.527344 65.230469 157.957031 66.792969 C 156.273438 65.101562 154.898438 63.804688 154.648438 61.410156 C 153.578125 60.367188 153.101562 59.660156 152.992188 58.179688 L 149.132812 57.640625 L 150.785156 66.253906 C 149.3125 63.558594 147.789062 62.914062 144.71875 63.5625 L 146.371094 70.019531 L 148.578125 69.484375 L 146.925781 68.945312 L 149.132812 65.175781 L 150.234375 71.097656 L 155.199219 70.019531 C 153.808594 71.316406 152.703125 71.632812 150.785156 71.636719 L 151.339844 73.25 L 148.578125 73.25 L 152.441406 79.710938 C 143.402344 79.78125 143.292969 84.292969 143.613281 91.550781 C 145.378906 91.675781 146.242188 91.929688 147.476562 93.164062 C 154.777344 89.414062 156.464844 82.4375 165.132812 80.246094 C 166.539062 84.515625 170.878906 84.25 169.546875 89.398438 C 173.804688 88.550781 174.996094 85.054688 172.304688 81.863281 C 175.933594 83.96875 176.976562 88.300781 179.476562 91.550781 C 181.234375 89.296875 180.550781 86.722656 183.339844 85.089844 L 183.339844 86.707031 C 188.011719 90.75 191.234375 91.660156 197.132812 93.703125 C 195.105469 96.507812 192.664062 99.261719 188.855469 99.03125 C 184.199219 98.75 178.253906 94.292969 175.0625 99.625 L 166.1875 92.761719 C 161.261719 90.734375 156.414062 92.640625 151.339844 92.089844 L 149.132812 93.164062 L 150.234375 93.703125 C 140.125 98.140625 134.523438 109.824219 133.472656 119.539062 L 131.542969 125.996094 C 132.617188 132.300781 138.089844 138.835938 142.691406 143.128906 C 145.929688 146.148438 148.257812 140.234375 151.339844 143.21875 C 155.417969 141.714844 161.570312 139.097656 165.3125 143.300781 C 167.769531 146.0625 165.210938 148.339844 166.0625 151.292969 C 167.539062 156.40625 171.054688 162.394531 171.042969 167.976562 L 169.660156 181.433594 C 170.871094 189.628906 175.542969 196.523438 175.613281 205.113281 C 182.378906 204.433594 189.980469 201.113281 193.738281 195.425781 L 195.351562 190.632812 L 198.140625 187.304688 L 197.089844 182.019531 C 198.667969 178.324219 205.050781 177.929688 206.011719 173.890625 C 207.324219 168.390625 203.902344 161.867188 205.941406 156.136719 C 209.089844 147.300781 217.855469 140.839844 218.097656 130.839844 L 211.476562 131.378906 C 217.433594 124.25 230.054688 120.664062 223.613281 109.851562 L 220.855469 113.078125 L 219.753906 113.078125 C 217.625 108.71875 214.238281 108.269531 214.234375 102.855469 C 219.398438 107.191406 224.753906 107.328125 229.683594 112.542969 C 235.027344 109.71875 229.648438 97.421875 228.210938 93.164062 C 223.433594 79.015625 215.605469 65.601562 204.855469 54.953125 C 201.011719 51.144531 197.9375 46.535156 192.164062 45.804688 L 192.71875 44.1875 C 188.234375 43.609375 180.730469 43.574219 177.269531 40.421875 L 176.164062 40.421875 Z "/>
<path style="fill:none;stroke:#427fec" d="M 7.999023 2 L 8.000977 2 C 11.314209 2 14 4.685791 14 7.999023 L 14 8.000977 C 14 11.314209 11.314209 14 8.000977 14 L 7.999023 14 C 4.685791 14 2 11.314209 2 8.000977 L 2 7.999023 C 2 4.685791 4.685791 2 7.999023 2 Z " transform="scale(16)"/>
</svg>
