<svg width="256" xmlns="http://www.w3.org/2000/svg" height="256" viewBox="0 0 256 256" xmlns:xlink="http://www.w3.org/1999/xlink">
<path style="fill:#fff;stroke:#777;stroke-width:.5" d="M 25.932037 35.186401 C 25.932037 42.094842 20.445935 47.694777 13.677926 47.694777 C 6.909918 47.694777 1.423816 42.094842 1.423816 35.186401 C 1.423816 28.278427 6.909918 22.678024 13.677926 22.678024 C 20.445935 22.678024 25.932037 28.278427 25.932037 35.186401 Z " transform="matrix(8.53221 0 0 8.35877 11.29701 -166.11515)"/>
<path style="fill:#dc322f" d="M 128 58.667969 C 89.707031 58.667969 58.667969 89.707031 58.667969 128 C 58.667969 166.292969 89.707031 197.332031 128 197.332031 C 166.292969 197.332031 197.332031 166.292969 197.332031 128 C 197.332031 89.707031 166.292969 58.667969 128 58.667969 Z M 128 76 C 156.71875 76 180 99.28125 180 128 C 180 156.71875 156.71875 180 128 180 C 99.28125 180 76 156.71875 76 128 C 76 99.28125 99.28125 76 128 76 Z M 127.457031 84.667969 C 122.988281 84.667969 119.332031 88.320312 119.332031 92.792969 L 119.332031 128.542969 C 119.332031 133.011719 122.988281 136.667969 127.457031 136.667969 C 127.644531 136.679688 127.8125 136.667969 128 136.667969 L 158.332031 136.667969 C 163.132812 136.667969 167 132.800781 167 128 C 167 123.199219 163.132812 119.332031 158.332031 119.332031 L 136.667969 119.332031 L 136.667969 92.792969 C 136.667969 88.320312 133.011719 84.667969 128.542969 84.667969 Z "/>
</svg>
