<svg width="256" xmlns="http://www.w3.org/2000/svg" height="256" viewBox="0 0 256 256" xmlns:xlink="http://www.w3.org/1999/xlink">
<g style="stroke:#777">
<path style="fill:#fff;stroke-width:.5" d="M 25.932037 35.186401 C 25.932037 42.094842 20.445935 47.694777 13.677926 47.694777 C 6.909918 47.694777 1.423816 42.094842 1.423816 35.186401 C 1.423816 28.278427 6.909918 22.678024 13.677926 22.678024 C 20.445935 22.678024 25.932037 28.278427 25.932037 35.186401 Z " transform="matrix(8.53221 0 0 8.35877 11.29701 -166.11515)"/>
<path style="fill:#bebebe" d="M 22.412109 12.500244 C 21.959473 12.500244 21.593262 12.875244 21.593262 13.335938 L 21.593262 14.956787 C 20.783936 15.172852 20.010498 15.498779 19.302979 15.909668 L 18.149414 14.756836 C 17.986816 14.593506 17.791992 14.507812 17.581055 14.505615 C 17.37085 14.50415 17.15625 14.57959 16.996582 14.73999 L 14.73999 16.996582 C 14.419922 17.31665 14.430908 17.824219 14.756836 18.149414 L 15.909668 19.302979 C 15.498047 20.010498 15.172852 20.783936 14.956787 21.593262 L 13.335938 21.593262 C 12.875244 21.593262 12.500244 21.959473 12.500244 22.412109 L 12.500244 25.587891 C 12.500244 26.040527 12.875244 26.406738 13.335938 26.406738 L 14.956787 26.406738 C 15.172852 27.216064 15.498047 27.989502 15.909668 28.697021 L 14.756836 29.850586 C 14.430908 30.175781 14.419922 30.68335 14.73999 31.003418 L 16.996582 33.26001 C 17.31665 33.580078 17.824219 33.569092 18.149414 33.243164 L 19.302979 32.090332 C 20.010498 32.501953 20.783936 32.827148 21.593262 33.043213 L 21.593262 34.664062 C 21.593262 35.124756 21.959473 35.499756 22.412109 35.499756 L 25.587891 35.499756 C 26.040527 35.499756 26.406738 35.124756 26.406738 34.664062 L 26.406738 33.043213 C 27.216064 32.827148 27.989502 32.501953 28.697021 32.090332 L 29.850586 33.243164 C 30.175781 33.569092 30.68335 33.580078 31.003418 33.26001 L 33.26001 31.003418 C 33.580078 30.68335 33.569092 30.175781 33.243164 29.850586 L 32.090332 28.697021 C 32.501953 27.989502 32.827148 27.216064 33.043213 26.406738 L 34.664062 26.406738 C 35.124756 26.406738 35.499756 26.040527 35.499756 25.587891 L 35.499756 22.412109 C 35.499756 21.959473 35.124756 21.593262 34.664062 21.593262 L 33.043213 21.593262 C 32.827148 20.783936 32.501953 20.010498 32.090332 19.302979 L 33.243164 18.149414 C 33.569092 17.824219 33.580078 17.31665 33.26001 16.996582 L 31.003418 14.73999 C 30.68335 14.419922 30.175781 14.430908 29.850586 14.756836 L 28.697021 15.909668 C 27.989502 15.498047 27.216064 15.172852 26.406738 14.956787 L 26.406738 13.335938 C 26.406738 12.875244 26.040527 12.500244 25.587891 12.500244 Z M 24 20.523193 C 25.918945 20.523193 27.476807 22.081055 27.476807 24 C 27.476807 25.918945 25.918945 27.476807 24 27.476807 C 22.081055 27.476807 20.523193 25.918945 20.523193 24 C 20.523193 22.081055 22.081055 20.523193 24 20.523193 Z " transform="scale(5.33333)"/>
</g>
</svg>
