<svg width="256" xmlns="http://www.w3.org/2000/svg" height="256" viewBox="0 0 256 256" xmlns:xlink="http://www.w3.org/1999/xlink">
<path style="fill:#fff;stroke:#777;stroke-width:.5" d="M 25.932037 35.186401 C 25.932037 42.094842 20.445935 47.694777 13.677926 47.694777 C 6.909918 47.694777 1.423816 42.094842 1.423816 35.186401 C 1.423816 28.278427 6.909918 22.678024 13.677926 22.678024 C 20.445935 22.678024 25.932037 28.278427 25.932037 35.186401 Z " transform="matrix(8.53221 0 0 8.35877 11.29701 -166.11515)"/>
<g style="fill:#dc322f">
<path d="M 125.636719 85.476562 C 78.785156 87.386719 33.210938 108.441406 52.5625 151.050781 C 80.792969 141.269531 120.101562 155.859375 103.777344 163.089844 C 135.941406 187.476562 215.359375 148.074219 207.449219 114.558594 C 199.25 94.140625 162.074219 83.992188 125.636719 85.476562 Z "/>
<path d="M 186.664062 50.878906 L 112.300781 168.90625 C 106.5 168.800781 101.105469 166.1875 97.203125 160.917969 L 176.878906 45.703125 C 182.234375 44.5 185.496094 46.230469 186.664062 50.878906 Z "/>
<path d="M 96.777344 189.441406 C 105.113281 188.382812 118.027344 178.285156 111.996094 163.675781 C 97.539062 159.75 100.820312 157.761719 100.820312 157.761719 C 80.960938 162.277344 65.871094 183.820312 70.027344 197.515625 C 72.660156 206.199219 72.21875 205.308594 72.21875 205.308594 C 77.726562 188.527344 77.828125 191.597656 96.777344 189.441406 Z "/>
</g>
</svg>
