<svg width="256" xmlns="http://www.w3.org/2000/svg" height="256" viewBox="0 0 256 256" xmlns:xlink="http://www.w3.org/1999/xlink">
<path style="fill:#fff;stroke:#777;stroke-width:.792" d="M 43.604004 24 C 43.603271 29.13208 41.490234 34.231934 37.861816 37.861084 C 34.232666 41.489502 29.13208 43.601807 24 43.601807 C 18.86792 43.601807 13.768066 41.489502 10.138916 37.861084 C 6.509766 34.231934 4.396729 29.13208 4.395996 24 C 4.395264 18.867188 6.507568 13.765869 10.136719 10.135986 C 13.765869 6.506836 18.867188 4.393799 24 4.393799 C 29.132812 4.393799 34.234131 6.506836 37.863281 10.135986 C 41.492432 13.765869 43.604736 18.867188 43.604004 24 Z " transform="scale(5.33333)"/>
<g style="fill-opacity:.941;fill:#53a93e">
<path d="M 128.730469 197.277344 C 132.257812 197.03125 135.675781 195.527344 138.199219 193.117188 L 182.074219 147.679688 C 184.863281 145.054688 186.542969 141.34375 186.65625 137.566406 C 186.914062 131.648438 183.089844 125.757812 177.488281 123.449219 C 171.886719 121.136719 164.878906 122.5625 160.695312 126.863281 L 128.035156 159.246094 L 93.773438 125.410156 C 88.023438 120.832031 78.707031 121.316406 73.492188 126.46875 C 68.277344 131.617188 67.914062 140.695312 72.699219 146.226562 L 116.820312 193.117188 C 119.921875 196.09375 124.394531 197.65625 128.730469 197.277344 Z "/>
<path d="M 129.3125 126.386719 C 136.582031 125.96875 142.722656 121.347656 142.4375 116.503906 L 142.4375 68.257812 C 142.4375 63.234375 135.558594 58.667969 128 58.667969 C 120.4375 58.667969 113.558594 63.234375 113.558594 68.257812 L 113.558594 116.503906 C 113.289062 121.628906 120.28125 126.410156 128 126.386719 C 128.4375 126.398438 128.875 126.398438 129.3125 126.386719 Z "/>
</g>
</svg>
