<svg width="256" xmlns="http://www.w3.org/2000/svg" height="256" viewBox="0 0 256 256" xmlns:xlink="http://www.w3.org/1999/xlink">
<path style="fill:#fff;stroke:#777;stroke-width:.792" d="M 43.604004 24 C 43.603271 34.825928 34.825928 43.601807 24 43.601807 C 13.174072 43.601807 4.397461 34.825928 4.395996 24 C 4.394531 13.171875 13.171875 4.393799 24 4.393799 C 34.828125 4.393799 43.605469 13.171875 43.604004 24 Z " transform="scale(5.33333)"/>
<path style="fill:#53a93e;fill-opacity:.941" d="M 177.902344 53.355469 C 176.21875 53.527344 174.480469 54.585938 173.117188 56.195312 L 142.667969 88.859375 C 141.355469 90.414062 140.597656 92.324219 140.597656 94.539062 C 140.597656 95.234375 140.773438 95.910156 140.914062 96.566406 C 138.105469 100.210938 138.84375 104.296875 138.84375 117.058594 C 138.84375 120.796875 131.308594 124.96875 129.4375 124.96875 C 129.34375 124.96875 129.371094 124.96875 129.277344 124.96875 C 123.285156 124.96875 103.703125 126.097656 97.710938 136.734375 C 91.71875 147.371094 69.332031 195.574219 69.332031 202.667969 C 78.320312 202.667969 143.625 160.578125 146.972656 156.617188 C 151.023438 151.820312 148.953125 142.160156 146.335938 135.71875 C 146.351562 135.691406 146.324219 135.554688 146.335938 135.519531 C 146.40625 135.285156 146.410156 135.007812 146.175781 134.503906 C 144.773438 131.464844 144.101562 128.410156 144.101562 124.15625 C 144.101562 113.417969 144.894531 107.988281 146.972656 105.289062 C 147.144531 105.066406 147.285156 104.734375 147.453125 104.480469 C 150.714844 105.085938 155.257812 103.085938 157.335938 100.625 L 184.277344 69.382812 C 187 66.160156 187.640625 61.449219 184.917969 58.226562 L 182.683594 55.589844 C 181.324219 53.976562 179.585938 53.183594 177.902344 53.355469 Z "/>
</svg>
