<svg width="256" xmlns="http://www.w3.org/2000/svg" height="256" viewBox="0 0 256 256" xmlns:xlink="http://www.w3.org/1999/xlink">
<path style="fill:#fff;stroke:#777;stroke-width:.5" d="M 25.932037 35.186401 C 25.932037 42.094842 20.445935 47.694777 13.677926 47.694777 C 6.909918 47.694777 1.423816 42.094842 1.423816 35.186401 C 1.423816 28.278427 6.909918 22.678024 13.677926 22.678024 C 20.445935 22.678024 25.932037 28.278427 25.932037 35.186401 Z " transform="matrix(8.53221 0 0 8.35877 11.29701 -166.11515)"/>
<g style="fill:#dc322f">
<path d="M 128 170.847656 L 128 185.074219 L 105.28125 200 "/>
<path d="M 128 170.847656 L 128 185.074219 L 150.71875 200 "/>
<path d="M 65.289062 176.683594 L 65.800781 86.964844 L 190.195312 87.21875 L 190.710938 176.425781 L 65.292969 176.683594 Z "/>
<path d="M 61.464844 79.316406 L 194.535156 79.316406 L 194.535156 95.546875 L 61.464844 95.546875 Z "/>
</g>
</svg>
