<svg width="256" xmlns="http://www.w3.org/2000/svg" height="256" viewBox="0 0 256 256" xmlns:xlink="http://www.w3.org/1999/xlink">
<path style="fill:#fff;stroke:#777;stroke-width:.792" d="M 43.604004 24 C 43.603271 34.825928 34.825928 43.601807 24 43.601807 C 13.174072 43.601807 4.397461 34.825928 4.395996 24 C 4.394531 13.171875 13.171875 4.393799 24 4.393799 C 34.828125 4.393799 43.605469 13.171875 43.604004 24 Z " transform="scale(5.33333)"/>
<path style="fill:#53a93e;fill-opacity:.941" d="M 137.992188 190.09375 L 137.992188 208 L 118.007812 208 L 118.007812 190.421875 C 106.347656 189.109375 97.191406 185.167969 90.527344 178.59375 C 83.867188 171.914062 80.355469 163.152344 80 152.3125 L 112.296875 152.476562 C 112.417969 156.417969 113.960938 159.539062 116.9375 161.839844 C 119.910156 164.140625 123.597656 165.289062 128 165.289062 C 131.804688 165.289062 135.136719 164.414062 137.992188 162.660156 C 141.324219 160.800781 142.988281 158.226562 142.988281 154.941406 C 142.988281 150.121094 137.636719 145.90625 126.929688 142.292969 C 110.988281 136.925781 101.054688 132.984375 97.128906 130.464844 C 86.421875 123.894531 81.070312 114.53125 81.070312 102.375 C 81.070312 92.40625 84.578125 84.03125 91.597656 77.242188 C 98.378906 70.777344 107.183594 66.890625 118.007812 65.578125 L 118.007812 48 L 137.992188 48 L 137.992188 65.578125 C 161.191406 69.410156 172.90625 82.058594 173.144531 103.523438 L 141.5625 103.523438 C 141.5625 99.363281 140.253906 95.96875 137.636719 93.339844 C 135.019531 90.601562 131.449219 89.230469 126.929688 89.230469 C 123.359375 89.230469 120.269531 90.164062 117.652344 92.023438 C 114.675781 93.996094 113.191406 96.625 113.191406 99.910156 C 113.191406 104.070312 118.601562 108.070312 129.425781 111.902344 C 145.25 117.269531 155.359375 121.375 159.761719 124.222656 C 170.585938 130.902344 176 140.101562 176 151.820312 C 176 162.222656 172.429688 170.875 165.292969 177.773438 C 158.511719 184.234375 149.414062 188.34375 137.992188 190.09375 "/>
</svg>
