<svg width="256" xmlns="http://www.w3.org/2000/svg" height="256" viewBox="0 0 256 256" xmlns:xlink="http://www.w3.org/1999/xlink">
<path style="fill:#fff;stroke:#777;stroke-width:.5" d="M 25.932037 35.186401 C 25.932037 42.094842 20.445935 47.694777 13.677926 47.694777 C 6.909918 47.694777 1.423816 42.094842 1.423816 35.186401 C 1.423816 28.278427 6.909918 22.678024 13.677926 22.678024 C 20.445935 22.678024 25.932037 28.278427 25.932037 35.186401 Z " transform="matrix(8.53221 0 0 8.35877 11.29701 -166.11515)"/>
<g style="fill:#427fec">
<path style="fill-opacity:.6" d="M 94.785156 104.40625 C 85.761719 104.40625 78.527344 111.550781 78.527344 120.40625 C 78.546875 121.347656 78.613281 122.710938 78.699219 123.859375 C 77.15625 124.546875 77.042969 127.707031 78.355469 130.949219 C 78.875 132.238281 79.535156 133.226562 80.257812 134.042969 C 80.433594 134.953125 80.386719 135.363281 80.601562 136.40625 C 81.207031 138.3125 83.589844 142.046875 85.792969 145.132812 C 86.007812 147.5 86.230469 149.890625 85.792969 152.585938 C 79.449219 158.117188 63.109375 160.496094 63.132812 166.222656 L 62.785156 168.40625 L 126.785156 168.40625 L 126.441406 166.222656 C 126.414062 161.324219 110.046875 158.3125 103.78125 152.585938 C 103.527344 150.394531 103.480469 148.199219 103.609375 146.042969 C 105.613281 142.789062 108.296875 138.527344 108.972656 136.40625 C 109.210938 135.332031 109.300781 134.605469 109.488281 133.679688 C 110.089844 132.914062 110.605469 132.046875 111.046875 130.949219 C 112.292969 127.867188 112.210938 124.925781 110.875 124.042969 C 110.953125 122.800781 111.011719 121.476562 111.046875 120.40625 C 111.046875 111.550781 103.8125 104.40625 94.785156 104.40625 Z "/>
<path d="M 145.214844 80 C 131.675781 80 120.824219 90.71875 120.824219 104 C 120.855469 105.414062 120.953125 107.457031 121.082031 109.183594 C 118.769531 110.214844 118.597656 114.949219 120.5625 119.816406 C 121.34375 121.75 122.335938 123.230469 123.417969 124.453125 C 123.679688 125.824219 123.613281 126.4375 123.9375 128 C 124.84375 130.859375 128.417969 136.464844 131.722656 141.089844 C 132.046875 144.644531 132.378906 148.230469 131.722656 152.273438 C 122.207031 160.570312 97.695312 164.136719 97.730469 172.726562 L 97.214844 176 L 193.214844 176 L 192.695312 172.726562 C 192.65625 165.375 168.101562 160.863281 158.703125 152.273438 C 158.324219 148.984375 158.253906 145.691406 158.445312 142.453125 C 161.453125 137.574219 165.480469 131.183594 166.488281 128 C 166.851562 126.386719 166.984375 125.296875 167.265625 123.910156 C 168.167969 122.761719 168.9375 121.464844 169.601562 119.816406 C 171.46875 115.195312 171.347656 110.78125 169.34375 109.453125 C 169.460938 107.589844 169.550781 105.609375 169.601562 104 C 169.601562 90.71875 158.75 80 145.214844 80 Z "/>
</g>
</svg>
