<svg width="256" xmlns="http://www.w3.org/2000/svg" height="256" viewBox="0 0 256 256" xmlns:xlink="http://www.w3.org/1999/xlink">
<path style="fill:#fff;stroke:#777;stroke-width:.792" d="M 43.604004 24 C 43.603271 34.825928 34.825928 43.601807 24 43.601807 C 13.174072 43.601807 4.397461 34.825928 4.395996 24 C 4.394531 13.171875 13.171875 4.393799 24 4.393799 C 34.828125 4.393799 43.605469 13.171875 43.604004 24 Z " transform="scale(5.33333)"/>
<path style="fill:#dc322f" d="M 121.707031 197.558594 C 118.261719 193.839844 109.664062 186.589844 102.59375 181.445312 C 81.65625 166.207031 78.808594 164 70.304688 156.457031 C 54.632812 142.546875 47.976562 128.574219 48 109.628906 C 48.011719 100.378906 48.664062 96.816406 51.351562 91.363281 C 55.914062 82.117188 62.628906 75.242188 71.214844 71.039062 C 77.296875 68.0625 80.296875 66.738281 90.453125 66.683594 C 101.078125 66.628906 103.316406 67.820312 109.566406 71.128906 C 117.171875 75.160156 125 83.765625 126.621094 89.878906 L 127.621094 93.65625 L 130.085938 88.457031 C 144.015625 59.066406 188.492188 59.503906 203.96875 89.1875 C 208.878906 98.601562 209.417969 118.707031 205.0625 130.03125 C 199.382812 144.804688 188.71875 156.066406 164.058594 173.328125 C 147.886719 184.644531 129.582031 201.769531 128.308594 204.175781 C 126.828125 206.96875 128.238281 204.613281 121.707031 197.558594 Z "/>
</svg>
