<svg width="256" xmlns="http://www.w3.org/2000/svg" height="256" viewBox="0 0 256 256" xmlns:xlink="http://www.w3.org/1999/xlink">
<path style="fill:#fff;stroke:#777;stroke-width:.5" d="M 25.932037 35.186401 C 25.932037 42.094842 20.445935 47.694777 13.677926 47.694777 C 6.909918 47.694777 1.423816 42.094842 1.423816 35.186401 C 1.423816 28.278427 6.909918 22.678024 13.677926 22.678024 C 20.445935 22.678024 25.932037 28.278427 25.932037 35.186401 Z " transform="matrix(8.53221 0 0 8.35877 11.29701 -166.11515)"/>
<path style="fill:#dc322f" d="M 137.617188 65.441406 C 128.300781 67.78125 120.472656 76.339844 120.472656 76.339844 L 120.710938 76.613281 L 135.640625 132.070312 C 124.964844 126.28125 109.722656 127.734375 97.105469 136.855469 C 80.804688 148.636719 75.128906 168.722656 84.570312 181.660156 C 94.011719 194.597656 114.835938 195.511719 131.136719 183.726562 C 143.988281 174.4375 151.144531 159.796875 148.558594 147.773438 C 148.480469 147.398438 148.363281 147.046875 148.265625 146.675781 L 133.941406 91.234375 C 134.273438 90.746094 138.453125 88.828125 151.984375 87.902344 C 166.308594 86.941406 176 63.996094 176 63.996094 C 176 63.996094 159.898438 70.164062 147.222656 65.695312 C 144.054688 64.578125 140.714844 64.632812 137.613281 65.421875 Z "/>
</svg>
