<svg width="256" xmlns="http://www.w3.org/2000/svg" height="256" viewBox="0 0 256 256" xmlns:xlink="http://www.w3.org/1999/xlink">
<path style="fill:#fff;stroke:#777;stroke-width:.792" d="M 43.604004 24 C 43.603271 34.825928 34.825928 43.601807 24 43.601807 C 13.174072 43.601807 4.397461 34.825928 4.395996 24 C 4.394531 13.171875 13.171875 4.393799 24 4.393799 C 34.828125 4.393799 43.605469 13.171875 43.604004 24 Z " transform="scale(5.33333)"/>
<path style="fill:#427fec;fill-rule:evenodd" d="M 128 64 C 109.949219 64 95.480469 78.289062 95.480469 96 C 95.523438 97.886719 95.65625 100.613281 95.828125 102.910156 C 92.738281 104.285156 92.515625 110.601562 95.136719 117.089844 C 96.175781 119.664062 97.496094 121.640625 98.941406 123.273438 C 99.292969 125.097656 99.199219 125.914062 99.632812 128 C 100.839844 131.8125 105.609375 139.285156 110.011719 145.453125 C 110.441406 150.191406 110.890625 154.972656 110.011719 160.363281 C 97.324219 171.425781 64.644531 176.183594 64.691406 187.636719 L 64 192 L 192 192 L 191.308594 187.636719 C 191.257812 177.835938 158.519531 171.816406 145.988281 160.363281 C 145.480469 155.980469 145.386719 151.589844 145.644531 147.273438 C 149.65625 140.765625 155.019531 132.246094 156.367188 128 C 156.851562 125.847656 157.027344 124.398438 157.40625 122.546875 C 158.609375 121.015625 159.632812 119.285156 160.519531 117.089844 C 163.007812 110.925781 162.847656 105.039062 160.171875 103.273438 C 160.332031 100.789062 160.449219 98.144531 160.519531 96 C 160.519531 78.289062 146.050781 64 128 64 Z "/>
</svg>
