<svg width="256" xmlns="http://www.w3.org/2000/svg" height="256" viewBox="0 0 256 256" xmlns:xlink="http://www.w3.org/1999/xlink">
<path style="fill:#fff;stroke:#777;stroke-width:.5" d="M 25.932037 35.186401 C 25.932037 42.094842 20.445935 47.694777 13.677926 47.694777 C 6.909918 47.694777 1.423816 42.094842 1.423816 35.186401 C 1.423816 28.278427 6.909918 22.678024 13.677926 22.678024 C 20.445935 22.678024 25.932037 28.278427 25.932037 35.186401 Z " transform="matrix(8.53221 0 0 8.35877 11.29701 -166.11515)"/>
<path style="fill:#f2000b" d="M 114.667969 48 C 110.234375 48 106.667969 51.566406 106.667969 56 L 106.667969 136 C 106.667969 140.433594 110.234375 144 114.667969 144 L 141.332031 144 C 145.765625 144 149.332031 140.433594 149.332031 136 L 149.332031 56 C 149.332031 51.566406 145.539062 49.402344 141.332031 48 Z M 114.667969 165.332031 C 110.234375 165.332031 106.667969 168.902344 106.667969 173.332031 L 106.667969 200 C 106.667969 204.433594 110.460938 206.597656 114.667969 208 L 141.332031 208 C 145.765625 208 149.332031 204.433594 149.332031 200 L 149.332031 173.332031 C 149.332031 168.902344 145.765625 165.332031 141.332031 165.332031 Z "/>
</svg>
