<svg width="256" xmlns="http://www.w3.org/2000/svg" height="256" viewBox="0 0 256 256" xmlns:xlink="http://www.w3.org/1999/xlink">
<path style="fill:#fff;stroke:#777;stroke-width:.792" d="M 43.604004 24 C 43.603271 34.825928 34.825928 43.601807 24 43.601807 C 13.174072 43.601807 4.397461 34.825928 4.395996 24 C 4.394531 13.171875 13.171875 4.393799 24 4.393799 C 34.828125 4.393799 43.605469 13.171875 43.604004 24 Z " transform="scale(5.33333)"/>
<path style="fill:#53a93e;fill-rule:evenodd;fill-opacity:.941" d="M 144.722656 191.992188 C 139.03125 191.886719 133.339844 190.128906 128.695312 186.648438 C 113.753906 175.449219 125.359375 163.8125 112.328125 154.046875 C 99.300781 144.28125 87.753906 155.953125 72.8125 144.753906 L 72.8125 144.738281 C 69.496094 142.25 67.101562 139.171875 65.652344 135.84375 C 65.640625 135.820312 65.640625 135.796875 65.632812 135.773438 C 65.339844 135.097656 65.089844 134.417969 64.878906 133.722656 C 64.785156 133.414062 64.679688 133.105469 64.601562 132.792969 C 64.589844 132.757812 64.589844 132.722656 64.582031 132.6875 C 64.417969 132.03125 64.296875 131.371094 64.203125 130.707031 C 64.203125 130.699219 64.203125 130.695312 64.203125 130.691406 C 64.199219 130.65625 64.1875 130.621094 64.183594 130.585938 C 64.144531 130.277344 64.113281 129.964844 64.085938 129.65625 C 64.066406 129.421875 64.039062 129.183594 64.027344 128.949219 C 64.019531 128.828125 64.007812 128.707031 64.007812 128.585938 C 64.003906 128.546875 64.007812 128.503906 64.007812 128.464844 C 64 128.152344 64 127.847656 64.007812 127.535156 C 64.007812 127.375 64.019531 127.210938 64.027344 127.050781 C 64.039062 126.816406 64.066406 126.578125 64.085938 126.34375 C 64.113281 126 64.15625 125.65625 64.203125 125.3125 C 64.203125 125.304688 64.203125 125.300781 64.203125 125.292969 C 64.296875 124.628906 64.417969 123.96875 64.582031 123.3125 C 64.589844 123.277344 64.59375 123.242188 64.601562 123.207031 C 64.679688 122.894531 64.78125 122.589844 64.878906 122.277344 C 65.089844 121.582031 65.339844 120.902344 65.632812 120.226562 C 65.640625 120.203125 65.644531 120.179688 65.652344 120.15625 C 67.101562 116.828125 69.496094 113.75 72.8125 111.261719 L 72.8125 111.246094 C 87.753906 100.046875 99.300781 111.71875 112.328125 101.953125 C 125.359375 92.1875 113.753906 80.550781 128.695312 69.351562 C 139.3125 61.390625 155.339844 62.433594 164.5 71.660156 C 173.660156 80.890625 172.480469 94.820312 161.863281 102.78125 C 146.921875 113.976562 135.375 102.289062 122.347656 112.054688 C 115.765625 116.988281 115.476562 122.410156 114.867188 128 C 115.476562 133.589844 115.765625 139.015625 122.347656 143.949219 C 135.375 153.714844 146.921875 142.023438 161.863281 153.222656 C 172.480469 161.183594 173.660156 175.113281 164.5 184.339844 C 159.347656 189.53125 152.039062 192.132812 144.722656 191.996094 Z "/>
</svg>
