<svg width="48" xmlns="http://www.w3.org/2000/svg" height="48" viewBox="0 0 48 48" xmlns:xlink="http://www.w3.org/1999/xlink">
<g style="fill-rule:evenodd">
<path style="fill:#fff" d="M 8 6 L 28 6 C 32 6 32 6 32 10 L 32 38 C 32 42 32 42 28 42 L 8 42 C 4 42 4 42 4 38 L 4 10 C 4 6 4 6 8 6 Z "/>
<path style="fill:#268bd2" d="M 29.914062 38.210938 L 43.664062 27.210938 C 46.421875 24.453125 46.414062 24.460938 43.664062 21.710938 L 29.914062 10.710938 C 28 9.175781 28 9.742188 28 13.539062 C 27.960938 14.914062 27.914062 16.460938 28 18.460938 C 27.96875 18.460938 28.03125 18.460938 28 18.460938 C 14.335938 18.460938 7.914062 27.210938 8 38.296875 C 13.414062 32.710938 19.75 30.289062 28 30.460938 C 28 32.429688 27.960938 33.132812 28 34.460938 C 28 36.460938 28 39.566406 29.914062 38.210938 Z "/>
</g>
</svg>
