<?xml version="1.0" encoding="UTF-8" standalone="no"?>
<svg
   xmlns:dc="http://purl.org/dc/elements/1.1/"
   xmlns:cc="http://creativecommons.org/ns#"
   xmlns:rdf="http://www.w3.org/1999/02/22-rdf-syntax-ns#"
   xmlns:svg="http://www.w3.org/2000/svg"
   xmlns="http://www.w3.org/2000/svg"
   xmlns:sodipodi="http://sodipodi.sourceforge.net/DTD/sodipodi-0.dtd"
   xmlns:inkscape="http://www.inkscape.org/namespaces/inkscape"
   width="48"
   height="48"
   viewBox="0 0 48 48"
   id="svg2"
   version="1.1"
   inkscape:version="0.91 r"
   sodipodi:docname="gtk-edit.svg">
  <metadata
     id="metadata16">
    <rdf:RDF>
      <cc:Work
         rdf:about="">
        <dc:format>image/svg+xml</dc:format>
        <dc:type
           rdf:resource="http://purl.org/dc/dcmitype/StillImage" />
        <dc:title />
      </cc:Work>
    </rdf:RDF>
  </metadata>
  <defs
     id="defs14">
    <clipPath
       id="clip1">
      <path
         id="path4225"
         d="m 17 10 l 14 0 l 0 20 l -14 0 m 0 -20" />
    </clipPath>
    <clipPath
       id="clip2">
      <path
         id="path4228"
         d="m 41.895 19.992 c 0 10.582 -8.02 19.16 -17.895 19.16 c -9.875 0 -17.891 -8.574 -17.891 -19.16 c 0 -10.586 8.02 -19.16 17.891 -19.16 c 9.879 0 17.895 8.574 17.895 19.16 m 0 0" />
    </clipPath>
  </defs>
  <sodipodi:namedview
     pagecolor="#ffffff"
     bordercolor="#666666"
     borderopacity="1"
     objecttolerance="10"
     gridtolerance="10"
     guidetolerance="10"
     inkscape:pageopacity="0"
     inkscape:pageshadow="2"
     inkscape:window-width="1366"
     inkscape:window-height="747"
     id="namedview12"
     showgrid="true"
     inkscape:zoom="78.666667"
     inkscape:cx="28.27018"
     inkscape:cy="7.4919537"
     inkscape:window-x="0"
     inkscape:window-y="21"
     inkscape:window-maximized="1"
     inkscape:current-layer="svg2">
    <inkscape:grid
       type="xygrid"
       id="grid4144" />
  </sodipodi:namedview>
  <path
     id="path4152"
     d="M 10.666667,4 29.333333,4 C 34,4 34,4 34,8.5005493 L 34,35.499451 C 34,40 34,40 29.333333,40 L 10.666667,40 C 6,40 6,40 6,35.499451 L 6,8.5005493 C 6,4 6,4 10.666667,4 Z"
     style="fill:#ffffff;fill-rule:evenodd;fill-opacity:1"
     inkscape:connector-curvature="0" />
  <g
     style="fill:#888888"
     id="g4154"
     transform="matrix(1.1666667,0,0,1.1251373,-15,-9.503845)">
    <path
       inkscape:connector-curvature="0"
       d="m 22.285714,18.223416 0,3.555122 15.428571,0 0,-3.555122 z"
       id="path4156"
       sodipodi:nodetypes="ccccc" />
    <path
       inkscape:connector-curvature="0"
       d="m 22.285714,34.221463 0,3.555122 7.714286,0 0,-3.555122 z"
       id="path4158"
       sodipodi:nodetypes="ccccc" />
    <path
       inkscape:connector-curvature="0"
       d="m 22.285714,26.22244 0,3.555121 15.428571,0 0,-3.555121 z"
       id="path4160"
       sodipodi:nodetypes="ccccc" />
  </g>
  <g
     id="g4250"
     transform="translate(-52.770186,-22.059322)" />
  <g
     id="g4282"
     clip-path="url(#clip1)"
     transform="translate(35.094221,-2.9406779)">
    <g
       id="g4284"
       clip-path="url(#clip2)" />
  </g>
  <path
     id="path4288"
     d="m 42.00026,20.252644 c 0,0 0.0013,-0.974212 -2.170715,-2.228212 -2.095348,-1.20975 -3.072731,-0.677873 -3.072731,-0.677873 L 25.457,36.919149 24.832544,44 30.648,39.916149"
     inkscape:connector-curvature="0"
     style="fill:#ff6f03;fill-opacity:1;fill-rule:nonzero;stroke:none"
     sodipodi:nodetypes="cscccc" />
  <path
     id="path4290"
     d="M 25.457,36.919 24.833,44 30.648,39.916"
     inkscape:connector-curvature="0"
     style="fill:#ffc13d;fill-opacity:1;fill-rule:nonzero;stroke:none"
     sodipodi:nodetypes="ccc" />
  <path
     id="path4292"
     d="M 25.114202,40.698943 24.833,44 27.555095,42.108193 m -2.440893,-1.40925"
     inkscape:connector-curvature="0"
     style="fill:#2d2d2d;fill-opacity:1;fill-rule:nonzero;stroke:none" />
</svg>
