<?xml version="1.0" encoding="UTF-8" standalone="no"?>
<svg
   xmlns:dc="http://purl.org/dc/elements/1.1/"
   xmlns:cc="http://creativecommons.org/ns#"
   xmlns:rdf="http://www.w3.org/1999/02/22-rdf-syntax-ns#"
   xmlns:svg="http://www.w3.org/2000/svg"
   xmlns="http://www.w3.org/2000/svg"
   xmlns:sodipodi="http://sodipodi.sourceforge.net/DTD/sodipodi-0.dtd"
   xmlns:inkscape="http://www.inkscape.org/namespaces/inkscape"
   width="48"
   height="48"
   viewBox="0 0 48 48"
   id="svg2"
   version="1.1"
   inkscape:version="0.91 r"
   sodipodi:docname="stock_people.svg">
  <metadata
     id="metadata12">
    <rdf:RDF>
      <cc:Work
         rdf:about="">
        <dc:format>image/svg+xml</dc:format>
        <dc:type
           rdf:resource="http://purl.org/dc/dcmitype/StillImage" />
        <dc:title></dc:title>
      </cc:Work>
    </rdf:RDF>
  </metadata>
  <defs
     id="defs10" />
  <sodipodi:namedview
     pagecolor="#ffffff"
     bordercolor="#666666"
     borderopacity="1"
     objecttolerance="10"
     gridtolerance="10"
     guidetolerance="10"
     inkscape:pageopacity="0"
     inkscape:pageshadow="2"
     inkscape:window-width="1920"
     inkscape:window-height="1056"
     id="namedview8"
     showgrid="true"
     inkscape:zoom="22.627417"
     inkscape:cx="22.518018"
     inkscape:cy="28.760263"
     inkscape:window-x="0"
     inkscape:window-y="24"
     inkscape:window-maximized="1"
     inkscape:current-layer="svg2">
    <inkscape:grid
       type="xygrid"
       id="grid4140" />
  </sodipodi:namedview>
  <path
     style="fill:#859900;fill-opacity:1"
     d="m 12.453909,8.5624861 c -1.287013,4.5281559 -1.315325,10.7937849 0.975423,13.8843949 0.962915,1.468769 2.278237,3.396847 1.24924,5.150014 C 12.77488,30.33437 9.59982,31.812505 6.708005,33.303146 6,33.721334 6,33.600001 6,34.97499 6,36 6,36 6.638782,36 l 27.722412,0 C 35,36 35,36 35,34.97499 35,33.600001 35,33.686264 34.291972,33.303146 31.400184,31.812505 28.22512,30.33437 26.321428,27.596895 25.292431,25.843728 26.607753,23.91565 27.570668,22.446881 29.990462,19.084349 30.305097,11.762485 28.539837,8.4625233 26.944444,5.5999989 25.333334,4.1093715 20.5,4 15.660384,4.1937594 14.055556,5.5999989 12.453909,8.5624861 Z"
     id="path4-0"
     inkscape:connector-curvature="0"
     sodipodi:nodetypes="cccccccccccccc" />
  <path
     style="fill:#6c71c4"
     d="m 19.453909,16.562486 c -1.287013,4.528156 -1.315325,10.793785 0.975423,13.884395 0.962915,1.468769 2.278237,3.396847 1.24924,5.150014 -1.903692,2.737475 -5.078752,4.21561 -7.970567,5.706251 C 13,41.721334 13,41.600001 13,42.97499 13,44 13,44 13.638782,44 l 27.722412,0 C 42,44 42,44 42,42.97499 42,41.600001 42,41.686264 41.291972,41.303146 38.400184,39.812505 35.22512,38.33437 33.321428,35.596895 32.292431,33.843728 33.607753,31.91565 34.570668,30.446881 36.990462,27.084349 37.305097,19.762485 35.539837,16.462523 33.944444,13.599999 32.333334,12.109371 27.5,12 c -4.839616,0.193759 -6.444444,1.599999 -8.046091,4.562486 z"
     id="path4"
     inkscape:connector-curvature="0"
     sodipodi:nodetypes="cccccccccccccc" />
</svg>
