<svg width="48" xmlns="http://www.w3.org/2000/svg" height="48" viewBox="0 0 48 48" xmlns:xlink="http://www.w3.org/1999/xlink">
<g style="fill:#888">
<path d="M 29.5 18.875 C 29.5 19.828125 29.328125 20.632812 28.992188 21.273438 C 28.65625 21.90625 28.195312 22.414062 27.609375 22.804688 C 27.039062 23.179688 26.351562 23.453125 25.554688 23.625 C 24.773438 23.773438 23.929688 23.851562 23.023438 23.851562 C 21.429688 23.867188 19.460938 23.289062 18 23.0625 L 18 8 C 19.460938 7.742188 21.320312 7.75 22.703125 7.679688 C 23.945312 7.679688 24.960938 7.804688 25.742188 8.0625 C 26.523438 8.296875 27.132812 8.625 27.578125 9.03125 C 28.023438 9.421875 28.328125 9.867188 28.484375 10.359375 C 28.648438 10.851562 28.726562 11.34375 28.726562 11.835938 C 28.726562 12.585938 28.53125 13.25 28.140625 13.828125 C 27.765625 14.40625 27.257812 14.867188 26.617188 15.203125 C 27.742188 15.59375 28.492188 16.125 28.882812 16.789062 C 29.296875 17.453125 29.5 18.148438 29.5 18.875 M 21.710938 16.734375 L 21.710938 21.023438 C 21.945312 21.054688 22.195312 21.078125 22.460938 21.101562 C 22.742188 21.117188 23.023438 21.125 23.289062 21.125 C 23.65625 21.125 24.023438 21.101562 24.382812 21.046875 C 24.734375 20.976562 25.046875 20.867188 25.3125 20.71875 C 25.601562 20.546875 25.828125 20.3125 26.007812 20.023438 C 26.1875 19.71875 26.273438 19.335938 26.273438 18.875 C 26.273438 18.109375 26.015625 17.570312 25.5 17.242188 C 25 16.90625 24.328125 16.734375 23.476562 16.734375 L 21.710938 16.734375 M 22.992188 14.132812 C 23.828125 14.132812 24.460938 13.960938 24.882812 13.625 C 25.3125 13.265625 25.523438 12.78125 25.523438 12.171875 C 25.523438 11.796875 25.460938 11.5 25.34375 11.273438 C 25.21875 11.039062 25.046875 10.859375 24.835938 10.742188 C 24.617188 10.601562 24.367188 10.515625 24.085938 10.484375 C 23.804688 10.4375 23.507812 10.40625 23.203125 10.40625 C 22.960938 10.40625 22.703125 10.414062 22.429688 10.4375 C 22.164062 10.453125 21.929688 10.476562 21.710938 10.507812 L 21.710938 14.132812 L 22.992188 14.132812 "/>
<path d="M 40.789062 23.984375 C 38.15625 23.984375 36.148438 23.265625 34.757812 21.835938 C 33.375 20.40625 32 18.632812 32 16 C 31.945312 13.210938 33.195312 11.304688 35.0625 9.671875 C 35.820312 8.953125 36.71875 8.421875 37.742188 8.0625 C 38.789062 7.6875 39.921875 7.5 41.148438 7.5 C 41.8125 7.5 42.40625 7.554688 42.929688 7.65625 C 43.46875 7.734375 43.9375 7.84375 44.34375 7.960938 C 44.742188 8.078125 45.078125 8.203125 45.335938 8.34375 C 45.617188 8.476562 45.828125 8.578125 45.96875 8.648438 L 45.007812 11.148438 C 44.546875 10.890625 43.984375 10.679688 43.320312 10.507812 C 42.671875 10.320312 41.929688 10.226562 41.085938 10.226562 C 40.507812 10.226562 39.929688 10.320312 39.367188 10.507812 C 38.828125 10.679688 38.335938 10.976562 37.890625 11.40625 C 37.46875 11.8125 37.050781 12.234375 36.769531 12.929688 C 36.511719 13.625 36 14.960938 36 16 C 36 17.804688 36.804688 18.851562 37.53125 19.820312 C 38.273438 20.773438 39.476562 21.25 41.148438 21.25 C 42.109375 21.25 42.90625 21.15625 43.53125 20.96875 C 44.171875 20.78125 44.6875 20.59375 45.0625 20.40625 L 46 22.882812 C 45.476562 23.15625 44.765625 23.414062 43.859375 23.648438 C 42.976562 23.867188 41.953125 23.984375 40.789062 23.984375 "/>
<path d="M 8 8 L 2 24 L 4.75 24 L 7.015625 18 L 10.867188 18 L 13 24 L 15.75 24 L 10 8 Z M 8.875 11.640625 L 10 16 L 7.300781 16 Z "/>
</g>
<path style="fill:#859900" d="M 24 34 L 40 18 L 46 24 L 24 46 C 19.414062 41.414062 14.585938 36.578125 10 32 L 16 26 Z "/>
</svg>
