<svg width="128" xmlns="http://www.w3.org/2000/svg" height="128" viewBox="0 0 128 128" xmlns:xlink="http://www.w3.org/1999/xlink">
<g style="fill:#8ccd7c">
<path d="M 37.121094 40.128906 C 24.269531 40.128906 13.855469 50.613281 13.855469 63.527344 C 13.855469 64.335938 13.867188 65.128906 13.945312 65.910156 C 14.140625 70.925781 13.855469 78.164062 19.675781 95.714844 C 24.621094 110.652344 28.398438 110.339844 28.398438 110.339844 L 34.207031 107.410156 C 34.207031 107.410156 31.300781 101.5625 31.300781 95.714844 C 31.300781 92.902344 31.964844 89.441406 32.667969 86.574219 C 34.101562 86.847656 35.613281 86.941406 37.121094 86.941406 C 49.960938 86.941406 60.378906 76.457031 60.378906 63.527344 C 60.378906 50.613281 49.960938 40.128906 37.121094 40.128906 Z "/>
<path d="M 89.542969 86.535156 C 102.394531 86.535156 112.8125 76.054688 112.8125 63.136719 C 112.8125 62.332031 112.800781 61.535156 112.722656 60.753906 C 112.527344 55.742188 112.8125 48.503906 106.992188 30.949219 C 102.042969 16.015625 98.269531 16.328125 98.269531 16.328125 L 92.460938 19.257812 C 92.460938 19.257812 95.363281 25.105469 95.363281 30.949219 C 95.363281 33.761719 94.699219 37.226562 93.996094 40.089844 C 92.566406 39.816406 91.054688 39.726562 89.542969 39.726562 C 76.707031 39.726562 66.289062 50.207031 66.289062 63.136719 C 66.289062 76.054688 76.707031 86.535156 89.542969 86.535156 Z "/>
</g>
</svg>
