<svg width="128" xmlns="http://www.w3.org/2000/svg" height="128" viewBox="0 0 128 128" xmlns:xlink="http://www.w3.org/1999/xlink">
<path style="fill:none;stroke:#92c8dd;stroke-linecap:round;stroke-width:8.073" d="M 34.396789 32.028408 L 221.601531 32.028408 C 222.91993 32.028408 223.969912 33.07839 223.969912 34.396789 L 223.969912 221.601531 C 223.969912 222.91993 222.91993 223.969912 221.601531 223.969912 L 34.396789 223.969912 C 33.07839 223.969912 32.028408 222.91993 32.028408 221.601531 L 32.028408 34.396789 C 32.028408 33.07839 33.07839 32.028408 34.396789 32.028408 Z " transform="scale(.4948)"/>
<g style="fill:#92c8dd">
<path d="M 51.707031 32.253906 C 49.949219 36.679688 48.203125 41.105469 46.445312 45.546875 L 56.964844 45.546875 Z M 49.519531 28.699219 L 53.90625 28.699219 C 57.539062 37.589844 61.171875 46.496094 64.804688 55.390625 L 60.78125 55.390625 C 59.921875 53.113281 59.050781 50.820312 58.175781 48.542969 L 45.285156 48.542969 C 44.414062 50.820312 43.542969 53.113281 42.683594 55.390625 L 38.59375 55.390625 C 42.238281 46.496094 45.871094 37.589844 49.519531 28.699219 Z M 78.566406 45.324219 C 76.316406 45.417969 73.699219 45.261719 71.925781 46.769531 C 70.105469 48.722656 71.003906 52.433594 73.90625 52.96875 C 76.730469 53.710938 80.039062 52.460938 81.222656 49.882812 C 81.886719 48.554688 82.316406 46.601562 81.964844 45.324219 Z M 85.597656 43.972656 L 85.597656 55.390625 L 82.070312 55.390625 L 82.070312 52.355469 C 80.613281 54.804688 77.578125 56.027344 74.660156 55.910156 C 71.550781 56.082031 68.242188 54.246094 67.65625 51.261719 C 66.914062 48.386719 68.097656 44.855469 71.25 43.710938 C 74.660156 42.332031 78.449219 42.851562 82.070312 42.746094 C 82.316406 40.613281 80.808594 38.488281 78.542969 37.980469 C 75.351562 37.238281 71.902344 37.878906 69.035156 39.324219 C 69.035156 38.308594 69.035156 37.292969 69.035156 36.277344 C 73.007812 34.882812 77.695312 34.128906 81.628906 35.949219 C 84.753906 37.460938 85.636719 40.949219 85.597656 43.972656 Z "/>
<g style="fill-opacity:.6">
<path d="M 38.59375 60.859375 L 44.816406 60.859375 L 44.816406 63.332031 L 38.59375 63.332031 Z "/>
<path d="M 45.675781 60.859375 L 51.550781 60.859375 L 51.550781 63.332031 L 45.675781 63.332031 Z "/>
<path d="M 52.394531 60.859375 L 57.578125 60.859375 L 57.578125 63.332031 L 52.394531 63.332031 Z "/>
<path d="M 58.425781 60.859375 L 60.691406 60.859375 L 60.691406 63.332031 L 58.425781 63.332031 Z "/>
<path d="M 61.535156 60.859375 L 66.628906 60.859375 L 66.628906 63.332031 L 61.535156 63.332031 Z "/>
<path d="M 67.472656 60.859375 L 80.652344 60.859375 L 80.652344 63.332031 L 67.472656 63.332031 Z "/>
<path d="M 38.59375 75.703125 L 44.816406 75.703125 L 44.816406 78.175781 L 38.59375 78.175781 Z "/>
<path d="M 45.675781 75.703125 L 51.550781 75.703125 L 51.550781 78.175781 L 45.675781 78.175781 Z "/>
<path d="M 52.394531 75.703125 L 57.578125 75.703125 L 57.578125 78.175781 L 52.394531 78.175781 Z "/>
<path d="M 58.425781 75.703125 L 60.691406 75.703125 L 60.691406 78.175781 L 58.425781 78.175781 Z "/>
<path d="M 61.535156 75.703125 L 66.628906 75.703125 L 66.628906 78.175781 L 61.535156 78.175781 Z "/>
<path d="M 67.472656 75.703125 L 80.652344 75.703125 L 80.652344 78.175781 L 67.472656 78.175781 Z "/>
<path d="M 38.59375 65.808594 L 47.980469 65.808594 L 47.980469 68.28125 L 38.59375 68.28125 Z "/>
<path d="M 48.839844 65.808594 L 53.359375 65.808594 L 53.359375 68.28125 L 48.839844 68.28125 Z "/>
<path d="M 54.21875 65.808594 L 56.339844 65.808594 L 56.339844 68.28125 L 54.21875 68.28125 Z "/>
<path d="M 57.1875 65.808594 L 61.277344 65.808594 L 61.277344 68.28125 L 57.1875 68.28125 Z "/>
<path d="M 62.136719 65.808594 L 66.222656 65.808594 L 66.222656 68.28125 L 62.136719 68.28125 Z "/>
<path d="M 67.082031 65.808594 L 73.644531 65.808594 L 73.644531 68.28125 L 67.082031 68.28125 Z "/>
<path d="M 74.503906 65.808594 L 83.125 65.808594 L 83.125 68.28125 L 74.503906 68.28125 Z "/>
<path d="M 38.59375 70.753906 L 49.558594 70.753906 L 49.558594 73.230469 L 38.59375 73.230469 Z "/>
<path d="M 50.417969 70.753906 L 62.175781 70.753906 L 62.175781 73.230469 L 50.417969 73.230469 Z "/>
<path d="M 63.035156 70.753906 L 67.722656 70.753906 L 67.722656 73.230469 L 63.035156 73.230469 Z "/>
<path d="M 68.59375 70.753906 L 79.648438 70.753906 L 79.648438 73.230469 L 68.59375 73.230469 Z "/>
<path d="M 80.507812 70.753906 L 88.074219 70.753906 L 88.074219 73.230469 L 80.507812 73.230469 Z "/>
<path d="M 38.59375 90.546875 L 49.558594 90.546875 L 49.558594 93.019531 L 38.59375 93.019531 Z "/>
<path d="M 50.417969 90.546875 L 62.175781 90.546875 L 62.175781 93.019531 L 50.417969 93.019531 Z "/>
<path d="M 63.035156 90.546875 L 67.722656 90.546875 L 67.722656 93.019531 L 63.035156 93.019531 Z "/>
<path d="M 68.59375 90.546875 L 79.648438 90.546875 L 79.648438 93.019531 L 68.59375 93.019531 Z "/>
<path d="M 80.507812 90.546875 L 88.074219 90.546875 L 88.074219 93.019531 L 80.507812 93.019531 Z "/>
<path d="M 38.59375 80.652344 L 46.328125 80.652344 L 46.328125 83.125 L 38.59375 83.125 Z "/>
<path d="M 47.148438 80.652344 L 59.988281 80.652344 L 59.988281 83.125 L 47.148438 83.125 Z "/>
<path d="M 60.808594 80.652344 L 67.003906 80.652344 L 67.003906 83.125 L 60.808594 83.125 Z "/>
<path d="M 74.425781 80.652344 L 79.347656 80.652344 L 79.347656 83.125 L 74.425781 83.125 Z "/>
<path d="M 80.167969 80.652344 L 88.074219 80.652344 L 88.074219 83.125 L 80.167969 83.125 Z "/>
<path d="M 67.824219 80.652344 L 73.605469 80.652344 L 73.605469 83.125 L 67.824219 83.125 Z "/>
<path d="M 38.59375 85.597656 L 48.789062 85.597656 L 48.789062 88.074219 L 38.59375 88.074219 Z "/>
<path d="M 49.636719 85.597656 L 52.839844 85.597656 L 52.839844 88.074219 L 49.636719 88.074219 Z "/>
<path d="M 53.683594 85.597656 L 61.015625 85.597656 L 61.015625 88.074219 L 53.683594 88.074219 Z "/>
<path d="M 61.847656 85.597656 L 66.847656 85.597656 L 66.847656 88.074219 L 61.847656 88.074219 Z "/>
<path d="M 67.695312 85.597656 L 72.695312 85.597656 L 72.695312 88.074219 L 67.695312 88.074219 Z "/>
<path d="M 73.542969 85.597656 L 80.78125 85.597656 L 80.78125 88.074219 L 73.542969 88.074219 Z "/>
<path d="M 81.613281 85.597656 L 83.125 85.597656 L 83.125 88.074219 L 81.613281 88.074219 Z "/>
<path d="M 38.59375 95.496094 L 42.628906 95.496094 L 42.628906 97.96875 L 38.59375 97.96875 Z "/>
<path d="M 43.683594 95.496094 L 58.386719 95.496094 L 58.386719 97.96875 L 43.683594 97.96875 Z "/>
</g>
</g>
</svg>
