<svg width="128" xmlns="http://www.w3.org/2000/svg" height="128" viewBox="0 0 128 128" xmlns:xlink="http://www.w3.org/1999/xlink">
<g style="stroke:#ff4545">
<path style="fill:none;stroke-width:8" d="M 65.106798 39.133551 L 198.154557 39.133551 C 210.706978 39.133551 220.867333 49.286012 220.867333 61.838432 L 220.867333 194.159888 C 220.867333 206.68073 210.706978 216.864769 198.154557 216.864769 L 65.106798 216.864769 C 52.578062 216.864769 42.394023 206.68073 42.394023 194.159888 L 42.394023 61.838432 C 42.394023 49.286012 52.578062 39.133551 65.106798 39.133551 Z " transform="scale(.4948)"/>
<g style="stroke-linecap:round;stroke-dasharray:0,159;fill:#000">
<path style="stroke-width:119" d="M 436.967439 117.025172 L -0.00372456 117.025172 M 436.967439 439.980926 L -0.00372456 439.980926 " transform="matrix(.16053 0 0 .1599 20.41857 18.8033)"/>
<path style="stroke-width:109" d="M 436.967439 117.025172 L -0.00372456 117.025172 M 436.967439 439.980926 L -0.00372456 439.980926 " transform="matrix(.16053 0 0 .1599 20.41857 18.8033)"/>
</g>
</g>
</svg>
