<svg width="128" xmlns="http://www.w3.org/2000/svg" height="128" viewBox="0 0 128 128" xmlns:xlink="http://www.w3.org/1999/xlink">
<g style="fill:#de165d">
<path d="M 64 43.945312 C 64 58.644531 52.0625 70.5625 37.332031 70.5625 C 22.605469 70.5625 10.667969 58.644531 10.667969 43.945312 C 10.667969 29.242188 22.605469 17.324219 37.332031 17.324219 C 52.0625 17.324219 64 29.242188 64 43.945312 Z "/>
<path d="M 117.332031 43.945312 C 117.332031 58.644531 105.394531 70.5625 90.667969 70.5625 C 75.9375 70.5625 64 58.644531 64 43.945312 C 64 29.242188 75.9375 17.324219 90.667969 17.324219 C 105.394531 17.324219 117.332031 29.242188 117.332031 43.945312 Z "/>
<path d="M 15.707031 59.082031 L 64.839844 44.824219 L 110.503906 61.699219 L 63.660156 110.65625 Z "/>
</g>
</svg>
