<svg width="128" xmlns="http://www.w3.org/2000/svg" height="128" viewBox="0 0 128 128" xmlns:xlink="http://www.w3.org/1999/xlink">
<g style="fill:#52c8ff">
<path d="M 19.792969 41.679688 L 19.894531 47.863281 L 107.109375 47.863281 L 107.019531 41.679688 Z "/>
<path d="M 16.171875 60.234375 L 16.171875 66.417969 L 110.496094 66.417969 L 110.496094 60.234375 Z "/>
<path d="M 20.039062 78.789062 L 20.039062 84.972656 L 106.628906 84.972656 L 106.628906 78.789062 Z "/>
<path d="M 60.234375 16.199219 L 60.234375 110.574219 L 66.433594 110.574219 L 66.433594 16.199219 Z "/>
</g>
<g style="fill:none;stroke:#52c8ff">
<g style="stroke-width:12.5">
<path d="M 89.761646 7.739343 C 66.890979 -44.759772 68.627792 -110.632347 89.761646 -168.049801 " transform="matrix(.4948 0 0 .4948 0 102.91667)"/>
<path d="M 166.236674 7.739343 C 189.107341 -44.759772 187.370528 -110.632347 166.236674 -168.049801 " transform="matrix(.4948 0 0 .4948 0 102.91667)"/>
</g>
<path style="stroke-linecap:round;stroke-width:1.214" d="M 33.056231 27.316886 C 33.056231 32.346129 28.982238 36.420123 23.952995 36.420123 C 18.923751 36.420123 14.848224 32.346129 14.848224 27.316886 C 14.848224 22.287643 18.923751 18.212116 23.952995 18.212116 C 28.982238 18.212116 33.056231 22.287643 33.056231 27.316886 Z " transform="matrix(5.0952 0 0 5.0952 -58.71327 -75.85297)"/>
</g>
</svg>
