<svg width="128" xmlns="http://www.w3.org/2000/svg" height="128" viewBox="0 0 128 128" xmlns:xlink="http://www.w3.org/1999/xlink">
<g style="fill-rule:evenodd">
<path style="fill:#fff;stroke:#5b93d6;stroke-width:7.56" d="M 76.159244 33.449437 C 76.159244 33.449437 90.740577 31.973146 106.450839 34.396789 C 106.450839 34.396789 107.240299 37.317793 104.682447 38.186199 L 102.290382 62.627893 L 126.842601 176.160191 C 126.842601 176.160191 132.368823 190.473108 115.237533 193.575687 C 98.082559 196.686161 72.369834 201.446607 52.31754 185.917921 C 52.31754 185.917921 47.580778 179.918022 55.917479 152.397433 L 78.685517 63.022623 L 77.785532 38.288829 C 77.785532 38.288829 74.185593 34.759941 76.159244 33.449437 Z " transform="scale(.4948)"/>
<path style="fill:#d1d6cf;fill-opacity:.467" d="M 60.597656 91.066406 C 60.597656 93.214844 53.738281 94.949219 45.273438 94.949219 C 36.824219 94.949219 29.960938 93.214844 29.960938 91.066406 C 29.960938 88.917969 36.824219 87.175781 45.273438 87.175781 C 53.738281 87.175781 60.597656 88.917969 60.597656 91.066406 Z "/>
<path style="fill:#acc2e2" d="M 56.796875 74.777344 C 45.183594 81.027344 36.523438 79.230469 30.832031 76.015625 L 30.820312 76.082031 C 30.808594 76.132812 30.792969 76.171875 30.792969 76.210938 C 28.789062 82.824219 28.410156 86.707031 28.464844 88.722656 C 28.488281 89.464844 28.554688 89.894531 28.621094 90.183594 C 37.175781 96.277344 48.097656 94.363281 56.394531 92.863281 C 59.636719 92.277344 59.675781 91.433594 59.882812 90.378906 C 60.089844 89.324219 59.714844 88.152344 59.714844 88.152344 C 59.660156 88.019531 59.621094 87.878906 59.597656 87.734375 Z "/>
<path style="fill:#fff;stroke:#5b93d6;stroke-width:7.56" d="M 143.366006 70.893543 L 142.631808 50.470203 C 142.631808 50.470203 142.710754 47.8413 141.289726 47.051839 L 142.316024 44.707142 C 142.316024 44.707142 150.921142 42.812437 171.660267 45.291342 C 171.660267 45.291342 174.920738 45.078188 175.339152 47.920246 C 175.339152 47.920246 173.499709 49.81495 173.657602 53.051738 L 171.265537 72.417201 C 171.265537 72.417201 196.370377 165.344584 203.08079 203.657096 C 203.08079 203.657096 200.049262 219.604196 182.65745 222.390991 C 165.289321 225.185681 129.897812 232.630293 102.13249 209.238581 C 102.13249 209.238581 92.737912 202.946582 105.314016 176.025983 L 140.263427 80.185492 C 140.263427 80.185492 143.421269 75.235575 143.871261 73.577708 C 144.313359 71.919841 143.421269 71.075119 143.366006 70.893543 Z " transform="scale(.4948)"/>
<path style="fill:#d1d6cf;fill-opacity:.467" d="M 96.796875 102.785156 C 96.796875 106.238281 87.488281 109.023438 75.988281 109.023438 C 64.503906 109.023438 55.183594 106.238281 55.183594 102.785156 C 55.183594 99.335938 64.503906 96.535156 75.988281 96.535156 C 87.488281 96.535156 96.796875 99.335938 96.796875 102.785156 Z "/>
<g style="fill:#acc2e2">
<g style="fill-opacity:.6">
<path d="M 42.265625 19.765625 L 42.667969 31.066406 C 42.683594 31.367188 42.65625 31.667969 42.578125 31.964844 L 38.113281 49.503906 C 39.660156 49.621094 41.25 50.222656 42.839844 51.445312 C 45.859375 53.800781 48.699219 53.398438 51.25 51.523438 L 46.953125 31.652344 C 46.886719 31.328125 46.863281 31.003906 46.886719 30.675781 L 47.941406 19.949219 C 45.859375 19.792969 43.90625 19.738281 42.304688 19.765625 C 42.292969 19.765625 42.277344 19.765625 42.265625 19.765625 Z "/>
<path d="M 75.808594 25.597656 C 75.390625 25.597656 75.117188 25.613281 74.765625 25.613281 L 75.066406 34.191406 C 75.390625 35.011719 75.535156 36.210938 75.222656 37.332031 C 74.792969 38.90625 74.335938 39.363281 73.878906 40.15625 C 73.542969 40.730469 73.371094 40.988281 73.230469 41.222656 L 64.257812 65.820312 C 69.636719 63.816406 75.183594 64.375 78.996094 71.523438 C 78.996094 71.523438 86.132812 79.714844 84.347656 57.1875 C 84.179688 55.027344 84.269531 53.113281 84.570312 51.40625 C 82.332031 42.824219 80.703125 36.757812 80.703125 36.757812 C 80.574219 36.316406 80.546875 35.859375 80.597656 35.402344 L 81.769531 25.949219 C 79.402344 25.742188 77.316406 25.613281 75.808594 25.597656 Z M 74.53125 33.164062 C 74.542969 33.191406 74.570312 33.230469 74.609375 33.292969 C 74.609375 33.28125 74.597656 33.253906 74.597656 33.242188 C 74.53125 33.164062 74.492188 33.113281 74.53125 33.164062 Z M 74.636719 33.320312 C 74.675781 33.398438 74.714844 33.503906 74.765625 33.582031 C 74.714844 33.464844 74.660156 33.386719 74.636719 33.320312 Z "/>
</g>
<path d="M 57.839844 82.226562 L 55.664062 88.175781 C 55.636719 88.269531 55.597656 88.359375 55.558594 88.449219 C 52.617188 94.738281 52.449219 98.242188 52.695312 99.816406 C 52.8125 100.585938 53.019531 100.910156 53.085938 101.003906 C 65.351562 111.355469 80.871094 108.074219 89.738281 106.652344 C 95.117188 105.792969 96.394531 101.863281 96.667969 100.691406 C 95.898438 96.394531 94.660156 90.714844 93.230469 84.519531 C 77.292969 88.464844 65.664062 85.964844 57.839844 82.226562 Z "/>
</g>
</g>
</svg>
