<svg width="128" xmlns="http://www.w3.org/2000/svg" height="128" viewBox="0 0 128 128" xmlns:xlink="http://www.w3.org/1999/xlink">
<g style="fill:#b2a445">
<path d="M 18.644531 13.90625 C 16.808594 13.90625 15.339844 15.363281 15.339844 17.1875 L 15.339844 109.519531 C 15.339844 111.339844 16.808594 112.800781 18.644531 112.800781 L 37.355469 112.800781 C 39.207031 112.800781 40.675781 111.339844 40.675781 109.519531 L 40.675781 17.1875 C 40.675781 15.363281 39.207031 13.90625 37.355469 13.90625 Z M 21.769531 23.175781 L 34.246094 23.175781 L 34.246094 60.261719 L 21.769531 60.261719 Z M 28.007812 78.800781 C 31.445312 78.800781 34.246094 81.574219 34.246094 84.988281 C 34.246094 88.398438 31.445312 91.171875 28.007812 91.171875 C 24.558594 91.171875 21.769531 88.398438 21.769531 84.988281 C 21.769531 81.574219 24.558594 78.800781 28.007812 78.800781 Z "/>
<path d="M 49.832031 13.90625 C 47.996094 13.90625 46.523438 15.363281 46.523438 17.1875 L 46.523438 109.519531 C 46.523438 111.339844 47.996094 112.800781 49.832031 112.800781 L 62.304688 112.800781 C 64.152344 112.800781 65.625 111.339844 65.625 109.519531 L 65.625 17.1875 C 65.625 15.363281 64.152344 13.90625 62.304688 13.90625 Z M 49.832031 23.175781 L 62.304688 23.175781 L 62.304688 60.261719 L 49.832031 60.261719 Z M 56.066406 78.800781 C 59.519531 78.800781 62.304688 81.574219 62.304688 84.988281 C 62.304688 88.398438 59.519531 91.171875 56.066406 91.171875 C 52.628906 91.171875 49.832031 88.398438 49.832031 84.988281 C 49.832031 81.574219 52.628906 78.800781 56.066406 78.800781 Z "/>
<path d="M 70.988281 17.160156 C 69.21875 17.644531 68.175781 19.425781 68.644531 21.183594 L 92.761719 110.378906 C 93.242188 112.136719 95.050781 113.164062 96.824219 112.695312 L 108.867188 109.503906 C 110.652344 109.023438 111.691406 107.238281 111.210938 105.480469 L 87.097656 16.289062 C 86.628906 14.53125 84.816406 13.503906 83.046875 13.972656 Z M 73.410156 26.121094 L 85.46875 22.929688 L 95.144531 58.75 L 83.097656 61.953125 Z M 93.972656 78.253906 C 97.292969 77.371094 100.714844 79.335938 101.601562 82.628906 C 102.5 85.925781 100.519531 89.324219 97.199219 90.195312 C 93.867188 91.082031 90.457031 89.128906 89.558594 85.832031 C 88.671875 82.539062 90.636719 79.140625 93.972656 78.253906 Z "/>
</g>
</svg>
