<svg width="128" xmlns="http://www.w3.org/2000/svg" height="128" viewBox="0 0 128 128" xmlns:xlink="http://www.w3.org/1999/xlink">
<path style="fill:#c8a878" d="M 57.5 100.730469 C 57.5 102.980469 55.613281 104.792969 53.292969 104.792969 C 50.964844 104.792969 49.089844 102.980469 49.089844 100.730469 C 49.089844 98.488281 50.964844 96.667969 53.292969 96.667969 C 55.613281 96.667969 57.5 98.488281 57.5 100.730469 Z M 37.332031 37.761719 C 37.332031 40 35.441406 41.824219 33.125 41.824219 C 30.792969 41.824219 28.917969 40 28.917969 37.761719 C 28.917969 35.507812 30.792969 33.699219 33.125 33.699219 C 35.441406 33.699219 37.332031 35.507812 37.332031 37.761719 Z M 109.296875 51.535156 C 109.296875 53.789062 107.421875 55.613281 105.089844 55.613281 C 102.773438 55.613281 100.886719 53.789062 100.886719 51.535156 C 100.886719 49.296875 102.773438 47.472656 105.089844 47.472656 C 107.421875 47.472656 109.296875 49.296875 109.296875 51.535156 Z M 61.886719 112.65625 C 59.050781 111.824219 56.355469 109.101562 54.191406 104.882812 C 53.371094 103.269531 53.203125 103.058594 52.773438 103.058594 C 52.03125 103.046875 50.792969 102.472656 50.363281 101.925781 C 49.386719 100.691406 49.648438 99.167969 50.714844 98.074219 C 51.027344 97.761719 51.066406 97.382812 51.066406 97.214844 C 51.066406 97.058594 50.859375 96.199219 50.613281 95.285156 C 50.066406 93.332031 49.050781 88.75 48.878906 87.433594 C 48.816406 86.914062 48.699219 86.40625 48.632812 86.300781 C 48.554688 86.183594 47.578125 86.433594 45.78125 87.042969 C 40.636719 88.800781 35.300781 90.144531 30.300781 90.964844 C 27.980469 91.355469 22.019531 91.394531 20.496094 91.042969 C 16.980469 90.234375 15.078125 88.464844 14.871094 85.808594 C 14.753906 84.335938 15.144531 82.941406 16.25 80.859375 C 17.722656 78.097656 19.453125 75.910156 22.683594 72.695312 C 25.3125 70.078125 30.574219 65.714844 33.488281 63.738281 L 34.128906 63.308594 L 33.203125 62.628906 C 21.238281 53.957031 14.503906 45.988281 14.855469 40.9375 C 15.167969 36.679688 19.972656 34.792969 28.410156 35.613281 C 30.285156 35.808594 30.300781 35.808594 30.859375 35.378906 C 32.566406 34.089844 35.089844 34.53125 36.183594 36.300781 C 36.5625 36.925781 36.757812 37.070312 37.578125 37.265625 C 39.128906 37.644531 43.644531 38.984375 46.121094 39.804688 C 47.394531 40.222656 48.476562 40.535156 48.527344 40.480469 C 48.582031 40.429688 48.800781 39.492188 49.011719 38.386719 C 51.09375 27.160156 54.582031 19.050781 58.761719 15.597656 C 60.910156 13.828125 63.359375 13.386719 65.597656 14.347656 C 67.667969 15.246094 70.105469 17.890625 71.980469 21.277344 C 73.320312 23.683594 75.128906 28.644531 76.25 32.980469 C 76.835938 35.207031 77.695312 39.363281 77.695312 39.921875 C 77.695312 40.144531 77.773438 40.378906 77.878906 40.429688 C 77.980469 40.496094 79.324219 40.117188 80.859375 39.609375 C 94.519531 35.066406 105.585938 34.21875 109.882812 37.371094 C 112.707031 39.453125 112.421875 43.621094 109.140625 48.214844 C 108.582031 49.011719 108.464844 49.308594 108.582031 49.648438 C 108.660156 49.894531 108.722656 50.636719 108.738281 51.289062 C 108.75 52.371094 108.699219 52.566406 108.203125 53.136719 C 107.433594 54.050781 106.238281 54.492188 104.933594 54.347656 C 103.957031 54.246094 103.878906 54.269531 103.398438 54.765625 C 102.5 55.714844 97.5 59.855469 95.167969 61.589844 C 93.917969 62.511719 92.890625 63.347656 92.890625 63.425781 C 92.890625 63.503906 93.527344 64.035156 94.308594 64.609375 C 96.574219 66.261719 100.363281 69.375 102.082031 71.003906 C 109.972656 78.4375 113.058594 84.335938 111.015625 88.074219 C 109.035156 91.71875 102.121094 92.355469 91.199219 89.910156 C 88.410156 89.285156 81.769531 87.34375 79.402344 86.457031 C 78.632812 86.171875 77.941406 85.988281 77.863281 86.066406 C 77.785156 86.132812 77.539062 87.226562 77.316406 88.476562 C 75.324219 99.441406 71.992188 107.421875 67.929688 110.871094 C 67.316406 111.40625 66.394531 112.03125 65.871094 112.265625 C 64.675781 112.800781 62.980469 112.96875 61.886719 112.65625 Z M 64.425781 110.429688 C 68.984375 109.21875 72.878906 101.082031 75.144531 88.058594 C 75.402344 86.574219 75.546875 85.300781 75.46875 85.234375 C 75.390625 85.167969 74.101562 84.648438 72.589844 84.074219 C 71.09375 83.515625 68.398438 82.371094 66.613281 81.535156 L 63.359375 80.027344 L 60.285156 81.433594 C 57.667969 82.628906 54.765625 83.828125 51.589844 84.988281 C 50.976562 85.207031 50.886719 85.3125 50.886719 85.808594 C 50.886719 86.574219 51.339844 89.050781 52.109375 92.460938 C 53.085938 96.769531 53.113281 96.824219 54.035156 97.121094 C 55.066406 97.460938 55.652344 97.851562 56.105469 98.761719 C 56.574219 99.699219 56.550781 100.847656 55.808594 101.847656 C 55.183594 102.695312 55.167969 102.617188 56.589844 105.183594 C 58.308594 108.253906 60.089844 109.949219 62.214844 110.519531 C 62.941406 110.730469 63.386719 110.703125 64.425781 110.429688 Z M 105.128906 89.324219 C 106.550781 89.074219 108.085938 88.320312 108.683594 87.578125 C 109.453125 86.628906 109.660156 85.886719 109.558594 84.519531 C 109.347656 81.679688 106.71875 77.917969 101.628906 73.125 C 98.632812 70.324219 91.261719 64.699219 90.714844 64.804688 C 90.558594 64.84375 89.246094 65.675781 87.800781 66.652344 C 86.339844 67.628906 83.867188 69.207031 82.304688 70.144531 L 79.464844 71.847656 L 79.246094 75.078125 C 79.113281 76.863281 78.839844 79.542969 78.621094 81.042969 C 78.410156 82.539062 78.269531 83.800781 78.320312 83.855469 C 78.542969 84.050781 83.410156 85.714844 86.378906 86.613281 C 94.621094 89.101562 101.066406 90.039062 105.128906 89.324219 Z M 28.738281 89.152344 C 33.515625 88.59375 39.832031 87.003906 46.261719 84.738281 C 47.683594 84.246094 48.242188 83.972656 48.242188 83.761719 C 48.242188 83.605469 48.074219 82.292969 47.863281 80.832031 C 47.667969 79.375 47.394531 76.652344 47.265625 74.792969 L 47.042969 71.40625 L 45.988281 70.847656 C 44.152344 69.882812 39.910156 67.292969 38.035156 66.003906 C 37.042969 65.3125 36.160156 64.753906 36.082031 64.753906 C 35.871094 64.753906 34.816406 65.496094 32.003906 67.628906 C 29.101562 69.816406 24.714844 73.644531 22.761719 75.691406 C 16.015625 82.746094 15.480469 87.785156 21.339844 89.0625 C 22.683594 89.347656 26.640625 89.402344 28.738281 89.152344 Z M 54.050781 81.847656 C 55.46875 81.289062 57.550781 80.390625 58.671875 79.871094 L 60.714844 78.933594 L 58.867188 78.058594 C 56.574219 76.992188 53.28125 75.285156 51.589844 74.296875 C 49.621094 73.152344 49.753906 73.085938 49.753906 75.207031 C 49.753906 77.058594 49.933594 79.074219 50.339844 81.679688 C 50.585938 83.359375 50.285156 83.347656 54.050781 81.847656 Z M 76.082031 82.175781 C 76.757812 77.566406 77.097656 73.398438 76.785156 73.398438 C 76.679688 73.398438 76.535156 73.464844 76.472656 73.554688 C 76.300781 73.816406 70.597656 76.796875 68.203125 77.890625 C 66.992188 78.449219 65.988281 78.945312 65.988281 79.011719 C 65.988281 79.257812 75.011719 83.046875 75.636719 83.058594 C 75.871094 83.058594 75.976562 82.824219 76.082031 82.175781 Z M 66.640625 76.082031 C 69.726562 74.597656 73.957031 72.355469 76.066406 71.09375 L 77.070312 70.507812 L 77.1875 68.449219 C 77.34375 65.910156 77.316406 57.214844 77.148438 56.5625 C 77.058594 56.160156 76.511719 55.792969 73.839844 54.308594 C 72.097656 53.347656 70.636719 52.550781 70.613281 52.550781 C 70.585938 52.550781 69.597656 52.070312 68.410156 51.484375 C 64.453125 49.492188 63.738281 49.167969 63.4375 49.167969 C 62.722656 49.167969 53.582031 53.75 50.285156 55.753906 C 49.464844 56.25 49.386719 56.355469 49.269531 57.1875 C 49.050781 58.800781 49.257812 70.050781 49.519531 70.46875 C 49.726562 70.792969 53.113281 72.785156 55.558594 74.023438 C 58.996094 75.769531 62.917969 77.628906 63.152344 77.628906 C 63.292969 77.628906 64.871094 76.941406 66.640625 76.082031 Z M 61.535156 68.191406 C 58.203125 67.109375 56.640625 63.671875 58.214844 60.898438 C 58.957031 59.609375 60.15625 58.777344 61.808594 58.386719 C 63.253906 58.058594 64.167969 58.164062 65.742188 58.839844 C 69.0625 60.273438 69.960938 64.324219 67.511719 66.835938 C 66.171875 68.203125 63.476562 68.800781 61.535156 68.191406 Z M 46.730469 63.308594 C 46.730469 58.800781 46.679688 57.644531 46.496094 57.734375 C 45.011719 58.503906 37.941406 63.175781 37.941406 63.386719 C 37.941406 63.464844 38.488281 63.90625 39.167969 64.347656 C 40.769531 65.441406 46.40625 68.957031 46.589844 68.972656 C 46.667969 68.984375 46.730469 66.433594 46.730469 63.308594 Z M 83.660156 66.667969 C 85.703125 65.378906 87.667969 64.089844 88.046875 63.777344 C 88.722656 63.242188 88.738281 63.230469 88.359375 62.96875 C 85.15625 60.742188 80.261719 57.628906 79.949219 57.628906 C 79.855469 57.628906 79.753906 60.195312 79.726562 63.320312 C 79.699219 66.433594 79.738281 68.996094 79.816406 68.996094 C 79.882812 68.996094 81.613281 67.941406 83.660156 66.667969 Z M 40.652344 58.957031 C 42.929688 57.488281 45.300781 56.003906 45.925781 55.652344 L 47.070312 55.011719 L 47.1875 53.152344 C 47.371094 50.390625 47.65625 47.644531 47.996094 45.351562 C 48.449219 42.292969 48.542969 42.605469 46.914062 42.03125 C 45.078125 41.378906 39.246094 39.636719 37.628906 39.246094 L 36.378906 38.945312 L 35.792969 39.542969 C 34.636719 40.730469 32.839844 41.042969 31.394531 40.3125 C 30.636719 39.921875 29.882812 38.972656 29.660156 38.113281 C 29.558594 37.695312 29.464844 37.65625 28.125 37.550781 C 25.691406 37.34375 22.058594 37.539062 20.792969 37.957031 C 14.738281 39.910156 16.550781 45.808594 25.769531 54.089844 C 27.472656 55.636719 30.15625 57.851562 31.71875 59.011719 C 35.871094 62.109375 35.808594 62.070312 36.199219 61.824219 C 36.378906 61.707031 38.386719 60.417969 40.652344 58.957031 Z M 92.878906 60.417969 C 95.78125 58.347656 97.488281 56.992188 100.117188 54.6875 L 102.238281 52.824219 L 102.121094 52.019531 C 101.953125 50.871094 102.175781 49.882812 102.839844 49.207031 C 103.621094 48.398438 104.363281 48.074219 105.507812 48.152344 L 106.484375 48.214844 L 107.382812 47.042969 C 109.375 44.402344 110.105469 41.640625 109.230469 39.988281 C 108.738281 39.035156 108.28125 38.632812 107.058594 38.085938 C 104.011719 36.730469 97.839844 37.042969 90.246094 38.917969 C 86.953125 39.738281 78.660156 42.304688 78.308594 42.617188 C 78.253906 42.667969 78.386719 44.074219 78.621094 45.730469 C 78.996094 48.515625 79.386719 52.800781 79.386719 54.285156 C 79.386719 54.882812 79.464844 54.949219 81.042969 55.886719 C 83.789062 57.5 87.332031 59.753906 88.933594 60.925781 C 89.753906 61.523438 90.480469 62.019531 90.535156 62.03125 C 90.585938 62.03125 91.640625 61.316406 92.878906 60.417969 Z M 76.941406 52.488281 C 76.941406 50.390625 76.132812 43.566406 75.886719 43.566406 C 75.585938 43.566406 66.171875 47.667969 66.171875 47.800781 C 66.171875 47.851562 66.613281 48.074219 67.160156 48.292969 C 68.632812 48.90625 74.230469 51.808594 75.519531 52.644531 C 76.144531 53.046875 76.71875 53.371094 76.796875 53.386719 C 76.875 53.398438 76.941406 52.996094 76.941406 52.488281 Z M 50.480469 52.917969 C 51.71875 52.148438 57.019531 49.347656 58.761719 48.554688 L 60.691406 47.667969 L 59.519531 47.082031 C 57.042969 45.859375 51.105469 43.515625 50.78125 43.632812 C 50.519531 43.722656 50.429688 44.230469 50.050781 47.628906 C 49.402344 53.515625 49.402344 53.582031 50.480469 52.917969 Z M 65.183594 45.625 C 66.941406 44.84375 72.136719 42.734375 74.582031 41.808594 C 75.925781 41.316406 75.886719 41.679688 75.027344 37.121094 C 73.308594 27.996094 70.585938 21.09375 67.539062 18.136719 C 66.027344 16.667969 64.882812 16.121094 63.347656 16.121094 C 62.003906 16.121094 60.9375 16.5625 59.792969 17.589844 C 56.25 20.769531 53.320312 27.980469 51.472656 38.058594 C 50.949219 40.949219 50.925781 41.183594 51.144531 41.355469 C 51.261719 41.433594 52.707031 42.03125 54.375 42.683594 C 56.042969 43.347656 58.710938 44.453125 60.324219 45.144531 C 61.925781 45.847656 63.269531 46.433594 63.292969 46.433594 C 63.332031 46.445312 64.179688 46.082031 65.183594 45.625 Z "/>
</svg>
