<svg width="128" xmlns="http://www.w3.org/2000/svg" height="128" viewBox="0 0 128 128" xmlns:xlink="http://www.w3.org/1999/xlink">
<path style="fill:#d64c62" d="M 50.390625 32.65625 C 48.996094 32.65625 47.644531 32.863281 46.339844 33.136719 C 42.019531 33.777344 36.796875 35.300781 31.367188 38.894531 C 17.902344 47.8125 12.175781 89.152344 14.269531 93.019531 C 16.367188 96.886719 35.207031 89.167969 45.078125 74.308594 C 45.820312 73.203125 46.550781 72.070312 47.199219 70.847656 C 48.230469 71.015625 49.308594 71.042969 50.390625 71.042969 L 77.628906 71.042969 C 78.320312 71.042969 78.878906 71.015625 79.558594 70.949219 C 80.183594 72.109375 80.886719 73.242188 81.589844 74.308594 C 91.457031 89.167969 110.300781 96.886719 112.394531 93.019531 C 114.492188 89.152344 108.761719 47.8125 95.300781 38.894531 C 91.433594 36.339844 87.695312 34.816406 84.285156 33.90625 C 83.984375 33.828125 83.722656 33.789062 83.425781 33.710938 C 81.574219 33.136719 79.660156 32.65625 77.628906 32.65625 Z M 84.480469 41.875 C 84.855469 41.808594 85.273438 41.824219 85.636719 41.875 C 86.144531 41.925781 86.628906 42.082031 87.097656 42.34375 C 88.933594 43.410156 89.503906 45.792969 88.4375 47.628906 C 87.371094 49.464844 85.078125 50.128906 83.230469 49.0625 C 81.378906 48.007812 80.714844 45.625 81.785156 43.789062 C 82.382812 42.761719 83.371094 42.058594 84.480469 41.875 Z M 39.386719 43.113281 L 42.957031 43.113281 L 42.957031 50.886719 L 50.675781 50.886719 L 50.675781 54.347656 L 42.957031 54.347656 L 42.957031 62.121094 L 39.386719 62.121094 L 39.386719 54.347656 L 31.652344 54.347656 L 31.652344 50.886719 L 39.386719 50.886719 Z M 94.621094 47.058594 C 95.117188 47.109375 95.613281 47.265625 96.066406 47.527344 C 97.917969 48.59375 98.582031 50.976562 97.527344 52.8125 C 96.457031 54.648438 94.050781 55.3125 92.214844 54.246094 C 90.363281 53.191406 89.792969 50.808594 90.859375 48.972656 C 91.652344 47.589844 93.125 46.863281 94.621094 47.058594 Z M 79.363281 50.703125 C 79.738281 50.636719 80.144531 50.652344 80.519531 50.703125 C 81.015625 50.753906 81.511719 50.910156 81.964844 51.171875 C 83.816406 52.238281 84.386719 54.621094 83.320312 56.457031 C 82.253906 58.292969 79.960938 58.957031 78.113281 57.890625 C 76.261719 56.835938 75.597656 54.453125 76.667969 52.617188 C 77.265625 51.589844 78.253906 50.886719 79.363281 50.703125 Z M 88.4375 55.886719 C 88.800781 55.820312 89.128906 55.832031 89.503906 55.886719 C 90 55.9375 90.496094 56.09375 90.949219 56.355469 C 92.800781 57.421875 93.464844 59.804688 92.394531 61.640625 C 91.339844 63.476562 88.933594 64.140625 87.097656 63.074219 C 85.246094 62.019531 84.675781 59.636719 85.742188 57.800781 C 86.339844 56.769531 87.355469 56.066406 88.4375 55.886719 Z "/>
</svg>
