<svg width="128" xmlns="http://www.w3.org/2000/svg" height="128" viewBox="0 0 128 128" xmlns:xlink="http://www.w3.org/1999/xlink">
<g style="fill:#ec7878">
<path d="M 69.765625 28.699219 C 69.347656 28.699219 68.894531 28.816406 68.503906 29.074219 C 68.113281 29.335938 67.773438 29.777344 67.785156 30.351562 C 67.839844 30.558594 67.8125 30.753906 67.800781 30.976562 C 67.800781 31.613281 68.320312 32.136719 68.972656 32.136719 C 69.609375 32.136719 70.128906 31.613281 70.128906 30.976562 C 70.128906 30.339844 69.621094 29.816406 68.984375 29.804688 C 69.207031 29.660156 69.53125 29.582031 69.765625 29.570312 C 70.691406 29.570312 71.367188 30.089844 71.863281 30.871094 C 72.355469 31.652344 72.605469 32.695312 72.589844 33.542969 C 72.550781 35.652344 71.511719 37.433594 69.960938 38.789062 C 68.425781 40.15625 66.378906 41.082031 64.441406 41.445312 L 64.597656 42.304688 C 66.691406 41.914062 68.867188 40.9375 70.546875 39.453125 C 72.226562 37.96875 73.425781 35.949219 73.476562 33.554688 C 73.488281 32.527344 73.214844 31.355469 72.605469 30.402344 C 72.003906 29.441406 71.027344 28.699219 69.765625 28.699219 Z "/>
<path d="M 56.902344 28.699219 C 57.316406 28.699219 57.773438 28.816406 58.164062 29.074219 C 58.554688 29.335938 58.894531 29.777344 58.878906 30.351562 C 58.828125 30.558594 58.855469 30.753906 58.867188 30.976562 C 58.867188 31.613281 58.347656 32.136719 57.695312 32.136719 C 57.058594 32.136719 56.535156 31.613281 56.535156 30.976562 C 56.535156 30.339844 57.042969 29.816406 57.683594 29.804688 C 57.460938 29.660156 57.136719 29.582031 56.902344 29.570312 C 55.976562 29.570312 55.300781 30.089844 54.804688 30.871094 C 54.308594 31.652344 54.0625 32.695312 54.074219 33.542969 C 54.113281 35.652344 55.15625 37.433594 56.707031 38.789062 C 58.242188 40.15625 60.285156 41.082031 62.226562 41.445312 L 62.070312 42.304688 C 59.972656 41.914062 57.800781 40.9375 56.121094 39.453125 C 54.441406 37.96875 53.242188 35.949219 53.191406 33.554688 C 53.175781 32.527344 53.449219 31.355469 54.0625 30.402344 C 54.660156 29.441406 55.636719 28.699219 56.902344 28.699219 Z "/>
<path d="M 62.460938 37.136719 C 57.472656 37.355469 52.644531 39.804688 49.425781 43.582031 C 47.761719 45.390625 46.199219 47.421875 45.480469 49.816406 C 45.496094 50.195312 45.636719 50.558594 45.742188 50.925781 C 44.675781 51.003906 43.347656 50.859375 42.605469 51.796875 C 41.261719 53.28125 40.949219 55.339844 40.285156 57.160156 C 37.277344 67.566406 38.828125 79.425781 45.234375 88.269531 C 48.710938 93.019531 53.878906 96.785156 59.804688 97.746094 C 60.792969 97.839844 61.925781 98.113281 62.839844 97.589844 C 63.175781 97.304688 63.671875 97.382812 63.957031 97.683594 C 65.195312 98.320312 66.589844 97.707031 67.863281 97.539062 C 73.917969 96.210938 79.113281 92.058594 82.371094 86.875 C 88.398438 77.566406 89.402344 65.363281 85.664062 54.972656 C 85.167969 53.738281 84.675781 52.410156 83.699219 51.457031 C 83.046875 51.003906 82.214844 50.847656 81.433594 50.792969 C 81.941406 49.753906 81.601562 48.503906 80.847656 47.667969 C 78.125 43.214844 74.089844 39.375 69.011719 37.863281 C 66.875 37.265625 64.660156 37.121094 62.460938 37.136719 Z "/>
<path d="M 63.113281 38.359375 C 63.085938 38.359375 63.046875 38.359375 63.007812 38.371094 C 61.261719 38.503906 59.480469 38.671875 57.8125 39.257812 C 53.046875 40.925781 49.414062 44.804688 46.925781 49.101562 C 46.550781 49.765625 46.808594 50.691406 47.578125 50.753906 C 52.917969 50.769531 58.253906 50.753906 63.59375 50.769531 C 63.59375 50.769531 63.59375 50.769531 63.605469 50.769531 C 68.945312 50.753906 74.285156 50.769531 79.621094 50.753906 C 80.390625 50.691406 80.652344 49.765625 80.273438 49.101562 C 77.773438 44.804688 74.140625 40.925781 69.375 39.257812 C 67.707031 38.671875 65.925781 38.503906 64.179688 38.371094 C 63.738281 38.332031 63.816406 38.476562 63.605469 38.476562 C 63.398438 38.464844 63.476562 38.347656 63.113281 38.359375 Z "/>
<path d="M 66.953125 52.097656 C 65.390625 52.097656 64.128906 53.371094 64.128906 54.960938 L 64.128906 95.625 C 64.128906 96.199219 64.128906 96.628906 64.882812 96.707031 C 76.824219 96.054688 86.613281 83.292969 86.613281 67.707031 C 86.613281 62.566406 85.585938 57.734375 83.761719 53.542969 C 83.761719 53.542969 83.75 53.542969 83.75 53.542969 C 83.722656 53.449219 83.683594 53.359375 83.644531 53.269531 C 83.644531 53.253906 83.632812 53.253906 83.632812 53.242188 C 83.632812 53.230469 83.632812 53.230469 83.632812 53.230469 C 83.292969 52.550781 82.617188 52.097656 81.824219 52.097656 Z "/>
<path d="M 59.714844 52.097656 C 61.277344 52.097656 62.539062 53.371094 62.539062 54.960938 L 62.539062 95.625 C 62.539062 96.199219 62.539062 96.628906 61.785156 96.707031 C 49.84375 96.054688 40.050781 83.292969 40.050781 67.707031 C 40.050781 62.566406 41.082031 57.734375 42.902344 53.542969 C 42.902344 53.542969 42.917969 53.542969 42.917969 53.542969 C 42.941406 53.449219 42.980469 53.359375 43.019531 53.269531 C 43.019531 53.253906 43.035156 53.253906 43.035156 53.242188 C 43.035156 53.230469 43.035156 53.230469 43.035156 53.230469 C 43.371094 52.550781 44.050781 52.097656 44.84375 52.097656 Z "/>
<g style="fill-rule:evenodd">
<path d="M 46.707031 53.28125 L 44.894531 55.519531 L 42.03125 55.3125 L 43.605469 57.707031 L 42.511719 60.378906 L 45.285156 59.621094 L 47.488281 61.484375 L 47.628906 58.605469 L 50.078125 57.097656 L 47.382812 56.066406 Z M 55.691406 56.003906 L 54.167969 63.671875 L 46.992188 66.757812 L 53.800781 70.585938 L 54.519531 78.359375 L 60.261719 73.058594 L 67.890625 74.777344 L 64.621094 67.683594 L 68.605469 60.964844 L 60.847656 61.886719 Z M 79.128906 59.542969 L 77.332031 61.785156 L 74.453125 61.574219 L 76.027344 63.984375 L 74.949219 66.640625 L 77.722656 65.886719 L 79.910156 67.746094 L 80.050781 64.871094 L 82.5 63.359375 L 79.804688 62.34375 Z M 44.492188 73.28125 L 42.304688 77.695312 L 40.261719 77.996094 C 40.976562 80.457031 41.953125 82.824219 43.203125 85.066406 L 44.492188 84.386719 L 48.839844 86.679688 L 48.007812 81.835938 L 51.523438 78.398438 L 46.652344 77.695312 Z M 80.246094 73.699219 L 75.925781 78.605469 L 69.441406 77.839844 L 72.785156 83.449219 L 70.050781 89.386719 L 76.417969 87.957031 L 79.414062 90.714844 C 80.222656 89.855469 80.949219 88.957031 81.628906 87.996094 L 81.824219 85.871094 L 83.554688 84.910156 C 84.128906 83.855469 84.648438 82.761719 85.117188 81.652344 L 81.523438 80.105469 Z M 58.761719 86.953125 L 56.964844 89.191406 L 54.089844 88.984375 L 55.664062 91.394531 L 54.582031 94.0625 L 57.355469 93.308594 L 59.542969 95.15625 L 59.6875 92.292969 L 62.136719 90.769531 L 59.441406 89.753906 Z "/>
<path style="fill-opacity:.902" d="M 83.644531 75.050781 C 83.644531 79.542969 74.777344 83.203125 63.828125 83.203125 C 52.890625 83.203125 44.011719 79.542969 44.011719 75.050781 C 44.011719 70.546875 52.890625 66.902344 63.828125 66.902344 C 74.777344 66.902344 83.644531 70.546875 83.644531 75.050781 Z "/>
</g>
<path style="fill-opacity:.459" d="M 49.179688 89.675781 C 52.332031 92.917969 56.457031 95.273438 60.988281 95.769531 C 61.261719 95.859375 61.824219 95.832031 61.691406 95.402344 C 61.667969 94.414062 61.652344 93.425781 61.652344 92.433594 C 61.667969 91.824219 61.667969 91.941406 61.199219 92.226562 C 56.535156 95.066406 52.578125 91.628906 49.179688 89.675781 Z M 77.332031 89.894531 C 73.933594 91.847656 69.972656 95.285156 65.300781 92.449219 C 64.84375 92.160156 64.84375 92.042969 64.855469 92.65625 C 64.855469 93.644531 64.84375 94.636719 64.816406 95.625 C 64.675781 96.054688 65.234375 96.082031 65.519531 95.988281 C 70.050781 95.496094 74.167969 93.136719 77.332031 89.894531 Z "/>
<g style="fill-rule:evenodd">
<path d="M 75.949219 48.019531 C 75.949219 53.542969 70.378906 58.019531 63.503906 58.019531 C 56.628906 58.019531 51.054688 53.542969 51.054688 48.019531 C 51.054688 42.5 56.628906 38.035156 63.503906 38.035156 C 70.378906 38.035156 75.949219 42.5 75.949219 48.019531 Z "/>
<path d="M 58.410156 30.652344 C 58.410156 31.042969 58.097656 31.367188 57.722656 31.367188 C 57.34375 31.367188 57.042969 31.042969 57.042969 30.652344 C 57.042969 30.261719 57.34375 29.933594 57.722656 29.933594 C 58.097656 29.933594 58.410156 30.261719 58.410156 30.652344 Z "/>
<path d="M 69.621094 30.652344 C 69.621094 31.042969 69.324219 31.367188 68.945312 31.367188 C 68.566406 31.367188 68.253906 31.042969 68.253906 30.652344 C 68.253906 30.261719 68.566406 29.933594 68.945312 29.933594 C 69.324219 29.933594 69.621094 30.261719 69.621094 30.652344 Z "/>
</g>
<path d="M 88.644531 59.84375 C 86.835938 60.078125 85.546875 61.730469 85.769531 63.554688 C 85.988281 65.378906 87.65625 66.667969 89.464844 66.445312 L 115.402344 66.445312 C 116.601562 66.457031 117.707031 65.832031 118.308594 64.804688 C 118.894531 63.777344 118.894531 62.511719 118.308594 61.484375 C 117.707031 60.457031 116.601562 59.832031 115.402344 59.84375 L 89.464844 59.84375 C 89.191406 59.816406 88.917969 59.816406 88.644531 59.84375 Z "/>
<path d="M 10.925781 60.050781 C 9.753906 60.15625 8.710938 60.886719 8.214844 61.964844 C 7.722656 63.035156 7.839844 64.296875 8.527344 65.261719 C 9.21875 66.222656 10.363281 66.757812 11.535156 66.640625 L 37.683594 66.640625 C 38.867188 66.652344 39.972656 66.027344 40.574219 65 C 41.171875 63.972656 41.171875 62.707031 40.574219 61.679688 C 39.972656 60.652344 38.867188 60.027344 37.683594 60.050781 L 11.535156 60.050781 C 11.339844 60.027344 11.132812 60.027344 10.925781 60.050781 Z "/>
<path d="M 62.785156 7.980469 C 61.210938 8.28125 60.078125 9.660156 60.105469 11.277344 L 60.105469 37.839844 C 60.089844 39.023438 60.714844 40.128906 61.746094 40.730469 C 62.773438 41.328125 64.035156 41.328125 65.066406 40.730469 C 66.09375 40.128906 66.71875 39.023438 66.691406 37.839844 L 66.691406 11.277344 C 66.71875 10.273438 66.289062 9.335938 65.519531 8.699219 C 64.765625 8.046875 63.761719 7.785156 62.785156 7.980469 Z "/>
<path d="M 62.980469 85.949219 C 61.25 86.171875 59.972656 87.707031 60.105469 89.453125 L 60.105469 115.402344 C 60.078125 116.589844 60.703125 117.695312 61.730469 118.292969 C 62.761719 118.90625 64.023438 118.90625 65.050781 118.292969 C 66.082031 117.695312 66.707031 116.589844 66.691406 115.402344 L 66.691406 89.453125 C 66.757812 88.464844 66.378906 87.5 65.664062 86.824219 C 64.949219 86.144531 63.957031 85.832031 62.980469 85.949219 Z "/>
</g>
<path style="fill:none;stroke:#ec7878;stroke-linejoin:round;stroke-linecap:round;stroke-width:8" d="M 278.372625 118.724193 C 278.372625 168.053355 225.513487 207.994966 160.323534 207.994966 C 95.088824 207.994966 42.240875 168.053355 42.240875 118.724193 C 42.240875 69.428952 95.088824 29.45342 160.323534 29.45342 C 225.513487 29.45342 278.372625 69.428952 278.372625 118.724193 Z " transform="matrix(.3491 0 0 .46063 7.41387 8.86637)"/>
</svg>
