<svg width="128" xmlns="http://www.w3.org/2000/svg" height="128" viewBox="0 0 128 128" xmlns:xlink="http://www.w3.org/1999/xlink">
<g style="stroke:#549ca4;stroke-width:4.545;fill:#549ca4">
<path d="M 69.15673 106.237684 C 70.790913 113.79282 71.706687 119.476935 70.364604 127.024176 C 60.077936 135.392457 33.765221 139.158183 33.812588 147.818563 L 30.260017 173.79181 C 30.260017 182.396928 54.812235 189.367863 85.080146 189.367863 C 115.340163 189.367863 139.868697 182.396928 139.868697 173.79181 L 136.339809 147.818563 C 136.292441 140.397635 109.81394 135.684557 99.661479 127.024176 C 98.793073 120.029557 99.472009 113.240198 100.971984 106.237684 Z " transform="scale(.4948)"/>
<path d="M 84.819624 57.551662 C 72.259309 57.551662 62.07527 67.340971 62.07527 79.396031 C 62.185795 83.872272 62.548947 89.18534 65.130482 101.264084 C 66.630457 105.945584 80.161808 119.366411 80.264438 120.921648 C 83.209125 122.476885 87.843257 122.476885 90.866891 120.921648 C 90.866891 119.366411 103.000897 105.945584 104.524555 101.264084 C 107.398191 88.711664 107.398191 84.10911 107.556083 79.396031 C 107.556083 67.340971 97.372044 57.551662 84.819624 57.551662 Z " transform="scale(.4948)"/>
<g style="stroke-linejoin:round">
<path d="M 132.73987 71.185643 C 125.082104 66.630457 112.632314 34.949411 114.550702 48.449184 L 119.105889 80.264438 Z " transform="scale(.4948)"/>
<path d="M 177.999634 71.185643 C 185.681083 66.630457 198.10719 34.949411 196.180906 48.449184 L 191.633615 80.264438 Z " transform="scale(.4948)"/>
</g>
<path d="M 134.81615 107.556083 C 136.92401 117.448022 138.076622 124.924212 136.371387 134.81615 C 123.155821 145.78965 89.319548 150.739566 89.366916 162.076218 L 84.819624 196.180906 C 84.819624 207.47019 116.366461 216.62793 155.263175 216.62793 C 194.183572 216.62793 225.738303 207.47019 225.738303 196.180906 L 221.183117 162.076218 C 221.127855 152.365855 187.078428 146.18438 174.028648 134.81615 C 172.891825 125.634726 173.79181 116.737508 175.733882 107.556083 Z " transform="scale(.4948)"/>
<path d="M 155.263175 39.37039 C 136.450333 39.37039 121.18217 53.60436 121.18217 71.185643 C 121.340062 77.682902 121.892684 85.419614 125.737356 103.000897 C 128.003107 109.81394 148.260661 128.003107 148.450131 130.260964 C 152.87111 132.550399 159.818361 132.550399 164.365653 130.260964 C 164.365653 128.003107 182.55482 109.81394 184.812677 103.000897 C 189.131025 84.7091 189.131025 77.998686 189.367863 71.185643 C 189.367863 53.60436 174.107594 39.37039 155.263175 39.37039 Z " transform="scale(.4948)"/>
</g>
</svg>
