<svg width="128" xmlns="http://www.w3.org/2000/svg" height="128" viewBox="0 0 128 128" xmlns:xlink="http://www.w3.org/1999/xlink">
<path style="fill:#9c9c37;stroke:#9c9c37;stroke-width:1.449" d="M 337.372341 491.219328 C 276.479566 487.046751 223.003 438.832859 207.908164 380.439713 C 193.988511 319.96028 221.633854 251.789091 275.601031 220.196726 C 310.286066 199.402622 353.836323 196.766103 392.252282 207.62168 C 439.670377 222.260088 475.804425 264.67364 488.469027 311.936094 C 499.878578 355.530348 491.663701 405.016648 461.394162 439.360162 C 433.965601 473.634898 390.152924 493.397321 346.306019 491.632 C 343.339536 491.597611 340.338824 491.44859 337.372341 491.219328 Z M 373.654714 484.375844 C 384.607883 483.424405 382.668259 480.054247 372.741949 479.183049 C 354.977278 475.744113 335.809232 475.663871 318.660677 481.704936 C 333.755513 488.995482 353.802094 487.092604 370.68823 484.91461 Z M 319.870089 474.712432 C 327.674222 466.722635 319.527803 447.659463 312.72771 440.093802 C 297.47314 432.253026 285.687074 419.52896 271.721783 409.899938 C 261.224996 406.048329 251.002039 413.338874 240.881767 415.826372 C 240.847538 425.87953 240.162965 437.262411 248.982548 444.254915 C 263.506907 458.618208 281.043387 471.273495 300.816139 477.005056 C 307.171259 477.268708 313.823027 476.890425 319.870089 474.712432 Z M 403.353775 475.125104 C 428.64875 464.200748 452.334978 446.627782 466.596917 422.704245 C 471.731215 415.826372 475.496367 403.755704 462.112964 407.767797 C 445.261057 418.382648 430.052125 431.53085 412.823703 441.584008 C 402.361144 449.906235 394.83084 461.334968 387.380404 472.259323 C 389.970372 478.300389 398.41344 476.844572 403.353775 475.125104 Z M 420.502331 431.186956 C 433.212571 420.721125 451.581948 413.992272 458.267945 398.138774 C 461.280066 385.643971 461.508257 372.725032 462.763308 360.000966 C 450.098706 348.732717 434.581717 341.086814 419.361375 333.865047 C 404.346406 335.045749 392.206644 348.457602 380.306482 357.135185 C 373.997 360.608511 375.628566 368.518066 373.882905 374.559131 C 371.600994 388.693161 368.931159 402.758412 367.37946 417.007074 C 379.199755 425.764899 392.400606 433.823474 406.776641 437.228021 C 411.990805 437.262411 416.280797 433.743232 420.502331 431.186956 Z M 329.876266 433.364949 C 341.399912 428.974573 356.608844 425.650268 362.016971 413.419116 C 366.044543 396.304675 368.246586 378.766097 370.380172 361.296299 C 358.936393 350.371943 346.728173 338.874431 331.736023 333.211649 C 318.809001 332.982387 307.855832 342.152884 296.366414 347.162269 C 280.895063 351.403624 275.486935 365.503265 274.848 380.095819 C 270.28418 394.539354 275.486935 409.372634 288.539462 417.316578 C 299.949013 425.719047 314.587467 439.176752 329.876266 433.364949 Z M 233.579654 413.155464 C 224.258051 395.84615 217.834473 376.886145 215.244505 357.364448 C 206.002769 359.232937 214.411608 381.975772 216.955938 391.215048 C 221.291567 403.755704 227.954745 415.287605 234.868933 426.521465 C 236.123984 421.901827 236.888424 417.316578 233.579654 413.155464 Z M 229.586311 336.07743 C 233.659521 330.231237 240.117327 325.645988 242.593199 318.962988 C 246.8946 298.787892 253.922884 279.300584 264.008927 261.234704 C 263.586773 249.576708 250.579885 242.469572 244.11067 255.342659 C 225.707064 279.117175 211.251162 308.118874 210.612227 338.713948 C 208.170583 349.225631 217.298224 356.825681 222.546618 344.41112 C 224.874166 341.65997 227.224534 338.874431 229.586311 336.07743 Z M 466.870747 350.566816 C 474.66347 340.284395 485.468315 328.099096 482.684384 314.148476 C 477.778277 287.748906 464.280778 262.679057 443.515395 245.484373 C 437.320009 242.847855 426.058782 233.218833 421.757381 242.320552 C 415.413671 254.586093 399.588623 266.163846 405.293399 281.409799 C 410.165277 296.460879 413.736467 312.165356 420.844617 326.333776 C 433.965601 336.581807 449.106075 344.56014 464.360645 351.288993 Z M 292.6469 343.723332 C 304.741024 337.567635 316.492862 330.804393 328.278929 324.155782 C 332.238043 310.216626 337.258245 296.609899 341.890523 282.934394 C 342.540867 268.112577 329.340017 257.486263 320.554662 247.089211 C 311.883404 233.184443 297.244949 243.845147 286.5542 248.92331 C 263.050525 261.532745 257.653807 289.239112 249.632892 312.394619 C 250.773847 321.060739 258.680666 328.282506 264.465309 334.747707 C 272.406356 342.806282 281.385673 353.501376 292.6469 343.723332 Z M 379.359489 268.869143 C 385.634742 267.997946 392.628797 268.639881 398.41344 266.851634 C 407.118927 257.486263 414.763326 246.516054 418.380154 234.181735 C 413.998886 221.75571 399.554395 216.104391 387.916652 211.863036 C 373.118465 207.47266 357.259188 205.294666 341.890523 207.048524 C 330.823258 212.699843 310.936411 229.17235 322.152 241.976658 C 330.366876 251.789091 339.118002 261.120072 348.051681 270.32496 C 358.514239 270.439591 368.931159 269.602783 379.359489 268.869143 Z " transform="matrix(.34237 0 0 .34077 -56.1027 -54.76227)"/>
</svg>
