<svg width="128" xmlns="http://www.w3.org/2000/svg" height="128" viewBox="0 0 128 128" xmlns:xlink="http://www.w3.org/1999/xlink">
<path style="fill:#61c66b;fill-rule:evenodd;stroke:#61c66b;stroke-linejoin:round;stroke-width:12.5" d="M 234.919403 36.595586 C 219.741461 37.170528 202.711149 42.258762 193.607256 53.182655 C 180.35348 81.3548 212.518656 68.375491 216.295192 87.866016 C 220.086088 107.370914 197.398151 108.477677 197.398151 108.477677 L 99.653351 108.477677 C 99.653351 108.477677 99.739508 205.398481 99.739508 205.398481 C 99.739508 205.398481 100.845186 228.108679 120.330964 224.328437 C 136.21252 221.266873 130.569255 199.419087 143.018901 198.456059 C 145.890792 198.269203 149.767844 199.131616 155.023404 201.618239 C 165.936589 210.716692 171.019835 227.778088 171.594213 242.970923 C 171.780886 248.576605 171.307024 253.837322 170.344941 258.49435 C 170.301863 258.681206 170.301863 258.868062 170.258784 259.112413 C 168.578728 272.192337 163.495482 285.516612 154.262353 293.177711 C 126.074746 306.401371 139.084411 274.305248 119.612992 270.525006 C 105.397133 267.736539 100.98878 279.005397 99.653351 285.329756 L 99.653351 388.244327 C 99.653351 388.244327 197.728419 387.425035 197.728419 387.425035 C 197.728419 387.425035 220.416355 386.375767 216.639819 366.827747 C 212.848923 347.322849 180.741185 360.359653 193.951882 332.130013 C 203.041416 321.263615 220.086088 316.13226 235.307109 315.600438 C 240.907295 315.370462 246.162855 315.887909 250.75788 316.850937 C 251.001991 316.850937 251.188664 316.894057 251.389696 316.951552 C 264.499877 318.618883 277.854169 323.707117 285.522117 332.906185 C 298.775893 361.07833 266.610717 348.084647 262.819821 367.589545 C 259.043285 387.094444 281.731222 388.201207 281.731222 388.201207 L 378.944722 388.201207 L 378.944722 286.134674 C 380.337589 279.767195 384.745941 268.656445 398.861284 271.430539 C 418.390141 275.167661 405.380476 307.321277 433.568083 294.097617 C 442.758133 286.422145 447.82702 273.112244 449.550155 259.974825 C 449.550155 259.787969 449.607593 259.58674 449.607593 259.356763 C 450.612754 254.757229 451.086616 249.482138 450.899943 243.876457 C 450.325565 228.683621 445.19924 211.636598 434.329134 202.523772 C 406.141527 189.300112 419.165551 221.453729 399.636694 225.233971 C 380.093478 228.971092 379.045238 206.318387 379.045238 206.318387 L 378.944722 108.477677 L 276.805929 108.477677 C 270.387253 106.982828 259.804336 102.483909 262.489554 88.642187 C 266.26609 69.094168 298.388188 82.116598 285.177491 53.944453 C 277.466464 44.745385 264.16961 39.671524 251.04507 37.98982 C 250.858397 37.946699 250.614286 37.889205 250.427613 37.889205 C 245.832588 36.883057 240.562668 36.40873 234.919403 36.595586 Z " transform="matrix(.27203 0 0 .27177 -11.54653 5.61313)"/>
</svg>
