<svg width="128" xmlns="http://www.w3.org/2000/svg" height="128" viewBox="0 0 128 128" xmlns:xlink="http://www.w3.org/1999/xlink">
<g style="fill:#ec86ab">
<path d="M 19.347656 13.855469 L 19.347656 79.832031 L 24.84375 79.832031 L 24.84375 13.855469 Z "/>
<path d="M 30.351562 82.578125 C 30.351562 87.121094 26.652344 90.820312 22.097656 90.820312 C 17.550781 90.820312 13.855469 87.121094 13.855469 82.578125 C 13.855469 78.019531 17.550781 74.324219 22.097656 74.324219 C 26.652344 74.324219 30.351562 78.019531 30.351562 82.578125 Z "/>
<path d="M 52.34375 112.8125 L 52.34375 30.351562 L 46.835938 30.351562 L 46.835938 112.8125 Z "/>
<path d="M 41.339844 27.605469 C 41.339844 23.046875 45.039062 19.347656 49.582031 19.347656 C 54.140625 19.347656 57.839844 23.046875 57.839844 27.605469 C 57.839844 32.148438 54.140625 35.847656 49.582031 35.847656 C 45.039062 35.847656 41.339844 32.148438 41.339844 27.605469 Z "/>
<path d="M 74.324219 13.855469 L 74.324219 74.324219 L 79.832031 74.324219 L 79.832031 13.855469 Z "/>
<path d="M 85.324219 77.070312 C 85.324219 81.628906 81.628906 85.324219 77.082031 85.324219 C 72.527344 85.324219 68.828125 81.628906 68.828125 77.070312 C 68.828125 72.527344 72.527344 68.828125 77.082031 68.828125 C 81.628906 68.828125 85.324219 72.527344 85.324219 77.070312 Z "/>
<path d="M 107.316406 112.8125 L 107.316406 68.828125 L 101.824219 68.828125 L 101.824219 112.8125 Z "/>
<path d="M 96.316406 66.082031 C 96.316406 61.523438 100.011719 57.839844 104.570312 57.839844 C 109.113281 57.839844 112.8125 61.523438 112.8125 66.082031 C 112.8125 70.636719 109.113281 74.335938 104.570312 74.335938 C 100.011719 74.335938 96.316406 70.636719 96.316406 66.082031 Z "/>
</g>
</svg>
