<svg width="128" xmlns="http://www.w3.org/2000/svg" height="128" viewBox="0 0 128 128" xmlns:xlink="http://www.w3.org/1999/xlink">
<path style="fill:#4c7686" d="M 54.660156 21.332031 L 54.660156 72.542969 C 51.0625 71.136719 46.363281 70.894531 41.511719 72.207031 C 32.449219 74.660156 26.371094 81.542969 27.96875 87.558594 C 29.566406 93.578125 38.210938 96.476562 47.273438 94.027344 C 54.972656 91.941406 60.492188 86.660156 61 81.433594 L 61.0625 81.433594 L 61.0625 43.769531 L 93.882812 47.847656 L 93.882812 84.3125 C 90.285156 82.902344 85.585938 82.664062 80.734375 83.976562 C 71.671875 86.429688 65.59375 93.3125 67.191406 99.328125 C 68.789062 105.347656 77.433594 108.246094 86.496094 105.796875 C 94.199219 103.710938 99.714844 98.429688 100.226562 93.199219 L 100.285156 93.199219 L 100.285156 27.40625 L 54.660156 21.335938 Z M 61.0625 33.65625 L 93.882812 38.285156 L 93.882812 42.421875 L 61.0625 38.347656 Z "/>
</svg>
