<svg width="128" xmlns="http://www.w3.org/2000/svg" height="128" viewBox="0 0 128 128" xmlns:xlink="http://www.w3.org/1999/xlink">
<path style="fill:none;stroke:#6aaf53;stroke-linejoin:round;stroke-linecap:round;stroke-width:2" d="M 10.539551 1021.361712 L 37.460449 1021.361712 C 38.310059 1021.361712 39 1022.051653 39 1022.902727 L 39 1033.821673 C 39 1034.672747 38.310059 1035.362688 37.460449 1035.362688 L 10.539551 1035.362688 C 9.689941 1035.362688 9 1034.672747 9 1033.821673 L 9 1022.902727 C 9 1022.051653 9.689941 1021.361712 10.539551 1021.361712 Z " transform="matrix(2.66667 0 0 2.66667 0 -2678.2992)"/>
<path style="fill:#6aaf53" d="M 30.667969 50.667969 C 29.929688 50.667969 29.332031 51.261719 29.332031 52 L 29.332031 76 C 29.332031 76.738281 29.929688 77.332031 30.667969 77.332031 L 62.808594 77.332031 C 63.546875 77.332031 64.144531 76.738281 64.144531 76 L 64.144531 52 C 64.144531 51.261719 63.546875 50.667969 62.808594 50.667969 Z M 40 69.332031 L 40 58.667969 L 42.667969 58.667969 L 42.667969 69.332031 Z M 45.332031 69.332031 L 45.332031 58.667969 L 48 58.667969 L 48 69.332031 Z M 50.667969 69.332031 L 50.667969 58.667969 L 53.332031 58.667969 L 53.332031 69.332031 Z "/>
</svg>
