<svg width="128" xmlns="http://www.w3.org/2000/svg" height="128" viewBox="0 0 128 128" xmlns:xlink="http://www.w3.org/1999/xlink">
<path style="fill:#9cc7cf" d="M 66.824219 82.980469 C 66.574219 74.011719 68.59375 65.300781 77.148438 59.113281 C 86.171875 52.136719 94.855469 43.398438 93.945312 33.113281 C 93.738281 23.175781 82.082031 15.390625 69.53125 14.269531 C 55.402344 12.332031 38.308594 17.136719 33.566406 28.085938 C 31.171875 33.410156 33.398438 42.96875 41.457031 42.96875 C 46.171875 42.96875 48.332031 39.949219 48.683594 37.1875 C 48.957031 35.089844 48.085938 33.230469 47.578125 31.496094 C 46.992188 29.53125 49.480469 25.714844 52.1875 24.152344 C 54.453125 22.863281 56.824219 22.421875 57.160156 22.34375 C 65.285156 20.402344 73.386719 24.6875 76.757812 29.894531 C 80.144531 35.105469 76.417969 42.996094 71.082031 50.691406 C 65.730469 58.371094 60 67.097656 60.011719 76.367188 C 60.011719 79.894531 59.699219 81.09375 59.921875 82.511719 C 60.105469 83.660156 63.90625 83.515625 66.824219 82.980469 Z M 63.113281 95.066406 C 55.351562 94.648438 49.972656 103.386719 54.636719 108.957031 C 58.800781 115.105469 70.496094 113.582031 72.488281 106.628906 C 74.570312 101.210938 69.570312 94.972656 63.113281 95.066406 Z "/>
</svg>
