<?xml version="1.0" encoding="UTF-8" standalone="no"?>
<svg
   xmlns:dc="http://purl.org/dc/elements/1.1/"
   xmlns:cc="http://creativecommons.org/ns#"
   xmlns:rdf="http://www.w3.org/1999/02/22-rdf-syntax-ns#"
   xmlns:svg="http://www.w3.org/2000/svg"
   xmlns="http://www.w3.org/2000/svg"
   xmlns:sodipodi="http://sodipodi.sourceforge.net/DTD/sodipodi-0.dtd"
   xmlns:inkscape="http://www.inkscape.org/namespaces/inkscape"
   width="128"
   viewBox="0 0 36.124446 36.124446"
   height="128"
   id="svg2"
   version="1.1"
   inkscape:version="0.91 r"
   sodipodi:docname="calendar-09.svg">
  <metadata
     id="metadata17">
    <rdf:RDF>
      <cc:Work
         rdf:about="">
        <dc:format>image/svg+xml</dc:format>
        <dc:type
           rdf:resource="http://purl.org/dc/dcmitype/StillImage" />
        <dc:title />
      </cc:Work>
    </rdf:RDF>
  </metadata>
  <defs
     id="defs15" />
  <sodipodi:namedview
     pagecolor="#ffffff"
     bordercolor="#666666"
     borderopacity="1"
     objecttolerance="10"
     gridtolerance="10"
     guidetolerance="10"
     inkscape:pageopacity="0"
     inkscape:pageshadow="2"
     inkscape:window-width="1366"
     inkscape:window-height="747"
     id="namedview13"
     showgrid="true"
     inkscape:zoom="5.6568543"
     inkscape:cx="12.551117"
     inkscape:cy="18.156652"
     inkscape:window-x="0"
     inkscape:window-y="21"
     inkscape:window-maximized="1"
     inkscape:current-layer="svg2"
     showguides="false">
    <inkscape:grid
       type="xygrid"
       id="grid4145"
       originx="0"
       originy="0"
       spacingy="0.28222223"
       spacingx="0.28222223" />
  </sodipodi:namedview>
  <path
     d="m 6.7739099,1.1288969 0,2.7093279 -3.3875103,0 c -0.6773338,0 -1.1288892,0.56448 -1.1284618,1.128888 L 2.2577794,34.995616 c -2.69e-4,0.5644 0.5641752,1.128848 1.1286202,1.128832 l 29.3511224,0 c 0.564448,1.6e-5 1.128888,-0.5644 1.12836,-1.128616 l 7.86e-4,-30.0287192 c -2.58e-4,-0.56448 -0.564704,-1.128888 -1.129146,-1.128888 l -3.38599,0 0,-2.7093279 C 29.350854,9.1448558e-7 29.350854,9.1448558e-7 28.221964,9.1448558e-7 l -2.935112,0 c -1.12889,0 -1.12889,0 -1.12889,1.12889598551442 l 0,2.2577759 -12.192003,0 0,-2.2577759 c 0,-1.12889598551442 0,-1.12889598551442 -1.128891,-1.12889598551442 l -2.9351115,0 c -1.1288892,0 -1.1280466,0 -1.1280466,1.12889598551442 z m 1.502838,0.3748 2.1855291,0 0,4.5242399 c 0,1.8743039 -2.1855291,1.8743039 -2.1855291,0 z m 17.3848941,0 2.18553,0 0,4.5242399 c 0,1.8743039 -2.18553,1.8743039 -2.18553,0 z m -21.1466222,9.7852181 27.0933542,0 0,22.578309 -27.0933542,-4.32e-4 z"
     id="path4"
     inkscape:connector-curvature="0"
     style="color:#000000;fill:#cacaca"
     sodipodi:nodetypes="scccccccccccccccccccsccsccccsscccccc" />
  <g
     transform="matrix(0.28222222,0,0,0.28222222,-9.4977623,20.46717)"
     style="font-style:normal;font-variant:normal;font-weight:normal;font-stretch:normal;font-size:20px;line-height:125%;font-family:'Droid Sans';-inkscape-font-specification:'Droid Sans';letter-spacing:0px;word-spacing:0px;fill:#000000;fill-opacity:1;stroke:none;stroke-width:1px;stroke-linecap:butt;stroke-linejoin:miter;stroke-opacity:1"
     id="flowRoot4147" />
  <g
     transform="scale(1.1417405,0.87585576)"
     style="font-style:normal;font-variant:normal;font-weight:normal;font-stretch:normal;font-size:12.85681343px;line-height:125%;font-family:Ubuntu;-inkscape-font-specification:Ubuntu;letter-spacing:0px;word-spacing:0px;fill:#3798d6;fill-opacity:1;stroke:none;stroke-width:1px;stroke-linecap:butt;stroke-linejoin:miter;stroke-opacity:1"
     id="text4155">
    <path
       d="m 20.614845,26.288683 q 0,1.012858 -0.115756,2.025716 -0.106109,1.003213 -0.395497,1.919608 -0.279742,0.916396 -0.771701,1.717036 -0.482314,0.790995 -1.234723,1.369771 -0.742763,0.578776 -1.794206,0.916395 -1.041798,0.327974 -2.450153,0.327974 -0.202572,0 -0.443728,-0.0096 -0.241157,-0.0096 -0.49196,-0.02894 -0.241157,-0.0096 -0.472668,-0.03859 -0.23151,-0.01929 -0.405143,-0.05788 l 0,-2.392275 q 0.356912,0.09646 0.762055,0.15434 0.41479,0.04823 0.839226,0.04823 1.302247,0 2.141472,-0.318326 0.839226,-0.327974 1.331185,-0.90675 0.49196,-0.588422 0.694532,-1.398709 0.212218,-0.810287 0.260449,-1.78456 l -0.125401,0 q -0.192926,0.347266 -0.463021,0.6463 -0.270096,0.299034 -0.636654,0.520899 -0.366558,0.221864 -0.829579,0.347265 -0.463021,0.125402 -1.032151,0.125402 -0.916396,0 -1.649513,-0.299035 -0.733116,-0.299034 -1.244369,-0.868164 -0.501606,-0.56913 -0.771701,-1.398709 -0.270096,-0.829579 -0.270096,-1.900315 0,-1.147907 0.318327,-2.054656 0.327973,-0.906749 0.926042,-1.533757 0.598069,-0.636654 1.446941,-0.974273 0.858518,-0.33762 1.919608,-0.33762 1.041797,0 1.948546,0.376205 0.90675,0.366558 1.572342,1.128613 0.665593,0.762056 1.051444,1.929255 0.385851,1.167198 0.385851,2.749187 z m -4.900306,-3.790985 q -0.395497,0 -0.72347,0.144694 -0.327973,0.144694 -0.56913,0.453375 -0.231511,0.299034 -0.366558,0.771702 -0.125402,0.463021 -0.125402,1.099675 0,1.022504 0.434082,1.620573 0.434082,0.598069 1.311893,0.598069 0.443728,0 0.810287,-0.173633 0.366558,-0.173633 0.627007,-0.453375 0.26045,-0.279742 0.395497,-0.627007 0.144694,-0.347266 0.144694,-0.704178 0,-0.49196 -0.125401,-0.974273 -0.115755,-0.49196 -0.366558,-0.877811 -0.241157,-0.395497 -0.607715,-0.636654 -0.356912,-0.241157 -0.839226,-0.241157 z"
       style="font-style:normal;font-variant:normal;font-weight:bold;font-stretch:normal;font-size:19.75556183px;font-family:'droid sans';-inkscape-font-specification:'droid sans Bold';text-align:center;letter-spacing:-0.22577788px;word-spacing:0.4515557px;text-anchor:middle;fill:#3798d6;fill-opacity:1"
       id="path4142" />
  </g>
</svg>
