<?xml version="1.0" encoding="UTF-8" standalone="no"?>
<!-- Created with Inkscape (http://www.inkscape.org/) -->

<svg
   xmlns:dc="http://purl.org/dc/elements/1.1/"
   xmlns:cc="http://creativecommons.org/ns#"
   xmlns:rdf="http://www.w3.org/1999/02/22-rdf-syntax-ns#"
   xmlns:svg="http://www.w3.org/2000/svg"
   xmlns="http://www.w3.org/2000/svg"
   xmlns:xlink="http://www.w3.org/1999/xlink"
   xmlns:sodipodi="http://sodipodi.sourceforge.net/DTD/sodipodi-0.dtd"
   xmlns:inkscape="http://www.inkscape.org/namespaces/inkscape"
   width="128"
   height="128"
   id="svg2"
   version="1.1"
   inkscape:version="0.48.5 r10040"
   sodipodi:docname="folder-wine.svg"
   inkscape:export-filename="/media/Data/Main/Visuals/Icons/Numix/Desktop/repos/numix-wiki/Gjorgi/Numix-folders/48/New/folder-144.png"
   inkscape:export-xdpi="270"
   inkscape:export-ydpi="270">
  <defs
     id="defs4">
    <linearGradient
       inkscape:collect="always"
       id="linearGradient3809">
      <stop
         style="stop-color:#000000;stop-opacity:1;"
         offset="0"
         id="stop3811" />
      <stop
         style="stop-color:#000000;stop-opacity:0;"
         offset="1"
         id="stop3813" />
    </linearGradient>
    <linearGradient
       id="linearGradient3958"
       inkscape:collect="always">
      <stop
         id="stop3960"
         offset="0"
         style="stop-color:#000000;stop-opacity:1;" />
      <stop
         id="stop3962"
         offset="1"
         style="stop-color:#000000;stop-opacity:0;" />
    </linearGradient>
    <radialGradient
       gradientUnits="userSpaceOnUse"
       gradientTransform="matrix(1,0,0,0.10447761,0,50.597015)"
       r="33.5"
       fy="56.5"
       fx="32.5"
       cy="56.5"
       cx="32.5"
       id="radialGradient3964"
       xlink:href="#linearGradient3958"
       inkscape:collect="always" />
    <radialGradient
       inkscape:collect="always"
       xlink:href="#linearGradient3809"
       id="radialGradient3815"
       cx="-9"
       cy="93.5"
       fx="-9"
       fy="93.5"
       r="15"
       gradientTransform="matrix(1,0,0,0.36666667,0,59.216667)"
       gradientUnits="userSpaceOnUse" />
    <linearGradient
       id="linearGradient3958-1"
       inkscape:collect="always">
      <stop
         id="stop3960-9"
         offset="0"
         style="stop-color:#000000;stop-opacity:1;" />
      <stop
         id="stop3962-9"
         offset="1"
         style="stop-color:#000000;stop-opacity:0;" />
    </linearGradient>
    <radialGradient
       gradientUnits="userSpaceOnUse"
       gradientTransform="matrix(1,0,0,0.10447761,0,50.597015)"
       r="33.5"
       fy="56.5"
       fx="32.5"
       cy="56.5"
       cx="32.5"
       id="radialGradient3964-3"
       xlink:href="#linearGradient3958-1"
       inkscape:collect="always" />
  </defs>
  <sodipodi:namedview
     id="base"
     pagecolor="#ffffff"
     bordercolor="#666666"
     borderopacity="1.0"
     inkscape:pageopacity="0.0"
     inkscape:pageshadow="2"
     inkscape:zoom="4.2805701"
     inkscape:cx="-6.6980449"
     inkscape:cy="30.560125"
     inkscape:document-units="px"
     inkscape:current-layer="layer1"
     showgrid="true"
     inkscape:window-width="1920"
     inkscape:window-height="1052"
     inkscape:window-x="0"
     inkscape:window-y="28"
     inkscape:window-maximized="1"
     showguides="true"
     inkscape:guide-bbox="true">
    <inkscape:grid
       type="xygrid"
       id="grid2985"
       empspacing="5"
       visible="true"
       enabled="true"
       snapvisiblegridlinesonly="true" />
  </sodipodi:namedview>
  <metadata
     id="metadata7">
    <rdf:RDF>
      <cc:Work
         rdf:about="">
        <dc:format>image/svg+xml</dc:format>
        <dc:type
           rdf:resource="http://purl.org/dc/dcmitype/StillImage" />
        <dc:title></dc:title>
      </cc:Work>
    </rdf:RDF>
  </metadata>
  <g
     inkscape:label="Layer 1"
     inkscape:groupmode="layer"
     id="layer1"
     transform="translate(0,-924.3622)">
    <path
       sodipodi:type="arc"
       style="opacity:0.6;fill:url(#radialGradient3815);fill-opacity:1;stroke:none"
       id="path3031"
       sodipodi:cx="-9"
       sodipodi:cy="93.5"
       sodipodi:rx="15"
       sodipodi:ry="5.5"
       d="m 6,93.5 a 15,5.5 0 1 1 -30,0 15,5.5 0 1 1 30,0 z"
       transform="matrix(6.6666667,0,0,4.5454545,124,596.3622)" />
    <path
       sodipodi:nodetypes="ccccccccc"
       inkscape:connector-curvature="0"
       id="path3029"
       d="m 0,942.47986 0,85.64694 128,0 0,-42.8234 -6.09524,-36.706 L 74,948.3622 l -6,-12 -61.904762,0 C 3.04762,936.3622 0,939.42102 0,942.47986 z"
       style="fill:#ef6c00;fill-opacity:1;stroke:none" />
    <rect
       style="fill:#fffdf0;fill-opacity:1;stroke:none"
       id="rect3799"
       width="63.142857"
       height="23.764568"
       x="10"
       y="952.36218" />
    <path
       style="opacity:0.02999998;fill:#000000;fill-opacity:1;stroke:none"
       d="m 6.125,936.3622 c -3.047618,0 -6.125,3.06616 -6.125,6.125 l 0,4 c 0,-3.05884 3.077382,-6.125 6.125,-6.125 l 59.875,0 6,12 49.875,0.25 6.125,36.6876 0,-4 -6.125,-36.6876 -47.875,-0.25 -6,-12 z"
       id="path3790"
       inkscape:connector-curvature="0"
       sodipodi:nodetypes="sscsccccccccs" />
    <path
       style="fill:#ffa726;fill-opacity:1;stroke:none"
       d="m 128,954.7152 0,85.647 -128,0 0,-80 60,0 6,-12 55.90476,0.2352 c 3.04762,0 6.09524,3.059 6.09524,6.1178 z"
       id="rect2987"
       inkscape:connector-curvature="0"
       sodipodi:nodetypes="cccccccc" />
    <path
       sodipodi:nodetypes="ccccc"
       id="path3794"
       d="m 0,1036.3622 0,4 128,0 0,-4 z"
       style="opacity:0.15;fill:#000000;fill-opacity:1;stroke:none"
       inkscape:connector-curvature="0" />
    <path
       style="opacity:0.02999998;fill:#000000;fill-opacity:1;stroke:none"
       d="m 66,948.3622 -6,12 -60,0 0,4 62,0 6,-12 53.875,0.25 c 3.04762,0 6.125,3.0662 6.125,6.125 l 0,-4 c 0,-3.0588 -3.07738,-6.125 -6.125,-6.125 z"
       id="path3015"
       inkscape:connector-curvature="0"
       sodipodi:nodetypes="ccccccccscc" />
    <path
       id="path4139"
       d="M 61.00086,976.3622 C 50.764032,976.3622 40,987.1268 40,1000.3624 c 0,13.2356 10.764048,23.9998 21.00086,23.9998 C 77.235952,1024.3622 88,1013.598 88,1000.3624 88,987.1268 77.23597,976.3622 64,976.3622 z m 4.949136,3.3756 c 2.237026,0.207 4.404472,0.7176 6.375004,1.575 -0.15168,0.19 -0.26892,0.3558 -0.37499,0.675 -0.606094,1.8178 -1.51066,0.9514 -0.45001,3.2242 1.060658,2.2724 1.946956,2.8602 2.249996,1.7996 0.303072,-1.0598 -0.762178,-2.556 0.450004,-1.9498 1.212188,0.6062 2.10914,-0.164 1.2,1.201 -0.909138,1.3636 -0.889338,2.1028 -1.949998,1.7994 -1.060662,-0.3036 -1.039334,1.7974 -2.100002,2.1004 -1.060656,0.3036 -1.424998,-0.4576 -1.424998,0.3002 0,0.7572 0.601518,0.062 0.450006,1.275 -0.0462,0.3712 -0.03274,0.4374 -0.075,0.6 -0.995622,-0.285 -1.439666,-0.443 -2.174996,-0.154 -0.757618,0.3036 -1.65,2.2504 -1.65,2.2504 0.946406,0.9464 1.385514,1.6278 1.724996,1.9502 -0.21183,0.106 -0.466662,0.15 -0.675,0.3004 -1.51523,1.061 -2.695434,1.2606 -3.15,2.7746 -0.454574,1.5166 -0.29997,0.128 -0.29997,1.95 0,1.8186 -0.45915,0.5832 0.450004,2.2506 0.909134,1.6668 3.139334,2.4654 4.199994,3.3748 1.060664,0.9086 2.153682,-1.9778 4.275,0.7502 2.12132,2.727 2.25762,1.6344 1.500002,3.1504 -0.75762,1.5152 -1.496954,2.0186 -1.799996,2.6246 -0.30307,0.606 0.589338,2.6958 1.65,3.1498 0.0222,0 0.05124,0 0.075,0 -0.05646,0.13 -0.09402,0.246 -0.15004,0.3758 -1.373502,0.6238 -3.05722,1.4844 -3.375006,1.5748 -0.75,0.216 -3.396426,0.6636 -5.324998,1.1996 -0.24108,0.068 -0.430848,0.068 -0.525,0.078 0.23976,-0.261 2.13544,-1.2522 3.074998,-1.7994 1.285722,-0.7514 -0.075,-0.6752 -0.075,-0.6752 0,0 -2.046428,-0.228 -6.224994,-0.228 -2.08929,0 -2.994642,0.094 -3.450004,0.228 -0.22767,0.068 -0.339512,0.136 -0.450002,0.225 -0.1105,0.094 -0.1875,0.192 -0.374994,0.3 -0.750008,0.4284 0.43927,0.8784 -0.524996,1.1994 -0.723212,0.24 -0.807256,0 -1.424998,-0.4522 0.44066,-0.4382 1.04875,-0.966 1.799998,-1.8752 1.363706,-1.6498 1.79543,-1.3494 2.249996,-2.8494 0.454578,-1.5006 -3.824994,-1.0498 -3.824994,-1.95 0,-0.9 -0.736298,-1.4998 -2.1,-2.1 -1.363706,-0.6004 -0.43479,-0.9004 -1.950002,-1.3504 -1.515226,-0.4482 -3.220428,2.2498 -3.674998,1.3504 -0.454578,-0.9004 1.425,-0.9004 1.425,-1.9498 0,-1.0248 -2.161092,0.7734 -2.550006,-0.525 -0.0102,-0.048 -0.06742,-0.048 -0.075,-0.078 -0.03804,-0.19 -0.0134,-0.3002 0,-0.4482 0.09534,-1.0788 1.344672,-1.4996 1.875004,-2.5502 0.606096,-1.1988 0.29238,0.9008 1.049998,1.9506 0.757618,1.05 0.454582,-1.35 0,-2.7 -0.454574,-1.3506 0.289352,-1.35 1.350004,-3.15 1.06066,-1.8004 1.05,-2.85 1.05,-4.2004 0,-1.3496 0.734772,-1.4988 2.249996,-2.85 0.694482,-0.618 1.239344,-1.1574 1.650002,-1.6496 0.09926,-0.048 0.19956,-0.048 0.299998,-0.078 1.607148,-0.6432 2.282142,-1.6072 3.675,-4.5004 1.392864,-2.8922 -0.546426,-0.192 -0.975002,-0.3002 -0.428578,-0.106 -1.049998,-0.8676 -2.55,-1.725 -0.309372,-0.176 -0.585438,-0.261 -0.824996,-0.297 l 2.775002,-4.575 c 0.888886,-0.24 1.84324,-0.4044 2.774998,-0.5254 0.34091,1.9398 0.15004,3.7504 0.15004,3.7504 0,0 -0.525,0.6212 -0.525,1.05 0,0.4286 2.871428,-3.5356 3.3,-3.75 0.42858,-0.216 1.51071,1.1358 1.724996,-0.9 0.012,-0.118 -0.0134,-0.12 0,-0.225 z m 4.050002,8.0998 c -0.15388,-0.048 -0.335614,-4e-4 -0.524994,0.078 0,0.5304 -0.20529,0.9162 -0.29997,1.1246 -0.05634,-0.096 -0.22503,-0.225 -0.22503,-0.225 -0.22725,0.4192 -0.717456,0.7888 -0.22503,0.675 0.49245,-0.11 0.865926,0.192 0.525002,-0.225 -0.06556,-0.078 -0.03468,-0.046 -0.075,-0.078 0.06386,0.048 0.18484,0.078 0.450004,0.078 0.29835,0 0.458718,0 0.674996,0 -0.365798,0.27 -0.764798,0.3852 -0.22503,0.525 0.71973,0.19 1.05,0.228 1.05,0.078 0,-0.15 -0.22497,-0.675 -0.22497,-0.675 0.14062,-0.058 0.27123,-0.128 0.15004,-0.3756 -0.22728,-0.4524 -0.588332,-0.9038 -1.050006,-0.9746 z M 81.475,989.1118 c 0.37475,0.5824 0.73374,1.1808 1.050002,1.8004 -0.20862,1.2102 -0.738438,2.0252 0.15004,2.0252 0.2484,0 0.469984,-0.054 0.675,-0.078 0.0279,0.072 0.04816,0.154 0.075,0.225 -1.515234,0 -2.242384,0.453 -3.000002,0.3 -0.757618,-0.154 -2.863704,-0.288 -1.5,-1.6496 0.797028,-0.7974 1.792662,-2.0638 2.55,-2.6256 z m -9.45,2.776 c 0.13964,0.046 0.26139,0.19 0.374994,0.4472 0.454578,1.0612 1.206092,1.9488 0.600004,2.1006 -0.606096,0.15 -0.900006,0.3004 -0.900006,0.3004 0,0 2.098478,1.3644 2.250002,-0.15 0.15154,-1.516 -0.6,-2.401 -0.6,-2.401 0,0 1.046958,1.0444 1.35,1.6506 0.303066,0.606 0.29238,0 1.050004,0.7504 0.75761,0.7568 0.589338,-3.0112 1.65,-1.9504 1.060662,1.0606 1.728048,1.0426 1.424996,1.8 -0.303068,0.7572 1.950006,-0.9152 1.950006,0.5998 0,1.4608 0.931606,2.0536 -0.9,2.7752 -0.693466,-0.048 -1.242342,-0.164 -1.350006,-0.3758 -0.303062,-0.6054 -2.024996,-0.15 -2.024996,-0.15 -4.532752,-1.1328 -6.50058,-1.4918 -7.800004,-1.2746 0.0246,-0.048 0.04842,-0.048 0.075,-0.078 0.662912,-1.194 1.910178,-2.8518 1.5,-3.45 0.57771,-0.3326 1.03057,-0.6974 1.35,-0.6006 z m 12.75,7.5744 c 0.0134,0.3034 0,0.5926 0,0.9002 0,0.853 -0.05116,1.7242 -0.15004,2.5498 -1.363234,-1.2128 -3.300004,-1.1996 -3.300004,-1.1996 0,0 1.18325,-1.344 2.850004,-1.9504 0.20838,-0.078 0.431612,-0.178 0.6,-0.3 z"
       style="line-height:normal;opacity:1.0;color:#000000;fill:#b17621;fill-opacity:1"
       inkscape:connector-curvature="0" />
  </g>
</svg>
