<?xml version="1.0" encoding="UTF-8" standalone="no"?>
<!-- Created with Inkscape (http://www.inkscape.org/) -->

<svg
   xmlns:dc="http://purl.org/dc/elements/1.1/"
   xmlns:cc="http://creativecommons.org/ns#"
   xmlns:rdf="http://www.w3.org/1999/02/22-rdf-syntax-ns#"
   xmlns:svg="http://www.w3.org/2000/svg"
   xmlns="http://www.w3.org/2000/svg"
   xmlns:xlink="http://www.w3.org/1999/xlink"
   xmlns:sodipodi="http://sodipodi.sourceforge.net/DTD/sodipodi-0.dtd"
   xmlns:inkscape="http://www.inkscape.org/namespaces/inkscape"
   width="128"
   height="128"
   id="svg2"
   version="1.1"
   inkscape:version="0.91 r"
   sodipodi:docname="custom-folder-projects.svg"
   inkscape:export-filename="/media/Data/Main/Visuals/Icons/Numix/Desktop/repos/numix-wiki/Gjorgi/Numix-folders/48/New/folder-144.png"
   inkscape:export-xdpi="270"
   inkscape:export-ydpi="270">
  <defs
     id="defs4">
    <linearGradient
       inkscape:collect="always"
       id="linearGradient3809">
      <stop
         style="stop-color:#000000;stop-opacity:1;"
         offset="0"
         id="stop3811" />
      <stop
         style="stop-color:#000000;stop-opacity:0;"
         offset="1"
         id="stop3813" />
    </linearGradient>
    <radialGradient
       inkscape:collect="always"
       xlink:href="#linearGradient3958"
       id="radialGradient3981"
       gradientUnits="userSpaceOnUse"
       gradientTransform="matrix(1,0,0,0.10447761,0,50.597015)"
       cx="32.5"
       cy="56.5"
       fx="32.5"
       fy="56.5"
       r="33.5" />
    <linearGradient
       id="linearGradient3958"
       inkscape:collect="always">
      <stop
         id="stop3960"
         offset="0"
         style="stop-color:#000000;stop-opacity:1;" />
      <stop
         id="stop3962"
         offset="1"
         style="stop-color:#000000;stop-opacity:0;" />
    </linearGradient>
    <radialGradient
       gradientUnits="userSpaceOnUse"
       gradientTransform="matrix(1,0,0,0.10447761,0,50.597015)"
       r="33.5"
       fy="56.5"
       fx="32.5"
       cy="56.5"
       cx="32.5"
       id="radialGradient3964"
       xlink:href="#linearGradient3958"
       inkscape:collect="always" />
    <radialGradient
       inkscape:collect="always"
       xlink:href="#linearGradient3809"
       id="radialGradient3815"
       cx="-9"
       cy="93.5"
       fx="-9"
       fy="93.5"
       r="15"
       gradientTransform="matrix(1,0,0,0.36666667,0,59.216667)"
       gradientUnits="userSpaceOnUse" />
  </defs>
  <sodipodi:namedview
     id="base"
     pagecolor="#ffffff"
     bordercolor="#666666"
     borderopacity="1.0"
     inkscape:pageopacity="0.0"
     inkscape:pageshadow="2"
     inkscape:zoom="3.4769034"
     inkscape:cx="-26.464104"
     inkscape:cy="38.671831"
     inkscape:document-units="px"
     inkscape:current-layer="layer1"
     showgrid="true"
     inkscape:window-width="1366"
     inkscape:window-height="747"
     inkscape:window-x="0"
     inkscape:window-y="21"
     inkscape:window-maximized="1"
     showguides="true"
     inkscape:guide-bbox="true">
    <inkscape:grid
       type="xygrid"
       id="grid2985"
       empspacing="5"
       visible="true"
       enabled="true"
       snapvisiblegridlinesonly="true" />
  </sodipodi:namedview>
  <metadata
     id="metadata7">
    <rdf:RDF>
      <cc:Work
         rdf:about="">
        <dc:format>image/svg+xml</dc:format>
        <dc:type
           rdf:resource="http://purl.org/dc/dcmitype/StillImage" />
        <dc:title />
      </cc:Work>
    </rdf:RDF>
  </metadata>
  <g
     inkscape:label="Layer 1"
     inkscape:groupmode="layer"
     id="layer1"
     transform="translate(0,-924.3622)">
    <path
       sodipodi:type="arc"
       style="opacity:0.6;fill:url(#radialGradient3815);fill-opacity:1;stroke:none"
       id="path3031"
       sodipodi:cx="-9"
       sodipodi:cy="93.5"
       sodipodi:rx="15"
       sodipodi:ry="5.5"
       d="M 6,93.5 A 15,5.5 0 0 1 -9,99 15,5.5 0 0 1 -24,93.5 15,5.5 0 0 1 -9,88 15,5.5 0 0 1 6,93.5 Z"
       transform="matrix(6.6666667,0,0,4.5454545,124,596.3622)" />
    <path
       sodipodi:nodetypes="ccccccccc"
       inkscape:connector-curvature="0"
       id="path3029"
       d="m 0,942.47986 0,85.64694 128,0 0,-42.8234 -6.09524,-36.706 L 74,948.3622 l -6,-12 -61.904762,0 C 3.04762,936.3622 0,939.42102 0,942.47986 z"
       style="fill:#ef6c00;fill-opacity:1;stroke:none" />
    <rect
       style="fill:#fffdf0;fill-opacity:1;stroke:none"
       id="rect3799"
       width="63.142853"
       height="23.764568"
       x="9.9999962"
       y="952.36218" />
    <path
       style="opacity:0.02999998;fill:#000000;fill-opacity:1;stroke:none"
       d="m 6.125,936.3622 c -3.047618,0 -6.125,3.06616 -6.125,6.125 l 0,4 c 0,-3.05884 3.077382,-6.125 6.125,-6.125 l 59.875,0 6,12 49.875,0.25 6.125,36.6875 0,-4 -6.125,-36.6875 -47.875,-0.25 -6,-12 z"
       id="path3790"
       inkscape:connector-curvature="0"
       sodipodi:nodetypes="sscsccccccccs" />
    <path
       style="fill:#ffa726;fill-opacity:1;stroke:none"
       d="m 128,954.7152 0,85.647 -128,0 0,-80 60,0 6,-12 55.90476,0.2352 c 3.04762,0 6.09524,3.059 6.09524,6.1178 z"
       id="rect2987"
       inkscape:connector-curvature="0"
       sodipodi:nodetypes="cccccccc" />
    <path
       sodipodi:nodetypes="ccccc"
       id="path3794"
       d="m 0,1036.3622 0,4 128,0 0,-4 z"
       style="opacity:0.15;fill:#000000;fill-opacity:1;stroke:none"
       inkscape:connector-curvature="0" />
    <path
       style="fill:none;stroke:none"
       d="m 67.04762,951.6564 -15.238098,9.1764 9.142858,0 z"
       id="path3801"
       inkscape:connector-curvature="0" />
    <path
       style="opacity:0.02999998;fill:#000000;fill-opacity:1;stroke:none"
       d="m 66,948.3622 -6,12 -60,0 0,4 62,0 6,-12 53.875,0.25 c 3.04762,0 6.125,3.0662 6.125,6.125 l 0,-4 c 0,-3.0588 -3.07738,-6.125 -6.125,-6.125 z"
       id="path3015"
       inkscape:connector-curvature="0"
       sodipodi:nodetypes="ccccccccscc" />
    <path
       style="opacity:1;fill:#b17621;fill-opacity:1;fill-rule:nonzero;stroke:none"
       d="m 42.605336,978.2062 c -1.54172,0.048 -2.998716,0.192 -4.465784,0.7012 -0.46126,3.1296 0.29916,6.3768 1.138336,9.376 2.134636,6.8804 6.096731,13.41 11.908751,17.7896 0.21304,0.204 0.51596,0.248 0.437808,0.6132 -0.0308,1.5244 -0.003,3.1164 0,4.6452 0.06252,2.672 1.670884,5.2248 4.027948,6.4844 2.797463,1.4736 5.588935,2.8404 8.406171,4.2936 1.296884,0.6876 3.095516,-0.1 3.502576,-1.4892 0.24768,-0.914 0.07444,-1.8724 0.08756,-2.8044 -0.0096,-1.9632 -0.25116,-3.9336 -0.17512,-5.872 2.563998,-0.316 5.141659,-1.5608 6.654887,-3.68 1.348684,-1.8076 1.828968,-4.1484 1.663724,-6.3972 2.742984,-0.4892 5.569618,-0.9048 8.318603,-1.402 1.627012,-0.328 2.33256,-2.4432 1.313468,-3.7684 -1.999457,-2.5356 -4.009197,-5.0188 -6.041939,-7.5368 -1.641104,-1.9616 -4.211452,-3.0504 -6.742448,-2.7168 -1.716404,0.276 -3.473905,0.6452 -5.166295,0.9652 -5.465332,-5.2104 -12.812091,-8.098 -20.227351,-8.9384 -1.522808,-0.14 -3.09919,-0.288 -4.640911,-0.264 z m 9.281815,5.6956 c 1.791428,-0.16 3.588172,0.336 5.078731,1.5776 2.981104,2.4848 3.445468,6.9188 0.963208,9.9024 -2.482275,2.9832 -6.913655,3.448 -9.894767,0.9632 -2.981104,-2.4836 -3.445474,-6.918 -0.963208,-9.9024 1.241132,-1.4912 3.0246,-2.3768 4.816036,-2.5408 z m 28.633534,21.4704 c -0.613364,-0.056 -1.224868,0.4096 -1.313472,1.0516 -0.78172,3.5556 -3.307888,6.6448 -6.654872,8.062 -0.8715,0.276 -1.066124,1.4436 -0.35028,2.0152 1.468952,1.2244 3.16596,2.6396 4.640904,3.8564 0.717688,0.6108 1.65168,-0.052 1.663728,-0.9636 -0.0232,-0.7464 -0.10796,-1.5428 -0.17516,-2.2788 1.828844,0.392 3.619334,0.9136 5.428986,1.3144 0.852781,0.176 1.660509,-0.8516 1.313465,-1.6648 -0.715412,-1.7164 -1.454501,-3.3752 -2.189109,-5.0828 0.740496,-0.088 1.452521,-0.148 2.189109,-0.264 0.91172,-0.18 1.268248,-1.5084 0.525384,-2.1032 -1.47736,-1.2432 -2.969229,-2.446 -4.465781,-3.6804 -0.17508,-0.14 -0.408486,-0.244 -0.612954,-0.264 z"
       id="path10643"
       inkscape:connector-curvature="0"
       sodipodi:nodetypes="cccccccccccccccccccccccccccccccccccccccccc" />
    <circle
       style="opacity:1;fill:#b17621;fill-opacity:1;fill-rule:nonzero;stroke:none;stroke-width:2;stroke-linecap:square;stroke-linejoin:miter;stroke-miterlimit:4;stroke-dasharray:none;stroke-dashoffset:0;stroke-opacity:1"
       id="path4152"
       cx="52.5"
       cy="990.86218"
       r="4.25" />
  </g>
</svg>
